<?xml version="1.0" encoding="utf-8" standalone="no"?>
<!DOCTYPE svg PUBLIC "-//W3C//DTD SVG 1.1//EN"
  "http://www.w3.org/Graphics/SVG/1.1/DTD/svg11.dtd">
<svg xmlns:xlink="http://www.w3.org/1999/xlink" width="637.1455pt" height="351.99625pt" viewBox="0 0 637.1455 351.99625" xmlns="http://www.w3.org/2000/svg" version="1.1">
 <metadata>
  <rdf:RDF xmlns:dc="http://purl.org/dc/elements/1.1/" xmlns:cc="http://creativecommons.org/ns#" xmlns:rdf="http://www.w3.org/1999/02/22-rdf-syntax-ns#">
   <cc:Work>
    <dc:type rdf:resource="http://purl.org/dc/dcmitype/StillImage"/>
    <dc:date>2024-03-19T10:37:24.046832</dc:date>
    <dc:format>image/svg+xml</dc:format>
    <dc:creator>
     <cc:Agent>
      <dc:title>Matplotlib v3.8.2, https://matplotlib.org/</dc:title>
     </cc:Agent>
    </dc:creator>
   </cc:Work>
  </rdf:RDF>
 </metadata>
 <defs>
  <style type="text/css">*{stroke-linejoin: round; stroke-linecap: butt}</style>
 </defs>
 <g id="figure_1">
  <g id="patch_1">
   <path d="M 0 351.99625 
L 637.1455 351.99625 
L 637.1455 0 
L 0 0 
z
" style="fill: #ffffff"/>
  </g>
  <g id="axes_1">
   <g id="patch_2">
    <path d="M 54.15 314.44 
L 629.9455 314.44 
L 629.9455 7.2 
L 54.15 7.2 
z
" style="fill: #ffffff"/>
   </g>
   <g id="matplotlib.axis_1">
    <g id="xtick_1">
     <g id="line2d_1">
      <defs>
       <path id="m80b37c83ed" d="M 0 0 
L 0 3.5 
" style="stroke: #000000; stroke-width: 0.8"/>
      </defs>
      <g>
       <use xlink:href="#m80b37c83ed" x="54.15" y="314.44" style="stroke: #000000; stroke-width: 0.8"/>
      </g>
     </g>
     <g id="text_1">
      <!-- 0 -->
      <g transform="translate(50.96875 329.038437) scale(0.1 -0.1)">
       <defs>
        <path id="DejaVuSans-30" d="M 2034 4250 
Q 1547 4250 1301 3770 
Q 1056 3291 1056 2328 
Q 1056 1369 1301 889 
Q 1547 409 2034 409 
Q 2525 409 2770 889 
Q 3016 1369 3016 2328 
Q 3016 3291 2770 3770 
Q 2525 4250 2034 4250 
z
M 2034 4750 
Q 2819 4750 3233 4129 
Q 3647 3509 3647 2328 
Q 3647 1150 3233 529 
Q 2819 -91 2034 -91 
Q 1250 -91 836 529 
Q 422 1150 422 2328 
Q 422 3509 836 4129 
Q 1250 4750 2034 4750 
z
" transform="scale(0.015625)"/>
       </defs>
       <use xlink:href="#DejaVuSans-30"/>
      </g>
     </g>
    </g>
    <g id="xtick_2">
     <g id="line2d_2">
      <g>
       <use xlink:href="#m80b37c83ed" x="78.141479" y="314.44" style="stroke: #000000; stroke-width: 0.8"/>
      </g>
     </g>
     <g id="text_2">
      <!-- 1 -->
      <g transform="translate(74.960229 329.038437) scale(0.1 -0.1)">
       <defs>
        <path id="DejaVuSans-31" d="M 794 531 
L 1825 531 
L 1825 4091 
L 703 3866 
L 703 4441 
L 1819 4666 
L 2450 4666 
L 2450 531 
L 3481 531 
L 3481 0 
L 794 0 
L 794 531 
z
" transform="scale(0.015625)"/>
       </defs>
       <use xlink:href="#DejaVuSans-31"/>
      </g>
     </g>
    </g>
    <g id="xtick_3">
     <g id="line2d_3">
      <g>
       <use xlink:href="#m80b37c83ed" x="102.132958" y="314.44" style="stroke: #000000; stroke-width: 0.8"/>
      </g>
     </g>
     <g id="text_3">
      <!-- 2 -->
      <g transform="translate(98.951708 329.038437) scale(0.1 -0.1)">
       <defs>
        <path id="DejaVuSans-32" d="M 1228 531 
L 3431 531 
L 3431 0 
L 469 0 
L 469 531 
Q 828 903 1448 1529 
Q 2069 2156 2228 2338 
Q 2531 2678 2651 2914 
Q 2772 3150 2772 3378 
Q 2772 3750 2511 3984 
Q 2250 4219 1831 4219 
Q 1534 4219 1204 4116 
Q 875 4013 500 3803 
L 500 4441 
Q 881 4594 1212 4672 
Q 1544 4750 1819 4750 
Q 2544 4750 2975 4387 
Q 3406 4025 3406 3419 
Q 3406 3131 3298 2873 
Q 3191 2616 2906 2266 
Q 2828 2175 2409 1742 
Q 1991 1309 1228 531 
z
" transform="scale(0.015625)"/>
       </defs>
       <use xlink:href="#DejaVuSans-32"/>
      </g>
     </g>
    </g>
    <g id="xtick_4">
     <g id="line2d_4">
      <g>
       <use xlink:href="#m80b37c83ed" x="126.124438" y="314.44" style="stroke: #000000; stroke-width: 0.8"/>
      </g>
     </g>
     <g id="text_4">
      <!-- 3 -->
      <g transform="translate(122.943188 329.038437) scale(0.1 -0.1)">
       <defs>
        <path id="DejaVuSans-33" d="M 2597 2516 
Q 3050 2419 3304 2112 
Q 3559 1806 3559 1356 
Q 3559 666 3084 287 
Q 2609 -91 1734 -91 
Q 1441 -91 1130 -33 
Q 819 25 488 141 
L 488 750 
Q 750 597 1062 519 
Q 1375 441 1716 441 
Q 2309 441 2620 675 
Q 2931 909 2931 1356 
Q 2931 1769 2642 2001 
Q 2353 2234 1838 2234 
L 1294 2234 
L 1294 2753 
L 1863 2753 
Q 2328 2753 2575 2939 
Q 2822 3125 2822 3475 
Q 2822 3834 2567 4026 
Q 2313 4219 1838 4219 
Q 1578 4219 1281 4162 
Q 984 4106 628 3988 
L 628 4550 
Q 988 4650 1302 4700 
Q 1616 4750 1894 4750 
Q 2613 4750 3031 4423 
Q 3450 4097 3450 3541 
Q 3450 3153 3228 2886 
Q 3006 2619 2597 2516 
z
" transform="scale(0.015625)"/>
       </defs>
       <use xlink:href="#DejaVuSans-33"/>
      </g>
     </g>
    </g>
    <g id="xtick_5">
     <g id="line2d_5">
      <g>
       <use xlink:href="#m80b37c83ed" x="150.115917" y="314.44" style="stroke: #000000; stroke-width: 0.8"/>
      </g>
     </g>
     <g id="text_5">
      <!-- 4 -->
      <g transform="translate(146.934667 329.038437) scale(0.1 -0.1)">
       <defs>
        <path id="DejaVuSans-34" d="M 2419 4116 
L 825 1625 
L 2419 1625 
L 2419 4116 
z
M 2253 4666 
L 3047 4666 
L 3047 1625 
L 3713 1625 
L 3713 1100 
L 3047 1100 
L 3047 0 
L 2419 0 
L 2419 1100 
L 313 1100 
L 313 1709 
L 2253 4666 
z
" transform="scale(0.015625)"/>
       </defs>
       <use xlink:href="#DejaVuSans-34"/>
      </g>
     </g>
    </g>
    <g id="xtick_6">
     <g id="line2d_6">
      <g>
       <use xlink:href="#m80b37c83ed" x="174.107396" y="314.44" style="stroke: #000000; stroke-width: 0.8"/>
      </g>
     </g>
     <g id="text_6">
      <!-- 5 -->
      <g transform="translate(170.926146 329.038437) scale(0.1 -0.1)">
       <defs>
        <path id="DejaVuSans-35" d="M 691 4666 
L 3169 4666 
L 3169 4134 
L 1269 4134 
L 1269 2991 
Q 1406 3038 1543 3061 
Q 1681 3084 1819 3084 
Q 2600 3084 3056 2656 
Q 3513 2228 3513 1497 
Q 3513 744 3044 326 
Q 2575 -91 1722 -91 
Q 1428 -91 1123 -41 
Q 819 9 494 109 
L 494 744 
Q 775 591 1075 516 
Q 1375 441 1709 441 
Q 2250 441 2565 725 
Q 2881 1009 2881 1497 
Q 2881 1984 2565 2268 
Q 2250 2553 1709 2553 
Q 1456 2553 1204 2497 
Q 953 2441 691 2322 
L 691 4666 
z
" transform="scale(0.015625)"/>
       </defs>
       <use xlink:href="#DejaVuSans-35"/>
      </g>
     </g>
    </g>
    <g id="xtick_7">
     <g id="line2d_7">
      <g>
       <use xlink:href="#m80b37c83ed" x="198.098875" y="314.44" style="stroke: #000000; stroke-width: 0.8"/>
      </g>
     </g>
     <g id="text_7">
      <!-- 6 -->
      <g transform="translate(194.917625 329.038437) scale(0.1 -0.1)">
       <defs>
        <path id="DejaVuSans-36" d="M 2113 2584 
Q 1688 2584 1439 2293 
Q 1191 2003 1191 1497 
Q 1191 994 1439 701 
Q 1688 409 2113 409 
Q 2538 409 2786 701 
Q 3034 994 3034 1497 
Q 3034 2003 2786 2293 
Q 2538 2584 2113 2584 
z
M 3366 4563 
L 3366 3988 
Q 3128 4100 2886 4159 
Q 2644 4219 2406 4219 
Q 1781 4219 1451 3797 
Q 1122 3375 1075 2522 
Q 1259 2794 1537 2939 
Q 1816 3084 2150 3084 
Q 2853 3084 3261 2657 
Q 3669 2231 3669 1497 
Q 3669 778 3244 343 
Q 2819 -91 2113 -91 
Q 1303 -91 875 529 
Q 447 1150 447 2328 
Q 447 3434 972 4092 
Q 1497 4750 2381 4750 
Q 2619 4750 2861 4703 
Q 3103 4656 3366 4563 
z
" transform="scale(0.015625)"/>
       </defs>
       <use xlink:href="#DejaVuSans-36"/>
      </g>
     </g>
    </g>
    <g id="xtick_8">
     <g id="line2d_8">
      <g>
       <use xlink:href="#m80b37c83ed" x="222.090354" y="314.44" style="stroke: #000000; stroke-width: 0.8"/>
      </g>
     </g>
     <g id="text_8">
      <!-- 7 -->
      <g transform="translate(218.909104 329.038437) scale(0.1 -0.1)">
       <defs>
        <path id="DejaVuSans-37" d="M 525 4666 
L 3525 4666 
L 3525 4397 
L 1831 0 
L 1172 0 
L 2766 4134 
L 525 4134 
L 525 4666 
z
" transform="scale(0.015625)"/>
       </defs>
       <use xlink:href="#DejaVuSans-37"/>
      </g>
     </g>
    </g>
    <g id="xtick_9">
     <g id="line2d_9">
      <g>
       <use xlink:href="#m80b37c83ed" x="246.081833" y="314.44" style="stroke: #000000; stroke-width: 0.8"/>
      </g>
     </g>
     <g id="text_9">
      <!-- 8 -->
      <g transform="translate(242.900583 329.038437) scale(0.1 -0.1)">
       <defs>
        <path id="DejaVuSans-38" d="M 2034 2216 
Q 1584 2216 1326 1975 
Q 1069 1734 1069 1313 
Q 1069 891 1326 650 
Q 1584 409 2034 409 
Q 2484 409 2743 651 
Q 3003 894 3003 1313 
Q 3003 1734 2745 1975 
Q 2488 2216 2034 2216 
z
M 1403 2484 
Q 997 2584 770 2862 
Q 544 3141 544 3541 
Q 544 4100 942 4425 
Q 1341 4750 2034 4750 
Q 2731 4750 3128 4425 
Q 3525 4100 3525 3541 
Q 3525 3141 3298 2862 
Q 3072 2584 2669 2484 
Q 3125 2378 3379 2068 
Q 3634 1759 3634 1313 
Q 3634 634 3220 271 
Q 2806 -91 2034 -91 
Q 1263 -91 848 271 
Q 434 634 434 1313 
Q 434 1759 690 2068 
Q 947 2378 1403 2484 
z
M 1172 3481 
Q 1172 3119 1398 2916 
Q 1625 2713 2034 2713 
Q 2441 2713 2670 2916 
Q 2900 3119 2900 3481 
Q 2900 3844 2670 4047 
Q 2441 4250 2034 4250 
Q 1625 4250 1398 4047 
Q 1172 3844 1172 3481 
z
" transform="scale(0.015625)"/>
       </defs>
       <use xlink:href="#DejaVuSans-38"/>
      </g>
     </g>
    </g>
    <g id="xtick_10">
     <g id="line2d_10">
      <g>
       <use xlink:href="#m80b37c83ed" x="270.073313" y="314.44" style="stroke: #000000; stroke-width: 0.8"/>
      </g>
     </g>
     <g id="text_10">
      <!-- 9 -->
      <g transform="translate(266.892063 329.038437) scale(0.1 -0.1)">
       <defs>
        <path id="DejaVuSans-39" d="M 703 97 
L 703 672 
Q 941 559 1184 500 
Q 1428 441 1663 441 
Q 2288 441 2617 861 
Q 2947 1281 2994 2138 
Q 2813 1869 2534 1725 
Q 2256 1581 1919 1581 
Q 1219 1581 811 2004 
Q 403 2428 403 3163 
Q 403 3881 828 4315 
Q 1253 4750 1959 4750 
Q 2769 4750 3195 4129 
Q 3622 3509 3622 2328 
Q 3622 1225 3098 567 
Q 2575 -91 1691 -91 
Q 1453 -91 1209 -44 
Q 966 3 703 97 
z
M 1959 2075 
Q 2384 2075 2632 2365 
Q 2881 2656 2881 3163 
Q 2881 3666 2632 3958 
Q 2384 4250 1959 4250 
Q 1534 4250 1286 3958 
Q 1038 3666 1038 3163 
Q 1038 2656 1286 2365 
Q 1534 2075 1959 2075 
z
" transform="scale(0.015625)"/>
       </defs>
       <use xlink:href="#DejaVuSans-39"/>
      </g>
     </g>
    </g>
    <g id="xtick_11">
     <g id="line2d_11">
      <g>
       <use xlink:href="#m80b37c83ed" x="294.064792" y="314.44" style="stroke: #000000; stroke-width: 0.8"/>
      </g>
     </g>
     <g id="text_11">
      <!-- 10 -->
      <g transform="translate(287.702292 329.038437) scale(0.1 -0.1)">
       <use xlink:href="#DejaVuSans-31"/>
       <use xlink:href="#DejaVuSans-30" x="63.623047"/>
      </g>
     </g>
    </g>
    <g id="xtick_12">
     <g id="line2d_12">
      <g>
       <use xlink:href="#m80b37c83ed" x="318.056271" y="314.44" style="stroke: #000000; stroke-width: 0.8"/>
      </g>
     </g>
     <g id="text_12">
      <!-- 11 -->
      <g transform="translate(311.693771 329.038437) scale(0.1 -0.1)">
       <use xlink:href="#DejaVuSans-31"/>
       <use xlink:href="#DejaVuSans-31" x="63.623047"/>
      </g>
     </g>
    </g>
    <g id="xtick_13">
     <g id="line2d_13">
      <g>
       <use xlink:href="#m80b37c83ed" x="342.04775" y="314.44" style="stroke: #000000; stroke-width: 0.8"/>
      </g>
     </g>
     <g id="text_13">
      <!-- 12 -->
      <g transform="translate(335.68525 329.038437) scale(0.1 -0.1)">
       <use xlink:href="#DejaVuSans-31"/>
       <use xlink:href="#DejaVuSans-32" x="63.623047"/>
      </g>
     </g>
    </g>
    <g id="xtick_14">
     <g id="line2d_14">
      <g>
       <use xlink:href="#m80b37c83ed" x="366.039229" y="314.44" style="stroke: #000000; stroke-width: 0.8"/>
      </g>
     </g>
     <g id="text_14">
      <!-- 13 -->
      <g transform="translate(359.676729 329.038437) scale(0.1 -0.1)">
       <use xlink:href="#DejaVuSans-31"/>
       <use xlink:href="#DejaVuSans-33" x="63.623047"/>
      </g>
     </g>
    </g>
    <g id="xtick_15">
     <g id="line2d_15">
      <g>
       <use xlink:href="#m80b37c83ed" x="390.030708" y="314.44" style="stroke: #000000; stroke-width: 0.8"/>
      </g>
     </g>
     <g id="text_15">
      <!-- 14 -->
      <g transform="translate(383.668208 329.038437) scale(0.1 -0.1)">
       <use xlink:href="#DejaVuSans-31"/>
       <use xlink:href="#DejaVuSans-34" x="63.623047"/>
      </g>
     </g>
    </g>
    <g id="xtick_16">
     <g id="line2d_16">
      <g>
       <use xlink:href="#m80b37c83ed" x="414.022187" y="314.44" style="stroke: #000000; stroke-width: 0.8"/>
      </g>
     </g>
     <g id="text_16">
      <!-- 15 -->
      <g transform="translate(407.659687 329.038437) scale(0.1 -0.1)">
       <use xlink:href="#DejaVuSans-31"/>
       <use xlink:href="#DejaVuSans-35" x="63.623047"/>
      </g>
     </g>
    </g>
    <g id="xtick_17">
     <g id="line2d_17">
      <g>
       <use xlink:href="#m80b37c83ed" x="438.013667" y="314.44" style="stroke: #000000; stroke-width: 0.8"/>
      </g>
     </g>
     <g id="text_17">
      <!-- 16 -->
      <g transform="translate(431.651167 329.038437) scale(0.1 -0.1)">
       <use xlink:href="#DejaVuSans-31"/>
       <use xlink:href="#DejaVuSans-36" x="63.623047"/>
      </g>
     </g>
    </g>
    <g id="xtick_18">
     <g id="line2d_18">
      <g>
       <use xlink:href="#m80b37c83ed" x="462.005146" y="314.44" style="stroke: #000000; stroke-width: 0.8"/>
      </g>
     </g>
     <g id="text_18">
      <!-- 17 -->
      <g transform="translate(455.642646 329.038437) scale(0.1 -0.1)">
       <use xlink:href="#DejaVuSans-31"/>
       <use xlink:href="#DejaVuSans-37" x="63.623047"/>
      </g>
     </g>
    </g>
    <g id="xtick_19">
     <g id="line2d_19">
      <g>
       <use xlink:href="#m80b37c83ed" x="485.996625" y="314.44" style="stroke: #000000; stroke-width: 0.8"/>
      </g>
     </g>
     <g id="text_19">
      <!-- 18 -->
      <g transform="translate(479.634125 329.038437) scale(0.1 -0.1)">
       <use xlink:href="#DejaVuSans-31"/>
       <use xlink:href="#DejaVuSans-38" x="63.623047"/>
      </g>
     </g>
    </g>
    <g id="xtick_20">
     <g id="line2d_20">
      <g>
       <use xlink:href="#m80b37c83ed" x="509.988104" y="314.44" style="stroke: #000000; stroke-width: 0.8"/>
      </g>
     </g>
     <g id="text_20">
      <!-- 19 -->
      <g transform="translate(503.625604 329.038437) scale(0.1 -0.1)">
       <use xlink:href="#DejaVuSans-31"/>
       <use xlink:href="#DejaVuSans-39" x="63.623047"/>
      </g>
     </g>
    </g>
    <g id="xtick_21">
     <g id="line2d_21">
      <g>
       <use xlink:href="#m80b37c83ed" x="533.979583" y="314.44" style="stroke: #000000; stroke-width: 0.8"/>
      </g>
     </g>
     <g id="text_21">
      <!-- 20 -->
      <g transform="translate(527.617083 329.038437) scale(0.1 -0.1)">
       <use xlink:href="#DejaVuSans-32"/>
       <use xlink:href="#DejaVuSans-30" x="63.623047"/>
      </g>
     </g>
    </g>
    <g id="xtick_22">
     <g id="line2d_22">
      <g>
       <use xlink:href="#m80b37c83ed" x="557.971063" y="314.44" style="stroke: #000000; stroke-width: 0.8"/>
      </g>
     </g>
     <g id="text_22">
      <!-- 21 -->
      <g transform="translate(551.608563 329.038437) scale(0.1 -0.1)">
       <use xlink:href="#DejaVuSans-32"/>
       <use xlink:href="#DejaVuSans-31" x="63.623047"/>
      </g>
     </g>
    </g>
    <g id="xtick_23">
     <g id="line2d_23">
      <g>
       <use xlink:href="#m80b37c83ed" x="581.962542" y="314.44" style="stroke: #000000; stroke-width: 0.8"/>
      </g>
     </g>
     <g id="text_23">
      <!-- 22 -->
      <g transform="translate(575.600042 329.038437) scale(0.1 -0.1)">
       <use xlink:href="#DejaVuSans-32"/>
       <use xlink:href="#DejaVuSans-32" x="63.623047"/>
      </g>
     </g>
    </g>
    <g id="xtick_24">
     <g id="line2d_24">
      <g>
       <use xlink:href="#m80b37c83ed" x="605.954021" y="314.44" style="stroke: #000000; stroke-width: 0.8"/>
      </g>
     </g>
     <g id="text_24">
      <!-- 23 -->
      <g transform="translate(599.591521 329.038437) scale(0.1 -0.1)">
       <use xlink:href="#DejaVuSans-32"/>
       <use xlink:href="#DejaVuSans-33" x="63.623047"/>
      </g>
     </g>
    </g>
    <g id="text_25">
     <!-- Time of the day -->
     <g transform="translate(302.824313 342.716562) scale(0.1 -0.1)">
      <defs>
       <path id="DejaVuSans-54" d="M -19 4666 
L 3928 4666 
L 3928 4134 
L 2272 4134 
L 2272 0 
L 1638 0 
L 1638 4134 
L -19 4134 
L -19 4666 
z
" transform="scale(0.015625)"/>
       <path id="DejaVuSans-69" d="M 603 3500 
L 1178 3500 
L 1178 0 
L 603 0 
L 603 3500 
z
M 603 4863 
L 1178 4863 
L 1178 4134 
L 603 4134 
L 603 4863 
z
" transform="scale(0.015625)"/>
       <path id="DejaVuSans-6d" d="M 3328 2828 
Q 3544 3216 3844 3400 
Q 4144 3584 4550 3584 
Q 5097 3584 5394 3201 
Q 5691 2819 5691 2113 
L 5691 0 
L 5113 0 
L 5113 2094 
Q 5113 2597 4934 2840 
Q 4756 3084 4391 3084 
Q 3944 3084 3684 2787 
Q 3425 2491 3425 1978 
L 3425 0 
L 2847 0 
L 2847 2094 
Q 2847 2600 2669 2842 
Q 2491 3084 2119 3084 
Q 1678 3084 1418 2786 
Q 1159 2488 1159 1978 
L 1159 0 
L 581 0 
L 581 3500 
L 1159 3500 
L 1159 2956 
Q 1356 3278 1631 3431 
Q 1906 3584 2284 3584 
Q 2666 3584 2933 3390 
Q 3200 3197 3328 2828 
z
" transform="scale(0.015625)"/>
       <path id="DejaVuSans-65" d="M 3597 1894 
L 3597 1613 
L 953 1613 
Q 991 1019 1311 708 
Q 1631 397 2203 397 
Q 2534 397 2845 478 
Q 3156 559 3463 722 
L 3463 178 
Q 3153 47 2828 -22 
Q 2503 -91 2169 -91 
Q 1331 -91 842 396 
Q 353 884 353 1716 
Q 353 2575 817 3079 
Q 1281 3584 2069 3584 
Q 2775 3584 3186 3129 
Q 3597 2675 3597 1894 
z
M 3022 2063 
Q 3016 2534 2758 2815 
Q 2500 3097 2075 3097 
Q 1594 3097 1305 2825 
Q 1016 2553 972 2059 
L 3022 2063 
z
" transform="scale(0.015625)"/>
       <path id="DejaVuSans-20" transform="scale(0.015625)"/>
       <path id="DejaVuSans-6f" d="M 1959 3097 
Q 1497 3097 1228 2736 
Q 959 2375 959 1747 
Q 959 1119 1226 758 
Q 1494 397 1959 397 
Q 2419 397 2687 759 
Q 2956 1122 2956 1747 
Q 2956 2369 2687 2733 
Q 2419 3097 1959 3097 
z
M 1959 3584 
Q 2709 3584 3137 3096 
Q 3566 2609 3566 1747 
Q 3566 888 3137 398 
Q 2709 -91 1959 -91 
Q 1206 -91 779 398 
Q 353 888 353 1747 
Q 353 2609 779 3096 
Q 1206 3584 1959 3584 
z
" transform="scale(0.015625)"/>
       <path id="DejaVuSans-66" d="M 2375 4863 
L 2375 4384 
L 1825 4384 
Q 1516 4384 1395 4259 
Q 1275 4134 1275 3809 
L 1275 3500 
L 2222 3500 
L 2222 3053 
L 1275 3053 
L 1275 0 
L 697 0 
L 697 3053 
L 147 3053 
L 147 3500 
L 697 3500 
L 697 3744 
Q 697 4328 969 4595 
Q 1241 4863 1831 4863 
L 2375 4863 
z
" transform="scale(0.015625)"/>
       <path id="DejaVuSans-74" d="M 1172 4494 
L 1172 3500 
L 2356 3500 
L 2356 3053 
L 1172 3053 
L 1172 1153 
Q 1172 725 1289 603 
Q 1406 481 1766 481 
L 2356 481 
L 2356 0 
L 1766 0 
Q 1100 0 847 248 
Q 594 497 594 1153 
L 594 3053 
L 172 3053 
L 172 3500 
L 594 3500 
L 594 4494 
L 1172 4494 
z
" transform="scale(0.015625)"/>
       <path id="DejaVuSans-68" d="M 3513 2113 
L 3513 0 
L 2938 0 
L 2938 2094 
Q 2938 2591 2744 2837 
Q 2550 3084 2163 3084 
Q 1697 3084 1428 2787 
Q 1159 2491 1159 1978 
L 1159 0 
L 581 0 
L 581 4863 
L 1159 4863 
L 1159 2956 
Q 1366 3272 1645 3428 
Q 1925 3584 2291 3584 
Q 2894 3584 3203 3211 
Q 3513 2838 3513 2113 
z
" transform="scale(0.015625)"/>
       <path id="DejaVuSans-64" d="M 2906 2969 
L 2906 4863 
L 3481 4863 
L 3481 0 
L 2906 0 
L 2906 525 
Q 2725 213 2448 61 
Q 2172 -91 1784 -91 
Q 1150 -91 751 415 
Q 353 922 353 1747 
Q 353 2572 751 3078 
Q 1150 3584 1784 3584 
Q 2172 3584 2448 3432 
Q 2725 3281 2906 2969 
z
M 947 1747 
Q 947 1113 1208 752 
Q 1469 391 1925 391 
Q 2381 391 2643 752 
Q 2906 1113 2906 1747 
Q 2906 2381 2643 2742 
Q 2381 3103 1925 3103 
Q 1469 3103 1208 2742 
Q 947 2381 947 1747 
z
" transform="scale(0.015625)"/>
       <path id="DejaVuSans-61" d="M 2194 1759 
Q 1497 1759 1228 1600 
Q 959 1441 959 1056 
Q 959 750 1161 570 
Q 1363 391 1709 391 
Q 2188 391 2477 730 
Q 2766 1069 2766 1631 
L 2766 1759 
L 2194 1759 
z
M 3341 1997 
L 3341 0 
L 2766 0 
L 2766 531 
Q 2569 213 2275 61 
Q 1981 -91 1556 -91 
Q 1019 -91 701 211 
Q 384 513 384 1019 
Q 384 1609 779 1909 
Q 1175 2209 1959 2209 
L 2766 2209 
L 2766 2266 
Q 2766 2663 2505 2880 
Q 2244 3097 1772 3097 
Q 1472 3097 1187 3025 
Q 903 2953 641 2809 
L 641 3341 
Q 956 3463 1253 3523 
Q 1550 3584 1831 3584 
Q 2591 3584 2966 3190 
Q 3341 2797 3341 1997 
z
" transform="scale(0.015625)"/>
       <path id="DejaVuSans-79" d="M 2059 -325 
Q 1816 -950 1584 -1140 
Q 1353 -1331 966 -1331 
L 506 -1331 
L 506 -850 
L 844 -850 
Q 1081 -850 1212 -737 
Q 1344 -625 1503 -206 
L 1606 56 
L 191 3500 
L 800 3500 
L 1894 763 
L 2988 3500 
L 3597 3500 
L 2059 -325 
z
" transform="scale(0.015625)"/>
      </defs>
      <use xlink:href="#DejaVuSans-54"/>
      <use xlink:href="#DejaVuSans-69" x="57.958984"/>
      <use xlink:href="#DejaVuSans-6d" x="85.742188"/>
      <use xlink:href="#DejaVuSans-65" x="183.154297"/>
      <use xlink:href="#DejaVuSans-20" x="244.677734"/>
      <use xlink:href="#DejaVuSans-6f" x="276.464844"/>
      <use xlink:href="#DejaVuSans-66" x="337.646484"/>
      <use xlink:href="#DejaVuSans-20" x="372.851562"/>
      <use xlink:href="#DejaVuSans-74" x="404.638672"/>
      <use xlink:href="#DejaVuSans-68" x="443.847656"/>
      <use xlink:href="#DejaVuSans-65" x="507.226562"/>
      <use xlink:href="#DejaVuSans-20" x="568.75"/>
      <use xlink:href="#DejaVuSans-64" x="600.537109"/>
      <use xlink:href="#DejaVuSans-61" x="664.013672"/>
      <use xlink:href="#DejaVuSans-79" x="725.292969"/>
     </g>
    </g>
   </g>
   <g id="matplotlib.axis_2">
    <g id="ytick_1">
     <g id="line2d_25">
      <defs>
       <path id="mb2b92db4ab" d="M 0 0 
L -3.5 0 
" style="stroke: #000000; stroke-width: 0.8"/>
      </defs>
      <g>
       <use xlink:href="#mb2b92db4ab" x="54.15" y="312.094656" style="stroke: #000000; stroke-width: 0.8"/>
      </g>
     </g>
     <g id="text_26">
      <!-- 0 -->
      <g transform="translate(40.7875 315.893875) scale(0.1 -0.1)">
       <use xlink:href="#DejaVuSans-30"/>
      </g>
     </g>
    </g>
    <g id="ytick_2">
     <g id="line2d_26">
      <g>
       <use xlink:href="#mb2b92db4ab" x="54.15" y="265.187786" style="stroke: #000000; stroke-width: 0.8"/>
      </g>
     </g>
     <g id="text_27">
      <!-- 200 -->
      <g transform="translate(28.0625 268.987005) scale(0.1 -0.1)">
       <use xlink:href="#DejaVuSans-32"/>
       <use xlink:href="#DejaVuSans-30" x="63.623047"/>
       <use xlink:href="#DejaVuSans-30" x="127.246094"/>
      </g>
     </g>
    </g>
    <g id="ytick_3">
     <g id="line2d_27">
      <g>
       <use xlink:href="#mb2b92db4ab" x="54.15" y="218.280916" style="stroke: #000000; stroke-width: 0.8"/>
      </g>
     </g>
     <g id="text_28">
      <!-- 400 -->
      <g transform="translate(28.0625 222.080135) scale(0.1 -0.1)">
       <use xlink:href="#DejaVuSans-34"/>
       <use xlink:href="#DejaVuSans-30" x="63.623047"/>
       <use xlink:href="#DejaVuSans-30" x="127.246094"/>
      </g>
     </g>
    </g>
    <g id="ytick_4">
     <g id="line2d_28">
      <g>
       <use xlink:href="#mb2b92db4ab" x="54.15" y="171.374046" style="stroke: #000000; stroke-width: 0.8"/>
      </g>
     </g>
     <g id="text_29">
      <!-- 600 -->
      <g transform="translate(28.0625 175.173265) scale(0.1 -0.1)">
       <use xlink:href="#DejaVuSans-36"/>
       <use xlink:href="#DejaVuSans-30" x="63.623047"/>
       <use xlink:href="#DejaVuSans-30" x="127.246094"/>
      </g>
     </g>
    </g>
    <g id="ytick_5">
     <g id="line2d_29">
      <g>
       <use xlink:href="#mb2b92db4ab" x="54.15" y="124.467176" style="stroke: #000000; stroke-width: 0.8"/>
      </g>
     </g>
     <g id="text_30">
      <!-- 800 -->
      <g transform="translate(28.0625 128.266394) scale(0.1 -0.1)">
       <use xlink:href="#DejaVuSans-38"/>
       <use xlink:href="#DejaVuSans-30" x="63.623047"/>
       <use xlink:href="#DejaVuSans-30" x="127.246094"/>
      </g>
     </g>
    </g>
    <g id="ytick_6">
     <g id="line2d_30">
      <g>
       <use xlink:href="#mb2b92db4ab" x="54.15" y="77.560305" style="stroke: #000000; stroke-width: 0.8"/>
      </g>
     </g>
     <g id="text_31">
      <!-- 1000 -->
      <g transform="translate(21.7 81.359524) scale(0.1 -0.1)">
       <use xlink:href="#DejaVuSans-31"/>
       <use xlink:href="#DejaVuSans-30" x="63.623047"/>
       <use xlink:href="#DejaVuSans-30" x="127.246094"/>
       <use xlink:href="#DejaVuSans-30" x="190.869141"/>
      </g>
     </g>
    </g>
    <g id="ytick_7">
     <g id="line2d_31">
      <g>
       <use xlink:href="#mb2b92db4ab" x="54.15" y="30.653435" style="stroke: #000000; stroke-width: 0.8"/>
      </g>
     </g>
     <g id="text_32">
      <!-- 1200 -->
      <g transform="translate(21.7 34.452654) scale(0.1 -0.1)">
       <use xlink:href="#DejaVuSans-31"/>
       <use xlink:href="#DejaVuSans-32" x="63.623047"/>
       <use xlink:href="#DejaVuSans-30" x="127.246094"/>
       <use xlink:href="#DejaVuSans-30" x="190.869141"/>
      </g>
     </g>
    </g>
    <g id="text_33">
     <!-- Solar irradiance [W/m$^2$] -->
     <g transform="translate(15.620312 219.77) rotate(-90) scale(0.1 -0.1)">
      <defs>
       <path id="DejaVuSans-53" d="M 3425 4513 
L 3425 3897 
Q 3066 4069 2747 4153 
Q 2428 4238 2131 4238 
Q 1616 4238 1336 4038 
Q 1056 3838 1056 3469 
Q 1056 3159 1242 3001 
Q 1428 2844 1947 2747 
L 2328 2669 
Q 3034 2534 3370 2195 
Q 3706 1856 3706 1288 
Q 3706 609 3251 259 
Q 2797 -91 1919 -91 
Q 1588 -91 1214 -16 
Q 841 59 441 206 
L 441 856 
Q 825 641 1194 531 
Q 1563 422 1919 422 
Q 2459 422 2753 634 
Q 3047 847 3047 1241 
Q 3047 1584 2836 1778 
Q 2625 1972 2144 2069 
L 1759 2144 
Q 1053 2284 737 2584 
Q 422 2884 422 3419 
Q 422 4038 858 4394 
Q 1294 4750 2059 4750 
Q 2388 4750 2728 4690 
Q 3069 4631 3425 4513 
z
" transform="scale(0.015625)"/>
       <path id="DejaVuSans-6c" d="M 603 4863 
L 1178 4863 
L 1178 0 
L 603 0 
L 603 4863 
z
" transform="scale(0.015625)"/>
       <path id="DejaVuSans-72" d="M 2631 2963 
Q 2534 3019 2420 3045 
Q 2306 3072 2169 3072 
Q 1681 3072 1420 2755 
Q 1159 2438 1159 1844 
L 1159 0 
L 581 0 
L 581 3500 
L 1159 3500 
L 1159 2956 
Q 1341 3275 1631 3429 
Q 1922 3584 2338 3584 
Q 2397 3584 2469 3576 
Q 2541 3569 2628 3553 
L 2631 2963 
z
" transform="scale(0.015625)"/>
       <path id="DejaVuSans-6e" d="M 3513 2113 
L 3513 0 
L 2938 0 
L 2938 2094 
Q 2938 2591 2744 2837 
Q 2550 3084 2163 3084 
Q 1697 3084 1428 2787 
Q 1159 2491 1159 1978 
L 1159 0 
L 581 0 
L 581 3500 
L 1159 3500 
L 1159 2956 
Q 1366 3272 1645 3428 
Q 1925 3584 2291 3584 
Q 2894 3584 3203 3211 
Q 3513 2838 3513 2113 
z
" transform="scale(0.015625)"/>
       <path id="DejaVuSans-63" d="M 3122 3366 
L 3122 2828 
Q 2878 2963 2633 3030 
Q 2388 3097 2138 3097 
Q 1578 3097 1268 2742 
Q 959 2388 959 1747 
Q 959 1106 1268 751 
Q 1578 397 2138 397 
Q 2388 397 2633 464 
Q 2878 531 3122 666 
L 3122 134 
Q 2881 22 2623 -34 
Q 2366 -91 2075 -91 
Q 1284 -91 818 406 
Q 353 903 353 1747 
Q 353 2603 823 3093 
Q 1294 3584 2113 3584 
Q 2378 3584 2631 3529 
Q 2884 3475 3122 3366 
z
" transform="scale(0.015625)"/>
       <path id="DejaVuSans-5b" d="M 550 4863 
L 1875 4863 
L 1875 4416 
L 1125 4416 
L 1125 -397 
L 1875 -397 
L 1875 -844 
L 550 -844 
L 550 4863 
z
" transform="scale(0.015625)"/>
       <path id="DejaVuSans-57" d="M 213 4666 
L 850 4666 
L 1831 722 
L 2809 4666 
L 3519 4666 
L 4500 722 
L 5478 4666 
L 6119 4666 
L 4947 0 
L 4153 0 
L 3169 4050 
L 2175 0 
L 1381 0 
L 213 4666 
z
" transform="scale(0.015625)"/>
       <path id="DejaVuSans-2f" d="M 1625 4666 
L 2156 4666 
L 531 -594 
L 0 -594 
L 1625 4666 
z
" transform="scale(0.015625)"/>
       <path id="DejaVuSans-5d" d="M 1947 4863 
L 1947 -844 
L 622 -844 
L 622 -397 
L 1369 -397 
L 1369 4416 
L 622 4416 
L 622 4863 
L 1947 4863 
z
" transform="scale(0.015625)"/>
      </defs>
      <use xlink:href="#DejaVuSans-53" transform="translate(0 0.765625)"/>
      <use xlink:href="#DejaVuSans-6f" transform="translate(63.476562 0.765625)"/>
      <use xlink:href="#DejaVuSans-6c" transform="translate(124.658203 0.765625)"/>
      <use xlink:href="#DejaVuSans-61" transform="translate(152.441406 0.765625)"/>
      <use xlink:href="#DejaVuSans-72" transform="translate(213.720703 0.765625)"/>
      <use xlink:href="#DejaVuSans-20" transform="translate(254.833984 0.765625)"/>
      <use xlink:href="#DejaVuSans-69" transform="translate(286.621094 0.765625)"/>
      <use xlink:href="#DejaVuSans-72" transform="translate(314.404297 0.765625)"/>
      <use xlink:href="#DejaVuSans-72" transform="translate(355.517578 0.765625)"/>
      <use xlink:href="#DejaVuSans-61" transform="translate(396.630859 0.765625)"/>
      <use xlink:href="#DejaVuSans-64" transform="translate(457.910156 0.765625)"/>
      <use xlink:href="#DejaVuSans-69" transform="translate(521.386719 0.765625)"/>
      <use xlink:href="#DejaVuSans-61" transform="translate(549.169922 0.765625)"/>
      <use xlink:href="#DejaVuSans-6e" transform="translate(610.449219 0.765625)"/>
      <use xlink:href="#DejaVuSans-63" transform="translate(673.828125 0.765625)"/>
      <use xlink:href="#DejaVuSans-65" transform="translate(728.808594 0.765625)"/>
      <use xlink:href="#DejaVuSans-20" transform="translate(790.332031 0.765625)"/>
      <use xlink:href="#DejaVuSans-5b" transform="translate(822.119141 0.765625)"/>
      <use xlink:href="#DejaVuSans-57" transform="translate(861.132812 0.765625)"/>
      <use xlink:href="#DejaVuSans-2f" transform="translate(960.009766 0.765625)"/>
      <use xlink:href="#DejaVuSans-6d" transform="translate(993.701172 0.765625)"/>
      <use xlink:href="#DejaVuSans-32" transform="translate(1092.070312 39.046875) scale(0.7)"/>
      <use xlink:href="#DejaVuSans-5d" transform="translate(1139.34082 0.765625)"/>
     </g>
    </g>
   </g>
   <g id="line2d_32">
    <path d="M 54.15 312.094656 
L 133.3769 312.094656 
L 133.777036 311.860122 
L 134.977443 311.860122 
L 135.777715 311.625588 
L 136.978123 311.625588 
L 137.778394 311.391053 
L 138.17853 311.391053 
L 140.17921 310.452916 
L 140.579345 310.335649 
L 142.580025 309.186431 
L 143.380296 308.412467 
L 143.780432 308.060665 
L 144.180568 307.54469 
L 144.580704 307.380516 
L 144.98084 307.075621 
L 145.781112 305.97331 
L 146.181247 305.879496 
L 146.581383 305.926403 
L 146.981519 305.809136 
L 147.381655 306.04367 
L 147.781791 305.762229 
L 148.181927 305.644962 
L 149.382334 303.440339 
L 149.78247 303.111991 
L 150.182606 302.619468 
L 150.582742 302.502201 
L 151.383014 303.323071 
L 152.183285 302.08004 
L 152.583421 302.596015 
L 152.983557 300.813555 
L 153.383693 300.156858 
L 154.5841 299.00764 
L 158.185323 294.410766 
L 163.787225 286.413145 
L 164.987633 284.443056 
L 166.988312 281.699003 
L 168.988991 278.837685 
L 170.989671 275.882554 
L 172.190078 274.076637 
L 173.390486 272.458351 
L 175.791301 268.494722 
L 176.191437 268.260188 
L 176.591573 269.057603 
L 176.991708 271.262225 
L 177.391844 275.10859 
L 179.392524 298.608931 
L 179.792659 300.625926 
L 180.192795 301.470251 
L 180.592931 301.775145 
L 180.993067 301.564064 
L 181.393203 300.672833 
L 181.793339 298.468211 
L 182.193475 294.457674 
L 182.993746 281.956992 
L 184.194154 262.537547 
L 184.59429 258.362835 
L 184.994426 255.99404 
L 185.394562 254.610286 
L 186.194833 252.898188 
L 190.196192 244.71294 
L 191.396599 242.273777 
L 192.997143 240.233333 
L 193.397279 239.764264 
L 198.999181 230.33598 
L 199.399317 229.796554 
L 201.399996 226.231629 
L 202.200268 224.918235 
L 202.600403 224.12082 
L 203.000539 294.387313 
L 203.400675 304.073582 
L 203.800811 303.768687 
L 204.200947 231.41484 
L 204.601083 220.931151 
L 207.80217 215.513414 
L 210.603121 211.080709 
L 212.203664 208.54774 
L 215.004615 204.091588 
L 217.005294 200.761197 
L 217.40543 200.315583 
L 225.808283 186.19662 
L 227.008691 184.273435 
L 227.808962 182.795872 
L 228.209098 216.428096 
L 228.609234 303.205804 
L 229.409506 303.111991 
L 229.809642 302.97127 
L 230.209778 254.070859 
L 230.609913 177.941008 
L 234.211136 172.335631 
L 235.011408 170.7408 
L 235.81168 169.568128 
L 236.611951 168.301652 
L 237.012087 168.043655 
L 237.412223 167.598048 
L 238.212495 166.284648 
L 238.612631 165.745221 
L 239.012767 165.487239 
L 240.213174 163.423326 
L 241.813718 161.382888 
L 242.613989 159.741148 
L 243.014125 159.389346 
L 244.214533 157.747606 
L 244.614669 157.301985 
L 245.014804 156.457667 
L 245.41494 155.988598 
L 245.815076 155.167728 
L 246.215212 154.722107 
L 246.615348 153.948146 
L 247.015484 152.728565 
L 247.41562 152.236048 
L 247.815755 152.024962 
L 250.216571 149.890705 
L 251.016842 148.108235 
L 251.416978 147.662629 
L 251.817114 146.818296 
L 252.21725 146.302318 
L 253.017522 144.777845 
L 253.817793 143.276833 
L 254.217929 142.643588 
L 254.618065 142.291786 
L 259.019559 135.935911 
L 261.82051 132.558611 
L 262.620782 131.245224 
L 263.421054 130.072552 
L 265.821869 127.093963 
L 266.622141 125.897829 
L 267.422412 125.100421 
L 268.222684 123.998107 
L 269.423092 122.755078 
L 270.223363 121.81694 
L 271.023635 120.456644 
L 271.423771 119.870308 
L 271.823907 119.964113 
L 272.624179 119.377777 
L 273.024314 118.697636 
L 273.42445 118.674174 
L 274.224722 117.431145 
L 275.024994 116.000491 
L 275.42513 115.484513 
L 276.225401 115.109249 
L 276.625537 114.522913 
L 277.025673 114.522913 
L 277.425809 113.889682 
L 277.825945 113.608238 
L 279.426488 111.661606 
L 279.826624 111.262894 
L 280.22676 111.239432 
L 280.626896 110.582739 
L 281.027032 110.20749 
L 281.427167 110.512382 
L 281.827303 110.418562 
L 283.027711 108.47193 
L 283.427847 108.120128 
L 283.827983 108.284305 
L 284.628254 107.932504 
L 285.02839 107.580702 
L 285.428526 106.994366 
L 285.828662 106.619117 
L 286.228798 106.525298 
L 287.029069 105.68098 
L 287.429205 105.751337 
L 287.829341 105.211911 
L 288.229477 104.461398 
L 289.429885 103.382532 
L 289.830021 104.226864 
L 290.230156 103.757795 
L 291.030428 102.186412 
L 291.8307 102.233322 
L 292.230836 102.678929 
L 293.431243 101.01374 
L 293.831379 100.990293 
L 294.231515 100.849564 
L 294.631651 101.01374 
L 295.031787 100.802654 
L 296.232194 99.41891 
L 296.63233 99.278181 
L 297.032466 98.996751 
L 297.432602 98.902931 
L 298.232874 97.824079 
L 298.633009 97.824079 
L 299.033145 96.956299 
L 299.433281 96.627945 
L 299.833417 96.463768 
L 300.233553 96.088519 
L 300.633689 95.900894 
L 301.033825 95.853985 
L 301.43396 95.61945 
L 301.834096 95.220739 
L 302.234232 94.259154 
L 302.634368 94.493688 
L 303.034504 94.540598 
L 303.43464 94.235692 
L 303.834776 94.399869 
L 304.635047 93.367926 
L 305.035183 93.836995 
L 305.435319 93.461731 
L 305.835455 93.836995 
L 306.235591 93.719728 
L 306.635727 92.734681 
L 307.035862 92.875396 
L 307.836134 92.031078 
L 308.23627 92.312522 
L 308.636406 92.359417 
L 309.436678 91.984168 
L 309.836813 92.312522 
L 310.236949 92.077987 
L 310.637085 91.562009 
L 311.437357 91.702724 
L 312.237629 91.726186 
L 313.838172 91.13985 
L 314.238308 91.562009 
L 314.638444 91.280565 
L 315.03858 91.304013 
L 315.438715 90.178251 
L 315.838851 90.22516 
L 316.238987 90.154803 
L 316.639123 89.943716 
L 317.039259 90.201713 
L 317.439395 89.967178 
L 317.839531 90.342427 
L 318.239666 89.920269 
L 318.639802 89.122846 
L 319.039938 89.029041 
L 319.440074 88.63033 
L 320.240346 88.911774 
L 320.640482 88.700687 
L 321.040617 88.63033 
L 321.440753 89.099398 
L 322.241025 88.53651 
L 322.641161 88.747597 
L 323.041297 88.372333 
L 323.841568 88.395795 
L 324.241704 88.58342 
L 324.64184 89.40429 
L 325.442112 88.747597 
L 325.842248 89.474648 
L 326.242384 89.638824 
L 326.642519 89.052489 
L 327.442791 87.645282 
L 327.842927 87.176214 
L 328.243063 87.692192 
L 328.643199 87.223123 
L 329.043335 87.528015 
L 329.44347 88.559972 
L 329.843606 88.677239 
L 331.044014 90.248608 
L 331.44415 89.4512 
L 331.844286 89.779539 
L 332.244421 89.709182 
L 332.644557 89.146308 
L 333.044693 89.49811 
L 334.245101 88.395795 
L 334.645237 88.724135 
L 335.045372 88.208171 
L 335.445508 88.53651 
L 336.24578 89.49811 
L 336.645916 89.756092 
L 337.046052 89.545005 
L 337.446188 89.545005 
L 338.646595 89.967178 
L 339.046731 90.459695 
L 339.446867 90.131341 
L 339.847003 90.506604 
L 340.247139 89.967178 
L 340.647274 90.22516 
L 341.04741 90.670781 
L 342.247818 90.670781 
L 342.647954 90.31898 
L 343.04809 90.60041 
L 343.448226 90.365875 
L 343.848361 90.834944 
L 344.248497 91.491652 
L 344.648633 91.679276 
L 345.048769 92.077987 
L 345.849041 92.031078 
L 346.249177 92.195255 
L 346.649312 92.523594 
L 347.049448 92.101435 
L 347.449584 91.866901 
L 347.84972 91.91381 
L 348.249856 92.335969 
L 348.649992 92.945753 
L 349.050128 93.086482 
L 349.450263 93.414822 
L 349.850399 93.180287 
L 350.650671 93.88389 
L 351.851079 94.775132 
L 352.251214 95.338006 
L 352.65135 95.572541 
L 353.051486 96.158877 
L 353.451622 96.135429 
L 353.851758 96.346501 
L 354.251894 95.900894 
L 354.65203 95.66636 
L 355.052165 96.182339 
L 355.452301 96.299606 
L 355.852437 96.721765 
L 356.652709 97.190833 
L 357.452981 97.566083 
L 357.853116 98.128971 
L 358.253252 98.293148 
L 358.653388 98.644949 
L 359.053524 98.668397 
L 359.45366 98.199328 
L 359.853796 98.246238 
L 360.253932 99.090556 
L 360.654067 99.442357 
L 361.054203 99.981784 
L 361.454339 100.075603 
L 363.054883 101.529719 
L 363.455018 101.38899 
L 363.855154 101.764253 
L 364.25529 101.740791 
L 365.055562 102.913463 
L 365.455698 103.101102 
L 366.656105 104.742842 
L 367.456377 104.86011 
L 367.856513 105.235359 
L 368.656785 105.235359 
L 369.05692 105.58716 
L 369.457056 105.704427 
L 369.857192 106.267316 
L 370.257328 107.111634 
L 371.0576 108.14359 
L 371.857871 107.979414 
L 372.258007 108.636107 
L 372.658143 108.565749 
L 373.058279 108.987908 
L 373.858551 108.870641 
L 374.658822 110.277847 
L 375.459094 110.559291 
L 375.85923 110.512382 
L 376.659502 111.309804 
L 378.660181 113.467509 
L 379.060317 113.584776 
L 379.860589 114.663643 
L 381.060996 115.132711 
L 382.66154 116.797899 
L 383.061675 117.712589 
L 383.861947 118.580369 
L 384.662219 119.237062 
L 385.062355 119.35433 
L 385.462491 119.729579 
L 385.862626 120.433182 
L 386.662898 120.855341 
L 388.263442 122.450186 
L 388.663577 122.168742 
L 389.063713 122.96615 
L 389.463849 123.50559 
L 389.863985 124.467176 
L 391.064393 125.780562 
L 391.464528 126.320003 
L 392.2648 127.680299 
L 392.664936 127.656837 
L 393.065072 127.891371 
L 393.865344 129.814556 
L 394.265479 130.189819 
L 394.665615 130.04909 
L 395.065751 130.588516 
L 395.465887 131.409387 
L 395.866023 131.925365 
L 396.266159 132.183361 
L 397.866702 134.997774 
L 398.266838 134.903954 
L 399.06711 135.748272 
L 399.467246 136.428427 
L 401.067789 137.952901 
L 401.467925 138.04672 
L 402.268197 138.844128 
L 402.668333 140.11062 
L 403.468604 141.424006 
L 404.669012 143.581725 
L 405.469284 144.871664 
L 406.269555 145.762892 
L 406.669691 146.044336 
L 407.469963 147.404632 
L 407.870099 147.404632 
L 408.270235 147.662629 
L 409.470642 149.233997 
L 410.67105 150.80538 
L 412.271593 152.728565 
L 413.472001 154.651749 
L 414.272272 156.457667 
L 415.072544 156.832916 
L 415.47268 157.466162 
L 416.272952 159.060992 
L 417.073223 160.139845 
L 417.473359 160.350931 
L 417.873495 160.702733 
L 419.874174 164.338015 
L 421.074582 166.143933 
L 421.874854 167.90294 
L 422.675125 168.934883 
L 423.475397 170.78771 
L 424.275669 171.233331 
L 424.675805 171.983829 
L 425.476076 172.898519 
L 426.276348 174.305725 
L 426.676484 174.469902 
L 427.07662 219.101786 
L 427.476756 302.220761 
L 428.277027 302.220761 
L 429.077299 178.597701 
L 429.877571 179.93455 
L 431.077978 182.045359 
L 431.87825 183.757457 
L 433.878929 186.689136 
L 436.67988 191.567448 
L 437.480152 192.740127 
L 439.480831 196.047062 
L 440.281103 197.548081 
L 442.281782 200.901919 
L 442.681918 201.51171 
L 443.082054 201.769699 
L 443.882326 203.059638 
L 445.082733 205.358072 
L 445.482869 205.87405 
L 446.283141 207.375069 
L 448.683956 211.244885 
L 449.884364 213.449507 
L 450.684636 214.504912 
L 451.484907 215.79485 
L 453.085451 218.421638 
L 454.685994 221.470585 
L 455.486266 222.995058 
L 457.086809 225.80947 
L 459.88776 230.406345 
L 464.289255 237.723812 
L 465.089526 239.060661 
L 465.889798 240.444412 
L 466.289934 250.646656 
L 466.69007 288.336326 
L 467.090206 308.459374 
L 467.490342 261.364876 
L 467.890477 243.352637 
L 471.4917 249.755429 
L 474.292651 253.836325 
L 475.493059 255.99404 
L 476.693466 258.10485 
L 478.694146 261.646316 
L 479.094281 262.279562 
L 479.494417 262.373374 
L 479.894553 263.522591 
L 482.295368 267.415863 
L 483.895912 270.277181 
L 491.498493 282.144621 
L 493.099036 284.466509 
L 494.69958 286.71804 
L 496.300123 288.805395 
L 502.702297 297.623887 
L 504.702976 300.156858 
L 506.703656 302.338028 
L 507.904063 303.323071 
L 515.106509 308.693908 
L 517.107188 309.890034 
L 520.708411 311.766308 
L 522.308954 312.094656 
L 629.9455 312.094656 
L 629.9455 312.094656 
" clip-path="url(#pfd09754533)" style="fill: none; stroke: #ffae49; stroke-width: 1.5; stroke-linecap: square"/>
   </g>
   <g id="line2d_33">
    <path d="M 54.15 312.094656 
L 229.409506 312.094656 
L 230.209778 311.860122 
L 231.010049 311.766308 
L 234.611272 310.429463 
L 235.81168 309.913487 
L 238.212495 308.811176 
L 241.813718 307.169435 
L 242.213853 307.169435 
L 243.014125 306.934901 
L 243.414261 306.911447 
L 243.814397 306.700366 
L 244.214533 306.653459 
L 245.014804 306.372018 
L 247.41562 305.457335 
L 249.816435 304.026674 
L 250.216571 303.885954 
L 252.21725 303.885954 
L 252.617386 303.768687 
L 253.417657 303.205804 
L 254.217929 302.549108 
L 256.618744 301.259169 
L 258.219288 300.461753 
L 258.619424 300.532113 
L 259.019559 302.408388 
L 259.419695 301.986226 
L 259.819831 301.235716 
L 260.219967 300.907368 
L 260.620103 300.414846 
L 261.82051 299.734696 
L 262.220646 299.570522 
L 262.620782 299.711243 
L 263.020918 299.242174 
L 263.421054 298.538571 
L 263.82119 298.421304 
L 264.221326 298.679291 
L 265.421733 297.905328 
L 265.821869 297.788061 
L 266.222005 297.788061 
L 266.622141 297.647341 
L 267.022277 297.928781 
L 267.422412 297.811514 
L 267.822548 297.928781 
L 268.222684 297.412806 
L 268.62282 294.035511 
L 269.022956 293.54299 
L 270.223363 293.613349 
L 270.623499 293.800977 
L 272.624179 293.800977 
L 274.224722 292.86284 
L 274.624858 292.86284 
L 275.42513 293.097374 
L 276.225401 293.050468 
L 277.425809 292.32341 
L 277.825945 292.159237 
L 278.626216 292.135784 
L 279.026352 291.924702 
L 279.826624 291.877796 
L 280.22676 291.690168 
L 281.427167 291.690168 
L 282.227439 291.127285 
L 282.627575 290.705124 
L 283.027711 290.47059 
L 283.427847 290.517496 
L 283.827983 290.282962 
L 284.228118 289.860799 
L 284.628254 289.64972 
L 285.02839 289.274463 
L 285.428526 289.11029 
L 286.628934 289.485545 
L 288.229477 286.71804 
L 288.629613 286.10825 
L 289.029749 286.342784 
L 289.830021 287.796898 
L 290.230156 288.82885 
L 290.630292 290.634763 
L 291.030428 290.634763 
L 291.8307 283.340745 
L 292.230836 285.990982 
L 293.031107 289.602812 
L 293.831379 294.762568 
L 295.031787 298.022595 
L 295.431923 298.843466 
L 295.832058 298.18677 
L 296.232194 297.037552 
L 297.032466 295.466171 
L 297.432602 295.489624 
L 297.832738 295.653799 
L 298.232874 294.457674 
L 298.633009 289.438639 
L 299.033145 276.328168 
L 299.433281 273.865557 
L 299.833417 262.654815 
L 300.233553 256.369293 
L 300.633689 252.405664 
L 301.033825 251.702061 
L 301.43396 249.966508 
L 301.834096 252.827827 
L 302.234232 257.799954 
L 302.634368 269.667394 
L 303.43464 251.889686 
L 303.834776 248.46549 
L 304.234911 249.145638 
L 304.635047 247.410085 
L 305.035183 247.034829 
L 305.435319 247.574255 
L 305.835455 249.943053 
L 306.235591 250.130678 
L 306.635727 250.904646 
L 307.035862 254.797914 
L 307.435998 253.296895 
L 307.836134 246.284316 
L 308.23627 246.706482 
L 308.636406 247.38663 
L 309.036542 251.444072 
L 309.436678 252.429119 
L 309.836813 252.077317 
L 310.236949 250.130678 
L 310.637085 252.405664 
L 311.037221 245.346179 
L 311.437357 243.962427 
L 312.237629 244.759843 
L 312.637764 244.548763 
L 313.0379 244.759843 
L 313.438036 244.05624 
L 314.238308 244.079695 
L 314.638444 244.290774 
L 315.03858 243.84516 
L 315.438715 244.243872 
L 315.838851 242.907023 
L 316.238987 243.188467 
L 316.639123 242.883568 
L 317.039259 242.742846 
L 317.439395 242.907023 
L 317.839531 242.883568 
L 318.639802 242.437954 
L 319.039938 242.437954 
L 319.440074 242.813211 
L 320.240346 243.141557 
L 320.640482 242.907023 
L 321.440753 242.813211 
L 321.840889 243.680983 
L 322.241025 243.446449 
L 322.641161 242.25033 
L 323.041297 242.344142 
L 323.441433 242.672489 
L 323.841568 242.461409 
L 324.64184 242.414499 
L 325.041976 242.531767 
L 325.442112 242.437954 
L 325.842248 242.719398 
L 326.242384 242.344142 
L 326.642519 242.20342 
L 327.042655 242.437954 
L 327.442791 242.484864 
L 328.243063 241.945431 
L 328.643199 241.33564 
L 329.44347 241.265282 
L 329.843606 241.265282 
L 330.243742 241.452907 
L 331.044014 241.617084 
L 331.44415 242.015795 
L 332.644557 241.241828 
L 333.044693 241.33564 
L 333.444829 242.015795 
L 334.245101 241.476362 
L 334.645237 241.710896 
L 335.045372 242.742846 
L 335.845644 241.921976 
L 336.24578 241.99234 
L 337.046052 241.265282 
L 337.846323 241.265282 
L 339.046731 241.640539 
L 340.247139 241.734351 
L 340.647274 241.921976 
L 341.04741 241.523272 
L 341.447546 241.546727 
L 341.847682 242.273777 
L 342.247818 242.625579 
L 342.647954 244.009337 
L 343.04809 243.680983 
L 343.448226 241.101106 
L 343.848361 240.936936 
L 344.648633 242.320687 
L 346.249177 241.17147 
L 346.649312 241.218373 
L 347.049448 241.546727 
L 347.449584 249.966508 
L 347.84972 242.391044 
L 348.649992 241.218373 
L 349.050128 241.406004 
L 349.450263 243.141557 
L 349.850399 241.570174 
L 350.250535 241.33564 
L 350.650671 241.710896 
L 351.050807 253.53143 
L 351.450943 241.218373 
L 351.851079 240.30369 
L 352.251214 240.702401 
L 352.65135 240.327145 
L 353.051486 241.218373 
L 354.251894 241.734351 
L 354.65203 241.570174 
L 355.052165 242.062698 
L 355.852437 241.828163 
L 356.252573 241.710896 
L 356.652709 242.461409 
L 357.052845 244.454951 
L 357.452981 243.915518 
L 357.853116 244.220417 
L 358.653388 245.53381 
L 359.45366 244.361139 
L 359.853796 258.339384 
L 360.253932 257.143257 
L 360.654067 242.766301 
L 361.054203 243.376092 
L 361.454339 244.900565 
L 361.854475 245.627623 
L 363.455018 245.862157 
L 365.455698 247.339721 
L 365.855834 247.879154 
L 367.056241 248.817291 
L 367.456377 249.966508 
L 367.856513 250.505934 
L 368.256649 249.989963 
L 368.656785 249.685064 
L 369.05692 249.802331 
L 369.457056 250.365212 
L 369.857192 249.731974 
L 370.257328 250.201043 
L 370.657464 250.928101 
L 372.258007 252.546386 
L 372.658143 252.45257 
L 373.458415 253.085812 
L 374.258687 254.070859 
L 374.658822 254.188127 
L 375.058958 254.493018 
L 375.85923 255.313889 
L 376.659502 255.853318 
L 377.059638 256.275481 
L 378.260045 257.166712 
L 380.260724 259.254066 
L 380.66086 259.629323 
L 381.060996 260.168753 
L 381.461132 260.520554 
L 381.861268 260.708179 
L 383.061675 261.904305 
L 383.461811 262.74863 
L 383.861947 262.842443 
L 384.662219 263.49914 
L 385.462491 264.671811 
L 388.663577 267.439317 
L 389.863985 268.658895 
L 391.464528 270.699344 
L 392.2648 271.262225 
L 393.465208 272.997781 
L 395.065751 274.193904 
L 395.866023 275.249308 
L 396.666295 276.304713 
L 397.466566 277.008316 
L 399.867382 279.752371 
L 401.067789 281.32375 
L 402.268197 282.824769 
L 403.468604 283.927081 
L 407.069827 287.210562 
L 407.469963 287.937618 
L 407.870099 290.986565 
L 408.270235 290.353323 
L 408.67037 289.297918 
L 409.470642 289.860799 
L 410.67105 291.150738 
L 411.471321 292.159237 
L 411.871457 293.308455 
L 412.271593 294.903288 
L 412.671729 298.32749 
L 413.071865 299.547069 
L 413.472001 299.078 
L 413.872137 296.615389 
L 414.272272 296.967191 
L 414.672408 297.975688 
L 415.072544 296.521575 
L 415.47268 296.638842 
L 417.073223 297.928781 
L 417.873495 298.960733 
L 418.673767 300.016137 
L 419.474039 300.508659 
L 419.874174 300.71974 
L 421.074582 301.822052 
L 422.27499 302.619468 
L 423.475397 303.745234 
L 426.276348 307.450877 
L 426.676484 307.779225 
L 427.476756 307.896492 
L 427.876892 308.201386 
L 428.277027 308.670455 
L 429.077299 309.890034 
L 430.277707 310.663997 
L 430.677843 310.68745 
L 431.87825 311.3676 
L 434.679201 312.094656 
L 629.9455 312.094656 
L 629.9455 312.094656 
" clip-path="url(#pfd09754533)" style="fill: none; stroke: #024b7a; stroke-width: 1.5; stroke-linecap: square"/>
   </g>
   <g id="patch_3">
    <path d="M 54.15 314.44 
L 54.15 7.2 
" style="fill: none; stroke: #000000; stroke-width: 0.8; stroke-linejoin: miter; stroke-linecap: square"/>
   </g>
   <g id="patch_4">
    <path d="M 629.9455 314.44 
L 629.9455 7.2 
" style="fill: none; stroke: #000000; stroke-width: 0.8; stroke-linejoin: miter; stroke-linecap: square"/>
   </g>
   <g id="patch_5">
    <path d="M 54.15 314.44 
L 629.9455 314.44 
" style="fill: none; stroke: #000000; stroke-width: 0.8; stroke-linejoin: miter; stroke-linecap: square"/>
   </g>
   <g id="patch_6">
    <path d="M 54.15 7.2 
L 629.9455 7.2 
" style="fill: none; stroke: #000000; stroke-width: 0.8; stroke-linejoin: miter; stroke-linecap: square"/>
   </g>
   <g id="legend_1">
    <g id="patch_7">
     <path d="M 548.51425 44.55625 
L 622.9455 44.55625 
Q 624.9455 44.55625 624.9455 42.55625 
L 624.9455 14.2 
Q 624.9455 12.2 622.9455 12.2 
L 548.51425 12.2 
Q 546.51425 12.2 546.51425 14.2 
L 546.51425 42.55625 
Q 546.51425 44.55625 548.51425 44.55625 
z
" style="fill: #ffffff; opacity: 0.8; stroke: #cccccc; stroke-linejoin: miter"/>
    </g>
    <g id="line2d_34">
     <path d="M 550.51425 20.298437 
L 560.51425 20.298437 
L 570.51425 20.298437 
" style="fill: none; stroke: #ffae49; stroke-width: 1.5; stroke-linecap: square"/>
    </g>
    <g id="text_34">
     <!-- Summer -->
     <g transform="translate(578.51425 23.798437) scale(0.1 -0.1)">
      <defs>
       <path id="DejaVuSans-75" d="M 544 1381 
L 544 3500 
L 1119 3500 
L 1119 1403 
Q 1119 906 1312 657 
Q 1506 409 1894 409 
Q 2359 409 2629 706 
Q 2900 1003 2900 1516 
L 2900 3500 
L 3475 3500 
L 3475 0 
L 2900 0 
L 2900 538 
Q 2691 219 2414 64 
Q 2138 -91 1772 -91 
Q 1169 -91 856 284 
Q 544 659 544 1381 
z
M 1991 3584 
L 1991 3584 
z
" transform="scale(0.015625)"/>
      </defs>
      <use xlink:href="#DejaVuSans-53"/>
      <use xlink:href="#DejaVuSans-75" x="63.476562"/>
      <use xlink:href="#DejaVuSans-6d" x="126.855469"/>
      <use xlink:href="#DejaVuSans-6d" x="224.267578"/>
      <use xlink:href="#DejaVuSans-65" x="321.679688"/>
      <use xlink:href="#DejaVuSans-72" x="383.203125"/>
     </g>
    </g>
    <g id="line2d_35">
     <path d="M 550.51425 34.976562 
L 560.51425 34.976562 
L 570.51425 34.976562 
" style="fill: none; stroke: #024b7a; stroke-width: 1.5; stroke-linecap: square"/>
    </g>
    <g id="text_35">
     <!-- Winter -->
     <g transform="translate(578.51425 38.476562) scale(0.1 -0.1)">
      <use xlink:href="#DejaVuSans-57"/>
      <use xlink:href="#DejaVuSans-69" x="96.626953"/>
      <use xlink:href="#DejaVuSans-6e" x="124.410156"/>
      <use xlink:href="#DejaVuSans-74" x="187.789062"/>
      <use xlink:href="#DejaVuSans-65" x="226.998047"/>
      <use xlink:href="#DejaVuSans-72" x="288.521484"/>
     </g>
    </g>
   </g>
  </g>
 </g>
 <defs>
  <clipPath id="pfd09754533">
   <rect x="54.15" y="7.2" width="575.7955" height="307.24"/>
  </clipPath>
 </defs>
</svg>
