<?xml version="1.0" encoding="utf-8" standalone="no"?>
<!DOCTYPE svg PUBLIC "-//W3C//DTD SVG 1.1//EN"
  "http://www.w3.org/Graphics/SVG/1.1/DTD/svg11.dtd">
<svg xmlns:xlink="http://www.w3.org/1999/xlink" width="563.55pt" height="321.95625pt" viewBox="0 0 563.55 321.95625" xmlns="http://www.w3.org/2000/svg" version="1.1">
 <metadata>
  <rdf:RDF xmlns:dc="http://purl.org/dc/elements/1.1/" xmlns:cc="http://creativecommons.org/ns#" xmlns:rdf="http://www.w3.org/1999/02/22-rdf-syntax-ns#">
   <cc:Work>
    <dc:type rdf:resource="http://purl.org/dc/dcmitype/StillImage"/>
    <dc:date>2024-03-04T11:35:39.576715</dc:date>
    <dc:format>image/svg+xml</dc:format>
    <dc:creator>
     <cc:Agent>
      <dc:title>Matplotlib v3.8.2, https://matplotlib.org/</dc:title>
     </cc:Agent>
    </dc:creator>
   </cc:Work>
  </rdf:RDF>
 </metadata>
 <defs>
  <style type="text/css">*{stroke-linejoin: round; stroke-linecap: butt}</style>
 </defs>
 <g id="figure_1">
  <g id="patch_1">
   <path d="M 0 321.95625 
L 563.55 321.95625 
L 563.55 0 
L 0 0 
z
" style="fill: #ffffff"/>
  </g>
  <g id="axes_1">
   <g id="patch_2">
    <path d="M 54.15 284.4 
L 556.35 284.4 
L 556.35 7.2 
L 54.15 7.2 
z
" style="fill: #ffffff"/>
   </g>
   <g id="matplotlib.axis_1">
    <g id="xtick_1">
     <g id="line2d_1">
      <defs>
       <path id="m5f39250a11" d="M 0 0 
L 0 3.5 
" style="stroke: #000000; stroke-width: 0.8"/>
      </defs>
      <g>
       <use xlink:href="#m5f39250a11" x="54.15" y="284.4" style="stroke: #000000; stroke-width: 0.8"/>
      </g>
     </g>
     <g id="text_1">
      <!-- 0 -->
      <g transform="translate(50.96875 298.998438) scale(0.1 -0.1)">
       <defs>
        <path id="DejaVuSans-30" d="M 2034 4250 
Q 1547 4250 1301 3770 
Q 1056 3291 1056 2328 
Q 1056 1369 1301 889 
Q 1547 409 2034 409 
Q 2525 409 2770 889 
Q 3016 1369 3016 2328 
Q 3016 3291 2770 3770 
Q 2525 4250 2034 4250 
z
M 2034 4750 
Q 2819 4750 3233 4129 
Q 3647 3509 3647 2328 
Q 3647 1150 3233 529 
Q 2819 -91 2034 -91 
Q 1250 -91 836 529 
Q 422 1150 422 2328 
Q 422 3509 836 4129 
Q 1250 4750 2034 4750 
z
" transform="scale(0.015625)"/>
       </defs>
       <use xlink:href="#DejaVuSans-30"/>
      </g>
     </g>
    </g>
    <g id="xtick_2">
     <g id="line2d_2">
      <g>
       <use xlink:href="#m5f39250a11" x="75.075" y="284.4" style="stroke: #000000; stroke-width: 0.8"/>
      </g>
     </g>
     <g id="text_2">
      <!-- 1 -->
      <g transform="translate(71.89375 298.998438) scale(0.1 -0.1)">
       <defs>
        <path id="DejaVuSans-31" d="M 794 531 
L 1825 531 
L 1825 4091 
L 703 3866 
L 703 4441 
L 1819 4666 
L 2450 4666 
L 2450 531 
L 3481 531 
L 3481 0 
L 794 0 
L 794 531 
z
" transform="scale(0.015625)"/>
       </defs>
       <use xlink:href="#DejaVuSans-31"/>
      </g>
     </g>
    </g>
    <g id="xtick_3">
     <g id="line2d_3">
      <g>
       <use xlink:href="#m5f39250a11" x="96" y="284.4" style="stroke: #000000; stroke-width: 0.8"/>
      </g>
     </g>
     <g id="text_3">
      <!-- 2 -->
      <g transform="translate(92.81875 298.998438) scale(0.1 -0.1)">
       <defs>
        <path id="DejaVuSans-32" d="M 1228 531 
L 3431 531 
L 3431 0 
L 469 0 
L 469 531 
Q 828 903 1448 1529 
Q 2069 2156 2228 2338 
Q 2531 2678 2651 2914 
Q 2772 3150 2772 3378 
Q 2772 3750 2511 3984 
Q 2250 4219 1831 4219 
Q 1534 4219 1204 4116 
Q 875 4013 500 3803 
L 500 4441 
Q 881 4594 1212 4672 
Q 1544 4750 1819 4750 
Q 2544 4750 2975 4387 
Q 3406 4025 3406 3419 
Q 3406 3131 3298 2873 
Q 3191 2616 2906 2266 
Q 2828 2175 2409 1742 
Q 1991 1309 1228 531 
z
" transform="scale(0.015625)"/>
       </defs>
       <use xlink:href="#DejaVuSans-32"/>
      </g>
     </g>
    </g>
    <g id="xtick_4">
     <g id="line2d_4">
      <g>
       <use xlink:href="#m5f39250a11" x="116.925" y="284.4" style="stroke: #000000; stroke-width: 0.8"/>
      </g>
     </g>
     <g id="text_4">
      <!-- 3 -->
      <g transform="translate(113.74375 298.998438) scale(0.1 -0.1)">
       <defs>
        <path id="DejaVuSans-33" d="M 2597 2516 
Q 3050 2419 3304 2112 
Q 3559 1806 3559 1356 
Q 3559 666 3084 287 
Q 2609 -91 1734 -91 
Q 1441 -91 1130 -33 
Q 819 25 488 141 
L 488 750 
Q 750 597 1062 519 
Q 1375 441 1716 441 
Q 2309 441 2620 675 
Q 2931 909 2931 1356 
Q 2931 1769 2642 2001 
Q 2353 2234 1838 2234 
L 1294 2234 
L 1294 2753 
L 1863 2753 
Q 2328 2753 2575 2939 
Q 2822 3125 2822 3475 
Q 2822 3834 2567 4026 
Q 2313 4219 1838 4219 
Q 1578 4219 1281 4162 
Q 984 4106 628 3988 
L 628 4550 
Q 988 4650 1302 4700 
Q 1616 4750 1894 4750 
Q 2613 4750 3031 4423 
Q 3450 4097 3450 3541 
Q 3450 3153 3228 2886 
Q 3006 2619 2597 2516 
z
" transform="scale(0.015625)"/>
       </defs>
       <use xlink:href="#DejaVuSans-33"/>
      </g>
     </g>
    </g>
    <g id="xtick_5">
     <g id="line2d_5">
      <g>
       <use xlink:href="#m5f39250a11" x="137.85" y="284.4" style="stroke: #000000; stroke-width: 0.8"/>
      </g>
     </g>
     <g id="text_5">
      <!-- 4 -->
      <g transform="translate(134.66875 298.998438) scale(0.1 -0.1)">
       <defs>
        <path id="DejaVuSans-34" d="M 2419 4116 
L 825 1625 
L 2419 1625 
L 2419 4116 
z
M 2253 4666 
L 3047 4666 
L 3047 1625 
L 3713 1625 
L 3713 1100 
L 3047 1100 
L 3047 0 
L 2419 0 
L 2419 1100 
L 313 1100 
L 313 1709 
L 2253 4666 
z
" transform="scale(0.015625)"/>
       </defs>
       <use xlink:href="#DejaVuSans-34"/>
      </g>
     </g>
    </g>
    <g id="xtick_6">
     <g id="line2d_6">
      <g>
       <use xlink:href="#m5f39250a11" x="158.775" y="284.4" style="stroke: #000000; stroke-width: 0.8"/>
      </g>
     </g>
     <g id="text_6">
      <!-- 5 -->
      <g transform="translate(155.59375 298.998438) scale(0.1 -0.1)">
       <defs>
        <path id="DejaVuSans-35" d="M 691 4666 
L 3169 4666 
L 3169 4134 
L 1269 4134 
L 1269 2991 
Q 1406 3038 1543 3061 
Q 1681 3084 1819 3084 
Q 2600 3084 3056 2656 
Q 3513 2228 3513 1497 
Q 3513 744 3044 326 
Q 2575 -91 1722 -91 
Q 1428 -91 1123 -41 
Q 819 9 494 109 
L 494 744 
Q 775 591 1075 516 
Q 1375 441 1709 441 
Q 2250 441 2565 725 
Q 2881 1009 2881 1497 
Q 2881 1984 2565 2268 
Q 2250 2553 1709 2553 
Q 1456 2553 1204 2497 
Q 953 2441 691 2322 
L 691 4666 
z
" transform="scale(0.015625)"/>
       </defs>
       <use xlink:href="#DejaVuSans-35"/>
      </g>
     </g>
    </g>
    <g id="xtick_7">
     <g id="line2d_7">
      <g>
       <use xlink:href="#m5f39250a11" x="179.7" y="284.4" style="stroke: #000000; stroke-width: 0.8"/>
      </g>
     </g>
     <g id="text_7">
      <!-- 6 -->
      <g transform="translate(176.51875 298.998438) scale(0.1 -0.1)">
       <defs>
        <path id="DejaVuSans-36" d="M 2113 2584 
Q 1688 2584 1439 2293 
Q 1191 2003 1191 1497 
Q 1191 994 1439 701 
Q 1688 409 2113 409 
Q 2538 409 2786 701 
Q 3034 994 3034 1497 
Q 3034 2003 2786 2293 
Q 2538 2584 2113 2584 
z
M 3366 4563 
L 3366 3988 
Q 3128 4100 2886 4159 
Q 2644 4219 2406 4219 
Q 1781 4219 1451 3797 
Q 1122 3375 1075 2522 
Q 1259 2794 1537 2939 
Q 1816 3084 2150 3084 
Q 2853 3084 3261 2657 
Q 3669 2231 3669 1497 
Q 3669 778 3244 343 
Q 2819 -91 2113 -91 
Q 1303 -91 875 529 
Q 447 1150 447 2328 
Q 447 3434 972 4092 
Q 1497 4750 2381 4750 
Q 2619 4750 2861 4703 
Q 3103 4656 3366 4563 
z
" transform="scale(0.015625)"/>
       </defs>
       <use xlink:href="#DejaVuSans-36"/>
      </g>
     </g>
    </g>
    <g id="xtick_8">
     <g id="line2d_8">
      <g>
       <use xlink:href="#m5f39250a11" x="200.625" y="284.4" style="stroke: #000000; stroke-width: 0.8"/>
      </g>
     </g>
     <g id="text_8">
      <!-- 7 -->
      <g transform="translate(197.44375 298.998438) scale(0.1 -0.1)">
       <defs>
        <path id="DejaVuSans-37" d="M 525 4666 
L 3525 4666 
L 3525 4397 
L 1831 0 
L 1172 0 
L 2766 4134 
L 525 4134 
L 525 4666 
z
" transform="scale(0.015625)"/>
       </defs>
       <use xlink:href="#DejaVuSans-37"/>
      </g>
     </g>
    </g>
    <g id="xtick_9">
     <g id="line2d_9">
      <g>
       <use xlink:href="#m5f39250a11" x="221.55" y="284.4" style="stroke: #000000; stroke-width: 0.8"/>
      </g>
     </g>
     <g id="text_9">
      <!-- 8 -->
      <g transform="translate(218.36875 298.998438) scale(0.1 -0.1)">
       <defs>
        <path id="DejaVuSans-38" d="M 2034 2216 
Q 1584 2216 1326 1975 
Q 1069 1734 1069 1313 
Q 1069 891 1326 650 
Q 1584 409 2034 409 
Q 2484 409 2743 651 
Q 3003 894 3003 1313 
Q 3003 1734 2745 1975 
Q 2488 2216 2034 2216 
z
M 1403 2484 
Q 997 2584 770 2862 
Q 544 3141 544 3541 
Q 544 4100 942 4425 
Q 1341 4750 2034 4750 
Q 2731 4750 3128 4425 
Q 3525 4100 3525 3541 
Q 3525 3141 3298 2862 
Q 3072 2584 2669 2484 
Q 3125 2378 3379 2068 
Q 3634 1759 3634 1313 
Q 3634 634 3220 271 
Q 2806 -91 2034 -91 
Q 1263 -91 848 271 
Q 434 634 434 1313 
Q 434 1759 690 2068 
Q 947 2378 1403 2484 
z
M 1172 3481 
Q 1172 3119 1398 2916 
Q 1625 2713 2034 2713 
Q 2441 2713 2670 2916 
Q 2900 3119 2900 3481 
Q 2900 3844 2670 4047 
Q 2441 4250 2034 4250 
Q 1625 4250 1398 4047 
Q 1172 3844 1172 3481 
z
" transform="scale(0.015625)"/>
       </defs>
       <use xlink:href="#DejaVuSans-38"/>
      </g>
     </g>
    </g>
    <g id="xtick_10">
     <g id="line2d_10">
      <g>
       <use xlink:href="#m5f39250a11" x="242.475" y="284.4" style="stroke: #000000; stroke-width: 0.8"/>
      </g>
     </g>
     <g id="text_10">
      <!-- 9 -->
      <g transform="translate(239.29375 298.998438) scale(0.1 -0.1)">
       <defs>
        <path id="DejaVuSans-39" d="M 703 97 
L 703 672 
Q 941 559 1184 500 
Q 1428 441 1663 441 
Q 2288 441 2617 861 
Q 2947 1281 2994 2138 
Q 2813 1869 2534 1725 
Q 2256 1581 1919 1581 
Q 1219 1581 811 2004 
Q 403 2428 403 3163 
Q 403 3881 828 4315 
Q 1253 4750 1959 4750 
Q 2769 4750 3195 4129 
Q 3622 3509 3622 2328 
Q 3622 1225 3098 567 
Q 2575 -91 1691 -91 
Q 1453 -91 1209 -44 
Q 966 3 703 97 
z
M 1959 2075 
Q 2384 2075 2632 2365 
Q 2881 2656 2881 3163 
Q 2881 3666 2632 3958 
Q 2384 4250 1959 4250 
Q 1534 4250 1286 3958 
Q 1038 3666 1038 3163 
Q 1038 2656 1286 2365 
Q 1534 2075 1959 2075 
z
" transform="scale(0.015625)"/>
       </defs>
       <use xlink:href="#DejaVuSans-39"/>
      </g>
     </g>
    </g>
    <g id="xtick_11">
     <g id="line2d_11">
      <g>
       <use xlink:href="#m5f39250a11" x="263.4" y="284.4" style="stroke: #000000; stroke-width: 0.8"/>
      </g>
     </g>
     <g id="text_11">
      <!-- 10 -->
      <g transform="translate(257.0375 298.998438) scale(0.1 -0.1)">
       <use xlink:href="#DejaVuSans-31"/>
       <use xlink:href="#DejaVuSans-30" x="63.623047"/>
      </g>
     </g>
    </g>
    <g id="xtick_12">
     <g id="line2d_12">
      <g>
       <use xlink:href="#m5f39250a11" x="284.325" y="284.4" style="stroke: #000000; stroke-width: 0.8"/>
      </g>
     </g>
     <g id="text_12">
      <!-- 11 -->
      <g transform="translate(277.9625 298.998438) scale(0.1 -0.1)">
       <use xlink:href="#DejaVuSans-31"/>
       <use xlink:href="#DejaVuSans-31" x="63.623047"/>
      </g>
     </g>
    </g>
    <g id="xtick_13">
     <g id="line2d_13">
      <g>
       <use xlink:href="#m5f39250a11" x="305.25" y="284.4" style="stroke: #000000; stroke-width: 0.8"/>
      </g>
     </g>
     <g id="text_13">
      <!-- 12 -->
      <g transform="translate(298.8875 298.998438) scale(0.1 -0.1)">
       <use xlink:href="#DejaVuSans-31"/>
       <use xlink:href="#DejaVuSans-32" x="63.623047"/>
      </g>
     </g>
    </g>
    <g id="xtick_14">
     <g id="line2d_14">
      <g>
       <use xlink:href="#m5f39250a11" x="326.175" y="284.4" style="stroke: #000000; stroke-width: 0.8"/>
      </g>
     </g>
     <g id="text_14">
      <!-- 13 -->
      <g transform="translate(319.8125 298.998438) scale(0.1 -0.1)">
       <use xlink:href="#DejaVuSans-31"/>
       <use xlink:href="#DejaVuSans-33" x="63.623047"/>
      </g>
     </g>
    </g>
    <g id="xtick_15">
     <g id="line2d_15">
      <g>
       <use xlink:href="#m5f39250a11" x="347.1" y="284.4" style="stroke: #000000; stroke-width: 0.8"/>
      </g>
     </g>
     <g id="text_15">
      <!-- 14 -->
      <g transform="translate(340.7375 298.998438) scale(0.1 -0.1)">
       <use xlink:href="#DejaVuSans-31"/>
       <use xlink:href="#DejaVuSans-34" x="63.623047"/>
      </g>
     </g>
    </g>
    <g id="xtick_16">
     <g id="line2d_16">
      <g>
       <use xlink:href="#m5f39250a11" x="368.025" y="284.4" style="stroke: #000000; stroke-width: 0.8"/>
      </g>
     </g>
     <g id="text_16">
      <!-- 15 -->
      <g transform="translate(361.6625 298.998438) scale(0.1 -0.1)">
       <use xlink:href="#DejaVuSans-31"/>
       <use xlink:href="#DejaVuSans-35" x="63.623047"/>
      </g>
     </g>
    </g>
    <g id="xtick_17">
     <g id="line2d_17">
      <g>
       <use xlink:href="#m5f39250a11" x="388.95" y="284.4" style="stroke: #000000; stroke-width: 0.8"/>
      </g>
     </g>
     <g id="text_17">
      <!-- 16 -->
      <g transform="translate(382.5875 298.998438) scale(0.1 -0.1)">
       <use xlink:href="#DejaVuSans-31"/>
       <use xlink:href="#DejaVuSans-36" x="63.623047"/>
      </g>
     </g>
    </g>
    <g id="xtick_18">
     <g id="line2d_18">
      <g>
       <use xlink:href="#m5f39250a11" x="409.875" y="284.4" style="stroke: #000000; stroke-width: 0.8"/>
      </g>
     </g>
     <g id="text_18">
      <!-- 17 -->
      <g transform="translate(403.5125 298.998438) scale(0.1 -0.1)">
       <use xlink:href="#DejaVuSans-31"/>
       <use xlink:href="#DejaVuSans-37" x="63.623047"/>
      </g>
     </g>
    </g>
    <g id="xtick_19">
     <g id="line2d_19">
      <g>
       <use xlink:href="#m5f39250a11" x="430.8" y="284.4" style="stroke: #000000; stroke-width: 0.8"/>
      </g>
     </g>
     <g id="text_19">
      <!-- 18 -->
      <g transform="translate(424.4375 298.998438) scale(0.1 -0.1)">
       <use xlink:href="#DejaVuSans-31"/>
       <use xlink:href="#DejaVuSans-38" x="63.623047"/>
      </g>
     </g>
    </g>
    <g id="xtick_20">
     <g id="line2d_20">
      <g>
       <use xlink:href="#m5f39250a11" x="451.725" y="284.4" style="stroke: #000000; stroke-width: 0.8"/>
      </g>
     </g>
     <g id="text_20">
      <!-- 19 -->
      <g transform="translate(445.3625 298.998438) scale(0.1 -0.1)">
       <use xlink:href="#DejaVuSans-31"/>
       <use xlink:href="#DejaVuSans-39" x="63.623047"/>
      </g>
     </g>
    </g>
    <g id="xtick_21">
     <g id="line2d_21">
      <g>
       <use xlink:href="#m5f39250a11" x="472.65" y="284.4" style="stroke: #000000; stroke-width: 0.8"/>
      </g>
     </g>
     <g id="text_21">
      <!-- 20 -->
      <g transform="translate(466.2875 298.998438) scale(0.1 -0.1)">
       <use xlink:href="#DejaVuSans-32"/>
       <use xlink:href="#DejaVuSans-30" x="63.623047"/>
      </g>
     </g>
    </g>
    <g id="xtick_22">
     <g id="line2d_22">
      <g>
       <use xlink:href="#m5f39250a11" x="493.575" y="284.4" style="stroke: #000000; stroke-width: 0.8"/>
      </g>
     </g>
     <g id="text_22">
      <!-- 21 -->
      <g transform="translate(487.2125 298.998438) scale(0.1 -0.1)">
       <use xlink:href="#DejaVuSans-32"/>
       <use xlink:href="#DejaVuSans-31" x="63.623047"/>
      </g>
     </g>
    </g>
    <g id="xtick_23">
     <g id="line2d_23">
      <g>
       <use xlink:href="#m5f39250a11" x="514.5" y="284.4" style="stroke: #000000; stroke-width: 0.8"/>
      </g>
     </g>
     <g id="text_23">
      <!-- 22 -->
      <g transform="translate(508.1375 298.998438) scale(0.1 -0.1)">
       <use xlink:href="#DejaVuSans-32"/>
       <use xlink:href="#DejaVuSans-32" x="63.623047"/>
      </g>
     </g>
    </g>
    <g id="xtick_24">
     <g id="line2d_24">
      <g>
       <use xlink:href="#m5f39250a11" x="535.425" y="284.4" style="stroke: #000000; stroke-width: 0.8"/>
      </g>
     </g>
     <g id="text_24">
      <!-- 23 -->
      <g transform="translate(529.0625 298.998438) scale(0.1 -0.1)">
       <use xlink:href="#DejaVuSans-32"/>
       <use xlink:href="#DejaVuSans-33" x="63.623047"/>
      </g>
     </g>
    </g>
    <g id="text_25">
     <!-- Time of the day -->
     <g transform="translate(266.026563 312.676562) scale(0.1 -0.1)">
      <defs>
       <path id="DejaVuSans-54" d="M -19 4666 
L 3928 4666 
L 3928 4134 
L 2272 4134 
L 2272 0 
L 1638 0 
L 1638 4134 
L -19 4134 
L -19 4666 
z
" transform="scale(0.015625)"/>
       <path id="DejaVuSans-69" d="M 603 3500 
L 1178 3500 
L 1178 0 
L 603 0 
L 603 3500 
z
M 603 4863 
L 1178 4863 
L 1178 4134 
L 603 4134 
L 603 4863 
z
" transform="scale(0.015625)"/>
       <path id="DejaVuSans-6d" d="M 3328 2828 
Q 3544 3216 3844 3400 
Q 4144 3584 4550 3584 
Q 5097 3584 5394 3201 
Q 5691 2819 5691 2113 
L 5691 0 
L 5113 0 
L 5113 2094 
Q 5113 2597 4934 2840 
Q 4756 3084 4391 3084 
Q 3944 3084 3684 2787 
Q 3425 2491 3425 1978 
L 3425 0 
L 2847 0 
L 2847 2094 
Q 2847 2600 2669 2842 
Q 2491 3084 2119 3084 
Q 1678 3084 1418 2786 
Q 1159 2488 1159 1978 
L 1159 0 
L 581 0 
L 581 3500 
L 1159 3500 
L 1159 2956 
Q 1356 3278 1631 3431 
Q 1906 3584 2284 3584 
Q 2666 3584 2933 3390 
Q 3200 3197 3328 2828 
z
" transform="scale(0.015625)"/>
       <path id="DejaVuSans-65" d="M 3597 1894 
L 3597 1613 
L 953 1613 
Q 991 1019 1311 708 
Q 1631 397 2203 397 
Q 2534 397 2845 478 
Q 3156 559 3463 722 
L 3463 178 
Q 3153 47 2828 -22 
Q 2503 -91 2169 -91 
Q 1331 -91 842 396 
Q 353 884 353 1716 
Q 353 2575 817 3079 
Q 1281 3584 2069 3584 
Q 2775 3584 3186 3129 
Q 3597 2675 3597 1894 
z
M 3022 2063 
Q 3016 2534 2758 2815 
Q 2500 3097 2075 3097 
Q 1594 3097 1305 2825 
Q 1016 2553 972 2059 
L 3022 2063 
z
" transform="scale(0.015625)"/>
       <path id="DejaVuSans-20" transform="scale(0.015625)"/>
       <path id="DejaVuSans-6f" d="M 1959 3097 
Q 1497 3097 1228 2736 
Q 959 2375 959 1747 
Q 959 1119 1226 758 
Q 1494 397 1959 397 
Q 2419 397 2687 759 
Q 2956 1122 2956 1747 
Q 2956 2369 2687 2733 
Q 2419 3097 1959 3097 
z
M 1959 3584 
Q 2709 3584 3137 3096 
Q 3566 2609 3566 1747 
Q 3566 888 3137 398 
Q 2709 -91 1959 -91 
Q 1206 -91 779 398 
Q 353 888 353 1747 
Q 353 2609 779 3096 
Q 1206 3584 1959 3584 
z
" transform="scale(0.015625)"/>
       <path id="DejaVuSans-66" d="M 2375 4863 
L 2375 4384 
L 1825 4384 
Q 1516 4384 1395 4259 
Q 1275 4134 1275 3809 
L 1275 3500 
L 2222 3500 
L 2222 3053 
L 1275 3053 
L 1275 0 
L 697 0 
L 697 3053 
L 147 3053 
L 147 3500 
L 697 3500 
L 697 3744 
Q 697 4328 969 4595 
Q 1241 4863 1831 4863 
L 2375 4863 
z
" transform="scale(0.015625)"/>
       <path id="DejaVuSans-74" d="M 1172 4494 
L 1172 3500 
L 2356 3500 
L 2356 3053 
L 1172 3053 
L 1172 1153 
Q 1172 725 1289 603 
Q 1406 481 1766 481 
L 2356 481 
L 2356 0 
L 1766 0 
Q 1100 0 847 248 
Q 594 497 594 1153 
L 594 3053 
L 172 3053 
L 172 3500 
L 594 3500 
L 594 4494 
L 1172 4494 
z
" transform="scale(0.015625)"/>
       <path id="DejaVuSans-68" d="M 3513 2113 
L 3513 0 
L 2938 0 
L 2938 2094 
Q 2938 2591 2744 2837 
Q 2550 3084 2163 3084 
Q 1697 3084 1428 2787 
Q 1159 2491 1159 1978 
L 1159 0 
L 581 0 
L 581 4863 
L 1159 4863 
L 1159 2956 
Q 1366 3272 1645 3428 
Q 1925 3584 2291 3584 
Q 2894 3584 3203 3211 
Q 3513 2838 3513 2113 
z
" transform="scale(0.015625)"/>
       <path id="DejaVuSans-64" d="M 2906 2969 
L 2906 4863 
L 3481 4863 
L 3481 0 
L 2906 0 
L 2906 525 
Q 2725 213 2448 61 
Q 2172 -91 1784 -91 
Q 1150 -91 751 415 
Q 353 922 353 1747 
Q 353 2572 751 3078 
Q 1150 3584 1784 3584 
Q 2172 3584 2448 3432 
Q 2725 3281 2906 2969 
z
M 947 1747 
Q 947 1113 1208 752 
Q 1469 391 1925 391 
Q 2381 391 2643 752 
Q 2906 1113 2906 1747 
Q 2906 2381 2643 2742 
Q 2381 3103 1925 3103 
Q 1469 3103 1208 2742 
Q 947 2381 947 1747 
z
" transform="scale(0.015625)"/>
       <path id="DejaVuSans-61" d="M 2194 1759 
Q 1497 1759 1228 1600 
Q 959 1441 959 1056 
Q 959 750 1161 570 
Q 1363 391 1709 391 
Q 2188 391 2477 730 
Q 2766 1069 2766 1631 
L 2766 1759 
L 2194 1759 
z
M 3341 1997 
L 3341 0 
L 2766 0 
L 2766 531 
Q 2569 213 2275 61 
Q 1981 -91 1556 -91 
Q 1019 -91 701 211 
Q 384 513 384 1019 
Q 384 1609 779 1909 
Q 1175 2209 1959 2209 
L 2766 2209 
L 2766 2266 
Q 2766 2663 2505 2880 
Q 2244 3097 1772 3097 
Q 1472 3097 1187 3025 
Q 903 2953 641 2809 
L 641 3341 
Q 956 3463 1253 3523 
Q 1550 3584 1831 3584 
Q 2591 3584 2966 3190 
Q 3341 2797 3341 1997 
z
" transform="scale(0.015625)"/>
       <path id="DejaVuSans-79" d="M 2059 -325 
Q 1816 -950 1584 -1140 
Q 1353 -1331 966 -1331 
L 506 -1331 
L 506 -850 
L 844 -850 
Q 1081 -850 1212 -737 
Q 1344 -625 1503 -206 
L 1606 56 
L 191 3500 
L 800 3500 
L 1894 763 
L 2988 3500 
L 3597 3500 
L 2059 -325 
z
" transform="scale(0.015625)"/>
      </defs>
      <use xlink:href="#DejaVuSans-54"/>
      <use xlink:href="#DejaVuSans-69" x="57.958984"/>
      <use xlink:href="#DejaVuSans-6d" x="85.742188"/>
      <use xlink:href="#DejaVuSans-65" x="183.154297"/>
      <use xlink:href="#DejaVuSans-20" x="244.677734"/>
      <use xlink:href="#DejaVuSans-6f" x="276.464844"/>
      <use xlink:href="#DejaVuSans-66" x="337.646484"/>
      <use xlink:href="#DejaVuSans-20" x="372.851562"/>
      <use xlink:href="#DejaVuSans-74" x="404.638672"/>
      <use xlink:href="#DejaVuSans-68" x="443.847656"/>
      <use xlink:href="#DejaVuSans-65" x="507.226562"/>
      <use xlink:href="#DejaVuSans-20" x="568.75"/>
      <use xlink:href="#DejaVuSans-64" x="600.537109"/>
      <use xlink:href="#DejaVuSans-61" x="664.013672"/>
      <use xlink:href="#DejaVuSans-79" x="725.292969"/>
     </g>
    </g>
   </g>
   <g id="matplotlib.axis_2">
    <g id="ytick_1">
     <g id="line2d_25">
      <defs>
       <path id="m9b47ac34ec" d="M 0 0 
L -3.5 0 
" style="stroke: #000000; stroke-width: 0.8"/>
      </defs>
      <g>
       <use xlink:href="#m9b47ac34ec" x="54.15" y="282.283969" style="stroke: #000000; stroke-width: 0.8"/>
      </g>
     </g>
     <g id="text_26">
      <!-- 0 -->
      <g transform="translate(40.7875 286.083188) scale(0.1 -0.1)">
       <use xlink:href="#DejaVuSans-30"/>
      </g>
     </g>
    </g>
    <g id="ytick_2">
     <g id="line2d_26">
      <g>
       <use xlink:href="#m9b47ac34ec" x="54.15" y="239.963359" style="stroke: #000000; stroke-width: 0.8"/>
      </g>
     </g>
     <g id="text_27">
      <!-- 200 -->
      <g transform="translate(28.0625 243.762578) scale(0.1 -0.1)">
       <use xlink:href="#DejaVuSans-32"/>
       <use xlink:href="#DejaVuSans-30" x="63.623047"/>
       <use xlink:href="#DejaVuSans-30" x="127.246094"/>
      </g>
     </g>
    </g>
    <g id="ytick_3">
     <g id="line2d_27">
      <g>
       <use xlink:href="#m9b47ac34ec" x="54.15" y="197.642748" style="stroke: #000000; stroke-width: 0.8"/>
      </g>
     </g>
     <g id="text_28">
      <!-- 400 -->
      <g transform="translate(28.0625 201.441967) scale(0.1 -0.1)">
       <use xlink:href="#DejaVuSans-34"/>
       <use xlink:href="#DejaVuSans-30" x="63.623047"/>
       <use xlink:href="#DejaVuSans-30" x="127.246094"/>
      </g>
     </g>
    </g>
    <g id="ytick_4">
     <g id="line2d_28">
      <g>
       <use xlink:href="#m9b47ac34ec" x="54.15" y="155.322137" style="stroke: #000000; stroke-width: 0.8"/>
      </g>
     </g>
     <g id="text_29">
      <!-- 600 -->
      <g transform="translate(28.0625 159.121356) scale(0.1 -0.1)">
       <use xlink:href="#DejaVuSans-36"/>
       <use xlink:href="#DejaVuSans-30" x="63.623047"/>
       <use xlink:href="#DejaVuSans-30" x="127.246094"/>
      </g>
     </g>
    </g>
    <g id="ytick_5">
     <g id="line2d_29">
      <g>
       <use xlink:href="#m9b47ac34ec" x="54.15" y="113.001527" style="stroke: #000000; stroke-width: 0.8"/>
      </g>
     </g>
     <g id="text_30">
      <!-- 800 -->
      <g transform="translate(28.0625 116.800745) scale(0.1 -0.1)">
       <use xlink:href="#DejaVuSans-38"/>
       <use xlink:href="#DejaVuSans-30" x="63.623047"/>
       <use xlink:href="#DejaVuSans-30" x="127.246094"/>
      </g>
     </g>
    </g>
    <g id="ytick_6">
     <g id="line2d_30">
      <g>
       <use xlink:href="#m9b47ac34ec" x="54.15" y="70.680916" style="stroke: #000000; stroke-width: 0.8"/>
      </g>
     </g>
     <g id="text_31">
      <!-- 1000 -->
      <g transform="translate(21.7 74.480135) scale(0.1 -0.1)">
       <use xlink:href="#DejaVuSans-31"/>
       <use xlink:href="#DejaVuSans-30" x="63.623047"/>
       <use xlink:href="#DejaVuSans-30" x="127.246094"/>
       <use xlink:href="#DejaVuSans-30" x="190.869141"/>
      </g>
     </g>
    </g>
    <g id="ytick_7">
     <g id="line2d_31">
      <g>
       <use xlink:href="#m9b47ac34ec" x="54.15" y="28.360305" style="stroke: #000000; stroke-width: 0.8"/>
      </g>
     </g>
     <g id="text_32">
      <!-- 1200 -->
      <g transform="translate(21.7 32.159524) scale(0.1 -0.1)">
       <use xlink:href="#DejaVuSans-31"/>
       <use xlink:href="#DejaVuSans-32" x="63.623047"/>
       <use xlink:href="#DejaVuSans-30" x="127.246094"/>
       <use xlink:href="#DejaVuSans-30" x="190.869141"/>
      </g>
     </g>
    </g>
    <g id="text_33">
     <!-- Solar irradiance [W/m$^2$] -->
     <g transform="translate(15.620312 204.75) rotate(-90) scale(0.1 -0.1)">
      <defs>
       <path id="DejaVuSans-53" d="M 3425 4513 
L 3425 3897 
Q 3066 4069 2747 4153 
Q 2428 4238 2131 4238 
Q 1616 4238 1336 4038 
Q 1056 3838 1056 3469 
Q 1056 3159 1242 3001 
Q 1428 2844 1947 2747 
L 2328 2669 
Q 3034 2534 3370 2195 
Q 3706 1856 3706 1288 
Q 3706 609 3251 259 
Q 2797 -91 1919 -91 
Q 1588 -91 1214 -16 
Q 841 59 441 206 
L 441 856 
Q 825 641 1194 531 
Q 1563 422 1919 422 
Q 2459 422 2753 634 
Q 3047 847 3047 1241 
Q 3047 1584 2836 1778 
Q 2625 1972 2144 2069 
L 1759 2144 
Q 1053 2284 737 2584 
Q 422 2884 422 3419 
Q 422 4038 858 4394 
Q 1294 4750 2059 4750 
Q 2388 4750 2728 4690 
Q 3069 4631 3425 4513 
z
" transform="scale(0.015625)"/>
       <path id="DejaVuSans-6c" d="M 603 4863 
L 1178 4863 
L 1178 0 
L 603 0 
L 603 4863 
z
" transform="scale(0.015625)"/>
       <path id="DejaVuSans-72" d="M 2631 2963 
Q 2534 3019 2420 3045 
Q 2306 3072 2169 3072 
Q 1681 3072 1420 2755 
Q 1159 2438 1159 1844 
L 1159 0 
L 581 0 
L 581 3500 
L 1159 3500 
L 1159 2956 
Q 1341 3275 1631 3429 
Q 1922 3584 2338 3584 
Q 2397 3584 2469 3576 
Q 2541 3569 2628 3553 
L 2631 2963 
z
" transform="scale(0.015625)"/>
       <path id="DejaVuSans-6e" d="M 3513 2113 
L 3513 0 
L 2938 0 
L 2938 2094 
Q 2938 2591 2744 2837 
Q 2550 3084 2163 3084 
Q 1697 3084 1428 2787 
Q 1159 2491 1159 1978 
L 1159 0 
L 581 0 
L 581 3500 
L 1159 3500 
L 1159 2956 
Q 1366 3272 1645 3428 
Q 1925 3584 2291 3584 
Q 2894 3584 3203 3211 
Q 3513 2838 3513 2113 
z
" transform="scale(0.015625)"/>
       <path id="DejaVuSans-63" d="M 3122 3366 
L 3122 2828 
Q 2878 2963 2633 3030 
Q 2388 3097 2138 3097 
Q 1578 3097 1268 2742 
Q 959 2388 959 1747 
Q 959 1106 1268 751 
Q 1578 397 2138 397 
Q 2388 397 2633 464 
Q 2878 531 3122 666 
L 3122 134 
Q 2881 22 2623 -34 
Q 2366 -91 2075 -91 
Q 1284 -91 818 406 
Q 353 903 353 1747 
Q 353 2603 823 3093 
Q 1294 3584 2113 3584 
Q 2378 3584 2631 3529 
Q 2884 3475 3122 3366 
z
" transform="scale(0.015625)"/>
       <path id="DejaVuSans-5b" d="M 550 4863 
L 1875 4863 
L 1875 4416 
L 1125 4416 
L 1125 -397 
L 1875 -397 
L 1875 -844 
L 550 -844 
L 550 4863 
z
" transform="scale(0.015625)"/>
       <path id="DejaVuSans-57" d="M 213 4666 
L 850 4666 
L 1831 722 
L 2809 4666 
L 3519 4666 
L 4500 722 
L 5478 4666 
L 6119 4666 
L 4947 0 
L 4153 0 
L 3169 4050 
L 2175 0 
L 1381 0 
L 213 4666 
z
" transform="scale(0.015625)"/>
       <path id="DejaVuSans-2f" d="M 1625 4666 
L 2156 4666 
L 531 -594 
L 0 -594 
L 1625 4666 
z
" transform="scale(0.015625)"/>
       <path id="DejaVuSans-5d" d="M 1947 4863 
L 1947 -844 
L 622 -844 
L 622 -397 
L 1369 -397 
L 1369 4416 
L 622 4416 
L 622 4863 
L 1947 4863 
z
" transform="scale(0.015625)"/>
      </defs>
      <use xlink:href="#DejaVuSans-53" transform="translate(0 0.765625)"/>
      <use xlink:href="#DejaVuSans-6f" transform="translate(63.476562 0.765625)"/>
      <use xlink:href="#DejaVuSans-6c" transform="translate(124.658203 0.765625)"/>
      <use xlink:href="#DejaVuSans-61" transform="translate(152.441406 0.765625)"/>
      <use xlink:href="#DejaVuSans-72" transform="translate(213.720703 0.765625)"/>
      <use xlink:href="#DejaVuSans-20" transform="translate(254.833984 0.765625)"/>
      <use xlink:href="#DejaVuSans-69" transform="translate(286.621094 0.765625)"/>
      <use xlink:href="#DejaVuSans-72" transform="translate(314.404297 0.765625)"/>
      <use xlink:href="#DejaVuSans-72" transform="translate(355.517578 0.765625)"/>
      <use xlink:href="#DejaVuSans-61" transform="translate(396.630859 0.765625)"/>
      <use xlink:href="#DejaVuSans-64" transform="translate(457.910156 0.765625)"/>
      <use xlink:href="#DejaVuSans-69" transform="translate(521.386719 0.765625)"/>
      <use xlink:href="#DejaVuSans-61" transform="translate(549.169922 0.765625)"/>
      <use xlink:href="#DejaVuSans-6e" transform="translate(610.449219 0.765625)"/>
      <use xlink:href="#DejaVuSans-63" transform="translate(673.828125 0.765625)"/>
      <use xlink:href="#DejaVuSans-65" transform="translate(728.808594 0.765625)"/>
      <use xlink:href="#DejaVuSans-20" transform="translate(790.332031 0.765625)"/>
      <use xlink:href="#DejaVuSans-5b" transform="translate(822.119141 0.765625)"/>
      <use xlink:href="#DejaVuSans-57" transform="translate(861.132812 0.765625)"/>
      <use xlink:href="#DejaVuSans-2f" transform="translate(960.009766 0.765625)"/>
      <use xlink:href="#DejaVuSans-6d" transform="translate(993.701172 0.765625)"/>
      <use xlink:href="#DejaVuSans-32" transform="translate(1092.070312 39.046875) scale(0.7)"/>
      <use xlink:href="#DejaVuSans-5d" transform="translate(1139.34082 0.765625)"/>
     </g>
    </g>
   </g>
   <g id="line2d_32">
    <path d="M 54.15 282.283969 
L 126.042425 282.262809 
L 126.391418 282.072366 
L 127.787387 281.966565 
L 128.485372 281.860763 
L 128.834364 281.860763 
L 129.183356 281.670321 
L 129.881341 281.522198 
L 130.928318 281.204794 
L 133.022272 280.167939 
L 134.069249 280.167939 
L 135.116227 279.744733 
L 135.465219 279.744733 
L 135.814211 279.55429 
L 136.163204 279.511969 
L 136.861188 279.173405 
L 137.908165 278.200031 
L 138.60615 277.713343 
L 139.304135 277.628702 
L 139.653127 277.819145 
L 140.351112 277.840305 
L 141.049097 277.586382 
L 141.747081 277.163175 
L 142.096074 276.993893 
L 142.445066 276.972733 
L 143.492043 276.337924 
L 144.888013 274.560458 
L 145.585997 274.05261 
L 145.93499 274.03145 
L 146.283982 274.200733 
L 146.981967 274.66626 
L 148.028944 274.772061 
L 148.726928 274.877863 
L 149.424913 274.285374 
L 150.122898 273.248519 
L 151.169875 271.513374 
L 151.518867 271.280611 
L 152.914837 272.61371 
L 153.263829 272.571389 
L 153.612821 272.359786 
L 153.961814 271.026687 
L 154.310806 271.471054 
L 154.659798 275.597313 
L 155.008791 277.776825 
L 155.357783 275.597313 
L 155.706776 276.76113 
L 156.055768 277.50174 
L 156.40476 276.972733 
L 156.753753 276.930412 
L 157.451737 277.120855 
L 157.80073 264.064947 
L 158.149722 257.103206 
L 158.498714 254.140763 
L 158.847707 264.29771 
L 159.196699 267.260153 
L 159.545691 266.45606 
L 159.894684 267.217833 
L 160.243676 267.683359 
L 160.592669 259.134595 
L 160.941661 260.340733 
L 161.290653 264.932519 
L 161.639646 261.800793 
L 161.988638 260.277252 
L 162.33763 263.006932 
L 163.035615 257.928458 
L 163.384607 256.891603 
L 164.431584 264.27655 
L 164.780577 265.736611 
L 165.129569 266.032854 
L 165.478562 265.546168 
L 165.827554 265.778931 
L 166.525539 266.625344 
L 166.874531 265.842413 
L 167.223523 262.90113 
L 167.572516 263.641741 
L 167.921508 259.578961 
L 168.2705 245.803604 
L 168.619493 245.105314 
L 168.968485 258.118901 
L 169.317477 264.424671 
L 169.66647 263.937985 
L 170.364454 246.22681 
L 170.713447 250.268427 
L 171.062439 242.206352 
L 171.411432 257.822657 
L 171.760424 236.281467 
L 172.109416 227.690382 
L 172.458409 240.344245 
L 172.807401 221.448092 
L 173.156393 219.607142 
L 173.505386 219.734106 
L 173.854378 222.527268 
L 174.20337 244.999512 
L 174.552363 224.304733 
L 175.250347 255.28342 
L 175.59934 257.547572 
L 175.948332 254.817892 
L 176.297325 248.406319 
L 176.646317 256.976245 
L 176.995309 256.63768 
L 177.344302 257.209008 
L 178.042286 249.422015 
L 178.740271 254.944856 
L 179.089263 254.267726 
L 179.438256 253.992642 
L 179.787248 256.108672 
L 180.13624 257.420611 
L 180.485233 254.923694 
L 180.834225 250.099144 
L 181.183218 249.168092 
L 181.53221 245.592001 
L 181.881202 244.533986 
L 182.230195 241.973588 
L 182.579187 236.239144 
L 182.928179 211.883631 
L 183.626164 225.066505 
L 183.975156 224.135453 
L 184.324149 240.979054 
L 184.673141 243.793375 
L 185.022133 244.618626 
L 185.371126 243.327846 
L 185.720118 239.645954 
L 186.06911 221.828975 
L 186.418103 222.273342 
L 186.767095 237.805008 
L 187.116088 236.556548 
L 187.46508 239.603634 
L 188.163065 211.05838 
L 188.512057 226.103359 
L 188.861049 260.996703 
L 189.559034 187.401162 
L 189.908026 193.939695 
L 190.257019 214.613316 
L 190.606011 211.269983 
L 190.955003 184.777285 
L 191.303996 212.306837 
L 191.652988 204.837252 
L 192.001981 224.114291 
L 192.350973 204.541009 
L 192.699965 209.788762 
L 193.048958 229.848732 
L 193.39795 230.906747 
L 193.746942 223.542961 
L 194.095935 170.430601 
L 194.444927 159.279117 
L 194.793919 164.399914 
L 195.142912 225.447388 
L 195.840896 235.033007 
L 196.189889 236.450747 
L 196.538881 232.832337 
L 196.887874 242.037069 
L 197.236866 272.719511 
L 197.585858 275.004824 
L 197.934851 269.84171 
L 198.283843 259.176917 
L 198.632835 265.67313 
L 198.981828 275.301069 
L 199.33082 265.334565 
L 200.028805 258.83835 
L 200.377797 245.634321 
L 200.726789 243.687574 
L 201.075782 242.439114 
L 201.424774 239.899877 
L 201.773767 236.49307 
L 202.122759 234.736764 
L 202.471751 234.588643 
L 203.169736 236.281467 
L 203.518728 235.604335 
L 203.867721 234.546319 
L 204.216713 237.402961 
L 204.565705 231.478075 
L 204.914698 231.943604 
L 205.26369 233.445984 
L 205.612682 239.011145 
L 206.310667 238.566777 
L 206.659659 239.011145 
L 208.055629 248.617922 
L 208.404621 248.97765 
L 208.753614 248.702566 
L 209.102606 248.871849 
L 209.451598 249.506658 
L 209.800591 249.527816 
L 210.498575 248.385161 
L 210.847568 247.72919 
L 211.19656 247.496429 
L 211.545552 248.004275 
L 211.894545 248.279359 
L 212.243537 248.237039 
L 212.59253 248.660246 
L 212.941522 250.141467 
L 213.639507 255.3469 
L 213.988499 256.997405 
L 214.337491 256.933923 
L 215.384468 252.532579 
L 215.733461 249.802901 
L 216.431445 239.751756 
L 217.478423 218.570289 
L 217.827415 216.327295 
L 218.176407 224.749101 
L 218.5254 224.516336 
L 218.874392 226.187999 
L 219.223384 229.00232 
L 219.572377 227.923146 
L 220.270361 221.575055 
L 220.619354 219.861069 
L 220.968346 219.543664 
L 221.317338 221.046047 
L 221.666331 221.532732 
L 222.015323 220.284275 
L 222.364315 228.621434 
L 222.713308 231.75316 
L 223.0623 229.383206 
L 223.760285 213.470654 
L 224.109277 213.978506 
L 225.156254 222.061739 
L 225.505247 214.168948 
L 225.854239 215.502045 
L 226.203231 174.72614 
L 226.552224 105.235692 
L 226.901216 137.907209 
L 227.250208 101.786565 
L 227.599201 134.35228 
L 227.948193 121.317524 
L 228.297186 207.778533 
L 228.646178 206.149193 
L 228.99517 211.904793 
L 229.344163 150.66687 
L 229.693155 109.531231 
L 230.042147 126.03627 
L 230.39114 162.537796 
L 230.740132 224.241254 
L 231.089124 232.768855 
L 231.438117 237.127879 
L 231.787109 229.806412 
L 232.136101 110.060239 
L 232.485094 108.05001 
L 232.834086 100.961308 
L 233.183079 97.300578 
L 233.532071 96.327209 
L 233.881063 92.116303 
L 234.230056 89.704036 
L 234.92804 76.373043 
L 235.277033 87.270601 
L 235.975017 191.167693 
L 236.32401 173.329552 
L 236.673002 91.777743 
L 237.021994 177.603936 
L 237.370987 195.865284 
L 237.719979 184.227116 
L 238.068972 198.298719 
L 238.417964 207.48229 
L 238.766956 213.343697 
L 239.115949 215.629008 
L 240.162926 214.549831 
L 241.209903 218.125921 
L 241.558895 217.575758 
L 241.907887 215.671331 
L 242.25688 210.931417 
L 242.605872 161.225868 
L 242.954864 134.22531 
L 243.303857 118.122323 
L 243.652849 194.786107 
L 244.001842 205.345098 
L 244.350834 203.250229 
L 244.699826 199.187448 
L 245.048819 132.786412 
L 245.397811 114.905954 
L 245.746803 148.127634 
L 246.095796 150.561069 
L 246.444788 206.593555 
L 246.79378 209.153953 
L 247.142773 209.534842 
L 247.491765 205.070017 
L 247.840757 186.491265 
L 248.18975 50.790229 
L 248.887735 192.204547 
L 249.236727 148.529685 
L 249.585719 192.373833 
L 249.934712 185.856455 
L 250.283704 192.7124 
L 250.632696 205.874106 
L 250.981689 211.883631 
L 251.330681 207.884335 
L 251.679673 206.170349 
L 252.028666 202.488457 
L 252.377658 203.800398 
L 252.72665 191.865987 
L 253.075643 201.980611 
L 253.424635 167.552791 
L 253.773628 82.678812 
L 254.12262 118.735964 
L 254.471612 201.578566 
L 254.820605 211.60855 
L 255.169597 213.386014 
L 255.518589 213.195573 
L 255.867582 212.370322 
L 256.216574 206.02223 
L 256.565566 159.99856 
L 256.914559 178.55615 
L 257.263551 176.397803 
L 257.961536 201.345802 
L 258.310528 199.123969 
L 258.659521 187.887846 
L 259.008513 216.031052 
L 259.357505 216.517743 
L 259.706498 214.168948 
L 260.404482 83.355944 
L 260.753475 128.194623 
L 261.102467 157.480491 
L 261.451459 78.679509 
L 261.800452 70.955997 
L 262.149444 109.129193 
L 262.498436 107.14012 
L 262.847429 189.242104 
L 263.196421 184.54452 
L 263.894406 157.565125 
L 264.243398 154.369924 
L 264.592391 194.214776 
L 264.941383 202.573097 
L 265.639368 201.218838 
L 265.98836 192.627753 
L 266.337352 194.172459 
L 266.686345 117.953043 
L 267.035337 122.375539 
L 267.384329 29.270209 
L 267.733322 57.625018 
L 268.431306 195.378593 
L 268.780299 208.751908 
L 269.129291 210.825616 
L 269.478284 211.735513 
L 269.827276 211.227667 
L 270.176268 208.497982 
L 271.223245 127.81374 
L 271.572238 49.457119 
L 271.92123 32.444255 
L 272.270222 120.449957 
L 272.619215 37.67084 
L 272.968207 30.222423 
L 273.317199 30.79374 
L 273.666192 37.078341 
L 274.015184 161.077743 
L 274.364177 203.271391 
L 275.062161 209.005835 
L 275.411154 209.661799 
L 276.109138 214.317066 
L 276.458131 214.634471 
L 276.807123 213.047448 
L 277.156115 209.302078 
L 277.505108 186.787514 
L 277.8541 123.179628 
L 278.203092 151.301679 
L 278.552085 128.44855 
L 278.901077 42.008702 
L 279.250069 44.844188 
L 279.599062 42.135659 
L 279.948054 43.532234 
L 280.297047 93.766804 
L 280.646039 53.075552 
L 280.995031 174.747295 
L 281.344024 197.092579 
L 281.693016 154.602682 
L 282.042008 181.582078 
L 282.391001 194.278261 
L 282.739993 213.978506 
L 283.088985 144.149499 
L 283.437978 203.038626 
L 283.78697 208.328702 
L 284.135962 210.487056 
L 284.484955 211.269983 
L 284.833947 211.185344 
L 285.18294 208.77307 
L 285.531932 95.205715 
L 285.880924 78.679509 
L 286.229917 46.727461 
L 286.927901 63.634524 
L 287.276894 68.395606 
L 287.625886 71.1676 
L 287.974878 70.829041 
L 289.370848 57.730819 
L 290.068833 126.798048 
L 290.417825 84.371636 
L 290.766817 128.681308 
L 291.11581 201.726684 
L 291.464802 207.545768 
L 291.813794 163.32073 
L 292.162787 23.493435 
L 292.511779 28.233349 
L 292.860771 159.977405 
L 293.209764 60.947176 
L 293.558756 157.924852 
L 293.907748 140.996608 
L 294.256741 42.53771 
L 294.605733 46.917883 
L 294.954726 48.0817 
L 295.303718 132.765257 
L 295.65271 68.670687 
L 296.001703 58.598387 
L 296.350695 60.629771 
L 296.699687 61.201089 
L 297.04868 60.545125 
L 297.397672 57.43457 
L 298.444649 39.08857 
L 298.793641 44.759542 
L 299.142634 208.286379 
L 299.491626 208.011298 
L 300.189611 218.02012 
L 300.538603 218.168244 
L 300.887596 217.533435 
L 301.236588 216.200338 
L 301.58558 206.889804 
L 301.934573 211.227667 
L 302.283565 206.318473 
L 302.632557 205.154656 
L 302.98155 156.041593 
L 303.330542 30.434026 
L 303.679534 81.747753 
L 304.028527 35.851059 
L 304.377519 43.638035 
L 304.726511 95.734723 
L 305.075504 63.169008 
L 305.424496 63.465257 
L 306.122481 61.010667 
L 306.471473 58.619542 
L 306.820466 117.847242 
L 307.169458 51.149944 
L 307.51845 47.002529 
L 307.867443 88.349771 
L 308.216435 61.433873 
L 308.565427 217.893163 
L 308.91442 225.997557 
L 309.263412 225.574351 
L 309.612404 222.590747 
L 309.961397 217.279509 
L 310.310389 188.607295 
L 310.659382 190.596369 
L 311.008374 68.903445 
L 311.357366 63.486412 
L 311.706359 67.591517 
L 312.055351 67.930076 
L 312.404343 66.808583 
L 312.753336 65.179237 
L 313.45132 58.238646 
L 313.800313 56.503511 
L 314.149305 57.582682 
L 314.498297 57.244122 
L 314.84729 57.265277 
L 315.545274 52.969751 
L 315.894267 49.4783 
L 316.243259 43.849639 
L 316.592252 43.172519 
L 316.941244 188.564978 
L 317.290236 206.678201 
L 317.639229 100.241865 
L 317.988221 56.524667 
L 318.337213 213.386014 
L 318.686206 214.465191 
L 319.035198 209.852247 
L 319.38419 210.635174 
L 319.733183 208.519144 
L 320.082175 203.292552 
L 320.78016 38.792346 
L 321.129152 47.214132 
L 321.478145 49.182051 
L 321.827137 48.335639 
L 322.176129 46.240763 
L 322.525122 46.134962 
L 322.874114 162.008789 
L 323.223106 213.470654 
L 323.572099 218.67609 
L 323.921091 215.755971 
L 324.619076 54.027766 
L 324.968068 57.455725 
L 325.666053 58.619542 
L 326.015045 69.686379 
L 326.364038 176.905649 
L 326.71303 214.846074 
L 327.062022 108.684819 
L 327.411015 53.012061 
L 328.108999 85.281527 
L 328.806984 215.205802 
L 329.155976 210.190807 
L 329.853961 229.848732 
L 330.551946 231.901281 
L 330.900938 204.223604 
L 331.249931 87.841918 
L 331.598923 77.134809 
L 331.947915 76.584646 
L 332.296908 134.711995 
L 332.6459 223.6276 
L 332.994892 162.178082 
L 333.343885 214.846074 
L 333.692877 71.125277 
L 334.041869 69.05157 
L 334.390862 69.242018 
L 334.739854 134.86012 
L 335.088846 228.367511 
L 335.437839 197.029101 
L 335.786831 101.045954 
L 336.135823 75.590109 
L 336.484816 76.690448 
L 336.833808 74.722529 
L 337.182801 86.254896 
L 337.531793 213.703419 
L 337.880785 174.451052 
L 338.229778 179.571849 
L 338.57877 228.388672 
L 338.927762 224.09313 
L 339.276755 107.034318 
L 339.625747 73.00855 
L 339.974739 80.393501 
L 340.323732 85.281527 
L 340.672724 87.122476 
L 341.021716 133.696303 
L 341.370709 90.952486 
L 341.719701 90.677405 
L 342.068694 91.587295 
L 342.417686 94.570906 
L 342.766678 96.496489 
L 343.115671 93.724494 
L 343.464663 93.618692 
L 344.162648 87.207109 
L 344.860632 76.373043 
L 345.209625 130.204852 
L 345.558617 143.366565 
L 345.907609 208.349864 
L 346.256602 212.983969 
L 346.605594 214.380551 
L 346.954587 208.455665 
L 347.652571 77.261766 
L 348.350556 89.259662 
L 348.699548 90.571603 
L 349.048541 92.666478 
L 349.397533 91.777743 
L 349.746525 111.604952 
L 350.44451 101.363359 
L 350.793502 129.125682 
L 351.840479 93.131995 
L 352.189472 93.597524 
L 352.538464 85.768211 
L 352.887457 117.699117 
L 353.236449 88.370926 
L 353.585441 94.211178 
L 353.934434 103.119662 
L 354.283426 94.994112 
L 354.632418 102.103969 
L 355.679395 110.017929 
L 356.028388 109.615878 
L 356.37738 113.276608 
L 356.726372 133.209618 
L 357.075365 113.974896 
L 357.424357 123.497033 
L 357.77335 114.778998 
L 358.122342 117.191265 
L 358.471334 120.809685 
L 358.820327 123.11615 
L 359.867304 126.078593 
L 360.216296 126.332519 
L 360.565288 126.269041 
L 360.914281 126.6076 
L 361.612265 127.919542 
L 361.961258 127.940697 
L 362.31025 127.623293 
L 363.357227 124.195333 
L 364.404204 119.79398 
L 364.753197 120.069074 
L 365.102189 120.809685 
L 365.451181 123.158473 
L 365.800174 123.158473 
L 366.149166 123.920239 
L 366.498158 125.761188 
L 366.847151 126.798048 
L 367.196143 127.030807 
L 367.894128 126.057438 
L 368.24312 126.692247 
L 368.592113 126.099761 
L 368.941105 126.586445 
L 369.290097 126.628769 
L 369.63909 128.046499 
L 370.337074 132.998015 
L 370.686067 134.965921 
L 371.733044 146.83686 
L 372.082036 147.619781 
L 372.431028 148.72012 
L 373.129013 149.799303 
L 373.478006 150.116707 
L 373.826998 150.053216 
L 375.222967 152.740578 
L 375.57196 152.973349 
L 376.967929 155.766499 
L 377.316921 157.882529 
L 377.665914 206.445436 
L 378.363899 158.136455 
L 378.712891 158.855911 
L 379.061883 159.279117 
L 379.410876 159.99856 
L 380.10886 160.421766 
L 380.457853 160.993097 
L 380.806845 161.247023 
L 381.155837 161.289346 
L 381.853822 159.554198 
L 382.202814 159.384919 
L 382.551807 160.527567 
L 383.249792 164.590349 
L 384.296769 167.785562 
L 384.645761 168.145277 
L 384.994753 168.695453 
L 385.343746 168.737776 
L 386.390723 169.647667 
L 386.739715 169.68999 
L 387.088707 169.39374 
L 387.4377 169.901593 
L 387.786692 170.642204 
L 388.135685 170.282476 
L 388.484677 168.949379 
L 388.833669 171.467448 
L 389.182662 239.709436 
L 389.531654 224.304733 
L 389.880646 263.832184 
L 390.229639 265.525008 
L 390.578631 265.588488 
L 390.927623 265.905893 
L 391.276616 267.958443 
L 392.323593 265.948214 
L 392.672585 261.948916 
L 393.021577 247.348304 
L 393.37057 256.468397 
L 394.068555 264.593955 
L 394.766539 263.599419 
L 395.115532 262.456764 
L 395.464524 201.811331 
L 395.813516 261.123664 
L 396.162509 234.144275 
L 396.511501 187.104919 
L 396.860493 201.790169 
L 397.209486 189.411391 
L 397.558478 261.885435 
L 397.90747 262.520244 
L 398.256463 262.753007 
L 398.605455 263.345496 
L 398.954448 263.260855 
L 399.30344 262.287481 
L 399.652432 257.738015 
L 400.001425 254.690933 
L 400.350417 219.353223 
L 400.699409 208.053621 
L 401.048402 191.612061 
L 401.397394 192.543113 
L 402.095379 192.564275 
L 402.793363 191.675539 
L 403.142356 210.06385 
L 403.491348 217.427634 
L 403.840341 188.374537 
L 404.189333 187.104919 
L 404.887318 185.8353 
L 405.23631 185.877617 
L 405.585302 186.427786 
L 406.283287 188.459177 
L 407.330264 193.558812 
L 407.679256 194.193621 
L 408.028249 217.512274 
L 408.377241 255.198779 
L 408.726233 257.399451 
L 409.773211 261.56803 
L 410.471195 263.980305 
L 411.16918 266.011694 
L 411.867165 266.836947 
L 412.565149 268.106565 
L 413.263134 268.529771 
L 413.961119 268.529771 
L 414.310111 268.360488 
L 415.008096 267.154351 
L 415.357088 266.604184 
L 415.706081 266.41374 
L 416.055073 266.625344 
L 416.404065 267.00623 
L 417.10205 268.254686 
L 417.451042 268.677892 
L 418.149027 268.699054 
L 418.498019 268.402809 
L 421.638951 263.895664 
L 421.987943 263.557099 
L 422.336935 263.789862 
L 423.383912 265.71545 
L 423.732905 263.874504 
L 424.081897 257.399451 
L 424.43089 265.144122 
L 425.128874 265.144122 
L 425.477867 265.017161 
L 425.826859 265.017161 
L 426.524844 265.440367 
L 426.873836 265.948214 
L 427.571821 266.37142 
L 427.920813 264.974839 
L 428.269805 258.415144 
L 428.618798 265.355725 
L 428.96779 262.118198 
L 429.665775 245.867083 
L 430.014767 243.243206 
L 430.712752 243.349008 
L 431.759729 244.851391 
L 432.108721 245.930564 
L 432.457714 251.284122 
L 432.806706 261.821955 
L 433.155698 265.249924 
L 433.504691 266.307939 
L 433.853683 266.731145 
L 434.202675 266.942748 
L 434.551668 266.836947 
L 434.90066 266.138656 
L 435.249653 263.070412 
L 435.598645 256.341435 
L 435.947637 253.209711 
L 436.29663 254.098443 
L 436.645622 253.484793 
L 436.994614 252.363299 
L 437.343607 253.18855 
L 437.692599 256.256794 
L 438.041591 254.606289 
L 438.739576 255.875908 
L 439.437561 257.611054 
L 439.786553 258.944152 
L 440.135546 258.796031 
L 440.484538 261.483389 
L 440.83353 262.329801 
L 441.182523 267.83148 
L 441.880507 267.514076 
L 442.2295 265.969374 
L 442.578492 263.578259 
L 442.927484 268.952977 
L 443.276477 272.529069 
L 443.625469 272.782992 
L 443.974461 273.206198 
L 445.370431 273.904489 
L 446.417408 274.370015 
L 447.115393 275.068306 
L 447.464385 275.152946 
L 447.813377 275.597313 
L 448.16237 276.274443 
L 449.209347 277.332458 
L 450.256324 278.623237 
L 450.954309 279.004122 
L 452.350278 279.617771 
L 453.397255 280.167939 
L 453.746247 280.21026 
L 454.444232 280.485344 
L 459.330125 281.860763 
L 459.679117 281.860763 
L 460.02811 282.051206 
L 461.075087 282.114687 
L 461.424079 282.283969 
L 556.35 282.283969 
L 556.35 282.283969 
" clip-path="url(#p080ad7a5c5)" style="fill: none; stroke: #ffae49; stroke-width: 1.5; stroke-linecap: square"/>
   </g>
   <g id="patch_3">
    <path d="M 54.15 284.4 
L 54.15 7.2 
" style="fill: none; stroke: #000000; stroke-width: 0.8; stroke-linejoin: miter; stroke-linecap: square"/>
   </g>
   <g id="patch_4">
    <path d="M 556.35 284.4 
L 556.35 7.2 
" style="fill: none; stroke: #000000; stroke-width: 0.8; stroke-linejoin: miter; stroke-linecap: square"/>
   </g>
   <g id="patch_5">
    <path d="M 54.15 284.4 
L 556.35 284.4 
" style="fill: none; stroke: #000000; stroke-width: 0.8; stroke-linejoin: miter; stroke-linecap: square"/>
   </g>
   <g id="patch_6">
    <path d="M 54.15 7.2 
L 556.35 7.2 
" style="fill: none; stroke: #000000; stroke-width: 0.8; stroke-linejoin: miter; stroke-linecap: square"/>
   </g>
   <g id="legend_1">
    <g id="patch_7">
     <path d="M 474.91875 29.878125 
L 549.35 29.878125 
Q 551.35 29.878125 551.35 27.878125 
L 551.35 14.2 
Q 551.35 12.2 549.35 12.2 
L 474.91875 12.2 
Q 472.91875 12.2 472.91875 14.2 
L 472.91875 27.878125 
Q 472.91875 29.878125 474.91875 29.878125 
z
" style="fill: #ffffff; opacity: 0.8; stroke: #cccccc; stroke-linejoin: miter"/>
    </g>
    <g id="line2d_33">
     <path d="M 476.91875 20.298437 
L 486.91875 20.298437 
L 496.91875 20.298437 
" style="fill: none; stroke: #ffae49; stroke-width: 1.5; stroke-linecap: square"/>
    </g>
    <g id="text_34">
     <!-- Summer -->
     <g transform="translate(504.91875 23.798437) scale(0.1 -0.1)">
      <defs>
       <path id="DejaVuSans-75" d="M 544 1381 
L 544 3500 
L 1119 3500 
L 1119 1403 
Q 1119 906 1312 657 
Q 1506 409 1894 409 
Q 2359 409 2629 706 
Q 2900 1003 2900 1516 
L 2900 3500 
L 3475 3500 
L 3475 0 
L 2900 0 
L 2900 538 
Q 2691 219 2414 64 
Q 2138 -91 1772 -91 
Q 1169 -91 856 284 
Q 544 659 544 1381 
z
M 1991 3584 
L 1991 3584 
z
" transform="scale(0.015625)"/>
      </defs>
      <use xlink:href="#DejaVuSans-53"/>
      <use xlink:href="#DejaVuSans-75" x="63.476562"/>
      <use xlink:href="#DejaVuSans-6d" x="126.855469"/>
      <use xlink:href="#DejaVuSans-6d" x="224.267578"/>
      <use xlink:href="#DejaVuSans-65" x="321.679688"/>
      <use xlink:href="#DejaVuSans-72" x="383.203125"/>
     </g>
    </g>
   </g>
  </g>
 </g>
 <defs>
  <clipPath id="p080ad7a5c5">
   <rect x="54.15" y="7.2" width="502.2" height="277.2"/>
  </clipPath>
 </defs>
</svg>
