<?xml version="1.0" encoding="utf-8" standalone="no"?>
<!DOCTYPE svg PUBLIC "-//W3C//DTD SVG 1.1//EN"
  "http://www.w3.org/Graphics/SVG/1.1/DTD/svg11.dtd">
<svg xmlns:xlink="http://www.w3.org/1999/xlink" width="563.55pt" height="321.95625pt" viewBox="0 0 563.55 321.95625" xmlns="http://www.w3.org/2000/svg" version="1.1">
 <metadata>
  <rdf:RDF xmlns:dc="http://purl.org/dc/elements/1.1/" xmlns:cc="http://creativecommons.org/ns#" xmlns:rdf="http://www.w3.org/1999/02/22-rdf-syntax-ns#">
   <cc:Work>
    <dc:type rdf:resource="http://purl.org/dc/dcmitype/StillImage"/>
    <dc:date>2024-03-04T11:35:49.364268</dc:date>
    <dc:format>image/svg+xml</dc:format>
    <dc:creator>
     <cc:Agent>
      <dc:title>Matplotlib v3.8.2, https://matplotlib.org/</dc:title>
     </cc:Agent>
    </dc:creator>
   </cc:Work>
  </rdf:RDF>
 </metadata>
 <defs>
  <style type="text/css">*{stroke-linejoin: round; stroke-linecap: butt}</style>
 </defs>
 <g id="figure_1">
  <g id="patch_1">
   <path d="M 0 321.95625 
L 563.55 321.95625 
L 563.55 0 
L 0 0 
z
" style="fill: #ffffff"/>
  </g>
  <g id="axes_1">
   <g id="patch_2">
    <path d="M 54.15 284.4 
L 556.35 284.4 
L 556.35 7.2 
L 54.15 7.2 
z
" style="fill: #ffffff"/>
   </g>
   <g id="matplotlib.axis_1">
    <g id="xtick_1">
     <g id="line2d_1">
      <defs>
       <path id="m95724e65ae" d="M 0 0 
L 0 3.5 
" style="stroke: #000000; stroke-width: 0.8"/>
      </defs>
      <g>
       <use xlink:href="#m95724e65ae" x="54.15" y="284.4" style="stroke: #000000; stroke-width: 0.8"/>
      </g>
     </g>
     <g id="text_1">
      <!-- 0 -->
      <g transform="translate(50.96875 298.998438) scale(0.1 -0.1)">
       <defs>
        <path id="DejaVuSans-30" d="M 2034 4250 
Q 1547 4250 1301 3770 
Q 1056 3291 1056 2328 
Q 1056 1369 1301 889 
Q 1547 409 2034 409 
Q 2525 409 2770 889 
Q 3016 1369 3016 2328 
Q 3016 3291 2770 3770 
Q 2525 4250 2034 4250 
z
M 2034 4750 
Q 2819 4750 3233 4129 
Q 3647 3509 3647 2328 
Q 3647 1150 3233 529 
Q 2819 -91 2034 -91 
Q 1250 -91 836 529 
Q 422 1150 422 2328 
Q 422 3509 836 4129 
Q 1250 4750 2034 4750 
z
" transform="scale(0.015625)"/>
       </defs>
       <use xlink:href="#DejaVuSans-30"/>
      </g>
     </g>
    </g>
    <g id="xtick_2">
     <g id="line2d_2">
      <g>
       <use xlink:href="#m95724e65ae" x="75.075" y="284.4" style="stroke: #000000; stroke-width: 0.8"/>
      </g>
     </g>
     <g id="text_2">
      <!-- 1 -->
      <g transform="translate(71.89375 298.998438) scale(0.1 -0.1)">
       <defs>
        <path id="DejaVuSans-31" d="M 794 531 
L 1825 531 
L 1825 4091 
L 703 3866 
L 703 4441 
L 1819 4666 
L 2450 4666 
L 2450 531 
L 3481 531 
L 3481 0 
L 794 0 
L 794 531 
z
" transform="scale(0.015625)"/>
       </defs>
       <use xlink:href="#DejaVuSans-31"/>
      </g>
     </g>
    </g>
    <g id="xtick_3">
     <g id="line2d_3">
      <g>
       <use xlink:href="#m95724e65ae" x="96" y="284.4" style="stroke: #000000; stroke-width: 0.8"/>
      </g>
     </g>
     <g id="text_3">
      <!-- 2 -->
      <g transform="translate(92.81875 298.998438) scale(0.1 -0.1)">
       <defs>
        <path id="DejaVuSans-32" d="M 1228 531 
L 3431 531 
L 3431 0 
L 469 0 
L 469 531 
Q 828 903 1448 1529 
Q 2069 2156 2228 2338 
Q 2531 2678 2651 2914 
Q 2772 3150 2772 3378 
Q 2772 3750 2511 3984 
Q 2250 4219 1831 4219 
Q 1534 4219 1204 4116 
Q 875 4013 500 3803 
L 500 4441 
Q 881 4594 1212 4672 
Q 1544 4750 1819 4750 
Q 2544 4750 2975 4387 
Q 3406 4025 3406 3419 
Q 3406 3131 3298 2873 
Q 3191 2616 2906 2266 
Q 2828 2175 2409 1742 
Q 1991 1309 1228 531 
z
" transform="scale(0.015625)"/>
       </defs>
       <use xlink:href="#DejaVuSans-32"/>
      </g>
     </g>
    </g>
    <g id="xtick_4">
     <g id="line2d_4">
      <g>
       <use xlink:href="#m95724e65ae" x="116.925" y="284.4" style="stroke: #000000; stroke-width: 0.8"/>
      </g>
     </g>
     <g id="text_4">
      <!-- 3 -->
      <g transform="translate(113.74375 298.998438) scale(0.1 -0.1)">
       <defs>
        <path id="DejaVuSans-33" d="M 2597 2516 
Q 3050 2419 3304 2112 
Q 3559 1806 3559 1356 
Q 3559 666 3084 287 
Q 2609 -91 1734 -91 
Q 1441 -91 1130 -33 
Q 819 25 488 141 
L 488 750 
Q 750 597 1062 519 
Q 1375 441 1716 441 
Q 2309 441 2620 675 
Q 2931 909 2931 1356 
Q 2931 1769 2642 2001 
Q 2353 2234 1838 2234 
L 1294 2234 
L 1294 2753 
L 1863 2753 
Q 2328 2753 2575 2939 
Q 2822 3125 2822 3475 
Q 2822 3834 2567 4026 
Q 2313 4219 1838 4219 
Q 1578 4219 1281 4162 
Q 984 4106 628 3988 
L 628 4550 
Q 988 4650 1302 4700 
Q 1616 4750 1894 4750 
Q 2613 4750 3031 4423 
Q 3450 4097 3450 3541 
Q 3450 3153 3228 2886 
Q 3006 2619 2597 2516 
z
" transform="scale(0.015625)"/>
       </defs>
       <use xlink:href="#DejaVuSans-33"/>
      </g>
     </g>
    </g>
    <g id="xtick_5">
     <g id="line2d_5">
      <g>
       <use xlink:href="#m95724e65ae" x="137.85" y="284.4" style="stroke: #000000; stroke-width: 0.8"/>
      </g>
     </g>
     <g id="text_5">
      <!-- 4 -->
      <g transform="translate(134.66875 298.998438) scale(0.1 -0.1)">
       <defs>
        <path id="DejaVuSans-34" d="M 2419 4116 
L 825 1625 
L 2419 1625 
L 2419 4116 
z
M 2253 4666 
L 3047 4666 
L 3047 1625 
L 3713 1625 
L 3713 1100 
L 3047 1100 
L 3047 0 
L 2419 0 
L 2419 1100 
L 313 1100 
L 313 1709 
L 2253 4666 
z
" transform="scale(0.015625)"/>
       </defs>
       <use xlink:href="#DejaVuSans-34"/>
      </g>
     </g>
    </g>
    <g id="xtick_6">
     <g id="line2d_6">
      <g>
       <use xlink:href="#m95724e65ae" x="158.775" y="284.4" style="stroke: #000000; stroke-width: 0.8"/>
      </g>
     </g>
     <g id="text_6">
      <!-- 5 -->
      <g transform="translate(155.59375 298.998438) scale(0.1 -0.1)">
       <defs>
        <path id="DejaVuSans-35" d="M 691 4666 
L 3169 4666 
L 3169 4134 
L 1269 4134 
L 1269 2991 
Q 1406 3038 1543 3061 
Q 1681 3084 1819 3084 
Q 2600 3084 3056 2656 
Q 3513 2228 3513 1497 
Q 3513 744 3044 326 
Q 2575 -91 1722 -91 
Q 1428 -91 1123 -41 
Q 819 9 494 109 
L 494 744 
Q 775 591 1075 516 
Q 1375 441 1709 441 
Q 2250 441 2565 725 
Q 2881 1009 2881 1497 
Q 2881 1984 2565 2268 
Q 2250 2553 1709 2553 
Q 1456 2553 1204 2497 
Q 953 2441 691 2322 
L 691 4666 
z
" transform="scale(0.015625)"/>
       </defs>
       <use xlink:href="#DejaVuSans-35"/>
      </g>
     </g>
    </g>
    <g id="xtick_7">
     <g id="line2d_7">
      <g>
       <use xlink:href="#m95724e65ae" x="179.7" y="284.4" style="stroke: #000000; stroke-width: 0.8"/>
      </g>
     </g>
     <g id="text_7">
      <!-- 6 -->
      <g transform="translate(176.51875 298.998438) scale(0.1 -0.1)">
       <defs>
        <path id="DejaVuSans-36" d="M 2113 2584 
Q 1688 2584 1439 2293 
Q 1191 2003 1191 1497 
Q 1191 994 1439 701 
Q 1688 409 2113 409 
Q 2538 409 2786 701 
Q 3034 994 3034 1497 
Q 3034 2003 2786 2293 
Q 2538 2584 2113 2584 
z
M 3366 4563 
L 3366 3988 
Q 3128 4100 2886 4159 
Q 2644 4219 2406 4219 
Q 1781 4219 1451 3797 
Q 1122 3375 1075 2522 
Q 1259 2794 1537 2939 
Q 1816 3084 2150 3084 
Q 2853 3084 3261 2657 
Q 3669 2231 3669 1497 
Q 3669 778 3244 343 
Q 2819 -91 2113 -91 
Q 1303 -91 875 529 
Q 447 1150 447 2328 
Q 447 3434 972 4092 
Q 1497 4750 2381 4750 
Q 2619 4750 2861 4703 
Q 3103 4656 3366 4563 
z
" transform="scale(0.015625)"/>
       </defs>
       <use xlink:href="#DejaVuSans-36"/>
      </g>
     </g>
    </g>
    <g id="xtick_8">
     <g id="line2d_8">
      <g>
       <use xlink:href="#m95724e65ae" x="200.625" y="284.4" style="stroke: #000000; stroke-width: 0.8"/>
      </g>
     </g>
     <g id="text_8">
      <!-- 7 -->
      <g transform="translate(197.44375 298.998438) scale(0.1 -0.1)">
       <defs>
        <path id="DejaVuSans-37" d="M 525 4666 
L 3525 4666 
L 3525 4397 
L 1831 0 
L 1172 0 
L 2766 4134 
L 525 4134 
L 525 4666 
z
" transform="scale(0.015625)"/>
       </defs>
       <use xlink:href="#DejaVuSans-37"/>
      </g>
     </g>
    </g>
    <g id="xtick_9">
     <g id="line2d_9">
      <g>
       <use xlink:href="#m95724e65ae" x="221.55" y="284.4" style="stroke: #000000; stroke-width: 0.8"/>
      </g>
     </g>
     <g id="text_9">
      <!-- 8 -->
      <g transform="translate(218.36875 298.998438) scale(0.1 -0.1)">
       <defs>
        <path id="DejaVuSans-38" d="M 2034 2216 
Q 1584 2216 1326 1975 
Q 1069 1734 1069 1313 
Q 1069 891 1326 650 
Q 1584 409 2034 409 
Q 2484 409 2743 651 
Q 3003 894 3003 1313 
Q 3003 1734 2745 1975 
Q 2488 2216 2034 2216 
z
M 1403 2484 
Q 997 2584 770 2862 
Q 544 3141 544 3541 
Q 544 4100 942 4425 
Q 1341 4750 2034 4750 
Q 2731 4750 3128 4425 
Q 3525 4100 3525 3541 
Q 3525 3141 3298 2862 
Q 3072 2584 2669 2484 
Q 3125 2378 3379 2068 
Q 3634 1759 3634 1313 
Q 3634 634 3220 271 
Q 2806 -91 2034 -91 
Q 1263 -91 848 271 
Q 434 634 434 1313 
Q 434 1759 690 2068 
Q 947 2378 1403 2484 
z
M 1172 3481 
Q 1172 3119 1398 2916 
Q 1625 2713 2034 2713 
Q 2441 2713 2670 2916 
Q 2900 3119 2900 3481 
Q 2900 3844 2670 4047 
Q 2441 4250 2034 4250 
Q 1625 4250 1398 4047 
Q 1172 3844 1172 3481 
z
" transform="scale(0.015625)"/>
       </defs>
       <use xlink:href="#DejaVuSans-38"/>
      </g>
     </g>
    </g>
    <g id="xtick_10">
     <g id="line2d_10">
      <g>
       <use xlink:href="#m95724e65ae" x="242.475" y="284.4" style="stroke: #000000; stroke-width: 0.8"/>
      </g>
     </g>
     <g id="text_10">
      <!-- 9 -->
      <g transform="translate(239.29375 298.998438) scale(0.1 -0.1)">
       <defs>
        <path id="DejaVuSans-39" d="M 703 97 
L 703 672 
Q 941 559 1184 500 
Q 1428 441 1663 441 
Q 2288 441 2617 861 
Q 2947 1281 2994 2138 
Q 2813 1869 2534 1725 
Q 2256 1581 1919 1581 
Q 1219 1581 811 2004 
Q 403 2428 403 3163 
Q 403 3881 828 4315 
Q 1253 4750 1959 4750 
Q 2769 4750 3195 4129 
Q 3622 3509 3622 2328 
Q 3622 1225 3098 567 
Q 2575 -91 1691 -91 
Q 1453 -91 1209 -44 
Q 966 3 703 97 
z
M 1959 2075 
Q 2384 2075 2632 2365 
Q 2881 2656 2881 3163 
Q 2881 3666 2632 3958 
Q 2384 4250 1959 4250 
Q 1534 4250 1286 3958 
Q 1038 3666 1038 3163 
Q 1038 2656 1286 2365 
Q 1534 2075 1959 2075 
z
" transform="scale(0.015625)"/>
       </defs>
       <use xlink:href="#DejaVuSans-39"/>
      </g>
     </g>
    </g>
    <g id="xtick_11">
     <g id="line2d_11">
      <g>
       <use xlink:href="#m95724e65ae" x="263.4" y="284.4" style="stroke: #000000; stroke-width: 0.8"/>
      </g>
     </g>
     <g id="text_11">
      <!-- 10 -->
      <g transform="translate(257.0375 298.998438) scale(0.1 -0.1)">
       <use xlink:href="#DejaVuSans-31"/>
       <use xlink:href="#DejaVuSans-30" x="63.623047"/>
      </g>
     </g>
    </g>
    <g id="xtick_12">
     <g id="line2d_12">
      <g>
       <use xlink:href="#m95724e65ae" x="284.325" y="284.4" style="stroke: #000000; stroke-width: 0.8"/>
      </g>
     </g>
     <g id="text_12">
      <!-- 11 -->
      <g transform="translate(277.9625 298.998438) scale(0.1 -0.1)">
       <use xlink:href="#DejaVuSans-31"/>
       <use xlink:href="#DejaVuSans-31" x="63.623047"/>
      </g>
     </g>
    </g>
    <g id="xtick_13">
     <g id="line2d_13">
      <g>
       <use xlink:href="#m95724e65ae" x="305.25" y="284.4" style="stroke: #000000; stroke-width: 0.8"/>
      </g>
     </g>
     <g id="text_13">
      <!-- 12 -->
      <g transform="translate(298.8875 298.998438) scale(0.1 -0.1)">
       <use xlink:href="#DejaVuSans-31"/>
       <use xlink:href="#DejaVuSans-32" x="63.623047"/>
      </g>
     </g>
    </g>
    <g id="xtick_14">
     <g id="line2d_14">
      <g>
       <use xlink:href="#m95724e65ae" x="326.175" y="284.4" style="stroke: #000000; stroke-width: 0.8"/>
      </g>
     </g>
     <g id="text_14">
      <!-- 13 -->
      <g transform="translate(319.8125 298.998438) scale(0.1 -0.1)">
       <use xlink:href="#DejaVuSans-31"/>
       <use xlink:href="#DejaVuSans-33" x="63.623047"/>
      </g>
     </g>
    </g>
    <g id="xtick_15">
     <g id="line2d_15">
      <g>
       <use xlink:href="#m95724e65ae" x="347.1" y="284.4" style="stroke: #000000; stroke-width: 0.8"/>
      </g>
     </g>
     <g id="text_15">
      <!-- 14 -->
      <g transform="translate(340.7375 298.998438) scale(0.1 -0.1)">
       <use xlink:href="#DejaVuSans-31"/>
       <use xlink:href="#DejaVuSans-34" x="63.623047"/>
      </g>
     </g>
    </g>
    <g id="xtick_16">
     <g id="line2d_16">
      <g>
       <use xlink:href="#m95724e65ae" x="368.025" y="284.4" style="stroke: #000000; stroke-width: 0.8"/>
      </g>
     </g>
     <g id="text_16">
      <!-- 15 -->
      <g transform="translate(361.6625 298.998438) scale(0.1 -0.1)">
       <use xlink:href="#DejaVuSans-31"/>
       <use xlink:href="#DejaVuSans-35" x="63.623047"/>
      </g>
     </g>
    </g>
    <g id="xtick_17">
     <g id="line2d_17">
      <g>
       <use xlink:href="#m95724e65ae" x="388.95" y="284.4" style="stroke: #000000; stroke-width: 0.8"/>
      </g>
     </g>
     <g id="text_17">
      <!-- 16 -->
      <g transform="translate(382.5875 298.998438) scale(0.1 -0.1)">
       <use xlink:href="#DejaVuSans-31"/>
       <use xlink:href="#DejaVuSans-36" x="63.623047"/>
      </g>
     </g>
    </g>
    <g id="xtick_18">
     <g id="line2d_18">
      <g>
       <use xlink:href="#m95724e65ae" x="409.875" y="284.4" style="stroke: #000000; stroke-width: 0.8"/>
      </g>
     </g>
     <g id="text_18">
      <!-- 17 -->
      <g transform="translate(403.5125 298.998438) scale(0.1 -0.1)">
       <use xlink:href="#DejaVuSans-31"/>
       <use xlink:href="#DejaVuSans-37" x="63.623047"/>
      </g>
     </g>
    </g>
    <g id="xtick_19">
     <g id="line2d_19">
      <g>
       <use xlink:href="#m95724e65ae" x="430.8" y="284.4" style="stroke: #000000; stroke-width: 0.8"/>
      </g>
     </g>
     <g id="text_19">
      <!-- 18 -->
      <g transform="translate(424.4375 298.998438) scale(0.1 -0.1)">
       <use xlink:href="#DejaVuSans-31"/>
       <use xlink:href="#DejaVuSans-38" x="63.623047"/>
      </g>
     </g>
    </g>
    <g id="xtick_20">
     <g id="line2d_20">
      <g>
       <use xlink:href="#m95724e65ae" x="451.725" y="284.4" style="stroke: #000000; stroke-width: 0.8"/>
      </g>
     </g>
     <g id="text_20">
      <!-- 19 -->
      <g transform="translate(445.3625 298.998438) scale(0.1 -0.1)">
       <use xlink:href="#DejaVuSans-31"/>
       <use xlink:href="#DejaVuSans-39" x="63.623047"/>
      </g>
     </g>
    </g>
    <g id="xtick_21">
     <g id="line2d_21">
      <g>
       <use xlink:href="#m95724e65ae" x="472.65" y="284.4" style="stroke: #000000; stroke-width: 0.8"/>
      </g>
     </g>
     <g id="text_21">
      <!-- 20 -->
      <g transform="translate(466.2875 298.998438) scale(0.1 -0.1)">
       <use xlink:href="#DejaVuSans-32"/>
       <use xlink:href="#DejaVuSans-30" x="63.623047"/>
      </g>
     </g>
    </g>
    <g id="xtick_22">
     <g id="line2d_22">
      <g>
       <use xlink:href="#m95724e65ae" x="493.575" y="284.4" style="stroke: #000000; stroke-width: 0.8"/>
      </g>
     </g>
     <g id="text_22">
      <!-- 21 -->
      <g transform="translate(487.2125 298.998438) scale(0.1 -0.1)">
       <use xlink:href="#DejaVuSans-32"/>
       <use xlink:href="#DejaVuSans-31" x="63.623047"/>
      </g>
     </g>
    </g>
    <g id="xtick_23">
     <g id="line2d_23">
      <g>
       <use xlink:href="#m95724e65ae" x="514.5" y="284.4" style="stroke: #000000; stroke-width: 0.8"/>
      </g>
     </g>
     <g id="text_23">
      <!-- 22 -->
      <g transform="translate(508.1375 298.998438) scale(0.1 -0.1)">
       <use xlink:href="#DejaVuSans-32"/>
       <use xlink:href="#DejaVuSans-32" x="63.623047"/>
      </g>
     </g>
    </g>
    <g id="xtick_24">
     <g id="line2d_24">
      <g>
       <use xlink:href="#m95724e65ae" x="535.425" y="284.4" style="stroke: #000000; stroke-width: 0.8"/>
      </g>
     </g>
     <g id="text_24">
      <!-- 23 -->
      <g transform="translate(529.0625 298.998438) scale(0.1 -0.1)">
       <use xlink:href="#DejaVuSans-32"/>
       <use xlink:href="#DejaVuSans-33" x="63.623047"/>
      </g>
     </g>
    </g>
    <g id="text_25">
     <!-- Time of the day -->
     <g transform="translate(266.026563 312.676562) scale(0.1 -0.1)">
      <defs>
       <path id="DejaVuSans-54" d="M -19 4666 
L 3928 4666 
L 3928 4134 
L 2272 4134 
L 2272 0 
L 1638 0 
L 1638 4134 
L -19 4134 
L -19 4666 
z
" transform="scale(0.015625)"/>
       <path id="DejaVuSans-69" d="M 603 3500 
L 1178 3500 
L 1178 0 
L 603 0 
L 603 3500 
z
M 603 4863 
L 1178 4863 
L 1178 4134 
L 603 4134 
L 603 4863 
z
" transform="scale(0.015625)"/>
       <path id="DejaVuSans-6d" d="M 3328 2828 
Q 3544 3216 3844 3400 
Q 4144 3584 4550 3584 
Q 5097 3584 5394 3201 
Q 5691 2819 5691 2113 
L 5691 0 
L 5113 0 
L 5113 2094 
Q 5113 2597 4934 2840 
Q 4756 3084 4391 3084 
Q 3944 3084 3684 2787 
Q 3425 2491 3425 1978 
L 3425 0 
L 2847 0 
L 2847 2094 
Q 2847 2600 2669 2842 
Q 2491 3084 2119 3084 
Q 1678 3084 1418 2786 
Q 1159 2488 1159 1978 
L 1159 0 
L 581 0 
L 581 3500 
L 1159 3500 
L 1159 2956 
Q 1356 3278 1631 3431 
Q 1906 3584 2284 3584 
Q 2666 3584 2933 3390 
Q 3200 3197 3328 2828 
z
" transform="scale(0.015625)"/>
       <path id="DejaVuSans-65" d="M 3597 1894 
L 3597 1613 
L 953 1613 
Q 991 1019 1311 708 
Q 1631 397 2203 397 
Q 2534 397 2845 478 
Q 3156 559 3463 722 
L 3463 178 
Q 3153 47 2828 -22 
Q 2503 -91 2169 -91 
Q 1331 -91 842 396 
Q 353 884 353 1716 
Q 353 2575 817 3079 
Q 1281 3584 2069 3584 
Q 2775 3584 3186 3129 
Q 3597 2675 3597 1894 
z
M 3022 2063 
Q 3016 2534 2758 2815 
Q 2500 3097 2075 3097 
Q 1594 3097 1305 2825 
Q 1016 2553 972 2059 
L 3022 2063 
z
" transform="scale(0.015625)"/>
       <path id="DejaVuSans-20" transform="scale(0.015625)"/>
       <path id="DejaVuSans-6f" d="M 1959 3097 
Q 1497 3097 1228 2736 
Q 959 2375 959 1747 
Q 959 1119 1226 758 
Q 1494 397 1959 397 
Q 2419 397 2687 759 
Q 2956 1122 2956 1747 
Q 2956 2369 2687 2733 
Q 2419 3097 1959 3097 
z
M 1959 3584 
Q 2709 3584 3137 3096 
Q 3566 2609 3566 1747 
Q 3566 888 3137 398 
Q 2709 -91 1959 -91 
Q 1206 -91 779 398 
Q 353 888 353 1747 
Q 353 2609 779 3096 
Q 1206 3584 1959 3584 
z
" transform="scale(0.015625)"/>
       <path id="DejaVuSans-66" d="M 2375 4863 
L 2375 4384 
L 1825 4384 
Q 1516 4384 1395 4259 
Q 1275 4134 1275 3809 
L 1275 3500 
L 2222 3500 
L 2222 3053 
L 1275 3053 
L 1275 0 
L 697 0 
L 697 3053 
L 147 3053 
L 147 3500 
L 697 3500 
L 697 3744 
Q 697 4328 969 4595 
Q 1241 4863 1831 4863 
L 2375 4863 
z
" transform="scale(0.015625)"/>
       <path id="DejaVuSans-74" d="M 1172 4494 
L 1172 3500 
L 2356 3500 
L 2356 3053 
L 1172 3053 
L 1172 1153 
Q 1172 725 1289 603 
Q 1406 481 1766 481 
L 2356 481 
L 2356 0 
L 1766 0 
Q 1100 0 847 248 
Q 594 497 594 1153 
L 594 3053 
L 172 3053 
L 172 3500 
L 594 3500 
L 594 4494 
L 1172 4494 
z
" transform="scale(0.015625)"/>
       <path id="DejaVuSans-68" d="M 3513 2113 
L 3513 0 
L 2938 0 
L 2938 2094 
Q 2938 2591 2744 2837 
Q 2550 3084 2163 3084 
Q 1697 3084 1428 2787 
Q 1159 2491 1159 1978 
L 1159 0 
L 581 0 
L 581 4863 
L 1159 4863 
L 1159 2956 
Q 1366 3272 1645 3428 
Q 1925 3584 2291 3584 
Q 2894 3584 3203 3211 
Q 3513 2838 3513 2113 
z
" transform="scale(0.015625)"/>
       <path id="DejaVuSans-64" d="M 2906 2969 
L 2906 4863 
L 3481 4863 
L 3481 0 
L 2906 0 
L 2906 525 
Q 2725 213 2448 61 
Q 2172 -91 1784 -91 
Q 1150 -91 751 415 
Q 353 922 353 1747 
Q 353 2572 751 3078 
Q 1150 3584 1784 3584 
Q 2172 3584 2448 3432 
Q 2725 3281 2906 2969 
z
M 947 1747 
Q 947 1113 1208 752 
Q 1469 391 1925 391 
Q 2381 391 2643 752 
Q 2906 1113 2906 1747 
Q 2906 2381 2643 2742 
Q 2381 3103 1925 3103 
Q 1469 3103 1208 2742 
Q 947 2381 947 1747 
z
" transform="scale(0.015625)"/>
       <path id="DejaVuSans-61" d="M 2194 1759 
Q 1497 1759 1228 1600 
Q 959 1441 959 1056 
Q 959 750 1161 570 
Q 1363 391 1709 391 
Q 2188 391 2477 730 
Q 2766 1069 2766 1631 
L 2766 1759 
L 2194 1759 
z
M 3341 1997 
L 3341 0 
L 2766 0 
L 2766 531 
Q 2569 213 2275 61 
Q 1981 -91 1556 -91 
Q 1019 -91 701 211 
Q 384 513 384 1019 
Q 384 1609 779 1909 
Q 1175 2209 1959 2209 
L 2766 2209 
L 2766 2266 
Q 2766 2663 2505 2880 
Q 2244 3097 1772 3097 
Q 1472 3097 1187 3025 
Q 903 2953 641 2809 
L 641 3341 
Q 956 3463 1253 3523 
Q 1550 3584 1831 3584 
Q 2591 3584 2966 3190 
Q 3341 2797 3341 1997 
z
" transform="scale(0.015625)"/>
       <path id="DejaVuSans-79" d="M 2059 -325 
Q 1816 -950 1584 -1140 
Q 1353 -1331 966 -1331 
L 506 -1331 
L 506 -850 
L 844 -850 
Q 1081 -850 1212 -737 
Q 1344 -625 1503 -206 
L 1606 56 
L 191 3500 
L 800 3500 
L 1894 763 
L 2988 3500 
L 3597 3500 
L 2059 -325 
z
" transform="scale(0.015625)"/>
      </defs>
      <use xlink:href="#DejaVuSans-54"/>
      <use xlink:href="#DejaVuSans-69" x="57.958984"/>
      <use xlink:href="#DejaVuSans-6d" x="85.742188"/>
      <use xlink:href="#DejaVuSans-65" x="183.154297"/>
      <use xlink:href="#DejaVuSans-20" x="244.677734"/>
      <use xlink:href="#DejaVuSans-6f" x="276.464844"/>
      <use xlink:href="#DejaVuSans-66" x="337.646484"/>
      <use xlink:href="#DejaVuSans-20" x="372.851562"/>
      <use xlink:href="#DejaVuSans-74" x="404.638672"/>
      <use xlink:href="#DejaVuSans-68" x="443.847656"/>
      <use xlink:href="#DejaVuSans-65" x="507.226562"/>
      <use xlink:href="#DejaVuSans-20" x="568.75"/>
      <use xlink:href="#DejaVuSans-64" x="600.537109"/>
      <use xlink:href="#DejaVuSans-61" x="664.013672"/>
      <use xlink:href="#DejaVuSans-79" x="725.292969"/>
     </g>
    </g>
   </g>
   <g id="matplotlib.axis_2">
    <g id="ytick_1">
     <g id="line2d_25">
      <defs>
       <path id="me61cace838" d="M 0 0 
L -3.5 0 
" style="stroke: #000000; stroke-width: 0.8"/>
      </defs>
      <g>
       <use xlink:href="#me61cace838" x="54.15" y="282.283969" style="stroke: #000000; stroke-width: 0.8"/>
      </g>
     </g>
     <g id="text_26">
      <!-- 0 -->
      <g transform="translate(40.7875 286.083188) scale(0.1 -0.1)">
       <use xlink:href="#DejaVuSans-30"/>
      </g>
     </g>
    </g>
    <g id="ytick_2">
     <g id="line2d_26">
      <g>
       <use xlink:href="#me61cace838" x="54.15" y="239.963359" style="stroke: #000000; stroke-width: 0.8"/>
      </g>
     </g>
     <g id="text_27">
      <!-- 200 -->
      <g transform="translate(28.0625 243.762578) scale(0.1 -0.1)">
       <use xlink:href="#DejaVuSans-32"/>
       <use xlink:href="#DejaVuSans-30" x="63.623047"/>
       <use xlink:href="#DejaVuSans-30" x="127.246094"/>
      </g>
     </g>
    </g>
    <g id="ytick_3">
     <g id="line2d_27">
      <g>
       <use xlink:href="#me61cace838" x="54.15" y="197.642748" style="stroke: #000000; stroke-width: 0.8"/>
      </g>
     </g>
     <g id="text_28">
      <!-- 400 -->
      <g transform="translate(28.0625 201.441967) scale(0.1 -0.1)">
       <use xlink:href="#DejaVuSans-34"/>
       <use xlink:href="#DejaVuSans-30" x="63.623047"/>
       <use xlink:href="#DejaVuSans-30" x="127.246094"/>
      </g>
     </g>
    </g>
    <g id="ytick_4">
     <g id="line2d_28">
      <g>
       <use xlink:href="#me61cace838" x="54.15" y="155.322137" style="stroke: #000000; stroke-width: 0.8"/>
      </g>
     </g>
     <g id="text_29">
      <!-- 600 -->
      <g transform="translate(28.0625 159.121356) scale(0.1 -0.1)">
       <use xlink:href="#DejaVuSans-36"/>
       <use xlink:href="#DejaVuSans-30" x="63.623047"/>
       <use xlink:href="#DejaVuSans-30" x="127.246094"/>
      </g>
     </g>
    </g>
    <g id="ytick_5">
     <g id="line2d_29">
      <g>
       <use xlink:href="#me61cace838" x="54.15" y="113.001527" style="stroke: #000000; stroke-width: 0.8"/>
      </g>
     </g>
     <g id="text_30">
      <!-- 800 -->
      <g transform="translate(28.0625 116.800745) scale(0.1 -0.1)">
       <use xlink:href="#DejaVuSans-38"/>
       <use xlink:href="#DejaVuSans-30" x="63.623047"/>
       <use xlink:href="#DejaVuSans-30" x="127.246094"/>
      </g>
     </g>
    </g>
    <g id="ytick_6">
     <g id="line2d_30">
      <g>
       <use xlink:href="#me61cace838" x="54.15" y="70.680916" style="stroke: #000000; stroke-width: 0.8"/>
      </g>
     </g>
     <g id="text_31">
      <!-- 1000 -->
      <g transform="translate(21.7 74.480135) scale(0.1 -0.1)">
       <use xlink:href="#DejaVuSans-31"/>
       <use xlink:href="#DejaVuSans-30" x="63.623047"/>
       <use xlink:href="#DejaVuSans-30" x="127.246094"/>
       <use xlink:href="#DejaVuSans-30" x="190.869141"/>
      </g>
     </g>
    </g>
    <g id="ytick_7">
     <g id="line2d_31">
      <g>
       <use xlink:href="#me61cace838" x="54.15" y="28.360305" style="stroke: #000000; stroke-width: 0.8"/>
      </g>
     </g>
     <g id="text_32">
      <!-- 1200 -->
      <g transform="translate(21.7 32.159524) scale(0.1 -0.1)">
       <use xlink:href="#DejaVuSans-31"/>
       <use xlink:href="#DejaVuSans-32" x="63.623047"/>
       <use xlink:href="#DejaVuSans-30" x="127.246094"/>
       <use xlink:href="#DejaVuSans-30" x="190.869141"/>
      </g>
     </g>
    </g>
    <g id="text_33">
     <!-- Solar irradiance [W/m$^2$] -->
     <g transform="translate(15.620312 204.75) rotate(-90) scale(0.1 -0.1)">
      <defs>
       <path id="DejaVuSans-53" d="M 3425 4513 
L 3425 3897 
Q 3066 4069 2747 4153 
Q 2428 4238 2131 4238 
Q 1616 4238 1336 4038 
Q 1056 3838 1056 3469 
Q 1056 3159 1242 3001 
Q 1428 2844 1947 2747 
L 2328 2669 
Q 3034 2534 3370 2195 
Q 3706 1856 3706 1288 
Q 3706 609 3251 259 
Q 2797 -91 1919 -91 
Q 1588 -91 1214 -16 
Q 841 59 441 206 
L 441 856 
Q 825 641 1194 531 
Q 1563 422 1919 422 
Q 2459 422 2753 634 
Q 3047 847 3047 1241 
Q 3047 1584 2836 1778 
Q 2625 1972 2144 2069 
L 1759 2144 
Q 1053 2284 737 2584 
Q 422 2884 422 3419 
Q 422 4038 858 4394 
Q 1294 4750 2059 4750 
Q 2388 4750 2728 4690 
Q 3069 4631 3425 4513 
z
" transform="scale(0.015625)"/>
       <path id="DejaVuSans-6c" d="M 603 4863 
L 1178 4863 
L 1178 0 
L 603 0 
L 603 4863 
z
" transform="scale(0.015625)"/>
       <path id="DejaVuSans-72" d="M 2631 2963 
Q 2534 3019 2420 3045 
Q 2306 3072 2169 3072 
Q 1681 3072 1420 2755 
Q 1159 2438 1159 1844 
L 1159 0 
L 581 0 
L 581 3500 
L 1159 3500 
L 1159 2956 
Q 1341 3275 1631 3429 
Q 1922 3584 2338 3584 
Q 2397 3584 2469 3576 
Q 2541 3569 2628 3553 
L 2631 2963 
z
" transform="scale(0.015625)"/>
       <path id="DejaVuSans-6e" d="M 3513 2113 
L 3513 0 
L 2938 0 
L 2938 2094 
Q 2938 2591 2744 2837 
Q 2550 3084 2163 3084 
Q 1697 3084 1428 2787 
Q 1159 2491 1159 1978 
L 1159 0 
L 581 0 
L 581 3500 
L 1159 3500 
L 1159 2956 
Q 1366 3272 1645 3428 
Q 1925 3584 2291 3584 
Q 2894 3584 3203 3211 
Q 3513 2838 3513 2113 
z
" transform="scale(0.015625)"/>
       <path id="DejaVuSans-63" d="M 3122 3366 
L 3122 2828 
Q 2878 2963 2633 3030 
Q 2388 3097 2138 3097 
Q 1578 3097 1268 2742 
Q 959 2388 959 1747 
Q 959 1106 1268 751 
Q 1578 397 2138 397 
Q 2388 397 2633 464 
Q 2878 531 3122 666 
L 3122 134 
Q 2881 22 2623 -34 
Q 2366 -91 2075 -91 
Q 1284 -91 818 406 
Q 353 903 353 1747 
Q 353 2603 823 3093 
Q 1294 3584 2113 3584 
Q 2378 3584 2631 3529 
Q 2884 3475 3122 3366 
z
" transform="scale(0.015625)"/>
       <path id="DejaVuSans-5b" d="M 550 4863 
L 1875 4863 
L 1875 4416 
L 1125 4416 
L 1125 -397 
L 1875 -397 
L 1875 -844 
L 550 -844 
L 550 4863 
z
" transform="scale(0.015625)"/>
       <path id="DejaVuSans-57" d="M 213 4666 
L 850 4666 
L 1831 722 
L 2809 4666 
L 3519 4666 
L 4500 722 
L 5478 4666 
L 6119 4666 
L 4947 0 
L 4153 0 
L 3169 4050 
L 2175 0 
L 1381 0 
L 213 4666 
z
" transform="scale(0.015625)"/>
       <path id="DejaVuSans-2f" d="M 1625 4666 
L 2156 4666 
L 531 -594 
L 0 -594 
L 1625 4666 
z
" transform="scale(0.015625)"/>
       <path id="DejaVuSans-5d" d="M 1947 4863 
L 1947 -844 
L 622 -844 
L 622 -397 
L 1369 -397 
L 1369 4416 
L 622 4416 
L 622 4863 
L 1947 4863 
z
" transform="scale(0.015625)"/>
      </defs>
      <use xlink:href="#DejaVuSans-53" transform="translate(0 0.765625)"/>
      <use xlink:href="#DejaVuSans-6f" transform="translate(63.476562 0.765625)"/>
      <use xlink:href="#DejaVuSans-6c" transform="translate(124.658203 0.765625)"/>
      <use xlink:href="#DejaVuSans-61" transform="translate(152.441406 0.765625)"/>
      <use xlink:href="#DejaVuSans-72" transform="translate(213.720703 0.765625)"/>
      <use xlink:href="#DejaVuSans-20" transform="translate(254.833984 0.765625)"/>
      <use xlink:href="#DejaVuSans-69" transform="translate(286.621094 0.765625)"/>
      <use xlink:href="#DejaVuSans-72" transform="translate(314.404297 0.765625)"/>
      <use xlink:href="#DejaVuSans-72" transform="translate(355.517578 0.765625)"/>
      <use xlink:href="#DejaVuSans-61" transform="translate(396.630859 0.765625)"/>
      <use xlink:href="#DejaVuSans-64" transform="translate(457.910156 0.765625)"/>
      <use xlink:href="#DejaVuSans-69" transform="translate(521.386719 0.765625)"/>
      <use xlink:href="#DejaVuSans-61" transform="translate(549.169922 0.765625)"/>
      <use xlink:href="#DejaVuSans-6e" transform="translate(610.449219 0.765625)"/>
      <use xlink:href="#DejaVuSans-63" transform="translate(673.828125 0.765625)"/>
      <use xlink:href="#DejaVuSans-65" transform="translate(728.808594 0.765625)"/>
      <use xlink:href="#DejaVuSans-20" transform="translate(790.332031 0.765625)"/>
      <use xlink:href="#DejaVuSans-5b" transform="translate(822.119141 0.765625)"/>
      <use xlink:href="#DejaVuSans-57" transform="translate(861.132812 0.765625)"/>
      <use xlink:href="#DejaVuSans-2f" transform="translate(960.009766 0.765625)"/>
      <use xlink:href="#DejaVuSans-6d" transform="translate(993.701172 0.765625)"/>
      <use xlink:href="#DejaVuSans-32" transform="translate(1092.070312 39.046875) scale(0.7)"/>
      <use xlink:href="#DejaVuSans-5d" transform="translate(1139.34082 0.765625)"/>
     </g>
    </g>
   </g>
   <g id="line2d_32">
    <path d="M 54.15 282.283969 
L 123.250486 282.283969 
L 123.599479 282.072366 
L 124.646456 282.072366 
L 125.344441 281.860763 
L 126.391418 281.860763 
L 127.089402 281.64916 
L 127.438395 281.64916 
L 129.183356 280.802748 
L 129.881341 280.485344 
L 130.579326 279.956336 
L 130.928318 279.956336 
L 132.324288 278.644397 
L 132.67328 278.17887 
L 133.022272 278.030748 
L 133.371265 277.755664 
L 134.069249 276.76113 
L 134.418242 276.676489 
L 134.767234 276.718809 
L 135.116227 276.613008 
L 135.465219 276.824611 
L 135.814211 276.570687 
L 136.163204 276.464885 
L 137.210181 274.475816 
L 137.559173 274.179573 
L 137.908165 273.735206 
L 138.257158 273.629404 
L 138.955142 274.370015 
L 139.653127 273.248519 
L 140.00212 273.714046 
L 140.351112 272.105863 
L 140.700104 271.513374 
L 141.747081 270.476519 
L 144.888013 266.329099 
L 149.773905 259.113435 
L 151.169875 256.870443 
L 153.961814 252.807663 
L 159.545691 244.19542 
L 160.243676 242.946963 
L 160.592669 242.73536 
L 160.941661 243.454809 
L 161.290653 245.443877 
L 161.988638 253.400153 
L 163.035615 266.921588 
L 163.384607 270.116794 
L 163.7336 271.93658 
L 164.082592 272.698351 
L 164.431584 272.973435 
L 164.780577 272.782992 
L 165.129569 271.978901 
L 165.478562 269.989832 
L 165.827554 266.37142 
L 166.525539 255.092977 
L 167.572516 237.572244 
L 167.921508 233.805709 
L 168.2705 231.66852 
L 168.968485 229.573648 
L 171.062439 225.214623 
L 173.156393 220.707481 
L 174.552363 218.358686 
L 175.250347 217.448795 
L 175.59934 217.025589 
L 183.626164 202.911663 
L 183.975156 266.307939 
L 184.324149 275.047145 
L 184.673141 274.772061 
L 185.022133 209.492519 
L 185.371126 200.03386 
L 188.163065 195.145835 
L 190.955003 190.617524 
L 197.236866 180.206658 
L 198.632835 177.688583 
L 201.424774 172.758234 
L 202.820744 170.409433 
L 205.612682 165.627209 
L 205.961675 195.971085 
L 206.310667 274.264213 
L 207.008652 274.179573 
L 207.357644 274.05261 
L 207.706637 229.933375 
L 208.055629 161.247023 
L 211.19656 156.189705 
L 211.894545 154.750807 
L 212.59253 153.692791 
L 213.290514 152.550143 
L 213.639507 152.317371 
L 213.988499 151.915333 
L 214.686484 150.730349 
L 215.035476 150.243664 
L 215.384468 150.010906 
L 216.431445 148.148789 
L 217.827415 146.307852 
L 218.5254 144.826631 
L 218.874392 144.509227 
L 219.921369 143.028005 
L 220.270361 142.625954 
L 220.619354 141.864188 
L 220.968346 141.440982 
L 221.317338 140.700372 
L 221.666331 140.298321 
L 222.015323 139.600033 
L 222.364315 138.499695 
L 222.713308 138.055333 
L 223.0623 137.864885 
L 225.156254 135.939303 
L 225.854239 134.331112 
L 226.203231 133.929074 
L 226.552224 133.167295 
L 226.901216 132.701766 
L 227.948193 130.606903 
L 228.646178 129.400763 
L 228.99517 129.083359 
L 233.183079 122.925715 
L 234.579048 121.105921 
L 235.277033 120.301832 
L 236.32401 118.503206 
L 239.115949 114.800153 
L 239.813933 113.932585 
L 240.162926 113.572858 
L 240.86091 112.578321 
L 242.25688 111.075944 
L 242.605872 110.610415 
L 243.303857 109.38312 
L 243.652849 108.854112 
L 244.001842 108.938746 
L 244.699826 108.409738 
L 245.048819 107.796097 
L 245.397811 107.774929 
L 246.095796 106.653435 
L 246.79378 105.362662 
L 247.142773 104.897132 
L 247.840757 104.55856 
L 248.18975 104.029552 
L 248.538742 104.029552 
L 248.887735 103.458234 
L 249.236727 103.204308 
L 250.632696 101.448005 
L 250.981689 101.088277 
L 251.330681 101.067109 
L 251.679673 100.474623 
L 252.028666 100.136064 
L 252.377658 100.411145 
L 252.72665 100.326499 
L 253.773628 98.570196 
L 254.12262 98.252791 
L 254.471612 98.400916 
L 255.169597 98.083511 
L 255.518589 97.766107 
L 256.216574 96.89854 
L 256.565566 96.813893 
L 257.263551 96.052127 
L 257.612543 96.115606 
L 259.008513 94.253501 
L 259.357505 93.978407 
L 259.706498 94.740186 
L 260.05549 94.31698 
L 260.753475 92.899237 
L 261.451459 92.94156 
L 261.800452 93.343598 
L 262.847429 91.841221 
L 264.243398 91.650773 
L 265.290375 90.402323 
L 265.639368 90.275354 
L 265.98836 90.02144 
L 266.337352 89.936794 
L 267.035337 88.963425 
L 267.384329 88.963425 
L 267.733322 88.180491 
L 268.082314 87.884242 
L 268.431306 87.736117 
L 268.780299 87.397557 
L 269.129291 87.228277 
L 269.478284 87.185954 
L 269.827276 86.974351 
L 270.176268 86.614623 
L 270.525261 85.747056 
L 270.874253 85.958659 
L 271.223245 86.000982 
L 271.572238 85.725888 
L 271.92123 85.874013 
L 272.619215 84.942967 
L 272.968207 85.366173 
L 273.317199 85.0276 
L 273.666192 85.366173 
L 274.015184 85.260372 
L 274.364177 84.371636 
L 274.713169 84.498593 
L 275.411154 83.736827 
L 275.760146 83.990753 
L 276.109138 84.033064 
L 276.807123 83.694504 
L 277.156115 83.990753 
L 277.505108 83.77915 
L 277.8541 83.313621 
L 278.901077 83.461746 
L 279.250069 83.461746 
L 280.646039 82.932738 
L 280.995031 83.313621 
L 281.344024 83.059695 
L 281.693016 83.08085 
L 282.042008 82.065158 
L 282.739993 82.044003 
L 283.088985 81.853555 
L 283.437978 82.086326 
L 283.78697 81.874723 
L 284.135962 82.213282 
L 284.484955 81.8324 
L 284.833947 81.112944 
L 285.18294 81.028311 
L 285.531932 80.668583 
L 286.229917 80.922509 
L 286.578909 80.732061 
L 286.927901 80.668583 
L 287.276894 81.091789 
L 287.974878 80.583936 
L 288.323871 80.774384 
L 288.672863 80.435812 
L 289.370848 80.45698 
L 289.71984 80.62626 
L 290.068833 81.36687 
L 290.766817 80.774384 
L 291.11581 81.430349 
L 291.464802 81.578473 
L 291.813794 81.049466 
L 292.511779 79.779847 
L 292.860771 79.356641 
L 293.209764 79.822171 
L 293.558756 79.398964 
L 293.907748 79.674046 
L 294.256741 80.605104 
L 294.605733 80.710906 
L 295.65271 82.128636 
L 296.001703 81.409193 
L 296.350695 81.70543 
L 296.699687 81.641952 
L 297.04868 81.134112 
L 297.397672 81.451517 
L 298.444649 80.45698 
L 298.793641 80.753216 
L 299.142634 80.2877 
L 299.491626 80.583936 
L 300.189611 81.451517 
L 300.538603 81.684275 
L 300.887596 81.493827 
L 301.236588 81.493827 
L 302.283565 81.874723 
L 302.632557 82.319084 
L 302.98155 82.022835 
L 303.330542 82.361407 
L 303.679534 81.874723 
L 304.028527 82.107481 
L 304.377519 82.509532 
L 305.424496 82.509532 
L 305.773489 82.192127 
L 306.122481 82.446041 
L 306.471473 82.234438 
L 307.867443 83.77915 
L 308.565427 83.736827 
L 308.91442 83.884952 
L 309.263412 84.181188 
L 309.612404 83.800305 
L 309.961397 83.588702 
L 310.310389 83.631025 
L 310.659382 84.011908 
L 311.008374 84.562071 
L 311.357366 84.689041 
L 311.706359 84.985277 
L 312.055351 84.773674 
L 312.753336 85.408483 
L 313.800313 86.212585 
L 314.149305 86.720425 
L 314.498297 86.932028 
L 314.84729 87.461036 
L 315.196282 87.43988 
L 315.545274 87.630315 
L 315.894267 87.228277 
L 316.243259 87.016674 
L 316.592252 87.482204 
L 316.941244 87.588005 
L 317.290236 87.968888 
L 317.988221 88.392094 
L 318.686206 88.730654 
L 319.035198 89.238506 
L 319.38419 89.386631 
L 319.733183 89.704036 
L 320.082175 89.725191 
L 320.431167 89.301985 
L 320.78016 89.344308 
L 321.129152 90.106074 
L 321.478145 90.423478 
L 321.827137 90.910163 
L 322.176129 90.994809 
L 323.572099 92.306751 
L 323.921091 92.179781 
L 324.270083 92.518354 
L 324.619076 92.497186 
L 325.31706 93.555201 
L 325.666053 93.724494 
L 326.71303 95.205715 
L 327.411015 95.311517 
L 327.760007 95.650076 
L 328.457992 95.650076 
L 328.806984 95.967481 
L 329.155976 96.073282 
L 329.504969 96.581135 
L 329.853961 97.342901 
L 330.551946 98.273959 
L 331.249931 98.125835 
L 331.598923 98.718321 
L 331.947915 98.654842 
L 332.296908 99.035725 
L 332.994892 98.929924 
L 333.692877 100.199542 
L 334.390862 100.453468 
L 334.739854 100.411145 
L 335.437839 101.130601 
L 337.182801 103.077338 
L 337.531793 103.18314 
L 338.57877 104.283478 
L 338.927762 104.516249 
L 339.276755 104.579728 
L 340.672724 106.082104 
L 341.021716 106.907361 
L 341.719701 107.690295 
L 342.417686 108.282781 
L 342.766678 108.388583 
L 343.115671 108.727142 
L 343.464663 109.361952 
L 344.51164 110.12373 
L 345.209625 110.843173 
L 345.558617 111.181746 
L 345.907609 110.927819 
L 346.954587 113.001527 
L 348.350556 114.673196 
L 349.048541 115.900491 
L 349.397533 115.879323 
L 349.746525 116.090926 
L 350.44451 117.826074 
L 350.793502 118.164646 
L 351.142495 118.037677 
L 351.491487 118.524361 
L 351.840479 119.264972 
L 352.189472 119.730501 
L 352.538464 119.963272 
L 353.934434 122.502509 
L 354.283426 122.417863 
L 354.981411 123.179628 
L 355.330403 123.793282 
L 356.726372 125.168702 
L 357.075365 125.253349 
L 357.77335 125.972791 
L 358.122342 127.115453 
L 359.169319 129.01988 
L 360.565288 131.410992 
L 361.263273 132.215081 
L 361.612265 132.469008 
L 362.31025 133.696303 
L 362.659243 133.696303 
L 363.008235 133.929074 
L 364.055212 135.346804 
L 365.451181 137.187753 
L 366.149166 138.01301 
L 367.196143 139.663511 
L 367.545136 140.234842 
L 368.24312 141.864188 
L 368.941105 142.202748 
L 369.290097 142.774079 
L 369.988082 144.212977 
L 370.686067 145.186346 
L 371.035059 145.376794 
L 371.384051 145.694198 
L 373.129013 148.974046 
L 374.17599 150.603392 
L 374.873975 152.190415 
L 375.57196 153.12146 
L 376.269944 154.79313 
L 376.967929 155.195181 
L 377.316921 155.8723 
L 378.014906 156.697557 
L 378.712891 157.967176 
L 379.061883 158.1153 
L 379.410876 198.383359 
L 379.759868 273.375481 
L 380.457853 273.375481 
L 381.155837 161.839509 
L 381.853822 163.045649 
L 382.900799 164.950076 
L 383.598784 166.494776 
L 385.343746 169.139814 
L 387.786692 173.541155 
L 388.484677 174.599177 
L 390.229639 177.582781 
L 391.625608 180.354776 
L 392.323593 181.455115 
L 393.021577 182.51313 
L 393.37057 182.745894 
L 394.068555 183.909711 
L 395.115532 185.983419 
L 395.464524 186.448948 
L 396.162509 187.803206 
L 398.605455 192.014106 
L 399.652432 193.728092 
L 401.048402 195.949924 
L 402.444371 198.425682 
L 404.189333 201.895971 
L 405.585302 204.435207 
L 408.377241 209.196276 
L 410.471195 212.89933 
L 411.518172 214.592154 
L 413.263134 217.639237 
L 413.612126 226.843969 
L 413.961119 260.84858 
L 414.310111 279.004122 
L 414.659104 236.514228 
L 415.008096 220.263113 
L 418.149027 226.03988 
L 420.591974 229.721772 
L 421.638951 231.66852 
L 423.03492 234.250076 
L 424.779882 237.339482 
L 425.128874 237.424122 
L 425.477867 238.460976 
L 427.920813 242.650717 
L 432.108721 249.824062 
L 435.249653 254.754411 
L 443.625469 266.752305 
L 447.464385 271.93658 
L 449.209347 273.819847 
L 450.954309 275.195267 
L 452.69927 276.591847 
L 455.142217 278.538595 
L 457.934156 280.294901 
L 461.075087 281.987725 
L 462.471056 282.283969 
L 556.35 282.283969 
L 556.35 282.283969 
" clip-path="url(#pad3ed08f98)" style="fill: none; stroke: #ffae49; stroke-width: 1.5; stroke-linecap: square"/>
   </g>
   <g id="patch_3">
    <path d="M 54.15 284.4 
L 54.15 7.2 
" style="fill: none; stroke: #000000; stroke-width: 0.8; stroke-linejoin: miter; stroke-linecap: square"/>
   </g>
   <g id="patch_4">
    <path d="M 556.35 284.4 
L 556.35 7.2 
" style="fill: none; stroke: #000000; stroke-width: 0.8; stroke-linejoin: miter; stroke-linecap: square"/>
   </g>
   <g id="patch_5">
    <path d="M 54.15 284.4 
L 556.35 284.4 
" style="fill: none; stroke: #000000; stroke-width: 0.8; stroke-linejoin: miter; stroke-linecap: square"/>
   </g>
   <g id="patch_6">
    <path d="M 54.15 7.2 
L 556.35 7.2 
" style="fill: none; stroke: #000000; stroke-width: 0.8; stroke-linejoin: miter; stroke-linecap: square"/>
   </g>
   <g id="legend_1">
    <g id="patch_7">
     <path d="M 474.91875 29.878125 
L 549.35 29.878125 
Q 551.35 29.878125 551.35 27.878125 
L 551.35 14.2 
Q 551.35 12.2 549.35 12.2 
L 474.91875 12.2 
Q 472.91875 12.2 472.91875 14.2 
L 472.91875 27.878125 
Q 472.91875 29.878125 474.91875 29.878125 
z
" style="fill: #ffffff; opacity: 0.8; stroke: #cccccc; stroke-linejoin: miter"/>
    </g>
    <g id="line2d_33">
     <path d="M 476.91875 20.298437 
L 486.91875 20.298437 
L 496.91875 20.298437 
" style="fill: none; stroke: #ffae49; stroke-width: 1.5; stroke-linecap: square"/>
    </g>
    <g id="text_34">
     <!-- Summer -->
     <g transform="translate(504.91875 23.798437) scale(0.1 -0.1)">
      <defs>
       <path id="DejaVuSans-75" d="M 544 1381 
L 544 3500 
L 1119 3500 
L 1119 1403 
Q 1119 906 1312 657 
Q 1506 409 1894 409 
Q 2359 409 2629 706 
Q 2900 1003 2900 1516 
L 2900 3500 
L 3475 3500 
L 3475 0 
L 2900 0 
L 2900 538 
Q 2691 219 2414 64 
Q 2138 -91 1772 -91 
Q 1169 -91 856 284 
Q 544 659 544 1381 
z
M 1991 3584 
L 1991 3584 
z
" transform="scale(0.015625)"/>
      </defs>
      <use xlink:href="#DejaVuSans-53"/>
      <use xlink:href="#DejaVuSans-75" x="63.476562"/>
      <use xlink:href="#DejaVuSans-6d" x="126.855469"/>
      <use xlink:href="#DejaVuSans-6d" x="224.267578"/>
      <use xlink:href="#DejaVuSans-65" x="321.679688"/>
      <use xlink:href="#DejaVuSans-72" x="383.203125"/>
     </g>
    </g>
   </g>
  </g>
 </g>
 <defs>
  <clipPath id="pad3ed08f98">
   <rect x="54.15" y="7.2" width="502.2" height="277.2"/>
  </clipPath>
 </defs>
</svg>
