<?xml version="1.0" encoding="utf-8" standalone="no"?>
<!DOCTYPE svg PUBLIC "-//W3C//DTD SVG 1.1//EN"
  "http://www.w3.org/Graphics/SVG/1.1/DTD/svg11.dtd">
<svg xmlns:xlink="http://www.w3.org/1999/xlink" width="563.55pt" height="321.95625pt" viewBox="0 0 563.55 321.95625" xmlns="http://www.w3.org/2000/svg" version="1.1">
 <metadata>
  <rdf:RDF xmlns:dc="http://purl.org/dc/elements/1.1/" xmlns:cc="http://creativecommons.org/ns#" xmlns:rdf="http://www.w3.org/1999/02/22-rdf-syntax-ns#">
   <cc:Work>
    <dc:type rdf:resource="http://purl.org/dc/dcmitype/StillImage"/>
    <dc:date>2024-03-04T11:36:14.110891</dc:date>
    <dc:format>image/svg+xml</dc:format>
    <dc:creator>
     <cc:Agent>
      <dc:title>Matplotlib v3.8.2, https://matplotlib.org/</dc:title>
     </cc:Agent>
    </dc:creator>
   </cc:Work>
  </rdf:RDF>
 </metadata>
 <defs>
  <style type="text/css">*{stroke-linejoin: round; stroke-linecap: butt}</style>
 </defs>
 <g id="figure_1">
  <g id="patch_1">
   <path d="M 0 321.95625 
L 563.55 321.95625 
L 563.55 0 
L 0 0 
z
" style="fill: #ffffff"/>
  </g>
  <g id="axes_1">
   <g id="patch_2">
    <path d="M 54.15 284.4 
L 556.35 284.4 
L 556.35 7.2 
L 54.15 7.2 
z
" style="fill: #ffffff"/>
   </g>
   <g id="matplotlib.axis_1">
    <g id="xtick_1">
     <g id="line2d_1">
      <defs>
       <path id="md788c0aa4d" d="M 0 0 
L 0 3.5 
" style="stroke: #000000; stroke-width: 0.8"/>
      </defs>
      <g>
       <use xlink:href="#md788c0aa4d" x="54.15" y="284.4" style="stroke: #000000; stroke-width: 0.8"/>
      </g>
     </g>
     <g id="text_1">
      <!-- 0 -->
      <g transform="translate(50.96875 298.998438) scale(0.1 -0.1)">
       <defs>
        <path id="DejaVuSans-30" d="M 2034 4250 
Q 1547 4250 1301 3770 
Q 1056 3291 1056 2328 
Q 1056 1369 1301 889 
Q 1547 409 2034 409 
Q 2525 409 2770 889 
Q 3016 1369 3016 2328 
Q 3016 3291 2770 3770 
Q 2525 4250 2034 4250 
z
M 2034 4750 
Q 2819 4750 3233 4129 
Q 3647 3509 3647 2328 
Q 3647 1150 3233 529 
Q 2819 -91 2034 -91 
Q 1250 -91 836 529 
Q 422 1150 422 2328 
Q 422 3509 836 4129 
Q 1250 4750 2034 4750 
z
" transform="scale(0.015625)"/>
       </defs>
       <use xlink:href="#DejaVuSans-30"/>
      </g>
     </g>
    </g>
    <g id="xtick_2">
     <g id="line2d_2">
      <g>
       <use xlink:href="#md788c0aa4d" x="75.075" y="284.4" style="stroke: #000000; stroke-width: 0.8"/>
      </g>
     </g>
     <g id="text_2">
      <!-- 1 -->
      <g transform="translate(71.89375 298.998438) scale(0.1 -0.1)">
       <defs>
        <path id="DejaVuSans-31" d="M 794 531 
L 1825 531 
L 1825 4091 
L 703 3866 
L 703 4441 
L 1819 4666 
L 2450 4666 
L 2450 531 
L 3481 531 
L 3481 0 
L 794 0 
L 794 531 
z
" transform="scale(0.015625)"/>
       </defs>
       <use xlink:href="#DejaVuSans-31"/>
      </g>
     </g>
    </g>
    <g id="xtick_3">
     <g id="line2d_3">
      <g>
       <use xlink:href="#md788c0aa4d" x="96" y="284.4" style="stroke: #000000; stroke-width: 0.8"/>
      </g>
     </g>
     <g id="text_3">
      <!-- 2 -->
      <g transform="translate(92.81875 298.998438) scale(0.1 -0.1)">
       <defs>
        <path id="DejaVuSans-32" d="M 1228 531 
L 3431 531 
L 3431 0 
L 469 0 
L 469 531 
Q 828 903 1448 1529 
Q 2069 2156 2228 2338 
Q 2531 2678 2651 2914 
Q 2772 3150 2772 3378 
Q 2772 3750 2511 3984 
Q 2250 4219 1831 4219 
Q 1534 4219 1204 4116 
Q 875 4013 500 3803 
L 500 4441 
Q 881 4594 1212 4672 
Q 1544 4750 1819 4750 
Q 2544 4750 2975 4387 
Q 3406 4025 3406 3419 
Q 3406 3131 3298 2873 
Q 3191 2616 2906 2266 
Q 2828 2175 2409 1742 
Q 1991 1309 1228 531 
z
" transform="scale(0.015625)"/>
       </defs>
       <use xlink:href="#DejaVuSans-32"/>
      </g>
     </g>
    </g>
    <g id="xtick_4">
     <g id="line2d_4">
      <g>
       <use xlink:href="#md788c0aa4d" x="116.925" y="284.4" style="stroke: #000000; stroke-width: 0.8"/>
      </g>
     </g>
     <g id="text_4">
      <!-- 3 -->
      <g transform="translate(113.74375 298.998438) scale(0.1 -0.1)">
       <defs>
        <path id="DejaVuSans-33" d="M 2597 2516 
Q 3050 2419 3304 2112 
Q 3559 1806 3559 1356 
Q 3559 666 3084 287 
Q 2609 -91 1734 -91 
Q 1441 -91 1130 -33 
Q 819 25 488 141 
L 488 750 
Q 750 597 1062 519 
Q 1375 441 1716 441 
Q 2309 441 2620 675 
Q 2931 909 2931 1356 
Q 2931 1769 2642 2001 
Q 2353 2234 1838 2234 
L 1294 2234 
L 1294 2753 
L 1863 2753 
Q 2328 2753 2575 2939 
Q 2822 3125 2822 3475 
Q 2822 3834 2567 4026 
Q 2313 4219 1838 4219 
Q 1578 4219 1281 4162 
Q 984 4106 628 3988 
L 628 4550 
Q 988 4650 1302 4700 
Q 1616 4750 1894 4750 
Q 2613 4750 3031 4423 
Q 3450 4097 3450 3541 
Q 3450 3153 3228 2886 
Q 3006 2619 2597 2516 
z
" transform="scale(0.015625)"/>
       </defs>
       <use xlink:href="#DejaVuSans-33"/>
      </g>
     </g>
    </g>
    <g id="xtick_5">
     <g id="line2d_5">
      <g>
       <use xlink:href="#md788c0aa4d" x="137.85" y="284.4" style="stroke: #000000; stroke-width: 0.8"/>
      </g>
     </g>
     <g id="text_5">
      <!-- 4 -->
      <g transform="translate(134.66875 298.998438) scale(0.1 -0.1)">
       <defs>
        <path id="DejaVuSans-34" d="M 2419 4116 
L 825 1625 
L 2419 1625 
L 2419 4116 
z
M 2253 4666 
L 3047 4666 
L 3047 1625 
L 3713 1625 
L 3713 1100 
L 3047 1100 
L 3047 0 
L 2419 0 
L 2419 1100 
L 313 1100 
L 313 1709 
L 2253 4666 
z
" transform="scale(0.015625)"/>
       </defs>
       <use xlink:href="#DejaVuSans-34"/>
      </g>
     </g>
    </g>
    <g id="xtick_6">
     <g id="line2d_6">
      <g>
       <use xlink:href="#md788c0aa4d" x="158.775" y="284.4" style="stroke: #000000; stroke-width: 0.8"/>
      </g>
     </g>
     <g id="text_6">
      <!-- 5 -->
      <g transform="translate(155.59375 298.998438) scale(0.1 -0.1)">
       <defs>
        <path id="DejaVuSans-35" d="M 691 4666 
L 3169 4666 
L 3169 4134 
L 1269 4134 
L 1269 2991 
Q 1406 3038 1543 3061 
Q 1681 3084 1819 3084 
Q 2600 3084 3056 2656 
Q 3513 2228 3513 1497 
Q 3513 744 3044 326 
Q 2575 -91 1722 -91 
Q 1428 -91 1123 -41 
Q 819 9 494 109 
L 494 744 
Q 775 591 1075 516 
Q 1375 441 1709 441 
Q 2250 441 2565 725 
Q 2881 1009 2881 1497 
Q 2881 1984 2565 2268 
Q 2250 2553 1709 2553 
Q 1456 2553 1204 2497 
Q 953 2441 691 2322 
L 691 4666 
z
" transform="scale(0.015625)"/>
       </defs>
       <use xlink:href="#DejaVuSans-35"/>
      </g>
     </g>
    </g>
    <g id="xtick_7">
     <g id="line2d_7">
      <g>
       <use xlink:href="#md788c0aa4d" x="179.7" y="284.4" style="stroke: #000000; stroke-width: 0.8"/>
      </g>
     </g>
     <g id="text_7">
      <!-- 6 -->
      <g transform="translate(176.51875 298.998438) scale(0.1 -0.1)">
       <defs>
        <path id="DejaVuSans-36" d="M 2113 2584 
Q 1688 2584 1439 2293 
Q 1191 2003 1191 1497 
Q 1191 994 1439 701 
Q 1688 409 2113 409 
Q 2538 409 2786 701 
Q 3034 994 3034 1497 
Q 3034 2003 2786 2293 
Q 2538 2584 2113 2584 
z
M 3366 4563 
L 3366 3988 
Q 3128 4100 2886 4159 
Q 2644 4219 2406 4219 
Q 1781 4219 1451 3797 
Q 1122 3375 1075 2522 
Q 1259 2794 1537 2939 
Q 1816 3084 2150 3084 
Q 2853 3084 3261 2657 
Q 3669 2231 3669 1497 
Q 3669 778 3244 343 
Q 2819 -91 2113 -91 
Q 1303 -91 875 529 
Q 447 1150 447 2328 
Q 447 3434 972 4092 
Q 1497 4750 2381 4750 
Q 2619 4750 2861 4703 
Q 3103 4656 3366 4563 
z
" transform="scale(0.015625)"/>
       </defs>
       <use xlink:href="#DejaVuSans-36"/>
      </g>
     </g>
    </g>
    <g id="xtick_8">
     <g id="line2d_8">
      <g>
       <use xlink:href="#md788c0aa4d" x="200.625" y="284.4" style="stroke: #000000; stroke-width: 0.8"/>
      </g>
     </g>
     <g id="text_8">
      <!-- 7 -->
      <g transform="translate(197.44375 298.998438) scale(0.1 -0.1)">
       <defs>
        <path id="DejaVuSans-37" d="M 525 4666 
L 3525 4666 
L 3525 4397 
L 1831 0 
L 1172 0 
L 2766 4134 
L 525 4134 
L 525 4666 
z
" transform="scale(0.015625)"/>
       </defs>
       <use xlink:href="#DejaVuSans-37"/>
      </g>
     </g>
    </g>
    <g id="xtick_9">
     <g id="line2d_9">
      <g>
       <use xlink:href="#md788c0aa4d" x="221.55" y="284.4" style="stroke: #000000; stroke-width: 0.8"/>
      </g>
     </g>
     <g id="text_9">
      <!-- 8 -->
      <g transform="translate(218.36875 298.998438) scale(0.1 -0.1)">
       <defs>
        <path id="DejaVuSans-38" d="M 2034 2216 
Q 1584 2216 1326 1975 
Q 1069 1734 1069 1313 
Q 1069 891 1326 650 
Q 1584 409 2034 409 
Q 2484 409 2743 651 
Q 3003 894 3003 1313 
Q 3003 1734 2745 1975 
Q 2488 2216 2034 2216 
z
M 1403 2484 
Q 997 2584 770 2862 
Q 544 3141 544 3541 
Q 544 4100 942 4425 
Q 1341 4750 2034 4750 
Q 2731 4750 3128 4425 
Q 3525 4100 3525 3541 
Q 3525 3141 3298 2862 
Q 3072 2584 2669 2484 
Q 3125 2378 3379 2068 
Q 3634 1759 3634 1313 
Q 3634 634 3220 271 
Q 2806 -91 2034 -91 
Q 1263 -91 848 271 
Q 434 634 434 1313 
Q 434 1759 690 2068 
Q 947 2378 1403 2484 
z
M 1172 3481 
Q 1172 3119 1398 2916 
Q 1625 2713 2034 2713 
Q 2441 2713 2670 2916 
Q 2900 3119 2900 3481 
Q 2900 3844 2670 4047 
Q 2441 4250 2034 4250 
Q 1625 4250 1398 4047 
Q 1172 3844 1172 3481 
z
" transform="scale(0.015625)"/>
       </defs>
       <use xlink:href="#DejaVuSans-38"/>
      </g>
     </g>
    </g>
    <g id="xtick_10">
     <g id="line2d_10">
      <g>
       <use xlink:href="#md788c0aa4d" x="242.475" y="284.4" style="stroke: #000000; stroke-width: 0.8"/>
      </g>
     </g>
     <g id="text_10">
      <!-- 9 -->
      <g transform="translate(239.29375 298.998438) scale(0.1 -0.1)">
       <defs>
        <path id="DejaVuSans-39" d="M 703 97 
L 703 672 
Q 941 559 1184 500 
Q 1428 441 1663 441 
Q 2288 441 2617 861 
Q 2947 1281 2994 2138 
Q 2813 1869 2534 1725 
Q 2256 1581 1919 1581 
Q 1219 1581 811 2004 
Q 403 2428 403 3163 
Q 403 3881 828 4315 
Q 1253 4750 1959 4750 
Q 2769 4750 3195 4129 
Q 3622 3509 3622 2328 
Q 3622 1225 3098 567 
Q 2575 -91 1691 -91 
Q 1453 -91 1209 -44 
Q 966 3 703 97 
z
M 1959 2075 
Q 2384 2075 2632 2365 
Q 2881 2656 2881 3163 
Q 2881 3666 2632 3958 
Q 2384 4250 1959 4250 
Q 1534 4250 1286 3958 
Q 1038 3666 1038 3163 
Q 1038 2656 1286 2365 
Q 1534 2075 1959 2075 
z
" transform="scale(0.015625)"/>
       </defs>
       <use xlink:href="#DejaVuSans-39"/>
      </g>
     </g>
    </g>
    <g id="xtick_11">
     <g id="line2d_11">
      <g>
       <use xlink:href="#md788c0aa4d" x="263.4" y="284.4" style="stroke: #000000; stroke-width: 0.8"/>
      </g>
     </g>
     <g id="text_11">
      <!-- 10 -->
      <g transform="translate(257.0375 298.998438) scale(0.1 -0.1)">
       <use xlink:href="#DejaVuSans-31"/>
       <use xlink:href="#DejaVuSans-30" x="63.623047"/>
      </g>
     </g>
    </g>
    <g id="xtick_12">
     <g id="line2d_12">
      <g>
       <use xlink:href="#md788c0aa4d" x="284.325" y="284.4" style="stroke: #000000; stroke-width: 0.8"/>
      </g>
     </g>
     <g id="text_12">
      <!-- 11 -->
      <g transform="translate(277.9625 298.998438) scale(0.1 -0.1)">
       <use xlink:href="#DejaVuSans-31"/>
       <use xlink:href="#DejaVuSans-31" x="63.623047"/>
      </g>
     </g>
    </g>
    <g id="xtick_13">
     <g id="line2d_13">
      <g>
       <use xlink:href="#md788c0aa4d" x="305.25" y="284.4" style="stroke: #000000; stroke-width: 0.8"/>
      </g>
     </g>
     <g id="text_13">
      <!-- 12 -->
      <g transform="translate(298.8875 298.998438) scale(0.1 -0.1)">
       <use xlink:href="#DejaVuSans-31"/>
       <use xlink:href="#DejaVuSans-32" x="63.623047"/>
      </g>
     </g>
    </g>
    <g id="xtick_14">
     <g id="line2d_14">
      <g>
       <use xlink:href="#md788c0aa4d" x="326.175" y="284.4" style="stroke: #000000; stroke-width: 0.8"/>
      </g>
     </g>
     <g id="text_14">
      <!-- 13 -->
      <g transform="translate(319.8125 298.998438) scale(0.1 -0.1)">
       <use xlink:href="#DejaVuSans-31"/>
       <use xlink:href="#DejaVuSans-33" x="63.623047"/>
      </g>
     </g>
    </g>
    <g id="xtick_15">
     <g id="line2d_15">
      <g>
       <use xlink:href="#md788c0aa4d" x="347.1" y="284.4" style="stroke: #000000; stroke-width: 0.8"/>
      </g>
     </g>
     <g id="text_15">
      <!-- 14 -->
      <g transform="translate(340.7375 298.998438) scale(0.1 -0.1)">
       <use xlink:href="#DejaVuSans-31"/>
       <use xlink:href="#DejaVuSans-34" x="63.623047"/>
      </g>
     </g>
    </g>
    <g id="xtick_16">
     <g id="line2d_16">
      <g>
       <use xlink:href="#md788c0aa4d" x="368.025" y="284.4" style="stroke: #000000; stroke-width: 0.8"/>
      </g>
     </g>
     <g id="text_16">
      <!-- 15 -->
      <g transform="translate(361.6625 298.998438) scale(0.1 -0.1)">
       <use xlink:href="#DejaVuSans-31"/>
       <use xlink:href="#DejaVuSans-35" x="63.623047"/>
      </g>
     </g>
    </g>
    <g id="xtick_17">
     <g id="line2d_17">
      <g>
       <use xlink:href="#md788c0aa4d" x="388.95" y="284.4" style="stroke: #000000; stroke-width: 0.8"/>
      </g>
     </g>
     <g id="text_17">
      <!-- 16 -->
      <g transform="translate(382.5875 298.998438) scale(0.1 -0.1)">
       <use xlink:href="#DejaVuSans-31"/>
       <use xlink:href="#DejaVuSans-36" x="63.623047"/>
      </g>
     </g>
    </g>
    <g id="xtick_18">
     <g id="line2d_18">
      <g>
       <use xlink:href="#md788c0aa4d" x="409.875" y="284.4" style="stroke: #000000; stroke-width: 0.8"/>
      </g>
     </g>
     <g id="text_18">
      <!-- 17 -->
      <g transform="translate(403.5125 298.998438) scale(0.1 -0.1)">
       <use xlink:href="#DejaVuSans-31"/>
       <use xlink:href="#DejaVuSans-37" x="63.623047"/>
      </g>
     </g>
    </g>
    <g id="xtick_19">
     <g id="line2d_19">
      <g>
       <use xlink:href="#md788c0aa4d" x="430.8" y="284.4" style="stroke: #000000; stroke-width: 0.8"/>
      </g>
     </g>
     <g id="text_19">
      <!-- 18 -->
      <g transform="translate(424.4375 298.998438) scale(0.1 -0.1)">
       <use xlink:href="#DejaVuSans-31"/>
       <use xlink:href="#DejaVuSans-38" x="63.623047"/>
      </g>
     </g>
    </g>
    <g id="xtick_20">
     <g id="line2d_20">
      <g>
       <use xlink:href="#md788c0aa4d" x="451.725" y="284.4" style="stroke: #000000; stroke-width: 0.8"/>
      </g>
     </g>
     <g id="text_20">
      <!-- 19 -->
      <g transform="translate(445.3625 298.998438) scale(0.1 -0.1)">
       <use xlink:href="#DejaVuSans-31"/>
       <use xlink:href="#DejaVuSans-39" x="63.623047"/>
      </g>
     </g>
    </g>
    <g id="xtick_21">
     <g id="line2d_21">
      <g>
       <use xlink:href="#md788c0aa4d" x="472.65" y="284.4" style="stroke: #000000; stroke-width: 0.8"/>
      </g>
     </g>
     <g id="text_21">
      <!-- 20 -->
      <g transform="translate(466.2875 298.998438) scale(0.1 -0.1)">
       <use xlink:href="#DejaVuSans-32"/>
       <use xlink:href="#DejaVuSans-30" x="63.623047"/>
      </g>
     </g>
    </g>
    <g id="xtick_22">
     <g id="line2d_22">
      <g>
       <use xlink:href="#md788c0aa4d" x="493.575" y="284.4" style="stroke: #000000; stroke-width: 0.8"/>
      </g>
     </g>
     <g id="text_22">
      <!-- 21 -->
      <g transform="translate(487.2125 298.998438) scale(0.1 -0.1)">
       <use xlink:href="#DejaVuSans-32"/>
       <use xlink:href="#DejaVuSans-31" x="63.623047"/>
      </g>
     </g>
    </g>
    <g id="xtick_23">
     <g id="line2d_23">
      <g>
       <use xlink:href="#md788c0aa4d" x="514.5" y="284.4" style="stroke: #000000; stroke-width: 0.8"/>
      </g>
     </g>
     <g id="text_23">
      <!-- 22 -->
      <g transform="translate(508.1375 298.998438) scale(0.1 -0.1)">
       <use xlink:href="#DejaVuSans-32"/>
       <use xlink:href="#DejaVuSans-32" x="63.623047"/>
      </g>
     </g>
    </g>
    <g id="xtick_24">
     <g id="line2d_24">
      <g>
       <use xlink:href="#md788c0aa4d" x="535.425" y="284.4" style="stroke: #000000; stroke-width: 0.8"/>
      </g>
     </g>
     <g id="text_24">
      <!-- 23 -->
      <g transform="translate(529.0625 298.998438) scale(0.1 -0.1)">
       <use xlink:href="#DejaVuSans-32"/>
       <use xlink:href="#DejaVuSans-33" x="63.623047"/>
      </g>
     </g>
    </g>
    <g id="text_25">
     <!-- Time of the day -->
     <g transform="translate(266.026563 312.676562) scale(0.1 -0.1)">
      <defs>
       <path id="DejaVuSans-54" d="M -19 4666 
L 3928 4666 
L 3928 4134 
L 2272 4134 
L 2272 0 
L 1638 0 
L 1638 4134 
L -19 4134 
L -19 4666 
z
" transform="scale(0.015625)"/>
       <path id="DejaVuSans-69" d="M 603 3500 
L 1178 3500 
L 1178 0 
L 603 0 
L 603 3500 
z
M 603 4863 
L 1178 4863 
L 1178 4134 
L 603 4134 
L 603 4863 
z
" transform="scale(0.015625)"/>
       <path id="DejaVuSans-6d" d="M 3328 2828 
Q 3544 3216 3844 3400 
Q 4144 3584 4550 3584 
Q 5097 3584 5394 3201 
Q 5691 2819 5691 2113 
L 5691 0 
L 5113 0 
L 5113 2094 
Q 5113 2597 4934 2840 
Q 4756 3084 4391 3084 
Q 3944 3084 3684 2787 
Q 3425 2491 3425 1978 
L 3425 0 
L 2847 0 
L 2847 2094 
Q 2847 2600 2669 2842 
Q 2491 3084 2119 3084 
Q 1678 3084 1418 2786 
Q 1159 2488 1159 1978 
L 1159 0 
L 581 0 
L 581 3500 
L 1159 3500 
L 1159 2956 
Q 1356 3278 1631 3431 
Q 1906 3584 2284 3584 
Q 2666 3584 2933 3390 
Q 3200 3197 3328 2828 
z
" transform="scale(0.015625)"/>
       <path id="DejaVuSans-65" d="M 3597 1894 
L 3597 1613 
L 953 1613 
Q 991 1019 1311 708 
Q 1631 397 2203 397 
Q 2534 397 2845 478 
Q 3156 559 3463 722 
L 3463 178 
Q 3153 47 2828 -22 
Q 2503 -91 2169 -91 
Q 1331 -91 842 396 
Q 353 884 353 1716 
Q 353 2575 817 3079 
Q 1281 3584 2069 3584 
Q 2775 3584 3186 3129 
Q 3597 2675 3597 1894 
z
M 3022 2063 
Q 3016 2534 2758 2815 
Q 2500 3097 2075 3097 
Q 1594 3097 1305 2825 
Q 1016 2553 972 2059 
L 3022 2063 
z
" transform="scale(0.015625)"/>
       <path id="DejaVuSans-20" transform="scale(0.015625)"/>
       <path id="DejaVuSans-6f" d="M 1959 3097 
Q 1497 3097 1228 2736 
Q 959 2375 959 1747 
Q 959 1119 1226 758 
Q 1494 397 1959 397 
Q 2419 397 2687 759 
Q 2956 1122 2956 1747 
Q 2956 2369 2687 2733 
Q 2419 3097 1959 3097 
z
M 1959 3584 
Q 2709 3584 3137 3096 
Q 3566 2609 3566 1747 
Q 3566 888 3137 398 
Q 2709 -91 1959 -91 
Q 1206 -91 779 398 
Q 353 888 353 1747 
Q 353 2609 779 3096 
Q 1206 3584 1959 3584 
z
" transform="scale(0.015625)"/>
       <path id="DejaVuSans-66" d="M 2375 4863 
L 2375 4384 
L 1825 4384 
Q 1516 4384 1395 4259 
Q 1275 4134 1275 3809 
L 1275 3500 
L 2222 3500 
L 2222 3053 
L 1275 3053 
L 1275 0 
L 697 0 
L 697 3053 
L 147 3053 
L 147 3500 
L 697 3500 
L 697 3744 
Q 697 4328 969 4595 
Q 1241 4863 1831 4863 
L 2375 4863 
z
" transform="scale(0.015625)"/>
       <path id="DejaVuSans-74" d="M 1172 4494 
L 1172 3500 
L 2356 3500 
L 2356 3053 
L 1172 3053 
L 1172 1153 
Q 1172 725 1289 603 
Q 1406 481 1766 481 
L 2356 481 
L 2356 0 
L 1766 0 
Q 1100 0 847 248 
Q 594 497 594 1153 
L 594 3053 
L 172 3053 
L 172 3500 
L 594 3500 
L 594 4494 
L 1172 4494 
z
" transform="scale(0.015625)"/>
       <path id="DejaVuSans-68" d="M 3513 2113 
L 3513 0 
L 2938 0 
L 2938 2094 
Q 2938 2591 2744 2837 
Q 2550 3084 2163 3084 
Q 1697 3084 1428 2787 
Q 1159 2491 1159 1978 
L 1159 0 
L 581 0 
L 581 4863 
L 1159 4863 
L 1159 2956 
Q 1366 3272 1645 3428 
Q 1925 3584 2291 3584 
Q 2894 3584 3203 3211 
Q 3513 2838 3513 2113 
z
" transform="scale(0.015625)"/>
       <path id="DejaVuSans-64" d="M 2906 2969 
L 2906 4863 
L 3481 4863 
L 3481 0 
L 2906 0 
L 2906 525 
Q 2725 213 2448 61 
Q 2172 -91 1784 -91 
Q 1150 -91 751 415 
Q 353 922 353 1747 
Q 353 2572 751 3078 
Q 1150 3584 1784 3584 
Q 2172 3584 2448 3432 
Q 2725 3281 2906 2969 
z
M 947 1747 
Q 947 1113 1208 752 
Q 1469 391 1925 391 
Q 2381 391 2643 752 
Q 2906 1113 2906 1747 
Q 2906 2381 2643 2742 
Q 2381 3103 1925 3103 
Q 1469 3103 1208 2742 
Q 947 2381 947 1747 
z
" transform="scale(0.015625)"/>
       <path id="DejaVuSans-61" d="M 2194 1759 
Q 1497 1759 1228 1600 
Q 959 1441 959 1056 
Q 959 750 1161 570 
Q 1363 391 1709 391 
Q 2188 391 2477 730 
Q 2766 1069 2766 1631 
L 2766 1759 
L 2194 1759 
z
M 3341 1997 
L 3341 0 
L 2766 0 
L 2766 531 
Q 2569 213 2275 61 
Q 1981 -91 1556 -91 
Q 1019 -91 701 211 
Q 384 513 384 1019 
Q 384 1609 779 1909 
Q 1175 2209 1959 2209 
L 2766 2209 
L 2766 2266 
Q 2766 2663 2505 2880 
Q 2244 3097 1772 3097 
Q 1472 3097 1187 3025 
Q 903 2953 641 2809 
L 641 3341 
Q 956 3463 1253 3523 
Q 1550 3584 1831 3584 
Q 2591 3584 2966 3190 
Q 3341 2797 3341 1997 
z
" transform="scale(0.015625)"/>
       <path id="DejaVuSans-79" d="M 2059 -325 
Q 1816 -950 1584 -1140 
Q 1353 -1331 966 -1331 
L 506 -1331 
L 506 -850 
L 844 -850 
Q 1081 -850 1212 -737 
Q 1344 -625 1503 -206 
L 1606 56 
L 191 3500 
L 800 3500 
L 1894 763 
L 2988 3500 
L 3597 3500 
L 2059 -325 
z
" transform="scale(0.015625)"/>
      </defs>
      <use xlink:href="#DejaVuSans-54"/>
      <use xlink:href="#DejaVuSans-69" x="57.958984"/>
      <use xlink:href="#DejaVuSans-6d" x="85.742188"/>
      <use xlink:href="#DejaVuSans-65" x="183.154297"/>
      <use xlink:href="#DejaVuSans-20" x="244.677734"/>
      <use xlink:href="#DejaVuSans-6f" x="276.464844"/>
      <use xlink:href="#DejaVuSans-66" x="337.646484"/>
      <use xlink:href="#DejaVuSans-20" x="372.851562"/>
      <use xlink:href="#DejaVuSans-74" x="404.638672"/>
      <use xlink:href="#DejaVuSans-68" x="443.847656"/>
      <use xlink:href="#DejaVuSans-65" x="507.226562"/>
      <use xlink:href="#DejaVuSans-20" x="568.75"/>
      <use xlink:href="#DejaVuSans-64" x="600.537109"/>
      <use xlink:href="#DejaVuSans-61" x="664.013672"/>
      <use xlink:href="#DejaVuSans-79" x="725.292969"/>
     </g>
    </g>
   </g>
   <g id="matplotlib.axis_2">
    <g id="ytick_1">
     <g id="line2d_25">
      <defs>
       <path id="m2434c89cbe" d="M 0 0 
L -3.5 0 
" style="stroke: #000000; stroke-width: 0.8"/>
      </defs>
      <g>
       <use xlink:href="#m2434c89cbe" x="54.15" y="282.283969" style="stroke: #000000; stroke-width: 0.8"/>
      </g>
     </g>
     <g id="text_26">
      <!-- 0 -->
      <g transform="translate(40.7875 286.083188) scale(0.1 -0.1)">
       <use xlink:href="#DejaVuSans-30"/>
      </g>
     </g>
    </g>
    <g id="ytick_2">
     <g id="line2d_26">
      <g>
       <use xlink:href="#m2434c89cbe" x="54.15" y="239.963359" style="stroke: #000000; stroke-width: 0.8"/>
      </g>
     </g>
     <g id="text_27">
      <!-- 200 -->
      <g transform="translate(28.0625 243.762578) scale(0.1 -0.1)">
       <use xlink:href="#DejaVuSans-32"/>
       <use xlink:href="#DejaVuSans-30" x="63.623047"/>
       <use xlink:href="#DejaVuSans-30" x="127.246094"/>
      </g>
     </g>
    </g>
    <g id="ytick_3">
     <g id="line2d_27">
      <g>
       <use xlink:href="#m2434c89cbe" x="54.15" y="197.642748" style="stroke: #000000; stroke-width: 0.8"/>
      </g>
     </g>
     <g id="text_28">
      <!-- 400 -->
      <g transform="translate(28.0625 201.441967) scale(0.1 -0.1)">
       <use xlink:href="#DejaVuSans-34"/>
       <use xlink:href="#DejaVuSans-30" x="63.623047"/>
       <use xlink:href="#DejaVuSans-30" x="127.246094"/>
      </g>
     </g>
    </g>
    <g id="ytick_4">
     <g id="line2d_28">
      <g>
       <use xlink:href="#m2434c89cbe" x="54.15" y="155.322137" style="stroke: #000000; stroke-width: 0.8"/>
      </g>
     </g>
     <g id="text_29">
      <!-- 600 -->
      <g transform="translate(28.0625 159.121356) scale(0.1 -0.1)">
       <use xlink:href="#DejaVuSans-36"/>
       <use xlink:href="#DejaVuSans-30" x="63.623047"/>
       <use xlink:href="#DejaVuSans-30" x="127.246094"/>
      </g>
     </g>
    </g>
    <g id="ytick_5">
     <g id="line2d_29">
      <g>
       <use xlink:href="#m2434c89cbe" x="54.15" y="113.001527" style="stroke: #000000; stroke-width: 0.8"/>
      </g>
     </g>
     <g id="text_30">
      <!-- 800 -->
      <g transform="translate(28.0625 116.800745) scale(0.1 -0.1)">
       <use xlink:href="#DejaVuSans-38"/>
       <use xlink:href="#DejaVuSans-30" x="63.623047"/>
       <use xlink:href="#DejaVuSans-30" x="127.246094"/>
      </g>
     </g>
    </g>
    <g id="ytick_6">
     <g id="line2d_30">
      <g>
       <use xlink:href="#m2434c89cbe" x="54.15" y="70.680916" style="stroke: #000000; stroke-width: 0.8"/>
      </g>
     </g>
     <g id="text_31">
      <!-- 1000 -->
      <g transform="translate(21.7 74.480135) scale(0.1 -0.1)">
       <use xlink:href="#DejaVuSans-31"/>
       <use xlink:href="#DejaVuSans-30" x="63.623047"/>
       <use xlink:href="#DejaVuSans-30" x="127.246094"/>
       <use xlink:href="#DejaVuSans-30" x="190.869141"/>
      </g>
     </g>
    </g>
    <g id="ytick_7">
     <g id="line2d_31">
      <g>
       <use xlink:href="#m2434c89cbe" x="54.15" y="28.360305" style="stroke: #000000; stroke-width: 0.8"/>
      </g>
     </g>
     <g id="text_32">
      <!-- 1200 -->
      <g transform="translate(21.7 32.159524) scale(0.1 -0.1)">
       <use xlink:href="#DejaVuSans-31"/>
       <use xlink:href="#DejaVuSans-32" x="63.623047"/>
       <use xlink:href="#DejaVuSans-30" x="127.246094"/>
       <use xlink:href="#DejaVuSans-30" x="190.869141"/>
      </g>
     </g>
    </g>
    <g id="text_33">
     <!-- Solar irradiance [W/m$^2$] -->
     <g transform="translate(15.620312 204.75) rotate(-90) scale(0.1 -0.1)">
      <defs>
       <path id="DejaVuSans-53" d="M 3425 4513 
L 3425 3897 
Q 3066 4069 2747 4153 
Q 2428 4238 2131 4238 
Q 1616 4238 1336 4038 
Q 1056 3838 1056 3469 
Q 1056 3159 1242 3001 
Q 1428 2844 1947 2747 
L 2328 2669 
Q 3034 2534 3370 2195 
Q 3706 1856 3706 1288 
Q 3706 609 3251 259 
Q 2797 -91 1919 -91 
Q 1588 -91 1214 -16 
Q 841 59 441 206 
L 441 856 
Q 825 641 1194 531 
Q 1563 422 1919 422 
Q 2459 422 2753 634 
Q 3047 847 3047 1241 
Q 3047 1584 2836 1778 
Q 2625 1972 2144 2069 
L 1759 2144 
Q 1053 2284 737 2584 
Q 422 2884 422 3419 
Q 422 4038 858 4394 
Q 1294 4750 2059 4750 
Q 2388 4750 2728 4690 
Q 3069 4631 3425 4513 
z
" transform="scale(0.015625)"/>
       <path id="DejaVuSans-6c" d="M 603 4863 
L 1178 4863 
L 1178 0 
L 603 0 
L 603 4863 
z
" transform="scale(0.015625)"/>
       <path id="DejaVuSans-72" d="M 2631 2963 
Q 2534 3019 2420 3045 
Q 2306 3072 2169 3072 
Q 1681 3072 1420 2755 
Q 1159 2438 1159 1844 
L 1159 0 
L 581 0 
L 581 3500 
L 1159 3500 
L 1159 2956 
Q 1341 3275 1631 3429 
Q 1922 3584 2338 3584 
Q 2397 3584 2469 3576 
Q 2541 3569 2628 3553 
L 2631 2963 
z
" transform="scale(0.015625)"/>
       <path id="DejaVuSans-6e" d="M 3513 2113 
L 3513 0 
L 2938 0 
L 2938 2094 
Q 2938 2591 2744 2837 
Q 2550 3084 2163 3084 
Q 1697 3084 1428 2787 
Q 1159 2491 1159 1978 
L 1159 0 
L 581 0 
L 581 3500 
L 1159 3500 
L 1159 2956 
Q 1366 3272 1645 3428 
Q 1925 3584 2291 3584 
Q 2894 3584 3203 3211 
Q 3513 2838 3513 2113 
z
" transform="scale(0.015625)"/>
       <path id="DejaVuSans-63" d="M 3122 3366 
L 3122 2828 
Q 2878 2963 2633 3030 
Q 2388 3097 2138 3097 
Q 1578 3097 1268 2742 
Q 959 2388 959 1747 
Q 959 1106 1268 751 
Q 1578 397 2138 397 
Q 2388 397 2633 464 
Q 2878 531 3122 666 
L 3122 134 
Q 2881 22 2623 -34 
Q 2366 -91 2075 -91 
Q 1284 -91 818 406 
Q 353 903 353 1747 
Q 353 2603 823 3093 
Q 1294 3584 2113 3584 
Q 2378 3584 2631 3529 
Q 2884 3475 3122 3366 
z
" transform="scale(0.015625)"/>
       <path id="DejaVuSans-5b" d="M 550 4863 
L 1875 4863 
L 1875 4416 
L 1125 4416 
L 1125 -397 
L 1875 -397 
L 1875 -844 
L 550 -844 
L 550 4863 
z
" transform="scale(0.015625)"/>
       <path id="DejaVuSans-57" d="M 213 4666 
L 850 4666 
L 1831 722 
L 2809 4666 
L 3519 4666 
L 4500 722 
L 5478 4666 
L 6119 4666 
L 4947 0 
L 4153 0 
L 3169 4050 
L 2175 0 
L 1381 0 
L 213 4666 
z
" transform="scale(0.015625)"/>
       <path id="DejaVuSans-2f" d="M 1625 4666 
L 2156 4666 
L 531 -594 
L 0 -594 
L 1625 4666 
z
" transform="scale(0.015625)"/>
       <path id="DejaVuSans-5d" d="M 1947 4863 
L 1947 -844 
L 622 -844 
L 622 -397 
L 1369 -397 
L 1369 4416 
L 622 4416 
L 622 4863 
L 1947 4863 
z
" transform="scale(0.015625)"/>
      </defs>
      <use xlink:href="#DejaVuSans-53" transform="translate(0 0.765625)"/>
      <use xlink:href="#DejaVuSans-6f" transform="translate(63.476562 0.765625)"/>
      <use xlink:href="#DejaVuSans-6c" transform="translate(124.658203 0.765625)"/>
      <use xlink:href="#DejaVuSans-61" transform="translate(152.441406 0.765625)"/>
      <use xlink:href="#DejaVuSans-72" transform="translate(213.720703 0.765625)"/>
      <use xlink:href="#DejaVuSans-20" transform="translate(254.833984 0.765625)"/>
      <use xlink:href="#DejaVuSans-69" transform="translate(286.621094 0.765625)"/>
      <use xlink:href="#DejaVuSans-72" transform="translate(314.404297 0.765625)"/>
      <use xlink:href="#DejaVuSans-72" transform="translate(355.517578 0.765625)"/>
      <use xlink:href="#DejaVuSans-61" transform="translate(396.630859 0.765625)"/>
      <use xlink:href="#DejaVuSans-64" transform="translate(457.910156 0.765625)"/>
      <use xlink:href="#DejaVuSans-69" transform="translate(521.386719 0.765625)"/>
      <use xlink:href="#DejaVuSans-61" transform="translate(549.169922 0.765625)"/>
      <use xlink:href="#DejaVuSans-6e" transform="translate(610.449219 0.765625)"/>
      <use xlink:href="#DejaVuSans-63" transform="translate(673.828125 0.765625)"/>
      <use xlink:href="#DejaVuSans-65" transform="translate(728.808594 0.765625)"/>
      <use xlink:href="#DejaVuSans-20" transform="translate(790.332031 0.765625)"/>
      <use xlink:href="#DejaVuSans-5b" transform="translate(822.119141 0.765625)"/>
      <use xlink:href="#DejaVuSans-57" transform="translate(861.132812 0.765625)"/>
      <use xlink:href="#DejaVuSans-2f" transform="translate(960.009766 0.765625)"/>
      <use xlink:href="#DejaVuSans-6d" transform="translate(993.701172 0.765625)"/>
      <use xlink:href="#DejaVuSans-32" transform="translate(1092.070312 39.046875) scale(0.7)"/>
      <use xlink:href="#DejaVuSans-5d" transform="translate(1139.34082 0.765625)"/>
     </g>
    </g>
   </g>
   <g id="line2d_32">
    <path d="M 54.15 282.283969 
L 167.572516 282.199328 
L 167.921508 282.072366 
L 168.619493 282.030046 
L 168.968485 281.860763 
L 169.317477 281.860763 
L 169.66647 281.670321 
L 170.015462 281.628 
L 171.062439 281.141313 
L 175.59934 279.131084 
L 176.297325 278.665557 
L 176.995309 277.840305 
L 178.042286 277.840305 
L 178.391279 277.713343 
L 178.740271 277.374778 
L 179.438256 275.449191 
L 179.787248 274.560458 
L 180.13624 273.142717 
L 180.834225 274.560458 
L 181.183218 273.565924 
L 181.53221 273.714046 
L 181.881202 273.714046 
L 182.579187 271.280611 
L 183.277172 269.968672 
L 183.626164 268.910656 
L 183.975156 268.212366 
L 184.324149 267.78916 
L 184.673141 268.297008 
L 185.022133 269.799389 
L 185.371126 270.772763 
L 185.720118 267.78916 
L 186.06911 266.519542 
L 186.767095 262.87997 
L 187.116088 262.456764 
L 187.46508 262.668367 
L 187.814072 262.604885 
L 188.163065 264.086107 
L 188.512057 258.711389 
L 188.861049 259.155755 
L 189.210042 261.652672 
L 189.559034 261.335267 
L 189.908026 260.658138 
L 190.257019 259.727084 
L 190.606011 260.12913 
L 190.955003 258.859512 
L 191.303996 256.553038 
L 192.001981 256.002871 
L 193.048958 251.389924 
L 193.39795 250.606993 
L 193.746942 250.39539 
L 194.444927 250.310747 
L 194.793919 252.574902 
L 195.142912 251.030199 
L 195.840896 249.337375 
L 196.538881 247.877312 
L 196.887874 246.565373 
L 197.236866 245.718961 
L 197.585858 246.374932 
L 197.934851 248.808367 
L 198.283843 249.972184 
L 198.981828 243.729894 
L 199.33082 242.86232 
L 199.679812 242.460275 
L 200.028805 240.555848 
L 200.726789 239.28623 
L 201.075782 238.249373 
L 201.773767 234.652121 
L 203.169736 229.340886 
L 203.518728 230.716306 
L 203.867721 233.974992 
L 204.216713 233.107421 
L 204.565705 232.811175 
L 205.26369 231.605038 
L 205.612682 230.356581 
L 205.961675 229.785251 
L 206.659659 222.971636 
L 207.008652 221.363452 
L 207.357644 222.400305 
L 207.706637 222.738872 
L 208.055629 222.273342 
L 208.404621 222.569585 
L 208.753614 221.215327 
L 209.102606 219.289738 
L 209.451598 219.05698 
L 210.149583 216.136854 
L 210.498575 216.6447 
L 210.847568 214.444029 
L 211.19656 217.68156 
L 211.545552 218.951178 
L 211.894545 219.437863 
L 212.59253 218.866532 
L 212.941522 217.998964 
L 213.290514 215.755971 
L 213.639507 214.486352 
L 213.988499 214.803757 
L 214.337491 214.719117 
L 214.686484 214.486352 
L 215.035476 212.51844 
L 215.384468 213.364852 
L 215.733461 213.195573 
L 216.082453 211.269983 
L 216.780438 209.365556 
L 217.12943 208.540305 
L 217.478423 209.196276 
L 217.827415 207.609253 
L 218.176407 208.201739 
L 218.5254 208.476827 
L 218.874392 208.159422 
L 219.223384 207.56693 
L 219.572377 208.201739 
L 219.921369 207.355327 
L 220.270361 204.498686 
L 220.968346 201.578566 
L 221.317338 201.24 
L 221.666331 200.605191 
L 222.015323 201.303478 
L 222.713308 198.446837 
L 223.0623 198.806565 
L 223.411293 198.785403 
L 224.109277 199.631816 
L 224.45827 199.314411 
L 224.807262 198.806565 
L 225.156254 197.727388 
L 225.505247 198.065954 
L 225.854239 197.812028 
L 226.203231 196.923299 
L 226.552224 197.409983 
L 227.250208 201.599728 
L 227.599201 202.319177 
L 227.948193 202.573097 
L 228.297186 206.466598 
L 228.646178 208.371025 
L 228.99517 205.006532 
L 229.344163 205.662503 
L 229.693155 206.043392 
L 230.042147 199.483697 
L 230.39114 196.754013 
L 230.740132 200.118506 
L 231.089124 197.558108 
L 231.438117 196.28849 
L 231.787109 192.754716 
L 232.136101 194.489864 
L 232.485094 195.018872 
L 232.834086 195.293953 
L 233.183079 194.807268 
L 233.532071 196.309651 
L 234.230056 195.928762 
L 234.579048 195.357438 
L 234.92804 195.209313 
L 235.277033 196.182688 
L 235.626025 194.468702 
L 235.975017 194.151298 
L 236.32401 193.495327 
L 237.021994 190.152001 
L 237.370987 189.411391 
L 237.719979 188.162934 
L 238.068972 187.612765 
L 238.417964 187.46464 
L 239.115949 185.644852 
L 239.464941 185.242808 
L 239.813933 187.189559 
L 240.162926 185.877617 
L 240.511918 182.470807 
L 240.86091 181.582078 
L 241.209903 182.111085 
L 241.558895 181.793681 
L 241.907887 180.100856 
L 242.25688 179.614165 
L 242.605872 178.810076 
L 242.954864 178.38687 
L 243.303857 178.704275 
L 243.652849 178.661952 
L 244.001842 176.376641 
L 244.699826 177.730899 
L 245.048819 178.21759 
L 245.397811 178.429193 
L 246.095796 178.027142 
L 246.444788 179.698812 
L 246.79378 179.296761 
L 247.142773 178.111789 
L 247.491765 178.534995 
L 247.840757 178.259907 
L 248.18975 176.694046 
L 248.538742 177.053774 
L 248.887735 179.021679 
L 249.236727 176.799847 
L 249.585719 177.603936 
L 250.283704 177.900186 
L 250.632696 177.244215 
L 250.981689 177.265377 
L 251.330681 177.836701 
L 251.679673 180.143173 
L 252.028666 181.13771 
L 252.377658 180.926107 
L 252.72665 180.037371 
L 253.075643 181.624394 
L 253.424635 178.640796 
L 253.773628 174.408735 
L 254.12262 172.208058 
L 254.471612 172.546631 
L 254.820605 172.292705 
L 255.169597 171.552094 
L 255.518589 168.547328 
L 255.867582 168.335725 
L 256.216574 169.012858 
L 256.565566 171.044242 
L 256.914559 170.049705 
L 257.263551 170.494079 
L 257.612543 171.784852 
L 257.961536 170.240153 
L 258.310528 167.44699 
L 258.659521 165.944613 
L 259.357505 166.685224 
L 259.706498 168.589651 
L 260.05549 168.885888 
L 260.753475 165.373282 
L 261.451459 163.214929 
L 261.800452 163.997863 
L 262.149444 162.326193 
L 263.196421 165.944613 
L 263.545413 164.82312 
L 263.894406 164.103664 
L 264.243398 163.722781 
L 264.592391 162.982171 
L 265.290375 173.202595 
L 265.639368 176.080398 
L 266.337352 167.933674 
L 267.035337 156.232028 
L 267.384329 155.343293 
L 267.733322 156.232028 
L 268.082314 160.993097 
L 268.431306 159.66 
L 268.780299 159.384919 
L 269.129291 159.850448 
L 269.478284 158.517338 
L 269.827276 159.173316 
L 270.176268 159.533043 
L 270.525261 160.675692 
L 270.874253 160.73917 
L 271.572238 164.674995 
L 271.92123 165.881135 
L 272.270222 165.711842 
L 272.619215 164.86543 
L 272.968207 160.189008 
L 273.317199 161.014265 
L 274.364177 153.608158 
L 274.713169 152.592453 
L 275.062161 153.544667 
L 275.411154 155.237491 
L 275.760146 155.893468 
L 276.109138 158.178779 
L 276.458131 156.676402 
L 276.807123 153.629313 
L 277.156115 153.777438 
L 277.8541 158.855911 
L 278.203092 158.369227 
L 278.552085 161.120066 
L 278.901077 162.516641 
L 279.599062 156.993807 
L 279.948054 156.105071 
L 280.297047 158.559662 
L 280.646039 154.306445 
L 280.995031 154.941254 
L 281.344024 156.464799 
L 281.693016 159.088669 
L 282.042008 159.130992 
L 282.391001 156.972639 
L 282.739993 156.083903 
L 283.088985 156.803359 
L 283.437978 157.163087 
L 283.78697 163.236097 
L 284.135962 161.733707 
L 284.833947 161.352824 
L 285.18294 159.913926 
L 285.531932 159.342595 
L 286.229917 161.712552 
L 286.578909 163.765104 
L 286.927901 160.379456 
L 287.276894 161.331669 
L 287.974878 164.9924 
L 288.323871 164.590349 
L 289.370848 157.501646 
L 289.71984 158.728941 
L 290.068833 158.877066 
L 290.766817 154.62385 
L 291.11581 157.755573 
L 291.464802 157.819051 
L 291.813794 156.189705 
L 292.162787 156.464799 
L 292.511779 156.951483 
L 292.860771 156.147394 
L 293.209764 158.28458 
L 293.907748 150.053216 
L 294.256741 152.888702 
L 294.605733 151.640239 
L 295.303718 152.571298 
L 295.65271 151.894165 
L 296.001703 152.084613 
L 296.350695 152.909857 
L 297.04868 155.068211 
L 297.397672 153.671636 
L 297.746664 154.031364 
L 298.095657 149.968583 
L 298.444649 147.51398 
L 298.793641 147.365868 
L 299.142634 148.127634 
L 299.491626 148.21228 
L 300.189611 150.941952 
L 300.538603 154.581527 
L 300.887596 156.062748 
L 301.236588 159.596522 
L 301.58558 155.956947 
L 301.934573 154.412247 
L 302.283565 155.025888 
L 302.632557 156.888005 
L 302.98155 154.79313 
L 303.330542 154.348769 
L 303.679534 155.512585 
L 304.028527 155.512585 
L 304.377519 155.343293 
L 304.726511 157.565125 
L 305.075504 158.961713 
L 305.424496 161.225868 
L 306.122481 156.358998 
L 306.471473 159.384919 
L 306.820466 160.019728 
L 307.51845 155.724188 
L 307.867443 154.179476 
L 308.216435 155.237491 
L 308.565427 154.79313 
L 308.91442 152.486651 
L 309.263412 155.427939 
L 309.612404 163.4477 
L 310.310389 174.514537 
L 310.659382 174.112486 
L 311.008374 169.901593 
L 311.357366 169.097491 
L 311.706359 169.457219 
L 312.055351 171.573249 
L 312.404343 174.387574 
L 312.753336 165.500239 
L 313.102328 160.86614 
L 313.45132 164.294112 
L 313.800313 165.415606 
L 314.149305 164.188311 
L 314.84729 177.603936 
L 315.196282 178.55615 
L 315.545274 178.090627 
L 315.894267 178.238746 
L 316.243259 174.345251 
L 316.592252 173.160272 
L 316.941244 178.704275 
L 317.290236 182.280365 
L 317.639229 180.079695 
L 317.988221 181.920644 
L 318.337213 182.0476 
L 319.035198 171.996455 
L 319.38419 174.006684 
L 320.082175 184.078991 
L 320.78016 177.709738 
L 321.478145 184.45988 
L 321.827137 185.073528 
L 322.525122 183.190262 
L 323.223106 187.443478 
L 323.572099 187.38 
L 323.921091 188.84006 
L 324.270083 189.220949 
L 324.619076 187.760883 
L 324.968068 188.014809 
L 325.31706 187.887846 
L 326.015045 184.607999 
L 326.364038 181.687879 
L 326.71303 177.709738 
L 327.062022 180.651025 
L 327.411015 189.030501 
L 327.760007 191.463936 
L 328.108999 187.337677 
L 328.806984 192.924003 
L 329.155976 194.786107 
L 329.504969 192.564275 
L 329.853961 192.07759 
L 330.202953 193.114444 
L 330.551946 191.442781 
L 330.900938 192.564275 
L 331.249931 191.612061 
L 331.598923 191.252333 
L 331.947915 195.378593 
L 332.296908 193.685768 
L 332.6459 190.448244 
L 332.994892 192.098746 
L 333.343885 193.114444 
L 333.692877 194.764945 
L 334.041869 193.79157 
L 334.739854 186.660551 
L 335.088846 184.502197 
L 335.786831 185.877617 
L 336.135823 188.543817 
L 336.484816 183.909711 
L 336.833808 183.71927 
L 337.182801 184.62916 
L 337.531793 185.91994 
L 337.880785 186.131543 
L 338.229778 181.962961 
L 338.57877 180.439422 
L 338.927762 177.900186 
L 339.276755 180.016216 
L 339.625747 182.830534 
L 339.974739 186.893316 
L 340.323732 185.941102 
L 341.021716 185.666014 
L 341.370709 182.788211 
L 341.719701 183.126777 
L 342.417686 184.290594 
L 342.766678 184.819602 
L 343.115671 185.010043 
L 343.464663 187.147235 
L 343.813655 196.500093 
L 344.162648 185.91994 
L 344.51164 184.375234 
L 345.209625 186.216183 
L 345.907609 189.601832 
L 346.256602 190.194318 
L 346.605594 191.42162 
L 346.954587 197.473468 
L 347.303579 198.95469 
L 347.652571 197.029101 
L 348.001564 199.208609 
L 348.699548 207.228364 
L 349.048541 208.85771 
L 349.397533 211.248822 
L 349.746525 212.031756 
L 350.095518 213.449499 
L 350.44451 214.253588 
L 350.793502 216.919788 
L 351.142495 215.861772 
L 351.491487 218.041281 
L 351.840479 218.02012 
L 352.189472 217.025589 
L 353.236449 209.111636 
L 353.585441 207.778533 
L 353.934434 207.693893 
L 354.632418 202.382655 
L 354.981411 202.065251 
L 355.330403 200.753316 
L 355.679395 199.885742 
L 356.028388 198.235234 
L 356.37738 197.515785 
L 356.726372 198.277557 
L 357.075365 200.160823 
L 357.424357 203.758075 
L 357.77335 209.196276 
L 358.122342 207.630415 
L 358.471334 214.401713 
L 358.820327 226.12452 
L 359.169319 233.424826 
L 359.518311 235.435055 
L 359.867304 233.445984 
L 360.565288 215.311603 
L 360.914281 213.153249 
L 361.263273 212.666565 
L 361.612265 216.263817 
L 361.961258 216.073375 
L 362.31025 213.386014 
L 362.659243 214.909559 
L 363.008235 214.655632 
L 363.357227 213.216734 
L 363.70622 214.676794 
L 364.404204 218.697252 
L 365.102189 232.028244 
L 365.451181 228.642595 
L 365.800174 230.229618 
L 366.149166 233.107421 
L 366.498158 243.179725 
L 366.847151 242.756518 
L 367.196143 235.392732 
L 367.545136 233.721069 
L 367.894128 236.53539 
L 368.24312 234.652121 
L 368.592113 236.175665 
L 368.941105 241.000212 
L 369.290097 243.137405 
L 369.988082 237.170199 
L 370.337074 236.852795 
L 370.686067 238.947663 
L 371.384051 236.091022 
L 371.733044 236.62003 
L 372.082036 240.238443 
L 372.431028 236.810475 
L 372.780021 231.647358 
L 373.129013 228.811879 
L 373.478006 227.859662 
L 373.826998 229.637129 
L 374.17599 237.572244 
L 374.524983 240.767451 
L 374.873975 236.598872 
L 375.222967 238.101251 
L 375.920952 236.281467 
L 376.269944 238.185894 
L 376.618937 239.032307 
L 376.967929 239.434351 
L 377.316921 245.782443 
L 377.665914 249.887541 
L 378.014906 248.702566 
L 378.363899 250.183787 
L 379.061883 254.966014 
L 379.410876 252.215174 
L 379.759868 252.215174 
L 380.10886 251.77081 
L 380.806845 252.384457 
L 381.155837 249.951022 
L 381.50483 244.745589 
L 381.853822 246.142167 
L 382.202814 248.067756 
L 382.551807 246.628855 
L 383.249792 245.211115 
L 383.598784 246.692337 
L 384.296769 250.606993 
L 384.645761 251.559207 
L 384.994753 251.368762 
L 385.343746 256.299114 
L 385.692738 263.387816 
L 386.04173 267.00623 
L 386.390723 267.217833 
L 386.739715 266.244457 
L 387.088707 264.191908 
L 387.4377 257.611054 
L 387.786692 255.770106 
L 388.135685 257.124366 
L 388.484677 254.161925 
L 388.833669 253.865679 
L 389.182662 254.52165 
L 389.531654 254.796734 
L 389.880646 254.563969 
L 390.578631 255.770106 
L 390.927623 256.214474 
L 391.276616 256.976245 
L 391.625608 258.161221 
L 392.323593 259.028794 
L 394.417547 263.557099 
L 395.115532 265.059481 
L 395.813516 266.286779 
L 396.162509 267.04855 
L 396.511501 269.037619 
L 397.209486 274.962504 
L 397.558478 276.295603 
L 398.605455 277.057374 
L 400.001425 277.776825 
L 400.699409 277.967267 
L 401.746386 278.750198 
L 405.23631 280.95087 
L 406.632279 281.670321 
L 406.981272 281.860763 
L 407.679256 281.924244 
L 408.028249 282.072366 
L 410.820188 282.157008 
L 411.16918 282.283969 
L 556.35 282.283969 
L 556.35 282.283969 
" clip-path="url(#p765e52b946)" style="fill: none; stroke: #44a5c2; stroke-width: 1.5; stroke-linecap: square"/>
   </g>
   <g id="patch_3">
    <path d="M 54.15 284.4 
L 54.15 7.2 
" style="fill: none; stroke: #000000; stroke-width: 0.8; stroke-linejoin: miter; stroke-linecap: square"/>
   </g>
   <g id="patch_4">
    <path d="M 556.35 284.4 
L 556.35 7.2 
" style="fill: none; stroke: #000000; stroke-width: 0.8; stroke-linejoin: miter; stroke-linecap: square"/>
   </g>
   <g id="patch_5">
    <path d="M 54.15 284.4 
L 556.35 284.4 
" style="fill: none; stroke: #000000; stroke-width: 0.8; stroke-linejoin: miter; stroke-linecap: square"/>
   </g>
   <g id="patch_6">
    <path d="M 54.15 7.2 
L 556.35 7.2 
" style="fill: none; stroke: #000000; stroke-width: 0.8; stroke-linejoin: miter; stroke-linecap: square"/>
   </g>
   <g id="legend_1">
    <g id="patch_7">
     <path d="M 477.835938 29.878125 
L 549.35 29.878125 
Q 551.35 29.878125 551.35 27.878125 
L 551.35 14.2 
Q 551.35 12.2 549.35 12.2 
L 477.835938 12.2 
Q 475.835938 12.2 475.835938 14.2 
L 475.835938 27.878125 
Q 475.835938 29.878125 477.835938 29.878125 
z
" style="fill: #ffffff; opacity: 0.8; stroke: #cccccc; stroke-linejoin: miter"/>
    </g>
    <g id="line2d_33">
     <path d="M 479.835938 20.298437 
L 489.835938 20.298437 
L 499.835938 20.298437 
" style="fill: none; stroke: #44a5c2; stroke-width: 1.5; stroke-linecap: square"/>
    </g>
    <g id="text_34">
     <!-- Autumn -->
     <g transform="translate(507.835938 23.798437) scale(0.1 -0.1)">
      <defs>
       <path id="DejaVuSans-41" d="M 2188 4044 
L 1331 1722 
L 3047 1722 
L 2188 4044 
z
M 1831 4666 
L 2547 4666 
L 4325 0 
L 3669 0 
L 3244 1197 
L 1141 1197 
L 716 0 
L 50 0 
L 1831 4666 
z
" transform="scale(0.015625)"/>
       <path id="DejaVuSans-75" d="M 544 1381 
L 544 3500 
L 1119 3500 
L 1119 1403 
Q 1119 906 1312 657 
Q 1506 409 1894 409 
Q 2359 409 2629 706 
Q 2900 1003 2900 1516 
L 2900 3500 
L 3475 3500 
L 3475 0 
L 2900 0 
L 2900 538 
Q 2691 219 2414 64 
Q 2138 -91 1772 -91 
Q 1169 -91 856 284 
Q 544 659 544 1381 
z
M 1991 3584 
L 1991 3584 
z
" transform="scale(0.015625)"/>
      </defs>
      <use xlink:href="#DejaVuSans-41"/>
      <use xlink:href="#DejaVuSans-75" x="68.408203"/>
      <use xlink:href="#DejaVuSans-74" x="131.787109"/>
      <use xlink:href="#DejaVuSans-75" x="170.996094"/>
      <use xlink:href="#DejaVuSans-6d" x="234.375"/>
      <use xlink:href="#DejaVuSans-6e" x="331.787109"/>
     </g>
    </g>
   </g>
  </g>
 </g>
 <defs>
  <clipPath id="p765e52b946">
   <rect x="54.15" y="7.2" width="502.2" height="277.2"/>
  </clipPath>
 </defs>
</svg>
