<?xml version="1.0" encoding="utf-8" standalone="no"?>
<!DOCTYPE svg PUBLIC "-//W3C//DTD SVG 1.1//EN"
  "http://www.w3.org/Graphics/SVG/1.1/DTD/svg11.dtd">
<svg xmlns:xlink="http://www.w3.org/1999/xlink" width="637.1455pt" height="351.99625pt" viewBox="0 0 637.1455 351.99625" xmlns="http://www.w3.org/2000/svg" version="1.1">
 <metadata>
  <rdf:RDF xmlns:dc="http://purl.org/dc/elements/1.1/" xmlns:cc="http://creativecommons.org/ns#" xmlns:rdf="http://www.w3.org/1999/02/22-rdf-syntax-ns#">
   <cc:Work>
    <dc:type rdf:resource="http://purl.org/dc/dcmitype/StillImage"/>
    <dc:date>2024-03-19T10:36:22.586946</dc:date>
    <dc:format>image/svg+xml</dc:format>
    <dc:creator>
     <cc:Agent>
      <dc:title>Matplotlib v3.8.2, https://matplotlib.org/</dc:title>
     </cc:Agent>
    </dc:creator>
   </cc:Work>
  </rdf:RDF>
 </metadata>
 <defs>
  <style type="text/css">*{stroke-linejoin: round; stroke-linecap: butt}</style>
 </defs>
 <g id="figure_1">
  <g id="patch_1">
   <path d="M 0 351.99625 
L 637.1455 351.99625 
L 637.1455 0 
L 0 0 
z
" style="fill: #ffffff"/>
  </g>
  <g id="axes_1">
   <g id="patch_2">
    <path d="M 54.15 314.44 
L 629.9455 314.44 
L 629.9455 7.2 
L 54.15 7.2 
z
" style="fill: #ffffff"/>
   </g>
   <g id="matplotlib.axis_1">
    <g id="xtick_1">
     <g id="line2d_1">
      <defs>
       <path id="m7b32d143e6" d="M 0 0 
L 0 3.5 
" style="stroke: #000000; stroke-width: 0.8"/>
      </defs>
      <g>
       <use xlink:href="#m7b32d143e6" x="54.15" y="314.44" style="stroke: #000000; stroke-width: 0.8"/>
      </g>
     </g>
     <g id="text_1">
      <!-- 0 -->
      <g transform="translate(50.96875 329.038437) scale(0.1 -0.1)">
       <defs>
        <path id="DejaVuSans-30" d="M 2034 4250 
Q 1547 4250 1301 3770 
Q 1056 3291 1056 2328 
Q 1056 1369 1301 889 
Q 1547 409 2034 409 
Q 2525 409 2770 889 
Q 3016 1369 3016 2328 
Q 3016 3291 2770 3770 
Q 2525 4250 2034 4250 
z
M 2034 4750 
Q 2819 4750 3233 4129 
Q 3647 3509 3647 2328 
Q 3647 1150 3233 529 
Q 2819 -91 2034 -91 
Q 1250 -91 836 529 
Q 422 1150 422 2328 
Q 422 3509 836 4129 
Q 1250 4750 2034 4750 
z
" transform="scale(0.015625)"/>
       </defs>
       <use xlink:href="#DejaVuSans-30"/>
      </g>
     </g>
    </g>
    <g id="xtick_2">
     <g id="line2d_2">
      <g>
       <use xlink:href="#m7b32d143e6" x="78.141479" y="314.44" style="stroke: #000000; stroke-width: 0.8"/>
      </g>
     </g>
     <g id="text_2">
      <!-- 1 -->
      <g transform="translate(74.960229 329.038437) scale(0.1 -0.1)">
       <defs>
        <path id="DejaVuSans-31" d="M 794 531 
L 1825 531 
L 1825 4091 
L 703 3866 
L 703 4441 
L 1819 4666 
L 2450 4666 
L 2450 531 
L 3481 531 
L 3481 0 
L 794 0 
L 794 531 
z
" transform="scale(0.015625)"/>
       </defs>
       <use xlink:href="#DejaVuSans-31"/>
      </g>
     </g>
    </g>
    <g id="xtick_3">
     <g id="line2d_3">
      <g>
       <use xlink:href="#m7b32d143e6" x="102.132958" y="314.44" style="stroke: #000000; stroke-width: 0.8"/>
      </g>
     </g>
     <g id="text_3">
      <!-- 2 -->
      <g transform="translate(98.951708 329.038437) scale(0.1 -0.1)">
       <defs>
        <path id="DejaVuSans-32" d="M 1228 531 
L 3431 531 
L 3431 0 
L 469 0 
L 469 531 
Q 828 903 1448 1529 
Q 2069 2156 2228 2338 
Q 2531 2678 2651 2914 
Q 2772 3150 2772 3378 
Q 2772 3750 2511 3984 
Q 2250 4219 1831 4219 
Q 1534 4219 1204 4116 
Q 875 4013 500 3803 
L 500 4441 
Q 881 4594 1212 4672 
Q 1544 4750 1819 4750 
Q 2544 4750 2975 4387 
Q 3406 4025 3406 3419 
Q 3406 3131 3298 2873 
Q 3191 2616 2906 2266 
Q 2828 2175 2409 1742 
Q 1991 1309 1228 531 
z
" transform="scale(0.015625)"/>
       </defs>
       <use xlink:href="#DejaVuSans-32"/>
      </g>
     </g>
    </g>
    <g id="xtick_4">
     <g id="line2d_4">
      <g>
       <use xlink:href="#m7b32d143e6" x="126.124438" y="314.44" style="stroke: #000000; stroke-width: 0.8"/>
      </g>
     </g>
     <g id="text_4">
      <!-- 3 -->
      <g transform="translate(122.943188 329.038437) scale(0.1 -0.1)">
       <defs>
        <path id="DejaVuSans-33" d="M 2597 2516 
Q 3050 2419 3304 2112 
Q 3559 1806 3559 1356 
Q 3559 666 3084 287 
Q 2609 -91 1734 -91 
Q 1441 -91 1130 -33 
Q 819 25 488 141 
L 488 750 
Q 750 597 1062 519 
Q 1375 441 1716 441 
Q 2309 441 2620 675 
Q 2931 909 2931 1356 
Q 2931 1769 2642 2001 
Q 2353 2234 1838 2234 
L 1294 2234 
L 1294 2753 
L 1863 2753 
Q 2328 2753 2575 2939 
Q 2822 3125 2822 3475 
Q 2822 3834 2567 4026 
Q 2313 4219 1838 4219 
Q 1578 4219 1281 4162 
Q 984 4106 628 3988 
L 628 4550 
Q 988 4650 1302 4700 
Q 1616 4750 1894 4750 
Q 2613 4750 3031 4423 
Q 3450 4097 3450 3541 
Q 3450 3153 3228 2886 
Q 3006 2619 2597 2516 
z
" transform="scale(0.015625)"/>
       </defs>
       <use xlink:href="#DejaVuSans-33"/>
      </g>
     </g>
    </g>
    <g id="xtick_5">
     <g id="line2d_5">
      <g>
       <use xlink:href="#m7b32d143e6" x="150.115917" y="314.44" style="stroke: #000000; stroke-width: 0.8"/>
      </g>
     </g>
     <g id="text_5">
      <!-- 4 -->
      <g transform="translate(146.934667 329.038437) scale(0.1 -0.1)">
       <defs>
        <path id="DejaVuSans-34" d="M 2419 4116 
L 825 1625 
L 2419 1625 
L 2419 4116 
z
M 2253 4666 
L 3047 4666 
L 3047 1625 
L 3713 1625 
L 3713 1100 
L 3047 1100 
L 3047 0 
L 2419 0 
L 2419 1100 
L 313 1100 
L 313 1709 
L 2253 4666 
z
" transform="scale(0.015625)"/>
       </defs>
       <use xlink:href="#DejaVuSans-34"/>
      </g>
     </g>
    </g>
    <g id="xtick_6">
     <g id="line2d_6">
      <g>
       <use xlink:href="#m7b32d143e6" x="174.107396" y="314.44" style="stroke: #000000; stroke-width: 0.8"/>
      </g>
     </g>
     <g id="text_6">
      <!-- 5 -->
      <g transform="translate(170.926146 329.038437) scale(0.1 -0.1)">
       <defs>
        <path id="DejaVuSans-35" d="M 691 4666 
L 3169 4666 
L 3169 4134 
L 1269 4134 
L 1269 2991 
Q 1406 3038 1543 3061 
Q 1681 3084 1819 3084 
Q 2600 3084 3056 2656 
Q 3513 2228 3513 1497 
Q 3513 744 3044 326 
Q 2575 -91 1722 -91 
Q 1428 -91 1123 -41 
Q 819 9 494 109 
L 494 744 
Q 775 591 1075 516 
Q 1375 441 1709 441 
Q 2250 441 2565 725 
Q 2881 1009 2881 1497 
Q 2881 1984 2565 2268 
Q 2250 2553 1709 2553 
Q 1456 2553 1204 2497 
Q 953 2441 691 2322 
L 691 4666 
z
" transform="scale(0.015625)"/>
       </defs>
       <use xlink:href="#DejaVuSans-35"/>
      </g>
     </g>
    </g>
    <g id="xtick_7">
     <g id="line2d_7">
      <g>
       <use xlink:href="#m7b32d143e6" x="198.098875" y="314.44" style="stroke: #000000; stroke-width: 0.8"/>
      </g>
     </g>
     <g id="text_7">
      <!-- 6 -->
      <g transform="translate(194.917625 329.038437) scale(0.1 -0.1)">
       <defs>
        <path id="DejaVuSans-36" d="M 2113 2584 
Q 1688 2584 1439 2293 
Q 1191 2003 1191 1497 
Q 1191 994 1439 701 
Q 1688 409 2113 409 
Q 2538 409 2786 701 
Q 3034 994 3034 1497 
Q 3034 2003 2786 2293 
Q 2538 2584 2113 2584 
z
M 3366 4563 
L 3366 3988 
Q 3128 4100 2886 4159 
Q 2644 4219 2406 4219 
Q 1781 4219 1451 3797 
Q 1122 3375 1075 2522 
Q 1259 2794 1537 2939 
Q 1816 3084 2150 3084 
Q 2853 3084 3261 2657 
Q 3669 2231 3669 1497 
Q 3669 778 3244 343 
Q 2819 -91 2113 -91 
Q 1303 -91 875 529 
Q 447 1150 447 2328 
Q 447 3434 972 4092 
Q 1497 4750 2381 4750 
Q 2619 4750 2861 4703 
Q 3103 4656 3366 4563 
z
" transform="scale(0.015625)"/>
       </defs>
       <use xlink:href="#DejaVuSans-36"/>
      </g>
     </g>
    </g>
    <g id="xtick_8">
     <g id="line2d_8">
      <g>
       <use xlink:href="#m7b32d143e6" x="222.090354" y="314.44" style="stroke: #000000; stroke-width: 0.8"/>
      </g>
     </g>
     <g id="text_8">
      <!-- 7 -->
      <g transform="translate(218.909104 329.038437) scale(0.1 -0.1)">
       <defs>
        <path id="DejaVuSans-37" d="M 525 4666 
L 3525 4666 
L 3525 4397 
L 1831 0 
L 1172 0 
L 2766 4134 
L 525 4134 
L 525 4666 
z
" transform="scale(0.015625)"/>
       </defs>
       <use xlink:href="#DejaVuSans-37"/>
      </g>
     </g>
    </g>
    <g id="xtick_9">
     <g id="line2d_9">
      <g>
       <use xlink:href="#m7b32d143e6" x="246.081833" y="314.44" style="stroke: #000000; stroke-width: 0.8"/>
      </g>
     </g>
     <g id="text_9">
      <!-- 8 -->
      <g transform="translate(242.900583 329.038437) scale(0.1 -0.1)">
       <defs>
        <path id="DejaVuSans-38" d="M 2034 2216 
Q 1584 2216 1326 1975 
Q 1069 1734 1069 1313 
Q 1069 891 1326 650 
Q 1584 409 2034 409 
Q 2484 409 2743 651 
Q 3003 894 3003 1313 
Q 3003 1734 2745 1975 
Q 2488 2216 2034 2216 
z
M 1403 2484 
Q 997 2584 770 2862 
Q 544 3141 544 3541 
Q 544 4100 942 4425 
Q 1341 4750 2034 4750 
Q 2731 4750 3128 4425 
Q 3525 4100 3525 3541 
Q 3525 3141 3298 2862 
Q 3072 2584 2669 2484 
Q 3125 2378 3379 2068 
Q 3634 1759 3634 1313 
Q 3634 634 3220 271 
Q 2806 -91 2034 -91 
Q 1263 -91 848 271 
Q 434 634 434 1313 
Q 434 1759 690 2068 
Q 947 2378 1403 2484 
z
M 1172 3481 
Q 1172 3119 1398 2916 
Q 1625 2713 2034 2713 
Q 2441 2713 2670 2916 
Q 2900 3119 2900 3481 
Q 2900 3844 2670 4047 
Q 2441 4250 2034 4250 
Q 1625 4250 1398 4047 
Q 1172 3844 1172 3481 
z
" transform="scale(0.015625)"/>
       </defs>
       <use xlink:href="#DejaVuSans-38"/>
      </g>
     </g>
    </g>
    <g id="xtick_10">
     <g id="line2d_10">
      <g>
       <use xlink:href="#m7b32d143e6" x="270.073313" y="314.44" style="stroke: #000000; stroke-width: 0.8"/>
      </g>
     </g>
     <g id="text_10">
      <!-- 9 -->
      <g transform="translate(266.892063 329.038437) scale(0.1 -0.1)">
       <defs>
        <path id="DejaVuSans-39" d="M 703 97 
L 703 672 
Q 941 559 1184 500 
Q 1428 441 1663 441 
Q 2288 441 2617 861 
Q 2947 1281 2994 2138 
Q 2813 1869 2534 1725 
Q 2256 1581 1919 1581 
Q 1219 1581 811 2004 
Q 403 2428 403 3163 
Q 403 3881 828 4315 
Q 1253 4750 1959 4750 
Q 2769 4750 3195 4129 
Q 3622 3509 3622 2328 
Q 3622 1225 3098 567 
Q 2575 -91 1691 -91 
Q 1453 -91 1209 -44 
Q 966 3 703 97 
z
M 1959 2075 
Q 2384 2075 2632 2365 
Q 2881 2656 2881 3163 
Q 2881 3666 2632 3958 
Q 2384 4250 1959 4250 
Q 1534 4250 1286 3958 
Q 1038 3666 1038 3163 
Q 1038 2656 1286 2365 
Q 1534 2075 1959 2075 
z
" transform="scale(0.015625)"/>
       </defs>
       <use xlink:href="#DejaVuSans-39"/>
      </g>
     </g>
    </g>
    <g id="xtick_11">
     <g id="line2d_11">
      <g>
       <use xlink:href="#m7b32d143e6" x="294.064792" y="314.44" style="stroke: #000000; stroke-width: 0.8"/>
      </g>
     </g>
     <g id="text_11">
      <!-- 10 -->
      <g transform="translate(287.702292 329.038437) scale(0.1 -0.1)">
       <use xlink:href="#DejaVuSans-31"/>
       <use xlink:href="#DejaVuSans-30" x="63.623047"/>
      </g>
     </g>
    </g>
    <g id="xtick_12">
     <g id="line2d_12">
      <g>
       <use xlink:href="#m7b32d143e6" x="318.056271" y="314.44" style="stroke: #000000; stroke-width: 0.8"/>
      </g>
     </g>
     <g id="text_12">
      <!-- 11 -->
      <g transform="translate(311.693771 329.038437) scale(0.1 -0.1)">
       <use xlink:href="#DejaVuSans-31"/>
       <use xlink:href="#DejaVuSans-31" x="63.623047"/>
      </g>
     </g>
    </g>
    <g id="xtick_13">
     <g id="line2d_13">
      <g>
       <use xlink:href="#m7b32d143e6" x="342.04775" y="314.44" style="stroke: #000000; stroke-width: 0.8"/>
      </g>
     </g>
     <g id="text_13">
      <!-- 12 -->
      <g transform="translate(335.68525 329.038437) scale(0.1 -0.1)">
       <use xlink:href="#DejaVuSans-31"/>
       <use xlink:href="#DejaVuSans-32" x="63.623047"/>
      </g>
     </g>
    </g>
    <g id="xtick_14">
     <g id="line2d_14">
      <g>
       <use xlink:href="#m7b32d143e6" x="366.039229" y="314.44" style="stroke: #000000; stroke-width: 0.8"/>
      </g>
     </g>
     <g id="text_14">
      <!-- 13 -->
      <g transform="translate(359.676729 329.038437) scale(0.1 -0.1)">
       <use xlink:href="#DejaVuSans-31"/>
       <use xlink:href="#DejaVuSans-33" x="63.623047"/>
      </g>
     </g>
    </g>
    <g id="xtick_15">
     <g id="line2d_15">
      <g>
       <use xlink:href="#m7b32d143e6" x="390.030708" y="314.44" style="stroke: #000000; stroke-width: 0.8"/>
      </g>
     </g>
     <g id="text_15">
      <!-- 14 -->
      <g transform="translate(383.668208 329.038437) scale(0.1 -0.1)">
       <use xlink:href="#DejaVuSans-31"/>
       <use xlink:href="#DejaVuSans-34" x="63.623047"/>
      </g>
     </g>
    </g>
    <g id="xtick_16">
     <g id="line2d_16">
      <g>
       <use xlink:href="#m7b32d143e6" x="414.022187" y="314.44" style="stroke: #000000; stroke-width: 0.8"/>
      </g>
     </g>
     <g id="text_16">
      <!-- 15 -->
      <g transform="translate(407.659687 329.038437) scale(0.1 -0.1)">
       <use xlink:href="#DejaVuSans-31"/>
       <use xlink:href="#DejaVuSans-35" x="63.623047"/>
      </g>
     </g>
    </g>
    <g id="xtick_17">
     <g id="line2d_17">
      <g>
       <use xlink:href="#m7b32d143e6" x="438.013667" y="314.44" style="stroke: #000000; stroke-width: 0.8"/>
      </g>
     </g>
     <g id="text_17">
      <!-- 16 -->
      <g transform="translate(431.651167 329.038437) scale(0.1 -0.1)">
       <use xlink:href="#DejaVuSans-31"/>
       <use xlink:href="#DejaVuSans-36" x="63.623047"/>
      </g>
     </g>
    </g>
    <g id="xtick_18">
     <g id="line2d_18">
      <g>
       <use xlink:href="#m7b32d143e6" x="462.005146" y="314.44" style="stroke: #000000; stroke-width: 0.8"/>
      </g>
     </g>
     <g id="text_18">
      <!-- 17 -->
      <g transform="translate(455.642646 329.038437) scale(0.1 -0.1)">
       <use xlink:href="#DejaVuSans-31"/>
       <use xlink:href="#DejaVuSans-37" x="63.623047"/>
      </g>
     </g>
    </g>
    <g id="xtick_19">
     <g id="line2d_19">
      <g>
       <use xlink:href="#m7b32d143e6" x="485.996625" y="314.44" style="stroke: #000000; stroke-width: 0.8"/>
      </g>
     </g>
     <g id="text_19">
      <!-- 18 -->
      <g transform="translate(479.634125 329.038437) scale(0.1 -0.1)">
       <use xlink:href="#DejaVuSans-31"/>
       <use xlink:href="#DejaVuSans-38" x="63.623047"/>
      </g>
     </g>
    </g>
    <g id="xtick_20">
     <g id="line2d_20">
      <g>
       <use xlink:href="#m7b32d143e6" x="509.988104" y="314.44" style="stroke: #000000; stroke-width: 0.8"/>
      </g>
     </g>
     <g id="text_20">
      <!-- 19 -->
      <g transform="translate(503.625604 329.038437) scale(0.1 -0.1)">
       <use xlink:href="#DejaVuSans-31"/>
       <use xlink:href="#DejaVuSans-39" x="63.623047"/>
      </g>
     </g>
    </g>
    <g id="xtick_21">
     <g id="line2d_21">
      <g>
       <use xlink:href="#m7b32d143e6" x="533.979583" y="314.44" style="stroke: #000000; stroke-width: 0.8"/>
      </g>
     </g>
     <g id="text_21">
      <!-- 20 -->
      <g transform="translate(527.617083 329.038437) scale(0.1 -0.1)">
       <use xlink:href="#DejaVuSans-32"/>
       <use xlink:href="#DejaVuSans-30" x="63.623047"/>
      </g>
     </g>
    </g>
    <g id="xtick_22">
     <g id="line2d_22">
      <g>
       <use xlink:href="#m7b32d143e6" x="557.971063" y="314.44" style="stroke: #000000; stroke-width: 0.8"/>
      </g>
     </g>
     <g id="text_22">
      <!-- 21 -->
      <g transform="translate(551.608563 329.038437) scale(0.1 -0.1)">
       <use xlink:href="#DejaVuSans-32"/>
       <use xlink:href="#DejaVuSans-31" x="63.623047"/>
      </g>
     </g>
    </g>
    <g id="xtick_23">
     <g id="line2d_23">
      <g>
       <use xlink:href="#m7b32d143e6" x="581.962542" y="314.44" style="stroke: #000000; stroke-width: 0.8"/>
      </g>
     </g>
     <g id="text_23">
      <!-- 22 -->
      <g transform="translate(575.600042 329.038437) scale(0.1 -0.1)">
       <use xlink:href="#DejaVuSans-32"/>
       <use xlink:href="#DejaVuSans-32" x="63.623047"/>
      </g>
     </g>
    </g>
    <g id="xtick_24">
     <g id="line2d_24">
      <g>
       <use xlink:href="#m7b32d143e6" x="605.954021" y="314.44" style="stroke: #000000; stroke-width: 0.8"/>
      </g>
     </g>
     <g id="text_24">
      <!-- 23 -->
      <g transform="translate(599.591521 329.038437) scale(0.1 -0.1)">
       <use xlink:href="#DejaVuSans-32"/>
       <use xlink:href="#DejaVuSans-33" x="63.623047"/>
      </g>
     </g>
    </g>
    <g id="text_25">
     <!-- Time of the day -->
     <g transform="translate(302.824313 342.716562) scale(0.1 -0.1)">
      <defs>
       <path id="DejaVuSans-54" d="M -19 4666 
L 3928 4666 
L 3928 4134 
L 2272 4134 
L 2272 0 
L 1638 0 
L 1638 4134 
L -19 4134 
L -19 4666 
z
" transform="scale(0.015625)"/>
       <path id="DejaVuSans-69" d="M 603 3500 
L 1178 3500 
L 1178 0 
L 603 0 
L 603 3500 
z
M 603 4863 
L 1178 4863 
L 1178 4134 
L 603 4134 
L 603 4863 
z
" transform="scale(0.015625)"/>
       <path id="DejaVuSans-6d" d="M 3328 2828 
Q 3544 3216 3844 3400 
Q 4144 3584 4550 3584 
Q 5097 3584 5394 3201 
Q 5691 2819 5691 2113 
L 5691 0 
L 5113 0 
L 5113 2094 
Q 5113 2597 4934 2840 
Q 4756 3084 4391 3084 
Q 3944 3084 3684 2787 
Q 3425 2491 3425 1978 
L 3425 0 
L 2847 0 
L 2847 2094 
Q 2847 2600 2669 2842 
Q 2491 3084 2119 3084 
Q 1678 3084 1418 2786 
Q 1159 2488 1159 1978 
L 1159 0 
L 581 0 
L 581 3500 
L 1159 3500 
L 1159 2956 
Q 1356 3278 1631 3431 
Q 1906 3584 2284 3584 
Q 2666 3584 2933 3390 
Q 3200 3197 3328 2828 
z
" transform="scale(0.015625)"/>
       <path id="DejaVuSans-65" d="M 3597 1894 
L 3597 1613 
L 953 1613 
Q 991 1019 1311 708 
Q 1631 397 2203 397 
Q 2534 397 2845 478 
Q 3156 559 3463 722 
L 3463 178 
Q 3153 47 2828 -22 
Q 2503 -91 2169 -91 
Q 1331 -91 842 396 
Q 353 884 353 1716 
Q 353 2575 817 3079 
Q 1281 3584 2069 3584 
Q 2775 3584 3186 3129 
Q 3597 2675 3597 1894 
z
M 3022 2063 
Q 3016 2534 2758 2815 
Q 2500 3097 2075 3097 
Q 1594 3097 1305 2825 
Q 1016 2553 972 2059 
L 3022 2063 
z
" transform="scale(0.015625)"/>
       <path id="DejaVuSans-20" transform="scale(0.015625)"/>
       <path id="DejaVuSans-6f" d="M 1959 3097 
Q 1497 3097 1228 2736 
Q 959 2375 959 1747 
Q 959 1119 1226 758 
Q 1494 397 1959 397 
Q 2419 397 2687 759 
Q 2956 1122 2956 1747 
Q 2956 2369 2687 2733 
Q 2419 3097 1959 3097 
z
M 1959 3584 
Q 2709 3584 3137 3096 
Q 3566 2609 3566 1747 
Q 3566 888 3137 398 
Q 2709 -91 1959 -91 
Q 1206 -91 779 398 
Q 353 888 353 1747 
Q 353 2609 779 3096 
Q 1206 3584 1959 3584 
z
" transform="scale(0.015625)"/>
       <path id="DejaVuSans-66" d="M 2375 4863 
L 2375 4384 
L 1825 4384 
Q 1516 4384 1395 4259 
Q 1275 4134 1275 3809 
L 1275 3500 
L 2222 3500 
L 2222 3053 
L 1275 3053 
L 1275 0 
L 697 0 
L 697 3053 
L 147 3053 
L 147 3500 
L 697 3500 
L 697 3744 
Q 697 4328 969 4595 
Q 1241 4863 1831 4863 
L 2375 4863 
z
" transform="scale(0.015625)"/>
       <path id="DejaVuSans-74" d="M 1172 4494 
L 1172 3500 
L 2356 3500 
L 2356 3053 
L 1172 3053 
L 1172 1153 
Q 1172 725 1289 603 
Q 1406 481 1766 481 
L 2356 481 
L 2356 0 
L 1766 0 
Q 1100 0 847 248 
Q 594 497 594 1153 
L 594 3053 
L 172 3053 
L 172 3500 
L 594 3500 
L 594 4494 
L 1172 4494 
z
" transform="scale(0.015625)"/>
       <path id="DejaVuSans-68" d="M 3513 2113 
L 3513 0 
L 2938 0 
L 2938 2094 
Q 2938 2591 2744 2837 
Q 2550 3084 2163 3084 
Q 1697 3084 1428 2787 
Q 1159 2491 1159 1978 
L 1159 0 
L 581 0 
L 581 4863 
L 1159 4863 
L 1159 2956 
Q 1366 3272 1645 3428 
Q 1925 3584 2291 3584 
Q 2894 3584 3203 3211 
Q 3513 2838 3513 2113 
z
" transform="scale(0.015625)"/>
       <path id="DejaVuSans-64" d="M 2906 2969 
L 2906 4863 
L 3481 4863 
L 3481 0 
L 2906 0 
L 2906 525 
Q 2725 213 2448 61 
Q 2172 -91 1784 -91 
Q 1150 -91 751 415 
Q 353 922 353 1747 
Q 353 2572 751 3078 
Q 1150 3584 1784 3584 
Q 2172 3584 2448 3432 
Q 2725 3281 2906 2969 
z
M 947 1747 
Q 947 1113 1208 752 
Q 1469 391 1925 391 
Q 2381 391 2643 752 
Q 2906 1113 2906 1747 
Q 2906 2381 2643 2742 
Q 2381 3103 1925 3103 
Q 1469 3103 1208 2742 
Q 947 2381 947 1747 
z
" transform="scale(0.015625)"/>
       <path id="DejaVuSans-61" d="M 2194 1759 
Q 1497 1759 1228 1600 
Q 959 1441 959 1056 
Q 959 750 1161 570 
Q 1363 391 1709 391 
Q 2188 391 2477 730 
Q 2766 1069 2766 1631 
L 2766 1759 
L 2194 1759 
z
M 3341 1997 
L 3341 0 
L 2766 0 
L 2766 531 
Q 2569 213 2275 61 
Q 1981 -91 1556 -91 
Q 1019 -91 701 211 
Q 384 513 384 1019 
Q 384 1609 779 1909 
Q 1175 2209 1959 2209 
L 2766 2209 
L 2766 2266 
Q 2766 2663 2505 2880 
Q 2244 3097 1772 3097 
Q 1472 3097 1187 3025 
Q 903 2953 641 2809 
L 641 3341 
Q 956 3463 1253 3523 
Q 1550 3584 1831 3584 
Q 2591 3584 2966 3190 
Q 3341 2797 3341 1997 
z
" transform="scale(0.015625)"/>
       <path id="DejaVuSans-79" d="M 2059 -325 
Q 1816 -950 1584 -1140 
Q 1353 -1331 966 -1331 
L 506 -1331 
L 506 -850 
L 844 -850 
Q 1081 -850 1212 -737 
Q 1344 -625 1503 -206 
L 1606 56 
L 191 3500 
L 800 3500 
L 1894 763 
L 2988 3500 
L 3597 3500 
L 2059 -325 
z
" transform="scale(0.015625)"/>
      </defs>
      <use xlink:href="#DejaVuSans-54"/>
      <use xlink:href="#DejaVuSans-69" x="57.958984"/>
      <use xlink:href="#DejaVuSans-6d" x="85.742188"/>
      <use xlink:href="#DejaVuSans-65" x="183.154297"/>
      <use xlink:href="#DejaVuSans-20" x="244.677734"/>
      <use xlink:href="#DejaVuSans-6f" x="276.464844"/>
      <use xlink:href="#DejaVuSans-66" x="337.646484"/>
      <use xlink:href="#DejaVuSans-20" x="372.851562"/>
      <use xlink:href="#DejaVuSans-74" x="404.638672"/>
      <use xlink:href="#DejaVuSans-68" x="443.847656"/>
      <use xlink:href="#DejaVuSans-65" x="507.226562"/>
      <use xlink:href="#DejaVuSans-20" x="568.75"/>
      <use xlink:href="#DejaVuSans-64" x="600.537109"/>
      <use xlink:href="#DejaVuSans-61" x="664.013672"/>
      <use xlink:href="#DejaVuSans-79" x="725.292969"/>
     </g>
    </g>
   </g>
   <g id="matplotlib.axis_2">
    <g id="ytick_1">
     <g id="line2d_25">
      <defs>
       <path id="m71a21233a4" d="M 0 0 
L -3.5 0 
" style="stroke: #000000; stroke-width: 0.8"/>
      </defs>
      <g>
       <use xlink:href="#m71a21233a4" x="54.15" y="312.094656" style="stroke: #000000; stroke-width: 0.8"/>
      </g>
     </g>
     <g id="text_26">
      <!-- 0 -->
      <g transform="translate(40.7875 315.893875) scale(0.1 -0.1)">
       <use xlink:href="#DejaVuSans-30"/>
      </g>
     </g>
    </g>
    <g id="ytick_2">
     <g id="line2d_26">
      <g>
       <use xlink:href="#m71a21233a4" x="54.15" y="265.187786" style="stroke: #000000; stroke-width: 0.8"/>
      </g>
     </g>
     <g id="text_27">
      <!-- 200 -->
      <g transform="translate(28.0625 268.987005) scale(0.1 -0.1)">
       <use xlink:href="#DejaVuSans-32"/>
       <use xlink:href="#DejaVuSans-30" x="63.623047"/>
       <use xlink:href="#DejaVuSans-30" x="127.246094"/>
      </g>
     </g>
    </g>
    <g id="ytick_3">
     <g id="line2d_27">
      <g>
       <use xlink:href="#m71a21233a4" x="54.15" y="218.280916" style="stroke: #000000; stroke-width: 0.8"/>
      </g>
     </g>
     <g id="text_28">
      <!-- 400 -->
      <g transform="translate(28.0625 222.080135) scale(0.1 -0.1)">
       <use xlink:href="#DejaVuSans-34"/>
       <use xlink:href="#DejaVuSans-30" x="63.623047"/>
       <use xlink:href="#DejaVuSans-30" x="127.246094"/>
      </g>
     </g>
    </g>
    <g id="ytick_4">
     <g id="line2d_28">
      <g>
       <use xlink:href="#m71a21233a4" x="54.15" y="171.374046" style="stroke: #000000; stroke-width: 0.8"/>
      </g>
     </g>
     <g id="text_29">
      <!-- 600 -->
      <g transform="translate(28.0625 175.173265) scale(0.1 -0.1)">
       <use xlink:href="#DejaVuSans-36"/>
       <use xlink:href="#DejaVuSans-30" x="63.623047"/>
       <use xlink:href="#DejaVuSans-30" x="127.246094"/>
      </g>
     </g>
    </g>
    <g id="ytick_5">
     <g id="line2d_29">
      <g>
       <use xlink:href="#m71a21233a4" x="54.15" y="124.467176" style="stroke: #000000; stroke-width: 0.8"/>
      </g>
     </g>
     <g id="text_30">
      <!-- 800 -->
      <g transform="translate(28.0625 128.266394) scale(0.1 -0.1)">
       <use xlink:href="#DejaVuSans-38"/>
       <use xlink:href="#DejaVuSans-30" x="63.623047"/>
       <use xlink:href="#DejaVuSans-30" x="127.246094"/>
      </g>
     </g>
    </g>
    <g id="ytick_6">
     <g id="line2d_30">
      <g>
       <use xlink:href="#m71a21233a4" x="54.15" y="77.560305" style="stroke: #000000; stroke-width: 0.8"/>
      </g>
     </g>
     <g id="text_31">
      <!-- 1000 -->
      <g transform="translate(21.7 81.359524) scale(0.1 -0.1)">
       <use xlink:href="#DejaVuSans-31"/>
       <use xlink:href="#DejaVuSans-30" x="63.623047"/>
       <use xlink:href="#DejaVuSans-30" x="127.246094"/>
       <use xlink:href="#DejaVuSans-30" x="190.869141"/>
      </g>
     </g>
    </g>
    <g id="ytick_7">
     <g id="line2d_31">
      <g>
       <use xlink:href="#m71a21233a4" x="54.15" y="30.653435" style="stroke: #000000; stroke-width: 0.8"/>
      </g>
     </g>
     <g id="text_32">
      <!-- 1200 -->
      <g transform="translate(21.7 34.452654) scale(0.1 -0.1)">
       <use xlink:href="#DejaVuSans-31"/>
       <use xlink:href="#DejaVuSans-32" x="63.623047"/>
       <use xlink:href="#DejaVuSans-30" x="127.246094"/>
       <use xlink:href="#DejaVuSans-30" x="190.869141"/>
      </g>
     </g>
    </g>
    <g id="text_33">
     <!-- Solar irradiance [W/m$^2$] -->
     <g transform="translate(15.620312 219.77) rotate(-90) scale(0.1 -0.1)">
      <defs>
       <path id="DejaVuSans-53" d="M 3425 4513 
L 3425 3897 
Q 3066 4069 2747 4153 
Q 2428 4238 2131 4238 
Q 1616 4238 1336 4038 
Q 1056 3838 1056 3469 
Q 1056 3159 1242 3001 
Q 1428 2844 1947 2747 
L 2328 2669 
Q 3034 2534 3370 2195 
Q 3706 1856 3706 1288 
Q 3706 609 3251 259 
Q 2797 -91 1919 -91 
Q 1588 -91 1214 -16 
Q 841 59 441 206 
L 441 856 
Q 825 641 1194 531 
Q 1563 422 1919 422 
Q 2459 422 2753 634 
Q 3047 847 3047 1241 
Q 3047 1584 2836 1778 
Q 2625 1972 2144 2069 
L 1759 2144 
Q 1053 2284 737 2584 
Q 422 2884 422 3419 
Q 422 4038 858 4394 
Q 1294 4750 2059 4750 
Q 2388 4750 2728 4690 
Q 3069 4631 3425 4513 
z
" transform="scale(0.015625)"/>
       <path id="DejaVuSans-6c" d="M 603 4863 
L 1178 4863 
L 1178 0 
L 603 0 
L 603 4863 
z
" transform="scale(0.015625)"/>
       <path id="DejaVuSans-72" d="M 2631 2963 
Q 2534 3019 2420 3045 
Q 2306 3072 2169 3072 
Q 1681 3072 1420 2755 
Q 1159 2438 1159 1844 
L 1159 0 
L 581 0 
L 581 3500 
L 1159 3500 
L 1159 2956 
Q 1341 3275 1631 3429 
Q 1922 3584 2338 3584 
Q 2397 3584 2469 3576 
Q 2541 3569 2628 3553 
L 2631 2963 
z
" transform="scale(0.015625)"/>
       <path id="DejaVuSans-6e" d="M 3513 2113 
L 3513 0 
L 2938 0 
L 2938 2094 
Q 2938 2591 2744 2837 
Q 2550 3084 2163 3084 
Q 1697 3084 1428 2787 
Q 1159 2491 1159 1978 
L 1159 0 
L 581 0 
L 581 3500 
L 1159 3500 
L 1159 2956 
Q 1366 3272 1645 3428 
Q 1925 3584 2291 3584 
Q 2894 3584 3203 3211 
Q 3513 2838 3513 2113 
z
" transform="scale(0.015625)"/>
       <path id="DejaVuSans-63" d="M 3122 3366 
L 3122 2828 
Q 2878 2963 2633 3030 
Q 2388 3097 2138 3097 
Q 1578 3097 1268 2742 
Q 959 2388 959 1747 
Q 959 1106 1268 751 
Q 1578 397 2138 397 
Q 2388 397 2633 464 
Q 2878 531 3122 666 
L 3122 134 
Q 2881 22 2623 -34 
Q 2366 -91 2075 -91 
Q 1284 -91 818 406 
Q 353 903 353 1747 
Q 353 2603 823 3093 
Q 1294 3584 2113 3584 
Q 2378 3584 2631 3529 
Q 2884 3475 3122 3366 
z
" transform="scale(0.015625)"/>
       <path id="DejaVuSans-5b" d="M 550 4863 
L 1875 4863 
L 1875 4416 
L 1125 4416 
L 1125 -397 
L 1875 -397 
L 1875 -844 
L 550 -844 
L 550 4863 
z
" transform="scale(0.015625)"/>
       <path id="DejaVuSans-57" d="M 213 4666 
L 850 4666 
L 1831 722 
L 2809 4666 
L 3519 4666 
L 4500 722 
L 5478 4666 
L 6119 4666 
L 4947 0 
L 4153 0 
L 3169 4050 
L 2175 0 
L 1381 0 
L 213 4666 
z
" transform="scale(0.015625)"/>
       <path id="DejaVuSans-2f" d="M 1625 4666 
L 2156 4666 
L 531 -594 
L 0 -594 
L 1625 4666 
z
" transform="scale(0.015625)"/>
       <path id="DejaVuSans-5d" d="M 1947 4863 
L 1947 -844 
L 622 -844 
L 622 -397 
L 1369 -397 
L 1369 4416 
L 622 4416 
L 622 4863 
L 1947 4863 
z
" transform="scale(0.015625)"/>
      </defs>
      <use xlink:href="#DejaVuSans-53" transform="translate(0 0.765625)"/>
      <use xlink:href="#DejaVuSans-6f" transform="translate(63.476562 0.765625)"/>
      <use xlink:href="#DejaVuSans-6c" transform="translate(124.658203 0.765625)"/>
      <use xlink:href="#DejaVuSans-61" transform="translate(152.441406 0.765625)"/>
      <use xlink:href="#DejaVuSans-72" transform="translate(213.720703 0.765625)"/>
      <use xlink:href="#DejaVuSans-20" transform="translate(254.833984 0.765625)"/>
      <use xlink:href="#DejaVuSans-69" transform="translate(286.621094 0.765625)"/>
      <use xlink:href="#DejaVuSans-72" transform="translate(314.404297 0.765625)"/>
      <use xlink:href="#DejaVuSans-72" transform="translate(355.517578 0.765625)"/>
      <use xlink:href="#DejaVuSans-61" transform="translate(396.630859 0.765625)"/>
      <use xlink:href="#DejaVuSans-64" transform="translate(457.910156 0.765625)"/>
      <use xlink:href="#DejaVuSans-69" transform="translate(521.386719 0.765625)"/>
      <use xlink:href="#DejaVuSans-61" transform="translate(549.169922 0.765625)"/>
      <use xlink:href="#DejaVuSans-6e" transform="translate(610.449219 0.765625)"/>
      <use xlink:href="#DejaVuSans-63" transform="translate(673.828125 0.765625)"/>
      <use xlink:href="#DejaVuSans-65" transform="translate(728.808594 0.765625)"/>
      <use xlink:href="#DejaVuSans-20" transform="translate(790.332031 0.765625)"/>
      <use xlink:href="#DejaVuSans-5b" transform="translate(822.119141 0.765625)"/>
      <use xlink:href="#DejaVuSans-57" transform="translate(861.132812 0.765625)"/>
      <use xlink:href="#DejaVuSans-2f" transform="translate(960.009766 0.765625)"/>
      <use xlink:href="#DejaVuSans-6d" transform="translate(993.701172 0.765625)"/>
      <use xlink:href="#DejaVuSans-32" transform="translate(1092.070312 39.046875) scale(0.7)"/>
      <use xlink:href="#DejaVuSans-5d" transform="translate(1139.34082 0.765625)"/>
     </g>
    </g>
   </g>
   <g id="line2d_32">
    <path d="M 54.15 312.094656 
L 136.978123 312.071203 
L 137.378259 311.860122 
L 138.978802 311.860122 
L 139.779074 311.625588 
L 140.579345 311.578681 
L 140.979481 311.391053 
L 141.379617 311.3676 
L 142.179889 311.062705 
L 143.380296 310.452916 
L 145.380976 309.162977 
L 146.981519 307.732317 
L 147.781791 307.427423 
L 148.181927 307.638504 
L 148.982198 307.380516 
L 149.78247 307.075621 
L 150.182606 306.934901 
L 150.582742 306.934901 
L 150.982878 306.72382 
L 151.783149 306.700366 
L 152.583421 306.231298 
L 152.983557 306.184391 
L 154.183965 305.433881 
L 154.5841 305.29316 
L 155.784508 305.29316 
L 156.184644 305.504241 
L 158.185323 305.527695 
L 160.186002 305.527695 
L 160.986274 305.90295 
L 162.186682 306.958354 
L 162.586818 307.169435 
L 162.986953 306.934901 
L 163.387089 306.536192 
L 164.187361 305.269707 
L 165.387769 302.642922 
L 166.988312 298.93728 
L 167.388448 289.039929 
L 167.788584 282.238433 
L 168.18872 287.234015 
L 168.588855 290.517496 
L 168.988991 291.338366 
L 169.389127 297.43626 
L 169.789263 296.943738 
L 170.189399 283.739453 
L 170.589535 288.1487 
L 170.989671 297.670794 
L 171.389806 301.634425 
L 171.789942 302.361481 
L 172.190078 302.736736 
L 172.590214 301.493704 
L 172.99035 295.161277 
L 173.390486 301.282623 
L 174.190757 300.063044 
L 174.590893 286.835308 
L 174.991029 283.57528 
L 175.391165 275.788738 
L 175.791301 292.440677 
L 176.191437 281.910086 
L 176.591573 274.404987 
L 176.991708 277.055226 
L 178.192116 293.519537 
L 178.592252 296.591936 
L 178.992388 297.154818 
L 179.392524 296.920285 
L 181.393203 293.68371 
L 181.793339 293.472629 
L 182.193475 290.939659 
L 182.59361 293.00356 
L 182.993746 294.36386 
L 183.393882 286.694586 
L 183.794018 264.249649 
L 184.194154 260.004576 
L 184.59429 257.987582 
L 184.994426 256.908723 
L 185.394562 269.198325 
L 185.794697 277.360118 
L 186.194833 260.614366 
L 186.594969 280.526331 
L 186.995105 280.9954 
L 187.395241 257.424698 
L 187.795377 251.162635 
L 188.195513 250.857736 
L 188.595648 250.247945 
L 188.995784 276.562702 
L 189.39592 289.227557 
L 189.796056 289.884254 
L 190.196192 281.605191 
L 190.596328 290.423682 
L 190.996464 285.662636 
L 191.396599 256.369293 
L 191.796735 247.714977 
L 192.196871 245.08819 
L 193.397279 243.915518 
L 193.797415 243.047745 
L 194.597686 240.655492 
L 194.997822 240.116066 
L 195.798094 238.49778 
L 196.19823 237.536188 
L 196.598366 236.175884 
L 196.998501 234.393429 
L 197.398637 236.340061 
L 197.798773 236.386971 
L 198.198909 229.397843 
L 198.999181 224.871333 
L 200.599724 213.98894 
L 200.99986 211.807767 
L 201.399996 211.760864 
L 201.800132 213.426052 
L 202.200268 235.659913 
L 202.600403 250.928101 
L 203.000539 203.833599 
L 203.400675 245.721435 
L 203.800811 209.743867 
L 204.200947 206.95291 
L 204.601083 207.72687 
L 205.001219 217.248966 
L 205.401354 213.566774 
L 205.80149 207.140534 
L 206.201626 207.281256 
L 206.601762 208.336661 
L 207.001898 209.954947 
L 207.402034 208.782275 
L 207.80217 209.345156 
L 208.202305 210.752362 
L 208.602441 210.846174 
L 209.002577 259.347882 
L 209.402713 282.613689 
L 209.802849 281.511379 
L 210.202985 255.806412 
L 210.603121 206.835643 
L 211.003256 204.842101 
L 211.403392 207.891047 
L 211.803528 214.739446 
L 212.203664 205.100083 
L 212.6038 204.842101 
L 213.003936 222.737069 
L 213.404072 251.866238 
L 213.804207 255.900225 
L 214.204343 256.814911 
L 214.604479 262.467186 
L 215.004615 262.467186 
L 215.404751 258.269023 
L 215.804887 260.520554 
L 216.205023 270.441354 
L 216.605158 274.451893 
L 217.005294 270.840066 
L 217.805566 252.288397 
L 218.205702 247.996421 
L 218.605838 247.808789 
L 219.005974 254.868275 
L 219.806245 263.639858 
L 220.206381 265.774122 
L 220.606517 264.226194 
L 221.006653 260.56746 
L 221.806925 258.480102 
L 222.20706 253.179628 
L 222.607196 249.591252 
L 223.407468 253.836325 
L 223.807604 254.821369 
L 224.20774 254.586834 
L 224.607876 252.640198 
L 225.008011 250.036866 
L 225.408147 248.934559 
L 225.808283 250.341765 
L 226.208419 253.507975 
L 227.408827 264.718718 
L 227.808962 266.45427 
L 228.609234 264.81253 
L 229.00937 266.149379 
L 229.409506 266.524631 
L 229.809642 264.32001 
L 230.209778 263.264605 
L 230.609913 261.552504 
L 231.010049 257.917221 
L 231.410185 252.100769 
L 232.210457 237.160931 
L 232.610593 232.634421 
L 233.010729 235.800635 
L 234.611272 259.676229 
L 235.011408 263.639858 
L 235.411544 262.185746 
L 236.611951 242.25033 
L 237.012087 239.27174 
L 237.412223 247.691522 
L 237.812359 247.5508 
L 238.212495 250.341765 
L 239.412902 280.080718 
L 239.813038 286.7884 
L 240.213174 290.306415 
L 241.013446 293.707163 
L 241.413582 294.551486 
L 241.813718 294.105872 
L 242.213853 293.449176 
L 242.613989 292.464132 
L 243.414261 288.500501 
L 244.214533 281.769364 
L 244.614669 280.50288 
L 245.014804 280.50288 
L 245.41494 281.956992 
L 245.815076 285.240473 
L 246.615348 294.6453 
L 247.015484 297.741154 
L 247.41562 299.312534 
L 247.815755 299.265627 
L 248.215891 297.694247 
L 248.616027 294.809476 
L 249.816435 283.03585 
L 250.616706 274.451893 
L 251.016842 273.326128 
L 251.817114 281.53483 
L 252.21725 282.684048 
L 252.617386 281.792819 
L 253.817793 275.132041 
L 254.217929 273.724835 
L 254.618065 271.56712 
L 255.018201 267.439317 
L 256.218608 245.721435 
L 256.618744 246.542305 
L 257.01888 253.578336 
L 257.419016 254.328845 
L 257.819152 255.829867 
L 258.219288 258.057943 
L 258.619424 256.697643 
L 259.019559 256.955629 
L 259.419695 258.339384 
L 259.819831 261.224157 
L 260.219967 262.232652 
L 260.620103 260.215659 
L 261.020239 260.919262 
L 261.420375 260.403287 
L 261.82051 259.113348 
L 262.220646 264.296555 
L 262.620782 266.17283 
L 263.020918 264.81253 
L 263.421054 262.514096 
L 264.221326 252.429119 
L 264.621461 252.311852 
L 265.421733 263.686768 
L 265.821869 263.968208 
L 266.222005 264.835985 
L 266.622141 266.899888 
L 267.022277 264.765624 
L 267.422412 260.28602 
L 267.822548 252.429119 
L 268.62282 229.749644 
L 269.022956 227.474665 
L 269.423092 232.517154 
L 269.823228 233.525649 
L 270.223363 228.811507 
L 271.023635 176.346177 
L 271.423771 192.810484 
L 271.823907 176.557249 
L 272.624179 237.325108 
L 273.024314 228.48316 
L 273.42445 231.555562 
L 273.824586 245.439991 
L 274.224722 255.102809 
L 275.024994 264.437277 
L 275.42513 263.475685 
L 275.825265 259.840402 
L 276.225401 253.789415 
L 276.625537 249.427075 
L 277.025673 247.527352 
L 277.425809 247.38663 
L 278.226081 251.96005 
L 278.626216 252.17113 
L 279.026352 251.561339 
L 279.426488 253.883231 
L 280.22676 263.475685 
L 280.626896 264.366916 
L 281.427167 257.870315 
L 281.827303 256.298936 
L 282.227439 254.235033 
L 282.627575 255.17317 
L 284.228118 273.724835 
L 284.628254 276.187446 
L 285.428526 277.688468 
L 285.828662 279.283302 
L 286.228798 281.394111 
L 286.628934 282.543328 
L 287.029069 281.722458 
L 287.429205 279.705461 
L 287.829341 278.415522 
L 288.229477 278.908046 
L 289.029749 282.21498 
L 289.429885 282.848224 
L 289.830021 282.121166 
L 290.230156 280.104172 
L 290.630292 276.679969 
L 291.430564 266.407364 
L 292.630972 250.060321 
L 293.431243 243.352637 
L 293.831379 241.851618 
L 294.231515 241.921976 
L 294.631651 242.695943 
L 295.031787 242.953933 
L 295.431923 241.734351 
L 295.832058 239.48282 
L 296.63233 232.822046 
L 297.032466 228.365893 
L 297.432602 221.376772 
L 297.832738 210.424015 
L 298.633009 181.505933 
L 299.033145 143.300281 
L 299.433281 124.6548 
L 299.833417 176.299267 
L 300.233553 206.13204 
L 300.633689 209.157531 
L 301.43396 204.748281 
L 301.834096 206.366574 
L 302.234232 210.048759 
L 302.634368 200.972284 
L 303.034504 186.079352 
L 303.43464 194.757123 
L 304.234911 205.616061 
L 305.435319 233.713273 
L 305.835455 241.218373 
L 306.235591 245.463446 
L 306.635727 246.073237 
L 307.435998 241.570174 
L 308.23627 230.851959 
L 309.836813 220.180646 
L 310.236949 216.709533 
L 310.637085 212.183023 
L 311.037221 210.119123 
L 311.437357 218.609263 
L 311.837493 219.969566 
L 312.637764 228.272081 
L 313.838172 241.898528 
L 314.638444 247.855699 
L 315.438715 251.35026 
L 316.238987 255.806412 
L 316.639123 257.706142 
L 317.039259 261.200702 
L 317.439395 267.744209 
L 317.839531 271.684387 
L 318.239666 273.021232 
L 318.639802 273.232315 
L 319.039938 273.724835 
L 319.440074 274.967868 
L 319.84021 278.60315 
L 320.640482 289.579359 
L 321.040617 295.559985 
L 321.440753 299.851963 
L 321.840889 301.493704 
L 322.241025 300.109952 
L 322.641161 294.528033 
L 323.841568 261.224157 
L 324.241704 255.876773 
L 325.442112 246.800295 
L 325.842248 245.205457 
L 326.242384 245.74489 
L 326.642519 247.785335 
L 327.442791 258.151756 
L 328.243063 268.823069 
L 328.643199 270.675889 
L 329.043335 268.987242 
L 329.843606 261.435237 
L 330.243742 259.136799 
L 330.643878 258.503557 
L 331.044014 260.403287 
L 331.44415 263.053522 
L 331.844286 264.249649 
L 332.244421 266.829527 
L 333.444829 280.455974 
L 333.844965 295.32545 
L 334.245101 288.265967 
L 334.645237 286.858761 
L 335.045372 287.069842 
L 335.445508 284.818311 
L 335.845644 279.893089 
L 336.645916 261.716677 
L 337.046052 252.663653 
L 337.446188 248.887649 
L 337.846323 252.053863 
L 338.646595 266.079018 
L 339.046731 268.354 
L 339.847003 267.626942 
L 341.04741 271.168412 
L 341.447546 271.520214 
L 341.847682 272.481806 
L 343.448226 277.641562 
L 343.848361 277.055226 
L 345.048769 264.953252 
L 345.849041 262.95971 
L 346.649312 258.151756 
L 347.049448 257.260524 
L 347.449584 257.84686 
L 348.249856 261.740132 
L 348.649992 262.326468 
L 349.050128 261.271063 
L 349.450263 259.230615 
L 349.850399 256.252026 
L 351.050807 239.201383 
L 351.450943 238.896484 
L 352.251214 257.330885 
L 352.65135 262.842443 
L 353.051486 261.317969 
L 353.451622 254.399206 
L 353.851758 250.036866 
L 354.251894 253.109267 
L 354.65203 257.495059 
L 355.052165 258.034489 
L 355.452301 255.876773 
L 355.852437 252.616744 
L 357.052845 238.333603 
L 357.452981 236.082072 
L 357.853116 236.316606 
L 358.253252 239.975344 
L 359.053524 250.036866 
L 359.45366 252.757466 
L 360.654067 266.243191 
L 361.054203 269.17487 
L 361.454339 270.277181 
L 361.854475 270.183369 
L 362.254611 270.347542 
L 362.654747 272.38799 
L 363.054883 276.46889 
L 363.455018 278.837685 
L 363.855154 276.891049 
L 364.655426 270.25373 
L 365.055562 266.055563 
L 365.455698 264.577996 
L 365.855834 267.626942 
L 366.255969 272.950875 
L 366.656105 276.375074 
L 367.056241 275.976366 
L 367.456377 272.599073 
L 368.256649 264.179288 
L 368.656785 261.92776 
L 369.457056 260.23911 
L 369.857192 258.409745 
L 370.257328 257.330885 
L 370.657464 257.870315 
L 371.0576 259.066438 
L 371.457736 257.659232 
L 371.857871 262.912804 
L 372.258007 263.733674 
L 372.658143 263.99166 
L 373.058279 263.334966 
L 373.858551 259.488601 
L 374.258687 258.644279 
L 374.658822 259.089893 
L 375.058958 260.450193 
L 376.259366 268.565079 
L 376.659502 269.339044 
L 377.059638 268.916881 
L 377.459773 267.110967 
L 377.859909 266.594992 
L 378.260045 267.486224 
L 378.660181 266.50118 
L 379.860589 258.972626 
L 380.260724 259.371334 
L 380.66086 263.147338 
L 381.861268 277.336666 
L 382.261404 278.86114 
L 382.66154 276.633063 
L 383.061675 279.424021 
L 383.861947 288.781942 
L 384.262083 292.276504 
L 384.662219 294.058965 
L 385.062355 294.856382 
L 385.462491 296.638842 
L 385.862626 297.50662 
L 386.262762 297.670794 
L 386.662898 297.037552 
L 387.063034 291.596354 
L 387.46317 276.937959 
L 387.863306 276.937959 
L 388.263442 281.933537 
L 388.663577 288.453593 
L 389.063713 291.29146 
L 389.463849 290.282962 
L 389.863985 290.024974 
L 390.264121 292.018516 
L 391.064393 299.054547 
L 391.464528 299.82851 
L 391.864664 299.89887 
L 392.2648 299.453255 
L 392.664936 297.037552 
L 393.065072 290.329868 
L 393.865344 269.221776 
L 394.265479 269.221776 
L 394.665615 274.475348 
L 395.465887 260.473644 
L 395.866023 259.066438 
L 396.266159 263.663313 
L 396.666295 270.488264 
L 397.466566 287.140201 
L 398.266838 293.331908 
L 399.06711 298.913826 
L 399.867382 302.807097 
L 400.267517 303.627967 
L 400.667653 303.5107 
L 401.067789 302.854003 
L 401.467925 301.939319 
L 401.868061 301.986226 
L 402.668333 304.847545 
L 403.068468 305.15244 
L 403.86874 304.964812 
L 404.268876 304.988266 
L 405.069148 303.58106 
L 405.469284 303.299618 
L 406.269555 303.65142 
L 406.669691 302.947817 
L 407.069827 300.954275 
L 407.870099 295.606891 
L 408.67037 291.432181 
L 409.470642 286.811853 
L 409.870778 284.724498 
L 410.270914 283.293837 
L 411.071186 282.613689 
L 411.871457 285.029392 
L 412.271593 283.317292 
L 413.071865 273.935918 
L 413.472001 266.032111 
L 414.272272 228.881872 
L 414.672408 193.373365 
L 415.072544 124.959692 
L 415.47268 101.998788 
L 415.872816 125.100421 
L 416.272952 172.851609 
L 416.673088 190.207151 
L 417.073223 214.692543 
L 417.473359 247.621165 
L 417.873495 266.266646 
L 418.273631 278.180988 
L 418.673767 284.372697 
L 419.073903 288.1487 
L 419.474039 290.189148 
L 420.27431 292.206143 
L 421.074582 293.378815 
L 421.474718 294.598394 
L 422.27499 297.342445 
L 422.675125 297.43626 
L 423.075261 296.263588 
L 423.475397 294.270046 
L 424.675805 286.671132 
L 425.075941 285.756448 
L 425.476076 287.656178 
L 425.876212 290.259509 
L 426.276348 291.596354 
L 426.676484 290.775484 
L 427.07662 287.515456 
L 427.876892 278.392071 
L 428.277027 275.577659 
L 428.677163 274.686427 
L 429.077299 277.125583 
L 429.477435 281.628646 
L 430.677843 288.96957 
L 431.077978 290.212601 
L 431.478114 290.869298 
L 431.87825 291.760529 
L 432.678522 294.481127 
L 433.078658 294.879835 
L 433.478794 293.68371 
L 433.878929 290.986565 
L 434.279065 290.118789 
L 434.679201 291.971608 
L 435.079337 293.050468 
L 435.479473 293.308455 
L 435.879609 294.316952 
L 436.67988 296.920285 
L 437.480152 301.282623 
L 437.880288 302.502201 
L 438.280424 302.103493 
L 438.68056 307.943398 
L 439.080696 307.310156 
L 439.480831 304.730278 
L 439.880967 304.613011 
L 440.681239 303.885954 
L 441.081375 304.097035 
L 441.481511 305.105533 
L 441.881647 304.917905 
L 443.082054 301.986226 
L 444.682598 295.86488 
L 445.082733 295.137822 
L 445.883005 293.331908 
L 446.283141 290.517496 
L 446.683277 289.485545 
L 447.483549 284.278883 
L 447.883685 286.10825 
L 448.28382 285.639181 
L 449.084092 283.973987 
L 449.484228 283.387652 
L 449.884364 283.03585 
L 450.2845 283.059303 
L 450.684636 283.317292 
L 451.484907 284.419603 
L 452.685315 286.342784 
L 453.085451 286.530412 
L 453.485587 286.131705 
L 453.885722 285.170112 
L 454.285858 284.654137 
L 455.08613 284.654137 
L 455.486266 284.513417 
L 456.286538 283.85672 
L 457.086809 283.692547 
L 457.486945 283.03585 
L 458.287217 280.104172 
L 458.687353 279.400569 
L 459.087489 279.001858 
L 459.487624 274.28772 
L 459.88776 272.10655 
L 460.287896 276.398529 
L 460.688032 276.210901 
L 461.088168 276.46889 
L 462.688711 279.306753 
L 463.088847 279.916544 
L 463.488983 281.136122 
L 464.689391 286.694586 
L 465.089526 286.92912 
L 465.489662 285.756448 
L 465.889798 285.123206 
L 466.289934 285.21702 
L 466.69007 285.756448 
L 467.490342 287.937618 
L 467.890477 289.086837 
L 468.290613 289.696626 
L 468.690749 289.555906 
L 469.090885 289.063384 
L 469.491021 289.016476 
L 469.891157 289.391731 
L 470.291293 290.165695 
L 470.691428 291.221099 
L 471.4917 292.534491 
L 472.291972 293.308455 
L 473.092244 293.331908 
L 473.892515 294.176232 
L 474.692787 294.903288 
L 475.493059 295.208183 
L 476.29333 294.926743 
L 476.693466 294.739115 
L 477.493738 294.739115 
L 478.29401 294.973649 
L 479.094281 294.739115 
L 479.494417 294.739115 
L 479.894553 294.528033 
L 480.294689 294.50458 
L 481.094961 295.18473 
L 481.895232 296.193227 
L 482.295368 296.545028 
L 483.495776 296.68575 
L 484.296048 297.272085 
L 485.096319 297.975688 
L 485.896591 298.585478 
L 487.497134 300.250672 
L 491.098357 302.478748 
L 491.898629 302.877457 
L 494.299444 304.495743 
L 495.499852 305.97331 
L 496.700259 307.521237 
L 497.900667 308.576641 
L 499.101074 309.303698 
L 500.301482 309.890034 
L 503.102433 310.68745 
L 503.502569 310.710904 
L 503.902705 310.921985 
L 507.503927 310.921985 
L 507.904063 311.133066 
L 509.104471 311.29724 
L 509.904743 311.391053 
L 510.705014 311.43796 
L 511.10515 311.625588 
L 513.105829 311.625588 
L 513.906101 311.860122 
L 516.707052 311.860122 
L 517.107188 312.071203 
L 519.107867 312.094656 
L 629.9455 312.094656 
L 629.9455 312.094656 
" clip-path="url(#p6955db064a)" style="fill: none; stroke: #ffae49; stroke-width: 1.5; stroke-linecap: square"/>
   </g>
   <g id="line2d_33">
    <path d="M 54.15 312.094656 
L 223.807604 312.094656 
L 224.20774 311.907029 
L 225.408147 311.860122 
L 229.809642 311.860122 
L 230.609913 311.625588 
L 231.410185 311.625588 
L 231.810321 311.43796 
L 232.210457 311.391053 
L 232.610593 311.203426 
L 233.010729 311.156519 
L 234.211136 310.734357 
L 234.611272 310.68745 
L 235.411544 310.452916 
L 236.211815 310.452916 
L 236.611951 310.265289 
L 237.012087 310.218382 
L 237.412223 309.983847 
L 238.212495 309.983847 
L 238.612631 310.171475 
L 240.213174 310.030754 
L 240.61331 310.218382 
L 242.213853 310.171475 
L 242.613989 309.983847 
L 243.414261 309.936941 
L 243.814397 309.749313 
L 245.014804 309.749313 
L 245.815076 309.514779 
L 247.015484 309.514779 
L 247.815755 309.280244 
L 248.215891 309.04571 
L 248.616027 309.04571 
L 249.816435 308.506281 
L 251.016842 308.107573 
L 252.617386 308.576641 
L 254.217929 308.107573 
L 254.618065 308.107573 
L 255.018201 307.990305 
L 255.818473 307.47433 
L 256.618744 307.403969 
L 257.01888 307.450877 
L 257.819152 308.084119 
L 259.419695 308.811176 
L 261.420375 308.342107 
L 261.82051 308.97535 
L 262.220646 310.054208 
L 262.620782 309.936941 
L 263.020918 309.561685 
L 263.421054 309.444418 
L 263.82119 309.890034 
L 264.221326 308.131026 
L 264.621461 305.809136 
L 265.021597 305.762229 
L 265.421733 305.856043 
L 266.222005 306.817634 
L 266.622141 307.122528 
L 267.822548 307.568144 
L 269.423092 307.005261 
L 269.823228 306.700366 
L 271.423771 306.231298 
L 272.224043 306.700366 
L 273.824586 306.747273 
L 274.224722 306.934901 
L 275.024994 306.958354 
L 275.42513 307.099075 
L 277.825945 306.231298 
L 278.626216 306.231298 
L 279.026352 306.395472 
L 279.826624 306.934901 
L 280.626896 306.958354 
L 281.027032 307.169435 
L 281.427167 307.122528 
L 281.827303 306.934901 
L 282.227439 306.934901 
L 282.627575 306.700366 
L 283.427847 306.700366 
L 283.827983 306.841087 
L 284.628254 308.084119 
L 285.02839 308.342107 
L 285.428526 308.342107 
L 285.828662 308.529734 
L 286.228798 308.576641 
L 286.628934 308.389014 
L 287.429205 308.318653 
L 287.829341 308.107573 
L 288.229477 308.107573 
L 291.8307 306.934901 
L 292.630972 306.911447 
L 293.831379 306.231298 
L 294.631651 307.052168 
L 295.031787 307.169435 
L 295.431923 307.122528 
L 296.232194 306.700366 
L 298.232874 306.72382 
L 298.633009 306.934901 
L 299.033145 306.934901 
L 299.433281 306.72382 
L 301.033825 305.457335 
L 301.43396 305.433881 
L 303.034504 306.231298 
L 304.234911 306.184391 
L 304.635047 305.996763 
L 305.035183 306.231298 
L 306.235591 306.231298 
L 306.635727 306.067123 
L 307.435998 305.105533 
L 308.23627 303.768687 
L 308.636406 303.369978 
L 309.436678 303.416885 
L 310.236949 303.65142 
L 311.037221 303.674873 
L 312.237629 305.058626 
L 312.637764 304.870999 
L 313.0379 304.917905 
L 313.438036 305.199347 
L 313.838172 305.29316 
L 314.638444 305.762229 
L 315.03858 305.762229 
L 315.438715 305.504241 
L 316.238987 304.824092 
L 316.639123 304.824092 
L 317.039259 305.035172 
L 318.239666 304.706824 
L 318.639802 304.683371 
L 319.039938 304.824092 
L 319.440074 304.824092 
L 319.84021 304.706824 
L 320.240346 304.40193 
L 320.640482 304.519197 
L 321.440753 304.941359 
L 323.041297 305.527695 
L 323.441433 305.433881 
L 323.841568 305.199347 
L 324.64184 305.2228 
L 325.041976 304.800638 
L 325.442112 304.706824 
L 325.842248 304.824092 
L 326.642519 305.29316 
L 327.442791 305.668415 
L 328.643199 306.653459 
L 329.043335 307.005261 
L 329.44347 307.568144 
L 329.843606 307.873038 
L 330.243742 307.802678 
L 331.044014 307.263249 
L 331.44415 307.54469 
L 332.244421 308.318653 
L 332.644557 308.553188 
L 333.044693 308.576641 
L 333.444829 308.459374 
L 334.645237 307.873038 
L 335.445508 307.873038 
L 336.645916 307.005261 
L 337.046052 306.864541 
L 337.446188 306.536192 
L 337.846323 306.04367 
L 339.446867 303.323071 
L 340.247139 302.572562 
L 341.447546 301.868959 
L 342.247818 300.813555 
L 343.04809 298.960733 
L 345.048769 292.464132 
L 345.448905 292.346865 
L 345.849041 293.988605 
L 346.649312 297.928781 
L 347.049448 299.054547 
L 348.249856 304.073582 
L 348.649992 304.894452 
L 349.850399 305.29316 
L 350.250535 305.15244 
L 351.050807 304.40193 
L 351.450943 304.120489 
L 352.251214 302.525655 
L 352.65135 302.361481 
L 353.851758 300.414846 
L 354.65203 300.602473 
L 355.052165 300.602473 
L 356.252573 301.798598 
L 357.452981 304.847545 
L 357.853116 305.035172 
L 358.253252 304.659917 
L 359.053524 302.642922 
L 359.45366 302.83055 
L 359.853796 303.182351 
L 360.253932 302.947817 
L 361.054203 301.587518 
L 361.454339 302.033132 
L 362.254611 304.026674 
L 362.654747 304.448837 
L 363.054883 304.589557 
L 363.455018 304.519197 
L 364.655426 302.783643 
L 365.055562 302.572562 
L 365.455698 302.642922 
L 365.855834 302.478748 
L 366.255969 302.713282 
L 366.656105 302.338028 
L 367.456377 300.57902 
L 367.856513 300.156858 
L 368.256649 300.203765 
L 369.05692 301.798598 
L 369.457056 302.689829 
L 369.857192 303.158898 
L 370.257328 302.807097 
L 370.657464 301.446797 
L 371.457736 296.709203 
L 371.857871 295.372357 
L 372.258007 294.621847 
L 372.658143 295.466171 
L 373.458415 299.945777 
L 373.858551 302.314574 
L 374.258687 303.299618 
L 374.658822 303.627967 
L 375.058958 304.355023 
L 375.459094 304.753731 
L 375.85923 303.932861 
L 376.659502 300.625926 
L 377.859909 298.913826 
L 378.260045 298.022595 
L 378.660181 297.43626 
L 379.460453 297.928781 
L 379.860589 296.732656 
L 380.260724 295.114369 
L 380.66086 294.528033 
L 381.060996 294.692208 
L 381.861268 295.888333 
L 382.66154 297.061005 
L 383.461811 297.952235 
L 383.861947 298.210223 
L 384.262083 298.25713 
L 384.662219 298.421304 
L 385.062355 298.374397 
L 385.462491 298.210223 
L 386.262762 297.623887 
L 386.662898 297.57698 
L 387.063034 297.788061 
L 387.46317 297.811514 
L 388.663577 296.615389 
L 389.463849 296.615389 
L 389.863985 296.849924 
L 390.264121 296.849924 
L 390.664257 297.201725 
L 391.464528 299.031093 
L 391.864664 299.124907 
L 392.2648 298.960733 
L 392.664936 299.382894 
L 394.665615 305.504241 
L 395.065751 306.278205 
L 395.465887 306.747273 
L 396.266159 307.169435 
L 397.866702 307.145982 
L 398.266838 306.934901 
L 399.06711 306.934901 
L 399.467246 307.145982 
L 399.867382 307.169435 
L 400.267517 307.075621 
L 400.667653 306.606553 
L 401.868061 304.378476 
L 402.268197 304.120489 
L 402.668333 304.120489 
L 405.069148 304.894452 
L 406.669691 306.114031 
L 407.870099 307.427423 
L 409.070506 308.271747 
L 409.870778 308.529734 
L 410.270914 308.342107 
L 411.071186 308.342107 
L 411.871457 308.107573 
L 412.671729 308.107573 
L 413.071865 308.248293 
L 414.672408 309.280244 
L 415.872816 309.397511 
L 416.673088 309.04571 
L 417.473359 309.04571 
L 417.873495 309.186431 
L 419.874174 309.04571 
L 421.074582 309.749313 
L 423.475397 309.772767 
L 423.875533 309.983847 
L 424.275669 309.79622 
L 425.075941 309.632046 
L 425.476076 309.514779 
L 425.876212 309.538232 
L 426.676484 309.86658 
L 427.876892 310.218382 
L 428.277027 310.218382 
L 429.077299 310.452916 
L 429.477435 310.499823 
L 430.277707 310.781264 
L 430.677843 310.921985 
L 431.077978 310.921985 
L 431.478114 311.133066 
L 432.278386 311.156519 
L 432.678522 311.344147 
L 433.078658 311.391053 
L 433.878929 311.625588 
L 435.079337 311.695948 
L 435.479473 311.860122 
L 437.880288 311.860122 
L 438.68056 311.43796 
L 439.880967 311.391053 
L 440.281103 311.461414 
L 441.081375 312.024296 
L 441.881647 312.094656 
L 629.9455 312.094656 
L 629.9455 312.094656 
" clip-path="url(#p6955db064a)" style="fill: none; stroke: #024b7a; stroke-width: 1.5; stroke-linecap: square"/>
   </g>
   <g id="patch_3">
    <path d="M 54.15 314.44 
L 54.15 7.2 
" style="fill: none; stroke: #000000; stroke-width: 0.8; stroke-linejoin: miter; stroke-linecap: square"/>
   </g>
   <g id="patch_4">
    <path d="M 629.9455 314.44 
L 629.9455 7.2 
" style="fill: none; stroke: #000000; stroke-width: 0.8; stroke-linejoin: miter; stroke-linecap: square"/>
   </g>
   <g id="patch_5">
    <path d="M 54.15 314.44 
L 629.9455 314.44 
" style="fill: none; stroke: #000000; stroke-width: 0.8; stroke-linejoin: miter; stroke-linecap: square"/>
   </g>
   <g id="patch_6">
    <path d="M 54.15 7.2 
L 629.9455 7.2 
" style="fill: none; stroke: #000000; stroke-width: 0.8; stroke-linejoin: miter; stroke-linecap: square"/>
   </g>
   <g id="legend_1">
    <g id="patch_7">
     <path d="M 548.51425 44.55625 
L 622.9455 44.55625 
Q 624.9455 44.55625 624.9455 42.55625 
L 624.9455 14.2 
Q 624.9455 12.2 622.9455 12.2 
L 548.51425 12.2 
Q 546.51425 12.2 546.51425 14.2 
L 546.51425 42.55625 
Q 546.51425 44.55625 548.51425 44.55625 
z
" style="fill: #ffffff; opacity: 0.8; stroke: #cccccc; stroke-linejoin: miter"/>
    </g>
    <g id="line2d_34">
     <path d="M 550.51425 20.298437 
L 560.51425 20.298437 
L 570.51425 20.298437 
" style="fill: none; stroke: #ffae49; stroke-width: 1.5; stroke-linecap: square"/>
    </g>
    <g id="text_34">
     <!-- Summer -->
     <g transform="translate(578.51425 23.798437) scale(0.1 -0.1)">
      <defs>
       <path id="DejaVuSans-75" d="M 544 1381 
L 544 3500 
L 1119 3500 
L 1119 1403 
Q 1119 906 1312 657 
Q 1506 409 1894 409 
Q 2359 409 2629 706 
Q 2900 1003 2900 1516 
L 2900 3500 
L 3475 3500 
L 3475 0 
L 2900 0 
L 2900 538 
Q 2691 219 2414 64 
Q 2138 -91 1772 -91 
Q 1169 -91 856 284 
Q 544 659 544 1381 
z
M 1991 3584 
L 1991 3584 
z
" transform="scale(0.015625)"/>
      </defs>
      <use xlink:href="#DejaVuSans-53"/>
      <use xlink:href="#DejaVuSans-75" x="63.476562"/>
      <use xlink:href="#DejaVuSans-6d" x="126.855469"/>
      <use xlink:href="#DejaVuSans-6d" x="224.267578"/>
      <use xlink:href="#DejaVuSans-65" x="321.679688"/>
      <use xlink:href="#DejaVuSans-72" x="383.203125"/>
     </g>
    </g>
    <g id="line2d_35">
     <path d="M 550.51425 34.976562 
L 560.51425 34.976562 
L 570.51425 34.976562 
" style="fill: none; stroke: #024b7a; stroke-width: 1.5; stroke-linecap: square"/>
    </g>
    <g id="text_35">
     <!-- Winter -->
     <g transform="translate(578.51425 38.476562) scale(0.1 -0.1)">
      <use xlink:href="#DejaVuSans-57"/>
      <use xlink:href="#DejaVuSans-69" x="96.626953"/>
      <use xlink:href="#DejaVuSans-6e" x="124.410156"/>
      <use xlink:href="#DejaVuSans-74" x="187.789062"/>
      <use xlink:href="#DejaVuSans-65" x="226.998047"/>
      <use xlink:href="#DejaVuSans-72" x="288.521484"/>
     </g>
    </g>
   </g>
  </g>
 </g>
 <defs>
  <clipPath id="p6955db064a">
   <rect x="54.15" y="7.2" width="575.7955" height="307.24"/>
  </clipPath>
 </defs>
</svg>
