<?xml version="1.0" encoding="utf-8" standalone="no"?>
<!DOCTYPE svg PUBLIC "-//W3C//DTD SVG 1.1//EN"
  "http://www.w3.org/Graphics/SVG/1.1/DTD/svg11.dtd">
<svg xmlns:xlink="http://www.w3.org/1999/xlink" width="648pt" height="360pt" viewBox="0 0 648 360" xmlns="http://www.w3.org/2000/svg" version="1.1">
 <metadata>
  <rdf:RDF xmlns:dc="http://purl.org/dc/elements/1.1/" xmlns:cc="http://creativecommons.org/ns#" xmlns:rdf="http://www.w3.org/1999/02/22-rdf-syntax-ns#">
   <cc:Work>
    <dc:type rdf:resource="http://purl.org/dc/dcmitype/StillImage"/>
    <dc:date>2024-03-19T10:34:41.504611</dc:date>
    <dc:format>image/svg+xml</dc:format>
    <dc:creator>
     <cc:Agent>
      <dc:title>Matplotlib v3.8.2, https://matplotlib.org/</dc:title>
     </cc:Agent>
    </dc:creator>
   </cc:Work>
  </rdf:RDF>
 </metadata>
 <defs>
  <style type="text/css">*{stroke-linejoin: round; stroke-linecap: butt}</style>
 </defs>
 <g id="figure_1">
  <g id="patch_1">
   <path d="M 0 360 
L 648 360 
L 648 0 
L 0 0 
z
" style="fill: #ffffff"/>
  </g>
  <g id="axes_1">
   <g id="patch_2">
    <path d="M 61.4045 318.04 
L 637.2 318.04 
L 637.2 10.8 
L 61.4045 10.8 
z
" style="fill: #ffffff"/>
   </g>
   <g id="matplotlib.axis_1">
    <g id="xtick_1">
     <g id="line2d_1">
      <defs>
       <path id="md1b559330a" d="M 0 0 
L 0 3.5 
" style="stroke: #000000; stroke-width: 0.8"/>
      </defs>
      <g>
       <use xlink:href="#md1b559330a" x="61.4045" y="318.04" style="stroke: #000000; stroke-width: 0.8"/>
      </g>
     </g>
     <g id="text_1">
      <!-- 0 -->
      <g transform="translate(58.22325 332.638438) scale(0.1 -0.1)">
       <defs>
        <path id="DejaVuSans-30" d="M 2034 4250 
Q 1547 4250 1301 3770 
Q 1056 3291 1056 2328 
Q 1056 1369 1301 889 
Q 1547 409 2034 409 
Q 2525 409 2770 889 
Q 3016 1369 3016 2328 
Q 3016 3291 2770 3770 
Q 2525 4250 2034 4250 
z
M 2034 4750 
Q 2819 4750 3233 4129 
Q 3647 3509 3647 2328 
Q 3647 1150 3233 529 
Q 2819 -91 2034 -91 
Q 1250 -91 836 529 
Q 422 1150 422 2328 
Q 422 3509 836 4129 
Q 1250 4750 2034 4750 
z
" transform="scale(0.015625)"/>
       </defs>
       <use xlink:href="#DejaVuSans-30"/>
      </g>
     </g>
    </g>
    <g id="xtick_2">
     <g id="line2d_2">
      <g>
       <use xlink:href="#md1b559330a" x="85.395979" y="318.04" style="stroke: #000000; stroke-width: 0.8"/>
      </g>
     </g>
     <g id="text_2">
      <!-- 1 -->
      <g transform="translate(82.214729 332.638438) scale(0.1 -0.1)">
       <defs>
        <path id="DejaVuSans-31" d="M 794 531 
L 1825 531 
L 1825 4091 
L 703 3866 
L 703 4441 
L 1819 4666 
L 2450 4666 
L 2450 531 
L 3481 531 
L 3481 0 
L 794 0 
L 794 531 
z
" transform="scale(0.015625)"/>
       </defs>
       <use xlink:href="#DejaVuSans-31"/>
      </g>
     </g>
    </g>
    <g id="xtick_3">
     <g id="line2d_3">
      <g>
       <use xlink:href="#md1b559330a" x="109.387458" y="318.04" style="stroke: #000000; stroke-width: 0.8"/>
      </g>
     </g>
     <g id="text_3">
      <!-- 2 -->
      <g transform="translate(106.206208 332.638438) scale(0.1 -0.1)">
       <defs>
        <path id="DejaVuSans-32" d="M 1228 531 
L 3431 531 
L 3431 0 
L 469 0 
L 469 531 
Q 828 903 1448 1529 
Q 2069 2156 2228 2338 
Q 2531 2678 2651 2914 
Q 2772 3150 2772 3378 
Q 2772 3750 2511 3984 
Q 2250 4219 1831 4219 
Q 1534 4219 1204 4116 
Q 875 4013 500 3803 
L 500 4441 
Q 881 4594 1212 4672 
Q 1544 4750 1819 4750 
Q 2544 4750 2975 4387 
Q 3406 4025 3406 3419 
Q 3406 3131 3298 2873 
Q 3191 2616 2906 2266 
Q 2828 2175 2409 1742 
Q 1991 1309 1228 531 
z
" transform="scale(0.015625)"/>
       </defs>
       <use xlink:href="#DejaVuSans-32"/>
      </g>
     </g>
    </g>
    <g id="xtick_4">
     <g id="line2d_4">
      <g>
       <use xlink:href="#md1b559330a" x="133.378938" y="318.04" style="stroke: #000000; stroke-width: 0.8"/>
      </g>
     </g>
     <g id="text_4">
      <!-- 3 -->
      <g transform="translate(130.197688 332.638438) scale(0.1 -0.1)">
       <defs>
        <path id="DejaVuSans-33" d="M 2597 2516 
Q 3050 2419 3304 2112 
Q 3559 1806 3559 1356 
Q 3559 666 3084 287 
Q 2609 -91 1734 -91 
Q 1441 -91 1130 -33 
Q 819 25 488 141 
L 488 750 
Q 750 597 1062 519 
Q 1375 441 1716 441 
Q 2309 441 2620 675 
Q 2931 909 2931 1356 
Q 2931 1769 2642 2001 
Q 2353 2234 1838 2234 
L 1294 2234 
L 1294 2753 
L 1863 2753 
Q 2328 2753 2575 2939 
Q 2822 3125 2822 3475 
Q 2822 3834 2567 4026 
Q 2313 4219 1838 4219 
Q 1578 4219 1281 4162 
Q 984 4106 628 3988 
L 628 4550 
Q 988 4650 1302 4700 
Q 1616 4750 1894 4750 
Q 2613 4750 3031 4423 
Q 3450 4097 3450 3541 
Q 3450 3153 3228 2886 
Q 3006 2619 2597 2516 
z
" transform="scale(0.015625)"/>
       </defs>
       <use xlink:href="#DejaVuSans-33"/>
      </g>
     </g>
    </g>
    <g id="xtick_5">
     <g id="line2d_5">
      <g>
       <use xlink:href="#md1b559330a" x="157.370417" y="318.04" style="stroke: #000000; stroke-width: 0.8"/>
      </g>
     </g>
     <g id="text_5">
      <!-- 4 -->
      <g transform="translate(154.189167 332.638438) scale(0.1 -0.1)">
       <defs>
        <path id="DejaVuSans-34" d="M 2419 4116 
L 825 1625 
L 2419 1625 
L 2419 4116 
z
M 2253 4666 
L 3047 4666 
L 3047 1625 
L 3713 1625 
L 3713 1100 
L 3047 1100 
L 3047 0 
L 2419 0 
L 2419 1100 
L 313 1100 
L 313 1709 
L 2253 4666 
z
" transform="scale(0.015625)"/>
       </defs>
       <use xlink:href="#DejaVuSans-34"/>
      </g>
     </g>
    </g>
    <g id="xtick_6">
     <g id="line2d_6">
      <g>
       <use xlink:href="#md1b559330a" x="181.361896" y="318.04" style="stroke: #000000; stroke-width: 0.8"/>
      </g>
     </g>
     <g id="text_6">
      <!-- 5 -->
      <g transform="translate(178.180646 332.638438) scale(0.1 -0.1)">
       <defs>
        <path id="DejaVuSans-35" d="M 691 4666 
L 3169 4666 
L 3169 4134 
L 1269 4134 
L 1269 2991 
Q 1406 3038 1543 3061 
Q 1681 3084 1819 3084 
Q 2600 3084 3056 2656 
Q 3513 2228 3513 1497 
Q 3513 744 3044 326 
Q 2575 -91 1722 -91 
Q 1428 -91 1123 -41 
Q 819 9 494 109 
L 494 744 
Q 775 591 1075 516 
Q 1375 441 1709 441 
Q 2250 441 2565 725 
Q 2881 1009 2881 1497 
Q 2881 1984 2565 2268 
Q 2250 2553 1709 2553 
Q 1456 2553 1204 2497 
Q 953 2441 691 2322 
L 691 4666 
z
" transform="scale(0.015625)"/>
       </defs>
       <use xlink:href="#DejaVuSans-35"/>
      </g>
     </g>
    </g>
    <g id="xtick_7">
     <g id="line2d_7">
      <g>
       <use xlink:href="#md1b559330a" x="205.353375" y="318.04" style="stroke: #000000; stroke-width: 0.8"/>
      </g>
     </g>
     <g id="text_7">
      <!-- 6 -->
      <g transform="translate(202.172125 332.638438) scale(0.1 -0.1)">
       <defs>
        <path id="DejaVuSans-36" d="M 2113 2584 
Q 1688 2584 1439 2293 
Q 1191 2003 1191 1497 
Q 1191 994 1439 701 
Q 1688 409 2113 409 
Q 2538 409 2786 701 
Q 3034 994 3034 1497 
Q 3034 2003 2786 2293 
Q 2538 2584 2113 2584 
z
M 3366 4563 
L 3366 3988 
Q 3128 4100 2886 4159 
Q 2644 4219 2406 4219 
Q 1781 4219 1451 3797 
Q 1122 3375 1075 2522 
Q 1259 2794 1537 2939 
Q 1816 3084 2150 3084 
Q 2853 3084 3261 2657 
Q 3669 2231 3669 1497 
Q 3669 778 3244 343 
Q 2819 -91 2113 -91 
Q 1303 -91 875 529 
Q 447 1150 447 2328 
Q 447 3434 972 4092 
Q 1497 4750 2381 4750 
Q 2619 4750 2861 4703 
Q 3103 4656 3366 4563 
z
" transform="scale(0.015625)"/>
       </defs>
       <use xlink:href="#DejaVuSans-36"/>
      </g>
     </g>
    </g>
    <g id="xtick_8">
     <g id="line2d_8">
      <g>
       <use xlink:href="#md1b559330a" x="229.344854" y="318.04" style="stroke: #000000; stroke-width: 0.8"/>
      </g>
     </g>
     <g id="text_8">
      <!-- 7 -->
      <g transform="translate(226.163604 332.638438) scale(0.1 -0.1)">
       <defs>
        <path id="DejaVuSans-37" d="M 525 4666 
L 3525 4666 
L 3525 4397 
L 1831 0 
L 1172 0 
L 2766 4134 
L 525 4134 
L 525 4666 
z
" transform="scale(0.015625)"/>
       </defs>
       <use xlink:href="#DejaVuSans-37"/>
      </g>
     </g>
    </g>
    <g id="xtick_9">
     <g id="line2d_9">
      <g>
       <use xlink:href="#md1b559330a" x="253.336333" y="318.04" style="stroke: #000000; stroke-width: 0.8"/>
      </g>
     </g>
     <g id="text_9">
      <!-- 8 -->
      <g transform="translate(250.155083 332.638438) scale(0.1 -0.1)">
       <defs>
        <path id="DejaVuSans-38" d="M 2034 2216 
Q 1584 2216 1326 1975 
Q 1069 1734 1069 1313 
Q 1069 891 1326 650 
Q 1584 409 2034 409 
Q 2484 409 2743 651 
Q 3003 894 3003 1313 
Q 3003 1734 2745 1975 
Q 2488 2216 2034 2216 
z
M 1403 2484 
Q 997 2584 770 2862 
Q 544 3141 544 3541 
Q 544 4100 942 4425 
Q 1341 4750 2034 4750 
Q 2731 4750 3128 4425 
Q 3525 4100 3525 3541 
Q 3525 3141 3298 2862 
Q 3072 2584 2669 2484 
Q 3125 2378 3379 2068 
Q 3634 1759 3634 1313 
Q 3634 634 3220 271 
Q 2806 -91 2034 -91 
Q 1263 -91 848 271 
Q 434 634 434 1313 
Q 434 1759 690 2068 
Q 947 2378 1403 2484 
z
M 1172 3481 
Q 1172 3119 1398 2916 
Q 1625 2713 2034 2713 
Q 2441 2713 2670 2916 
Q 2900 3119 2900 3481 
Q 2900 3844 2670 4047 
Q 2441 4250 2034 4250 
Q 1625 4250 1398 4047 
Q 1172 3844 1172 3481 
z
" transform="scale(0.015625)"/>
       </defs>
       <use xlink:href="#DejaVuSans-38"/>
      </g>
     </g>
    </g>
    <g id="xtick_10">
     <g id="line2d_10">
      <g>
       <use xlink:href="#md1b559330a" x="277.327812" y="318.04" style="stroke: #000000; stroke-width: 0.8"/>
      </g>
     </g>
     <g id="text_10">
      <!-- 9 -->
      <g transform="translate(274.146563 332.638438) scale(0.1 -0.1)">
       <defs>
        <path id="DejaVuSans-39" d="M 703 97 
L 703 672 
Q 941 559 1184 500 
Q 1428 441 1663 441 
Q 2288 441 2617 861 
Q 2947 1281 2994 2138 
Q 2813 1869 2534 1725 
Q 2256 1581 1919 1581 
Q 1219 1581 811 2004 
Q 403 2428 403 3163 
Q 403 3881 828 4315 
Q 1253 4750 1959 4750 
Q 2769 4750 3195 4129 
Q 3622 3509 3622 2328 
Q 3622 1225 3098 567 
Q 2575 -91 1691 -91 
Q 1453 -91 1209 -44 
Q 966 3 703 97 
z
M 1959 2075 
Q 2384 2075 2632 2365 
Q 2881 2656 2881 3163 
Q 2881 3666 2632 3958 
Q 2384 4250 1959 4250 
Q 1534 4250 1286 3958 
Q 1038 3666 1038 3163 
Q 1038 2656 1286 2365 
Q 1534 2075 1959 2075 
z
" transform="scale(0.015625)"/>
       </defs>
       <use xlink:href="#DejaVuSans-39"/>
      </g>
     </g>
    </g>
    <g id="xtick_11">
     <g id="line2d_11">
      <g>
       <use xlink:href="#md1b559330a" x="301.319292" y="318.04" style="stroke: #000000; stroke-width: 0.8"/>
      </g>
     </g>
     <g id="text_11">
      <!-- 10 -->
      <g transform="translate(294.956792 332.638438) scale(0.1 -0.1)">
       <use xlink:href="#DejaVuSans-31"/>
       <use xlink:href="#DejaVuSans-30" x="63.623047"/>
      </g>
     </g>
    </g>
    <g id="xtick_12">
     <g id="line2d_12">
      <g>
       <use xlink:href="#md1b559330a" x="325.310771" y="318.04" style="stroke: #000000; stroke-width: 0.8"/>
      </g>
     </g>
     <g id="text_12">
      <!-- 11 -->
      <g transform="translate(318.948271 332.638438) scale(0.1 -0.1)">
       <use xlink:href="#DejaVuSans-31"/>
       <use xlink:href="#DejaVuSans-31" x="63.623047"/>
      </g>
     </g>
    </g>
    <g id="xtick_13">
     <g id="line2d_13">
      <g>
       <use xlink:href="#md1b559330a" x="349.30225" y="318.04" style="stroke: #000000; stroke-width: 0.8"/>
      </g>
     </g>
     <g id="text_13">
      <!-- 12 -->
      <g transform="translate(342.93975 332.638438) scale(0.1 -0.1)">
       <use xlink:href="#DejaVuSans-31"/>
       <use xlink:href="#DejaVuSans-32" x="63.623047"/>
      </g>
     </g>
    </g>
    <g id="xtick_14">
     <g id="line2d_14">
      <g>
       <use xlink:href="#md1b559330a" x="373.293729" y="318.04" style="stroke: #000000; stroke-width: 0.8"/>
      </g>
     </g>
     <g id="text_14">
      <!-- 13 -->
      <g transform="translate(366.931229 332.638438) scale(0.1 -0.1)">
       <use xlink:href="#DejaVuSans-31"/>
       <use xlink:href="#DejaVuSans-33" x="63.623047"/>
      </g>
     </g>
    </g>
    <g id="xtick_15">
     <g id="line2d_15">
      <g>
       <use xlink:href="#md1b559330a" x="397.285208" y="318.04" style="stroke: #000000; stroke-width: 0.8"/>
      </g>
     </g>
     <g id="text_15">
      <!-- 14 -->
      <g transform="translate(390.922708 332.638438) scale(0.1 -0.1)">
       <use xlink:href="#DejaVuSans-31"/>
       <use xlink:href="#DejaVuSans-34" x="63.623047"/>
      </g>
     </g>
    </g>
    <g id="xtick_16">
     <g id="line2d_16">
      <g>
       <use xlink:href="#md1b559330a" x="421.276687" y="318.04" style="stroke: #000000; stroke-width: 0.8"/>
      </g>
     </g>
     <g id="text_16">
      <!-- 15 -->
      <g transform="translate(414.914187 332.638438) scale(0.1 -0.1)">
       <use xlink:href="#DejaVuSans-31"/>
       <use xlink:href="#DejaVuSans-35" x="63.623047"/>
      </g>
     </g>
    </g>
    <g id="xtick_17">
     <g id="line2d_17">
      <g>
       <use xlink:href="#md1b559330a" x="445.268167" y="318.04" style="stroke: #000000; stroke-width: 0.8"/>
      </g>
     </g>
     <g id="text_17">
      <!-- 16 -->
      <g transform="translate(438.905667 332.638438) scale(0.1 -0.1)">
       <use xlink:href="#DejaVuSans-31"/>
       <use xlink:href="#DejaVuSans-36" x="63.623047"/>
      </g>
     </g>
    </g>
    <g id="xtick_18">
     <g id="line2d_18">
      <g>
       <use xlink:href="#md1b559330a" x="469.259646" y="318.04" style="stroke: #000000; stroke-width: 0.8"/>
      </g>
     </g>
     <g id="text_18">
      <!-- 17 -->
      <g transform="translate(462.897146 332.638438) scale(0.1 -0.1)">
       <use xlink:href="#DejaVuSans-31"/>
       <use xlink:href="#DejaVuSans-37" x="63.623047"/>
      </g>
     </g>
    </g>
    <g id="xtick_19">
     <g id="line2d_19">
      <g>
       <use xlink:href="#md1b559330a" x="493.251125" y="318.04" style="stroke: #000000; stroke-width: 0.8"/>
      </g>
     </g>
     <g id="text_19">
      <!-- 18 -->
      <g transform="translate(486.888625 332.638438) scale(0.1 -0.1)">
       <use xlink:href="#DejaVuSans-31"/>
       <use xlink:href="#DejaVuSans-38" x="63.623047"/>
      </g>
     </g>
    </g>
    <g id="xtick_20">
     <g id="line2d_20">
      <g>
       <use xlink:href="#md1b559330a" x="517.242604" y="318.04" style="stroke: #000000; stroke-width: 0.8"/>
      </g>
     </g>
     <g id="text_20">
      <!-- 19 -->
      <g transform="translate(510.880104 332.638438) scale(0.1 -0.1)">
       <use xlink:href="#DejaVuSans-31"/>
       <use xlink:href="#DejaVuSans-39" x="63.623047"/>
      </g>
     </g>
    </g>
    <g id="xtick_21">
     <g id="line2d_21">
      <g>
       <use xlink:href="#md1b559330a" x="541.234083" y="318.04" style="stroke: #000000; stroke-width: 0.8"/>
      </g>
     </g>
     <g id="text_21">
      <!-- 20 -->
      <g transform="translate(534.871583 332.638438) scale(0.1 -0.1)">
       <use xlink:href="#DejaVuSans-32"/>
       <use xlink:href="#DejaVuSans-30" x="63.623047"/>
      </g>
     </g>
    </g>
    <g id="xtick_22">
     <g id="line2d_22">
      <g>
       <use xlink:href="#md1b559330a" x="565.225563" y="318.04" style="stroke: #000000; stroke-width: 0.8"/>
      </g>
     </g>
     <g id="text_22">
      <!-- 21 -->
      <g transform="translate(558.863063 332.638438) scale(0.1 -0.1)">
       <use xlink:href="#DejaVuSans-32"/>
       <use xlink:href="#DejaVuSans-31" x="63.623047"/>
      </g>
     </g>
    </g>
    <g id="xtick_23">
     <g id="line2d_23">
      <g>
       <use xlink:href="#md1b559330a" x="589.217042" y="318.04" style="stroke: #000000; stroke-width: 0.8"/>
      </g>
     </g>
     <g id="text_23">
      <!-- 22 -->
      <g transform="translate(582.854542 332.638438) scale(0.1 -0.1)">
       <use xlink:href="#DejaVuSans-32"/>
       <use xlink:href="#DejaVuSans-32" x="63.623047"/>
      </g>
     </g>
    </g>
    <g id="xtick_24">
     <g id="line2d_24">
      <g>
       <use xlink:href="#md1b559330a" x="613.208521" y="318.04" style="stroke: #000000; stroke-width: 0.8"/>
      </g>
     </g>
     <g id="text_24">
      <!-- 23 -->
      <g transform="translate(606.846021 332.638438) scale(0.1 -0.1)">
       <use xlink:href="#DejaVuSans-32"/>
       <use xlink:href="#DejaVuSans-33" x="63.623047"/>
      </g>
     </g>
    </g>
    <g id="text_25">
     <!-- Time of the day -->
     <g transform="translate(310.078813 346.316563) scale(0.1 -0.1)">
      <defs>
       <path id="DejaVuSans-54" d="M -19 4666 
L 3928 4666 
L 3928 4134 
L 2272 4134 
L 2272 0 
L 1638 0 
L 1638 4134 
L -19 4134 
L -19 4666 
z
" transform="scale(0.015625)"/>
       <path id="DejaVuSans-69" d="M 603 3500 
L 1178 3500 
L 1178 0 
L 603 0 
L 603 3500 
z
M 603 4863 
L 1178 4863 
L 1178 4134 
L 603 4134 
L 603 4863 
z
" transform="scale(0.015625)"/>
       <path id="DejaVuSans-6d" d="M 3328 2828 
Q 3544 3216 3844 3400 
Q 4144 3584 4550 3584 
Q 5097 3584 5394 3201 
Q 5691 2819 5691 2113 
L 5691 0 
L 5113 0 
L 5113 2094 
Q 5113 2597 4934 2840 
Q 4756 3084 4391 3084 
Q 3944 3084 3684 2787 
Q 3425 2491 3425 1978 
L 3425 0 
L 2847 0 
L 2847 2094 
Q 2847 2600 2669 2842 
Q 2491 3084 2119 3084 
Q 1678 3084 1418 2786 
Q 1159 2488 1159 1978 
L 1159 0 
L 581 0 
L 581 3500 
L 1159 3500 
L 1159 2956 
Q 1356 3278 1631 3431 
Q 1906 3584 2284 3584 
Q 2666 3584 2933 3390 
Q 3200 3197 3328 2828 
z
" transform="scale(0.015625)"/>
       <path id="DejaVuSans-65" d="M 3597 1894 
L 3597 1613 
L 953 1613 
Q 991 1019 1311 708 
Q 1631 397 2203 397 
Q 2534 397 2845 478 
Q 3156 559 3463 722 
L 3463 178 
Q 3153 47 2828 -22 
Q 2503 -91 2169 -91 
Q 1331 -91 842 396 
Q 353 884 353 1716 
Q 353 2575 817 3079 
Q 1281 3584 2069 3584 
Q 2775 3584 3186 3129 
Q 3597 2675 3597 1894 
z
M 3022 2063 
Q 3016 2534 2758 2815 
Q 2500 3097 2075 3097 
Q 1594 3097 1305 2825 
Q 1016 2553 972 2059 
L 3022 2063 
z
" transform="scale(0.015625)"/>
       <path id="DejaVuSans-20" transform="scale(0.015625)"/>
       <path id="DejaVuSans-6f" d="M 1959 3097 
Q 1497 3097 1228 2736 
Q 959 2375 959 1747 
Q 959 1119 1226 758 
Q 1494 397 1959 397 
Q 2419 397 2687 759 
Q 2956 1122 2956 1747 
Q 2956 2369 2687 2733 
Q 2419 3097 1959 3097 
z
M 1959 3584 
Q 2709 3584 3137 3096 
Q 3566 2609 3566 1747 
Q 3566 888 3137 398 
Q 2709 -91 1959 -91 
Q 1206 -91 779 398 
Q 353 888 353 1747 
Q 353 2609 779 3096 
Q 1206 3584 1959 3584 
z
" transform="scale(0.015625)"/>
       <path id="DejaVuSans-66" d="M 2375 4863 
L 2375 4384 
L 1825 4384 
Q 1516 4384 1395 4259 
Q 1275 4134 1275 3809 
L 1275 3500 
L 2222 3500 
L 2222 3053 
L 1275 3053 
L 1275 0 
L 697 0 
L 697 3053 
L 147 3053 
L 147 3500 
L 697 3500 
L 697 3744 
Q 697 4328 969 4595 
Q 1241 4863 1831 4863 
L 2375 4863 
z
" transform="scale(0.015625)"/>
       <path id="DejaVuSans-74" d="M 1172 4494 
L 1172 3500 
L 2356 3500 
L 2356 3053 
L 1172 3053 
L 1172 1153 
Q 1172 725 1289 603 
Q 1406 481 1766 481 
L 2356 481 
L 2356 0 
L 1766 0 
Q 1100 0 847 248 
Q 594 497 594 1153 
L 594 3053 
L 172 3053 
L 172 3500 
L 594 3500 
L 594 4494 
L 1172 4494 
z
" transform="scale(0.015625)"/>
       <path id="DejaVuSans-68" d="M 3513 2113 
L 3513 0 
L 2938 0 
L 2938 2094 
Q 2938 2591 2744 2837 
Q 2550 3084 2163 3084 
Q 1697 3084 1428 2787 
Q 1159 2491 1159 1978 
L 1159 0 
L 581 0 
L 581 4863 
L 1159 4863 
L 1159 2956 
Q 1366 3272 1645 3428 
Q 1925 3584 2291 3584 
Q 2894 3584 3203 3211 
Q 3513 2838 3513 2113 
z
" transform="scale(0.015625)"/>
       <path id="DejaVuSans-64" d="M 2906 2969 
L 2906 4863 
L 3481 4863 
L 3481 0 
L 2906 0 
L 2906 525 
Q 2725 213 2448 61 
Q 2172 -91 1784 -91 
Q 1150 -91 751 415 
Q 353 922 353 1747 
Q 353 2572 751 3078 
Q 1150 3584 1784 3584 
Q 2172 3584 2448 3432 
Q 2725 3281 2906 2969 
z
M 947 1747 
Q 947 1113 1208 752 
Q 1469 391 1925 391 
Q 2381 391 2643 752 
Q 2906 1113 2906 1747 
Q 2906 2381 2643 2742 
Q 2381 3103 1925 3103 
Q 1469 3103 1208 2742 
Q 947 2381 947 1747 
z
" transform="scale(0.015625)"/>
       <path id="DejaVuSans-61" d="M 2194 1759 
Q 1497 1759 1228 1600 
Q 959 1441 959 1056 
Q 959 750 1161 570 
Q 1363 391 1709 391 
Q 2188 391 2477 730 
Q 2766 1069 2766 1631 
L 2766 1759 
L 2194 1759 
z
M 3341 1997 
L 3341 0 
L 2766 0 
L 2766 531 
Q 2569 213 2275 61 
Q 1981 -91 1556 -91 
Q 1019 -91 701 211 
Q 384 513 384 1019 
Q 384 1609 779 1909 
Q 1175 2209 1959 2209 
L 2766 2209 
L 2766 2266 
Q 2766 2663 2505 2880 
Q 2244 3097 1772 3097 
Q 1472 3097 1187 3025 
Q 903 2953 641 2809 
L 641 3341 
Q 956 3463 1253 3523 
Q 1550 3584 1831 3584 
Q 2591 3584 2966 3190 
Q 3341 2797 3341 1997 
z
" transform="scale(0.015625)"/>
       <path id="DejaVuSans-79" d="M 2059 -325 
Q 1816 -950 1584 -1140 
Q 1353 -1331 966 -1331 
L 506 -1331 
L 506 -850 
L 844 -850 
Q 1081 -850 1212 -737 
Q 1344 -625 1503 -206 
L 1606 56 
L 191 3500 
L 800 3500 
L 1894 763 
L 2988 3500 
L 3597 3500 
L 2059 -325 
z
" transform="scale(0.015625)"/>
      </defs>
      <use xlink:href="#DejaVuSans-54"/>
      <use xlink:href="#DejaVuSans-69" x="57.958984"/>
      <use xlink:href="#DejaVuSans-6d" x="85.742188"/>
      <use xlink:href="#DejaVuSans-65" x="183.154297"/>
      <use xlink:href="#DejaVuSans-20" x="244.677734"/>
      <use xlink:href="#DejaVuSans-6f" x="276.464844"/>
      <use xlink:href="#DejaVuSans-66" x="337.646484"/>
      <use xlink:href="#DejaVuSans-20" x="372.851562"/>
      <use xlink:href="#DejaVuSans-74" x="404.638672"/>
      <use xlink:href="#DejaVuSans-68" x="443.847656"/>
      <use xlink:href="#DejaVuSans-65" x="507.226562"/>
      <use xlink:href="#DejaVuSans-20" x="568.75"/>
      <use xlink:href="#DejaVuSans-64" x="600.537109"/>
      <use xlink:href="#DejaVuSans-61" x="664.013672"/>
      <use xlink:href="#DejaVuSans-79" x="725.292969"/>
     </g>
    </g>
   </g>
   <g id="matplotlib.axis_2">
    <g id="ytick_1">
     <g id="line2d_25">
      <defs>
       <path id="mdfc96a33c8" d="M 0 0 
L -3.5 0 
" style="stroke: #000000; stroke-width: 0.8"/>
      </defs>
      <g>
       <use xlink:href="#mdfc96a33c8" x="61.4045" y="315.694656" style="stroke: #000000; stroke-width: 0.8"/>
      </g>
     </g>
     <g id="text_26">
      <!-- 0 -->
      <g transform="translate(48.042 319.493875) scale(0.1 -0.1)">
       <use xlink:href="#DejaVuSans-30"/>
      </g>
     </g>
    </g>
    <g id="ytick_2">
     <g id="line2d_26">
      <g>
       <use xlink:href="#mdfc96a33c8" x="61.4045" y="268.787786" style="stroke: #000000; stroke-width: 0.8"/>
      </g>
     </g>
     <g id="text_27">
      <!-- 200 -->
      <g transform="translate(35.317 272.587005) scale(0.1 -0.1)">
       <use xlink:href="#DejaVuSans-32"/>
       <use xlink:href="#DejaVuSans-30" x="63.623047"/>
       <use xlink:href="#DejaVuSans-30" x="127.246094"/>
      </g>
     </g>
    </g>
    <g id="ytick_3">
     <g id="line2d_27">
      <g>
       <use xlink:href="#mdfc96a33c8" x="61.4045" y="221.880916" style="stroke: #000000; stroke-width: 0.8"/>
      </g>
     </g>
     <g id="text_28">
      <!-- 400 -->
      <g transform="translate(35.317 225.680135) scale(0.1 -0.1)">
       <use xlink:href="#DejaVuSans-34"/>
       <use xlink:href="#DejaVuSans-30" x="63.623047"/>
       <use xlink:href="#DejaVuSans-30" x="127.246094"/>
      </g>
     </g>
    </g>
    <g id="ytick_4">
     <g id="line2d_28">
      <g>
       <use xlink:href="#mdfc96a33c8" x="61.4045" y="174.974046" style="stroke: #000000; stroke-width: 0.8"/>
      </g>
     </g>
     <g id="text_29">
      <!-- 600 -->
      <g transform="translate(35.317 178.773265) scale(0.1 -0.1)">
       <use xlink:href="#DejaVuSans-36"/>
       <use xlink:href="#DejaVuSans-30" x="63.623047"/>
       <use xlink:href="#DejaVuSans-30" x="127.246094"/>
      </g>
     </g>
    </g>
    <g id="ytick_5">
     <g id="line2d_29">
      <g>
       <use xlink:href="#mdfc96a33c8" x="61.4045" y="128.067176" style="stroke: #000000; stroke-width: 0.8"/>
      </g>
     </g>
     <g id="text_30">
      <!-- 800 -->
      <g transform="translate(35.317 131.866394) scale(0.1 -0.1)">
       <use xlink:href="#DejaVuSans-38"/>
       <use xlink:href="#DejaVuSans-30" x="63.623047"/>
       <use xlink:href="#DejaVuSans-30" x="127.246094"/>
      </g>
     </g>
    </g>
    <g id="ytick_6">
     <g id="line2d_30">
      <g>
       <use xlink:href="#mdfc96a33c8" x="61.4045" y="81.160305" style="stroke: #000000; stroke-width: 0.8"/>
      </g>
     </g>
     <g id="text_31">
      <!-- 1000 -->
      <g transform="translate(28.9545 84.959524) scale(0.1 -0.1)">
       <use xlink:href="#DejaVuSans-31"/>
       <use xlink:href="#DejaVuSans-30" x="63.623047"/>
       <use xlink:href="#DejaVuSans-30" x="127.246094"/>
       <use xlink:href="#DejaVuSans-30" x="190.869141"/>
      </g>
     </g>
    </g>
    <g id="ytick_7">
     <g id="line2d_31">
      <g>
       <use xlink:href="#mdfc96a33c8" x="61.4045" y="34.253435" style="stroke: #000000; stroke-width: 0.8"/>
      </g>
     </g>
     <g id="text_32">
      <!-- 1200 -->
      <g transform="translate(28.9545 38.052654) scale(0.1 -0.1)">
       <use xlink:href="#DejaVuSans-31"/>
       <use xlink:href="#DejaVuSans-32" x="63.623047"/>
       <use xlink:href="#DejaVuSans-30" x="127.246094"/>
       <use xlink:href="#DejaVuSans-30" x="190.869141"/>
      </g>
     </g>
    </g>
    <g id="text_33">
     <!-- Solar irradiance [W/m$^2$] -->
     <g transform="translate(22.874812 223.37) rotate(-90) scale(0.1 -0.1)">
      <defs>
       <path id="DejaVuSans-53" d="M 3425 4513 
L 3425 3897 
Q 3066 4069 2747 4153 
Q 2428 4238 2131 4238 
Q 1616 4238 1336 4038 
Q 1056 3838 1056 3469 
Q 1056 3159 1242 3001 
Q 1428 2844 1947 2747 
L 2328 2669 
Q 3034 2534 3370 2195 
Q 3706 1856 3706 1288 
Q 3706 609 3251 259 
Q 2797 -91 1919 -91 
Q 1588 -91 1214 -16 
Q 841 59 441 206 
L 441 856 
Q 825 641 1194 531 
Q 1563 422 1919 422 
Q 2459 422 2753 634 
Q 3047 847 3047 1241 
Q 3047 1584 2836 1778 
Q 2625 1972 2144 2069 
L 1759 2144 
Q 1053 2284 737 2584 
Q 422 2884 422 3419 
Q 422 4038 858 4394 
Q 1294 4750 2059 4750 
Q 2388 4750 2728 4690 
Q 3069 4631 3425 4513 
z
" transform="scale(0.015625)"/>
       <path id="DejaVuSans-6c" d="M 603 4863 
L 1178 4863 
L 1178 0 
L 603 0 
L 603 4863 
z
" transform="scale(0.015625)"/>
       <path id="DejaVuSans-72" d="M 2631 2963 
Q 2534 3019 2420 3045 
Q 2306 3072 2169 3072 
Q 1681 3072 1420 2755 
Q 1159 2438 1159 1844 
L 1159 0 
L 581 0 
L 581 3500 
L 1159 3500 
L 1159 2956 
Q 1341 3275 1631 3429 
Q 1922 3584 2338 3584 
Q 2397 3584 2469 3576 
Q 2541 3569 2628 3553 
L 2631 2963 
z
" transform="scale(0.015625)"/>
       <path id="DejaVuSans-6e" d="M 3513 2113 
L 3513 0 
L 2938 0 
L 2938 2094 
Q 2938 2591 2744 2837 
Q 2550 3084 2163 3084 
Q 1697 3084 1428 2787 
Q 1159 2491 1159 1978 
L 1159 0 
L 581 0 
L 581 3500 
L 1159 3500 
L 1159 2956 
Q 1366 3272 1645 3428 
Q 1925 3584 2291 3584 
Q 2894 3584 3203 3211 
Q 3513 2838 3513 2113 
z
" transform="scale(0.015625)"/>
       <path id="DejaVuSans-63" d="M 3122 3366 
L 3122 2828 
Q 2878 2963 2633 3030 
Q 2388 3097 2138 3097 
Q 1578 3097 1268 2742 
Q 959 2388 959 1747 
Q 959 1106 1268 751 
Q 1578 397 2138 397 
Q 2388 397 2633 464 
Q 2878 531 3122 666 
L 3122 134 
Q 2881 22 2623 -34 
Q 2366 -91 2075 -91 
Q 1284 -91 818 406 
Q 353 903 353 1747 
Q 353 2603 823 3093 
Q 1294 3584 2113 3584 
Q 2378 3584 2631 3529 
Q 2884 3475 3122 3366 
z
" transform="scale(0.015625)"/>
       <path id="DejaVuSans-5b" d="M 550 4863 
L 1875 4863 
L 1875 4416 
L 1125 4416 
L 1125 -397 
L 1875 -397 
L 1875 -844 
L 550 -844 
L 550 4863 
z
" transform="scale(0.015625)"/>
       <path id="DejaVuSans-57" d="M 213 4666 
L 850 4666 
L 1831 722 
L 2809 4666 
L 3519 4666 
L 4500 722 
L 5478 4666 
L 6119 4666 
L 4947 0 
L 4153 0 
L 3169 4050 
L 2175 0 
L 1381 0 
L 213 4666 
z
" transform="scale(0.015625)"/>
       <path id="DejaVuSans-2f" d="M 1625 4666 
L 2156 4666 
L 531 -594 
L 0 -594 
L 1625 4666 
z
" transform="scale(0.015625)"/>
       <path id="DejaVuSans-5d" d="M 1947 4863 
L 1947 -844 
L 622 -844 
L 622 -397 
L 1369 -397 
L 1369 4416 
L 622 4416 
L 622 4863 
L 1947 4863 
z
" transform="scale(0.015625)"/>
      </defs>
      <use xlink:href="#DejaVuSans-53" transform="translate(0 0.765625)"/>
      <use xlink:href="#DejaVuSans-6f" transform="translate(63.476562 0.765625)"/>
      <use xlink:href="#DejaVuSans-6c" transform="translate(124.658203 0.765625)"/>
      <use xlink:href="#DejaVuSans-61" transform="translate(152.441406 0.765625)"/>
      <use xlink:href="#DejaVuSans-72" transform="translate(213.720703 0.765625)"/>
      <use xlink:href="#DejaVuSans-20" transform="translate(254.833984 0.765625)"/>
      <use xlink:href="#DejaVuSans-69" transform="translate(286.621094 0.765625)"/>
      <use xlink:href="#DejaVuSans-72" transform="translate(314.404297 0.765625)"/>
      <use xlink:href="#DejaVuSans-72" transform="translate(355.517578 0.765625)"/>
      <use xlink:href="#DejaVuSans-61" transform="translate(396.630859 0.765625)"/>
      <use xlink:href="#DejaVuSans-64" transform="translate(457.910156 0.765625)"/>
      <use xlink:href="#DejaVuSans-69" transform="translate(521.386719 0.765625)"/>
      <use xlink:href="#DejaVuSans-61" transform="translate(549.169922 0.765625)"/>
      <use xlink:href="#DejaVuSans-6e" transform="translate(610.449219 0.765625)"/>
      <use xlink:href="#DejaVuSans-63" transform="translate(673.828125 0.765625)"/>
      <use xlink:href="#DejaVuSans-65" transform="translate(728.808594 0.765625)"/>
      <use xlink:href="#DejaVuSans-20" transform="translate(790.332031 0.765625)"/>
      <use xlink:href="#DejaVuSans-5b" transform="translate(822.119141 0.765625)"/>
      <use xlink:href="#DejaVuSans-57" transform="translate(861.132812 0.765625)"/>
      <use xlink:href="#DejaVuSans-2f" transform="translate(960.009766 0.765625)"/>
      <use xlink:href="#DejaVuSans-6d" transform="translate(993.701172 0.765625)"/>
      <use xlink:href="#DejaVuSans-32" transform="translate(1092.070312 39.046875) scale(0.7)"/>
      <use xlink:href="#DejaVuSans-5d" transform="translate(1139.34082 0.765625)"/>
     </g>
    </g>
   </g>
   <g id="line2d_32">
    <path d="M 61.4045 315.694656 
L 144.232623 315.671203 
L 144.632759 315.460122 
L 146.233302 315.460122 
L 147.033574 315.225588 
L 147.833845 315.178681 
L 148.233981 314.991053 
L 148.634117 314.9676 
L 149.434389 314.662705 
L 150.634796 314.052916 
L 152.635476 312.762977 
L 154.236019 311.332317 
L 155.036291 311.027423 
L 155.436427 311.238504 
L 156.236698 310.980516 
L 157.03697 310.675621 
L 157.437106 310.534901 
L 157.837242 310.534901 
L 158.237378 310.32382 
L 159.037649 310.300366 
L 159.837921 309.831298 
L 160.238057 309.784391 
L 161.438465 309.033881 
L 161.8386 308.89316 
L 163.039008 308.89316 
L 163.439144 309.104241 
L 165.439823 309.127695 
L 167.440502 309.127695 
L 168.240774 309.50295 
L 169.441182 310.558354 
L 169.841318 310.769435 
L 170.241453 310.534901 
L 170.641589 310.136192 
L 171.441861 308.869707 
L 172.642269 306.242922 
L 174.242812 302.53728 
L 174.642948 292.639929 
L 175.043084 285.838433 
L 175.44322 290.834015 
L 175.843355 294.117496 
L 176.243491 294.938366 
L 176.643627 301.03626 
L 177.043763 300.543738 
L 177.443899 287.339453 
L 177.844035 291.7487 
L 178.244171 301.270794 
L 178.644306 305.234425 
L 179.044442 305.961481 
L 179.444578 306.336736 
L 179.844714 305.093704 
L 180.24485 298.761277 
L 180.644986 304.882623 
L 181.445257 303.663044 
L 181.845393 290.435308 
L 182.245529 287.17528 
L 182.645665 279.388738 
L 183.045801 296.040677 
L 183.445937 285.510086 
L 183.846073 278.004987 
L 184.246208 280.655226 
L 185.446616 297.119537 
L 185.846752 300.191936 
L 186.246888 300.754818 
L 186.647024 300.520285 
L 188.647703 297.28371 
L 189.047839 297.072629 
L 189.447975 294.539659 
L 189.84811 296.60356 
L 190.248246 297.96386 
L 190.648382 290.294586 
L 191.048518 267.849649 
L 191.448654 263.604576 
L 191.84879 261.587582 
L 192.248926 260.508723 
L 192.649062 272.798325 
L 193.049197 280.960118 
L 193.449333 264.214366 
L 193.849469 284.126331 
L 194.249605 284.5954 
L 194.649741 261.024698 
L 195.049877 254.762635 
L 195.450013 254.457736 
L 195.850148 253.847945 
L 196.250284 280.162702 
L 196.65042 292.827557 
L 197.050556 293.484254 
L 197.450692 285.205191 
L 197.850828 294.023682 
L 198.250964 289.262636 
L 198.651099 259.969293 
L 199.051235 251.314977 
L 199.451371 248.68819 
L 200.651779 247.515518 
L 201.051915 246.647745 
L 201.852186 244.255492 
L 202.252322 243.716066 
L 203.052594 242.09778 
L 203.45273 241.136188 
L 203.852866 239.775884 
L 204.253001 237.993429 
L 204.653137 239.940061 
L 205.053273 239.986971 
L 205.453409 232.997843 
L 206.253681 228.471333 
L 207.854224 217.58894 
L 208.25436 215.407767 
L 208.654496 215.360864 
L 209.054632 217.026052 
L 209.454768 239.259913 
L 209.854903 254.528101 
L 210.255039 207.433599 
L 210.655175 249.321435 
L 211.055311 213.343867 
L 211.455447 210.55291 
L 211.855583 211.32687 
L 212.255719 220.848966 
L 212.655854 217.166774 
L 213.05599 210.740534 
L 213.456126 210.881256 
L 213.856262 211.936661 
L 214.256398 213.554947 
L 214.656534 212.382275 
L 215.05667 212.945156 
L 215.456805 214.352362 
L 215.856941 214.446174 
L 216.257077 262.947882 
L 216.657213 286.213689 
L 217.057349 285.111379 
L 217.457485 259.406412 
L 217.857621 210.435643 
L 218.257756 208.442101 
L 218.657892 211.491047 
L 219.058028 218.339446 
L 219.458164 208.700083 
L 219.8583 208.442101 
L 220.258436 226.337069 
L 220.658572 255.466238 
L 221.058707 259.500225 
L 221.458843 260.414911 
L 221.858979 266.067186 
L 222.259115 266.067186 
L 222.659251 261.869023 
L 223.059387 264.120554 
L 223.459523 274.041354 
L 223.859658 278.051893 
L 224.259794 274.440066 
L 225.060066 255.888397 
L 225.460202 251.596421 
L 225.860338 251.408789 
L 226.260474 258.468275 
L 227.060745 267.239858 
L 227.460881 269.374122 
L 227.861017 267.826194 
L 228.261153 264.16746 
L 229.061425 262.080102 
L 229.46156 256.779628 
L 229.861696 253.191252 
L 230.661968 257.436325 
L 231.062104 258.421369 
L 231.46224 258.186834 
L 231.862376 256.240198 
L 232.262511 253.636866 
L 232.662647 252.534559 
L 233.062783 253.941765 
L 233.462919 257.107975 
L 234.663327 268.318718 
L 235.063462 270.05427 
L 235.863734 268.41253 
L 236.26387 269.749379 
L 236.664006 270.124631 
L 237.064142 267.92001 
L 237.464278 266.864605 
L 237.864413 265.152504 
L 238.264549 261.517221 
L 238.664685 255.700769 
L 239.464957 240.760931 
L 239.865093 236.234421 
L 240.265229 239.400635 
L 241.865772 263.276229 
L 242.265908 267.239858 
L 242.666044 265.785746 
L 243.866451 245.85033 
L 244.266587 242.87174 
L 244.666723 251.291522 
L 245.066859 251.1508 
L 245.466995 253.941765 
L 246.667402 283.680718 
L 247.067538 290.3884 
L 247.467674 293.906415 
L 248.267946 297.307163 
L 248.668082 298.151486 
L 249.068218 297.705872 
L 249.468353 297.049176 
L 249.868489 296.064132 
L 250.668761 292.100501 
L 251.469033 285.369364 
L 251.869169 284.10288 
L 252.269304 284.10288 
L 252.66944 285.556992 
L 253.069576 288.840473 
L 253.869848 298.2453 
L 254.269984 301.341154 
L 254.67012 302.912534 
L 255.070255 302.865627 
L 255.470391 301.294247 
L 255.870527 298.409476 
L 257.070935 286.63585 
L 257.871206 278.051893 
L 258.271342 276.926128 
L 259.071614 285.13483 
L 259.47175 286.284048 
L 259.871886 285.392819 
L 261.072293 278.732041 
L 261.472429 277.324835 
L 261.872565 275.16712 
L 262.272701 271.039317 
L 263.473108 249.321435 
L 263.873244 250.142305 
L 264.27338 257.178336 
L 264.673516 257.928845 
L 265.073652 259.429867 
L 265.473788 261.657943 
L 265.873924 260.297643 
L 266.274059 260.555629 
L 266.674195 261.939384 
L 267.074331 264.824157 
L 267.474467 265.832652 
L 267.874603 263.815659 
L 268.274739 264.519262 
L 268.674875 264.003287 
L 269.07501 262.713348 
L 269.475146 267.896555 
L 269.875282 269.77283 
L 270.275418 268.41253 
L 270.675554 266.114096 
L 271.475826 256.029119 
L 271.875961 255.911852 
L 272.676233 267.286768 
L 273.076369 267.568208 
L 273.476505 268.435985 
L 273.876641 270.499888 
L 274.276777 268.365624 
L 274.676912 263.88602 
L 275.077048 256.029119 
L 275.87732 233.349644 
L 276.277456 231.074665 
L 276.677592 236.117154 
L 277.077728 237.125649 
L 277.477863 232.411507 
L 278.278135 179.946177 
L 278.678271 196.410484 
L 279.078407 180.157249 
L 279.878679 240.925108 
L 280.278814 232.08316 
L 280.67895 235.155562 
L 281.079086 249.039991 
L 281.479222 258.702809 
L 282.279494 268.037277 
L 282.67963 267.075685 
L 283.079765 263.440402 
L 283.479901 257.389415 
L 283.880037 253.027075 
L 284.280173 251.127352 
L 284.680309 250.98663 
L 285.480581 255.56005 
L 285.880716 255.77113 
L 286.280852 255.161339 
L 286.680988 257.483231 
L 287.48126 267.075685 
L 287.881396 267.966916 
L 288.681667 261.470315 
L 289.081803 259.898936 
L 289.481939 257.835033 
L 289.882075 258.77317 
L 291.482618 277.324835 
L 291.882754 279.787446 
L 292.683026 281.288468 
L 293.083162 282.883302 
L 293.483298 284.994111 
L 293.883434 286.143328 
L 294.283569 285.322458 
L 294.683705 283.305461 
L 295.083841 282.015522 
L 295.483977 282.508046 
L 296.284249 285.81498 
L 296.684385 286.448224 
L 297.084521 285.721166 
L 297.484656 283.704172 
L 297.884792 280.279969 
L 298.685064 270.007364 
L 299.885472 253.660321 
L 300.685743 246.952637 
L 301.085879 245.451618 
L 301.486015 245.521976 
L 301.886151 246.295943 
L 302.286287 246.553933 
L 302.686423 245.334351 
L 303.086558 243.08282 
L 303.88683 236.422046 
L 304.286966 231.965893 
L 304.687102 224.976772 
L 305.087238 214.024015 
L 305.887509 185.105933 
L 306.287645 146.900281 
L 306.687781 128.2548 
L 307.087917 179.899267 
L 307.488053 209.73204 
L 307.888189 212.757531 
L 308.68846 208.348281 
L 309.088596 209.966574 
L 309.488732 213.648759 
L 309.888868 204.572284 
L 310.289004 189.679352 
L 310.68914 198.357123 
L 311.489411 209.216061 
L 312.689819 237.313273 
L 313.089955 244.818373 
L 313.490091 249.063446 
L 313.890227 249.673237 
L 314.690498 245.170174 
L 315.49077 234.451959 
L 317.091313 223.780646 
L 317.491449 220.309533 
L 317.891585 215.783023 
L 318.291721 213.719123 
L 318.691857 222.209263 
L 319.091993 223.569566 
L 319.892264 231.872081 
L 321.092672 245.498528 
L 321.892944 251.455699 
L 322.693215 254.95026 
L 323.493487 259.406412 
L 323.893623 261.306142 
L 324.293759 264.800702 
L 324.693895 271.344209 
L 325.094031 275.284387 
L 325.494166 276.621232 
L 325.894302 276.832315 
L 326.294438 277.324835 
L 326.694574 278.567868 
L 327.09471 282.20315 
L 327.894982 293.179359 
L 328.295117 299.159985 
L 328.695253 303.451963 
L 329.095389 305.093704 
L 329.495525 303.709952 
L 329.895661 298.128033 
L 331.096068 264.824157 
L 331.496204 259.476773 
L 332.696612 250.400295 
L 333.096748 248.805457 
L 333.496884 249.34489 
L 333.897019 251.385335 
L 334.697291 261.751756 
L 335.497563 272.423069 
L 335.897699 274.275889 
L 336.297835 272.587242 
L 337.098106 265.035237 
L 337.498242 262.736799 
L 337.898378 262.103557 
L 338.298514 264.003287 
L 338.69865 266.653522 
L 339.098786 267.849649 
L 339.498921 270.429527 
L 340.699329 284.055974 
L 341.099465 298.92545 
L 341.499601 291.865967 
L 341.899737 290.458761 
L 342.299872 290.669842 
L 342.700008 288.418311 
L 343.100144 283.493089 
L 343.900416 265.316677 
L 344.300552 256.263653 
L 344.700688 252.487649 
L 345.100823 255.653863 
L 345.901095 269.679018 
L 346.301231 271.954 
L 347.101503 271.226942 
L 348.30191 274.768412 
L 348.702046 275.120214 
L 349.102182 276.081806 
L 350.702726 281.241562 
L 351.102861 280.655226 
L 352.303269 268.553252 
L 353.103541 266.55971 
L 353.903812 261.751756 
L 354.303948 260.860524 
L 354.704084 261.44686 
L 355.504356 265.340132 
L 355.904492 265.926468 
L 356.304628 264.871063 
L 356.704763 262.830615 
L 357.104899 259.852026 
L 358.305307 242.801383 
L 358.705443 242.496484 
L 359.505714 260.930885 
L 359.90585 266.442443 
L 360.305986 264.917969 
L 360.706122 257.999206 
L 361.106258 253.636866 
L 361.506394 256.709267 
L 361.90653 261.095059 
L 362.306665 261.634489 
L 362.706801 259.476773 
L 363.106937 256.216744 
L 364.307345 241.933603 
L 364.707481 239.682072 
L 365.107616 239.916606 
L 365.507752 243.575344 
L 366.308024 253.636866 
L 366.70816 256.357466 
L 367.908567 269.843191 
L 368.308703 272.77487 
L 368.708839 273.877181 
L 369.108975 273.783369 
L 369.509111 273.947542 
L 369.909247 275.98799 
L 370.309383 280.06889 
L 370.709518 282.437685 
L 371.109654 280.491049 
L 371.909926 273.85373 
L 372.310062 269.655563 
L 372.710198 268.177996 
L 373.110334 271.226942 
L 373.510469 276.550875 
L 373.910605 279.975074 
L 374.310741 279.576366 
L 374.710877 276.199073 
L 375.511149 267.779288 
L 375.911285 265.52776 
L 376.711556 263.83911 
L 377.111692 262.009745 
L 377.511828 260.930885 
L 377.911964 261.470315 
L 378.3121 262.666438 
L 378.712236 261.259232 
L 379.112371 266.512804 
L 379.512507 267.333674 
L 379.912643 267.59166 
L 380.312779 266.934966 
L 381.113051 263.088601 
L 381.513187 262.244279 
L 381.913322 262.689893 
L 382.313458 264.050193 
L 383.513866 272.165079 
L 383.914002 272.939044 
L 384.314138 272.516881 
L 384.714273 270.710967 
L 385.114409 270.194992 
L 385.514545 271.086224 
L 385.914681 270.10118 
L 387.115089 262.572626 
L 387.515224 262.971334 
L 387.91536 266.747338 
L 389.115768 280.936666 
L 389.515904 282.46114 
L 389.91604 280.233063 
L 390.316175 283.024021 
L 391.116447 292.381942 
L 391.516583 295.876504 
L 391.916719 297.658965 
L 392.316855 298.456382 
L 392.716991 300.238842 
L 393.117126 301.10662 
L 393.517262 301.270794 
L 393.917398 300.637552 
L 394.317534 295.196354 
L 394.71767 280.537959 
L 395.117806 280.537959 
L 395.517942 285.533537 
L 395.918077 292.053593 
L 396.318213 294.89146 
L 396.718349 293.882962 
L 397.118485 293.624974 
L 397.518621 295.618516 
L 398.318893 302.654547 
L 398.719028 303.42851 
L 399.119164 303.49887 
L 399.5193 303.053255 
L 399.919436 300.637552 
L 400.319572 293.929868 
L 401.119844 272.821776 
L 401.519979 272.821776 
L 401.920115 278.075348 
L 402.720387 264.073644 
L 403.120523 262.666438 
L 403.520659 267.263313 
L 403.920795 274.088264 
L 404.721066 290.740201 
L 405.521338 296.931908 
L 406.32161 302.513826 
L 407.121882 306.407097 
L 407.522017 307.227967 
L 407.922153 307.1107 
L 408.322289 306.454003 
L 408.722425 305.539319 
L 409.122561 305.586226 
L 409.922833 308.447545 
L 410.322968 308.75244 
L 411.12324 308.564812 
L 411.523376 308.588266 
L 412.323648 307.18106 
L 412.723784 306.899618 
L 413.524055 307.25142 
L 413.924191 306.547817 
L 414.324327 304.554275 
L 415.124599 299.206891 
L 415.92487 295.032181 
L 416.725142 290.411853 
L 417.125278 288.324498 
L 417.525414 286.893837 
L 418.325686 286.213689 
L 419.125957 288.629392 
L 419.526093 286.917292 
L 420.326365 277.535918 
L 420.726501 269.632111 
L 421.526772 232.481872 
L 421.926908 196.973365 
L 422.327044 128.559692 
L 422.72718 105.598788 
L 423.127316 128.700421 
L 423.527452 176.451609 
L 423.927588 193.807151 
L 424.327723 218.292543 
L 424.727859 251.221165 
L 425.127995 269.866646 
L 425.528131 281.780988 
L 425.928267 287.972697 
L 426.328403 291.7487 
L 426.728539 293.789148 
L 427.52881 295.806143 
L 428.329082 296.978815 
L 428.729218 298.198394 
L 429.52949 300.942445 
L 429.929625 301.03626 
L 430.329761 299.863588 
L 430.729897 297.870046 
L 431.930305 290.271132 
L 432.330441 289.356448 
L 432.730576 291.256178 
L 433.130712 293.859509 
L 433.530848 295.196354 
L 433.930984 294.375484 
L 434.33112 291.115456 
L 435.131392 281.992071 
L 435.531527 279.177659 
L 435.931663 278.286427 
L 436.331799 280.725583 
L 436.731935 285.228646 
L 437.932343 292.56957 
L 438.332478 293.812601 
L 438.732614 294.469298 
L 439.13275 295.360529 
L 439.933022 298.081127 
L 440.333158 298.479835 
L 440.733294 297.28371 
L 441.133429 294.586565 
L 441.533565 293.718789 
L 441.933701 295.571608 
L 442.333837 296.650468 
L 442.733973 296.908455 
L 443.134109 297.916952 
L 443.93438 300.520285 
L 444.734652 304.882623 
L 445.134788 306.102201 
L 445.534924 305.703493 
L 445.93506 311.543398 
L 446.335196 310.910156 
L 446.735331 308.330278 
L 447.135467 308.213011 
L 447.935739 307.485954 
L 448.335875 307.697035 
L 448.736011 308.705533 
L 449.136147 308.517905 
L 450.336554 305.586226 
L 451.937098 299.46488 
L 452.337233 298.737822 
L 453.137505 296.931908 
L 453.537641 294.117496 
L 453.937777 293.085545 
L 454.738049 287.878883 
L 455.138185 289.70825 
L 455.53832 289.239181 
L 456.338592 287.573987 
L 456.738728 286.987652 
L 457.138864 286.63585 
L 457.539 286.659303 
L 457.939136 286.917292 
L 458.739407 288.019603 
L 459.939815 289.942784 
L 460.339951 290.130412 
L 460.740087 289.731705 
L 461.140222 288.770112 
L 461.540358 288.254137 
L 462.34063 288.254137 
L 462.740766 288.113417 
L 463.541038 287.45672 
L 464.341309 287.292547 
L 464.741445 286.63585 
L 465.541717 283.704172 
L 465.941853 283.000569 
L 466.341989 282.601858 
L 466.742124 277.88772 
L 467.14226 275.70655 
L 467.542396 279.998529 
L 467.942532 279.810901 
L 468.342668 280.06889 
L 469.943211 282.906753 
L 470.343347 283.516544 
L 470.743483 284.736122 
L 471.943891 290.294586 
L 472.344026 290.52912 
L 472.744162 289.356448 
L 473.144298 288.723206 
L 473.544434 288.81702 
L 473.94457 289.356448 
L 474.744842 291.537618 
L 475.144977 292.686837 
L 475.545113 293.296626 
L 475.945249 293.155906 
L 476.345385 292.663384 
L 476.745521 292.616476 
L 477.145657 292.991731 
L 477.545793 293.765695 
L 477.945928 294.821099 
L 478.7462 296.134491 
L 479.546472 296.908455 
L 480.346744 296.931908 
L 481.147015 297.776232 
L 481.947287 298.503288 
L 482.747559 298.808183 
L 483.54783 298.526743 
L 483.947966 298.339115 
L 484.748238 298.339115 
L 485.54851 298.573649 
L 486.348781 298.339115 
L 486.748917 298.339115 
L 487.149053 298.128033 
L 487.549189 298.10458 
L 488.349461 298.78473 
L 489.149732 299.793227 
L 489.549868 300.145028 
L 490.750276 300.28575 
L 491.550548 300.872085 
L 492.350819 301.575688 
L 493.151091 302.185478 
L 494.751634 303.850672 
L 498.352857 306.078748 
L 499.153129 306.477457 
L 501.553944 308.095743 
L 502.754352 309.57331 
L 503.954759 311.121237 
L 505.155167 312.176641 
L 506.355574 312.903698 
L 507.555982 313.490034 
L 510.356933 314.28745 
L 510.757069 314.310904 
L 511.157205 314.521985 
L 514.758427 314.521985 
L 515.158563 314.733066 
L 516.358971 314.89724 
L 517.159243 314.991053 
L 517.959514 315.03796 
L 518.35965 315.225588 
L 520.360329 315.225588 
L 521.160601 315.460122 
L 523.961552 315.460122 
L 524.361688 315.671203 
L 526.362367 315.694656 
L 637.2 315.694656 
L 637.2 315.694656 
" clip-path="url(#pc22c4dd816)" style="fill: none; stroke: #ffae49; stroke-width: 1.5; stroke-linecap: square"/>
   </g>
   <g id="line2d_33">
    <path d="M 61.4045 315.694656 
L 195.450013 315.600843 
L 195.850148 315.460122 
L 196.65042 315.460122 
L 197.050556 315.225588 
L 197.850828 315.225588 
L 198.250964 315.014507 
L 199.051235 314.89724 
L 203.052594 313.372767 
L 203.45273 313.161685 
L 203.852866 313.114779 
L 204.253001 312.880244 
L 206.253681 312.880244 
L 207.854224 312.340815 
L 209.054632 311.75448 
L 210.655175 310.722528 
L 212.655854 309.221508 
L 213.856262 308.89316 
L 215.05667 308.424092 
L 215.456805 308.588266 
L 215.856941 309.104241 
L 216.657213 308.424092 
L 217.057349 308.424092 
L 217.457485 308.658626 
L 217.857621 308.259917 
L 218.257756 307.673582 
L 218.657892 307.485954 
L 219.8583 307.579768 
L 221.858979 308.189557 
L 223.459523 308.189557 
L 224.259794 307.743942 
L 225.860338 306.125655 
L 226.260474 306.078748 
L 226.660609 306.172562 
L 227.460881 306.876165 
L 227.861017 307.016885 
L 228.261153 306.852711 
L 229.46156 305.703493 
L 231.062104 302.81872 
L 232.262511 299.371066 
L 233.062783 296.791188 
L 233.462919 295.970318 
L 234.263191 295.641969 
L 235.463598 295.759237 
L 235.863734 295.946865 
L 236.664006 297.612058 
L 237.064142 298.409476 
L 237.464278 298.808183 
L 238.264549 298.550196 
L 238.664685 297.846593 
L 239.064821 296.861547 
L 239.464957 296.580107 
L 240.265229 297.400977 
L 240.665364 297.330616 
L 241.0655 297.025722 
L 241.465636 297.049176 
L 241.865772 297.260257 
L 242.265908 297.189896 
L 243.06618 298.174941 
L 244.266587 300.801725 
L 244.666723 300.825178 
L 245.867131 300.238842 
L 246.267267 299.980855 
L 246.667402 299.066171 
L 247.467674 296.46284 
L 247.86781 294.703832 
L 248.267946 294.469298 
L 248.668082 294.047135 
L 249.068218 293.789148 
L 249.468353 293.24972 
L 249.868489 292.194315 
L 251.068897 287.99615 
L 251.469033 286.964198 
L 252.269304 285.81498 
L 252.66944 285.533537 
L 253.469712 286.377863 
L 253.869848 287.058013 
L 254.67012 289.051555 
L 255.070255 288.043056 
L 255.470391 286.284048 
L 255.870527 285.603899 
L 256.270663 286.166781 
L 256.670799 288.207231 
L 257.471071 290.763654 
L 258.671478 294.727285 
L 259.47175 295.454341 
L 259.871886 295.454341 
L 260.272022 294.844552 
L 260.672157 293.413893 
L 261.472429 289.942784 
L 261.872565 288.840473 
L 262.272701 288.160323 
L 262.672837 288.113417 
L 263.072973 288.723206 
L 263.473108 289.848972 
L 263.873244 290.622934 
L 264.27338 290.716748 
L 265.473788 289.098461 
L 265.873924 288.887379 
L 266.274059 288.81702 
L 266.674195 289.215728 
L 267.474467 290.693295 
L 267.874603 291.232723 
L 268.274739 290.810562 
L 268.674875 289.332995 
L 269.875282 282.578407 
L 270.275418 282.46114 
L 270.675554 282.554952 
L 271.875961 284.149786 
L 272.276097 284.079425 
L 272.676233 283.493089 
L 273.476505 281.804443 
L 273.876641 281.780988 
L 274.276777 282.601858 
L 275.077048 284.759577 
L 275.477184 285.345913 
L 275.87732 285.439725 
L 276.277456 285.158285 
L 277.077728 284.10288 
L 278.278135 281.616815 
L 278.678271 281.569908 
L 279.078407 282.343872 
L 280.278814 285.744621 
L 280.67895 286.143328 
L 281.079086 285.768074 
L 281.879358 284.712667 
L 282.279494 284.478133 
L 282.67963 284.454682 
L 283.079765 284.032519 
L 283.479901 283.047476 
L 283.880037 281.546454 
L 285.080445 275.753456 
L 286.280852 272.118173 
L 286.680988 271.766372 
L 287.081124 271.742921 
L 287.48126 271.836733 
L 287.881396 271.719466 
L 288.281532 271.062769 
L 289.081803 268.975414 
L 289.882075 267.192952 
L 290.282211 266.489349 
L 290.682347 265.340132 
L 291.882754 260.883979 
L 293.083162 258.960798 
L 293.483298 259.336051 
L 293.883434 258.820076 
L 294.283569 259.148423 
L 294.683705 260.13347 
L 295.483977 259.640947 
L 295.884113 259.734759 
L 296.284249 259.640947 
L 297.084521 260.016203 
L 297.484656 260.719806 
L 297.884792 262.244279 
L 298.284928 264.355088 
L 299.885472 269.819736 
L 300.285607 270.640606 
L 300.685743 270.898595 
L 301.085879 270.710967 
L 301.486015 269.890097 
L 301.886151 268.271811 
L 302.286287 265.879562 
L 303.086558 259.476773 
L 303.486694 257.62395 
L 303.88683 257.13143 
L 304.286966 256.310559 
L 304.687102 254.926805 
L 305.087238 255.536595 
L 305.887509 258.397914 
L 306.287645 258.890437 
L 306.687781 258.937344 
L 307.087917 258.655903 
L 307.488053 258.186834 
L 307.888189 258.116473 
L 308.288325 258.796621 
L 308.68846 259.218784 
L 309.088596 259.476773 
L 309.488732 259.898936 
L 309.888868 260.110015 
L 310.289004 259.711308 
L 311.889547 254.223202 
L 313.089955 245.826875 
L 313.490091 245.029459 
L 313.890227 241.745978 
L 314.290362 236.445501 
L 314.690498 228.518235 
L 315.090634 235.272829 
L 315.49077 238.908111 
L 315.890906 239.259913 
L 316.691178 244.044412 
L 317.491449 249.555969 
L 317.891585 250.822454 
L 318.291721 249.813959 
L 318.691857 250.001583 
L 319.091993 250.869363 
L 319.492129 251.19771 
L 319.892264 252.581461 
L 320.2924 251.807501 
L 320.692536 246.389756 
L 321.092672 249.321435 
L 321.492808 251.033533 
L 321.892944 251.338432 
L 322.29308 251.479154 
L 322.693215 254.997169 
L 323.093351 259.664401 
L 323.893623 265.832652 
L 324.693895 270.570249 
L 325.494166 273.970997 
L 326.694574 280.936666 
L 327.09471 281.640269 
L 327.494846 281.053934 
L 327.894982 278.661684 
L 328.695253 271.766372 
L 329.095389 270.710967 
L 329.495525 272.727964 
L 331.496204 287.691255 
L 331.89634 288.488672 
L 332.296476 290.106959 
L 332.696612 292.593023 
L 333.096748 293.460799 
L 333.496884 292.381942 
L 333.897019 290.52912 
L 334.297155 289.825517 
L 334.697291 290.200773 
L 335.097427 288.910834 
L 335.497563 288.605939 
L 335.897699 290.013145 
L 337.098106 297.588605 
L 337.898378 304.014846 
L 338.298514 304.624635 
L 338.69865 302.443466 
L 339.098786 298.526743 
L 339.498921 295.899957 
L 339.899057 296.673921 
L 340.699329 303.240883 
L 341.099465 304.788809 
L 341.499601 304.741902 
L 342.299872 303.029802 
L 343.900416 296.673921 
L 345.500959 288.863926 
L 345.901095 288.488672 
L 346.301231 288.27759 
L 346.701367 286.729664 
L 347.501639 282.508046 
L 348.702046 279.388738 
L 350.702726 269.069227 
L 351.903133 243.927145 
L 352.303269 223.100498 
L 352.703405 217.143319 
L 353.103541 228.729322 
L 353.503677 232.012803 
L 354.303948 239.728982 
L 355.10422 244.560391 
L 355.504356 246.225579 
L 355.904492 247.093359 
L 356.704763 247.937684 
L 357.104899 248.735099 
L 357.505035 250.37684 
L 358.705443 257.272148 
L 359.105579 257.928845 
L 360.305986 253.91831 
L 360.706122 253.285064 
L 361.506394 253.519599 
L 361.90653 253.425786 
L 362.306665 254.152844 
L 362.706801 254.246656 
L 363.106937 254.926805 
L 363.907209 258.351008 
L 364.307345 260.34455 
L 364.707481 263.323135 
L 365.107616 267.216407 
L 365.507752 269.022321 
L 365.907888 269.256855 
L 366.308024 269.186494 
L 366.70816 270.241899 
L 367.508432 275.096759 
L 367.908567 276.52742 
L 368.308703 276.550875 
L 368.708839 276.058351 
L 369.108975 276.339792 
L 369.509111 277.629731 
L 369.909247 278.450601 
L 370.709518 276.785409 
L 371.109654 277.606279 
L 371.909926 283.258555 
L 372.310062 286.237142 
L 372.710198 288.254137 
L 373.110334 289.262636 
L 373.510469 289.286089 
L 373.910605 288.465219 
L 374.310741 288.27759 
L 374.710877 287.902336 
L 375.511149 283.446183 
L 375.911285 283.516544 
L 376.31142 284.970656 
L 376.711556 287.151827 
L 377.111692 290.435308 
L 377.511828 292.452303 
L 377.911964 291.678339 
L 378.712236 288.488672 
L 379.112371 288.793567 
L 379.912643 293.789148 
L 380.312779 293.836056 
L 380.712915 292.897918 
L 381.113051 291.490712 
L 381.513187 290.974736 
L 381.913322 291.725247 
L 382.313458 292.17086 
L 383.11373 291.490712 
L 383.914002 288.723206 
L 384.314138 289.731705 
L 385.114409 295.454341 
L 385.514545 295.876504 
L 385.914681 295.360529 
L 386.314817 295.454341 
L 386.714953 294.797646 
L 387.115089 292.733743 
L 387.515224 292.194315 
L 388.715632 296.415934 
L 389.515904 298.456382 
L 389.91604 298.78473 
L 390.316175 298.620555 
L 390.716311 298.620555 
L 391.116447 299.629053 
L 391.916719 302.115117 
L 393.117126 304.812262 
L 393.517262 305.562772 
L 393.917398 305.304785 
L 394.71767 303.545777 
L 395.117806 303.56923 
L 395.517942 304.108659 
L 395.918077 305.046797 
L 396.318213 305.586226 
L 396.718349 305.375145 
L 397.118485 304.882623 
L 398.318893 305.468959 
L 399.5193 306.969978 
L 399.919436 307.063793 
L 400.719708 307.743942 
L 401.119844 307.532861 
L 401.920115 305.187518 
L 402.320251 304.741902 
L 402.720387 305.492412 
L 404.320931 310.558354 
L 404.721066 310.769435 
L 405.521338 310.769435 
L 405.921474 310.910156 
L 406.32161 311.285411 
L 406.721746 311.473038 
L 407.121882 311.21505 
L 407.522017 310.581808 
L 407.922153 309.549856 
L 408.722425 307.087246 
L 409.122561 306.782351 
L 409.922833 307.204513 
L 410.322968 306.805804 
L 410.723104 306.102201 
L 411.12324 304.788809 
L 411.923512 299.511786 
L 412.323648 298.2453 
L 412.723784 298.292208 
L 413.123919 298.737822 
L 413.524055 297.612058 
L 413.924191 295.430888 
L 414.324327 294.516204 
L 414.724463 295.079087 
L 415.124599 295.290168 
L 415.524735 294.985273 
L 416.325006 293.202812 
L 416.725142 293.554613 
L 417.92555 299.089624 
L 418.325686 299.699414 
L 418.725821 299.441425 
L 419.125957 298.550196 
L 419.526093 297.96386 
L 419.926229 297.635511 
L 420.726501 297.96386 
L 421.126637 298.808183 
L 422.327044 302.81872 
L 423.527452 306.547817 
L 423.927588 307.204513 
L 424.327723 307.274873 
L 424.727859 307.016885 
L 425.528131 305.844214 
L 425.928267 305.210971 
L 426.328403 304.788809 
L 426.728539 304.835716 
L 427.928946 305.609679 
L 428.329082 305.609679 
L 428.729218 305.375145 
L 429.129354 305.398598 
L 430.329761 305.961481 
L 431.130033 306.266375 
L 432.330441 307.25142 
L 433.130712 306.899618 
L 433.530848 306.946525 
L 433.930984 307.18106 
L 435.531527 309.291869 
L 435.931663 309.456043 
L 436.731935 309.221508 
L 437.532207 309.127695 
L 438.732614 309.127695 
L 440.333158 310.230006 
L 440.733294 310.230006 
L 441.133429 310.065832 
L 441.933701 310.136192 
L 443.134109 310.910156 
L 443.93438 311.566852 
L 445.93506 312.622256 
L 448.335875 314.756519 
L 449.136147 315.108321 
L 449.536282 315.225588 
L 450.73669 315.131774 
L 451.136826 314.991053 
L 451.536962 315.202134 
L 452.737369 315.295948 
L 453.137505 315.460122 
L 454.337913 315.460122 
L 454.738049 315.64775 
L 455.938456 315.694656 
L 637.2 315.694656 
L 637.2 315.694656 
" clip-path="url(#pc22c4dd816)" style="fill: none; stroke: #44a5ff; stroke-width: 1.5; stroke-linecap: square"/>
   </g>
   <g id="line2d_34">
    <path d="M 61.4045 315.694656 
L 188.647703 315.694656 
L 189.447975 315.460122 
L 191.048518 315.436669 
L 191.448654 315.225588 
L 192.248926 315.225588 
L 192.649062 315.03796 
L 193.049197 314.991053 
L 193.449333 314.803426 
L 193.849469 314.756519 
L 194.249605 314.545438 
L 195.049877 314.521985 
L 195.450013 314.310904 
L 195.850148 314.28745 
L 197.050556 313.818382 
L 197.850828 313.46658 
L 199.051235 312.880244 
L 199.451371 312.880244 
L 201.45205 311.590305 
L 202.252322 311.003969 
L 203.45273 311.003969 
L 204.253001 310.605261 
L 205.453409 310.300366 
L 205.853545 310.112739 
L 206.253681 310.065832 
L 207.454088 310.534901 
L 208.25436 310.534901 
L 209.054632 310.910156 
L 209.854903 311.003969 
L 210.255039 311.050877 
L 210.655175 311.332317 
L 211.455447 311.660665 
L 212.255719 312.293908 
L 212.655854 312.293908 
L 213.05599 312.035921 
L 213.856262 311.168144 
L 214.656534 309.690577 
L 215.05667 308.775893 
L 215.456805 308.283371 
L 216.257077 308.330278 
L 216.657213 308.048837 
L 217.057349 307.462501 
L 217.857621 305.492412 
L 219.458164 301.083167 
L 219.8583 300.614097 
L 220.258436 299.910494 
L 221.058707 297.260257 
L 221.458843 296.814641 
L 221.858979 296.908455 
L 222.259115 296.439387 
L 222.659251 295.618516 
L 223.459523 292.991731 
L 224.65993 288.019603 
L 225.060066 288.183776 
L 226.260474 296.931908 
L 226.660609 298.128033 
L 227.460881 299.816682 
L 227.861017 301.247341 
L 228.661289 304.788809 
L 229.061425 306.149108 
L 229.46156 307.016885 
L 229.861696 307.25142 
L 230.661968 307.485954 
L 231.062104 307.134153 
L 231.862376 304.765356 
L 232.662647 303.451963 
L 233.062783 303.029802 
L 233.863055 302.74836 
L 234.263191 301.974397 
L 235.063462 298.2453 
L 235.463598 297.28371 
L 236.26387 297.14299 
L 236.664006 296.627013 
L 237.464278 296.345573 
L 237.864413 295.571608 
L 238.264549 295.688876 
L 238.664685 296.134491 
L 239.064821 295.125995 
L 239.464957 292.71029 
L 239.865093 291.936326 
L 240.665364 291.162364 
L 241.465636 287.503628 
L 241.865772 288.981194 
L 242.265908 291.115456 
L 242.666044 292.452303 
L 243.06618 293.226265 
L 243.466315 292.381942 
L 244.266587 287.972697 
L 244.666723 287.45672 
L 245.066859 288.605939 
L 245.867131 292.123954 
L 246.267267 292.71029 
L 246.667402 292.381942 
L 247.467674 290.998189 
L 248.267946 288.981194 
L 248.668082 288.559033 
L 249.068218 288.6763 
L 249.468353 289.145369 
L 249.868489 289.848972 
L 250.268625 290.271132 
L 250.668761 290.505667 
L 251.068897 290.599481 
L 251.469033 290.552575 
L 251.869169 289.942784 
L 252.269304 288.746659 
L 253.069576 286.002608 
L 254.269984 284.571949 
L 255.070255 284.032519 
L 256.270663 283.141288 
L 256.670799 282.977115 
L 257.070935 282.601858 
L 257.471071 282.390779 
L 257.871206 282.46114 
L 259.47175 283.915252 
L 259.871886 283.844891 
L 261.472429 281.593363 
L 261.872565 280.537959 
L 262.672837 277.442102 
L 263.072973 277.207568 
L 263.473108 277.231023 
L 263.873244 276.761954 
L 264.673516 274.604239 
L 265.073652 271.977455 
L 265.473788 267.896555 
L 266.274059 251.643324 
L 266.674195 231.496824 
L 267.074331 195.214357 
L 267.474467 203.540327 
L 267.874603 226.337069 
L 268.274739 235.296284 
L 268.674875 228.54169 
L 269.07501 249.931226 
L 269.475146 278.872763 
L 269.875282 280.702132 
L 270.675554 290.622934 
L 271.07569 292.897918 
L 271.875961 295.079087 
L 272.276097 295.899957 
L 272.676233 296.46284 
L 273.476505 298.386021 
L 273.876641 298.690916 
L 274.676912 297.260257 
L 275.077048 297.236804 
L 275.477184 297.447883 
L 275.87732 297.260257 
L 276.677592 295.595063 
L 277.077728 294.586565 
L 277.477863 292.804104 
L 279.078407 281.194652 
L 279.478543 279.435644 
L 279.878679 279.107298 
L 280.278814 279.294926 
L 280.67895 278.966576 
L 281.479222 277.512463 
L 282.67963 267.755837 
L 283.079765 204.173573 
L 283.479901 191.7667 
L 283.880037 195.988325 
L 284.280173 220.802057 
L 284.680309 182.244611 
L 285.080445 179.266022 
L 285.480581 179.922715 
L 285.880716 181.001581 
L 286.280852 184.167795 
L 286.680988 183.956709 
L 287.081124 181.095387 
L 288.281532 176.756501 
L 288.681667 177.976083 
L 289.481939 165.663029 
L 289.882075 189.890425 
L 290.682347 157.360522 
L 291.082483 156.774186 
L 291.482618 157.595056 
L 291.882754 156.445832 
L 292.28289 148.518574 
L 292.683026 145.469627 
L 293.083162 144.343865 
L 293.483298 145.844877 
L 293.883434 146.102873 
L 294.683705 144.53149 
L 295.083841 147.205173 
L 295.483977 138.152153 
L 295.884113 157.196345 
L 296.284249 152.318033 
L 296.684385 170.119182 
L 297.084521 210.341823 
L 297.884792 153.420333 
L 298.284928 142.84284 
L 298.685064 157.102525 
L 299.0852 145.117826 
L 299.485336 143.476085 
L 300.285607 236.422046 
L 301.085879 260.414911 
L 301.486015 262.80716 
L 302.686423 272.188534 
L 303.086558 274.604239 
L 303.486694 276.034896 
L 303.88683 276.480514 
L 304.286966 277.981532 
L 305.087238 280.02198 
L 305.887509 278.520962 
L 306.687781 276.550875 
L 307.087917 275.237481 
L 307.488053 274.721506 
L 307.888189 273.970997 
L 308.288325 272.821776 
L 309.488732 268.060728 
L 309.888868 267.826194 
L 310.289004 267.216407 
L 310.68914 265.551211 
L 311.489411 258.890437 
L 311.889547 251.056988 
L 312.289683 253.191252 
L 312.689819 248.148763 
L 313.089955 241.581802 
L 313.490091 223.405389 
L 313.890227 170.940052 
L 314.290362 175.724559 
L 314.690498 141.998522 
L 315.090634 165.827206 
L 315.49077 261.024698 
L 316.691178 280.56141 
L 317.091313 283.56345 
L 317.891585 286.870384 
L 318.691857 289.567529 
L 319.091993 290.060051 
L 319.492129 289.684797 
L 320.2924 287.034559 
L 321.092672 284.055974 
L 321.892944 280.444143 
L 323.093351 276.597781 
L 323.893623 277.442102 
L 324.293759 274.744957 
L 324.693895 237.852707 
L 325.094031 184.871398 
L 325.494166 161.277234 
L 325.894302 152.787102 
L 326.294438 150.887365 
L 326.694574 147.252083 
L 327.894982 139.582806 
L 328.295117 140.427139 
L 328.695253 231.098113 
L 329.095389 256.967256 
L 329.495525 232.552229 
L 329.895661 253.425786 
L 330.295797 260.34455 
L 330.695933 261.611034 
L 331.096068 269.327216 
L 331.496204 273.337751 
L 331.89634 276.081806 
L 332.696612 279.154204 
L 333.496884 278.802402 
L 333.897019 278.755496 
L 334.297155 278.567868 
L 334.697291 278.591323 
L 335.097427 278.474056 
L 335.497563 278.520962 
L 336.297835 277.442102 
L 336.69797 276.879221 
L 337.498242 276.31634 
L 338.69865 274.510423 
L 340.299193 269.77283 
L 340.699329 269.022321 
L 341.099465 268.928508 
L 341.499601 267.732382 
L 342.299872 262.713348 
L 343.100144 258.351008 
L 343.50028 257.107975 
L 343.900416 257.41287 
L 344.300552 258.069567 
L 344.700688 258.186834 
L 345.100823 257.389415 
L 346.301231 250.681731 
L 346.701367 249.790504 
L 347.101503 249.368345 
L 347.501639 248.383298 
L 347.901774 247.843872 
L 348.30191 248.101854 
L 348.702046 245.545431 
L 349.102182 175.25549 
L 349.502318 149.362892 
L 349.902454 171.690565 
L 350.30259 214.539994 
L 350.702726 226.055625 
L 351.102861 228.447878 
L 351.502997 226.102534 
L 351.903133 226.923405 
L 352.703405 145.282003 
L 353.103541 140.333319 
L 353.503677 141.013475 
L 353.903812 140.77894 
L 354.303948 139.653178 
L 354.704084 163.974379 
L 355.10422 244.091322 
L 355.504356 249.039991 
L 357.104899 259.523679 
L 357.505035 261.212326 
L 358.705443 268.905053 
L 359.105579 270.124631 
L 359.505714 272.516881 
L 359.90585 277.019943 
L 360.305986 280.256515 
L 360.706122 282.109338 
L 361.106258 280.84285 
L 361.90653 287.831975 
L 362.306665 287.339453 
L 362.706801 285.064469 
L 363.106937 278.474056 
L 363.507073 275.612737 
L 363.907209 270.194992 
L 364.307345 271.883639 
L 364.707481 269.796285 
L 365.107616 264.261273 
L 365.507752 264.214366 
L 365.907888 263.792204 
L 366.308024 264.073644 
L 366.70816 262.314637 
L 367.108296 261.98629 
L 367.508432 262.150463 
L 367.908567 263.158962 
L 368.308703 263.721843 
L 368.708839 263.158962 
L 369.108975 264.917969 
L 369.509111 265.293226 
L 369.909247 266.958418 
L 370.309383 267.122591 
L 370.709518 269.890097 
L 371.109654 269.983913 
L 371.50979 270.429527 
L 371.909926 264.566168 
L 372.310062 266.254815 
L 372.710198 268.506346 
L 373.110334 264.472356 
L 373.510469 262.19737 
L 373.910605 257.248697 
L 375.111013 185.903341 
L 375.511149 181.845899 
L 375.911285 170.189539 
L 376.31142 186.583496 
L 376.711556 186.419319 
L 377.511828 194.581112 
L 377.911964 193.384992 
L 378.3121 190.852024 
L 378.712236 189.304089 
L 379.112371 194.534216 
L 379.512507 195.19091 
L 379.912643 189.608995 
L 380.312779 197.512798 
L 380.712915 201.945496 
L 381.113051 195.636524 
L 381.513187 202.344207 
L 381.913322 191.860519 
L 382.313458 194.487307 
L 382.713594 203.305793 
L 383.11373 206.941075 
L 383.513866 202.531832 
L 383.914002 188.92884 
L 384.314138 189.280641 
L 384.714273 191.696342 
L 385.114409 192.63448 
L 385.514545 183.675265 
L 385.914681 185.551539 
L 386.714953 197.184452 
L 387.115089 197.372076 
L 387.91536 207.527411 
L 388.315496 208.81735 
L 388.715632 202.860179 
L 389.115768 203.071258 
L 389.515904 218.128366 
L 389.91604 219.44176 
L 390.316175 255.888397 
L 390.716311 249.29798 
L 391.116447 237.47745 
L 391.516583 237.782342 
L 391.916719 258.351008 
L 392.316855 255.864942 
L 392.716991 258.515181 
L 393.117126 240.972011 
L 393.517262 208.465548 
L 393.917398 205.11171 
L 394.317534 213.836391 
L 394.71767 213.930203 
L 395.117806 211.725581 
L 395.517942 199.084174 
L 395.918077 208.442101 
L 396.318213 196.809195 
L 396.718349 194.135505 
L 397.118485 208.981527 
L 397.918757 215.783023 
L 398.318893 233.185475 
L 398.719028 233.537276 
L 399.5193 263.135507 
L 399.919436 214.539994 
L 400.319572 226.454336 
L 400.719708 242.942098 
L 401.519979 260.672896 
L 401.920115 261.423409 
L 402.320251 270.546794 
L 402.720387 260.907431 
L 403.520659 252.558006 
L 403.920795 251.713688 
L 404.320931 259.101517 
L 404.721066 255.278606 
L 405.121202 247.280983 
L 405.521338 227.838087 
L 405.921474 217.893832 
L 406.32161 216.11137 
L 406.721746 221.974728 
L 407.121882 215.431221 
L 407.522017 214.04747 
L 407.922153 210.318375 
L 408.322289 208.066844 
L 408.722425 210.998524 
L 409.522697 226.454336 
L 409.922833 236.023335 
L 410.322968 238.063786 
L 410.723104 236.375136 
L 411.12324 228.682412 
L 411.523376 223.874458 
L 411.923512 224.296617 
L 412.323648 220.4268 
L 412.723784 227.744275 
L 413.123919 217.260586 
L 413.524055 222.912866 
L 413.924191 223.593014 
L 414.324327 236.844205 
L 414.724463 241.745978 
L 415.124599 231.004301 
L 415.524735 224.906408 
L 415.92487 226.383978 
L 416.325006 230.371062 
L 416.725142 229.104571 
L 417.125278 229.010759 
L 417.92555 227.322116 
L 418.325686 229.761272 
L 418.725821 239.095736 
L 419.125957 245.357806 
L 419.926229 220.590977 
L 420.326365 220.074999 
L 421.526772 222.256172 
L 423.127316 223.288122 
L 423.927588 224.273169 
L 424.727859 226.665415 
L 425.528131 229.690907 
L 425.928267 230.652499 
L 426.328403 232.176973 
L 426.728539 237.969974 
L 427.128674 246.976092 
L 427.52881 244.818373 
L 427.928946 245.639243 
L 428.329082 249.251078 
L 429.129354 244.865282 
L 429.52949 244.912192 
L 429.929625 245.498528 
L 430.729897 248.453655 
L 431.530169 249.837414 
L 432.330441 255.442783 
L 433.130712 248.969634 
L 433.930984 249.251078 
L 434.33112 250.025038 
L 435.131392 252.206205 
L 435.931663 254.129389 
L 437.132071 257.107975 
L 437.532207 257.670859 
L 438.332478 258.304101 
L 438.732614 258.843531 
L 440.733294 262.994789 
L 441.533565 264.964876 
L 442.333837 272.727964 
L 442.733973 272.868683 
L 443.134109 274.369705 
L 443.534245 271.696011 
L 443.93438 271.156585 
L 444.334516 271.672559 
L 445.134788 273.267394 
L 446.335196 276.621232 
L 448.736011 284.407775 
L 450.336554 289.426809 
L 450.73669 291.162364 
L 451.136826 290.552575 
L 452.737369 291.88942 
L 453.137505 293.437346 
L 453.537641 294.258216 
L 453.937777 294.703832 
L 455.138185 300.918992 
L 455.53832 302.279291 
L 455.938456 302.982894 
L 457.138864 304.460461 
L 458.339271 306.50091 
L 459.139543 307.439047 
L 461.140222 309.667123 
L 461.940494 310.464541 
L 463.541038 311.566852 
L 464.341309 312.247002 
L 465.141581 313.020965 
L 467.14226 314.475078 
L 467.542396 314.545438 
L 468.342668 314.873786 
L 469.14294 315.249041 
L 469.943211 315.694656 
L 637.2 315.694656 
L 637.2 315.694656 
" clip-path="url(#pc22c4dd816)" style="fill: none; stroke: #44a5c2; stroke-width: 1.5; stroke-linecap: square"/>
   </g>
   <g id="line2d_35">
    <path d="M 61.4045 315.694656 
L 229.46156 315.694656 
L 230.261832 315.460122 
L 233.062783 315.460122 
L 233.863055 315.225588 
L 235.063462 315.225588 
L 235.863734 314.991053 
L 237.064142 314.991053 
L 237.464278 314.756519 
L 237.864413 314.756519 
L 239.064821 314.381264 
L 240.665364 314.052916 
L 241.465636 314.052916 
L 242.265908 313.818382 
L 247.86781 312.153188 
L 249.068218 311.402678 
L 250.668761 310.089286 
L 251.869169 308.916614 
L 255.470391 305.891121 
L 256.670799 305.140611 
L 257.471071 304.671542 
L 257.871206 303.451963 
L 258.271342 301.552235 
L 258.671478 301.458421 
L 259.47175 293.038639 
L 259.871886 293.226265 
L 260.272022 289.262636 
L 260.672157 280.866305 
L 261.072293 278.403695 
L 261.872565 277.160662 
L 262.272701 276.292885 
L 262.672837 275.847272 
L 263.072973 275.847272 
L 263.473108 276.410153 
L 264.673516 279.294926 
L 265.473788 281.171201 
L 265.873924 283.727624 
L 266.674195 296.204852 
L 267.074331 296.885002 
L 268.274739 294.398937 
L 268.674875 292.663384 
L 269.875282 284.032519 
L 270.275418 285.322458 
L 270.675554 289.895878 
L 271.07569 291.303084 
L 271.475826 290.646387 
L 271.875961 290.31804 
L 272.276097 291.396898 
L 273.076369 295.290168 
L 273.476505 296.767735 
L 273.876641 297.799685 
L 274.276777 298.386021 
L 274.676912 298.573649 
L 275.077048 298.268753 
L 275.477184 297.471338 
L 276.277456 294.680379 
L 277.077728 291.983234 
L 277.477863 291.490712 
L 277.877999 291.7487 
L 278.678271 292.475756 
L 279.078407 292.757196 
L 279.478543 293.202812 
L 280.67895 295.899957 
L 281.479222 296.064132 
L 281.879358 295.806143 
L 282.279494 295.313621 
L 283.479901 293.273173 
L 283.880037 293.179359 
L 284.280173 293.413893 
L 284.680309 294.258216 
L 285.080445 294.750738 
L 285.480581 292.358489 
L 286.280852 269.632111 
L 286.680988 275.870723 
L 287.081124 289.520623 
L 287.48126 275.847272 
L 287.881396 271.156585 
L 288.281532 257.928845 
L 288.681667 256.592 
L 289.081803 254.199747 
L 289.481939 256.005664 
L 289.882075 252.417291 
L 290.282211 251.643324 
L 290.682347 251.713688 
L 291.082483 252.253115 
L 291.482618 263.979832 
L 291.882754 260.907431 
L 292.28289 251.502602 
L 292.683026 248.52402 
L 293.483298 248.219121 
L 294.683705 247.093359 
L 295.483977 245.310896 
L 295.884113 246.342846 
L 296.284249 256.216744 
L 297.084521 282.038977 
L 297.884792 292.42885 
L 298.284928 295.595063 
L 298.685064 297.354071 
L 299.0852 298.034219 
L 299.485336 297.870046 
L 299.885472 297.14299 
L 300.285607 295.595063 
L 300.685743 292.123954 
L 301.085879 286.753117 
L 301.486015 283.680718 
L 301.886151 282.812941 
L 302.286287 279.623273 
L 302.686423 282.320418 
L 303.086558 282.95366 
L 303.88683 263.698392 
L 304.286966 267.028779 
L 304.687102 246.741557 
L 305.087238 245.404709 
L 305.487374 253.847945 
L 305.887509 268.41253 
L 306.287645 274.885679 
L 306.687781 276.879221 
L 307.087917 277.934626 
L 307.888189 256.334011 
L 308.288325 281.827898 
L 308.68846 286.237142 
L 309.088596 288.863926 
L 309.488732 288.582486 
L 309.888868 289.168822 
L 311.089276 282.343872 
L 311.489411 279.20111 
L 311.889547 285.345913 
L 312.289683 287.573987 
L 312.689819 287.597441 
L 313.089955 281.757537 
L 313.490091 281.546454 
L 313.890227 282.20315 
L 314.290362 282.343872 
L 314.690498 283.56345 
L 315.49077 287.409814 
L 315.890906 288.488672 
L 316.291042 288.535578 
L 316.691178 287.691255 
L 317.091313 287.45672 
L 317.491449 285.158285 
L 317.891585 288.910834 
L 318.291721 288.160323 
L 319.492129 283.235104 
L 319.892264 283.305461 
L 320.2924 281.992071 
L 320.692536 281.640269 
L 321.492808 280.209608 
L 321.892944 279.810901 
L 322.29308 279.74054 
L 322.693215 280.02198 
L 323.093351 280.866305 
L 323.893623 283.164743 
L 324.293759 283.727624 
L 324.693895 283.657263 
L 325.094031 282.95366 
L 326.694574 278.309882 
L 327.494846 274.228982 
L 327.894982 269.655563 
L 328.295117 271.41457 
L 328.695253 271.813278 
L 329.095389 272.469975 
L 329.495525 272.141628 
L 329.895661 274.744957 
L 331.096068 278.544417 
L 331.89634 280.795944 
L 332.296476 281.405735 
L 332.696612 281.265013 
L 333.096748 280.373782 
L 333.897019 278.239521 
L 334.297155 277.746998 
L 334.697291 278.497507 
L 335.497563 280.819399 
L 336.69797 287.573987 
L 337.498242 291.88942 
L 338.69865 298.268753 
L 339.098786 299.347613 
L 339.498921 299.816682 
L 339.899057 299.652507 
L 340.299193 299.652507 
L 340.699329 299.863588 
L 341.099465 299.699414 
L 341.499601 296.697374 
L 341.899737 249.227623 
L 342.299872 232.200427 
L 342.700008 231.872081 
L 343.100144 231.754814 
L 343.50028 232.716406 
L 343.900416 232.95094 
L 344.300552 232.927485 
L 344.700688 233.420009 
L 345.500959 232.200427 
L 345.901095 232.036251 
L 347.101503 233.373099 
L 347.501639 233.77181 
L 347.901774 233.232377 
L 348.30191 233.748356 
L 348.702046 233.701446 
L 349.102182 233.11511 
L 349.502318 232.833673 
L 349.902454 232.880576 
L 350.30259 233.889078 
L 351.102861 231.918983 
L 351.502997 231.848626 
L 351.903133 232.29424 
L 352.303269 233.959435 
L 352.703405 233.795258 
L 353.103541 232.786763 
L 353.503677 232.08316 
L 353.903812 232.012803 
L 354.303948 232.364604 
L 354.704084 232.388052 
L 355.10422 232.974388 
L 355.504356 232.223882 
L 355.904492 232.012803 
L 357.505035 229.221838 
L 357.905171 231.145023 
L 358.705443 227.439383 
L 360.305986 219.723197 
L 360.706122 217.495121 
L 361.106258 216.580438 
L 361.506394 213.930203 
L 362.306665 252.300024 
L 362.706801 241.957058 
L 363.106937 253.331974 
L 363.507073 234.14706 
L 363.907209 221.576024 
L 364.307345 223.053588 
L 364.707481 214.539994 
L 365.507752 212.804434 
L 365.907888 208.981527 
L 366.308024 207.410144 
L 366.70816 223.96827 
L 367.108296 228.705867 
L 367.908567 219.512118 
L 368.308703 233.466912 
L 368.708839 240.174595 
L 369.108975 244.536936 
L 369.509111 238.814299 
L 369.909247 245.779965 
L 370.309383 247.44516 
L 370.709518 254.997169 
L 371.50979 262.080102 
L 371.909926 265.035237 
L 372.310062 266.161002 
L 372.710198 265.973374 
L 373.110334 265.058692 
L 373.510469 262.994789 
L 373.910605 260.34455 
L 374.310741 261.798662 
L 375.111013 268.248357 
L 375.511149 270.452982 
L 375.911285 271.696011 
L 376.711556 272.798325 
L 377.911964 274.041354 
L 379.112371 275.518921 
L 379.912643 276.80886 
L 381.513187 280.045435 
L 382.313458 282.085883 
L 383.513866 285.885341 
L 384.314138 287.550534 
L 386.314817 291.162364 
L 387.515224 294.047135 
L 389.515904 299.019264 
L 390.716311 301.17698 
L 391.516583 302.091664 
L 392.716991 303.006348 
L 393.917398 303.709952 
L 395.517942 305.070251 
L 396.318213 305.140611 
L 396.718349 305.140611 
L 397.918757 304.460461 
L 399.919436 302.678 
L 402.320251 301.200434 
L 403.120523 300.332656 
L 404.320931 298.92545 
L 405.121202 298.479835 
L 405.921474 298.128033 
L 407.922153 296.345573 
L 408.722425 295.383982 
L 409.522697 293.976776 
L 410.723104 291.20927 
L 411.12324 290.271132 
L 411.523376 287.104919 
L 411.923512 275.636189 
L 412.323648 277.746998 
L 412.723784 280.749038 
L 413.123919 266.278269 
L 413.924191 278.778951 
L 414.724463 265.082143 
L 415.524735 284.290508 
L 415.92487 273.900636 
L 416.325006 270.241899 
L 416.725142 274.744957 
L 417.125278 275.260936 
L 417.525414 272.727964 
L 418.325686 273.431567 
L 419.125957 274.721506 
L 419.926229 276.761954 
L 420.326365 279.998529 
L 420.726501 294.961819 
L 421.126637 299.6056 
L 421.526772 298.78473 
L 422.327044 284.10288 
L 422.72718 284.337414 
L 423.127316 285.9557 
L 423.927588 297.846593 
L 424.327723 296.509746 
L 424.727859 300.145028 
L 425.127995 302.091664 
L 425.528131 306.055295 
L 425.928267 306.43055 
L 426.328403 306.266375 
L 426.728539 305.586226 
L 427.52881 307.368687 
L 427.928946 308.119197 
L 428.329082 308.213011 
L 428.729218 308.424092 
L 429.129354 308.424092 
L 431.130033 309.362229 
L 431.530169 309.549856 
L 432.730576 309.456043 
L 433.530848 305.726947 
L 434.33112 309.315322 
L 434.731256 309.291869 
L 435.131392 309.127695 
L 435.531527 309.127695 
L 436.331799 308.869707 
L 436.731935 308.377185 
L 437.132071 305.422052 
L 437.532207 304.460461 
L 437.932343 305.304785 
L 438.332478 307.462501 
L 439.13275 309.291869 
L 439.933022 309.925111 
L 441.133429 311.097783 
L 442.733973 311.777933 
L 443.134109 312.223548 
L 444.734652 313.255499 
L 446.335196 314.28745 
L 447.135467 314.521985 
L 447.535603 314.733066 
L 447.935739 314.756519 
L 448.335875 314.991053 
L 448.736011 314.991053 
L 450.336554 315.460122 
L 450.73669 315.460122 
L 451.136826 315.694656 
L 637.2 315.694656 
L 637.2 315.694656 
" clip-path="url(#pc22c4dd816)" style="fill: none; stroke: #024b7a; stroke-width: 1.5; stroke-linecap: square"/>
   </g>
   <g id="patch_3">
    <path d="M 61.4045 318.04 
L 61.4045 10.8 
" style="fill: none; stroke: #000000; stroke-width: 0.8; stroke-linejoin: miter; stroke-linecap: square"/>
   </g>
   <g id="patch_4">
    <path d="M 637.2 318.04 
L 637.2 10.8 
" style="fill: none; stroke: #000000; stroke-width: 0.8; stroke-linejoin: miter; stroke-linecap: square"/>
   </g>
   <g id="patch_5">
    <path d="M 61.4045 318.04 
L 637.2 318.04 
" style="fill: none; stroke: #000000; stroke-width: 0.8; stroke-linejoin: miter; stroke-linecap: square"/>
   </g>
   <g id="patch_6">
    <path d="M 61.4045 10.8 
L 637.2 10.8 
" style="fill: none; stroke: #000000; stroke-width: 0.8; stroke-linejoin: miter; stroke-linecap: square"/>
   </g>
   <g id="legend_1">
    <g id="patch_7">
     <path d="M 535.701563 77.5125 
L 630.2 77.5125 
Q 632.2 77.5125 632.2 75.5125 
L 632.2 17.8 
Q 632.2 15.8 630.2 15.8 
L 535.701563 15.8 
Q 533.701563 15.8 533.701563 17.8 
L 533.701563 75.5125 
Q 533.701563 77.5125 535.701563 77.5125 
z
" style="fill: #ffffff; opacity: 0.8; stroke: #cccccc; stroke-linejoin: miter"/>
    </g>
    <g id="line2d_36">
     <path d="M 537.701563 23.898438 
L 547.701563 23.898438 
L 557.701563 23.898438 
" style="fill: none; stroke: #ffae49; stroke-width: 1.5; stroke-linecap: square"/>
    </g>
    <g id="text_34">
     <!-- SummerLow -->
     <g transform="translate(565.701563 27.398438) scale(0.1 -0.1)">
      <defs>
       <path id="DejaVuSans-75" d="M 544 1381 
L 544 3500 
L 1119 3500 
L 1119 1403 
Q 1119 906 1312 657 
Q 1506 409 1894 409 
Q 2359 409 2629 706 
Q 2900 1003 2900 1516 
L 2900 3500 
L 3475 3500 
L 3475 0 
L 2900 0 
L 2900 538 
Q 2691 219 2414 64 
Q 2138 -91 1772 -91 
Q 1169 -91 856 284 
Q 544 659 544 1381 
z
M 1991 3584 
L 1991 3584 
z
" transform="scale(0.015625)"/>
       <path id="DejaVuSans-4c" d="M 628 4666 
L 1259 4666 
L 1259 531 
L 3531 531 
L 3531 0 
L 628 0 
L 628 4666 
z
" transform="scale(0.015625)"/>
       <path id="DejaVuSans-77" d="M 269 3500 
L 844 3500 
L 1563 769 
L 2278 3500 
L 2956 3500 
L 3675 769 
L 4391 3500 
L 4966 3500 
L 4050 0 
L 3372 0 
L 2619 2869 
L 1863 0 
L 1184 0 
L 269 3500 
z
" transform="scale(0.015625)"/>
      </defs>
      <use xlink:href="#DejaVuSans-53"/>
      <use xlink:href="#DejaVuSans-75" x="63.476562"/>
      <use xlink:href="#DejaVuSans-6d" x="126.855469"/>
      <use xlink:href="#DejaVuSans-6d" x="224.267578"/>
      <use xlink:href="#DejaVuSans-65" x="321.679688"/>
      <use xlink:href="#DejaVuSans-72" x="383.203125"/>
      <use xlink:href="#DejaVuSans-4c" x="424.316406"/>
      <use xlink:href="#DejaVuSans-6f" x="478.279297"/>
      <use xlink:href="#DejaVuSans-77" x="539.460938"/>
     </g>
    </g>
    <g id="line2d_37">
     <path d="M 537.701563 38.576563 
L 547.701563 38.576563 
L 557.701563 38.576563 
" style="fill: none; stroke: #44a5ff; stroke-width: 1.5; stroke-linecap: square"/>
    </g>
    <g id="text_35">
     <!-- AutumnLow -->
     <g transform="translate(565.701563 42.076563) scale(0.1 -0.1)">
      <defs>
       <path id="DejaVuSans-41" d="M 2188 4044 
L 1331 1722 
L 3047 1722 
L 2188 4044 
z
M 1831 4666 
L 2547 4666 
L 4325 0 
L 3669 0 
L 3244 1197 
L 1141 1197 
L 716 0 
L 50 0 
L 1831 4666 
z
" transform="scale(0.015625)"/>
      </defs>
      <use xlink:href="#DejaVuSans-41"/>
      <use xlink:href="#DejaVuSans-75" x="68.408203"/>
      <use xlink:href="#DejaVuSans-74" x="131.787109"/>
      <use xlink:href="#DejaVuSans-75" x="170.996094"/>
      <use xlink:href="#DejaVuSans-6d" x="234.375"/>
      <use xlink:href="#DejaVuSans-6e" x="331.787109"/>
      <use xlink:href="#DejaVuSans-4c" x="395.166016"/>
      <use xlink:href="#DejaVuSans-6f" x="449.128906"/>
      <use xlink:href="#DejaVuSans-77" x="510.310547"/>
     </g>
    </g>
    <g id="line2d_38">
     <path d="M 537.701563 53.254687 
L 547.701563 53.254687 
L 557.701563 53.254687 
" style="fill: none; stroke: #44a5c2; stroke-width: 1.5; stroke-linecap: square"/>
    </g>
    <g id="text_36">
     <!-- AutumnHigh -->
     <g transform="translate(565.701563 56.754687) scale(0.1 -0.1)">
      <defs>
       <path id="DejaVuSans-48" d="M 628 4666 
L 1259 4666 
L 1259 2753 
L 3553 2753 
L 3553 4666 
L 4184 4666 
L 4184 0 
L 3553 0 
L 3553 2222 
L 1259 2222 
L 1259 0 
L 628 0 
L 628 4666 
z
" transform="scale(0.015625)"/>
       <path id="DejaVuSans-67" d="M 2906 1791 
Q 2906 2416 2648 2759 
Q 2391 3103 1925 3103 
Q 1463 3103 1205 2759 
Q 947 2416 947 1791 
Q 947 1169 1205 825 
Q 1463 481 1925 481 
Q 2391 481 2648 825 
Q 2906 1169 2906 1791 
z
M 3481 434 
Q 3481 -459 3084 -895 
Q 2688 -1331 1869 -1331 
Q 1566 -1331 1297 -1286 
Q 1028 -1241 775 -1147 
L 775 -588 
Q 1028 -725 1275 -790 
Q 1522 -856 1778 -856 
Q 2344 -856 2625 -561 
Q 2906 -266 2906 331 
L 2906 616 
Q 2728 306 2450 153 
Q 2172 0 1784 0 
Q 1141 0 747 490 
Q 353 981 353 1791 
Q 353 2603 747 3093 
Q 1141 3584 1784 3584 
Q 2172 3584 2450 3431 
Q 2728 3278 2906 2969 
L 2906 3500 
L 3481 3500 
L 3481 434 
z
" transform="scale(0.015625)"/>
      </defs>
      <use xlink:href="#DejaVuSans-41"/>
      <use xlink:href="#DejaVuSans-75" x="68.408203"/>
      <use xlink:href="#DejaVuSans-74" x="131.787109"/>
      <use xlink:href="#DejaVuSans-75" x="170.996094"/>
      <use xlink:href="#DejaVuSans-6d" x="234.375"/>
      <use xlink:href="#DejaVuSans-6e" x="331.787109"/>
      <use xlink:href="#DejaVuSans-48" x="395.166016"/>
      <use xlink:href="#DejaVuSans-69" x="470.361328"/>
      <use xlink:href="#DejaVuSans-67" x="498.144531"/>
      <use xlink:href="#DejaVuSans-68" x="561.621094"/>
     </g>
    </g>
    <g id="line2d_39">
     <path d="M 537.701563 67.932813 
L 547.701563 67.932813 
L 557.701563 67.932813 
" style="fill: none; stroke: #024b7a; stroke-width: 1.5; stroke-linecap: square"/>
    </g>
    <g id="text_37">
     <!-- WinterHigh -->
     <g transform="translate(565.701563 71.432813) scale(0.1 -0.1)">
      <use xlink:href="#DejaVuSans-57"/>
      <use xlink:href="#DejaVuSans-69" x="96.626953"/>
      <use xlink:href="#DejaVuSans-6e" x="124.410156"/>
      <use xlink:href="#DejaVuSans-74" x="187.789062"/>
      <use xlink:href="#DejaVuSans-65" x="226.998047"/>
      <use xlink:href="#DejaVuSans-72" x="288.521484"/>
      <use xlink:href="#DejaVuSans-48" x="329.634766"/>
      <use xlink:href="#DejaVuSans-69" x="404.830078"/>
      <use xlink:href="#DejaVuSans-67" x="432.613281"/>
      <use xlink:href="#DejaVuSans-68" x="496.089844"/>
     </g>
    </g>
   </g>
  </g>
 </g>
 <defs>
  <clipPath id="pc22c4dd816">
   <rect x="61.4045" y="10.8" width="575.7955" height="307.24"/>
  </clipPath>
 </defs>
</svg>
