<?xml version="1.0" encoding="utf-8" standalone="no"?>
<!DOCTYPE svg PUBLIC "-//W3C//DTD SVG 1.1//EN"
  "http://www.w3.org/Graphics/SVG/1.1/DTD/svg11.dtd">
<svg xmlns:xlink="http://www.w3.org/1999/xlink" width="1141.1455pt" height="639.99625pt" viewBox="0 0 1141.1455 639.99625" xmlns="http://www.w3.org/2000/svg" version="1.1">
 <metadata>
  <rdf:RDF xmlns:dc="http://purl.org/dc/elements/1.1/" xmlns:cc="http://creativecommons.org/ns#" xmlns:rdf="http://www.w3.org/1999/02/22-rdf-syntax-ns#">
   <cc:Work>
    <dc:type rdf:resource="http://purl.org/dc/dcmitype/StillImage"/>
    <dc:date>2024-03-05T16:29:52.201927</dc:date>
    <dc:format>image/svg+xml</dc:format>
    <dc:creator>
     <cc:Agent>
      <dc:title>Matplotlib v3.8.2, https://matplotlib.org/</dc:title>
     </cc:Agent>
    </dc:creator>
   </cc:Work>
  </rdf:RDF>
 </metadata>
 <defs>
  <style type="text/css">*{stroke-linejoin: round; stroke-linecap: butt}</style>
 </defs>
 <g id="figure_1">
  <g id="patch_1">
   <path d="M 0 639.99625 
L 1141.1455 639.99625 
L 1141.1455 0 
L 0 0 
z
" style="fill: #ffffff"/>
  </g>
  <g id="axes_1">
   <g id="patch_2">
    <path d="M 54.15 156.01 
L 1133.9455 156.01 
L 1133.9455 7.2 
L 54.15 7.2 
z
" style="fill: #ffffff"/>
   </g>
   <g id="matplotlib.axis_1">
    <g id="xtick_1">
     <g id="line2d_1">
      <defs>
       <path id="m680efb91a9" d="M 0 0 
L 0 3.5 
" style="stroke: #000000; stroke-width: 0.8"/>
      </defs>
      <g>
       <use xlink:href="#m680efb91a9" x="54.15" y="156.01" style="stroke: #000000; stroke-width: 0.8"/>
      </g>
     </g>
    </g>
    <g id="xtick_2">
     <g id="line2d_2">
      <g>
       <use xlink:href="#m680efb91a9" x="99.141479" y="156.01" style="stroke: #000000; stroke-width: 0.8"/>
      </g>
     </g>
    </g>
    <g id="xtick_3">
     <g id="line2d_3">
      <g>
       <use xlink:href="#m680efb91a9" x="144.132958" y="156.01" style="stroke: #000000; stroke-width: 0.8"/>
      </g>
     </g>
    </g>
    <g id="xtick_4">
     <g id="line2d_4">
      <g>
       <use xlink:href="#m680efb91a9" x="189.124437" y="156.01" style="stroke: #000000; stroke-width: 0.8"/>
      </g>
     </g>
    </g>
    <g id="xtick_5">
     <g id="line2d_5">
      <g>
       <use xlink:href="#m680efb91a9" x="234.115917" y="156.01" style="stroke: #000000; stroke-width: 0.8"/>
      </g>
     </g>
    </g>
    <g id="xtick_6">
     <g id="line2d_6">
      <g>
       <use xlink:href="#m680efb91a9" x="279.107396" y="156.01" style="stroke: #000000; stroke-width: 0.8"/>
      </g>
     </g>
    </g>
    <g id="xtick_7">
     <g id="line2d_7">
      <g>
       <use xlink:href="#m680efb91a9" x="324.098875" y="156.01" style="stroke: #000000; stroke-width: 0.8"/>
      </g>
     </g>
    </g>
    <g id="xtick_8">
     <g id="line2d_8">
      <g>
       <use xlink:href="#m680efb91a9" x="369.090354" y="156.01" style="stroke: #000000; stroke-width: 0.8"/>
      </g>
     </g>
    </g>
    <g id="xtick_9">
     <g id="line2d_9">
      <g>
       <use xlink:href="#m680efb91a9" x="414.081833" y="156.01" style="stroke: #000000; stroke-width: 0.8"/>
      </g>
     </g>
    </g>
    <g id="xtick_10">
     <g id="line2d_10">
      <g>
       <use xlink:href="#m680efb91a9" x="459.073312" y="156.01" style="stroke: #000000; stroke-width: 0.8"/>
      </g>
     </g>
    </g>
    <g id="xtick_11">
     <g id="line2d_11">
      <g>
       <use xlink:href="#m680efb91a9" x="504.064792" y="156.01" style="stroke: #000000; stroke-width: 0.8"/>
      </g>
     </g>
    </g>
    <g id="xtick_12">
     <g id="line2d_12">
      <g>
       <use xlink:href="#m680efb91a9" x="549.056271" y="156.01" style="stroke: #000000; stroke-width: 0.8"/>
      </g>
     </g>
    </g>
    <g id="xtick_13">
     <g id="line2d_13">
      <g>
       <use xlink:href="#m680efb91a9" x="594.04775" y="156.01" style="stroke: #000000; stroke-width: 0.8"/>
      </g>
     </g>
    </g>
    <g id="xtick_14">
     <g id="line2d_14">
      <g>
       <use xlink:href="#m680efb91a9" x="639.039229" y="156.01" style="stroke: #000000; stroke-width: 0.8"/>
      </g>
     </g>
    </g>
    <g id="xtick_15">
     <g id="line2d_15">
      <g>
       <use xlink:href="#m680efb91a9" x="684.030708" y="156.01" style="stroke: #000000; stroke-width: 0.8"/>
      </g>
     </g>
    </g>
    <g id="xtick_16">
     <g id="line2d_16">
      <g>
       <use xlink:href="#m680efb91a9" x="729.022187" y="156.01" style="stroke: #000000; stroke-width: 0.8"/>
      </g>
     </g>
    </g>
    <g id="xtick_17">
     <g id="line2d_17">
      <g>
       <use xlink:href="#m680efb91a9" x="774.013667" y="156.01" style="stroke: #000000; stroke-width: 0.8"/>
      </g>
     </g>
    </g>
    <g id="xtick_18">
     <g id="line2d_18">
      <g>
       <use xlink:href="#m680efb91a9" x="819.005146" y="156.01" style="stroke: #000000; stroke-width: 0.8"/>
      </g>
     </g>
    </g>
    <g id="xtick_19">
     <g id="line2d_19">
      <g>
       <use xlink:href="#m680efb91a9" x="863.996625" y="156.01" style="stroke: #000000; stroke-width: 0.8"/>
      </g>
     </g>
    </g>
    <g id="xtick_20">
     <g id="line2d_20">
      <g>
       <use xlink:href="#m680efb91a9" x="908.988104" y="156.01" style="stroke: #000000; stroke-width: 0.8"/>
      </g>
     </g>
    </g>
    <g id="xtick_21">
     <g id="line2d_21">
      <g>
       <use xlink:href="#m680efb91a9" x="953.979583" y="156.01" style="stroke: #000000; stroke-width: 0.8"/>
      </g>
     </g>
    </g>
    <g id="xtick_22">
     <g id="line2d_22">
      <g>
       <use xlink:href="#m680efb91a9" x="998.971062" y="156.01" style="stroke: #000000; stroke-width: 0.8"/>
      </g>
     </g>
    </g>
    <g id="xtick_23">
     <g id="line2d_23">
      <g>
       <use xlink:href="#m680efb91a9" x="1043.962542" y="156.01" style="stroke: #000000; stroke-width: 0.8"/>
      </g>
     </g>
    </g>
    <g id="xtick_24">
     <g id="line2d_24">
      <g>
       <use xlink:href="#m680efb91a9" x="1088.954021" y="156.01" style="stroke: #000000; stroke-width: 0.8"/>
      </g>
     </g>
    </g>
   </g>
   <g id="matplotlib.axis_2">
    <g id="ytick_1">
     <g id="line2d_25">
      <defs>
       <path id="m3828bf3601" d="M 0 0 
L -3.5 0 
" style="stroke: #000000; stroke-width: 0.8"/>
      </defs>
      <g>
       <use xlink:href="#m3828bf3601" x="54.15" y="149.245909" style="stroke: #000000; stroke-width: 0.8"/>
      </g>
     </g>
     <g id="text_1">
      <!-- 0 -->
      <g transform="translate(40.7875 153.045128) scale(0.1 -0.1)">
       <defs>
        <path id="DejaVuSans-30" d="M 2034 4250 
Q 1547 4250 1301 3770 
Q 1056 3291 1056 2328 
Q 1056 1369 1301 889 
Q 1547 409 2034 409 
Q 2525 409 2770 889 
Q 3016 1369 3016 2328 
Q 3016 3291 2770 3770 
Q 2525 4250 2034 4250 
z
M 2034 4750 
Q 2819 4750 3233 4129 
Q 3647 3509 3647 2328 
Q 3647 1150 3233 529 
Q 2819 -91 2034 -91 
Q 1250 -91 836 529 
Q 422 1150 422 2328 
Q 422 3509 836 4129 
Q 1250 4750 2034 4750 
z
" transform="scale(0.015625)"/>
       </defs>
       <use xlink:href="#DejaVuSans-30"/>
      </g>
     </g>
    </g>
    <g id="ytick_2">
     <g id="line2d_26">
      <g>
       <use xlink:href="#m3828bf3601" x="54.15" y="108.251418" style="stroke: #000000; stroke-width: 0.8"/>
      </g>
     </g>
     <g id="text_2">
      <!-- 1 -->
      <g transform="translate(40.7875 112.050637) scale(0.1 -0.1)">
       <defs>
        <path id="DejaVuSans-31" d="M 794 531 
L 1825 531 
L 1825 4091 
L 703 3866 
L 703 4441 
L 1819 4666 
L 2450 4666 
L 2450 531 
L 3481 531 
L 3481 0 
L 794 0 
L 794 531 
z
" transform="scale(0.015625)"/>
       </defs>
       <use xlink:href="#DejaVuSans-31"/>
      </g>
     </g>
    </g>
    <g id="ytick_3">
     <g id="line2d_27">
      <g>
       <use xlink:href="#m3828bf3601" x="54.15" y="67.256927" style="stroke: #000000; stroke-width: 0.8"/>
      </g>
     </g>
     <g id="text_3">
      <!-- 2 -->
      <g transform="translate(40.7875 71.056146) scale(0.1 -0.1)">
       <defs>
        <path id="DejaVuSans-32" d="M 1228 531 
L 3431 531 
L 3431 0 
L 469 0 
L 469 531 
Q 828 903 1448 1529 
Q 2069 2156 2228 2338 
Q 2531 2678 2651 2914 
Q 2772 3150 2772 3378 
Q 2772 3750 2511 3984 
Q 2250 4219 1831 4219 
Q 1534 4219 1204 4116 
Q 875 4013 500 3803 
L 500 4441 
Q 881 4594 1212 4672 
Q 1544 4750 1819 4750 
Q 2544 4750 2975 4387 
Q 3406 4025 3406 3419 
Q 3406 3131 3298 2873 
Q 3191 2616 2906 2266 
Q 2828 2175 2409 1742 
Q 1991 1309 1228 531 
z
" transform="scale(0.015625)"/>
       </defs>
       <use xlink:href="#DejaVuSans-32"/>
      </g>
     </g>
    </g>
    <g id="ytick_4">
     <g id="line2d_28">
      <g>
       <use xlink:href="#m3828bf3601" x="54.15" y="26.262436" style="stroke: #000000; stroke-width: 0.8"/>
      </g>
     </g>
     <g id="text_4">
      <!-- 3 -->
      <g transform="translate(40.7875 30.061655) scale(0.1 -0.1)">
       <defs>
        <path id="DejaVuSans-33" d="M 2597 2516 
Q 3050 2419 3304 2112 
Q 3559 1806 3559 1356 
Q 3559 666 3084 287 
Q 2609 -91 1734 -91 
Q 1441 -91 1130 -33 
Q 819 25 488 141 
L 488 750 
Q 750 597 1062 519 
Q 1375 441 1716 441 
Q 2309 441 2620 675 
Q 2931 909 2931 1356 
Q 2931 1769 2642 2001 
Q 2353 2234 1838 2234 
L 1294 2234 
L 1294 2753 
L 1863 2753 
Q 2328 2753 2575 2939 
Q 2822 3125 2822 3475 
Q 2822 3834 2567 4026 
Q 2313 4219 1838 4219 
Q 1578 4219 1281 4162 
Q 984 4106 628 3988 
L 628 4550 
Q 988 4650 1302 4700 
Q 1616 4750 1894 4750 
Q 2613 4750 3031 4423 
Q 3450 4097 3450 3541 
Q 3450 3153 3228 2886 
Q 3006 2619 2597 2516 
z
" transform="scale(0.015625)"/>
       </defs>
       <use xlink:href="#DejaVuSans-33"/>
      </g>
     </g>
    </g>
    <g id="text_5">
     <!-- Voltage [V] -->
     <g transform="translate(34.707813 109.272187) rotate(-90) scale(0.1 -0.1)">
      <defs>
       <path id="DejaVuSans-56" d="M 1831 0 
L 50 4666 
L 709 4666 
L 2188 738 
L 3669 4666 
L 4325 4666 
L 2547 0 
L 1831 0 
z
" transform="scale(0.015625)"/>
       <path id="DejaVuSans-6f" d="M 1959 3097 
Q 1497 3097 1228 2736 
Q 959 2375 959 1747 
Q 959 1119 1226 758 
Q 1494 397 1959 397 
Q 2419 397 2687 759 
Q 2956 1122 2956 1747 
Q 2956 2369 2687 2733 
Q 2419 3097 1959 3097 
z
M 1959 3584 
Q 2709 3584 3137 3096 
Q 3566 2609 3566 1747 
Q 3566 888 3137 398 
Q 2709 -91 1959 -91 
Q 1206 -91 779 398 
Q 353 888 353 1747 
Q 353 2609 779 3096 
Q 1206 3584 1959 3584 
z
" transform="scale(0.015625)"/>
       <path id="DejaVuSans-6c" d="M 603 4863 
L 1178 4863 
L 1178 0 
L 603 0 
L 603 4863 
z
" transform="scale(0.015625)"/>
       <path id="DejaVuSans-74" d="M 1172 4494 
L 1172 3500 
L 2356 3500 
L 2356 3053 
L 1172 3053 
L 1172 1153 
Q 1172 725 1289 603 
Q 1406 481 1766 481 
L 2356 481 
L 2356 0 
L 1766 0 
Q 1100 0 847 248 
Q 594 497 594 1153 
L 594 3053 
L 172 3053 
L 172 3500 
L 594 3500 
L 594 4494 
L 1172 4494 
z
" transform="scale(0.015625)"/>
       <path id="DejaVuSans-61" d="M 2194 1759 
Q 1497 1759 1228 1600 
Q 959 1441 959 1056 
Q 959 750 1161 570 
Q 1363 391 1709 391 
Q 2188 391 2477 730 
Q 2766 1069 2766 1631 
L 2766 1759 
L 2194 1759 
z
M 3341 1997 
L 3341 0 
L 2766 0 
L 2766 531 
Q 2569 213 2275 61 
Q 1981 -91 1556 -91 
Q 1019 -91 701 211 
Q 384 513 384 1019 
Q 384 1609 779 1909 
Q 1175 2209 1959 2209 
L 2766 2209 
L 2766 2266 
Q 2766 2663 2505 2880 
Q 2244 3097 1772 3097 
Q 1472 3097 1187 3025 
Q 903 2953 641 2809 
L 641 3341 
Q 956 3463 1253 3523 
Q 1550 3584 1831 3584 
Q 2591 3584 2966 3190 
Q 3341 2797 3341 1997 
z
" transform="scale(0.015625)"/>
       <path id="DejaVuSans-67" d="M 2906 1791 
Q 2906 2416 2648 2759 
Q 2391 3103 1925 3103 
Q 1463 3103 1205 2759 
Q 947 2416 947 1791 
Q 947 1169 1205 825 
Q 1463 481 1925 481 
Q 2391 481 2648 825 
Q 2906 1169 2906 1791 
z
M 3481 434 
Q 3481 -459 3084 -895 
Q 2688 -1331 1869 -1331 
Q 1566 -1331 1297 -1286 
Q 1028 -1241 775 -1147 
L 775 -588 
Q 1028 -725 1275 -790 
Q 1522 -856 1778 -856 
Q 2344 -856 2625 -561 
Q 2906 -266 2906 331 
L 2906 616 
Q 2728 306 2450 153 
Q 2172 0 1784 0 
Q 1141 0 747 490 
Q 353 981 353 1791 
Q 353 2603 747 3093 
Q 1141 3584 1784 3584 
Q 2172 3584 2450 3431 
Q 2728 3278 2906 2969 
L 2906 3500 
L 3481 3500 
L 3481 434 
z
" transform="scale(0.015625)"/>
       <path id="DejaVuSans-65" d="M 3597 1894 
L 3597 1613 
L 953 1613 
Q 991 1019 1311 708 
Q 1631 397 2203 397 
Q 2534 397 2845 478 
Q 3156 559 3463 722 
L 3463 178 
Q 3153 47 2828 -22 
Q 2503 -91 2169 -91 
Q 1331 -91 842 396 
Q 353 884 353 1716 
Q 353 2575 817 3079 
Q 1281 3584 2069 3584 
Q 2775 3584 3186 3129 
Q 3597 2675 3597 1894 
z
M 3022 2063 
Q 3016 2534 2758 2815 
Q 2500 3097 2075 3097 
Q 1594 3097 1305 2825 
Q 1016 2553 972 2059 
L 3022 2063 
z
" transform="scale(0.015625)"/>
       <path id="DejaVuSans-20" transform="scale(0.015625)"/>
       <path id="DejaVuSans-5b" d="M 550 4863 
L 1875 4863 
L 1875 4416 
L 1125 4416 
L 1125 -397 
L 1875 -397 
L 1875 -844 
L 550 -844 
L 550 4863 
z
" transform="scale(0.015625)"/>
       <path id="DejaVuSans-5d" d="M 1947 4863 
L 1947 -844 
L 622 -844 
L 622 -397 
L 1369 -397 
L 1369 4416 
L 622 4416 
L 622 4863 
L 1947 4863 
z
" transform="scale(0.015625)"/>
      </defs>
      <use xlink:href="#DejaVuSans-56"/>
      <use xlink:href="#DejaVuSans-6f" x="60.658203"/>
      <use xlink:href="#DejaVuSans-6c" x="121.839844"/>
      <use xlink:href="#DejaVuSans-74" x="149.623047"/>
      <use xlink:href="#DejaVuSans-61" x="188.832031"/>
      <use xlink:href="#DejaVuSans-67" x="250.111328"/>
      <use xlink:href="#DejaVuSans-65" x="313.587891"/>
      <use xlink:href="#DejaVuSans-20" x="375.111328"/>
      <use xlink:href="#DejaVuSans-5b" x="406.898438"/>
      <use xlink:href="#DejaVuSans-56" x="445.912109"/>
      <use xlink:href="#DejaVuSans-5d" x="514.320312"/>
     </g>
    </g>
   </g>
   <g id="line2d_29">
    <path d="M 54.15 149.245909 
L 369.840203 149.245909 
L 369.952495 137.731441 
L 370.287444 126.266365 
L 371.578987 96.03489 
L 372.513372 80.907509 
L 373.625311 66.431291 
L 375.093221 50.519632 
L 376.830042 33.17154 
L 378.234039 13.964091 
L 383.866834 14.074301 
L 384.372176 72.408982 
L 384.41653 79.557095 
L 384.500065 74.989199 
L 385.162677 45.661512 
L 385.355977 38.560449 
L 385.385447 41.470427 
L 385.676904 79.556714 
L 385.783047 72.837267 
L 386.449983 39.367173 
L 386.468067 38.560459 
L 386.50391 41.917219 
L 386.811714 79.556377 
L 386.917607 72.444026 
L 387.512232 38.560224 
L 387.53159 40.194998 
L 387.8769 79.555815 
L 387.976819 71.551292 
L 388.503181 38.560537 
L 388.512117 39.205748 
L 388.880648 79.5556 
L 388.983516 71.32731 
L 389.495394 38.560205 
L 389.510103 39.809469 
L 389.890944 79.55582 
L 389.988475 71.116317 
L 390.443177 38.560332 
L 390.470709 40.785397 
L 390.860698 79.555502 
L 390.95293 70.969176 
L 391.398971 38.560195 
L 391.41643 39.965919 
L 391.816492 79.555273 
L 391.908724 70.968971 
L 392.351728 38.560068 
L 392.372111 39.97536 
L 392.805792 79.555835 
L 392.894312 70.51848 
L 393.286001 38.560713 
L 393.31612 40.63143 
L 393.756987 79.556216 
L 393.840321 70.676513 
L 394.204964 38.555631 
L 394.234646 40.552448 
L 394.71468 79.556504 
L 394.788816 70.699076 
L 395.133476 38.549708 
L 395.16622 40.606106 
L 395.701881 79.556157 
L 395.764844 71.489135 
L 396.094256 38.538331 
L 396.130762 40.502435 
L 396.678808 76.072635 
L 396.72095 79.555492 
L 396.762805 73.877566 
L 397.08087 38.53061 
L 397.128111 40.778526 
L 397.740945 75.315734 
L 397.802833 79.55561 
L 397.837601 74.350346 
L 398.145705 38.527482 
L 398.184836 40.280041 
L 398.898613 77.165562 
L 398.948991 69.902596 
L 399.447071 15.580334 
L 399.576472 13.964091 
L 769.531436 14.075102 
L 770.271784 20.713891 
L 770.283294 19.581356 
L 770.448 13.964091 
L 777.772888 14.074838 
L 778.25276 65.377553 
L 778.345742 79.55731 
L 778.431051 74.78259 
L 779.05482 46.918995 
L 779.287126 38.560606 
L 779.311609 41.337698 
L 779.468405 61.698794 
L 779.566673 58.450006 
L 780.512794 31.677735 
L 781.214049 16.911082 
L 781.482323 13.964091 
L 786.967347 14.074174 
L 787.364434 73.292591 
L 787.50577 79.558078 
L 1133.9455 79.558078 
L 1133.9455 79.558078 
" clip-path="url(#p3891b56fd3)" style="fill: none; stroke: #1f77b4; stroke-width: 1.5; stroke-linecap: square"/>
   </g>
   <g id="line2d_30">
    <path d="M 54.15 38.560784 
L 1133.9455 38.560784 
" clip-path="url(#p3891b56fd3)" style="fill: none; stroke-dasharray: 5.55,2.4; stroke-dashoffset: 0; stroke: #008000; stroke-width: 1.5"/>
   </g>
   <g id="line2d_31">
    <path d="M 54.15 71.356376 
L 1133.9455 71.356376 
" clip-path="url(#p3891b56fd3)" style="fill: none; stroke-dasharray: 5.55,2.4; stroke-dashoffset: 0; stroke: #ffa500; stroke-width: 1.5"/>
   </g>
   <g id="line2d_32">
    <path d="M 54.15 79.555274 
L 1133.9455 79.555274 
" clip-path="url(#p3891b56fd3)" style="fill: none; stroke-dasharray: 5.55,2.4; stroke-dashoffset: 0; stroke: #ff0000; stroke-width: 1.5"/>
   </g>
   <g id="patch_3">
    <path d="M 54.15 156.01 
L 54.15 7.2 
" style="fill: none; stroke: #000000; stroke-width: 0.8; stroke-linejoin: miter; stroke-linecap: square"/>
   </g>
   <g id="patch_4">
    <path d="M 1133.9455 156.01 
L 1133.9455 7.2 
" style="fill: none; stroke: #000000; stroke-width: 0.8; stroke-linejoin: miter; stroke-linecap: square"/>
   </g>
   <g id="patch_5">
    <path d="M 54.15 156.01 
L 1133.9455 156.01 
" style="fill: none; stroke: #000000; stroke-width: 0.8; stroke-linejoin: miter; stroke-linecap: square"/>
   </g>
   <g id="patch_6">
    <path d="M 54.15 7.2 
L 1133.9455 7.2 
" style="fill: none; stroke: #000000; stroke-width: 0.8; stroke-linejoin: miter; stroke-linecap: square"/>
   </g>
   <g id="legend_1">
    <g id="patch_7">
     <path d="M 1056.648625 29.878125 
L 1126.9455 29.878125 
Q 1128.9455 29.878125 1128.9455 27.878125 
L 1128.9455 14.2 
Q 1128.9455 12.2 1126.9455 12.2 
L 1056.648625 12.2 
Q 1054.648625 12.2 1054.648625 14.2 
L 1054.648625 27.878125 
Q 1054.648625 29.878125 1056.648625 29.878125 
z
" style="fill: #ffffff; opacity: 0.8; stroke: #cccccc; stroke-linejoin: miter"/>
    </g>
    <g id="line2d_33">
     <path d="M 1058.648625 20.298437 
L 1068.648625 20.298437 
L 1078.648625 20.298437 
" style="fill: none; stroke: #1f77b4; stroke-width: 1.5; stroke-linecap: square"/>
    </g>
    <g id="text_6">
     <!-- Interval -->
     <g transform="translate(1086.648625 23.798437) scale(0.1 -0.1)">
      <defs>
       <path id="DejaVuSans-49" d="M 628 4666 
L 1259 4666 
L 1259 0 
L 628 0 
L 628 4666 
z
" transform="scale(0.015625)"/>
       <path id="DejaVuSans-6e" d="M 3513 2113 
L 3513 0 
L 2938 0 
L 2938 2094 
Q 2938 2591 2744 2837 
Q 2550 3084 2163 3084 
Q 1697 3084 1428 2787 
Q 1159 2491 1159 1978 
L 1159 0 
L 581 0 
L 581 3500 
L 1159 3500 
L 1159 2956 
Q 1366 3272 1645 3428 
Q 1925 3584 2291 3584 
Q 2894 3584 3203 3211 
Q 3513 2838 3513 2113 
z
" transform="scale(0.015625)"/>
       <path id="DejaVuSans-72" d="M 2631 2963 
Q 2534 3019 2420 3045 
Q 2306 3072 2169 3072 
Q 1681 3072 1420 2755 
Q 1159 2438 1159 1844 
L 1159 0 
L 581 0 
L 581 3500 
L 1159 3500 
L 1159 2956 
Q 1341 3275 1631 3429 
Q 1922 3584 2338 3584 
Q 2397 3584 2469 3576 
Q 2541 3569 2628 3553 
L 2631 2963 
z
" transform="scale(0.015625)"/>
       <path id="DejaVuSans-76" d="M 191 3500 
L 800 3500 
L 1894 563 
L 2988 3500 
L 3597 3500 
L 2284 0 
L 1503 0 
L 191 3500 
z
" transform="scale(0.015625)"/>
      </defs>
      <use xlink:href="#DejaVuSans-49"/>
      <use xlink:href="#DejaVuSans-6e" x="29.492188"/>
      <use xlink:href="#DejaVuSans-74" x="92.871094"/>
      <use xlink:href="#DejaVuSans-65" x="132.080078"/>
      <use xlink:href="#DejaVuSans-72" x="193.603516"/>
      <use xlink:href="#DejaVuSans-76" x="234.716797"/>
      <use xlink:href="#DejaVuSans-61" x="293.896484"/>
      <use xlink:href="#DejaVuSans-6c" x="355.175781"/>
     </g>
    </g>
   </g>
  </g>
  <g id="axes_2">
   <g id="patch_8">
    <path d="M 54.15 304.82 
L 1133.9455 304.82 
L 1133.9455 156.01 
L 54.15 156.01 
z
" style="fill: #ffffff"/>
   </g>
   <g id="matplotlib.axis_3">
    <g id="xtick_25">
     <g id="line2d_34">
      <g>
       <use xlink:href="#m680efb91a9" x="54.15" y="304.82" style="stroke: #000000; stroke-width: 0.8"/>
      </g>
     </g>
    </g>
    <g id="xtick_26">
     <g id="line2d_35">
      <g>
       <use xlink:href="#m680efb91a9" x="99.141479" y="304.82" style="stroke: #000000; stroke-width: 0.8"/>
      </g>
     </g>
    </g>
    <g id="xtick_27">
     <g id="line2d_36">
      <g>
       <use xlink:href="#m680efb91a9" x="144.132958" y="304.82" style="stroke: #000000; stroke-width: 0.8"/>
      </g>
     </g>
    </g>
    <g id="xtick_28">
     <g id="line2d_37">
      <g>
       <use xlink:href="#m680efb91a9" x="189.124437" y="304.82" style="stroke: #000000; stroke-width: 0.8"/>
      </g>
     </g>
    </g>
    <g id="xtick_29">
     <g id="line2d_38">
      <g>
       <use xlink:href="#m680efb91a9" x="234.115917" y="304.82" style="stroke: #000000; stroke-width: 0.8"/>
      </g>
     </g>
    </g>
    <g id="xtick_30">
     <g id="line2d_39">
      <g>
       <use xlink:href="#m680efb91a9" x="279.107396" y="304.82" style="stroke: #000000; stroke-width: 0.8"/>
      </g>
     </g>
    </g>
    <g id="xtick_31">
     <g id="line2d_40">
      <g>
       <use xlink:href="#m680efb91a9" x="324.098875" y="304.82" style="stroke: #000000; stroke-width: 0.8"/>
      </g>
     </g>
    </g>
    <g id="xtick_32">
     <g id="line2d_41">
      <g>
       <use xlink:href="#m680efb91a9" x="369.090354" y="304.82" style="stroke: #000000; stroke-width: 0.8"/>
      </g>
     </g>
    </g>
    <g id="xtick_33">
     <g id="line2d_42">
      <g>
       <use xlink:href="#m680efb91a9" x="414.081833" y="304.82" style="stroke: #000000; stroke-width: 0.8"/>
      </g>
     </g>
    </g>
    <g id="xtick_34">
     <g id="line2d_43">
      <g>
       <use xlink:href="#m680efb91a9" x="459.073312" y="304.82" style="stroke: #000000; stroke-width: 0.8"/>
      </g>
     </g>
    </g>
    <g id="xtick_35">
     <g id="line2d_44">
      <g>
       <use xlink:href="#m680efb91a9" x="504.064792" y="304.82" style="stroke: #000000; stroke-width: 0.8"/>
      </g>
     </g>
    </g>
    <g id="xtick_36">
     <g id="line2d_45">
      <g>
       <use xlink:href="#m680efb91a9" x="549.056271" y="304.82" style="stroke: #000000; stroke-width: 0.8"/>
      </g>
     </g>
    </g>
    <g id="xtick_37">
     <g id="line2d_46">
      <g>
       <use xlink:href="#m680efb91a9" x="594.04775" y="304.82" style="stroke: #000000; stroke-width: 0.8"/>
      </g>
     </g>
    </g>
    <g id="xtick_38">
     <g id="line2d_47">
      <g>
       <use xlink:href="#m680efb91a9" x="639.039229" y="304.82" style="stroke: #000000; stroke-width: 0.8"/>
      </g>
     </g>
    </g>
    <g id="xtick_39">
     <g id="line2d_48">
      <g>
       <use xlink:href="#m680efb91a9" x="684.030708" y="304.82" style="stroke: #000000; stroke-width: 0.8"/>
      </g>
     </g>
    </g>
    <g id="xtick_40">
     <g id="line2d_49">
      <g>
       <use xlink:href="#m680efb91a9" x="729.022187" y="304.82" style="stroke: #000000; stroke-width: 0.8"/>
      </g>
     </g>
    </g>
    <g id="xtick_41">
     <g id="line2d_50">
      <g>
       <use xlink:href="#m680efb91a9" x="774.013667" y="304.82" style="stroke: #000000; stroke-width: 0.8"/>
      </g>
     </g>
    </g>
    <g id="xtick_42">
     <g id="line2d_51">
      <g>
       <use xlink:href="#m680efb91a9" x="819.005146" y="304.82" style="stroke: #000000; stroke-width: 0.8"/>
      </g>
     </g>
    </g>
    <g id="xtick_43">
     <g id="line2d_52">
      <g>
       <use xlink:href="#m680efb91a9" x="863.996625" y="304.82" style="stroke: #000000; stroke-width: 0.8"/>
      </g>
     </g>
    </g>
    <g id="xtick_44">
     <g id="line2d_53">
      <g>
       <use xlink:href="#m680efb91a9" x="908.988104" y="304.82" style="stroke: #000000; stroke-width: 0.8"/>
      </g>
     </g>
    </g>
    <g id="xtick_45">
     <g id="line2d_54">
      <g>
       <use xlink:href="#m680efb91a9" x="953.979583" y="304.82" style="stroke: #000000; stroke-width: 0.8"/>
      </g>
     </g>
    </g>
    <g id="xtick_46">
     <g id="line2d_55">
      <g>
       <use xlink:href="#m680efb91a9" x="998.971062" y="304.82" style="stroke: #000000; stroke-width: 0.8"/>
      </g>
     </g>
    </g>
    <g id="xtick_47">
     <g id="line2d_56">
      <g>
       <use xlink:href="#m680efb91a9" x="1043.962542" y="304.82" style="stroke: #000000; stroke-width: 0.8"/>
      </g>
     </g>
    </g>
    <g id="xtick_48">
     <g id="line2d_57">
      <g>
       <use xlink:href="#m680efb91a9" x="1088.954021" y="304.82" style="stroke: #000000; stroke-width: 0.8"/>
      </g>
     </g>
    </g>
   </g>
   <g id="matplotlib.axis_4">
    <g id="ytick_5">
     <g id="line2d_58">
      <g>
       <use xlink:href="#m3828bf3601" x="54.15" y="298.055909" style="stroke: #000000; stroke-width: 0.8"/>
      </g>
     </g>
     <g id="text_7">
      <!-- 0 -->
      <g transform="translate(40.7875 301.855128) scale(0.1 -0.1)">
       <use xlink:href="#DejaVuSans-30"/>
      </g>
     </g>
    </g>
    <g id="ytick_6">
     <g id="line2d_59">
      <g>
       <use xlink:href="#m3828bf3601" x="54.15" y="257.061418" style="stroke: #000000; stroke-width: 0.8"/>
      </g>
     </g>
     <g id="text_8">
      <!-- 1 -->
      <g transform="translate(40.7875 260.860637) scale(0.1 -0.1)">
       <use xlink:href="#DejaVuSans-31"/>
      </g>
     </g>
    </g>
    <g id="ytick_7">
     <g id="line2d_60">
      <g>
       <use xlink:href="#m3828bf3601" x="54.15" y="216.066927" style="stroke: #000000; stroke-width: 0.8"/>
      </g>
     </g>
     <g id="text_9">
      <!-- 2 -->
      <g transform="translate(40.7875 219.866146) scale(0.1 -0.1)">
       <use xlink:href="#DejaVuSans-32"/>
      </g>
     </g>
    </g>
    <g id="ytick_8">
     <g id="line2d_61">
      <g>
       <use xlink:href="#m3828bf3601" x="54.15" y="175.072436" style="stroke: #000000; stroke-width: 0.8"/>
      </g>
     </g>
     <g id="text_10">
      <!-- 3 -->
      <g transform="translate(40.7875 178.871655) scale(0.1 -0.1)">
       <use xlink:href="#DejaVuSans-33"/>
      </g>
     </g>
    </g>
    <g id="text_11">
     <!-- Voltage [V] -->
     <g transform="translate(34.707813 258.082187) rotate(-90) scale(0.1 -0.1)">
      <use xlink:href="#DejaVuSans-56"/>
      <use xlink:href="#DejaVuSans-6f" x="60.658203"/>
      <use xlink:href="#DejaVuSans-6c" x="121.839844"/>
      <use xlink:href="#DejaVuSans-74" x="149.623047"/>
      <use xlink:href="#DejaVuSans-61" x="188.832031"/>
      <use xlink:href="#DejaVuSans-67" x="250.111328"/>
      <use xlink:href="#DejaVuSans-65" x="313.587891"/>
      <use xlink:href="#DejaVuSans-20" x="375.111328"/>
      <use xlink:href="#DejaVuSans-5b" x="406.898438"/>
      <use xlink:href="#DejaVuSans-56" x="445.912109"/>
      <use xlink:href="#DejaVuSans-5d" x="514.320312"/>
     </g>
    </g>
   </g>
   <g id="line2d_62">
    <path d="M 54.15 298.055909 
L 369.840203 298.055909 
L 369.952495 286.541441 
L 370.287444 275.076365 
L 371.578987 244.84489 
L 372.513372 229.717509 
L 373.625311 215.241291 
L 375.093221 199.329632 
L 376.830042 181.98154 
L 378.234039 162.774091 
L 383.866834 162.884301 
L 384.372176 221.218982 
L 384.41653 228.367095 
L 384.500065 223.799199 
L 385.162677 194.471512 
L 385.355977 187.370449 
L 385.385447 190.280427 
L 385.676904 228.366714 
L 385.783047 221.647267 
L 386.449983 188.177173 
L 386.468067 187.370459 
L 386.50391 190.727219 
L 386.811714 228.366377 
L 386.917607 221.254026 
L 387.512232 187.370224 
L 387.53159 189.004998 
L 387.8769 228.365815 
L 387.976819 220.361292 
L 388.503181 187.370537 
L 388.512117 188.015748 
L 388.880648 228.3656 
L 388.983516 220.13731 
L 389.495394 187.370205 
L 389.510103 188.619469 
L 389.890944 228.36582 
L 389.988475 219.926317 
L 390.443177 187.370332 
L 390.470709 189.595397 
L 390.860698 228.365502 
L 390.95293 219.779176 
L 391.398971 187.370195 
L 391.41643 188.775919 
L 391.816492 228.365273 
L 391.908724 219.778971 
L 392.351728 187.370068 
L 392.372111 188.78536 
L 392.805792 228.365835 
L 392.894312 219.32848 
L 393.286001 187.370713 
L 393.31612 189.44143 
L 393.756987 228.366216 
L 393.840321 219.486513 
L 394.204964 187.365631 
L 394.234646 189.362448 
L 394.71468 228.366504 
L 394.788816 219.509076 
L 395.133476 187.359708 
L 395.16622 189.416106 
L 395.701881 228.366157 
L 395.764844 220.299135 
L 396.094256 187.348331 
L 396.130762 189.312435 
L 396.678808 224.882635 
L 396.72095 228.365492 
L 396.762805 222.687566 
L 397.08087 187.34061 
L 397.128111 189.588526 
L 397.740945 224.125734 
L 397.802833 228.36561 
L 397.837601 223.160346 
L 398.145705 187.337482 
L 398.184836 189.090041 
L 398.895626 225.868514 
L 398.946216 218.585614 
L 399.44261 164.801138 
L 399.576659 162.774091 
L 769.735948 162.885102 
L 770.364516 169.254621 
L 770.47517 171.157345 
L 770.490667 169.510305 
L 770.665584 162.774091 
L 777.975025 162.884838 
L 778.454896 214.187553 
L 778.547579 228.366006 
L 778.633688 223.661847 
L 779.281702 195.11035 
L 780.183019 172.246817 
L 780.697984 162.774091 
L 787.063804 162.883929 
L 787.460891 222.102156 
L 787.602227 228.367608 
L 1133.9455 228.367608 
L 1133.9455 228.367608 
" clip-path="url(#p51e3b73f41)" style="fill: none; stroke: #1f77b4; stroke-width: 1.5; stroke-linecap: square"/>
   </g>
   <g id="line2d_63">
    <path d="M 54.15 187.370784 
L 1133.9455 187.370784 
" clip-path="url(#p51e3b73f41)" style="fill: none; stroke-dasharray: 5.55,2.4; stroke-dashoffset: 0; stroke: #008000; stroke-width: 1.5"/>
   </g>
   <g id="line2d_64">
    <path d="M 54.15 220.166376 
L 1133.9455 220.166376 
" clip-path="url(#p51e3b73f41)" style="fill: none; stroke-dasharray: 5.55,2.4; stroke-dashoffset: 0; stroke: #ffa500; stroke-width: 1.5"/>
   </g>
   <g id="line2d_65">
    <path d="M 54.15 228.365274 
L 1133.9455 228.365274 
" clip-path="url(#p51e3b73f41)" style="fill: none; stroke-dasharray: 5.55,2.4; stroke-dashoffset: 0; stroke: #ff0000; stroke-width: 1.5"/>
   </g>
   <g id="patch_9">
    <path d="M 54.15 304.82 
L 54.15 156.01 
" style="fill: none; stroke: #000000; stroke-width: 0.8; stroke-linejoin: miter; stroke-linecap: square"/>
   </g>
   <g id="patch_10">
    <path d="M 1133.9455 304.82 
L 1133.9455 156.01 
" style="fill: none; stroke: #000000; stroke-width: 0.8; stroke-linejoin: miter; stroke-linecap: square"/>
   </g>
   <g id="patch_11">
    <path d="M 54.15 304.82 
L 1133.9455 304.82 
" style="fill: none; stroke: #000000; stroke-width: 0.8; stroke-linejoin: miter; stroke-linecap: square"/>
   </g>
   <g id="patch_12">
    <path d="M 54.15 156.01 
L 1133.9455 156.01 
" style="fill: none; stroke: #000000; stroke-width: 0.8; stroke-linejoin: miter; stroke-linecap: square"/>
   </g>
   <g id="legend_2">
    <g id="patch_13">
     <path d="M 1073.422063 178.688125 
L 1126.9455 178.688125 
Q 1128.9455 178.688125 1128.9455 176.688125 
L 1128.9455 163.01 
Q 1128.9455 161.01 1126.9455 161.01 
L 1073.422063 161.01 
Q 1071.422063 161.01 1071.422063 163.01 
L 1071.422063 176.688125 
Q 1071.422063 178.688125 1073.422063 178.688125 
z
" style="fill: #ffffff; opacity: 0.8; stroke: #cccccc; stroke-linejoin: miter"/>
    </g>
    <g id="line2d_66">
     <path d="M 1075.422063 169.108437 
L 1085.422063 169.108437 
L 1095.422063 169.108437 
" style="fill: none; stroke: #1f77b4; stroke-width: 1.5; stroke-linecap: square"/>
    </g>
    <g id="text_12">
     <!-- ADC -->
     <g transform="translate(1103.422063 172.608437) scale(0.1 -0.1)">
      <defs>
       <path id="DejaVuSans-41" d="M 2188 4044 
L 1331 1722 
L 3047 1722 
L 2188 4044 
z
M 1831 4666 
L 2547 4666 
L 4325 0 
L 3669 0 
L 3244 1197 
L 1141 1197 
L 716 0 
L 50 0 
L 1831 4666 
z
" transform="scale(0.015625)"/>
       <path id="DejaVuSans-44" d="M 1259 4147 
L 1259 519 
L 2022 519 
Q 2988 519 3436 956 
Q 3884 1394 3884 2338 
Q 3884 3275 3436 3711 
Q 2988 4147 2022 4147 
L 1259 4147 
z
M 628 4666 
L 1925 4666 
Q 3281 4666 3915 4102 
Q 4550 3538 4550 2338 
Q 4550 1131 3912 565 
Q 3275 0 1925 0 
L 628 0 
L 628 4666 
z
" transform="scale(0.015625)"/>
       <path id="DejaVuSans-43" d="M 4122 4306 
L 4122 3641 
Q 3803 3938 3442 4084 
Q 3081 4231 2675 4231 
Q 1875 4231 1450 3742 
Q 1025 3253 1025 2328 
Q 1025 1406 1450 917 
Q 1875 428 2675 428 
Q 3081 428 3442 575 
Q 3803 722 4122 1019 
L 4122 359 
Q 3791 134 3420 21 
Q 3050 -91 2638 -91 
Q 1578 -91 968 557 
Q 359 1206 359 2328 
Q 359 3453 968 4101 
Q 1578 4750 2638 4750 
Q 3056 4750 3426 4639 
Q 3797 4528 4122 4306 
z
" transform="scale(0.015625)"/>
      </defs>
      <use xlink:href="#DejaVuSans-41"/>
      <use xlink:href="#DejaVuSans-44" x="68.408203"/>
      <use xlink:href="#DejaVuSans-43" x="145.410156"/>
     </g>
    </g>
   </g>
  </g>
  <g id="axes_3">
   <g id="patch_14">
    <path d="M 54.15 453.63 
L 1133.9455 453.63 
L 1133.9455 304.82 
L 54.15 304.82 
z
" style="fill: #ffffff"/>
   </g>
   <g id="matplotlib.axis_5">
    <g id="xtick_49">
     <g id="line2d_67">
      <g>
       <use xlink:href="#m680efb91a9" x="54.15" y="453.63" style="stroke: #000000; stroke-width: 0.8"/>
      </g>
     </g>
    </g>
    <g id="xtick_50">
     <g id="line2d_68">
      <g>
       <use xlink:href="#m680efb91a9" x="99.141479" y="453.63" style="stroke: #000000; stroke-width: 0.8"/>
      </g>
     </g>
    </g>
    <g id="xtick_51">
     <g id="line2d_69">
      <g>
       <use xlink:href="#m680efb91a9" x="144.132958" y="453.63" style="stroke: #000000; stroke-width: 0.8"/>
      </g>
     </g>
    </g>
    <g id="xtick_52">
     <g id="line2d_70">
      <g>
       <use xlink:href="#m680efb91a9" x="189.124437" y="453.63" style="stroke: #000000; stroke-width: 0.8"/>
      </g>
     </g>
    </g>
    <g id="xtick_53">
     <g id="line2d_71">
      <g>
       <use xlink:href="#m680efb91a9" x="234.115917" y="453.63" style="stroke: #000000; stroke-width: 0.8"/>
      </g>
     </g>
    </g>
    <g id="xtick_54">
     <g id="line2d_72">
      <g>
       <use xlink:href="#m680efb91a9" x="279.107396" y="453.63" style="stroke: #000000; stroke-width: 0.8"/>
      </g>
     </g>
    </g>
    <g id="xtick_55">
     <g id="line2d_73">
      <g>
       <use xlink:href="#m680efb91a9" x="324.098875" y="453.63" style="stroke: #000000; stroke-width: 0.8"/>
      </g>
     </g>
    </g>
    <g id="xtick_56">
     <g id="line2d_74">
      <g>
       <use xlink:href="#m680efb91a9" x="369.090354" y="453.63" style="stroke: #000000; stroke-width: 0.8"/>
      </g>
     </g>
    </g>
    <g id="xtick_57">
     <g id="line2d_75">
      <g>
       <use xlink:href="#m680efb91a9" x="414.081833" y="453.63" style="stroke: #000000; stroke-width: 0.8"/>
      </g>
     </g>
    </g>
    <g id="xtick_58">
     <g id="line2d_76">
      <g>
       <use xlink:href="#m680efb91a9" x="459.073312" y="453.63" style="stroke: #000000; stroke-width: 0.8"/>
      </g>
     </g>
    </g>
    <g id="xtick_59">
     <g id="line2d_77">
      <g>
       <use xlink:href="#m680efb91a9" x="504.064792" y="453.63" style="stroke: #000000; stroke-width: 0.8"/>
      </g>
     </g>
    </g>
    <g id="xtick_60">
     <g id="line2d_78">
      <g>
       <use xlink:href="#m680efb91a9" x="549.056271" y="453.63" style="stroke: #000000; stroke-width: 0.8"/>
      </g>
     </g>
    </g>
    <g id="xtick_61">
     <g id="line2d_79">
      <g>
       <use xlink:href="#m680efb91a9" x="594.04775" y="453.63" style="stroke: #000000; stroke-width: 0.8"/>
      </g>
     </g>
    </g>
    <g id="xtick_62">
     <g id="line2d_80">
      <g>
       <use xlink:href="#m680efb91a9" x="639.039229" y="453.63" style="stroke: #000000; stroke-width: 0.8"/>
      </g>
     </g>
    </g>
    <g id="xtick_63">
     <g id="line2d_81">
      <g>
       <use xlink:href="#m680efb91a9" x="684.030708" y="453.63" style="stroke: #000000; stroke-width: 0.8"/>
      </g>
     </g>
    </g>
    <g id="xtick_64">
     <g id="line2d_82">
      <g>
       <use xlink:href="#m680efb91a9" x="729.022187" y="453.63" style="stroke: #000000; stroke-width: 0.8"/>
      </g>
     </g>
    </g>
    <g id="xtick_65">
     <g id="line2d_83">
      <g>
       <use xlink:href="#m680efb91a9" x="774.013667" y="453.63" style="stroke: #000000; stroke-width: 0.8"/>
      </g>
     </g>
    </g>
    <g id="xtick_66">
     <g id="line2d_84">
      <g>
       <use xlink:href="#m680efb91a9" x="819.005146" y="453.63" style="stroke: #000000; stroke-width: 0.8"/>
      </g>
     </g>
    </g>
    <g id="xtick_67">
     <g id="line2d_85">
      <g>
       <use xlink:href="#m680efb91a9" x="863.996625" y="453.63" style="stroke: #000000; stroke-width: 0.8"/>
      </g>
     </g>
    </g>
    <g id="xtick_68">
     <g id="line2d_86">
      <g>
       <use xlink:href="#m680efb91a9" x="908.988104" y="453.63" style="stroke: #000000; stroke-width: 0.8"/>
      </g>
     </g>
    </g>
    <g id="xtick_69">
     <g id="line2d_87">
      <g>
       <use xlink:href="#m680efb91a9" x="953.979583" y="453.63" style="stroke: #000000; stroke-width: 0.8"/>
      </g>
     </g>
    </g>
    <g id="xtick_70">
     <g id="line2d_88">
      <g>
       <use xlink:href="#m680efb91a9" x="998.971062" y="453.63" style="stroke: #000000; stroke-width: 0.8"/>
      </g>
     </g>
    </g>
    <g id="xtick_71">
     <g id="line2d_89">
      <g>
       <use xlink:href="#m680efb91a9" x="1043.962542" y="453.63" style="stroke: #000000; stroke-width: 0.8"/>
      </g>
     </g>
    </g>
    <g id="xtick_72">
     <g id="line2d_90">
      <g>
       <use xlink:href="#m680efb91a9" x="1088.954021" y="453.63" style="stroke: #000000; stroke-width: 0.8"/>
      </g>
     </g>
    </g>
   </g>
   <g id="matplotlib.axis_6">
    <g id="ytick_9">
     <g id="line2d_91">
      <g>
       <use xlink:href="#m3828bf3601" x="54.15" y="446.865909" style="stroke: #000000; stroke-width: 0.8"/>
      </g>
     </g>
     <g id="text_13">
      <!-- 0 -->
      <g transform="translate(40.7875 450.665128) scale(0.1 -0.1)">
       <use xlink:href="#DejaVuSans-30"/>
      </g>
     </g>
    </g>
    <g id="ytick_10">
     <g id="line2d_92">
      <g>
       <use xlink:href="#m3828bf3601" x="54.15" y="405.871418" style="stroke: #000000; stroke-width: 0.8"/>
      </g>
     </g>
     <g id="text_14">
      <!-- 1 -->
      <g transform="translate(40.7875 409.670637) scale(0.1 -0.1)">
       <use xlink:href="#DejaVuSans-31"/>
      </g>
     </g>
    </g>
    <g id="ytick_11">
     <g id="line2d_93">
      <g>
       <use xlink:href="#m3828bf3601" x="54.15" y="364.876927" style="stroke: #000000; stroke-width: 0.8"/>
      </g>
     </g>
     <g id="text_15">
      <!-- 2 -->
      <g transform="translate(40.7875 368.676146) scale(0.1 -0.1)">
       <use xlink:href="#DejaVuSans-32"/>
      </g>
     </g>
    </g>
    <g id="ytick_12">
     <g id="line2d_94">
      <g>
       <use xlink:href="#m3828bf3601" x="54.15" y="323.882436" style="stroke: #000000; stroke-width: 0.8"/>
      </g>
     </g>
     <g id="text_16">
      <!-- 3 -->
      <g transform="translate(40.7875 327.681655) scale(0.1 -0.1)">
       <use xlink:href="#DejaVuSans-33"/>
      </g>
     </g>
    </g>
    <g id="text_17">
     <!-- Voltage [V] -->
     <g transform="translate(34.707813 406.892187) rotate(-90) scale(0.1 -0.1)">
      <use xlink:href="#DejaVuSans-56"/>
      <use xlink:href="#DejaVuSans-6f" x="60.658203"/>
      <use xlink:href="#DejaVuSans-6c" x="121.839844"/>
      <use xlink:href="#DejaVuSans-74" x="149.623047"/>
      <use xlink:href="#DejaVuSans-61" x="188.832031"/>
      <use xlink:href="#DejaVuSans-67" x="250.111328"/>
      <use xlink:href="#DejaVuSans-65" x="313.587891"/>
      <use xlink:href="#DejaVuSans-20" x="375.111328"/>
      <use xlink:href="#DejaVuSans-5b" x="406.898438"/>
      <use xlink:href="#DejaVuSans-56" x="445.912109"/>
      <use xlink:href="#DejaVuSans-5d" x="514.320312"/>
     </g>
    </g>
   </g>
   <g id="line2d_95">
    <path d="M 54.15 446.865909 
L 369.840203 446.865909 
L 369.952495 435.351441 
L 370.287444 423.886365 
L 371.578987 393.65489 
L 372.513372 378.527509 
L 373.61985 364.130322 
L 375.085248 348.248132 
L 376.370267 336.180694 
L 376.371829 336.302055 
L 376.581677 369.091025 
L 376.708578 366.477898 
L 378.277905 336.180703 
L 378.278943 336.237597 
L 378.359215 346.714889 
L 378.504325 369.075142 
L 378.613167 366.375498 
L 379.606116 344.998708 
L 380.083538 336.180596 
L 380.095599 337.603746 
L 380.309958 369.074976 
L 380.428186 365.491419 
L 381.471476 336.180459 
L 381.4731 336.281247 
L 381.567632 347.85404 
L 381.660615 345.124253 
L 382.659851 319.427282 
L 383.105354 311.584091 
L 389.067725 311.694682 
L 389.640391 361.427326 
L 389.707591 369.00325 
L 389.773141 363.797249 
L 390.184263 336.180068 
L 390.214182 338.511571 
L 390.297042 345.545125 
L 390.360142 341.34583 
L 390.92431 311.584091 
L 397.798646 311.695141 
L 398.547279 341.881193 
L 398.595458 336.899345 
L 398.957502 311.584091 
L 769.52705 311.695102 
L 769.807971 314.200755 
L 769.816882 313.226557 
L 769.943096 311.584091 
L 777.307926 311.694584 
L 777.805919 360.759352 
L 777.864721 369.042409 
L 777.947293 364.878765 
L 778.636475 336.180576 
L 778.638424 336.301606 
L 778.832462 359.488048 
L 778.92712 355.328786 
L 779.501686 335.395287 
L 780.50837 311.584091 
L 786.33143 311.695034 
L 786.935353 369.121143 
L 788.699431 369.232252 
L 789.063175 369.255186 
L 790.824204 369.366295 
L 791.18806 369.389273 
L 792.946002 369.500383 
L 793.309983 369.52341 
L 795.064888 369.634519 
L 795.428994 369.657595 
L 797.180875 369.768704 
L 797.545106 369.791829 
L 799.29395 369.902938 
L 799.658294 369.926107 
L 801.404038 370.037216 
L 801.768506 370.060434 
L 803.511201 370.171543 
L 803.875795 370.19481 
L 805.61544 370.305919 
L 805.980159 370.329234 
L 807.716755 370.440343 
L 808.081598 370.463708 
L 809.815145 370.574817 
L 810.180126 370.598235 
L 811.910661 370.709344 
L 812.275767 370.732811 
L 814.003252 370.84392 
L 814.368483 370.867436 
L 816.092894 370.978545 
L 816.45825 371.00211 
L 818.179586 371.113219 
L 818.545067 371.136833 
L 820.263329 371.247942 
L 820.628947 371.271609 
L 822.344197 371.382718 
L 822.709941 371.406435 
L 824.422104 371.517544 
L 824.787972 371.541309 
L 826.497048 371.652418 
L 826.863054 371.676237 
L 828.569094 371.787346 
L 828.935224 371.811214 
L 830.638164 371.922323 
L 831.004432 371.946244 
L 832.704335 372.057353 
L 833.070729 372.081324 
L 834.767532 372.192433 
L 835.134063 372.216457 
L 836.827817 372.327566 
L 837.194485 372.351644 
L 838.88519 372.462753 
L 839.251995 372.486885 
L 840.939638 372.597994 
L 841.306569 372.622174 
L 842.9911 372.733283 
L 843.358168 372.757518 
L 845.039624 372.868627 
L 845.40683 372.892915 
L 847.085212 373.004024 
L 847.452555 373.028366 
L 849.127875 373.139475 
L 849.495356 373.16387 
L 851.167589 373.274979 
L 851.535207 373.299429 
L 853.204366 373.410538 
L 853.572134 373.435046 
L 855.238256 373.546155 
L 855.606161 373.570716 
L 857.269196 373.681825 
L 857.637239 373.706441 
L 859.297174 373.81755 
L 859.665355 373.842219 
L 861.322191 373.953328 
L 861.690521 373.978056 
L 863.34432 374.089165 
L 863.712788 374.113947 
L 865.363463 374.225056 
L 865.732068 374.249891 
L 867.379644 374.361 
L 867.748399 374.385894 
L 869.3929 374.497004 
L 869.761805 374.521956 
L 871.403257 374.633065 
L 871.772299 374.658072 
L 873.410614 374.769181 
L 873.779807 374.794246 
L 875.415047 374.905355 
L 875.78439 374.930479 
L 877.416543 375.041588 
L 877.786023 375.066765 
L 879.415052 375.177874 
L 879.784682 375.20311 
L 881.410612 375.314219 
L 881.780392 375.339514 
L 883.403222 375.450623 
L 883.773152 375.475977 
L 885.392895 375.587086 
L 885.762975 375.612498 
L 887.379619 375.723607 
L 887.749861 375.749082 
L 889.363443 375.860191 
L 889.733835 375.885726 
L 891.344305 375.996835 
L 891.714848 376.022428 
L 893.322206 376.133537 
L 893.692898 376.159188 
L 895.297132 376.270297 
L 895.667974 376.296007 
L 897.269083 376.407116 
L 897.640088 376.43289 
L 899.238123 376.543999 
L 899.609278 376.569831 
L 901.204163 376.680941 
L 901.57548 376.706836 
L 903.167291 376.817946 
L 903.538771 376.843905 
L 905.127495 376.955014 
L 905.499125 376.981032 
L 907.084687 377.092141 
L 907.456479 377.118223 
L 1133.9455 377.175273 
L 1133.9455 377.175273 
" clip-path="url(#p251a9092b0)" style="fill: none; stroke: #1f77b4; stroke-width: 1.5; stroke-linecap: square"/>
   </g>
   <g id="line2d_96">
    <path d="M 54.15 336.180784 
L 1133.9455 336.180784 
" clip-path="url(#p251a9092b0)" style="fill: none; stroke-dasharray: 5.55,2.4; stroke-dashoffset: 0; stroke: #008000; stroke-width: 1.5"/>
   </g>
   <g id="line2d_97">
    <path d="M 54.15 368.976376 
L 1133.9455 368.976376 
" clip-path="url(#p251a9092b0)" style="fill: none; stroke-dasharray: 5.55,2.4; stroke-dashoffset: 0; stroke: #ffa500; stroke-width: 1.5"/>
   </g>
   <g id="line2d_98">
    <path d="M 54.15 377.175274 
L 1133.9455 377.175274 
" clip-path="url(#p251a9092b0)" style="fill: none; stroke-dasharray: 5.55,2.4; stroke-dashoffset: 0; stroke: #ff0000; stroke-width: 1.5"/>
   </g>
   <g id="patch_15">
    <path d="M 54.15 453.63 
L 54.15 304.82 
" style="fill: none; stroke: #000000; stroke-width: 0.8; stroke-linejoin: miter; stroke-linecap: square"/>
   </g>
   <g id="patch_16">
    <path d="M 1133.9455 453.63 
L 1133.9455 304.82 
" style="fill: none; stroke: #000000; stroke-width: 0.8; stroke-linejoin: miter; stroke-linecap: square"/>
   </g>
   <g id="patch_17">
    <path d="M 54.15 453.63 
L 1133.9455 453.63 
" style="fill: none; stroke: #000000; stroke-width: 0.8; stroke-linejoin: miter; stroke-linecap: square"/>
   </g>
   <g id="patch_18">
    <path d="M 54.15 304.82 
L 1133.9455 304.82 
" style="fill: none; stroke: #000000; stroke-width: 0.8; stroke-linejoin: miter; stroke-linecap: square"/>
   </g>
   <g id="legend_3">
    <g id="patch_19">
     <path d="M 1075.408 327.498125 
L 1126.9455 327.498125 
Q 1128.9455 327.498125 1128.9455 325.498125 
L 1128.9455 311.82 
Q 1128.9455 309.82 1126.9455 309.82 
L 1075.408 309.82 
Q 1073.408 309.82 1073.408 311.82 
L 1073.408 325.498125 
Q 1073.408 327.498125 1075.408 327.498125 
z
" style="fill: #ffffff; opacity: 0.8; stroke: #cccccc; stroke-linejoin: miter"/>
    </g>
    <g id="line2d_99">
     <path d="M 1077.408 317.918437 
L 1087.408 317.918437 
L 1097.408 317.918437 
" style="fill: none; stroke: #1f77b4; stroke-width: 1.5; stroke-linecap: square"/>
    </g>
    <g id="text_18">
     <!-- SVS -->
     <g transform="translate(1105.408 321.418437) scale(0.1 -0.1)">
      <defs>
       <path id="DejaVuSans-53" d="M 3425 4513 
L 3425 3897 
Q 3066 4069 2747 4153 
Q 2428 4238 2131 4238 
Q 1616 4238 1336 4038 
Q 1056 3838 1056 3469 
Q 1056 3159 1242 3001 
Q 1428 2844 1947 2747 
L 2328 2669 
Q 3034 2534 3370 2195 
Q 3706 1856 3706 1288 
Q 3706 609 3251 259 
Q 2797 -91 1919 -91 
Q 1588 -91 1214 -16 
Q 841 59 441 206 
L 441 856 
Q 825 641 1194 531 
Q 1563 422 1919 422 
Q 2459 422 2753 634 
Q 3047 847 3047 1241 
Q 3047 1584 2836 1778 
Q 2625 1972 2144 2069 
L 1759 2144 
Q 1053 2284 737 2584 
Q 422 2884 422 3419 
Q 422 4038 858 4394 
Q 1294 4750 2059 4750 
Q 2388 4750 2728 4690 
Q 3069 4631 3425 4513 
z
" transform="scale(0.015625)"/>
      </defs>
      <use xlink:href="#DejaVuSans-53"/>
      <use xlink:href="#DejaVuSans-56" x="63.476562"/>
      <use xlink:href="#DejaVuSans-53" x="131.884766"/>
     </g>
    </g>
   </g>
  </g>
  <g id="axes_4">
   <g id="patch_20">
    <path d="M 54.15 602.44 
L 1133.9455 602.44 
L 1133.9455 453.63 
L 54.15 453.63 
z
" style="fill: #ffffff"/>
   </g>
   <g id="matplotlib.axis_7">
    <g id="xtick_73">
     <g id="line2d_100">
      <g>
       <use xlink:href="#m680efb91a9" x="54.15" y="602.44" style="stroke: #000000; stroke-width: 0.8"/>
      </g>
     </g>
     <g id="text_19">
      <!-- 0 -->
      <g transform="translate(50.96875 617.038437) scale(0.1 -0.1)">
       <use xlink:href="#DejaVuSans-30"/>
      </g>
     </g>
    </g>
    <g id="xtick_74">
     <g id="line2d_101">
      <g>
       <use xlink:href="#m680efb91a9" x="99.141479" y="602.44" style="stroke: #000000; stroke-width: 0.8"/>
      </g>
     </g>
     <g id="text_20">
      <!-- 1 -->
      <g transform="translate(95.960229 617.038437) scale(0.1 -0.1)">
       <use xlink:href="#DejaVuSans-31"/>
      </g>
     </g>
    </g>
    <g id="xtick_75">
     <g id="line2d_102">
      <g>
       <use xlink:href="#m680efb91a9" x="144.132958" y="602.44" style="stroke: #000000; stroke-width: 0.8"/>
      </g>
     </g>
     <g id="text_21">
      <!-- 2 -->
      <g transform="translate(140.951708 617.038437) scale(0.1 -0.1)">
       <use xlink:href="#DejaVuSans-32"/>
      </g>
     </g>
    </g>
    <g id="xtick_76">
     <g id="line2d_103">
      <g>
       <use xlink:href="#m680efb91a9" x="189.124437" y="602.44" style="stroke: #000000; stroke-width: 0.8"/>
      </g>
     </g>
     <g id="text_22">
      <!-- 3 -->
      <g transform="translate(185.943187 617.038437) scale(0.1 -0.1)">
       <use xlink:href="#DejaVuSans-33"/>
      </g>
     </g>
    </g>
    <g id="xtick_77">
     <g id="line2d_104">
      <g>
       <use xlink:href="#m680efb91a9" x="234.115917" y="602.44" style="stroke: #000000; stroke-width: 0.8"/>
      </g>
     </g>
     <g id="text_23">
      <!-- 4 -->
      <g transform="translate(230.934667 617.038437) scale(0.1 -0.1)">
       <defs>
        <path id="DejaVuSans-34" d="M 2419 4116 
L 825 1625 
L 2419 1625 
L 2419 4116 
z
M 2253 4666 
L 3047 4666 
L 3047 1625 
L 3713 1625 
L 3713 1100 
L 3047 1100 
L 3047 0 
L 2419 0 
L 2419 1100 
L 313 1100 
L 313 1709 
L 2253 4666 
z
" transform="scale(0.015625)"/>
       </defs>
       <use xlink:href="#DejaVuSans-34"/>
      </g>
     </g>
    </g>
    <g id="xtick_78">
     <g id="line2d_105">
      <g>
       <use xlink:href="#m680efb91a9" x="279.107396" y="602.44" style="stroke: #000000; stroke-width: 0.8"/>
      </g>
     </g>
     <g id="text_24">
      <!-- 5 -->
      <g transform="translate(275.926146 617.038437) scale(0.1 -0.1)">
       <defs>
        <path id="DejaVuSans-35" d="M 691 4666 
L 3169 4666 
L 3169 4134 
L 1269 4134 
L 1269 2991 
Q 1406 3038 1543 3061 
Q 1681 3084 1819 3084 
Q 2600 3084 3056 2656 
Q 3513 2228 3513 1497 
Q 3513 744 3044 326 
Q 2575 -91 1722 -91 
Q 1428 -91 1123 -41 
Q 819 9 494 109 
L 494 744 
Q 775 591 1075 516 
Q 1375 441 1709 441 
Q 2250 441 2565 725 
Q 2881 1009 2881 1497 
Q 2881 1984 2565 2268 
Q 2250 2553 1709 2553 
Q 1456 2553 1204 2497 
Q 953 2441 691 2322 
L 691 4666 
z
" transform="scale(0.015625)"/>
       </defs>
       <use xlink:href="#DejaVuSans-35"/>
      </g>
     </g>
    </g>
    <g id="xtick_79">
     <g id="line2d_106">
      <g>
       <use xlink:href="#m680efb91a9" x="324.098875" y="602.44" style="stroke: #000000; stroke-width: 0.8"/>
      </g>
     </g>
     <g id="text_25">
      <!-- 6 -->
      <g transform="translate(320.917625 617.038437) scale(0.1 -0.1)">
       <defs>
        <path id="DejaVuSans-36" d="M 2113 2584 
Q 1688 2584 1439 2293 
Q 1191 2003 1191 1497 
Q 1191 994 1439 701 
Q 1688 409 2113 409 
Q 2538 409 2786 701 
Q 3034 994 3034 1497 
Q 3034 2003 2786 2293 
Q 2538 2584 2113 2584 
z
M 3366 4563 
L 3366 3988 
Q 3128 4100 2886 4159 
Q 2644 4219 2406 4219 
Q 1781 4219 1451 3797 
Q 1122 3375 1075 2522 
Q 1259 2794 1537 2939 
Q 1816 3084 2150 3084 
Q 2853 3084 3261 2657 
Q 3669 2231 3669 1497 
Q 3669 778 3244 343 
Q 2819 -91 2113 -91 
Q 1303 -91 875 529 
Q 447 1150 447 2328 
Q 447 3434 972 4092 
Q 1497 4750 2381 4750 
Q 2619 4750 2861 4703 
Q 3103 4656 3366 4563 
z
" transform="scale(0.015625)"/>
       </defs>
       <use xlink:href="#DejaVuSans-36"/>
      </g>
     </g>
    </g>
    <g id="xtick_80">
     <g id="line2d_107">
      <g>
       <use xlink:href="#m680efb91a9" x="369.090354" y="602.44" style="stroke: #000000; stroke-width: 0.8"/>
      </g>
     </g>
     <g id="text_26">
      <!-- 7 -->
      <g transform="translate(365.909104 617.038437) scale(0.1 -0.1)">
       <defs>
        <path id="DejaVuSans-37" d="M 525 4666 
L 3525 4666 
L 3525 4397 
L 1831 0 
L 1172 0 
L 2766 4134 
L 525 4134 
L 525 4666 
z
" transform="scale(0.015625)"/>
       </defs>
       <use xlink:href="#DejaVuSans-37"/>
      </g>
     </g>
    </g>
    <g id="xtick_81">
     <g id="line2d_108">
      <g>
       <use xlink:href="#m680efb91a9" x="414.081833" y="602.44" style="stroke: #000000; stroke-width: 0.8"/>
      </g>
     </g>
     <g id="text_27">
      <!-- 8 -->
      <g transform="translate(410.900583 617.038437) scale(0.1 -0.1)">
       <defs>
        <path id="DejaVuSans-38" d="M 2034 2216 
Q 1584 2216 1326 1975 
Q 1069 1734 1069 1313 
Q 1069 891 1326 650 
Q 1584 409 2034 409 
Q 2484 409 2743 651 
Q 3003 894 3003 1313 
Q 3003 1734 2745 1975 
Q 2488 2216 2034 2216 
z
M 1403 2484 
Q 997 2584 770 2862 
Q 544 3141 544 3541 
Q 544 4100 942 4425 
Q 1341 4750 2034 4750 
Q 2731 4750 3128 4425 
Q 3525 4100 3525 3541 
Q 3525 3141 3298 2862 
Q 3072 2584 2669 2484 
Q 3125 2378 3379 2068 
Q 3634 1759 3634 1313 
Q 3634 634 3220 271 
Q 2806 -91 2034 -91 
Q 1263 -91 848 271 
Q 434 634 434 1313 
Q 434 1759 690 2068 
Q 947 2378 1403 2484 
z
M 1172 3481 
Q 1172 3119 1398 2916 
Q 1625 2713 2034 2713 
Q 2441 2713 2670 2916 
Q 2900 3119 2900 3481 
Q 2900 3844 2670 4047 
Q 2441 4250 2034 4250 
Q 1625 4250 1398 4047 
Q 1172 3844 1172 3481 
z
" transform="scale(0.015625)"/>
       </defs>
       <use xlink:href="#DejaVuSans-38"/>
      </g>
     </g>
    </g>
    <g id="xtick_82">
     <g id="line2d_109">
      <g>
       <use xlink:href="#m680efb91a9" x="459.073312" y="602.44" style="stroke: #000000; stroke-width: 0.8"/>
      </g>
     </g>
     <g id="text_28">
      <!-- 9 -->
      <g transform="translate(455.892062 617.038437) scale(0.1 -0.1)">
       <defs>
        <path id="DejaVuSans-39" d="M 703 97 
L 703 672 
Q 941 559 1184 500 
Q 1428 441 1663 441 
Q 2288 441 2617 861 
Q 2947 1281 2994 2138 
Q 2813 1869 2534 1725 
Q 2256 1581 1919 1581 
Q 1219 1581 811 2004 
Q 403 2428 403 3163 
Q 403 3881 828 4315 
Q 1253 4750 1959 4750 
Q 2769 4750 3195 4129 
Q 3622 3509 3622 2328 
Q 3622 1225 3098 567 
Q 2575 -91 1691 -91 
Q 1453 -91 1209 -44 
Q 966 3 703 97 
z
M 1959 2075 
Q 2384 2075 2632 2365 
Q 2881 2656 2881 3163 
Q 2881 3666 2632 3958 
Q 2384 4250 1959 4250 
Q 1534 4250 1286 3958 
Q 1038 3666 1038 3163 
Q 1038 2656 1286 2365 
Q 1534 2075 1959 2075 
z
" transform="scale(0.015625)"/>
       </defs>
       <use xlink:href="#DejaVuSans-39"/>
      </g>
     </g>
    </g>
    <g id="xtick_83">
     <g id="line2d_110">
      <g>
       <use xlink:href="#m680efb91a9" x="504.064792" y="602.44" style="stroke: #000000; stroke-width: 0.8"/>
      </g>
     </g>
     <g id="text_29">
      <!-- 10 -->
      <g transform="translate(497.702292 617.038437) scale(0.1 -0.1)">
       <use xlink:href="#DejaVuSans-31"/>
       <use xlink:href="#DejaVuSans-30" x="63.623047"/>
      </g>
     </g>
    </g>
    <g id="xtick_84">
     <g id="line2d_111">
      <g>
       <use xlink:href="#m680efb91a9" x="549.056271" y="602.44" style="stroke: #000000; stroke-width: 0.8"/>
      </g>
     </g>
     <g id="text_30">
      <!-- 11 -->
      <g transform="translate(542.693771 617.038437) scale(0.1 -0.1)">
       <use xlink:href="#DejaVuSans-31"/>
       <use xlink:href="#DejaVuSans-31" x="63.623047"/>
      </g>
     </g>
    </g>
    <g id="xtick_85">
     <g id="line2d_112">
      <g>
       <use xlink:href="#m680efb91a9" x="594.04775" y="602.44" style="stroke: #000000; stroke-width: 0.8"/>
      </g>
     </g>
     <g id="text_31">
      <!-- 12 -->
      <g transform="translate(587.68525 617.038437) scale(0.1 -0.1)">
       <use xlink:href="#DejaVuSans-31"/>
       <use xlink:href="#DejaVuSans-32" x="63.623047"/>
      </g>
     </g>
    </g>
    <g id="xtick_86">
     <g id="line2d_113">
      <g>
       <use xlink:href="#m680efb91a9" x="639.039229" y="602.44" style="stroke: #000000; stroke-width: 0.8"/>
      </g>
     </g>
     <g id="text_32">
      <!-- 13 -->
      <g transform="translate(632.676729 617.038437) scale(0.1 -0.1)">
       <use xlink:href="#DejaVuSans-31"/>
       <use xlink:href="#DejaVuSans-33" x="63.623047"/>
      </g>
     </g>
    </g>
    <g id="xtick_87">
     <g id="line2d_114">
      <g>
       <use xlink:href="#m680efb91a9" x="684.030708" y="602.44" style="stroke: #000000; stroke-width: 0.8"/>
      </g>
     </g>
     <g id="text_33">
      <!-- 14 -->
      <g transform="translate(677.668208 617.038437) scale(0.1 -0.1)">
       <use xlink:href="#DejaVuSans-31"/>
       <use xlink:href="#DejaVuSans-34" x="63.623047"/>
      </g>
     </g>
    </g>
    <g id="xtick_88">
     <g id="line2d_115">
      <g>
       <use xlink:href="#m680efb91a9" x="729.022187" y="602.44" style="stroke: #000000; stroke-width: 0.8"/>
      </g>
     </g>
     <g id="text_34">
      <!-- 15 -->
      <g transform="translate(722.659688 617.038437) scale(0.1 -0.1)">
       <use xlink:href="#DejaVuSans-31"/>
       <use xlink:href="#DejaVuSans-35" x="63.623047"/>
      </g>
     </g>
    </g>
    <g id="xtick_89">
     <g id="line2d_116">
      <g>
       <use xlink:href="#m680efb91a9" x="774.013667" y="602.44" style="stroke: #000000; stroke-width: 0.8"/>
      </g>
     </g>
     <g id="text_35">
      <!-- 16 -->
      <g transform="translate(767.651167 617.038437) scale(0.1 -0.1)">
       <use xlink:href="#DejaVuSans-31"/>
       <use xlink:href="#DejaVuSans-36" x="63.623047"/>
      </g>
     </g>
    </g>
    <g id="xtick_90">
     <g id="line2d_117">
      <g>
       <use xlink:href="#m680efb91a9" x="819.005146" y="602.44" style="stroke: #000000; stroke-width: 0.8"/>
      </g>
     </g>
     <g id="text_36">
      <!-- 17 -->
      <g transform="translate(812.642646 617.038437) scale(0.1 -0.1)">
       <use xlink:href="#DejaVuSans-31"/>
       <use xlink:href="#DejaVuSans-37" x="63.623047"/>
      </g>
     </g>
    </g>
    <g id="xtick_91">
     <g id="line2d_118">
      <g>
       <use xlink:href="#m680efb91a9" x="863.996625" y="602.44" style="stroke: #000000; stroke-width: 0.8"/>
      </g>
     </g>
     <g id="text_37">
      <!-- 18 -->
      <g transform="translate(857.634125 617.038437) scale(0.1 -0.1)">
       <use xlink:href="#DejaVuSans-31"/>
       <use xlink:href="#DejaVuSans-38" x="63.623047"/>
      </g>
     </g>
    </g>
    <g id="xtick_92">
     <g id="line2d_119">
      <g>
       <use xlink:href="#m680efb91a9" x="908.988104" y="602.44" style="stroke: #000000; stroke-width: 0.8"/>
      </g>
     </g>
     <g id="text_38">
      <!-- 19 -->
      <g transform="translate(902.625604 617.038437) scale(0.1 -0.1)">
       <use xlink:href="#DejaVuSans-31"/>
       <use xlink:href="#DejaVuSans-39" x="63.623047"/>
      </g>
     </g>
    </g>
    <g id="xtick_93">
     <g id="line2d_120">
      <g>
       <use xlink:href="#m680efb91a9" x="953.979583" y="602.44" style="stroke: #000000; stroke-width: 0.8"/>
      </g>
     </g>
     <g id="text_39">
      <!-- 20 -->
      <g transform="translate(947.617083 617.038437) scale(0.1 -0.1)">
       <use xlink:href="#DejaVuSans-32"/>
       <use xlink:href="#DejaVuSans-30" x="63.623047"/>
      </g>
     </g>
    </g>
    <g id="xtick_94">
     <g id="line2d_121">
      <g>
       <use xlink:href="#m680efb91a9" x="998.971062" y="602.44" style="stroke: #000000; stroke-width: 0.8"/>
      </g>
     </g>
     <g id="text_40">
      <!-- 21 -->
      <g transform="translate(992.608562 617.038437) scale(0.1 -0.1)">
       <use xlink:href="#DejaVuSans-32"/>
       <use xlink:href="#DejaVuSans-31" x="63.623047"/>
      </g>
     </g>
    </g>
    <g id="xtick_95">
     <g id="line2d_122">
      <g>
       <use xlink:href="#m680efb91a9" x="1043.962542" y="602.44" style="stroke: #000000; stroke-width: 0.8"/>
      </g>
     </g>
     <g id="text_41">
      <!-- 22 -->
      <g transform="translate(1037.600042 617.038437) scale(0.1 -0.1)">
       <use xlink:href="#DejaVuSans-32"/>
       <use xlink:href="#DejaVuSans-32" x="63.623047"/>
      </g>
     </g>
    </g>
    <g id="xtick_96">
     <g id="line2d_123">
      <g>
       <use xlink:href="#m680efb91a9" x="1088.954021" y="602.44" style="stroke: #000000; stroke-width: 0.8"/>
      </g>
     </g>
     <g id="text_42">
      <!-- 23 -->
      <g transform="translate(1082.591521 617.038437) scale(0.1 -0.1)">
       <use xlink:href="#DejaVuSans-32"/>
       <use xlink:href="#DejaVuSans-33" x="63.623047"/>
      </g>
     </g>
    </g>
    <g id="text_43">
     <!-- Time of day -->
     <g transform="translate(564.618844 630.716562) scale(0.1 -0.1)">
      <defs>
       <path id="DejaVuSans-54" d="M -19 4666 
L 3928 4666 
L 3928 4134 
L 2272 4134 
L 2272 0 
L 1638 0 
L 1638 4134 
L -19 4134 
L -19 4666 
z
" transform="scale(0.015625)"/>
       <path id="DejaVuSans-69" d="M 603 3500 
L 1178 3500 
L 1178 0 
L 603 0 
L 603 3500 
z
M 603 4863 
L 1178 4863 
L 1178 4134 
L 603 4134 
L 603 4863 
z
" transform="scale(0.015625)"/>
       <path id="DejaVuSans-6d" d="M 3328 2828 
Q 3544 3216 3844 3400 
Q 4144 3584 4550 3584 
Q 5097 3584 5394 3201 
Q 5691 2819 5691 2113 
L 5691 0 
L 5113 0 
L 5113 2094 
Q 5113 2597 4934 2840 
Q 4756 3084 4391 3084 
Q 3944 3084 3684 2787 
Q 3425 2491 3425 1978 
L 3425 0 
L 2847 0 
L 2847 2094 
Q 2847 2600 2669 2842 
Q 2491 3084 2119 3084 
Q 1678 3084 1418 2786 
Q 1159 2488 1159 1978 
L 1159 0 
L 581 0 
L 581 3500 
L 1159 3500 
L 1159 2956 
Q 1356 3278 1631 3431 
Q 1906 3584 2284 3584 
Q 2666 3584 2933 3390 
Q 3200 3197 3328 2828 
z
" transform="scale(0.015625)"/>
       <path id="DejaVuSans-66" d="M 2375 4863 
L 2375 4384 
L 1825 4384 
Q 1516 4384 1395 4259 
Q 1275 4134 1275 3809 
L 1275 3500 
L 2222 3500 
L 2222 3053 
L 1275 3053 
L 1275 0 
L 697 0 
L 697 3053 
L 147 3053 
L 147 3500 
L 697 3500 
L 697 3744 
Q 697 4328 969 4595 
Q 1241 4863 1831 4863 
L 2375 4863 
z
" transform="scale(0.015625)"/>
       <path id="DejaVuSans-64" d="M 2906 2969 
L 2906 4863 
L 3481 4863 
L 3481 0 
L 2906 0 
L 2906 525 
Q 2725 213 2448 61 
Q 2172 -91 1784 -91 
Q 1150 -91 751 415 
Q 353 922 353 1747 
Q 353 2572 751 3078 
Q 1150 3584 1784 3584 
Q 2172 3584 2448 3432 
Q 2725 3281 2906 2969 
z
M 947 1747 
Q 947 1113 1208 752 
Q 1469 391 1925 391 
Q 2381 391 2643 752 
Q 2906 1113 2906 1747 
Q 2906 2381 2643 2742 
Q 2381 3103 1925 3103 
Q 1469 3103 1208 2742 
Q 947 2381 947 1747 
z
" transform="scale(0.015625)"/>
       <path id="DejaVuSans-79" d="M 2059 -325 
Q 1816 -950 1584 -1140 
Q 1353 -1331 966 -1331 
L 506 -1331 
L 506 -850 
L 844 -850 
Q 1081 -850 1212 -737 
Q 1344 -625 1503 -206 
L 1606 56 
L 191 3500 
L 800 3500 
L 1894 763 
L 2988 3500 
L 3597 3500 
L 2059 -325 
z
" transform="scale(0.015625)"/>
      </defs>
      <use xlink:href="#DejaVuSans-54"/>
      <use xlink:href="#DejaVuSans-69" x="57.958984"/>
      <use xlink:href="#DejaVuSans-6d" x="85.742188"/>
      <use xlink:href="#DejaVuSans-65" x="183.154297"/>
      <use xlink:href="#DejaVuSans-20" x="244.677734"/>
      <use xlink:href="#DejaVuSans-6f" x="276.464844"/>
      <use xlink:href="#DejaVuSans-66" x="337.646484"/>
      <use xlink:href="#DejaVuSans-20" x="372.851562"/>
      <use xlink:href="#DejaVuSans-64" x="404.638672"/>
      <use xlink:href="#DejaVuSans-61" x="468.115234"/>
      <use xlink:href="#DejaVuSans-79" x="529.394531"/>
     </g>
    </g>
   </g>
   <g id="matplotlib.axis_8">
    <g id="ytick_13">
     <g id="line2d_124">
      <g>
       <use xlink:href="#m3828bf3601" x="54.15" y="601.304046" style="stroke: #000000; stroke-width: 0.8"/>
      </g>
     </g>
     <g id="text_44">
      <!-- 0 -->
      <g transform="translate(40.7875 605.103265) scale(0.1 -0.1)">
       <use xlink:href="#DejaVuSans-30"/>
      </g>
     </g>
    </g>
    <g id="ytick_14">
     <g id="line2d_125">
      <g>
       <use xlink:href="#m3828bf3601" x="54.15" y="578.584962" style="stroke: #000000; stroke-width: 0.8"/>
      </g>
     </g>
     <g id="text_45">
      <!-- 200 -->
      <g transform="translate(28.0625 582.384181) scale(0.1 -0.1)">
       <use xlink:href="#DejaVuSans-32"/>
       <use xlink:href="#DejaVuSans-30" x="63.623047"/>
       <use xlink:href="#DejaVuSans-30" x="127.246094"/>
      </g>
     </g>
    </g>
    <g id="ytick_15">
     <g id="line2d_126">
      <g>
       <use xlink:href="#m3828bf3601" x="54.15" y="555.865878" style="stroke: #000000; stroke-width: 0.8"/>
      </g>
     </g>
     <g id="text_46">
      <!-- 400 -->
      <g transform="translate(28.0625 559.665097) scale(0.1 -0.1)">
       <use xlink:href="#DejaVuSans-34"/>
       <use xlink:href="#DejaVuSans-30" x="63.623047"/>
       <use xlink:href="#DejaVuSans-30" x="127.246094"/>
      </g>
     </g>
    </g>
    <g id="ytick_16">
     <g id="line2d_127">
      <g>
       <use xlink:href="#m3828bf3601" x="54.15" y="533.146794" style="stroke: #000000; stroke-width: 0.8"/>
      </g>
     </g>
     <g id="text_47">
      <!-- 600 -->
      <g transform="translate(28.0625 536.946013) scale(0.1 -0.1)">
       <use xlink:href="#DejaVuSans-36"/>
       <use xlink:href="#DejaVuSans-30" x="63.623047"/>
       <use xlink:href="#DejaVuSans-30" x="127.246094"/>
      </g>
     </g>
    </g>
    <g id="ytick_17">
     <g id="line2d_128">
      <g>
       <use xlink:href="#m3828bf3601" x="54.15" y="510.42771" style="stroke: #000000; stroke-width: 0.8"/>
      </g>
     </g>
     <g id="text_48">
      <!-- 800 -->
      <g transform="translate(28.0625 514.226929) scale(0.1 -0.1)">
       <use xlink:href="#DejaVuSans-38"/>
       <use xlink:href="#DejaVuSans-30" x="63.623047"/>
       <use xlink:href="#DejaVuSans-30" x="127.246094"/>
      </g>
     </g>
    </g>
    <g id="ytick_18">
     <g id="line2d_129">
      <g>
       <use xlink:href="#m3828bf3601" x="54.15" y="487.708626" style="stroke: #000000; stroke-width: 0.8"/>
      </g>
     </g>
     <g id="text_49">
      <!-- 1000 -->
      <g transform="translate(21.7 491.507845) scale(0.1 -0.1)">
       <use xlink:href="#DejaVuSans-31"/>
       <use xlink:href="#DejaVuSans-30" x="63.623047"/>
       <use xlink:href="#DejaVuSans-30" x="127.246094"/>
       <use xlink:href="#DejaVuSans-30" x="190.869141"/>
      </g>
     </g>
    </g>
    <g id="ytick_19">
     <g id="line2d_130">
      <g>
       <use xlink:href="#m3828bf3601" x="54.15" y="464.989542" style="stroke: #000000; stroke-width: 0.8"/>
      </g>
     </g>
     <g id="text_50">
      <!-- 1200 -->
      <g transform="translate(21.7 468.788761) scale(0.1 -0.1)">
       <use xlink:href="#DejaVuSans-31"/>
       <use xlink:href="#DejaVuSans-32" x="63.623047"/>
       <use xlink:href="#DejaVuSans-30" x="127.246094"/>
       <use xlink:href="#DejaVuSans-30" x="190.869141"/>
      </g>
     </g>
    </g>
    <g id="text_51">
     <!-- Solar irradiance [W/m$^2$] -->
     <g transform="translate(15.620312 586.985) rotate(-90) scale(0.1 -0.1)">
      <defs>
       <path id="DejaVuSans-63" d="M 3122 3366 
L 3122 2828 
Q 2878 2963 2633 3030 
Q 2388 3097 2138 3097 
Q 1578 3097 1268 2742 
Q 959 2388 959 1747 
Q 959 1106 1268 751 
Q 1578 397 2138 397 
Q 2388 397 2633 464 
Q 2878 531 3122 666 
L 3122 134 
Q 2881 22 2623 -34 
Q 2366 -91 2075 -91 
Q 1284 -91 818 406 
Q 353 903 353 1747 
Q 353 2603 823 3093 
Q 1294 3584 2113 3584 
Q 2378 3584 2631 3529 
Q 2884 3475 3122 3366 
z
" transform="scale(0.015625)"/>
       <path id="DejaVuSans-57" d="M 213 4666 
L 850 4666 
L 1831 722 
L 2809 4666 
L 3519 4666 
L 4500 722 
L 5478 4666 
L 6119 4666 
L 4947 0 
L 4153 0 
L 3169 4050 
L 2175 0 
L 1381 0 
L 213 4666 
z
" transform="scale(0.015625)"/>
       <path id="DejaVuSans-2f" d="M 1625 4666 
L 2156 4666 
L 531 -594 
L 0 -594 
L 1625 4666 
z
" transform="scale(0.015625)"/>
      </defs>
      <use xlink:href="#DejaVuSans-53" transform="translate(0 0.765625)"/>
      <use xlink:href="#DejaVuSans-6f" transform="translate(63.476562 0.765625)"/>
      <use xlink:href="#DejaVuSans-6c" transform="translate(124.658203 0.765625)"/>
      <use xlink:href="#DejaVuSans-61" transform="translate(152.441406 0.765625)"/>
      <use xlink:href="#DejaVuSans-72" transform="translate(213.720703 0.765625)"/>
      <use xlink:href="#DejaVuSans-20" transform="translate(254.833984 0.765625)"/>
      <use xlink:href="#DejaVuSans-69" transform="translate(286.621094 0.765625)"/>
      <use xlink:href="#DejaVuSans-72" transform="translate(314.404297 0.765625)"/>
      <use xlink:href="#DejaVuSans-72" transform="translate(355.517578 0.765625)"/>
      <use xlink:href="#DejaVuSans-61" transform="translate(396.630859 0.765625)"/>
      <use xlink:href="#DejaVuSans-64" transform="translate(457.910156 0.765625)"/>
      <use xlink:href="#DejaVuSans-69" transform="translate(521.386719 0.765625)"/>
      <use xlink:href="#DejaVuSans-61" transform="translate(549.169922 0.765625)"/>
      <use xlink:href="#DejaVuSans-6e" transform="translate(610.449219 0.765625)"/>
      <use xlink:href="#DejaVuSans-63" transform="translate(673.828125 0.765625)"/>
      <use xlink:href="#DejaVuSans-65" transform="translate(728.808594 0.765625)"/>
      <use xlink:href="#DejaVuSans-20" transform="translate(790.332031 0.765625)"/>
      <use xlink:href="#DejaVuSans-5b" transform="translate(822.119141 0.765625)"/>
      <use xlink:href="#DejaVuSans-57" transform="translate(861.132812 0.765625)"/>
      <use xlink:href="#DejaVuSans-2f" transform="translate(960.009766 0.765625)"/>
      <use xlink:href="#DejaVuSans-6d" transform="translate(993.701172 0.765625)"/>
      <use xlink:href="#DejaVuSans-32" transform="translate(1092.070312 39.046875) scale(0.7)"/>
      <use xlink:href="#DejaVuSans-5d" transform="translate(1139.34082 0.765625)"/>
     </g>
    </g>
   </g>
   <g id="line2d_131">
    <path d="M 54.15 601.304046 
L 370.590061 601.235889 
L 370.701178 601.19045 
L 377.338783 601.110934 
L 377.4499 601.076855 
L 381.088073 601.008698 
L 381.19919 600.96326 
L 384.087505 600.96326 
L 384.198622 600.849664 
L 386.337079 600.770147 
L 386.448196 600.736069 
L 387.836795 600.667911 
L 387.947912 600.622473 
L 390.086369 600.565676 
L 390.197486 600.508878 
L 393.085801 600.429361 
L 393.196918 600.395282 
L 394.585517 600.338485 
L 394.696634 600.281687 
L 396.085233 600.21353 
L 396.19635 600.168092 
L 397.584949 600.088575 
L 397.696066 600.054496 
L 399.084665 600.020418 
L 399.195782 599.940901 
L 400.584381 599.918182 
L 400.695498 599.827305 
L 402.084097 599.804586 
L 402.195214 599.71371 
L 403.583813 599.656912 
L 403.69493 599.588755 
L 405.083529 599.486519 
L 405.194646 599.384283 
L 405.833387 599.384283 
L 405.944504 599.22525 
L 406.583245 599.22525 
L 406.694362 599.077576 
L 407.333103 599.077576 
L 407.44422 598.941261 
L 408.082961 598.941261 
L 408.194078 598.770868 
L 408.832819 598.770868 
L 408.943935 598.589115 
L 409.582677 598.589115 
L 409.693793 598.373284 
L 410.332535 598.373284 
L 410.443651 598.180172 
L 411.082393 598.180172 
L 411.193509 598.021138 
L 411.832251 598.021138 
L 411.943367 597.850745 
L 412.582109 597.850745 
L 412.693225 597.71443 
L 413.331967 597.71443 
L 413.443083 597.578116 
L 414.081825 597.578116 
L 414.192941 597.407723 
L 414.831683 597.407723 
L 414.942799 597.23733 
L 415.581541 597.23733 
L 415.692657 597.044218 
L 416.331399 597.044218 
L 416.442515 596.862465 
L 417.081257 596.862465 
L 417.192373 596.703431 
L 417.831115 596.703431 
L 417.942231 596.555757 
L 418.580973 596.555757 
L 418.692089 596.419443 
L 419.330831 596.419443 
L 419.441947 596.305847 
L 420.080689 596.305847 
L 420.191805 596.192252 
L 420.830547 596.192252 
L 420.941663 596.078656 
L 421.580405 596.078656 
L 421.691521 595.965061 
L 422.330263 595.965061 
L 422.441379 595.374365 
L 423.080121 595.374365 
L 423.191237 594.454242 
L 424.579837 594.408804 
L 424.690953 592.568558 
L 425.329695 592.568558 
L 425.440811 590.330728 
L 426.829411 590.421604 
L 426.940527 588.501842 
L 427.579269 588.501842 
L 427.690385 584.435126 
L 428.329127 584.435126 
L 428.440243 583.242374 
L 429.078985 583.242374 
L 429.190101 582.969746 
L 429.828843 582.969746 
L 429.939959 582.640318 
L 430.578701 582.640318 
L 430.689817 582.220015 
L 431.328559 582.220015 
L 431.439675 582.004185 
L 432.828275 582.004185 
L 432.939391 582.276813 
L 433.578133 582.276813 
L 433.689249 582.787992 
L 434.327991 582.787992 
L 434.439107 583.253734 
L 435.077849 583.253734 
L 435.188965 583.674037 
L 435.827707 583.674037 
L 435.938823 584.117058 
L 436.577565 584.117058 
L 436.688681 584.5828 
L 437.327423 584.5828 
L 437.438539 585.82099 
L 438.077281 585.82099 
L 438.188397 589.274291 
L 438.827139 589.274291 
L 438.938255 591.864267 
L 439.576997 591.864267 
L 439.688113 592.193693 
L 440.326855 592.193693 
L 440.437971 591.79611 
L 441.076713 591.79611 
L 441.187829 591.421244 
L 441.826571 591.421244 
L 441.937687 590.989581 
L 442.576429 590.989581 
L 442.687545 590.148976 
L 443.326287 590.148976 
L 443.437403 588.80855 
L 444.076145 588.80855 
L 444.187261 587.649877 
L 444.826003 587.649877 
L 444.937119 585.968664 
L 445.575861 585.968664 
L 445.686977 586.593439 
L 446.325719 586.593439 
L 446.436835 588.80855 
L 447.075577 588.80855 
L 447.186693 589.490122 
L 447.825435 589.490122 
L 447.936551 589.172055 
L 448.575293 589.172055 
L 448.686409 589.013022 
L 449.325151 589.013022 
L 449.436267 589.53556 
L 450.075009 589.53556 
L 450.186125 590.52384 
L 450.824867 590.52384 
L 450.935983 591.421244 
L 451.574725 591.421244 
L 451.685841 592.136896 
L 452.324583 592.136896 
L 452.435699 592.636715 
L 453.074441 592.636715 
L 453.185557 592.920703 
L 455.324015 592.863906 
L 455.435131 592.477682 
L 456.073873 592.477682 
L 456.184989 591.852907 
L 456.823731 591.852907 
L 456.934847 591.125896 
L 457.573589 591.125896 
L 457.684705 590.410245 
L 458.323447 590.410245 
L 458.434563 589.819549 
L 459.073305 589.819549 
L 459.184421 589.580999 
L 459.823163 589.580999 
L 459.934279 589.705954 
L 460.573021 589.705954 
L 460.684137 589.921785 
L 461.322879 589.921785 
L 461.433995 590.058099 
L 462.072737 590.058099 
L 462.183853 590.194413 
L 462.822595 590.194413 
L 462.933711 590.410245 
L 463.572453 590.410245 
L 463.683569 590.875986 
L 464.322311 590.875986 
L 464.433427 591.387165 
L 465.072169 591.387165 
L 465.183285 591.716592 
L 468.071601 591.671154 
L 468.182717 591.432604 
L 468.821459 591.432604 
L 468.932575 591.080458 
L 469.571317 591.080458 
L 469.682433 590.705593 
L 470.321175 590.705593 
L 470.432291 590.444324 
L 472.570749 590.512481 
L 472.681865 590.921424 
L 473.320607 590.921424 
L 473.431723 591.159974 
L 474.070465 591.159974 
L 474.181581 590.001302 
L 474.820323 590.001302 
L 474.931439 583.742193 
L 475.570181 583.742193 
L 475.681297 578.993906 
L 476.320039 578.993906 
L 476.431155 582.015543 
L 477.069897 582.015543 
L 477.181013 588.626797 
L 477.819755 588.626797 
L 477.930871 582.004185 
L 478.569613 582.004185 
L 478.680729 579.732276 
L 479.319471 579.732276 
L 479.430587 573.325494 
L 480.069329 573.325494 
L 480.180445 572.678 
L 480.819187 572.678 
L 480.930303 571.519325 
L 481.569045 571.519325 
L 481.680161 572.394011 
L 482.318903 572.394011 
L 482.430019 570.656003 
L 483.068761 570.656003 
L 483.179877 570.281136 
L 484.568477 570.315217 
L 484.679593 570.576485 
L 485.318335 570.576485 
L 485.429451 576.256256 
L 486.068193 576.256256 
L 486.179309 574.768155 
L 486.81805 574.768155 
L 486.929167 570.212978 
L 487.567908 570.212978 
L 487.679025 568.770318 
L 489.067624 568.70216 
L 489.178741 568.622642 
L 489.817482 568.622642 
L 489.928599 568.463609 
L 490.56734 568.463609 
L 490.678457 568.247779 
L 491.317198 568.247779 
L 491.428315 568.077385 
L 492.067056 568.077385 
L 492.178173 567.702522 
L 492.816914 567.702522 
L 492.928031 567.21406 
L 493.566772 567.21406 
L 493.677889 567.713879 
L 494.31663 567.713879 
L 494.427747 572.496247 
L 495.066488 572.496247 
L 495.177605 579.652758 
L 495.816346 579.652758 
L 495.927463 585.003103 
L 496.566204 585.003103 
L 496.677321 587.877068 
L 497.316062 587.877068 
L 497.427179 590.03538 
L 498.06592 590.03538 
L 498.177037 591.568919 
L 498.815778 591.568919 
L 498.926895 592.420884 
L 499.565636 592.420884 
L 499.676753 592.75031 
L 501.065352 592.670794 
L 501.176469 592.318648 
L 501.81521 592.318648 
L 501.926327 591.568919 
L 502.565068 591.568919 
L 502.676185 589.887706 
L 503.314926 589.887706 
L 503.426043 587.286371 
L 504.064784 587.286371 
L 504.175901 585.798271 
L 504.814642 585.798271 
L 504.925759 585.377968 
L 505.5645 585.377968 
L 505.675617 583.83307 
L 506.314358 583.83307 
L 506.425475 585.139417 
L 507.064216 585.139417 
L 507.175333 585.446124 
L 507.814074 585.446124 
L 507.925191 580.209377 
L 508.563932 580.209377 
L 508.675049 576.119942 
L 509.31379 576.119942 
L 509.424907 577.732996 
L 510.063648 577.732996 
L 510.174765 567.906992 
L 510.813506 567.906992 
L 510.924623 567.259497 
L 511.563364 567.259497 
L 511.674481 571.348932 
L 512.313222 571.348932 
L 512.424339 578.403208 
L 513.06308 578.403208 
L 513.174197 581.538443 
L 513.812938 581.538443 
L 513.924055 582.504004 
L 514.562796 582.504004 
L 514.673913 583.015183 
L 515.312654 583.015183 
L 515.423771 578.244176 
L 516.062512 578.244176 
L 516.173629 572.553044 
L 516.81237 572.553044 
L 516.923487 584.900868 
L 517.562228 584.900868 
L 517.673345 587.036461 
L 518.312086 587.036461 
L 518.423203 588.30873 
L 519.061944 588.30873 
L 519.173061 588.172415 
L 519.811802 588.172415 
L 519.922919 588.456404 
L 520.56166 588.456404 
L 520.672777 587.399966 
L 521.311518 587.399966 
L 521.422635 586.638876 
L 522.061376 586.638876 
L 522.172493 585.150777 
L 522.811234 585.150777 
L 522.922351 583.628598 
L 523.561092 583.628598 
L 523.672209 586.604799 
L 524.31095 586.604799 
L 524.422067 587.683955 
L 525.810666 587.695314 
L 525.921783 584.866789 
L 527.310382 584.764552 
L 527.421499 585.08262 
L 528.810098 585.150777 
L 528.921215 585.741473 
L 529.559956 585.741473 
L 529.671073 586.718395 
L 530.309814 586.718395 
L 530.420931 587.604438 
L 531.059672 587.604438 
L 531.170789 588.126977 
L 532.559388 588.149696 
L 532.670505 587.740752 
L 533.309246 587.740752 
L 533.420363 587.627157 
L 534.059104 587.627157 
L 534.170221 586.513922 
L 534.808962 586.513922 
L 534.920079 588.331449 
L 535.55882 588.331449 
L 535.669937 587.967943 
L 536.308678 587.967943 
L 536.419795 587.138697 
L 537.058536 587.138697 
L 537.169653 586.264013 
L 537.808394 586.264013 
L 537.919511 585.58244 
L 539.30811 585.616518 
L 539.419227 584.980384 
L 540.057968 584.980384 
L 540.169085 584.809991 
L 540.807826 584.809991 
L 540.918943 584.412407 
L 541.557684 584.412407 
L 541.668801 584.117058 
L 542.307542 584.117058 
L 542.418659 583.923947 
L 544.557116 584.026182 
L 544.668233 584.435126 
L 545.306974 584.435126 
L 545.418091 585.025822 
L 546.056832 585.025822 
L 546.167949 585.548361 
L 546.80669 585.548361 
L 546.917807 585.82099 
L 548.306406 585.786911 
L 548.417523 585.446124 
L 549.056264 585.446124 
L 549.167381 584.866789 
L 549.806122 584.866789 
L 549.917239 584.276093 
L 550.55598 584.276093 
L 550.667097 583.821711 
L 551.305838 583.821711 
L 551.416955 583.196937 
L 552.055696 583.196937 
L 552.166813 582.310892 
L 552.805554 582.310892 
L 552.91667 581.220375 
L 553.555412 581.220375 
L 553.666528 579.005265 
L 554.30527 579.005265 
L 554.416386 579.85723 
L 555.055128 579.85723 
L 555.166244 580.050342 
L 555.804986 580.050342 
L 555.916102 580.36841 
L 556.554844 580.36841 
L 556.66596 580.209377 
L 557.304702 580.209377 
L 557.415818 581.470285 
L 558.05456 581.470285 
L 558.165676 582.129139 
L 558.804418 582.129139 
L 558.915534 582.719834 
L 559.554276 582.719834 
L 559.665392 583.310532 
L 560.304134 583.310532 
L 560.41525 583.912586 
L 561.053992 583.912586 
L 561.165108 584.401047 
L 561.80385 584.401047 
L 561.914966 584.696396 
L 563.303566 584.628238 
L 563.414682 584.196575 
L 564.053424 584.196575 
L 564.16454 583.617239 
L 564.803282 583.617239 
L 564.914398 583.162858 
L 565.55314 583.162858 
L 565.664256 582.924307 
L 566.302998 582.924307 
L 566.414114 583.287812 
L 567.052856 583.287812 
L 567.163972 583.923947 
L 567.802714 583.923947 
L 567.91383 584.412407 
L 568.552572 584.412407 
L 568.663688 585.58244 
L 569.30243 585.58244 
L 569.413546 586.80927 
L 570.052288 586.80927 
L 570.163404 587.683955 
L 570.802146 587.683955 
L 570.913262 588.626797 
L 571.552004 588.626797 
L 571.66312 589.774111 
L 572.301862 589.774111 
L 572.412978 590.807829 
L 573.05172 590.807829 
L 573.162836 592.000581 
L 573.801578 592.000581 
L 573.912694 592.863906 
L 574.551436 592.863906 
L 574.662552 593.386445 
L 575.301294 593.386445 
L 575.41241 593.613636 
L 579.050584 593.556839 
L 579.1617 592.102817 
L 579.800442 592.102817 
L 579.911558 569.111105 
L 580.5503 569.111105 
L 580.661416 560.864076 
L 581.300158 560.864076 
L 581.411274 560.705043 
L 582.799874 560.648246 
L 582.91099 561.113988 
L 583.549732 561.113988 
L 583.660848 561.227583 
L 585.049448 561.216223 
L 585.160564 561.454774 
L 585.799306 561.454774 
L 585.910422 561.125344 
L 586.549164 561.125344 
L 586.66028 560.864076 
L 588.04888 560.784558 
L 588.159996 561.023109 
L 588.798738 561.023109 
L 588.909854 561.182142 
L 589.548596 561.182142 
L 589.659712 561.432053 
L 590.298454 561.432053 
L 590.40957 561.625167 
L 591.048312 561.625167 
L 591.159428 561.363895 
L 591.79817 561.363895 
L 591.909286 561.613807 
L 593.297886 561.591086 
L 593.409002 561.307098 
L 594.047744 561.307098 
L 594.15886 561.170785 
L 595.54746 561.193502 
L 595.658576 561.681965 
L 596.297318 561.681965 
L 596.408434 561.193502 
L 597.047176 561.193502 
L 597.158292 560.72776 
L 598.546892 560.693683 
L 598.658008 560.909514 
L 599.29675 560.909514 
L 599.407866 561.716042 
L 600.796466 561.636524 
L 600.907582 561.148065 
L 601.546324 561.148065 
L 601.65744 560.807279 
L 603.04604 560.773201 
L 603.157156 560.943595 
L 604.545756 560.954951 
L 604.656872 561.23894 
L 605.295614 561.23894 
L 605.40673 560.875437 
L 606.79533 560.773201 
L 606.906446 560.443772 
L 607.545188 560.443772 
L 607.656304 560.171144 
L 608.295046 560.171144 
L 608.406162 559.853078 
L 609.044904 559.853078 
L 609.15602 559.421413 
L 609.794762 559.421413 
L 609.905878 560.352897 
L 610.54462 560.352897 
L 610.655736 559.535009 
L 611.294478 559.535009 
L 611.405594 558.558091 
L 612.044336 558.558091 
L 612.155452 557.660684 
L 612.794194 557.660684 
L 612.90531 556.717844 
L 613.544052 556.717844 
L 613.655168 555.763643 
L 614.29391 555.763643 
L 614.405026 554.820799 
L 615.043768 554.820799 
L 615.154884 553.741642 
L 615.793626 553.741642 
L 615.904742 553.298621 
L 616.543484 553.298621 
L 616.6546 552.014994 
L 617.293342 552.014994 
L 617.404458 561.545649 
L 618.0432 561.545649 
L 618.154316 570.599205 
L 618.793058 570.599205 
L 618.904174 565.589646 
L 619.542916 565.589646 
L 619.654032 571.099024 
L 620.292774 571.099024 
L 620.40389 561.806917 
L 621.042632 561.806917 
L 621.153748 555.718205 
L 621.79249 555.718205 
L 621.903606 556.433855 
L 622.542348 556.433855 
L 622.653464 552.310343 
L 623.292206 552.310343 
L 623.403322 551.83324 
L 624.042064 551.83324 
L 624.15318 551.469734 
L 624.791922 551.469734 
L 624.903038 549.61813 
L 625.54178 549.61813 
L 625.652896 548.857039 
L 626.291638 548.857039 
L 626.402754 556.876876 
L 627.041496 556.876876 
L 627.152612 559.171505 
L 627.791354 559.171505 
L 627.90247 556.854159 
L 628.541212 556.854159 
L 628.652328 554.718563 
L 629.29107 554.718563 
L 629.402186 561.477491 
L 630.040928 561.477491 
L 630.152044 564.726321 
L 630.790785 564.726321 
L 630.901902 566.839196 
L 631.540643 566.839196 
L 631.65176 564.067469 
L 632.290501 564.067469 
L 632.401618 567.44125 
L 633.040359 567.44125 
L 633.151476 568.247779 
L 633.790217 568.247779 
L 633.901334 571.905553 
L 634.540075 571.905553 
L 634.651192 573.734438 
L 635.289933 573.734438 
L 635.40105 575.336132 
L 636.039791 575.336132 
L 636.150908 576.767435 
L 636.789649 576.767435 
L 636.900766 577.312693 
L 638.289365 577.221817 
L 638.400482 576.778795 
L 639.039223 576.778795 
L 639.15034 575.779155 
L 639.789081 575.779155 
L 639.900198 574.495527 
L 640.538939 574.495527 
L 640.650056 575.199818 
L 641.288797 575.199818 
L 641.399914 576.835593 
L 642.038655 576.835593 
L 642.149772 578.323692 
L 642.788513 578.323692 
L 642.89963 579.39149 
L 643.538371 579.39149 
L 643.649488 579.993544 
L 644.288229 579.993544 
L 644.399346 580.300253 
L 645.038087 580.300253 
L 645.149204 580.527444 
L 645.787945 580.527444 
L 645.899062 580.754635 
L 646.537803 580.754635 
L 646.64892 580.947747 
L 647.287661 580.947747 
L 647.398778 581.129499 
L 648.037519 581.129499 
L 648.148636 581.345331 
L 648.787377 581.345331 
L 648.898494 581.58388 
L 649.537235 581.58388 
L 649.648352 581.84515 
L 650.287093 581.84515 
L 650.39821 582.129139 
L 651.036951 582.129139 
L 651.148068 582.469925 
L 651.786809 582.469925 
L 651.897926 582.84479 
L 652.536667 582.84479 
L 652.647784 583.253734 
L 653.286525 583.253734 
L 653.397642 583.639958 
L 654.036383 583.639958 
L 654.1475 584.037542 
L 654.786241 584.037542 
L 654.897358 584.480563 
L 655.536099 584.480563 
L 655.647216 585.025822 
L 656.285957 585.025822 
L 656.397074 585.673315 
L 657.035815 585.673315 
L 657.146932 586.30945 
L 657.785673 586.30945 
L 657.89679 586.866068 
L 658.535531 586.866068 
L 658.646648 587.32045 
L 659.285389 587.32045 
L 659.396506 587.672595 
L 660.035247 587.672595 
L 660.146364 588.002022 
L 660.785105 588.002022 
L 660.896222 588.342809 
L 661.534963 588.342809 
L 661.64608 588.706314 
L 662.284821 588.706314 
L 662.395938 589.0471 
L 663.034679 589.0471 
L 663.145796 589.421965 
L 663.784537 589.421965 
L 663.895654 589.853627 
L 664.534395 589.853627 
L 664.645512 590.319369 
L 665.284253 590.319369 
L 665.39537 590.819188 
L 666.034111 590.819188 
L 666.145228 591.319008 
L 666.783969 591.319008 
L 666.895086 591.852907 
L 667.533827 591.852907 
L 667.644944 592.341367 
L 668.283685 592.341367 
L 668.394802 592.807108 
L 669.033543 592.807108 
L 669.14466 593.227412 
L 669.783401 593.227412 
L 669.894518 593.613636 
L 670.533259 593.613636 
L 670.644376 593.965782 
L 671.283117 593.965782 
L 671.394234 594.272489 
L 672.032975 594.272489 
L 672.144092 594.522399 
L 672.782833 594.522399 
L 672.89395 594.715511 
L 673.532691 594.715511 
L 673.643808 594.885905 
L 674.282549 594.885905 
L 674.393666 595.033579 
L 675.032407 595.033579 
L 675.143524 595.158534 
L 675.782265 595.158534 
L 675.893382 595.272129 
L 677.281981 595.374365 
L 677.393098 595.49932 
L 678.031839 595.49932 
L 678.142956 595.681073 
L 678.781697 595.681073 
L 678.892814 595.885544 
L 679.531555 595.885544 
L 679.642672 596.044578 
L 680.281413 596.044578 
L 680.39253 596.158173 
L 684.030703 596.101376 
L 684.14182 595.99914 
L 684.780561 595.99914 
L 684.891678 595.862825 
L 685.530419 595.862825 
L 685.641536 595.681073 
L 686.280277 595.681073 
L 686.391394 595.48796 
L 687.030135 595.48796 
L 687.141252 595.283489 
L 687.779993 595.283489 
L 687.89111 595.113095 
L 688.529851 595.113095 
L 688.640968 594.9995 
L 689.279709 594.9995 
L 689.390826 594.885905 
L 690.029567 594.885905 
L 690.140684 594.74959 
L 690.779425 594.74959 
L 690.890542 594.624635 
L 692.279141 594.533759 
L 692.390258 594.420164 
L 693.028999 594.420164 
L 693.140116 594.283849 
L 693.778857 594.283849 
L 693.889974 594.090737 
L 694.528715 594.090737 
L 694.639832 593.863546 
L 695.278573 593.863546 
L 695.38969 593.613636 
L 696.028431 593.613636 
L 696.139547 593.386445 
L 696.778289 593.386445 
L 696.889405 593.181973 
L 697.528147 593.181973 
L 697.639263 593.045659 
L 699.027863 592.966142 
L 699.138979 592.897985 
L 700.527579 592.795749 
L 700.638695 592.636715 
L 701.277437 592.636715 
L 701.388553 592.489041 
L 702.027295 592.489041 
L 702.138411 592.295929 
L 702.777153 592.295929 
L 702.888269 592.125536 
L 703.527011 592.125536 
L 703.638127 591.932424 
L 704.276869 591.932424 
L 704.387985 591.716592 
L 705.026727 591.716592 
L 705.137843 591.466683 
L 705.776585 591.466683 
L 705.887701 591.159974 
L 706.526443 591.159974 
L 706.637559 590.78511 
L 707.276301 590.78511 
L 707.387417 590.376167 
L 708.026159 590.376167 
L 708.137275 589.933144 
L 708.776017 589.933144 
L 708.887133 589.444684 
L 709.525875 589.444684 
L 709.636991 588.990302 
L 710.275733 588.990302 
L 710.386849 587.456764 
L 711.025591 587.456764 
L 711.136707 581.901948 
L 711.775449 581.901948 
L 711.886565 582.924307 
L 712.525307 582.924307 
L 712.636423 584.378328 
L 713.275165 584.378328 
L 713.386281 577.369491 
L 714.025023 577.369491 
L 714.136139 580.606961 
L 714.774881 580.606961 
L 714.885997 583.424127 
L 715.524739 583.424127 
L 715.635855 579.630039 
L 716.274597 579.630039 
L 716.385713 576.790154 
L 717.024455 576.790154 
L 717.135571 582.038262 
L 717.774313 582.038262 
L 717.885429 586.09362 
L 718.524171 586.09362 
L 718.635287 581.061342 
L 719.274029 581.061342 
L 719.385145 579.289253 
L 720.023887 579.289253 
L 720.135003 581.470285 
L 720.773745 581.470285 
L 720.884861 581.720196 
L 721.523603 581.720196 
L 721.634719 580.493365 
L 722.273461 580.493365 
L 722.384577 580.663758 
L 723.023319 580.663758 
L 723.134435 580.834151 
L 723.773177 580.834151 
L 723.884293 581.140859 
L 724.523035 581.140859 
L 724.634151 581.458926 
L 725.272893 581.458926 
L 725.384009 581.901948 
L 726.022751 581.901948 
L 726.133867 582.447206 
L 726.772609 582.447206 
L 726.883725 584.014823 
L 727.522467 584.014823 
L 727.633583 591.262211 
L 728.272325 591.262211 
L 728.383441 593.5114 
L 729.022183 593.5114 
L 729.133299 593.113816 
L 729.772041 593.113816 
L 729.883157 589.53556 
L 730.521899 589.53556 
L 730.633015 586.002743 
L 731.271757 586.002743 
L 731.382873 586.116339 
L 732.021615 586.116339 
L 732.132731 586.900146 
L 732.771473 586.900146 
L 732.882589 589.53556 
L 733.521331 589.53556 
L 733.632447 592.659435 
L 734.271189 592.659435 
L 734.382305 592.01194 
L 735.021047 592.01194 
L 735.132163 593.772669 
L 735.770905 593.772669 
L 735.882021 594.715511 
L 736.520763 594.715511 
L 736.631879 596.635274 
L 737.270621 596.635274 
L 737.381737 596.817027 
L 738.770337 596.73751 
L 738.881453 596.408083 
L 739.520195 596.408083 
L 739.631311 596.873824 
L 740.270053 596.873824 
L 740.381169 597.271408 
L 741.019911 597.271408 
L 741.131027 597.634914 
L 742.519627 597.680352 
L 742.630743 597.782588 
L 744.769201 597.884824 
L 744.880317 597.964341 
L 746.268917 598.055217 
L 746.380033 598.157453 
L 747.768633 598.236969 
L 747.879749 598.327846 
L 750.768065 598.282408 
L 750.879181 597.48724 
L 751.517923 597.48724 
L 751.629039 596.47624 
L 752.267781 596.47624 
L 752.378897 597.248689 
L 753.017639 597.248689 
L 753.128755 598.21425 
L 756.017071 598.123374 
L 756.128187 598.055217 
L 757.516787 597.998419 
L 757.627903 597.759869 
L 758.266645 597.759869 
L 758.377761 596.328566 
L 759.016503 596.328566 
L 759.127619 595.862825 
L 759.766361 595.862825 
L 759.877477 596.271769 
L 760.516219 596.271769 
L 760.627335 597.316847 
L 761.266077 597.316847 
L 761.377193 597.759869 
L 762.015935 597.759869 
L 762.127051 598.202891 
L 762.765793 598.202891 
L 762.876909 598.327846 
L 763.515651 598.327846 
L 763.626767 598.509598 
L 764.265509 598.509598 
L 764.376625 598.691351 
L 765.015367 598.691351 
L 765.126483 598.873104 
L 765.765225 598.873104 
L 765.876341 599.077576 
L 768.014799 599.157092 
L 768.125915 599.270688 
L 768.764657 599.270688 
L 768.875773 599.407002 
L 769.514515 599.407002 
L 769.625631 599.622834 
L 770.264373 599.622834 
L 770.375489 599.736429 
L 771.014231 599.736429 
L 771.125347 599.872743 
L 771.764089 599.872743 
L 771.875205 600.009058 
L 772.513947 600.009058 
L 772.625063 600.122653 
L 773.263805 600.122653 
L 773.374921 600.258968 
L 774.013663 600.258968 
L 774.124779 600.406642 
L 774.76352 600.406642 
L 774.874637 600.520237 
L 776.263236 600.622473 
L 776.374353 600.667911 
L 777.762952 600.736069 
L 777.874069 600.838305 
L 779.262668 600.849664 
L 779.373785 600.96326 
L 781.512242 601.020057 
L 781.623359 601.076855 
L 783.011958 601.156372 
L 783.123075 601.19045 
L 784.511674 601.19045 
L 784.622791 601.304046 
L 1133.9455 601.304046 
L 1133.9455 601.304046 
" clip-path="url(#p407ba1658c)" style="fill: none; stroke: #024b7a; stroke-width: 1.5; stroke-linecap: square"/>
   </g>
   <g id="patch_21">
    <path d="M 54.15 602.44 
L 54.15 453.63 
" style="fill: none; stroke: #000000; stroke-width: 0.8; stroke-linejoin: miter; stroke-linecap: square"/>
   </g>
   <g id="patch_22">
    <path d="M 1133.9455 602.44 
L 1133.9455 453.63 
" style="fill: none; stroke: #000000; stroke-width: 0.8; stroke-linejoin: miter; stroke-linecap: square"/>
   </g>
   <g id="patch_23">
    <path d="M 54.15 602.44 
L 1133.9455 602.44 
" style="fill: none; stroke: #000000; stroke-width: 0.8; stroke-linejoin: miter; stroke-linecap: square"/>
   </g>
   <g id="patch_24">
    <path d="M 54.15 453.63 
L 1133.9455 453.63 
" style="fill: none; stroke: #000000; stroke-width: 0.8; stroke-linejoin: miter; stroke-linecap: square"/>
   </g>
   <g id="legend_4">
    <g id="patch_25">
     <path d="M 1040.472062 476.308125 
L 1126.9455 476.308125 
Q 1128.9455 476.308125 1128.9455 474.308125 
L 1128.9455 460.63 
Q 1128.9455 458.63 1126.9455 458.63 
L 1040.472062 458.63 
Q 1038.472062 458.63 1038.472062 460.63 
L 1038.472062 474.308125 
Q 1038.472062 476.308125 1040.472062 476.308125 
z
" style="fill: #ffffff; opacity: 0.8; stroke: #cccccc; stroke-linejoin: miter"/>
    </g>
    <g id="line2d_132">
     <path d="M 1042.472062 466.728437 
L 1052.472062 466.728437 
L 1062.472062 466.728437 
" style="fill: none; stroke: #024b7a; stroke-width: 1.5; stroke-linecap: square"/>
    </g>
    <g id="text_52">
     <!-- Solar trace -->
     <g transform="translate(1070.472062 470.228437) scale(0.1 -0.1)">
      <use xlink:href="#DejaVuSans-53"/>
      <use xlink:href="#DejaVuSans-6f" x="63.476562"/>
      <use xlink:href="#DejaVuSans-6c" x="124.658203"/>
      <use xlink:href="#DejaVuSans-61" x="152.441406"/>
      <use xlink:href="#DejaVuSans-72" x="213.720703"/>
      <use xlink:href="#DejaVuSans-20" x="254.833984"/>
      <use xlink:href="#DejaVuSans-74" x="286.621094"/>
      <use xlink:href="#DejaVuSans-72" x="325.830078"/>
      <use xlink:href="#DejaVuSans-61" x="366.943359"/>
      <use xlink:href="#DejaVuSans-63" x="428.222656"/>
      <use xlink:href="#DejaVuSans-65" x="483.203125"/>
     </g>
    </g>
   </g>
  </g>
 </g>
 <defs>
  <clipPath id="p3891b56fd3">
   <rect x="54.15" y="7.2" width="1079.7955" height="148.81"/>
  </clipPath>
  <clipPath id="p51e3b73f41">
   <rect x="54.15" y="156.01" width="1079.7955" height="148.81"/>
  </clipPath>
  <clipPath id="p251a9092b0">
   <rect x="54.15" y="304.82" width="1079.7955" height="148.81"/>
  </clipPath>
  <clipPath id="p407ba1658c">
   <rect x="54.15" y="453.63" width="1079.7955" height="148.81"/>
  </clipPath>
 </defs>
</svg>
