<?xml version="1.0" encoding="utf-8" standalone="no"?>
<!DOCTYPE svg PUBLIC "-//W3C//DTD SVG 1.1//EN"
  "http://www.w3.org/Graphics/SVG/1.1/DTD/svg11.dtd">
<svg xmlns:xlink="http://www.w3.org/1999/xlink" width="1141.1455pt" height="639.99625pt" viewBox="0 0 1141.1455 639.99625" xmlns="http://www.w3.org/2000/svg" version="1.1">
 <metadata>
  <rdf:RDF xmlns:dc="http://purl.org/dc/elements/1.1/" xmlns:cc="http://creativecommons.org/ns#" xmlns:rdf="http://www.w3.org/1999/02/22-rdf-syntax-ns#">
   <cc:Work>
    <dc:type rdf:resource="http://purl.org/dc/dcmitype/StillImage"/>
    <dc:date>2024-03-05T11:16:48.077745</dc:date>
    <dc:format>image/svg+xml</dc:format>
    <dc:creator>
     <cc:Agent>
      <dc:title>Matplotlib v3.8.2, https://matplotlib.org/</dc:title>
     </cc:Agent>
    </dc:creator>
   </cc:Work>
  </rdf:RDF>
 </metadata>
 <defs>
  <style type="text/css">*{stroke-linejoin: round; stroke-linecap: butt}</style>
 </defs>
 <g id="figure_1">
  <g id="patch_1">
   <path d="M 0 639.99625 
L 1141.1455 639.99625 
L 1141.1455 0 
L 0 0 
z
" style="fill: #ffffff"/>
  </g>
  <g id="axes_1">
   <g id="patch_2">
    <path d="M 54.15 156.01 
L 1133.9455 156.01 
L 1133.9455 7.2 
L 54.15 7.2 
z
" style="fill: #ffffff"/>
   </g>
   <g id="matplotlib.axis_1">
    <g id="xtick_1">
     <g id="line2d_1">
      <defs>
       <path id="m2431d7a299" d="M 0 0 
L 0 3.5 
" style="stroke: #000000; stroke-width: 0.8"/>
      </defs>
      <g>
       <use xlink:href="#m2431d7a299" x="54.15" y="156.01" style="stroke: #000000; stroke-width: 0.8"/>
      </g>
     </g>
    </g>
    <g id="xtick_2">
     <g id="line2d_2">
      <g>
       <use xlink:href="#m2431d7a299" x="99.141479" y="156.01" style="stroke: #000000; stroke-width: 0.8"/>
      </g>
     </g>
    </g>
    <g id="xtick_3">
     <g id="line2d_3">
      <g>
       <use xlink:href="#m2431d7a299" x="144.132958" y="156.01" style="stroke: #000000; stroke-width: 0.8"/>
      </g>
     </g>
    </g>
    <g id="xtick_4">
     <g id="line2d_4">
      <g>
       <use xlink:href="#m2431d7a299" x="189.124437" y="156.01" style="stroke: #000000; stroke-width: 0.8"/>
      </g>
     </g>
    </g>
    <g id="xtick_5">
     <g id="line2d_5">
      <g>
       <use xlink:href="#m2431d7a299" x="234.115917" y="156.01" style="stroke: #000000; stroke-width: 0.8"/>
      </g>
     </g>
    </g>
    <g id="xtick_6">
     <g id="line2d_6">
      <g>
       <use xlink:href="#m2431d7a299" x="279.107396" y="156.01" style="stroke: #000000; stroke-width: 0.8"/>
      </g>
     </g>
    </g>
    <g id="xtick_7">
     <g id="line2d_7">
      <g>
       <use xlink:href="#m2431d7a299" x="324.098875" y="156.01" style="stroke: #000000; stroke-width: 0.8"/>
      </g>
     </g>
    </g>
    <g id="xtick_8">
     <g id="line2d_8">
      <g>
       <use xlink:href="#m2431d7a299" x="369.090354" y="156.01" style="stroke: #000000; stroke-width: 0.8"/>
      </g>
     </g>
    </g>
    <g id="xtick_9">
     <g id="line2d_9">
      <g>
       <use xlink:href="#m2431d7a299" x="414.081833" y="156.01" style="stroke: #000000; stroke-width: 0.8"/>
      </g>
     </g>
    </g>
    <g id="xtick_10">
     <g id="line2d_10">
      <g>
       <use xlink:href="#m2431d7a299" x="459.073312" y="156.01" style="stroke: #000000; stroke-width: 0.8"/>
      </g>
     </g>
    </g>
    <g id="xtick_11">
     <g id="line2d_11">
      <g>
       <use xlink:href="#m2431d7a299" x="504.064792" y="156.01" style="stroke: #000000; stroke-width: 0.8"/>
      </g>
     </g>
    </g>
    <g id="xtick_12">
     <g id="line2d_12">
      <g>
       <use xlink:href="#m2431d7a299" x="549.056271" y="156.01" style="stroke: #000000; stroke-width: 0.8"/>
      </g>
     </g>
    </g>
    <g id="xtick_13">
     <g id="line2d_13">
      <g>
       <use xlink:href="#m2431d7a299" x="594.04775" y="156.01" style="stroke: #000000; stroke-width: 0.8"/>
      </g>
     </g>
    </g>
    <g id="xtick_14">
     <g id="line2d_14">
      <g>
       <use xlink:href="#m2431d7a299" x="639.039229" y="156.01" style="stroke: #000000; stroke-width: 0.8"/>
      </g>
     </g>
    </g>
    <g id="xtick_15">
     <g id="line2d_15">
      <g>
       <use xlink:href="#m2431d7a299" x="684.030708" y="156.01" style="stroke: #000000; stroke-width: 0.8"/>
      </g>
     </g>
    </g>
    <g id="xtick_16">
     <g id="line2d_16">
      <g>
       <use xlink:href="#m2431d7a299" x="729.022187" y="156.01" style="stroke: #000000; stroke-width: 0.8"/>
      </g>
     </g>
    </g>
    <g id="xtick_17">
     <g id="line2d_17">
      <g>
       <use xlink:href="#m2431d7a299" x="774.013667" y="156.01" style="stroke: #000000; stroke-width: 0.8"/>
      </g>
     </g>
    </g>
    <g id="xtick_18">
     <g id="line2d_18">
      <g>
       <use xlink:href="#m2431d7a299" x="819.005146" y="156.01" style="stroke: #000000; stroke-width: 0.8"/>
      </g>
     </g>
    </g>
    <g id="xtick_19">
     <g id="line2d_19">
      <g>
       <use xlink:href="#m2431d7a299" x="863.996625" y="156.01" style="stroke: #000000; stroke-width: 0.8"/>
      </g>
     </g>
    </g>
    <g id="xtick_20">
     <g id="line2d_20">
      <g>
       <use xlink:href="#m2431d7a299" x="908.988104" y="156.01" style="stroke: #000000; stroke-width: 0.8"/>
      </g>
     </g>
    </g>
    <g id="xtick_21">
     <g id="line2d_21">
      <g>
       <use xlink:href="#m2431d7a299" x="953.979583" y="156.01" style="stroke: #000000; stroke-width: 0.8"/>
      </g>
     </g>
    </g>
    <g id="xtick_22">
     <g id="line2d_22">
      <g>
       <use xlink:href="#m2431d7a299" x="998.971062" y="156.01" style="stroke: #000000; stroke-width: 0.8"/>
      </g>
     </g>
    </g>
    <g id="xtick_23">
     <g id="line2d_23">
      <g>
       <use xlink:href="#m2431d7a299" x="1043.962542" y="156.01" style="stroke: #000000; stroke-width: 0.8"/>
      </g>
     </g>
    </g>
    <g id="xtick_24">
     <g id="line2d_24">
      <g>
       <use xlink:href="#m2431d7a299" x="1088.954021" y="156.01" style="stroke: #000000; stroke-width: 0.8"/>
      </g>
     </g>
    </g>
   </g>
   <g id="matplotlib.axis_2">
    <g id="ytick_1">
     <g id="line2d_25">
      <defs>
       <path id="m9fcec8481d" d="M 0 0 
L -3.5 0 
" style="stroke: #000000; stroke-width: 0.8"/>
      </defs>
      <g>
       <use xlink:href="#m9fcec8481d" x="54.15" y="149.245909" style="stroke: #000000; stroke-width: 0.8"/>
      </g>
     </g>
     <g id="text_1">
      <!-- 0 -->
      <g transform="translate(40.7875 153.045128) scale(0.1 -0.1)">
       <defs>
        <path id="DejaVuSans-30" d="M 2034 4250 
Q 1547 4250 1301 3770 
Q 1056 3291 1056 2328 
Q 1056 1369 1301 889 
Q 1547 409 2034 409 
Q 2525 409 2770 889 
Q 3016 1369 3016 2328 
Q 3016 3291 2770 3770 
Q 2525 4250 2034 4250 
z
M 2034 4750 
Q 2819 4750 3233 4129 
Q 3647 3509 3647 2328 
Q 3647 1150 3233 529 
Q 2819 -91 2034 -91 
Q 1250 -91 836 529 
Q 422 1150 422 2328 
Q 422 3509 836 4129 
Q 1250 4750 2034 4750 
z
" transform="scale(0.015625)"/>
       </defs>
       <use xlink:href="#DejaVuSans-30"/>
      </g>
     </g>
    </g>
    <g id="ytick_2">
     <g id="line2d_26">
      <g>
       <use xlink:href="#m9fcec8481d" x="54.15" y="108.251418" style="stroke: #000000; stroke-width: 0.8"/>
      </g>
     </g>
     <g id="text_2">
      <!-- 1 -->
      <g transform="translate(40.7875 112.050637) scale(0.1 -0.1)">
       <defs>
        <path id="DejaVuSans-31" d="M 794 531 
L 1825 531 
L 1825 4091 
L 703 3866 
L 703 4441 
L 1819 4666 
L 2450 4666 
L 2450 531 
L 3481 531 
L 3481 0 
L 794 0 
L 794 531 
z
" transform="scale(0.015625)"/>
       </defs>
       <use xlink:href="#DejaVuSans-31"/>
      </g>
     </g>
    </g>
    <g id="ytick_3">
     <g id="line2d_27">
      <g>
       <use xlink:href="#m9fcec8481d" x="54.15" y="67.256927" style="stroke: #000000; stroke-width: 0.8"/>
      </g>
     </g>
     <g id="text_3">
      <!-- 2 -->
      <g transform="translate(40.7875 71.056146) scale(0.1 -0.1)">
       <defs>
        <path id="DejaVuSans-32" d="M 1228 531 
L 3431 531 
L 3431 0 
L 469 0 
L 469 531 
Q 828 903 1448 1529 
Q 2069 2156 2228 2338 
Q 2531 2678 2651 2914 
Q 2772 3150 2772 3378 
Q 2772 3750 2511 3984 
Q 2250 4219 1831 4219 
Q 1534 4219 1204 4116 
Q 875 4013 500 3803 
L 500 4441 
Q 881 4594 1212 4672 
Q 1544 4750 1819 4750 
Q 2544 4750 2975 4387 
Q 3406 4025 3406 3419 
Q 3406 3131 3298 2873 
Q 3191 2616 2906 2266 
Q 2828 2175 2409 1742 
Q 1991 1309 1228 531 
z
" transform="scale(0.015625)"/>
       </defs>
       <use xlink:href="#DejaVuSans-32"/>
      </g>
     </g>
    </g>
    <g id="ytick_4">
     <g id="line2d_28">
      <g>
       <use xlink:href="#m9fcec8481d" x="54.15" y="26.262436" style="stroke: #000000; stroke-width: 0.8"/>
      </g>
     </g>
     <g id="text_4">
      <!-- 3 -->
      <g transform="translate(40.7875 30.061655) scale(0.1 -0.1)">
       <defs>
        <path id="DejaVuSans-33" d="M 2597 2516 
Q 3050 2419 3304 2112 
Q 3559 1806 3559 1356 
Q 3559 666 3084 287 
Q 2609 -91 1734 -91 
Q 1441 -91 1130 -33 
Q 819 25 488 141 
L 488 750 
Q 750 597 1062 519 
Q 1375 441 1716 441 
Q 2309 441 2620 675 
Q 2931 909 2931 1356 
Q 2931 1769 2642 2001 
Q 2353 2234 1838 2234 
L 1294 2234 
L 1294 2753 
L 1863 2753 
Q 2328 2753 2575 2939 
Q 2822 3125 2822 3475 
Q 2822 3834 2567 4026 
Q 2313 4219 1838 4219 
Q 1578 4219 1281 4162 
Q 984 4106 628 3988 
L 628 4550 
Q 988 4650 1302 4700 
Q 1616 4750 1894 4750 
Q 2613 4750 3031 4423 
Q 3450 4097 3450 3541 
Q 3450 3153 3228 2886 
Q 3006 2619 2597 2516 
z
" transform="scale(0.015625)"/>
       </defs>
       <use xlink:href="#DejaVuSans-33"/>
      </g>
     </g>
    </g>
    <g id="text_5">
     <!-- Voltage [V] -->
     <g transform="translate(34.707813 109.272187) rotate(-90) scale(0.1 -0.1)">
      <defs>
       <path id="DejaVuSans-56" d="M 1831 0 
L 50 4666 
L 709 4666 
L 2188 738 
L 3669 4666 
L 4325 4666 
L 2547 0 
L 1831 0 
z
" transform="scale(0.015625)"/>
       <path id="DejaVuSans-6f" d="M 1959 3097 
Q 1497 3097 1228 2736 
Q 959 2375 959 1747 
Q 959 1119 1226 758 
Q 1494 397 1959 397 
Q 2419 397 2687 759 
Q 2956 1122 2956 1747 
Q 2956 2369 2687 2733 
Q 2419 3097 1959 3097 
z
M 1959 3584 
Q 2709 3584 3137 3096 
Q 3566 2609 3566 1747 
Q 3566 888 3137 398 
Q 2709 -91 1959 -91 
Q 1206 -91 779 398 
Q 353 888 353 1747 
Q 353 2609 779 3096 
Q 1206 3584 1959 3584 
z
" transform="scale(0.015625)"/>
       <path id="DejaVuSans-6c" d="M 603 4863 
L 1178 4863 
L 1178 0 
L 603 0 
L 603 4863 
z
" transform="scale(0.015625)"/>
       <path id="DejaVuSans-74" d="M 1172 4494 
L 1172 3500 
L 2356 3500 
L 2356 3053 
L 1172 3053 
L 1172 1153 
Q 1172 725 1289 603 
Q 1406 481 1766 481 
L 2356 481 
L 2356 0 
L 1766 0 
Q 1100 0 847 248 
Q 594 497 594 1153 
L 594 3053 
L 172 3053 
L 172 3500 
L 594 3500 
L 594 4494 
L 1172 4494 
z
" transform="scale(0.015625)"/>
       <path id="DejaVuSans-61" d="M 2194 1759 
Q 1497 1759 1228 1600 
Q 959 1441 959 1056 
Q 959 750 1161 570 
Q 1363 391 1709 391 
Q 2188 391 2477 730 
Q 2766 1069 2766 1631 
L 2766 1759 
L 2194 1759 
z
M 3341 1997 
L 3341 0 
L 2766 0 
L 2766 531 
Q 2569 213 2275 61 
Q 1981 -91 1556 -91 
Q 1019 -91 701 211 
Q 384 513 384 1019 
Q 384 1609 779 1909 
Q 1175 2209 1959 2209 
L 2766 2209 
L 2766 2266 
Q 2766 2663 2505 2880 
Q 2244 3097 1772 3097 
Q 1472 3097 1187 3025 
Q 903 2953 641 2809 
L 641 3341 
Q 956 3463 1253 3523 
Q 1550 3584 1831 3584 
Q 2591 3584 2966 3190 
Q 3341 2797 3341 1997 
z
" transform="scale(0.015625)"/>
       <path id="DejaVuSans-67" d="M 2906 1791 
Q 2906 2416 2648 2759 
Q 2391 3103 1925 3103 
Q 1463 3103 1205 2759 
Q 947 2416 947 1791 
Q 947 1169 1205 825 
Q 1463 481 1925 481 
Q 2391 481 2648 825 
Q 2906 1169 2906 1791 
z
M 3481 434 
Q 3481 -459 3084 -895 
Q 2688 -1331 1869 -1331 
Q 1566 -1331 1297 -1286 
Q 1028 -1241 775 -1147 
L 775 -588 
Q 1028 -725 1275 -790 
Q 1522 -856 1778 -856 
Q 2344 -856 2625 -561 
Q 2906 -266 2906 331 
L 2906 616 
Q 2728 306 2450 153 
Q 2172 0 1784 0 
Q 1141 0 747 490 
Q 353 981 353 1791 
Q 353 2603 747 3093 
Q 1141 3584 1784 3584 
Q 2172 3584 2450 3431 
Q 2728 3278 2906 2969 
L 2906 3500 
L 3481 3500 
L 3481 434 
z
" transform="scale(0.015625)"/>
       <path id="DejaVuSans-65" d="M 3597 1894 
L 3597 1613 
L 953 1613 
Q 991 1019 1311 708 
Q 1631 397 2203 397 
Q 2534 397 2845 478 
Q 3156 559 3463 722 
L 3463 178 
Q 3153 47 2828 -22 
Q 2503 -91 2169 -91 
Q 1331 -91 842 396 
Q 353 884 353 1716 
Q 353 2575 817 3079 
Q 1281 3584 2069 3584 
Q 2775 3584 3186 3129 
Q 3597 2675 3597 1894 
z
M 3022 2063 
Q 3016 2534 2758 2815 
Q 2500 3097 2075 3097 
Q 1594 3097 1305 2825 
Q 1016 2553 972 2059 
L 3022 2063 
z
" transform="scale(0.015625)"/>
       <path id="DejaVuSans-20" transform="scale(0.015625)"/>
       <path id="DejaVuSans-5b" d="M 550 4863 
L 1875 4863 
L 1875 4416 
L 1125 4416 
L 1125 -397 
L 1875 -397 
L 1875 -844 
L 550 -844 
L 550 4863 
z
" transform="scale(0.015625)"/>
       <path id="DejaVuSans-5d" d="M 1947 4863 
L 1947 -844 
L 622 -844 
L 622 -397 
L 1369 -397 
L 1369 4416 
L 622 4416 
L 622 4863 
L 1947 4863 
z
" transform="scale(0.015625)"/>
      </defs>
      <use xlink:href="#DejaVuSans-56"/>
      <use xlink:href="#DejaVuSans-6f" x="60.658203"/>
      <use xlink:href="#DejaVuSans-6c" x="121.839844"/>
      <use xlink:href="#DejaVuSans-74" x="149.623047"/>
      <use xlink:href="#DejaVuSans-61" x="188.832031"/>
      <use xlink:href="#DejaVuSans-67" x="250.111328"/>
      <use xlink:href="#DejaVuSans-65" x="313.587891"/>
      <use xlink:href="#DejaVuSans-20" x="375.111328"/>
      <use xlink:href="#DejaVuSans-5b" x="406.898438"/>
      <use xlink:href="#DejaVuSans-56" x="445.912109"/>
      <use xlink:href="#DejaVuSans-5d" x="514.320312"/>
     </g>
    </g>
   </g>
   <g id="line2d_29">
    <path d="M 54.15 149.245909 
L 372.839635 149.245909 
L 372.951927 135.950147 
L 373.286176 122.732188 
L 374.021486 104.183977 
L 374.802464 89.518035 
L 375.826157 74.533875 
L 377.21057 58.107579 
L 378.564251 44.508002 
L 380.16646 30.520433 
L 381.531064 19.743543 
L 382.382078 13.964091 
L 401.714455 14.075024 
L 402.395676 54.972842 
L 402.4652 60.128557 
L 402.514091 55.505057 
L 403.067848 13.964091 
L 424.992334 14.075161 
L 425.483753 16.445192 
L 425.712048 18.147542 
L 425.721933 17.433054 
L 425.864056 13.964091 
L 727.541301 14.075171 
L 727.960709 16.539979 
L 727.968582 16.045197 
L 728.098295 13.964091 
L 750.463772 14.075122 
L 751.193159 44.313102 
L 751.213655 45.239291 
L 751.249798 41.671358 
L 751.639875 13.964091 
L 773.711657 14.074662 
L 774.145288 73.716918 
L 774.175844 79.555282 
L 774.274088 76.967915 
L 775.693869 38.560449 
L 775.726813 42.345157 
L 775.984077 79.403915 
L 776.106079 74.431249 
L 777.158017 37.275736 
L 778.05536 16.371996 
L 778.289765 13.964091 
L 784.031278 14.0752 
L 784.218255 14.08038 
L 788.23362 14.191489 
L 788.420597 14.196669 
L 792.432337 14.307779 
L 792.619327 14.312968 
L 796.627792 14.424078 
L 796.814782 14.429267 
L 798.480367 14.539702 
L 798.873467 73.293329 
L 799.01479 79.556059 
L 1133.9455 79.556059 
L 1133.9455 79.556059 
" clip-path="url(#p5af259968a)" style="fill: none; stroke: #1f77b4; stroke-width: 1.5; stroke-linecap: square"/>
   </g>
   <g id="line2d_30">
    <path d="M 54.15 38.560784 
L 1133.9455 38.560784 
" clip-path="url(#p5af259968a)" style="fill: none; stroke-dasharray: 5.55,2.4; stroke-dashoffset: 0; stroke: #008000; stroke-width: 1.5"/>
   </g>
   <g id="line2d_31">
    <path d="M 54.15 71.356376 
L 1133.9455 71.356376 
" clip-path="url(#p5af259968a)" style="fill: none; stroke-dasharray: 5.55,2.4; stroke-dashoffset: 0; stroke: #ffa500; stroke-width: 1.5"/>
   </g>
   <g id="line2d_32">
    <path d="M 54.15 79.555274 
L 1133.9455 79.555274 
" clip-path="url(#p5af259968a)" style="fill: none; stroke-dasharray: 5.55,2.4; stroke-dashoffset: 0; stroke: #ff0000; stroke-width: 1.5"/>
   </g>
   <g id="patch_3">
    <path d="M 54.15 156.01 
L 54.15 7.2 
" style="fill: none; stroke: #000000; stroke-width: 0.8; stroke-linejoin: miter; stroke-linecap: square"/>
   </g>
   <g id="patch_4">
    <path d="M 1133.9455 156.01 
L 1133.9455 7.2 
" style="fill: none; stroke: #000000; stroke-width: 0.8; stroke-linejoin: miter; stroke-linecap: square"/>
   </g>
   <g id="patch_5">
    <path d="M 54.15 156.01 
L 1133.9455 156.01 
" style="fill: none; stroke: #000000; stroke-width: 0.8; stroke-linejoin: miter; stroke-linecap: square"/>
   </g>
   <g id="patch_6">
    <path d="M 54.15 7.2 
L 1133.9455 7.2 
" style="fill: none; stroke: #000000; stroke-width: 0.8; stroke-linejoin: miter; stroke-linecap: square"/>
   </g>
   <g id="legend_1">
    <g id="patch_7">
     <path d="M 1056.648625 29.878125 
L 1126.9455 29.878125 
Q 1128.9455 29.878125 1128.9455 27.878125 
L 1128.9455 14.2 
Q 1128.9455 12.2 1126.9455 12.2 
L 1056.648625 12.2 
Q 1054.648625 12.2 1054.648625 14.2 
L 1054.648625 27.878125 
Q 1054.648625 29.878125 1056.648625 29.878125 
z
" style="fill: #ffffff; opacity: 0.8; stroke: #cccccc; stroke-linejoin: miter"/>
    </g>
    <g id="line2d_33">
     <path d="M 1058.648625 20.298437 
L 1068.648625 20.298437 
L 1078.648625 20.298437 
" style="fill: none; stroke: #1f77b4; stroke-width: 1.5; stroke-linecap: square"/>
    </g>
    <g id="text_6">
     <!-- Interval -->
     <g transform="translate(1086.648625 23.798437) scale(0.1 -0.1)">
      <defs>
       <path id="DejaVuSans-49" d="M 628 4666 
L 1259 4666 
L 1259 0 
L 628 0 
L 628 4666 
z
" transform="scale(0.015625)"/>
       <path id="DejaVuSans-6e" d="M 3513 2113 
L 3513 0 
L 2938 0 
L 2938 2094 
Q 2938 2591 2744 2837 
Q 2550 3084 2163 3084 
Q 1697 3084 1428 2787 
Q 1159 2491 1159 1978 
L 1159 0 
L 581 0 
L 581 3500 
L 1159 3500 
L 1159 2956 
Q 1366 3272 1645 3428 
Q 1925 3584 2291 3584 
Q 2894 3584 3203 3211 
Q 3513 2838 3513 2113 
z
" transform="scale(0.015625)"/>
       <path id="DejaVuSans-72" d="M 2631 2963 
Q 2534 3019 2420 3045 
Q 2306 3072 2169 3072 
Q 1681 3072 1420 2755 
Q 1159 2438 1159 1844 
L 1159 0 
L 581 0 
L 581 3500 
L 1159 3500 
L 1159 2956 
Q 1341 3275 1631 3429 
Q 1922 3584 2338 3584 
Q 2397 3584 2469 3576 
Q 2541 3569 2628 3553 
L 2631 2963 
z
" transform="scale(0.015625)"/>
       <path id="DejaVuSans-76" d="M 191 3500 
L 800 3500 
L 1894 563 
L 2988 3500 
L 3597 3500 
L 2284 0 
L 1503 0 
L 191 3500 
z
" transform="scale(0.015625)"/>
      </defs>
      <use xlink:href="#DejaVuSans-49"/>
      <use xlink:href="#DejaVuSans-6e" x="29.492188"/>
      <use xlink:href="#DejaVuSans-74" x="92.871094"/>
      <use xlink:href="#DejaVuSans-65" x="132.080078"/>
      <use xlink:href="#DejaVuSans-72" x="193.603516"/>
      <use xlink:href="#DejaVuSans-76" x="234.716797"/>
      <use xlink:href="#DejaVuSans-61" x="293.896484"/>
      <use xlink:href="#DejaVuSans-6c" x="355.175781"/>
     </g>
    </g>
   </g>
  </g>
  <g id="axes_2">
   <g id="patch_8">
    <path d="M 54.15 304.82 
L 1133.9455 304.82 
L 1133.9455 156.01 
L 54.15 156.01 
z
" style="fill: #ffffff"/>
   </g>
   <g id="matplotlib.axis_3">
    <g id="xtick_25">
     <g id="line2d_34">
      <g>
       <use xlink:href="#m2431d7a299" x="54.15" y="304.82" style="stroke: #000000; stroke-width: 0.8"/>
      </g>
     </g>
    </g>
    <g id="xtick_26">
     <g id="line2d_35">
      <g>
       <use xlink:href="#m2431d7a299" x="99.141479" y="304.82" style="stroke: #000000; stroke-width: 0.8"/>
      </g>
     </g>
    </g>
    <g id="xtick_27">
     <g id="line2d_36">
      <g>
       <use xlink:href="#m2431d7a299" x="144.132958" y="304.82" style="stroke: #000000; stroke-width: 0.8"/>
      </g>
     </g>
    </g>
    <g id="xtick_28">
     <g id="line2d_37">
      <g>
       <use xlink:href="#m2431d7a299" x="189.124437" y="304.82" style="stroke: #000000; stroke-width: 0.8"/>
      </g>
     </g>
    </g>
    <g id="xtick_29">
     <g id="line2d_38">
      <g>
       <use xlink:href="#m2431d7a299" x="234.115917" y="304.82" style="stroke: #000000; stroke-width: 0.8"/>
      </g>
     </g>
    </g>
    <g id="xtick_30">
     <g id="line2d_39">
      <g>
       <use xlink:href="#m2431d7a299" x="279.107396" y="304.82" style="stroke: #000000; stroke-width: 0.8"/>
      </g>
     </g>
    </g>
    <g id="xtick_31">
     <g id="line2d_40">
      <g>
       <use xlink:href="#m2431d7a299" x="324.098875" y="304.82" style="stroke: #000000; stroke-width: 0.8"/>
      </g>
     </g>
    </g>
    <g id="xtick_32">
     <g id="line2d_41">
      <g>
       <use xlink:href="#m2431d7a299" x="369.090354" y="304.82" style="stroke: #000000; stroke-width: 0.8"/>
      </g>
     </g>
    </g>
    <g id="xtick_33">
     <g id="line2d_42">
      <g>
       <use xlink:href="#m2431d7a299" x="414.081833" y="304.82" style="stroke: #000000; stroke-width: 0.8"/>
      </g>
     </g>
    </g>
    <g id="xtick_34">
     <g id="line2d_43">
      <g>
       <use xlink:href="#m2431d7a299" x="459.073312" y="304.82" style="stroke: #000000; stroke-width: 0.8"/>
      </g>
     </g>
    </g>
    <g id="xtick_35">
     <g id="line2d_44">
      <g>
       <use xlink:href="#m2431d7a299" x="504.064792" y="304.82" style="stroke: #000000; stroke-width: 0.8"/>
      </g>
     </g>
    </g>
    <g id="xtick_36">
     <g id="line2d_45">
      <g>
       <use xlink:href="#m2431d7a299" x="549.056271" y="304.82" style="stroke: #000000; stroke-width: 0.8"/>
      </g>
     </g>
    </g>
    <g id="xtick_37">
     <g id="line2d_46">
      <g>
       <use xlink:href="#m2431d7a299" x="594.04775" y="304.82" style="stroke: #000000; stroke-width: 0.8"/>
      </g>
     </g>
    </g>
    <g id="xtick_38">
     <g id="line2d_47">
      <g>
       <use xlink:href="#m2431d7a299" x="639.039229" y="304.82" style="stroke: #000000; stroke-width: 0.8"/>
      </g>
     </g>
    </g>
    <g id="xtick_39">
     <g id="line2d_48">
      <g>
       <use xlink:href="#m2431d7a299" x="684.030708" y="304.82" style="stroke: #000000; stroke-width: 0.8"/>
      </g>
     </g>
    </g>
    <g id="xtick_40">
     <g id="line2d_49">
      <g>
       <use xlink:href="#m2431d7a299" x="729.022187" y="304.82" style="stroke: #000000; stroke-width: 0.8"/>
      </g>
     </g>
    </g>
    <g id="xtick_41">
     <g id="line2d_50">
      <g>
       <use xlink:href="#m2431d7a299" x="774.013667" y="304.82" style="stroke: #000000; stroke-width: 0.8"/>
      </g>
     </g>
    </g>
    <g id="xtick_42">
     <g id="line2d_51">
      <g>
       <use xlink:href="#m2431d7a299" x="819.005146" y="304.82" style="stroke: #000000; stroke-width: 0.8"/>
      </g>
     </g>
    </g>
    <g id="xtick_43">
     <g id="line2d_52">
      <g>
       <use xlink:href="#m2431d7a299" x="863.996625" y="304.82" style="stroke: #000000; stroke-width: 0.8"/>
      </g>
     </g>
    </g>
    <g id="xtick_44">
     <g id="line2d_53">
      <g>
       <use xlink:href="#m2431d7a299" x="908.988104" y="304.82" style="stroke: #000000; stroke-width: 0.8"/>
      </g>
     </g>
    </g>
    <g id="xtick_45">
     <g id="line2d_54">
      <g>
       <use xlink:href="#m2431d7a299" x="953.979583" y="304.82" style="stroke: #000000; stroke-width: 0.8"/>
      </g>
     </g>
    </g>
    <g id="xtick_46">
     <g id="line2d_55">
      <g>
       <use xlink:href="#m2431d7a299" x="998.971062" y="304.82" style="stroke: #000000; stroke-width: 0.8"/>
      </g>
     </g>
    </g>
    <g id="xtick_47">
     <g id="line2d_56">
      <g>
       <use xlink:href="#m2431d7a299" x="1043.962542" y="304.82" style="stroke: #000000; stroke-width: 0.8"/>
      </g>
     </g>
    </g>
    <g id="xtick_48">
     <g id="line2d_57">
      <g>
       <use xlink:href="#m2431d7a299" x="1088.954021" y="304.82" style="stroke: #000000; stroke-width: 0.8"/>
      </g>
     </g>
    </g>
   </g>
   <g id="matplotlib.axis_4">
    <g id="ytick_5">
     <g id="line2d_58">
      <g>
       <use xlink:href="#m9fcec8481d" x="54.15" y="298.055909" style="stroke: #000000; stroke-width: 0.8"/>
      </g>
     </g>
     <g id="text_7">
      <!-- 0 -->
      <g transform="translate(40.7875 301.855128) scale(0.1 -0.1)">
       <use xlink:href="#DejaVuSans-30"/>
      </g>
     </g>
    </g>
    <g id="ytick_6">
     <g id="line2d_59">
      <g>
       <use xlink:href="#m9fcec8481d" x="54.15" y="257.061418" style="stroke: #000000; stroke-width: 0.8"/>
      </g>
     </g>
     <g id="text_8">
      <!-- 1 -->
      <g transform="translate(40.7875 260.860637) scale(0.1 -0.1)">
       <use xlink:href="#DejaVuSans-31"/>
      </g>
     </g>
    </g>
    <g id="ytick_7">
     <g id="line2d_60">
      <g>
       <use xlink:href="#m9fcec8481d" x="54.15" y="216.066927" style="stroke: #000000; stroke-width: 0.8"/>
      </g>
     </g>
     <g id="text_9">
      <!-- 2 -->
      <g transform="translate(40.7875 219.866146) scale(0.1 -0.1)">
       <use xlink:href="#DejaVuSans-32"/>
      </g>
     </g>
    </g>
    <g id="ytick_8">
     <g id="line2d_61">
      <g>
       <use xlink:href="#m9fcec8481d" x="54.15" y="175.072436" style="stroke: #000000; stroke-width: 0.8"/>
      </g>
     </g>
     <g id="text_10">
      <!-- 3 -->
      <g transform="translate(40.7875 178.871655) scale(0.1 -0.1)">
       <use xlink:href="#DejaVuSans-33"/>
      </g>
     </g>
    </g>
    <g id="text_11">
     <!-- Voltage [V] -->
     <g transform="translate(34.707813 258.082187) rotate(-90) scale(0.1 -0.1)">
      <use xlink:href="#DejaVuSans-56"/>
      <use xlink:href="#DejaVuSans-6f" x="60.658203"/>
      <use xlink:href="#DejaVuSans-6c" x="121.839844"/>
      <use xlink:href="#DejaVuSans-74" x="149.623047"/>
      <use xlink:href="#DejaVuSans-61" x="188.832031"/>
      <use xlink:href="#DejaVuSans-67" x="250.111328"/>
      <use xlink:href="#DejaVuSans-65" x="313.587891"/>
      <use xlink:href="#DejaVuSans-20" x="375.111328"/>
      <use xlink:href="#DejaVuSans-5b" x="406.898438"/>
      <use xlink:href="#DejaVuSans-56" x="445.912109"/>
      <use xlink:href="#DejaVuSans-5d" x="514.320312"/>
     </g>
    </g>
   </g>
   <g id="line2d_62">
    <path d="M 54.15 298.055909 
L 372.839635 298.055909 
L 372.951927 284.760147 
L 373.286176 271.542188 
L 374.021486 252.993977 
L 374.802464 238.328035 
L 375.826157 223.343875 
L 377.21057 206.917579 
L 378.564251 193.318002 
L 380.16646 179.330433 
L 381.531064 168.553543 
L 382.382078 162.774091 
L 401.714455 162.885024 
L 402.395676 203.782842 
L 402.464075 208.961926 
L 402.512953 204.231422 
L 403.062174 162.774091 
L 424.989959 162.885161 
L 425.483891 165.265005 
L 425.711598 166.991594 
L 425.718434 166.22422 
L 425.860394 162.774091 
L 727.541301 162.885171 
L 727.92939 165.192473 
L 727.934301 164.640896 
L 728.06199 162.774091 
L 750.428154 162.885122 
L 751.160365 193.224828 
L 751.176912 194.05584 
L 751.212768 190.423047 
L 751.600082 162.774091 
L 773.673664 162.884662 
L 774.101258 221.86648 
L 774.135427 228.365385 
L 774.233846 225.773492 
L 775.668274 187.370449 
L 775.700756 190.783995 
L 775.960731 228.366797 
L 776.08522 223.279597 
L 777.088343 187.370479 
L 777.095254 187.777208 
L 777.3808 228.366851 
L 777.511113 223.050102 
L 778.15994 202.025289 
L 778.725908 189.576915 
L 778.885865 187.370762 
L 778.896513 188.742277 
L 779.146815 228.366177 
L 779.293788 225.669455 
L 780.075977 222.795635 
L 1133.9455 222.795635 
L 1133.9455 222.795635 
" clip-path="url(#p423e60c740)" style="fill: none; stroke: #1f77b4; stroke-width: 1.5; stroke-linecap: square"/>
   </g>
   <g id="line2d_63">
    <path d="M 54.15 187.370784 
L 1133.9455 187.370784 
" clip-path="url(#p423e60c740)" style="fill: none; stroke-dasharray: 5.55,2.4; stroke-dashoffset: 0; stroke: #008000; stroke-width: 1.5"/>
   </g>
   <g id="line2d_64">
    <path d="M 54.15 220.166376 
L 1133.9455 220.166376 
" clip-path="url(#p423e60c740)" style="fill: none; stroke-dasharray: 5.55,2.4; stroke-dashoffset: 0; stroke: #ffa500; stroke-width: 1.5"/>
   </g>
   <g id="line2d_65">
    <path d="M 54.15 228.365274 
L 1133.9455 228.365274 
" clip-path="url(#p423e60c740)" style="fill: none; stroke-dasharray: 5.55,2.4; stroke-dashoffset: 0; stroke: #ff0000; stroke-width: 1.5"/>
   </g>
   <g id="patch_9">
    <path d="M 54.15 304.82 
L 54.15 156.01 
" style="fill: none; stroke: #000000; stroke-width: 0.8; stroke-linejoin: miter; stroke-linecap: square"/>
   </g>
   <g id="patch_10">
    <path d="M 1133.9455 304.82 
L 1133.9455 156.01 
" style="fill: none; stroke: #000000; stroke-width: 0.8; stroke-linejoin: miter; stroke-linecap: square"/>
   </g>
   <g id="patch_11">
    <path d="M 54.15 304.82 
L 1133.9455 304.82 
" style="fill: none; stroke: #000000; stroke-width: 0.8; stroke-linejoin: miter; stroke-linecap: square"/>
   </g>
   <g id="patch_12">
    <path d="M 54.15 156.01 
L 1133.9455 156.01 
" style="fill: none; stroke: #000000; stroke-width: 0.8; stroke-linejoin: miter; stroke-linecap: square"/>
   </g>
   <g id="legend_2">
    <g id="patch_13">
     <path d="M 1073.422063 178.688125 
L 1126.9455 178.688125 
Q 1128.9455 178.688125 1128.9455 176.688125 
L 1128.9455 163.01 
Q 1128.9455 161.01 1126.9455 161.01 
L 1073.422063 161.01 
Q 1071.422063 161.01 1071.422063 163.01 
L 1071.422063 176.688125 
Q 1071.422063 178.688125 1073.422063 178.688125 
z
" style="fill: #ffffff; opacity: 0.8; stroke: #cccccc; stroke-linejoin: miter"/>
    </g>
    <g id="line2d_66">
     <path d="M 1075.422063 169.108437 
L 1085.422063 169.108437 
L 1095.422063 169.108437 
" style="fill: none; stroke: #1f77b4; stroke-width: 1.5; stroke-linecap: square"/>
    </g>
    <g id="text_12">
     <!-- ADC -->
     <g transform="translate(1103.422063 172.608437) scale(0.1 -0.1)">
      <defs>
       <path id="DejaVuSans-41" d="M 2188 4044 
L 1331 1722 
L 3047 1722 
L 2188 4044 
z
M 1831 4666 
L 2547 4666 
L 4325 0 
L 3669 0 
L 3244 1197 
L 1141 1197 
L 716 0 
L 50 0 
L 1831 4666 
z
" transform="scale(0.015625)"/>
       <path id="DejaVuSans-44" d="M 1259 4147 
L 1259 519 
L 2022 519 
Q 2988 519 3436 956 
Q 3884 1394 3884 2338 
Q 3884 3275 3436 3711 
Q 2988 4147 2022 4147 
L 1259 4147 
z
M 628 4666 
L 1925 4666 
Q 3281 4666 3915 4102 
Q 4550 3538 4550 2338 
Q 4550 1131 3912 565 
Q 3275 0 1925 0 
L 628 0 
L 628 4666 
z
" transform="scale(0.015625)"/>
       <path id="DejaVuSans-43" d="M 4122 4306 
L 4122 3641 
Q 3803 3938 3442 4084 
Q 3081 4231 2675 4231 
Q 1875 4231 1450 3742 
Q 1025 3253 1025 2328 
Q 1025 1406 1450 917 
Q 1875 428 2675 428 
Q 3081 428 3442 575 
Q 3803 722 4122 1019 
L 4122 359 
Q 3791 134 3420 21 
Q 3050 -91 2638 -91 
Q 1578 -91 968 557 
Q 359 1206 359 2328 
Q 359 3453 968 4101 
Q 1578 4750 2638 4750 
Q 3056 4750 3426 4639 
Q 3797 4528 4122 4306 
z
" transform="scale(0.015625)"/>
      </defs>
      <use xlink:href="#DejaVuSans-41"/>
      <use xlink:href="#DejaVuSans-44" x="68.408203"/>
      <use xlink:href="#DejaVuSans-43" x="145.410156"/>
     </g>
    </g>
   </g>
  </g>
  <g id="axes_3">
   <g id="patch_14">
    <path d="M 54.15 453.63 
L 1133.9455 453.63 
L 1133.9455 304.82 
L 54.15 304.82 
z
" style="fill: #ffffff"/>
   </g>
   <g id="matplotlib.axis_5">
    <g id="xtick_49">
     <g id="line2d_67">
      <g>
       <use xlink:href="#m2431d7a299" x="54.15" y="453.63" style="stroke: #000000; stroke-width: 0.8"/>
      </g>
     </g>
    </g>
    <g id="xtick_50">
     <g id="line2d_68">
      <g>
       <use xlink:href="#m2431d7a299" x="99.141479" y="453.63" style="stroke: #000000; stroke-width: 0.8"/>
      </g>
     </g>
    </g>
    <g id="xtick_51">
     <g id="line2d_69">
      <g>
       <use xlink:href="#m2431d7a299" x="144.132958" y="453.63" style="stroke: #000000; stroke-width: 0.8"/>
      </g>
     </g>
    </g>
    <g id="xtick_52">
     <g id="line2d_70">
      <g>
       <use xlink:href="#m2431d7a299" x="189.124437" y="453.63" style="stroke: #000000; stroke-width: 0.8"/>
      </g>
     </g>
    </g>
    <g id="xtick_53">
     <g id="line2d_71">
      <g>
       <use xlink:href="#m2431d7a299" x="234.115917" y="453.63" style="stroke: #000000; stroke-width: 0.8"/>
      </g>
     </g>
    </g>
    <g id="xtick_54">
     <g id="line2d_72">
      <g>
       <use xlink:href="#m2431d7a299" x="279.107396" y="453.63" style="stroke: #000000; stroke-width: 0.8"/>
      </g>
     </g>
    </g>
    <g id="xtick_55">
     <g id="line2d_73">
      <g>
       <use xlink:href="#m2431d7a299" x="324.098875" y="453.63" style="stroke: #000000; stroke-width: 0.8"/>
      </g>
     </g>
    </g>
    <g id="xtick_56">
     <g id="line2d_74">
      <g>
       <use xlink:href="#m2431d7a299" x="369.090354" y="453.63" style="stroke: #000000; stroke-width: 0.8"/>
      </g>
     </g>
    </g>
    <g id="xtick_57">
     <g id="line2d_75">
      <g>
       <use xlink:href="#m2431d7a299" x="414.081833" y="453.63" style="stroke: #000000; stroke-width: 0.8"/>
      </g>
     </g>
    </g>
    <g id="xtick_58">
     <g id="line2d_76">
      <g>
       <use xlink:href="#m2431d7a299" x="459.073312" y="453.63" style="stroke: #000000; stroke-width: 0.8"/>
      </g>
     </g>
    </g>
    <g id="xtick_59">
     <g id="line2d_77">
      <g>
       <use xlink:href="#m2431d7a299" x="504.064792" y="453.63" style="stroke: #000000; stroke-width: 0.8"/>
      </g>
     </g>
    </g>
    <g id="xtick_60">
     <g id="line2d_78">
      <g>
       <use xlink:href="#m2431d7a299" x="549.056271" y="453.63" style="stroke: #000000; stroke-width: 0.8"/>
      </g>
     </g>
    </g>
    <g id="xtick_61">
     <g id="line2d_79">
      <g>
       <use xlink:href="#m2431d7a299" x="594.04775" y="453.63" style="stroke: #000000; stroke-width: 0.8"/>
      </g>
     </g>
    </g>
    <g id="xtick_62">
     <g id="line2d_80">
      <g>
       <use xlink:href="#m2431d7a299" x="639.039229" y="453.63" style="stroke: #000000; stroke-width: 0.8"/>
      </g>
     </g>
    </g>
    <g id="xtick_63">
     <g id="line2d_81">
      <g>
       <use xlink:href="#m2431d7a299" x="684.030708" y="453.63" style="stroke: #000000; stroke-width: 0.8"/>
      </g>
     </g>
    </g>
    <g id="xtick_64">
     <g id="line2d_82">
      <g>
       <use xlink:href="#m2431d7a299" x="729.022187" y="453.63" style="stroke: #000000; stroke-width: 0.8"/>
      </g>
     </g>
    </g>
    <g id="xtick_65">
     <g id="line2d_83">
      <g>
       <use xlink:href="#m2431d7a299" x="774.013667" y="453.63" style="stroke: #000000; stroke-width: 0.8"/>
      </g>
     </g>
    </g>
    <g id="xtick_66">
     <g id="line2d_84">
      <g>
       <use xlink:href="#m2431d7a299" x="819.005146" y="453.63" style="stroke: #000000; stroke-width: 0.8"/>
      </g>
     </g>
    </g>
    <g id="xtick_67">
     <g id="line2d_85">
      <g>
       <use xlink:href="#m2431d7a299" x="863.996625" y="453.63" style="stroke: #000000; stroke-width: 0.8"/>
      </g>
     </g>
    </g>
    <g id="xtick_68">
     <g id="line2d_86">
      <g>
       <use xlink:href="#m2431d7a299" x="908.988104" y="453.63" style="stroke: #000000; stroke-width: 0.8"/>
      </g>
     </g>
    </g>
    <g id="xtick_69">
     <g id="line2d_87">
      <g>
       <use xlink:href="#m2431d7a299" x="953.979583" y="453.63" style="stroke: #000000; stroke-width: 0.8"/>
      </g>
     </g>
    </g>
    <g id="xtick_70">
     <g id="line2d_88">
      <g>
       <use xlink:href="#m2431d7a299" x="998.971062" y="453.63" style="stroke: #000000; stroke-width: 0.8"/>
      </g>
     </g>
    </g>
    <g id="xtick_71">
     <g id="line2d_89">
      <g>
       <use xlink:href="#m2431d7a299" x="1043.962542" y="453.63" style="stroke: #000000; stroke-width: 0.8"/>
      </g>
     </g>
    </g>
    <g id="xtick_72">
     <g id="line2d_90">
      <g>
       <use xlink:href="#m2431d7a299" x="1088.954021" y="453.63" style="stroke: #000000; stroke-width: 0.8"/>
      </g>
     </g>
    </g>
   </g>
   <g id="matplotlib.axis_6">
    <g id="ytick_9">
     <g id="line2d_91">
      <g>
       <use xlink:href="#m9fcec8481d" x="54.15" y="446.865909" style="stroke: #000000; stroke-width: 0.8"/>
      </g>
     </g>
     <g id="text_13">
      <!-- 0 -->
      <g transform="translate(40.7875 450.665128) scale(0.1 -0.1)">
       <use xlink:href="#DejaVuSans-30"/>
      </g>
     </g>
    </g>
    <g id="ytick_10">
     <g id="line2d_92">
      <g>
       <use xlink:href="#m9fcec8481d" x="54.15" y="405.871418" style="stroke: #000000; stroke-width: 0.8"/>
      </g>
     </g>
     <g id="text_14">
      <!-- 1 -->
      <g transform="translate(40.7875 409.670637) scale(0.1 -0.1)">
       <use xlink:href="#DejaVuSans-31"/>
      </g>
     </g>
    </g>
    <g id="ytick_11">
     <g id="line2d_93">
      <g>
       <use xlink:href="#m9fcec8481d" x="54.15" y="364.876927" style="stroke: #000000; stroke-width: 0.8"/>
      </g>
     </g>
     <g id="text_15">
      <!-- 2 -->
      <g transform="translate(40.7875 368.676146) scale(0.1 -0.1)">
       <use xlink:href="#DejaVuSans-32"/>
      </g>
     </g>
    </g>
    <g id="ytick_12">
     <g id="line2d_94">
      <g>
       <use xlink:href="#m9fcec8481d" x="54.15" y="323.882436" style="stroke: #000000; stroke-width: 0.8"/>
      </g>
     </g>
     <g id="text_16">
      <!-- 3 -->
      <g transform="translate(40.7875 327.681655) scale(0.1 -0.1)">
       <use xlink:href="#DejaVuSans-33"/>
      </g>
     </g>
    </g>
    <g id="text_17">
     <!-- Voltage [V] -->
     <g transform="translate(34.707813 406.892187) rotate(-90) scale(0.1 -0.1)">
      <use xlink:href="#DejaVuSans-56"/>
      <use xlink:href="#DejaVuSans-6f" x="60.658203"/>
      <use xlink:href="#DejaVuSans-6c" x="121.839844"/>
      <use xlink:href="#DejaVuSans-74" x="149.623047"/>
      <use xlink:href="#DejaVuSans-61" x="188.832031"/>
      <use xlink:href="#DejaVuSans-67" x="250.111328"/>
      <use xlink:href="#DejaVuSans-65" x="313.587891"/>
      <use xlink:href="#DejaVuSans-20" x="375.111328"/>
      <use xlink:href="#DejaVuSans-5b" x="406.898438"/>
      <use xlink:href="#DejaVuSans-56" x="445.912109"/>
      <use xlink:href="#DejaVuSans-5d" x="514.320312"/>
     </g>
    </g>
   </g>
   <g id="line2d_95">
    <path d="M 54.15 446.865909 
L 372.839635 446.865909 
L 372.951927 433.570147 
L 373.286176 420.352188 
L 374.021486 401.803977 
L 374.802464 387.138035 
L 375.82442 372.182424 
L 377.202959 355.831915 
L 378.555765 342.241926 
L 379.219727 336.180694 
L 379.226463 336.994943 
L 379.431137 369.091025 
L 379.563887 367.437548 
L 380.764959 353.803382 
L 382.5987 336.180762 
L 382.600099 336.280436 
L 382.81011 369.091122 
L 382.944072 367.422702 
L 384.842187 343.062558 
L 385.218179 336.180586 
L 385.232051 337.832464 
L 385.444598 369.074966 
L 385.567187 366.040763 
L 386.546127 345.003634 
L 387.023799 336.180694 
L 387.035859 337.603854 
L 387.134966 350.553206 
L 387.22881 347.909859 
L 388.295258 321.015249 
L 388.808449 311.584091 
L 409.633217 311.694682 
L 410.355793 348.207316 
L 410.382363 349.873992 
L 410.425217 345.663701 
L 410.890617 311.584091 
L 735.099294 311.694985 
L 735.845928 329.537233 
L 735.881771 325.868854 
L 736.134473 311.584091 
L 758.34318 311.694682 
L 758.873292 358.331958 
L 758.964562 369.011817 
L 759.034687 363.954989 
L 759.523057 336.180576 
L 759.540503 337.717338 
L 759.654319 349.005009 
L 759.728393 344.923205 
L 760.294723 320.359589 
L 760.630284 311.584091 
L 782.150347 311.694907 
L 782.75427 369.120918 
L 784.518298 369.232027 
L 784.882042 369.254961 
L 786.643071 369.36607 
L 787.006927 369.389049 
L 788.764881 369.500158 
L 789.128863 369.523185 
L 790.88378 369.634294 
L 791.247886 369.65737 
L 792.999767 369.768479 
L 793.363998 369.791604 
L 795.112854 369.902713 
L 795.47721 369.925887 
L 797.223017 370.036996 
L 797.587486 370.060214 
L 799.330181 370.171323 
L 799.694774 370.19459 
L 801.434432 370.305699 
L 801.799151 370.329014 
L 803.535759 370.440123 
L 803.900615 370.463493 
L 805.634224 370.574602 
L 805.999205 370.59802 
L 807.729752 370.709129 
L 808.094858 370.732596 
L 809.822344 370.843705 
L 810.187575 370.867221 
L 811.911985 370.97833 
L 812.277341 371.001895 
L 813.99869 371.113004 
L 814.364171 371.136618 
L 816.082446 371.247727 
L 816.448064 371.271394 
L 818.163314 371.382503 
L 818.529057 371.406219 
L 820.241221 371.517329 
L 820.607089 371.541094 
L 822.316165 371.652203 
L 822.682171 371.676022 
L 824.388223 371.787131 
L 824.754353 371.810999 
L 826.457306 371.922108 
L 826.823574 371.946029 
L 828.52349 372.057138 
L 828.889895 372.081113 
L 830.586761 372.192223 
L 830.953292 372.216247 
L 832.647046 372.327356 
L 833.013714 372.351434 
L 834.704432 372.462543 
L 835.071237 372.486674 
L 836.75888 372.597784 
L 837.125811 372.621964 
L 838.810342 372.733073 
L 839.17741 372.757307 
L 840.858879 372.868417 
L 841.226084 372.892705 
L 842.904479 373.003814 
L 843.271822 373.028155 
L 844.947142 373.139264 
L 845.314622 373.16366 
L 846.986856 373.274769 
L 847.354474 373.299218 
L 849.023632 373.410328 
L 849.391388 373.434831 
L 851.05746 373.54594 
L 851.425365 373.570501 
L 853.088413 373.68161 
L 853.456455 373.706226 
L 855.116404 373.817335 
L 855.484584 373.842004 
L 857.14142 373.953113 
L 857.50975 373.977841 
L 859.16355 374.08895 
L 859.532017 374.113732 
L 861.182705 374.224841 
L 861.55131 374.249676 
L 863.198885 374.360785 
L 863.567641 374.385679 
L 865.212154 374.496788 
L 865.581059 374.521741 
L 867.222511 374.63285 
L 867.591554 374.657857 
L 869.229868 374.768966 
L 869.599061 374.794031 
L 871.234314 374.90514 
L 871.603656 374.930264 
L 873.235822 375.041373 
L 873.605302 375.06655 
L 875.234331 375.177659 
L 875.603961 375.202895 
L 877.229891 375.314004 
L 877.599671 375.339299 
L 879.222513 375.450408 
L 879.592443 375.475762 
L 881.212199 375.586871 
L 881.582279 375.612283 
L 883.198923 375.723392 
L 883.569165 375.748867 
L 885.18276 375.859976 
L 885.553152 375.885511 
L 887.163622 375.99662 
L 887.534164 376.022213 
L 889.141535 376.133322 
L 889.512227 376.158973 
L 891.116461 376.270082 
L 891.487303 376.295792 
L 893.088425 376.406901 
L 893.45943 376.432675 
L 895.057465 376.543784 
L 895.428619 376.569616 
L 897.023517 376.680726 
L 897.394835 376.706621 
L 898.986646 376.81773 
L 899.358125 376.84369 
L 900.946849 376.954799 
L 901.318479 376.980817 
L 902.904054 377.091926 
L 903.275846 377.118008 
L 1133.9455 377.175273 
L 1133.9455 377.175273 
" clip-path="url(#pc6318da4c9)" style="fill: none; stroke: #1f77b4; stroke-width: 1.5; stroke-linecap: square"/>
   </g>
   <g id="line2d_96">
    <path d="M 54.15 336.180784 
L 1133.9455 336.180784 
" clip-path="url(#pc6318da4c9)" style="fill: none; stroke-dasharray: 5.55,2.4; stroke-dashoffset: 0; stroke: #008000; stroke-width: 1.5"/>
   </g>
   <g id="line2d_97">
    <path d="M 54.15 368.976376 
L 1133.9455 368.976376 
" clip-path="url(#pc6318da4c9)" style="fill: none; stroke-dasharray: 5.55,2.4; stroke-dashoffset: 0; stroke: #ffa500; stroke-width: 1.5"/>
   </g>
   <g id="line2d_98">
    <path d="M 54.15 377.175274 
L 1133.9455 377.175274 
" clip-path="url(#pc6318da4c9)" style="fill: none; stroke-dasharray: 5.55,2.4; stroke-dashoffset: 0; stroke: #ff0000; stroke-width: 1.5"/>
   </g>
   <g id="patch_15">
    <path d="M 54.15 453.63 
L 54.15 304.82 
" style="fill: none; stroke: #000000; stroke-width: 0.8; stroke-linejoin: miter; stroke-linecap: square"/>
   </g>
   <g id="patch_16">
    <path d="M 1133.9455 453.63 
L 1133.9455 304.82 
" style="fill: none; stroke: #000000; stroke-width: 0.8; stroke-linejoin: miter; stroke-linecap: square"/>
   </g>
   <g id="patch_17">
    <path d="M 54.15 453.63 
L 1133.9455 453.63 
" style="fill: none; stroke: #000000; stroke-width: 0.8; stroke-linejoin: miter; stroke-linecap: square"/>
   </g>
   <g id="patch_18">
    <path d="M 54.15 304.82 
L 1133.9455 304.82 
" style="fill: none; stroke: #000000; stroke-width: 0.8; stroke-linejoin: miter; stroke-linecap: square"/>
   </g>
   <g id="legend_3">
    <g id="patch_19">
     <path d="M 1075.408 327.498125 
L 1126.9455 327.498125 
Q 1128.9455 327.498125 1128.9455 325.498125 
L 1128.9455 311.82 
Q 1128.9455 309.82 1126.9455 309.82 
L 1075.408 309.82 
Q 1073.408 309.82 1073.408 311.82 
L 1073.408 325.498125 
Q 1073.408 327.498125 1075.408 327.498125 
z
" style="fill: #ffffff; opacity: 0.8; stroke: #cccccc; stroke-linejoin: miter"/>
    </g>
    <g id="line2d_99">
     <path d="M 1077.408 317.918437 
L 1087.408 317.918437 
L 1097.408 317.918437 
" style="fill: none; stroke: #1f77b4; stroke-width: 1.5; stroke-linecap: square"/>
    </g>
    <g id="text_18">
     <!-- SVS -->
     <g transform="translate(1105.408 321.418437) scale(0.1 -0.1)">
      <defs>
       <path id="DejaVuSans-53" d="M 3425 4513 
L 3425 3897 
Q 3066 4069 2747 4153 
Q 2428 4238 2131 4238 
Q 1616 4238 1336 4038 
Q 1056 3838 1056 3469 
Q 1056 3159 1242 3001 
Q 1428 2844 1947 2747 
L 2328 2669 
Q 3034 2534 3370 2195 
Q 3706 1856 3706 1288 
Q 3706 609 3251 259 
Q 2797 -91 1919 -91 
Q 1588 -91 1214 -16 
Q 841 59 441 206 
L 441 856 
Q 825 641 1194 531 
Q 1563 422 1919 422 
Q 2459 422 2753 634 
Q 3047 847 3047 1241 
Q 3047 1584 2836 1778 
Q 2625 1972 2144 2069 
L 1759 2144 
Q 1053 2284 737 2584 
Q 422 2884 422 3419 
Q 422 4038 858 4394 
Q 1294 4750 2059 4750 
Q 2388 4750 2728 4690 
Q 3069 4631 3425 4513 
z
" transform="scale(0.015625)"/>
      </defs>
      <use xlink:href="#DejaVuSans-53"/>
      <use xlink:href="#DejaVuSans-56" x="63.476562"/>
      <use xlink:href="#DejaVuSans-53" x="131.884766"/>
     </g>
    </g>
   </g>
  </g>
  <g id="axes_4">
   <g id="patch_20">
    <path d="M 54.15 602.44 
L 1133.9455 602.44 
L 1133.9455 453.63 
L 54.15 453.63 
z
" style="fill: #ffffff"/>
   </g>
   <g id="matplotlib.axis_7">
    <g id="xtick_73">
     <g id="line2d_100">
      <g>
       <use xlink:href="#m2431d7a299" x="54.15" y="602.44" style="stroke: #000000; stroke-width: 0.8"/>
      </g>
     </g>
     <g id="text_19">
      <!-- 0 -->
      <g transform="translate(50.96875 617.038437) scale(0.1 -0.1)">
       <use xlink:href="#DejaVuSans-30"/>
      </g>
     </g>
    </g>
    <g id="xtick_74">
     <g id="line2d_101">
      <g>
       <use xlink:href="#m2431d7a299" x="99.141479" y="602.44" style="stroke: #000000; stroke-width: 0.8"/>
      </g>
     </g>
     <g id="text_20">
      <!-- 1 -->
      <g transform="translate(95.960229 617.038437) scale(0.1 -0.1)">
       <use xlink:href="#DejaVuSans-31"/>
      </g>
     </g>
    </g>
    <g id="xtick_75">
     <g id="line2d_102">
      <g>
       <use xlink:href="#m2431d7a299" x="144.132958" y="602.44" style="stroke: #000000; stroke-width: 0.8"/>
      </g>
     </g>
     <g id="text_21">
      <!-- 2 -->
      <g transform="translate(140.951708 617.038437) scale(0.1 -0.1)">
       <use xlink:href="#DejaVuSans-32"/>
      </g>
     </g>
    </g>
    <g id="xtick_76">
     <g id="line2d_103">
      <g>
       <use xlink:href="#m2431d7a299" x="189.124437" y="602.44" style="stroke: #000000; stroke-width: 0.8"/>
      </g>
     </g>
     <g id="text_22">
      <!-- 3 -->
      <g transform="translate(185.943187 617.038437) scale(0.1 -0.1)">
       <use xlink:href="#DejaVuSans-33"/>
      </g>
     </g>
    </g>
    <g id="xtick_77">
     <g id="line2d_104">
      <g>
       <use xlink:href="#m2431d7a299" x="234.115917" y="602.44" style="stroke: #000000; stroke-width: 0.8"/>
      </g>
     </g>
     <g id="text_23">
      <!-- 4 -->
      <g transform="translate(230.934667 617.038437) scale(0.1 -0.1)">
       <defs>
        <path id="DejaVuSans-34" d="M 2419 4116 
L 825 1625 
L 2419 1625 
L 2419 4116 
z
M 2253 4666 
L 3047 4666 
L 3047 1625 
L 3713 1625 
L 3713 1100 
L 3047 1100 
L 3047 0 
L 2419 0 
L 2419 1100 
L 313 1100 
L 313 1709 
L 2253 4666 
z
" transform="scale(0.015625)"/>
       </defs>
       <use xlink:href="#DejaVuSans-34"/>
      </g>
     </g>
    </g>
    <g id="xtick_78">
     <g id="line2d_105">
      <g>
       <use xlink:href="#m2431d7a299" x="279.107396" y="602.44" style="stroke: #000000; stroke-width: 0.8"/>
      </g>
     </g>
     <g id="text_24">
      <!-- 5 -->
      <g transform="translate(275.926146 617.038437) scale(0.1 -0.1)">
       <defs>
        <path id="DejaVuSans-35" d="M 691 4666 
L 3169 4666 
L 3169 4134 
L 1269 4134 
L 1269 2991 
Q 1406 3038 1543 3061 
Q 1681 3084 1819 3084 
Q 2600 3084 3056 2656 
Q 3513 2228 3513 1497 
Q 3513 744 3044 326 
Q 2575 -91 1722 -91 
Q 1428 -91 1123 -41 
Q 819 9 494 109 
L 494 744 
Q 775 591 1075 516 
Q 1375 441 1709 441 
Q 2250 441 2565 725 
Q 2881 1009 2881 1497 
Q 2881 1984 2565 2268 
Q 2250 2553 1709 2553 
Q 1456 2553 1204 2497 
Q 953 2441 691 2322 
L 691 4666 
z
" transform="scale(0.015625)"/>
       </defs>
       <use xlink:href="#DejaVuSans-35"/>
      </g>
     </g>
    </g>
    <g id="xtick_79">
     <g id="line2d_106">
      <g>
       <use xlink:href="#m2431d7a299" x="324.098875" y="602.44" style="stroke: #000000; stroke-width: 0.8"/>
      </g>
     </g>
     <g id="text_25">
      <!-- 6 -->
      <g transform="translate(320.917625 617.038437) scale(0.1 -0.1)">
       <defs>
        <path id="DejaVuSans-36" d="M 2113 2584 
Q 1688 2584 1439 2293 
Q 1191 2003 1191 1497 
Q 1191 994 1439 701 
Q 1688 409 2113 409 
Q 2538 409 2786 701 
Q 3034 994 3034 1497 
Q 3034 2003 2786 2293 
Q 2538 2584 2113 2584 
z
M 3366 4563 
L 3366 3988 
Q 3128 4100 2886 4159 
Q 2644 4219 2406 4219 
Q 1781 4219 1451 3797 
Q 1122 3375 1075 2522 
Q 1259 2794 1537 2939 
Q 1816 3084 2150 3084 
Q 2853 3084 3261 2657 
Q 3669 2231 3669 1497 
Q 3669 778 3244 343 
Q 2819 -91 2113 -91 
Q 1303 -91 875 529 
Q 447 1150 447 2328 
Q 447 3434 972 4092 
Q 1497 4750 2381 4750 
Q 2619 4750 2861 4703 
Q 3103 4656 3366 4563 
z
" transform="scale(0.015625)"/>
       </defs>
       <use xlink:href="#DejaVuSans-36"/>
      </g>
     </g>
    </g>
    <g id="xtick_80">
     <g id="line2d_107">
      <g>
       <use xlink:href="#m2431d7a299" x="369.090354" y="602.44" style="stroke: #000000; stroke-width: 0.8"/>
      </g>
     </g>
     <g id="text_26">
      <!-- 7 -->
      <g transform="translate(365.909104 617.038437) scale(0.1 -0.1)">
       <defs>
        <path id="DejaVuSans-37" d="M 525 4666 
L 3525 4666 
L 3525 4397 
L 1831 0 
L 1172 0 
L 2766 4134 
L 525 4134 
L 525 4666 
z
" transform="scale(0.015625)"/>
       </defs>
       <use xlink:href="#DejaVuSans-37"/>
      </g>
     </g>
    </g>
    <g id="xtick_81">
     <g id="line2d_108">
      <g>
       <use xlink:href="#m2431d7a299" x="414.081833" y="602.44" style="stroke: #000000; stroke-width: 0.8"/>
      </g>
     </g>
     <g id="text_27">
      <!-- 8 -->
      <g transform="translate(410.900583 617.038437) scale(0.1 -0.1)">
       <defs>
        <path id="DejaVuSans-38" d="M 2034 2216 
Q 1584 2216 1326 1975 
Q 1069 1734 1069 1313 
Q 1069 891 1326 650 
Q 1584 409 2034 409 
Q 2484 409 2743 651 
Q 3003 894 3003 1313 
Q 3003 1734 2745 1975 
Q 2488 2216 2034 2216 
z
M 1403 2484 
Q 997 2584 770 2862 
Q 544 3141 544 3541 
Q 544 4100 942 4425 
Q 1341 4750 2034 4750 
Q 2731 4750 3128 4425 
Q 3525 4100 3525 3541 
Q 3525 3141 3298 2862 
Q 3072 2584 2669 2484 
Q 3125 2378 3379 2068 
Q 3634 1759 3634 1313 
Q 3634 634 3220 271 
Q 2806 -91 2034 -91 
Q 1263 -91 848 271 
Q 434 634 434 1313 
Q 434 1759 690 2068 
Q 947 2378 1403 2484 
z
M 1172 3481 
Q 1172 3119 1398 2916 
Q 1625 2713 2034 2713 
Q 2441 2713 2670 2916 
Q 2900 3119 2900 3481 
Q 2900 3844 2670 4047 
Q 2441 4250 2034 4250 
Q 1625 4250 1398 4047 
Q 1172 3844 1172 3481 
z
" transform="scale(0.015625)"/>
       </defs>
       <use xlink:href="#DejaVuSans-38"/>
      </g>
     </g>
    </g>
    <g id="xtick_82">
     <g id="line2d_109">
      <g>
       <use xlink:href="#m2431d7a299" x="459.073312" y="602.44" style="stroke: #000000; stroke-width: 0.8"/>
      </g>
     </g>
     <g id="text_28">
      <!-- 9 -->
      <g transform="translate(455.892062 617.038437) scale(0.1 -0.1)">
       <defs>
        <path id="DejaVuSans-39" d="M 703 97 
L 703 672 
Q 941 559 1184 500 
Q 1428 441 1663 441 
Q 2288 441 2617 861 
Q 2947 1281 2994 2138 
Q 2813 1869 2534 1725 
Q 2256 1581 1919 1581 
Q 1219 1581 811 2004 
Q 403 2428 403 3163 
Q 403 3881 828 4315 
Q 1253 4750 1959 4750 
Q 2769 4750 3195 4129 
Q 3622 3509 3622 2328 
Q 3622 1225 3098 567 
Q 2575 -91 1691 -91 
Q 1453 -91 1209 -44 
Q 966 3 703 97 
z
M 1959 2075 
Q 2384 2075 2632 2365 
Q 2881 2656 2881 3163 
Q 2881 3666 2632 3958 
Q 2384 4250 1959 4250 
Q 1534 4250 1286 3958 
Q 1038 3666 1038 3163 
Q 1038 2656 1286 2365 
Q 1534 2075 1959 2075 
z
" transform="scale(0.015625)"/>
       </defs>
       <use xlink:href="#DejaVuSans-39"/>
      </g>
     </g>
    </g>
    <g id="xtick_83">
     <g id="line2d_110">
      <g>
       <use xlink:href="#m2431d7a299" x="504.064792" y="602.44" style="stroke: #000000; stroke-width: 0.8"/>
      </g>
     </g>
     <g id="text_29">
      <!-- 10 -->
      <g transform="translate(497.702292 617.038437) scale(0.1 -0.1)">
       <use xlink:href="#DejaVuSans-31"/>
       <use xlink:href="#DejaVuSans-30" x="63.623047"/>
      </g>
     </g>
    </g>
    <g id="xtick_84">
     <g id="line2d_111">
      <g>
       <use xlink:href="#m2431d7a299" x="549.056271" y="602.44" style="stroke: #000000; stroke-width: 0.8"/>
      </g>
     </g>
     <g id="text_30">
      <!-- 11 -->
      <g transform="translate(542.693771 617.038437) scale(0.1 -0.1)">
       <use xlink:href="#DejaVuSans-31"/>
       <use xlink:href="#DejaVuSans-31" x="63.623047"/>
      </g>
     </g>
    </g>
    <g id="xtick_85">
     <g id="line2d_112">
      <g>
       <use xlink:href="#m2431d7a299" x="594.04775" y="602.44" style="stroke: #000000; stroke-width: 0.8"/>
      </g>
     </g>
     <g id="text_31">
      <!-- 12 -->
      <g transform="translate(587.68525 617.038437) scale(0.1 -0.1)">
       <use xlink:href="#DejaVuSans-31"/>
       <use xlink:href="#DejaVuSans-32" x="63.623047"/>
      </g>
     </g>
    </g>
    <g id="xtick_86">
     <g id="line2d_113">
      <g>
       <use xlink:href="#m2431d7a299" x="639.039229" y="602.44" style="stroke: #000000; stroke-width: 0.8"/>
      </g>
     </g>
     <g id="text_32">
      <!-- 13 -->
      <g transform="translate(632.676729 617.038437) scale(0.1 -0.1)">
       <use xlink:href="#DejaVuSans-31"/>
       <use xlink:href="#DejaVuSans-33" x="63.623047"/>
      </g>
     </g>
    </g>
    <g id="xtick_87">
     <g id="line2d_114">
      <g>
       <use xlink:href="#m2431d7a299" x="684.030708" y="602.44" style="stroke: #000000; stroke-width: 0.8"/>
      </g>
     </g>
     <g id="text_33">
      <!-- 14 -->
      <g transform="translate(677.668208 617.038437) scale(0.1 -0.1)">
       <use xlink:href="#DejaVuSans-31"/>
       <use xlink:href="#DejaVuSans-34" x="63.623047"/>
      </g>
     </g>
    </g>
    <g id="xtick_88">
     <g id="line2d_115">
      <g>
       <use xlink:href="#m2431d7a299" x="729.022187" y="602.44" style="stroke: #000000; stroke-width: 0.8"/>
      </g>
     </g>
     <g id="text_34">
      <!-- 15 -->
      <g transform="translate(722.659688 617.038437) scale(0.1 -0.1)">
       <use xlink:href="#DejaVuSans-31"/>
       <use xlink:href="#DejaVuSans-35" x="63.623047"/>
      </g>
     </g>
    </g>
    <g id="xtick_89">
     <g id="line2d_116">
      <g>
       <use xlink:href="#m2431d7a299" x="774.013667" y="602.44" style="stroke: #000000; stroke-width: 0.8"/>
      </g>
     </g>
     <g id="text_35">
      <!-- 16 -->
      <g transform="translate(767.651167 617.038437) scale(0.1 -0.1)">
       <use xlink:href="#DejaVuSans-31"/>
       <use xlink:href="#DejaVuSans-36" x="63.623047"/>
      </g>
     </g>
    </g>
    <g id="xtick_90">
     <g id="line2d_117">
      <g>
       <use xlink:href="#m2431d7a299" x="819.005146" y="602.44" style="stroke: #000000; stroke-width: 0.8"/>
      </g>
     </g>
     <g id="text_36">
      <!-- 17 -->
      <g transform="translate(812.642646 617.038437) scale(0.1 -0.1)">
       <use xlink:href="#DejaVuSans-31"/>
       <use xlink:href="#DejaVuSans-37" x="63.623047"/>
      </g>
     </g>
    </g>
    <g id="xtick_91">
     <g id="line2d_118">
      <g>
       <use xlink:href="#m2431d7a299" x="863.996625" y="602.44" style="stroke: #000000; stroke-width: 0.8"/>
      </g>
     </g>
     <g id="text_37">
      <!-- 18 -->
      <g transform="translate(857.634125 617.038437) scale(0.1 -0.1)">
       <use xlink:href="#DejaVuSans-31"/>
       <use xlink:href="#DejaVuSans-38" x="63.623047"/>
      </g>
     </g>
    </g>
    <g id="xtick_92">
     <g id="line2d_119">
      <g>
       <use xlink:href="#m2431d7a299" x="908.988104" y="602.44" style="stroke: #000000; stroke-width: 0.8"/>
      </g>
     </g>
     <g id="text_38">
      <!-- 19 -->
      <g transform="translate(902.625604 617.038437) scale(0.1 -0.1)">
       <use xlink:href="#DejaVuSans-31"/>
       <use xlink:href="#DejaVuSans-39" x="63.623047"/>
      </g>
     </g>
    </g>
    <g id="xtick_93">
     <g id="line2d_120">
      <g>
       <use xlink:href="#m2431d7a299" x="953.979583" y="602.44" style="stroke: #000000; stroke-width: 0.8"/>
      </g>
     </g>
     <g id="text_39">
      <!-- 20 -->
      <g transform="translate(947.617083 617.038437) scale(0.1 -0.1)">
       <use xlink:href="#DejaVuSans-32"/>
       <use xlink:href="#DejaVuSans-30" x="63.623047"/>
      </g>
     </g>
    </g>
    <g id="xtick_94">
     <g id="line2d_121">
      <g>
       <use xlink:href="#m2431d7a299" x="998.971062" y="602.44" style="stroke: #000000; stroke-width: 0.8"/>
      </g>
     </g>
     <g id="text_40">
      <!-- 21 -->
      <g transform="translate(992.608562 617.038437) scale(0.1 -0.1)">
       <use xlink:href="#DejaVuSans-32"/>
       <use xlink:href="#DejaVuSans-31" x="63.623047"/>
      </g>
     </g>
    </g>
    <g id="xtick_95">
     <g id="line2d_122">
      <g>
       <use xlink:href="#m2431d7a299" x="1043.962542" y="602.44" style="stroke: #000000; stroke-width: 0.8"/>
      </g>
     </g>
     <g id="text_41">
      <!-- 22 -->
      <g transform="translate(1037.600042 617.038437) scale(0.1 -0.1)">
       <use xlink:href="#DejaVuSans-32"/>
       <use xlink:href="#DejaVuSans-32" x="63.623047"/>
      </g>
     </g>
    </g>
    <g id="xtick_96">
     <g id="line2d_123">
      <g>
       <use xlink:href="#m2431d7a299" x="1088.954021" y="602.44" style="stroke: #000000; stroke-width: 0.8"/>
      </g>
     </g>
     <g id="text_42">
      <!-- 23 -->
      <g transform="translate(1082.591521 617.038437) scale(0.1 -0.1)">
       <use xlink:href="#DejaVuSans-32"/>
       <use xlink:href="#DejaVuSans-33" x="63.623047"/>
      </g>
     </g>
    </g>
    <g id="text_43">
     <!-- Time of day -->
     <g transform="translate(564.618844 630.716562) scale(0.1 -0.1)">
      <defs>
       <path id="DejaVuSans-54" d="M -19 4666 
L 3928 4666 
L 3928 4134 
L 2272 4134 
L 2272 0 
L 1638 0 
L 1638 4134 
L -19 4134 
L -19 4666 
z
" transform="scale(0.015625)"/>
       <path id="DejaVuSans-69" d="M 603 3500 
L 1178 3500 
L 1178 0 
L 603 0 
L 603 3500 
z
M 603 4863 
L 1178 4863 
L 1178 4134 
L 603 4134 
L 603 4863 
z
" transform="scale(0.015625)"/>
       <path id="DejaVuSans-6d" d="M 3328 2828 
Q 3544 3216 3844 3400 
Q 4144 3584 4550 3584 
Q 5097 3584 5394 3201 
Q 5691 2819 5691 2113 
L 5691 0 
L 5113 0 
L 5113 2094 
Q 5113 2597 4934 2840 
Q 4756 3084 4391 3084 
Q 3944 3084 3684 2787 
Q 3425 2491 3425 1978 
L 3425 0 
L 2847 0 
L 2847 2094 
Q 2847 2600 2669 2842 
Q 2491 3084 2119 3084 
Q 1678 3084 1418 2786 
Q 1159 2488 1159 1978 
L 1159 0 
L 581 0 
L 581 3500 
L 1159 3500 
L 1159 2956 
Q 1356 3278 1631 3431 
Q 1906 3584 2284 3584 
Q 2666 3584 2933 3390 
Q 3200 3197 3328 2828 
z
" transform="scale(0.015625)"/>
       <path id="DejaVuSans-66" d="M 2375 4863 
L 2375 4384 
L 1825 4384 
Q 1516 4384 1395 4259 
Q 1275 4134 1275 3809 
L 1275 3500 
L 2222 3500 
L 2222 3053 
L 1275 3053 
L 1275 0 
L 697 0 
L 697 3053 
L 147 3053 
L 147 3500 
L 697 3500 
L 697 3744 
Q 697 4328 969 4595 
Q 1241 4863 1831 4863 
L 2375 4863 
z
" transform="scale(0.015625)"/>
       <path id="DejaVuSans-64" d="M 2906 2969 
L 2906 4863 
L 3481 4863 
L 3481 0 
L 2906 0 
L 2906 525 
Q 2725 213 2448 61 
Q 2172 -91 1784 -91 
Q 1150 -91 751 415 
Q 353 922 353 1747 
Q 353 2572 751 3078 
Q 1150 3584 1784 3584 
Q 2172 3584 2448 3432 
Q 2725 3281 2906 2969 
z
M 947 1747 
Q 947 1113 1208 752 
Q 1469 391 1925 391 
Q 2381 391 2643 752 
Q 2906 1113 2906 1747 
Q 2906 2381 2643 2742 
Q 2381 3103 1925 3103 
Q 1469 3103 1208 2742 
Q 947 2381 947 1747 
z
" transform="scale(0.015625)"/>
       <path id="DejaVuSans-79" d="M 2059 -325 
Q 1816 -950 1584 -1140 
Q 1353 -1331 966 -1331 
L 506 -1331 
L 506 -850 
L 844 -850 
Q 1081 -850 1212 -737 
Q 1344 -625 1503 -206 
L 1606 56 
L 191 3500 
L 800 3500 
L 1894 763 
L 2988 3500 
L 3597 3500 
L 2059 -325 
z
" transform="scale(0.015625)"/>
      </defs>
      <use xlink:href="#DejaVuSans-54"/>
      <use xlink:href="#DejaVuSans-69" x="57.958984"/>
      <use xlink:href="#DejaVuSans-6d" x="85.742188"/>
      <use xlink:href="#DejaVuSans-65" x="183.154297"/>
      <use xlink:href="#DejaVuSans-20" x="244.677734"/>
      <use xlink:href="#DejaVuSans-6f" x="276.464844"/>
      <use xlink:href="#DejaVuSans-66" x="337.646484"/>
      <use xlink:href="#DejaVuSans-20" x="372.851562"/>
      <use xlink:href="#DejaVuSans-64" x="404.638672"/>
      <use xlink:href="#DejaVuSans-61" x="468.115234"/>
      <use xlink:href="#DejaVuSans-79" x="529.394531"/>
     </g>
    </g>
   </g>
   <g id="matplotlib.axis_8">
    <g id="ytick_13">
     <g id="line2d_124">
      <g>
       <use xlink:href="#m9fcec8481d" x="54.15" y="601.304046" style="stroke: #000000; stroke-width: 0.8"/>
      </g>
     </g>
     <g id="text_44">
      <!-- 0 -->
      <g transform="translate(40.7875 605.103265) scale(0.1 -0.1)">
       <use xlink:href="#DejaVuSans-30"/>
      </g>
     </g>
    </g>
    <g id="ytick_14">
     <g id="line2d_125">
      <g>
       <use xlink:href="#m9fcec8481d" x="54.15" y="578.584962" style="stroke: #000000; stroke-width: 0.8"/>
      </g>
     </g>
     <g id="text_45">
      <!-- 200 -->
      <g transform="translate(28.0625 582.384181) scale(0.1 -0.1)">
       <use xlink:href="#DejaVuSans-32"/>
       <use xlink:href="#DejaVuSans-30" x="63.623047"/>
       <use xlink:href="#DejaVuSans-30" x="127.246094"/>
      </g>
     </g>
    </g>
    <g id="ytick_15">
     <g id="line2d_126">
      <g>
       <use xlink:href="#m9fcec8481d" x="54.15" y="555.865878" style="stroke: #000000; stroke-width: 0.8"/>
      </g>
     </g>
     <g id="text_46">
      <!-- 400 -->
      <g transform="translate(28.0625 559.665097) scale(0.1 -0.1)">
       <use xlink:href="#DejaVuSans-34"/>
       <use xlink:href="#DejaVuSans-30" x="63.623047"/>
       <use xlink:href="#DejaVuSans-30" x="127.246094"/>
      </g>
     </g>
    </g>
    <g id="ytick_16">
     <g id="line2d_127">
      <g>
       <use xlink:href="#m9fcec8481d" x="54.15" y="533.146794" style="stroke: #000000; stroke-width: 0.8"/>
      </g>
     </g>
     <g id="text_47">
      <!-- 600 -->
      <g transform="translate(28.0625 536.946013) scale(0.1 -0.1)">
       <use xlink:href="#DejaVuSans-36"/>
       <use xlink:href="#DejaVuSans-30" x="63.623047"/>
       <use xlink:href="#DejaVuSans-30" x="127.246094"/>
      </g>
     </g>
    </g>
    <g id="ytick_17">
     <g id="line2d_128">
      <g>
       <use xlink:href="#m9fcec8481d" x="54.15" y="510.42771" style="stroke: #000000; stroke-width: 0.8"/>
      </g>
     </g>
     <g id="text_48">
      <!-- 800 -->
      <g transform="translate(28.0625 514.226929) scale(0.1 -0.1)">
       <use xlink:href="#DejaVuSans-38"/>
       <use xlink:href="#DejaVuSans-30" x="63.623047"/>
       <use xlink:href="#DejaVuSans-30" x="127.246094"/>
      </g>
     </g>
    </g>
    <g id="ytick_18">
     <g id="line2d_129">
      <g>
       <use xlink:href="#m9fcec8481d" x="54.15" y="487.708626" style="stroke: #000000; stroke-width: 0.8"/>
      </g>
     </g>
     <g id="text_49">
      <!-- 1000 -->
      <g transform="translate(21.7 491.507845) scale(0.1 -0.1)">
       <use xlink:href="#DejaVuSans-31"/>
       <use xlink:href="#DejaVuSans-30" x="63.623047"/>
       <use xlink:href="#DejaVuSans-30" x="127.246094"/>
       <use xlink:href="#DejaVuSans-30" x="190.869141"/>
      </g>
     </g>
    </g>
    <g id="ytick_19">
     <g id="line2d_130">
      <g>
       <use xlink:href="#m9fcec8481d" x="54.15" y="464.989542" style="stroke: #000000; stroke-width: 0.8"/>
      </g>
     </g>
     <g id="text_50">
      <!-- 1200 -->
      <g transform="translate(21.7 468.788761) scale(0.1 -0.1)">
       <use xlink:href="#DejaVuSans-31"/>
       <use xlink:href="#DejaVuSans-32" x="63.623047"/>
       <use xlink:href="#DejaVuSans-30" x="127.246094"/>
       <use xlink:href="#DejaVuSans-30" x="190.869141"/>
      </g>
     </g>
    </g>
    <g id="text_51">
     <!-- Solar irradiance [W/m$^2$] -->
     <g transform="translate(15.620312 586.985) rotate(-90) scale(0.1 -0.1)">
      <defs>
       <path id="DejaVuSans-63" d="M 3122 3366 
L 3122 2828 
Q 2878 2963 2633 3030 
Q 2388 3097 2138 3097 
Q 1578 3097 1268 2742 
Q 959 2388 959 1747 
Q 959 1106 1268 751 
Q 1578 397 2138 397 
Q 2388 397 2633 464 
Q 2878 531 3122 666 
L 3122 134 
Q 2881 22 2623 -34 
Q 2366 -91 2075 -91 
Q 1284 -91 818 406 
Q 353 903 353 1747 
Q 353 2603 823 3093 
Q 1294 3584 2113 3584 
Q 2378 3584 2631 3529 
Q 2884 3475 3122 3366 
z
" transform="scale(0.015625)"/>
       <path id="DejaVuSans-57" d="M 213 4666 
L 850 4666 
L 1831 722 
L 2809 4666 
L 3519 4666 
L 4500 722 
L 5478 4666 
L 6119 4666 
L 4947 0 
L 4153 0 
L 3169 4050 
L 2175 0 
L 1381 0 
L 213 4666 
z
" transform="scale(0.015625)"/>
       <path id="DejaVuSans-2f" d="M 1625 4666 
L 2156 4666 
L 531 -594 
L 0 -594 
L 1625 4666 
z
" transform="scale(0.015625)"/>
      </defs>
      <use xlink:href="#DejaVuSans-53" transform="translate(0 0.765625)"/>
      <use xlink:href="#DejaVuSans-6f" transform="translate(63.476562 0.765625)"/>
      <use xlink:href="#DejaVuSans-6c" transform="translate(124.658203 0.765625)"/>
      <use xlink:href="#DejaVuSans-61" transform="translate(152.441406 0.765625)"/>
      <use xlink:href="#DejaVuSans-72" transform="translate(213.720703 0.765625)"/>
      <use xlink:href="#DejaVuSans-20" transform="translate(254.833984 0.765625)"/>
      <use xlink:href="#DejaVuSans-69" transform="translate(286.621094 0.765625)"/>
      <use xlink:href="#DejaVuSans-72" transform="translate(314.404297 0.765625)"/>
      <use xlink:href="#DejaVuSans-72" transform="translate(355.517578 0.765625)"/>
      <use xlink:href="#DejaVuSans-61" transform="translate(396.630859 0.765625)"/>
      <use xlink:href="#DejaVuSans-64" transform="translate(457.910156 0.765625)"/>
      <use xlink:href="#DejaVuSans-69" transform="translate(521.386719 0.765625)"/>
      <use xlink:href="#DejaVuSans-61" transform="translate(549.169922 0.765625)"/>
      <use xlink:href="#DejaVuSans-6e" transform="translate(610.449219 0.765625)"/>
      <use xlink:href="#DejaVuSans-63" transform="translate(673.828125 0.765625)"/>
      <use xlink:href="#DejaVuSans-65" transform="translate(728.808594 0.765625)"/>
      <use xlink:href="#DejaVuSans-20" transform="translate(790.332031 0.765625)"/>
      <use xlink:href="#DejaVuSans-5b" transform="translate(822.119141 0.765625)"/>
      <use xlink:href="#DejaVuSans-57" transform="translate(861.132812 0.765625)"/>
      <use xlink:href="#DejaVuSans-2f" transform="translate(960.009766 0.765625)"/>
      <use xlink:href="#DejaVuSans-6d" transform="translate(993.701172 0.765625)"/>
      <use xlink:href="#DejaVuSans-32" transform="translate(1092.070312 39.046875) scale(0.7)"/>
      <use xlink:href="#DejaVuSans-5d" transform="translate(1139.34082 0.765625)"/>
     </g>
    </g>
   </g>
   <g id="line2d_131">
    <path d="M 54.15 601.304046 
L 373.589493 601.213169 
L 373.70061 601.19045 
L 384.837363 601.133653 
L 384.94848 601.076855 
L 387.836795 600.985979 
L 387.947912 600.96326 
L 389.336511 600.872383 
L 389.447628 600.849664 
L 390.836227 600.770147 
L 390.947344 600.736069 
L 392.335943 600.645192 
L 392.44706 600.622473 
L 393.835659 600.542957 
L 393.946776 600.508878 
L 396.835091 600.418002 
L 396.946208 600.395282 
L 397.584949 600.395282 
L 397.696066 600.281687 
L 403.583813 600.304406 
L 403.69493 600.395282 
L 407.333103 600.372563 
L 407.44422 600.281687 
L 409.582677 600.258968 
L 409.693793 600.168092 
L 413.331967 600.099934 
L 413.443083 600.054496 
L 417.081257 599.997698 
L 417.192373 599.940901 
L 417.831115 599.940901 
L 417.942231 599.827305 
L 420.080689 599.759148 
L 420.191805 599.645553 
L 421.580405 599.566036 
L 421.691521 599.486519 
L 423.080121 599.384283 
L 423.191237 599.372924 
L 424.579837 599.441081 
L 424.690953 599.543317 
L 428.329127 599.486519 
L 428.440243 599.418362 
L 431.328559 599.316126 
L 431.439675 599.191171 
L 432.078417 599.191171 
L 432.189533 599.066216 
L 435.077849 599.054857 
L 435.188965 599.22525 
L 435.827707 599.22525 
L 435.938823 599.361564 
L 437.327423 599.441081 
L 437.438539 599.543317 
L 438.827139 599.645553 
L 438.938255 599.71371 
L 440.326855 599.668272 
L 440.437971 599.600115 
L 441.826571 599.543317 
L 441.937687 599.486519 
L 443.326287 599.486519 
L 443.437403 599.793227 
L 444.076145 599.793227 
L 444.187261 600.315766 
L 445.575861 600.258968 
L 445.686977 600.077215 
L 447.075577 600.020418 
L 447.186693 600.236249 
L 447.825435 600.236249 
L 447.936551 599.384283 
L 448.575293 599.384283 
L 448.686409 598.259689 
L 450.824867 598.282408 
L 450.935983 598.532318 
L 451.574725 598.532318 
L 451.685841 598.748149 
L 452.324583 598.748149 
L 452.435699 598.895823 
L 453.824299 598.97534 
L 453.935415 599.032137 
L 457.573589 598.952621 
L 457.684705 598.839025 
L 458.323447 598.839025 
L 458.434563 598.691351 
L 459.823163 598.623194 
L 459.934279 598.532318 
L 462.822595 598.589115 
L 462.933711 598.691351 
L 466.571885 598.71407 
L 466.683001 598.804947 
L 471.071033 598.702711 
L 471.182149 598.623194 
L 472.570749 598.532318 
L 472.681865 598.46416 
L 476.320039 598.543677 
L 476.431155 598.702711 
L 478.569613 598.804947 
L 478.680729 598.816306 
L 482.318903 598.804947 
L 482.430019 598.691351 
L 485.318335 598.759508 
L 485.429451 599.066216 
L 486.068193 599.066216 
L 486.179309 599.361564 
L 486.81805 599.361564 
L 486.929167 599.486519 
L 489.067624 599.577395 
L 489.178741 599.600115 
L 490.56734 599.509238 
L 490.678457 599.486519 
L 492.067056 599.475159 
L 492.178173 599.372924 
L 494.31663 599.304766 
L 494.427747 599.236609 
L 495.816346 599.145733 
L 495.927463 599.054857 
L 498.06592 598.986699 
L 498.177037 598.895823 
L 501.81521 598.793587 
L 501.926327 598.691351 
L 502.565068 598.691351 
L 502.676185 598.543677 
L 504.814642 598.645913 
L 504.925759 598.861744 
L 507.814074 598.793587 
L 507.925191 598.691351 
L 512.313222 598.702711 
L 512.424339 598.804947 
L 514.562796 598.702711 
L 514.673913 598.532318 
L 515.312654 598.532318 
L 515.423771 598.316486 
L 516.062512 598.316486 
L 516.173629 598.157453 
L 519.811802 598.259689 
L 519.922919 598.373284 
L 528.06024 598.384643 
L 528.171357 598.180172 
L 528.810098 598.180172 
L 528.921215 597.918902 
L 529.559956 597.918902 
L 529.671073 597.600835 
L 530.309814 597.600835 
L 530.420931 597.271408 
L 531.059672 597.271408 
L 531.170789 597.078296 
L 534.059104 597.169172 
L 534.170221 597.214611 
L 536.308678 597.22597 
L 536.419795 597.441802 
L 537.058536 597.441802 
L 537.169653 597.72579 
L 537.808394 597.72579 
L 537.919511 597.896183 
L 540.807826 597.964341 
L 540.918943 598.009779 
L 542.307542 598.112014 
L 542.418659 598.236969 
L 543.807258 598.236969 
L 543.918375 598.112014 
L 544.557116 598.112014 
L 544.668233 597.918902 
L 545.306974 597.918902 
L 545.418091 597.782588 
L 552.805554 597.72579 
L 552.91667 597.578116 
L 554.30527 597.634914 
L 554.416386 597.759869 
L 555.804986 597.839385 
L 555.916102 597.918902 
L 556.554844 597.918902 
L 556.66596 598.032498 
L 561.80385 597.9757 
L 561.914966 597.771228 
L 564.053424 597.782588 
L 564.16454 597.907543 
L 565.55314 598.009779 
L 565.664256 598.077936 
L 566.302998 598.077936 
L 566.414114 598.191531 
L 567.052856 598.191531 
L 567.163972 598.373284 
L 567.802714 598.373284 
L 567.91383 598.543677 
L 568.552572 598.543677 
L 568.663688 598.668632 
L 569.30243 598.668632 
L 569.413546 598.839025 
L 570.052288 598.839025 
L 570.163404 599.111654 
L 570.802146 599.111654 
L 570.913262 599.259328 
L 572.301862 599.22525 
L 572.412978 599.077576 
L 573.05172 599.077576 
L 573.162836 598.96398 
L 573.801578 598.96398 
L 573.912694 599.100295 
L 574.551436 599.100295 
L 574.662552 599.327486 
L 575.301294 599.327486 
L 575.41241 599.475159 
L 576.051152 599.475159 
L 576.162268 599.588755 
L 578.300726 599.543317 
L 578.411842 599.429721 
L 579.050584 599.429721 
L 579.1617 599.270688 
L 582.050016 599.259328 
L 582.161132 599.111654 
L 582.799874 599.111654 
L 582.91099 598.952621 
L 583.549732 598.952621 
L 583.660848 598.839025 
L 585.049448 598.770868 
L 585.160564 598.611834 
L 585.799306 598.611834 
L 585.910422 598.373284 
L 586.549164 598.373284 
L 586.66028 598.043857 
L 587.299022 598.043857 
L 587.410138 597.657633 
L 588.04888 597.657633 
L 588.159996 597.316847 
L 588.798738 597.316847 
L 588.909854 597.055577 
L 589.548596 597.055577 
L 589.659712 596.839746 
L 590.298454 596.839746 
L 590.40957 596.692072 
L 591.79817 596.589836 
L 591.909286 596.4876 
L 592.548028 596.4876 
L 592.659144 596.351286 
L 593.297886 596.351286 
L 593.409002 596.124095 
L 594.047744 596.124095 
L 594.15886 595.840106 
L 594.797602 595.840106 
L 594.908718 595.431163 
L 595.54746 595.431163 
L 595.658576 594.942702 
L 596.297318 594.942702 
L 596.408434 594.306568 
L 597.047176 594.306568 
L 597.158292 593.568198 
L 597.797034 593.568198 
L 597.90815 592.852546 
L 598.546892 592.852546 
L 598.658008 592.261851 
L 599.29675 592.261851 
L 599.407866 591.79611 
L 600.796466 591.739312 
L 600.907582 592.53448 
L 601.546324 592.53448 
L 601.65744 593.624996 
L 602.296182 593.624996 
L 602.407298 594.442882 
L 603.04604 594.442882 
L 603.157156 594.988141 
L 603.795898 594.988141 
L 603.907014 595.851466 
L 604.545756 595.851466 
L 604.656872 596.817027 
L 605.295614 596.817027 
L 605.40673 597.419082 
L 606.045472 597.419082 
L 606.156588 597.816666 
L 607.545188 597.896183 
L 607.656304 597.998419 
L 609.794762 597.941621 
L 609.905878 597.72579 
L 610.54462 597.72579 
L 610.655736 597.578116 
L 611.294478 597.578116 
L 611.405594 597.441802 
L 612.044336 597.441802 
L 612.155452 597.021498 
L 612.794194 597.021498 
L 612.90531 596.669353 
L 614.29391 596.589836 
L 614.405026 596.24905 
L 615.043768 596.24905 
L 615.154884 595.851466 
L 615.793626 595.851466 
L 615.904742 595.646994 
L 618.793058 595.73787 
L 618.904174 595.919623 
L 619.542916 595.919623 
L 619.654032 596.124095 
L 620.292774 596.124095 
L 620.40389 596.317207 
L 621.042632 596.317207 
L 621.153748 596.851105 
L 621.79249 596.851105 
L 621.903606 597.453161 
L 622.542348 597.453161 
L 622.653464 597.793947 
L 624.791922 597.703071 
L 624.903038 597.214611 
L 625.54178 597.214611 
L 625.652896 596.72615 
L 627.041496 596.817027 
L 627.152612 596.98742 
L 627.791354 596.98742 
L 627.90247 596.873824 
L 628.541212 596.873824 
L 628.652328 596.533038 
L 629.29107 596.533038 
L 629.402186 596.214971 
L 630.040928 596.214971 
L 630.152044 596.430802 
L 630.790785 596.430802 
L 630.901902 596.941982 
L 631.540643 596.941982 
L 631.65176 597.396363 
L 632.290501 597.396363 
L 632.401618 597.600835 
L 634.540075 597.634914 
L 634.651192 597.339565 
L 635.289933 597.339565 
L 635.40105 597.044218 
L 636.039791 597.044218 
L 636.150908 596.794308 
L 638.289365 596.72615 
L 638.400482 596.646634 
L 639.039223 596.646634 
L 639.15034 596.760229 
L 639.789081 596.760229 
L 639.900198 596.578477 
L 640.538939 596.578477 
L 640.650056 596.078656 
L 641.288797 596.078656 
L 641.399914 595.726511 
L 642.038655 595.726511 
L 642.149772 595.522039 
L 643.538371 595.544758 
L 643.649488 595.896904 
L 644.288229 595.896904 
L 644.399346 596.317207 
L 645.038087 596.317207 
L 645.149204 596.74887 
L 645.787945 596.74887 
L 645.899062 596.97606 
L 646.537803 596.97606 
L 646.64892 596.805667 
L 647.287661 596.805667 
L 647.398778 596.146814 
L 648.037519 596.146814 
L 648.148636 594.976781 
L 648.787377 594.976781 
L 648.898494 593.852186 
L 649.537235 593.852186 
L 649.648352 593.204692 
L 650.287093 593.204692 
L 650.39821 592.841187 
L 651.036951 592.841187 
L 651.148068 593.25013 
L 651.786809 593.25013 
L 651.897926 594.24977 
L 652.536667 594.24977 
L 652.647784 595.419803 
L 653.286525 595.419803 
L 653.397642 596.567117 
L 654.036383 596.567117 
L 654.1475 597.044218 
L 654.786241 597.044218 
L 654.897358 597.203251 
L 655.536099 597.203251 
L 655.647216 597.555397 
L 656.285957 597.555397 
L 656.397074 597.748509 
L 657.035815 597.748509 
L 657.146932 597.350925 
L 657.785673 597.350925 
L 657.89679 596.635274 
L 658.535531 596.635274 
L 658.646648 595.74923 
L 659.285389 595.74923 
L 659.396506 595.49932 
L 660.035247 595.49932 
L 660.146364 595.306208 
L 660.785105 595.306208 
L 660.896222 594.919983 
L 661.534963 594.919983 
L 661.64608 594.488321 
L 662.284821 594.488321 
L 662.395938 594.204332 
L 663.034679 594.204332 
L 663.145796 594.317927 
L 663.784537 594.317927 
L 663.895654 594.442882 
L 664.534395 594.442882 
L 664.645512 593.863546 
L 665.284253 593.863546 
L 665.39537 593.079737 
L 666.034111 593.079737 
L 666.145228 592.795749 
L 667.533827 592.875266 
L 667.644944 593.136535 
L 668.283685 593.136535 
L 668.394802 593.454602 
L 669.033543 593.454602 
L 669.14466 593.76131 
L 669.783401 593.76131 
L 669.894518 594.02258 
L 670.533259 594.02258 
L 670.644376 594.272489 
L 671.283117 594.272489 
L 671.394234 594.454242 
L 672.032975 594.454242 
L 672.144092 594.579197 
L 675.782265 594.579197 
L 675.893382 594.431523 
L 676.532123 594.431523 
L 676.64324 594.295208 
L 679.531555 594.386085 
L 679.642672 594.181613 
L 680.281413 594.181613 
L 680.39253 593.943062 
L 681.031271 593.943062 
L 681.142388 593.806748 
L 683.280845 593.806748 
L 683.391962 593.920344 
L 684.780561 593.920344 
L 684.891678 594.090737 
L 685.530419 594.090737 
L 685.641536 594.556478 
L 686.280277 594.556478 
L 686.391394 594.976781 
L 688.529851 594.942702 
L 688.640968 595.147174 
L 689.279709 595.147174 
L 689.390826 595.74923 
L 690.029567 595.74923 
L 690.140684 596.419443 
L 690.779425 596.419443 
L 690.890542 596.98742 
L 691.529283 596.98742 
L 691.6404 597.578116 
L 692.279141 597.578116 
L 692.390258 598.112014 
L 693.028999 598.112014 
L 693.140116 598.486879 
L 693.778857 598.486879 
L 693.889974 598.71407 
L 695.278573 598.816306 
L 695.38969 598.918542 
L 699.027863 598.907182 
L 699.138979 598.804947 
L 702.027295 598.907182 
L 702.138411 598.918542 
L 703.527011 598.873104 
L 703.638127 598.645913 
L 704.276869 598.645913 
L 704.387985 598.271048 
L 705.026727 598.271048 
L 705.137843 597.862105 
L 705.776585 597.862105 
L 705.887701 597.566756 
L 706.526443 597.566756 
L 706.637559 597.441802 
L 708.776017 597.498599 
L 708.887133 597.555397 
L 710.275733 597.600835 
L 710.386849 597.668992 
L 711.775449 597.691712 
L 711.886565 597.816666 
L 712.525307 597.816666 
L 712.636423 597.952981 
L 713.275165 597.952981 
L 713.386281 598.089296 
L 714.025023 598.089296 
L 714.136139 598.236969 
L 714.774881 598.236969 
L 714.885997 598.407363 
L 715.524739 598.407363 
L 715.635855 598.634553 
L 716.274597 598.634553 
L 716.385713 598.850385 
L 717.024455 598.850385 
L 717.135571 599.043497 
L 717.774313 599.043497 
L 717.885429 599.202531 
L 718.524171 599.202531 
L 718.635287 599.338845 
L 719.274029 599.338845 
L 719.385145 599.452441 
L 720.773745 599.543317 
L 720.884861 599.577395 
L 723.773177 599.486519 
L 723.884293 599.418362 
L 727.522467 599.441081 
L 727.633583 599.577395 
L 728.272325 599.577395 
L 728.383441 599.759148 
L 729.022183 599.759148 
L 729.133299 599.884103 
L 731.271757 599.974979 
L 731.382873 600.054496 
L 732.771473 599.997698 
L 732.882589 599.906822 
L 741.019911 599.940901 
L 741.131027 600.077215 
L 747.018775 600.179451 
L 747.129891 600.281687 
L 748.518491 600.190811 
L 748.629607 600.168092 
L 750.018207 600.111294 
L 750.129323 600.054496 
L 751.517923 600.065856 
L 751.629039 600.168092 
L 753.017639 600.224889 
L 753.128755 600.281687 
L 754.517355 600.372563 
L 754.628471 600.395282 
L 756.766929 600.46344 
L 756.878045 600.508878 
L 758.266645 600.531597 
L 758.377761 600.622473 
L 759.766361 600.667911 
L 759.877477 600.736069 
L 762.015935 600.838305 
L 762.127051 600.849664 
L 764.265509 600.94054 
L 764.376625 600.96326 
L 765.765225 601.042776 
L 765.876341 601.076855 
L 768.764657 601.110934 
L 768.875773 601.19045 
L 774.76352 601.088215 
L 774.874637 600.985979 
L 778.51281 600.997338 
L 778.623927 601.122293 
L 779.262668 601.122293 
L 779.373785 601.269967 
L 1133.9455 601.304046 
L 1133.9455 601.304046 
" clip-path="url(#p17def054ed)" style="fill: none; stroke: #024b7a; stroke-width: 1.5; stroke-linecap: square"/>
   </g>
   <g id="patch_21">
    <path d="M 54.15 602.44 
L 54.15 453.63 
" style="fill: none; stroke: #000000; stroke-width: 0.8; stroke-linejoin: miter; stroke-linecap: square"/>
   </g>
   <g id="patch_22">
    <path d="M 1133.9455 602.44 
L 1133.9455 453.63 
" style="fill: none; stroke: #000000; stroke-width: 0.8; stroke-linejoin: miter; stroke-linecap: square"/>
   </g>
   <g id="patch_23">
    <path d="M 54.15 602.44 
L 1133.9455 602.44 
" style="fill: none; stroke: #000000; stroke-width: 0.8; stroke-linejoin: miter; stroke-linecap: square"/>
   </g>
   <g id="patch_24">
    <path d="M 54.15 453.63 
L 1133.9455 453.63 
" style="fill: none; stroke: #000000; stroke-width: 0.8; stroke-linejoin: miter; stroke-linecap: square"/>
   </g>
   <g id="legend_4">
    <g id="patch_25">
     <path d="M 1040.472062 476.308125 
L 1126.9455 476.308125 
Q 1128.9455 476.308125 1128.9455 474.308125 
L 1128.9455 460.63 
Q 1128.9455 458.63 1126.9455 458.63 
L 1040.472062 458.63 
Q 1038.472062 458.63 1038.472062 460.63 
L 1038.472062 474.308125 
Q 1038.472062 476.308125 1040.472062 476.308125 
z
" style="fill: #ffffff; opacity: 0.8; stroke: #cccccc; stroke-linejoin: miter"/>
    </g>
    <g id="line2d_132">
     <path d="M 1042.472062 466.728437 
L 1052.472062 466.728437 
L 1062.472062 466.728437 
" style="fill: none; stroke: #024b7a; stroke-width: 1.5; stroke-linecap: square"/>
    </g>
    <g id="text_52">
     <!-- Solar trace -->
     <g transform="translate(1070.472062 470.228437) scale(0.1 -0.1)">
      <use xlink:href="#DejaVuSans-53"/>
      <use xlink:href="#DejaVuSans-6f" x="63.476562"/>
      <use xlink:href="#DejaVuSans-6c" x="124.658203"/>
      <use xlink:href="#DejaVuSans-61" x="152.441406"/>
      <use xlink:href="#DejaVuSans-72" x="213.720703"/>
      <use xlink:href="#DejaVuSans-20" x="254.833984"/>
      <use xlink:href="#DejaVuSans-74" x="286.621094"/>
      <use xlink:href="#DejaVuSans-72" x="325.830078"/>
      <use xlink:href="#DejaVuSans-61" x="366.943359"/>
      <use xlink:href="#DejaVuSans-63" x="428.222656"/>
      <use xlink:href="#DejaVuSans-65" x="483.203125"/>
     </g>
    </g>
   </g>
  </g>
 </g>
 <defs>
  <clipPath id="p5af259968a">
   <rect x="54.15" y="7.2" width="1079.7955" height="148.81"/>
  </clipPath>
  <clipPath id="p423e60c740">
   <rect x="54.15" y="156.01" width="1079.7955" height="148.81"/>
  </clipPath>
  <clipPath id="pc6318da4c9">
   <rect x="54.15" y="304.82" width="1079.7955" height="148.81"/>
  </clipPath>
  <clipPath id="p17def054ed">
   <rect x="54.15" y="453.63" width="1079.7955" height="148.81"/>
  </clipPath>
 </defs>
</svg>
