<?xml version="1.0" encoding="utf-8" standalone="no"?>
<!DOCTYPE svg PUBLIC "-//W3C//DTD SVG 1.1//EN"
  "http://www.w3.org/Graphics/SVG/1.1/DTD/svg11.dtd">
<svg xmlns:xlink="http://www.w3.org/1999/xlink" width="565.289875pt" height="207.99625pt" viewBox="0 0 565.289875 207.99625" xmlns="http://www.w3.org/2000/svg" version="1.1">
 <metadata>
  <rdf:RDF xmlns:dc="http://purl.org/dc/elements/1.1/" xmlns:cc="http://creativecommons.org/ns#" xmlns:rdf="http://www.w3.org/1999/02/22-rdf-syntax-ns#">
   <cc:Work>
    <dc:type rdf:resource="http://purl.org/dc/dcmitype/StillImage"/>
    <dc:date>2024-05-15T16:24:25.056868</dc:date>
    <dc:format>image/svg+xml</dc:format>
    <dc:creator>
     <cc:Agent>
      <dc:title>Matplotlib v3.8.2, https://matplotlib.org/</dc:title>
     </cc:Agent>
    </dc:creator>
   </cc:Work>
  </rdf:RDF>
 </metadata>
 <defs>
  <style type="text/css">*{stroke-linejoin: round; stroke-linecap: butt}</style>
 </defs>
 <g id="figure_1">
  <g id="patch_1">
   <path d="M 0 207.99625 
L 565.289875 207.99625 
L 565.289875 0 
L 0 0 
z
" style="fill: #ffffff"/>
  </g>
  <g id="axes_1">
   <g id="patch_2">
    <path d="M 54.15 170.44 
L 543.6805 170.44 
L 543.6805 7.2 
L 54.15 7.2 
z
" style="fill: #ffffff"/>
   </g>
   <g id="matplotlib.axis_1">
    <g id="xtick_1">
     <g id="line2d_1">
      <defs>
       <path id="ma907602aa9" d="M 0 0 
L 0 3.5 
" style="stroke: #000000; stroke-width: 0.8"/>
      </defs>
      <g>
       <use xlink:href="#ma907602aa9" x="54.15" y="170.44" style="stroke: #000000; stroke-width: 0.8"/>
      </g>
     </g>
     <g id="text_1">
      <!-- 00:00 -->
      <g transform="translate(39.740625 185.038437) scale(0.1 -0.1)">
       <defs>
        <path id="DejaVuSans-30" d="M 2034 4250 
Q 1547 4250 1301 3770 
Q 1056 3291 1056 2328 
Q 1056 1369 1301 889 
Q 1547 409 2034 409 
Q 2525 409 2770 889 
Q 3016 1369 3016 2328 
Q 3016 3291 2770 3770 
Q 2525 4250 2034 4250 
z
M 2034 4750 
Q 2819 4750 3233 4129 
Q 3647 3509 3647 2328 
Q 3647 1150 3233 529 
Q 2819 -91 2034 -91 
Q 1250 -91 836 529 
Q 422 1150 422 2328 
Q 422 3509 836 4129 
Q 1250 4750 2034 4750 
z
" transform="scale(0.015625)"/>
        <path id="DejaVuSans-3a" d="M 750 794 
L 1409 794 
L 1409 0 
L 750 0 
L 750 794 
z
M 750 3309 
L 1409 3309 
L 1409 2516 
L 750 2516 
L 750 3309 
z
" transform="scale(0.015625)"/>
       </defs>
       <use xlink:href="#DejaVuSans-30"/>
       <use xlink:href="#DejaVuSans-30" x="63.623047"/>
       <use xlink:href="#DejaVuSans-3a" x="127.246094"/>
       <use xlink:href="#DejaVuSans-30" x="160.9375"/>
       <use xlink:href="#DejaVuSans-30" x="224.560547"/>
      </g>
     </g>
    </g>
    <g id="xtick_2">
     <g id="line2d_2">
      <g>
       <use xlink:href="#ma907602aa9" x="94.944208" y="170.44" style="stroke: #000000; stroke-width: 0.8"/>
      </g>
     </g>
     <g id="text_2">
      <!-- 02:00 -->
      <g transform="translate(80.534833 185.038437) scale(0.1 -0.1)">
       <defs>
        <path id="DejaVuSans-32" d="M 1228 531 
L 3431 531 
L 3431 0 
L 469 0 
L 469 531 
Q 828 903 1448 1529 
Q 2069 2156 2228 2338 
Q 2531 2678 2651 2914 
Q 2772 3150 2772 3378 
Q 2772 3750 2511 3984 
Q 2250 4219 1831 4219 
Q 1534 4219 1204 4116 
Q 875 4013 500 3803 
L 500 4441 
Q 881 4594 1212 4672 
Q 1544 4750 1819 4750 
Q 2544 4750 2975 4387 
Q 3406 4025 3406 3419 
Q 3406 3131 3298 2873 
Q 3191 2616 2906 2266 
Q 2828 2175 2409 1742 
Q 1991 1309 1228 531 
z
" transform="scale(0.015625)"/>
       </defs>
       <use xlink:href="#DejaVuSans-30"/>
       <use xlink:href="#DejaVuSans-32" x="63.623047"/>
       <use xlink:href="#DejaVuSans-3a" x="127.246094"/>
       <use xlink:href="#DejaVuSans-30" x="160.9375"/>
       <use xlink:href="#DejaVuSans-30" x="224.560547"/>
      </g>
     </g>
    </g>
    <g id="xtick_3">
     <g id="line2d_3">
      <g>
       <use xlink:href="#ma907602aa9" x="135.738417" y="170.44" style="stroke: #000000; stroke-width: 0.8"/>
      </g>
     </g>
     <g id="text_3">
      <!-- 04:00 -->
      <g transform="translate(121.329042 185.038437) scale(0.1 -0.1)">
       <defs>
        <path id="DejaVuSans-34" d="M 2419 4116 
L 825 1625 
L 2419 1625 
L 2419 4116 
z
M 2253 4666 
L 3047 4666 
L 3047 1625 
L 3713 1625 
L 3713 1100 
L 3047 1100 
L 3047 0 
L 2419 0 
L 2419 1100 
L 313 1100 
L 313 1709 
L 2253 4666 
z
" transform="scale(0.015625)"/>
       </defs>
       <use xlink:href="#DejaVuSans-30"/>
       <use xlink:href="#DejaVuSans-34" x="63.623047"/>
       <use xlink:href="#DejaVuSans-3a" x="127.246094"/>
       <use xlink:href="#DejaVuSans-30" x="160.9375"/>
       <use xlink:href="#DejaVuSans-30" x="224.560547"/>
      </g>
     </g>
    </g>
    <g id="xtick_4">
     <g id="line2d_4">
      <g>
       <use xlink:href="#ma907602aa9" x="176.532625" y="170.44" style="stroke: #000000; stroke-width: 0.8"/>
      </g>
     </g>
     <g id="text_4">
      <!-- 06:00 -->
      <g transform="translate(162.12325 185.038437) scale(0.1 -0.1)">
       <defs>
        <path id="DejaVuSans-36" d="M 2113 2584 
Q 1688 2584 1439 2293 
Q 1191 2003 1191 1497 
Q 1191 994 1439 701 
Q 1688 409 2113 409 
Q 2538 409 2786 701 
Q 3034 994 3034 1497 
Q 3034 2003 2786 2293 
Q 2538 2584 2113 2584 
z
M 3366 4563 
L 3366 3988 
Q 3128 4100 2886 4159 
Q 2644 4219 2406 4219 
Q 1781 4219 1451 3797 
Q 1122 3375 1075 2522 
Q 1259 2794 1537 2939 
Q 1816 3084 2150 3084 
Q 2853 3084 3261 2657 
Q 3669 2231 3669 1497 
Q 3669 778 3244 343 
Q 2819 -91 2113 -91 
Q 1303 -91 875 529 
Q 447 1150 447 2328 
Q 447 3434 972 4092 
Q 1497 4750 2381 4750 
Q 2619 4750 2861 4703 
Q 3103 4656 3366 4563 
z
" transform="scale(0.015625)"/>
       </defs>
       <use xlink:href="#DejaVuSans-30"/>
       <use xlink:href="#DejaVuSans-36" x="63.623047"/>
       <use xlink:href="#DejaVuSans-3a" x="127.246094"/>
       <use xlink:href="#DejaVuSans-30" x="160.9375"/>
       <use xlink:href="#DejaVuSans-30" x="224.560547"/>
      </g>
     </g>
    </g>
    <g id="xtick_5">
     <g id="line2d_5">
      <g>
       <use xlink:href="#ma907602aa9" x="217.326833" y="170.44" style="stroke: #000000; stroke-width: 0.8"/>
      </g>
     </g>
     <g id="text_5">
      <!-- 08:00 -->
      <g transform="translate(202.917458 185.038437) scale(0.1 -0.1)">
       <defs>
        <path id="DejaVuSans-38" d="M 2034 2216 
Q 1584 2216 1326 1975 
Q 1069 1734 1069 1313 
Q 1069 891 1326 650 
Q 1584 409 2034 409 
Q 2484 409 2743 651 
Q 3003 894 3003 1313 
Q 3003 1734 2745 1975 
Q 2488 2216 2034 2216 
z
M 1403 2484 
Q 997 2584 770 2862 
Q 544 3141 544 3541 
Q 544 4100 942 4425 
Q 1341 4750 2034 4750 
Q 2731 4750 3128 4425 
Q 3525 4100 3525 3541 
Q 3525 3141 3298 2862 
Q 3072 2584 2669 2484 
Q 3125 2378 3379 2068 
Q 3634 1759 3634 1313 
Q 3634 634 3220 271 
Q 2806 -91 2034 -91 
Q 1263 -91 848 271 
Q 434 634 434 1313 
Q 434 1759 690 2068 
Q 947 2378 1403 2484 
z
M 1172 3481 
Q 1172 3119 1398 2916 
Q 1625 2713 2034 2713 
Q 2441 2713 2670 2916 
Q 2900 3119 2900 3481 
Q 2900 3844 2670 4047 
Q 2441 4250 2034 4250 
Q 1625 4250 1398 4047 
Q 1172 3844 1172 3481 
z
" transform="scale(0.015625)"/>
       </defs>
       <use xlink:href="#DejaVuSans-30"/>
       <use xlink:href="#DejaVuSans-38" x="63.623047"/>
       <use xlink:href="#DejaVuSans-3a" x="127.246094"/>
       <use xlink:href="#DejaVuSans-30" x="160.9375"/>
       <use xlink:href="#DejaVuSans-30" x="224.560547"/>
      </g>
     </g>
    </g>
    <g id="xtick_6">
     <g id="line2d_6">
      <g>
       <use xlink:href="#ma907602aa9" x="258.121042" y="170.44" style="stroke: #000000; stroke-width: 0.8"/>
      </g>
     </g>
     <g id="text_6">
      <!-- 10:00 -->
      <g transform="translate(243.711667 185.038437) scale(0.1 -0.1)">
       <defs>
        <path id="DejaVuSans-31" d="M 794 531 
L 1825 531 
L 1825 4091 
L 703 3866 
L 703 4441 
L 1819 4666 
L 2450 4666 
L 2450 531 
L 3481 531 
L 3481 0 
L 794 0 
L 794 531 
z
" transform="scale(0.015625)"/>
       </defs>
       <use xlink:href="#DejaVuSans-31"/>
       <use xlink:href="#DejaVuSans-30" x="63.623047"/>
       <use xlink:href="#DejaVuSans-3a" x="127.246094"/>
       <use xlink:href="#DejaVuSans-30" x="160.9375"/>
       <use xlink:href="#DejaVuSans-30" x="224.560547"/>
      </g>
     </g>
    </g>
    <g id="xtick_7">
     <g id="line2d_7">
      <g>
       <use xlink:href="#ma907602aa9" x="298.91525" y="170.44" style="stroke: #000000; stroke-width: 0.8"/>
      </g>
     </g>
     <g id="text_7">
      <!-- 12:00 -->
      <g transform="translate(284.505875 185.038437) scale(0.1 -0.1)">
       <use xlink:href="#DejaVuSans-31"/>
       <use xlink:href="#DejaVuSans-32" x="63.623047"/>
       <use xlink:href="#DejaVuSans-3a" x="127.246094"/>
       <use xlink:href="#DejaVuSans-30" x="160.9375"/>
       <use xlink:href="#DejaVuSans-30" x="224.560547"/>
      </g>
     </g>
    </g>
    <g id="xtick_8">
     <g id="line2d_8">
      <g>
       <use xlink:href="#ma907602aa9" x="339.709458" y="170.44" style="stroke: #000000; stroke-width: 0.8"/>
      </g>
     </g>
     <g id="text_8">
      <!-- 14:00 -->
      <g transform="translate(325.300083 185.038437) scale(0.1 -0.1)">
       <use xlink:href="#DejaVuSans-31"/>
       <use xlink:href="#DejaVuSans-34" x="63.623047"/>
       <use xlink:href="#DejaVuSans-3a" x="127.246094"/>
       <use xlink:href="#DejaVuSans-30" x="160.9375"/>
       <use xlink:href="#DejaVuSans-30" x="224.560547"/>
      </g>
     </g>
    </g>
    <g id="xtick_9">
     <g id="line2d_9">
      <g>
       <use xlink:href="#ma907602aa9" x="380.503667" y="170.44" style="stroke: #000000; stroke-width: 0.8"/>
      </g>
     </g>
     <g id="text_9">
      <!-- 16:00 -->
      <g transform="translate(366.094292 185.038437) scale(0.1 -0.1)">
       <use xlink:href="#DejaVuSans-31"/>
       <use xlink:href="#DejaVuSans-36" x="63.623047"/>
       <use xlink:href="#DejaVuSans-3a" x="127.246094"/>
       <use xlink:href="#DejaVuSans-30" x="160.9375"/>
       <use xlink:href="#DejaVuSans-30" x="224.560547"/>
      </g>
     </g>
    </g>
    <g id="xtick_10">
     <g id="line2d_10">
      <g>
       <use xlink:href="#ma907602aa9" x="421.297875" y="170.44" style="stroke: #000000; stroke-width: 0.8"/>
      </g>
     </g>
     <g id="text_10">
      <!-- 18:00 -->
      <g transform="translate(406.8885 185.038437) scale(0.1 -0.1)">
       <use xlink:href="#DejaVuSans-31"/>
       <use xlink:href="#DejaVuSans-38" x="63.623047"/>
       <use xlink:href="#DejaVuSans-3a" x="127.246094"/>
       <use xlink:href="#DejaVuSans-30" x="160.9375"/>
       <use xlink:href="#DejaVuSans-30" x="224.560547"/>
      </g>
     </g>
    </g>
    <g id="xtick_11">
     <g id="line2d_11">
      <g>
       <use xlink:href="#ma907602aa9" x="462.092083" y="170.44" style="stroke: #000000; stroke-width: 0.8"/>
      </g>
     </g>
     <g id="text_11">
      <!-- 20:00 -->
      <g transform="translate(447.682708 185.038437) scale(0.1 -0.1)">
       <use xlink:href="#DejaVuSans-32"/>
       <use xlink:href="#DejaVuSans-30" x="63.623047"/>
       <use xlink:href="#DejaVuSans-3a" x="127.246094"/>
       <use xlink:href="#DejaVuSans-30" x="160.9375"/>
       <use xlink:href="#DejaVuSans-30" x="224.560547"/>
      </g>
     </g>
    </g>
    <g id="xtick_12">
     <g id="line2d_12">
      <g>
       <use xlink:href="#ma907602aa9" x="502.886292" y="170.44" style="stroke: #000000; stroke-width: 0.8"/>
      </g>
     </g>
     <g id="text_12">
      <!-- 22:00 -->
      <g transform="translate(488.476917 185.038437) scale(0.1 -0.1)">
       <use xlink:href="#DejaVuSans-32"/>
       <use xlink:href="#DejaVuSans-32" x="63.623047"/>
       <use xlink:href="#DejaVuSans-3a" x="127.246094"/>
       <use xlink:href="#DejaVuSans-30" x="160.9375"/>
       <use xlink:href="#DejaVuSans-30" x="224.560547"/>
      </g>
     </g>
    </g>
    <g id="xtick_13">
     <g id="line2d_13">
      <g>
       <use xlink:href="#ma907602aa9" x="543.6805" y="170.44" style="stroke: #000000; stroke-width: 0.8"/>
      </g>
     </g>
     <g id="text_13">
      <!-- 00:00 -->
      <g transform="translate(529.271125 185.038437) scale(0.1 -0.1)">
       <use xlink:href="#DejaVuSans-30"/>
       <use xlink:href="#DejaVuSans-30" x="63.623047"/>
       <use xlink:href="#DejaVuSans-3a" x="127.246094"/>
       <use xlink:href="#DejaVuSans-30" x="160.9375"/>
       <use xlink:href="#DejaVuSans-30" x="224.560547"/>
      </g>
     </g>
    </g>
    <g id="text_14">
     <!-- Time of day -->
     <g transform="translate(269.486344 198.716563) scale(0.1 -0.1)">
      <defs>
       <path id="DejaVuSans-54" d="M -19 4666 
L 3928 4666 
L 3928 4134 
L 2272 4134 
L 2272 0 
L 1638 0 
L 1638 4134 
L -19 4134 
L -19 4666 
z
" transform="scale(0.015625)"/>
       <path id="DejaVuSans-69" d="M 603 3500 
L 1178 3500 
L 1178 0 
L 603 0 
L 603 3500 
z
M 603 4863 
L 1178 4863 
L 1178 4134 
L 603 4134 
L 603 4863 
z
" transform="scale(0.015625)"/>
       <path id="DejaVuSans-6d" d="M 3328 2828 
Q 3544 3216 3844 3400 
Q 4144 3584 4550 3584 
Q 5097 3584 5394 3201 
Q 5691 2819 5691 2113 
L 5691 0 
L 5113 0 
L 5113 2094 
Q 5113 2597 4934 2840 
Q 4756 3084 4391 3084 
Q 3944 3084 3684 2787 
Q 3425 2491 3425 1978 
L 3425 0 
L 2847 0 
L 2847 2094 
Q 2847 2600 2669 2842 
Q 2491 3084 2119 3084 
Q 1678 3084 1418 2786 
Q 1159 2488 1159 1978 
L 1159 0 
L 581 0 
L 581 3500 
L 1159 3500 
L 1159 2956 
Q 1356 3278 1631 3431 
Q 1906 3584 2284 3584 
Q 2666 3584 2933 3390 
Q 3200 3197 3328 2828 
z
" transform="scale(0.015625)"/>
       <path id="DejaVuSans-65" d="M 3597 1894 
L 3597 1613 
L 953 1613 
Q 991 1019 1311 708 
Q 1631 397 2203 397 
Q 2534 397 2845 478 
Q 3156 559 3463 722 
L 3463 178 
Q 3153 47 2828 -22 
Q 2503 -91 2169 -91 
Q 1331 -91 842 396 
Q 353 884 353 1716 
Q 353 2575 817 3079 
Q 1281 3584 2069 3584 
Q 2775 3584 3186 3129 
Q 3597 2675 3597 1894 
z
M 3022 2063 
Q 3016 2534 2758 2815 
Q 2500 3097 2075 3097 
Q 1594 3097 1305 2825 
Q 1016 2553 972 2059 
L 3022 2063 
z
" transform="scale(0.015625)"/>
       <path id="DejaVuSans-20" transform="scale(0.015625)"/>
       <path id="DejaVuSans-6f" d="M 1959 3097 
Q 1497 3097 1228 2736 
Q 959 2375 959 1747 
Q 959 1119 1226 758 
Q 1494 397 1959 397 
Q 2419 397 2687 759 
Q 2956 1122 2956 1747 
Q 2956 2369 2687 2733 
Q 2419 3097 1959 3097 
z
M 1959 3584 
Q 2709 3584 3137 3096 
Q 3566 2609 3566 1747 
Q 3566 888 3137 398 
Q 2709 -91 1959 -91 
Q 1206 -91 779 398 
Q 353 888 353 1747 
Q 353 2609 779 3096 
Q 1206 3584 1959 3584 
z
" transform="scale(0.015625)"/>
       <path id="DejaVuSans-66" d="M 2375 4863 
L 2375 4384 
L 1825 4384 
Q 1516 4384 1395 4259 
Q 1275 4134 1275 3809 
L 1275 3500 
L 2222 3500 
L 2222 3053 
L 1275 3053 
L 1275 0 
L 697 0 
L 697 3053 
L 147 3053 
L 147 3500 
L 697 3500 
L 697 3744 
Q 697 4328 969 4595 
Q 1241 4863 1831 4863 
L 2375 4863 
z
" transform="scale(0.015625)"/>
       <path id="DejaVuSans-64" d="M 2906 2969 
L 2906 4863 
L 3481 4863 
L 3481 0 
L 2906 0 
L 2906 525 
Q 2725 213 2448 61 
Q 2172 -91 1784 -91 
Q 1150 -91 751 415 
Q 353 922 353 1747 
Q 353 2572 751 3078 
Q 1150 3584 1784 3584 
Q 2172 3584 2448 3432 
Q 2725 3281 2906 2969 
z
M 947 1747 
Q 947 1113 1208 752 
Q 1469 391 1925 391 
Q 2381 391 2643 752 
Q 2906 1113 2906 1747 
Q 2906 2381 2643 2742 
Q 2381 3103 1925 3103 
Q 1469 3103 1208 2742 
Q 947 2381 947 1747 
z
" transform="scale(0.015625)"/>
       <path id="DejaVuSans-61" d="M 2194 1759 
Q 1497 1759 1228 1600 
Q 959 1441 959 1056 
Q 959 750 1161 570 
Q 1363 391 1709 391 
Q 2188 391 2477 730 
Q 2766 1069 2766 1631 
L 2766 1759 
L 2194 1759 
z
M 3341 1997 
L 3341 0 
L 2766 0 
L 2766 531 
Q 2569 213 2275 61 
Q 1981 -91 1556 -91 
Q 1019 -91 701 211 
Q 384 513 384 1019 
Q 384 1609 779 1909 
Q 1175 2209 1959 2209 
L 2766 2209 
L 2766 2266 
Q 2766 2663 2505 2880 
Q 2244 3097 1772 3097 
Q 1472 3097 1187 3025 
Q 903 2953 641 2809 
L 641 3341 
Q 956 3463 1253 3523 
Q 1550 3584 1831 3584 
Q 2591 3584 2966 3190 
Q 3341 2797 3341 1997 
z
" transform="scale(0.015625)"/>
       <path id="DejaVuSans-79" d="M 2059 -325 
Q 1816 -950 1584 -1140 
Q 1353 -1331 966 -1331 
L 506 -1331 
L 506 -850 
L 844 -850 
Q 1081 -850 1212 -737 
Q 1344 -625 1503 -206 
L 1606 56 
L 191 3500 
L 800 3500 
L 1894 763 
L 2988 3500 
L 3597 3500 
L 2059 -325 
z
" transform="scale(0.015625)"/>
      </defs>
      <use xlink:href="#DejaVuSans-54"/>
      <use xlink:href="#DejaVuSans-69" x="57.958984"/>
      <use xlink:href="#DejaVuSans-6d" x="85.742188"/>
      <use xlink:href="#DejaVuSans-65" x="183.154297"/>
      <use xlink:href="#DejaVuSans-20" x="244.677734"/>
      <use xlink:href="#DejaVuSans-6f" x="276.464844"/>
      <use xlink:href="#DejaVuSans-66" x="337.646484"/>
      <use xlink:href="#DejaVuSans-20" x="372.851562"/>
      <use xlink:href="#DejaVuSans-64" x="404.638672"/>
      <use xlink:href="#DejaVuSans-61" x="468.115234"/>
      <use xlink:href="#DejaVuSans-79" x="529.394531"/>
     </g>
    </g>
   </g>
   <g id="matplotlib.axis_2">
    <g id="ytick_1">
     <g id="line2d_14">
      <defs>
       <path id="m4504eb23ce" d="M 0 0 
L -3.5 0 
" style="stroke: #000000; stroke-width: 0.8"/>
      </defs>
      <g>
       <use xlink:href="#m4504eb23ce" x="54.15" y="169.193893" style="stroke: #000000; stroke-width: 0.8"/>
      </g>
     </g>
     <g id="text_15">
      <!-- 0 -->
      <g transform="translate(40.7875 172.993112) scale(0.1 -0.1)">
       <use xlink:href="#DejaVuSans-30"/>
      </g>
     </g>
    </g>
    <g id="ytick_2">
     <g id="line2d_15">
      <g>
       <use xlink:href="#m4504eb23ce" x="54.15" y="144.271756" style="stroke: #000000; stroke-width: 0.8"/>
      </g>
     </g>
     <g id="text_16">
      <!-- 200 -->
      <g transform="translate(28.0625 148.070974) scale(0.1 -0.1)">
       <use xlink:href="#DejaVuSans-32"/>
       <use xlink:href="#DejaVuSans-30" x="63.623047"/>
       <use xlink:href="#DejaVuSans-30" x="127.246094"/>
      </g>
     </g>
    </g>
    <g id="ytick_3">
     <g id="line2d_16">
      <g>
       <use xlink:href="#m4504eb23ce" x="54.15" y="119.349618" style="stroke: #000000; stroke-width: 0.8"/>
      </g>
     </g>
     <g id="text_17">
      <!-- 400 -->
      <g transform="translate(28.0625 123.148837) scale(0.1 -0.1)">
       <use xlink:href="#DejaVuSans-34"/>
       <use xlink:href="#DejaVuSans-30" x="63.623047"/>
       <use xlink:href="#DejaVuSans-30" x="127.246094"/>
      </g>
     </g>
    </g>
    <g id="ytick_4">
     <g id="line2d_17">
      <g>
       <use xlink:href="#m4504eb23ce" x="54.15" y="94.427481" style="stroke: #000000; stroke-width: 0.8"/>
      </g>
     </g>
     <g id="text_18">
      <!-- 600 -->
      <g transform="translate(28.0625 98.2267) scale(0.1 -0.1)">
       <use xlink:href="#DejaVuSans-36"/>
       <use xlink:href="#DejaVuSans-30" x="63.623047"/>
       <use xlink:href="#DejaVuSans-30" x="127.246094"/>
      </g>
     </g>
    </g>
    <g id="ytick_5">
     <g id="line2d_18">
      <g>
       <use xlink:href="#m4504eb23ce" x="54.15" y="69.505344" style="stroke: #000000; stroke-width: 0.8"/>
      </g>
     </g>
     <g id="text_19">
      <!-- 800 -->
      <g transform="translate(28.0625 73.304562) scale(0.1 -0.1)">
       <use xlink:href="#DejaVuSans-38"/>
       <use xlink:href="#DejaVuSans-30" x="63.623047"/>
       <use xlink:href="#DejaVuSans-30" x="127.246094"/>
      </g>
     </g>
    </g>
    <g id="ytick_6">
     <g id="line2d_19">
      <g>
       <use xlink:href="#m4504eb23ce" x="54.15" y="44.583206" style="stroke: #000000; stroke-width: 0.8"/>
      </g>
     </g>
     <g id="text_20">
      <!-- 1000 -->
      <g transform="translate(21.7 48.382425) scale(0.1 -0.1)">
       <use xlink:href="#DejaVuSans-31"/>
       <use xlink:href="#DejaVuSans-30" x="63.623047"/>
       <use xlink:href="#DejaVuSans-30" x="127.246094"/>
       <use xlink:href="#DejaVuSans-30" x="190.869141"/>
      </g>
     </g>
    </g>
    <g id="ytick_7">
     <g id="line2d_20">
      <g>
       <use xlink:href="#m4504eb23ce" x="54.15" y="19.661069" style="stroke: #000000; stroke-width: 0.8"/>
      </g>
     </g>
     <g id="text_21">
      <!-- 1200 -->
      <g transform="translate(21.7 23.460287) scale(0.1 -0.1)">
       <use xlink:href="#DejaVuSans-31"/>
       <use xlink:href="#DejaVuSans-32" x="63.623047"/>
       <use xlink:href="#DejaVuSans-30" x="127.246094"/>
       <use xlink:href="#DejaVuSans-30" x="190.869141"/>
      </g>
     </g>
    </g>
    <g id="text_22">
     <!-- Solar irradiance [W/m$^2$] -->
     <g transform="translate(15.620312 147.77) rotate(-90) scale(0.1 -0.1)">
      <defs>
       <path id="DejaVuSans-53" d="M 3425 4513 
L 3425 3897 
Q 3066 4069 2747 4153 
Q 2428 4238 2131 4238 
Q 1616 4238 1336 4038 
Q 1056 3838 1056 3469 
Q 1056 3159 1242 3001 
Q 1428 2844 1947 2747 
L 2328 2669 
Q 3034 2534 3370 2195 
Q 3706 1856 3706 1288 
Q 3706 609 3251 259 
Q 2797 -91 1919 -91 
Q 1588 -91 1214 -16 
Q 841 59 441 206 
L 441 856 
Q 825 641 1194 531 
Q 1563 422 1919 422 
Q 2459 422 2753 634 
Q 3047 847 3047 1241 
Q 3047 1584 2836 1778 
Q 2625 1972 2144 2069 
L 1759 2144 
Q 1053 2284 737 2584 
Q 422 2884 422 3419 
Q 422 4038 858 4394 
Q 1294 4750 2059 4750 
Q 2388 4750 2728 4690 
Q 3069 4631 3425 4513 
z
" transform="scale(0.015625)"/>
       <path id="DejaVuSans-6c" d="M 603 4863 
L 1178 4863 
L 1178 0 
L 603 0 
L 603 4863 
z
" transform="scale(0.015625)"/>
       <path id="DejaVuSans-72" d="M 2631 2963 
Q 2534 3019 2420 3045 
Q 2306 3072 2169 3072 
Q 1681 3072 1420 2755 
Q 1159 2438 1159 1844 
L 1159 0 
L 581 0 
L 581 3500 
L 1159 3500 
L 1159 2956 
Q 1341 3275 1631 3429 
Q 1922 3584 2338 3584 
Q 2397 3584 2469 3576 
Q 2541 3569 2628 3553 
L 2631 2963 
z
" transform="scale(0.015625)"/>
       <path id="DejaVuSans-6e" d="M 3513 2113 
L 3513 0 
L 2938 0 
L 2938 2094 
Q 2938 2591 2744 2837 
Q 2550 3084 2163 3084 
Q 1697 3084 1428 2787 
Q 1159 2491 1159 1978 
L 1159 0 
L 581 0 
L 581 3500 
L 1159 3500 
L 1159 2956 
Q 1366 3272 1645 3428 
Q 1925 3584 2291 3584 
Q 2894 3584 3203 3211 
Q 3513 2838 3513 2113 
z
" transform="scale(0.015625)"/>
       <path id="DejaVuSans-63" d="M 3122 3366 
L 3122 2828 
Q 2878 2963 2633 3030 
Q 2388 3097 2138 3097 
Q 1578 3097 1268 2742 
Q 959 2388 959 1747 
Q 959 1106 1268 751 
Q 1578 397 2138 397 
Q 2388 397 2633 464 
Q 2878 531 3122 666 
L 3122 134 
Q 2881 22 2623 -34 
Q 2366 -91 2075 -91 
Q 1284 -91 818 406 
Q 353 903 353 1747 
Q 353 2603 823 3093 
Q 1294 3584 2113 3584 
Q 2378 3584 2631 3529 
Q 2884 3475 3122 3366 
z
" transform="scale(0.015625)"/>
       <path id="DejaVuSans-5b" d="M 550 4863 
L 1875 4863 
L 1875 4416 
L 1125 4416 
L 1125 -397 
L 1875 -397 
L 1875 -844 
L 550 -844 
L 550 4863 
z
" transform="scale(0.015625)"/>
       <path id="DejaVuSans-57" d="M 213 4666 
L 850 4666 
L 1831 722 
L 2809 4666 
L 3519 4666 
L 4500 722 
L 5478 4666 
L 6119 4666 
L 4947 0 
L 4153 0 
L 3169 4050 
L 2175 0 
L 1381 0 
L 213 4666 
z
" transform="scale(0.015625)"/>
       <path id="DejaVuSans-2f" d="M 1625 4666 
L 2156 4666 
L 531 -594 
L 0 -594 
L 1625 4666 
z
" transform="scale(0.015625)"/>
       <path id="DejaVuSans-5d" d="M 1947 4863 
L 1947 -844 
L 622 -844 
L 622 -397 
L 1369 -397 
L 1369 4416 
L 622 4416 
L 622 4863 
L 1947 4863 
z
" transform="scale(0.015625)"/>
      </defs>
      <use xlink:href="#DejaVuSans-53" transform="translate(0 0.765625)"/>
      <use xlink:href="#DejaVuSans-6f" transform="translate(63.476562 0.765625)"/>
      <use xlink:href="#DejaVuSans-6c" transform="translate(124.658203 0.765625)"/>
      <use xlink:href="#DejaVuSans-61" transform="translate(152.441406 0.765625)"/>
      <use xlink:href="#DejaVuSans-72" transform="translate(213.720703 0.765625)"/>
      <use xlink:href="#DejaVuSans-20" transform="translate(254.833984 0.765625)"/>
      <use xlink:href="#DejaVuSans-69" transform="translate(286.621094 0.765625)"/>
      <use xlink:href="#DejaVuSans-72" transform="translate(314.404297 0.765625)"/>
      <use xlink:href="#DejaVuSans-72" transform="translate(355.517578 0.765625)"/>
      <use xlink:href="#DejaVuSans-61" transform="translate(396.630859 0.765625)"/>
      <use xlink:href="#DejaVuSans-64" transform="translate(457.910156 0.765625)"/>
      <use xlink:href="#DejaVuSans-69" transform="translate(521.386719 0.765625)"/>
      <use xlink:href="#DejaVuSans-61" transform="translate(549.169922 0.765625)"/>
      <use xlink:href="#DejaVuSans-6e" transform="translate(610.449219 0.765625)"/>
      <use xlink:href="#DejaVuSans-63" transform="translate(673.828125 0.765625)"/>
      <use xlink:href="#DejaVuSans-65" transform="translate(728.808594 0.765625)"/>
      <use xlink:href="#DejaVuSans-20" transform="translate(790.332031 0.765625)"/>
      <use xlink:href="#DejaVuSans-5b" transform="translate(822.119141 0.765625)"/>
      <use xlink:href="#DejaVuSans-57" transform="translate(861.132812 0.765625)"/>
      <use xlink:href="#DejaVuSans-2f" transform="translate(960.009766 0.765625)"/>
      <use xlink:href="#DejaVuSans-6d" transform="translate(993.701172 0.765625)"/>
      <use xlink:href="#DejaVuSans-32" transform="translate(1092.070312 39.046875) scale(0.7)"/>
      <use xlink:href="#DejaVuSans-5d" transform="translate(1139.34082 0.765625)"/>
     </g>
    </g>
   </g>
   <g id="line2d_21">
    <path d="M 54.15 169.193893 
L 124.228723 169.181432 
L 124.909099 169.069282 
L 126.269851 168.994516 
L 129.331543 168.446229 
L 131.372671 167.63626 
L 133.073611 166.788907 
L 133.413799 166.714141 
L 133.753987 166.82629 
L 135.114739 166.527224 
L 136.475491 166.327847 
L 136.815679 166.327847 
L 138.856806 165.65495 
L 139.537182 165.580183 
L 140.217558 165.580183 
L 140.897934 165.704794 
L 144.299814 165.804482 
L 144.98019 166.103548 
L 145.660566 166.464919 
L 146.000754 166.577069 
L 146.68113 166.24062 
L 147.361506 165.567722 
L 148.38207 164.172083 
L 149.742822 162.203234 
L 150.423198 153.330952 
L 150.763386 155.98516 
L 151.103574 157.72971 
L 151.443762 158.165847 
L 151.78395 161.405725 
L 152.124138 161.144043 
L 152.464326 154.128461 
L 152.804514 156.471142 
L 153.144702 161.530336 
L 153.48489 163.636257 
L 153.825077 164.02255 
L 154.165265 164.221927 
L 154.505453 163.56149 
L 154.845641 160.197002 
L 155.185829 163.449341 
L 155.866205 162.801365 
L 156.206393 155.773323 
L 156.546581 154.041234 
L 156.886769 149.904158 
L 157.226957 158.751517 
L 157.907333 149.168956 
L 158.247521 150.577057 
L 159.268085 159.324727 
L 159.608273 160.957127 
L 159.948461 161.256192 
L 160.288649 161.131582 
L 161.989589 159.411954 
L 162.329777 159.299804 
L 162.669965 157.95401 
L 163.350341 159.773325 
L 163.690529 155.698555 
L 164.030717 143.773313 
L 164.370905 141.517859 
L 164.711093 140.446208 
L 165.051281 139.872998 
L 165.391469 146.402599 
L 165.731657 150.73905 
L 166.071845 141.841847 
L 166.412033 152.421294 
L 166.752221 152.670515 
L 167.092409 140.147141 
L 167.432597 136.820038 
L 167.772785 136.658042 
L 168.112973 136.334053 
L 168.453161 150.315374 
L 168.793349 157.044351 
L 169.133536 157.393261 
L 169.473724 152.994504 
L 169.813912 157.679865 
L 170.1541 155.150269 
L 170.494288 139.586393 
L 170.834476 134.98826 
L 171.174664 133.592618 
L 172.195228 132.969565 
L 172.535416 132.508508 
L 173.215792 131.237477 
L 173.896168 130.56458 
L 174.576544 129.580156 
L 175.25692 127.910374 
L 175.597108 128.944641 
L 175.937296 128.969565 
L 176.277484 125.256164 
L 176.95786 122.851179 
L 178.318612 117.069244 
L 178.6588 115.910363 
L 178.998988 115.885443 
L 179.339176 116.770176 
L 180.019552 136.695427 
L 180.35974 111.673599 
L 180.699928 133.929069 
L 181.040116 114.81379 
L 181.380304 113.330924 
L 181.720492 113.742137 
L 182.06068 118.801332 
L 182.400868 116.844943 
L 182.741056 113.430611 
L 183.081244 113.505378 
L 183.421432 114.066126 
L 183.76162 114.925939 
L 184.101808 114.302885 
L 184.441995 114.60195 
L 184.782183 115.349615 
L 185.122371 115.399458 
L 185.462559 141.16895 
L 185.802747 153.53033 
L 186.142935 152.94466 
L 186.483123 139.287328 
L 186.823311 113.268618 
L 187.163499 112.209427 
L 187.503687 113.829366 
L 187.843875 117.467996 
L 188.184063 112.346496 
L 188.524251 112.209427 
L 188.864439 121.717221 
L 189.204627 137.19387 
L 189.544815 139.337172 
L 189.885003 139.823155 
L 190.225191 142.826271 
L 190.565379 142.826271 
L 190.905567 140.59574 
L 191.245755 141.792004 
L 191.585943 147.063034 
L 191.926131 149.193878 
L 192.266319 147.274874 
L 192.946695 137.418168 
L 193.286883 135.137794 
L 193.627071 135.038103 
L 193.967259 138.788885 
L 194.647635 143.449324 
L 194.987823 144.583282 
L 195.328011 143.760851 
L 195.668199 141.816926 
L 196.348575 140.707889 
L 197.028951 135.985145 
L 197.709327 138.240599 
L 198.049515 138.763964 
L 198.389703 138.639353 
L 199.410267 135.636237 
L 199.750454 136.383901 
L 200.43083 140.221908 
L 201.111206 144.022534 
L 201.451394 144.944653 
L 202.13177 144.072378 
L 202.471958 144.78266 
L 202.812146 144.982036 
L 203.152334 143.810697 
L 203.492522 143.249948 
L 203.83271 142.34029 
L 204.172898 140.408824 
L 204.853274 133.24371 
L 205.193462 129.380779 
L 205.53365 126.975794 
L 205.873838 128.658038 
L 207.23459 141.343405 
L 207.574778 143.449324 
L 207.914966 142.676739 
L 208.93553 132.084832 
L 209.275718 130.502275 
L 209.615906 134.975798 
L 209.956094 134.901031 
L 210.296282 136.383901 
L 211.316846 152.184534 
L 211.657034 155.7484 
L 211.997222 157.61756 
L 212.677598 159.424415 
L 213.017786 159.873013 
L 213.698162 159.287344 
L 214.03835 158.763979 
L 214.718726 156.658058 
L 215.399101 153.081731 
L 215.739289 152.408834 
L 216.079477 152.408834 
L 216.419665 153.18142 
L 216.759853 154.925969 
L 217.440229 159.922858 
L 217.780417 161.567719 
L 218.120605 162.402611 
L 218.460793 162.377688 
L 218.800981 161.542797 
L 219.481357 158.041237 
L 220.842109 149.193878 
L 221.182297 148.595746 
L 221.862673 152.95712 
L 222.202861 153.567713 
L 222.543049 153.094193 
L 223.563613 149.555248 
L 223.903801 148.807584 
L 224.243989 147.661166 
L 224.584177 145.468019 
L 225.604741 133.929069 
L 225.944929 134.365206 
L 226.285117 138.103527 
L 226.625305 138.502281 
L 226.965493 139.29979 
L 227.305681 140.483592 
L 227.645869 139.760849 
L 227.986057 139.89792 
L 228.326245 140.633124 
L 228.666433 142.165836 
L 229.006621 142.70166 
L 229.346809 141.63001 
L 229.686997 142.003842 
L 230.027185 141.729698 
L 230.367372 141.04434 
L 230.70756 143.798235 
L 231.047748 144.79512 
L 231.387936 144.072378 
L 231.728124 142.851195 
L 232.4085 137.492935 
L 232.748688 137.43063 
L 233.429064 143.474248 
L 233.769252 143.623781 
L 234.10944 144.08484 
L 234.449628 145.181414 
L 234.789816 144.047456 
L 235.130004 141.667393 
L 235.470192 137.492935 
L 236.150568 125.44308 
L 236.490756 124.234359 
L 236.830944 126.913489 
L 237.171132 127.449313 
L 237.51132 124.944637 
L 238.191696 97.069229 
L 238.531884 105.816897 
L 238.872072 97.181374 
L 239.552448 129.468008 
L 239.892636 124.770183 
L 240.232824 126.402584 
L 240.9132 138.913496 
L 241.593576 143.873002 
L 241.933764 143.362097 
L 242.273952 141.430632 
L 242.954328 135.897916 
L 243.294516 134.888573 
L 243.634704 134.813805 
L 244.31508 137.243714 
L 244.655268 137.355863 
L 244.995456 137.031874 
L 245.335644 138.265521 
L 246.016019 143.362097 
L 246.356207 143.835618 
L 247.036583 140.383903 
L 247.716959 138.452437 
L 248.057147 138.95088 
L 249.417899 148.807584 
L 249.758087 150.115996 
L 250.438463 150.913506 
L 251.459027 153.492947 
L 251.799215 153.056809 
L 252.139403 151.985156 
L 252.479591 151.299798 
L 252.819779 151.561481 
L 253.500155 153.318491 
L 253.840343 153.654941 
L 254.180531 153.268647 
L 254.520719 152.196996 
L 254.860907 150.377679 
L 255.541283 144.919731 
L 256.561847 136.234366 
L 257.242223 132.6705 
L 257.582411 131.872992 
L 257.922599 131.910374 
L 258.262787 132.321592 
L 258.602975 132.458664 
L 258.943163 131.810687 
L 259.283351 130.614424 
L 259.963727 127.075481 
L 260.303915 124.707878 
L 260.644103 120.994481 
L 261.324478 107.710981 
L 261.664666 99.810664 
L 262.004854 79.51158 
L 262.345042 69.605031 
L 262.68523 97.044305 
L 263.025418 112.894786 
L 263.365606 114.502263 
L 264.045982 112.15958 
L 264.38617 113.019397 
L 264.726358 114.975782 
L 265.066546 110.153351 
L 265.406734 102.240573 
L 266.08711 110.140889 
L 266.427298 112.620641 
L 267.78805 131.536542 
L 268.128238 133.791996 
L 268.468426 134.115985 
L 269.148802 131.723458 
L 269.829178 126.028752 
L 271.18993 120.358966 
L 272.210494 115.013168 
L 272.550682 119.524073 
L 272.89087 120.246817 
L 273.571246 124.658034 
L 274.59181 131.897916 
L 275.272186 135.063027 
L 275.952562 136.919725 
L 277.313313 142.153374 
L 277.653501 145.630011 
L 277.993689 147.723471 
L 278.333877 148.433752 
L 278.674065 148.545903 
L 279.014253 148.807584 
L 279.354441 149.468021 
L 279.694629 151.399487 
L 281.055381 162.689215 
L 281.395569 163.56149 
L 281.735757 162.826287 
L 282.075945 159.860552 
L 283.436697 139.324712 
L 284.797449 133.654924 
L 285.137637 133.941531 
L 285.477825 135.025641 
L 286.158201 140.533435 
L 286.838577 146.203221 
L 287.178765 147.187645 
L 287.518953 146.290448 
L 288.199329 142.277985 
L 288.539517 141.0568 
L 288.879705 140.720351 
L 289.219893 141.729698 
L 289.560081 143.137798 
L 289.900269 143.773313 
L 290.240457 145.144031 
L 291.261021 152.383912 
L 291.601208 160.284229 
L 291.941396 156.533448 
L 292.281584 155.785783 
L 292.621772 155.897933 
L 292.96196 154.70167 
L 293.302148 152.084845 
L 293.982524 142.427517 
L 294.322712 137.617546 
L 294.6629 135.611313 
L 295.003088 137.293557 
L 295.683464 144.745277 
L 296.023652 145.954 
L 296.704028 145.567706 
L 297.724592 147.449328 
L 298.06478 147.636244 
L 298.745156 148.832508 
L 299.425532 150.315374 
L 299.76572 150.888584 
L 300.105908 150.577057 
L 301.126472 144.147145 
L 301.806848 143.087954 
L 302.487224 140.533435 
L 302.827412 140.059914 
L 303.1676 140.371441 
L 303.847976 142.439979 
L 304.188164 142.751506 
L 304.528352 142.190758 
L 304.86854 141.106645 
L 305.208728 139.524088 
L 306.229292 130.464893 
L 306.569479 130.302897 
L 307.249855 140.097298 
L 307.590043 143.025649 
L 307.930231 142.215679 
L 308.270419 138.539664 
L 308.610607 136.221905 
L 308.950795 137.854305 
L 309.290983 140.184525 
L 309.631171 140.47113 
L 309.971359 139.324712 
L 310.311547 137.592622 
L 311.332111 130.003832 
L 311.672299 128.807569 
L 312.012487 128.932179 
L 312.352675 130.876107 
L 313.033051 136.221905 
L 313.373239 137.667389 
L 314.393803 144.832504 
L 314.733991 146.390137 
L 315.074179 146.975807 
L 315.414367 146.925964 
L 315.754555 147.013191 
L 316.094743 148.097303 
L 316.434931 150.265531 
L 316.775119 151.524097 
L 317.115307 150.489828 
L 317.795683 146.963347 
L 318.135871 144.732815 
L 318.476059 143.947767 
L 318.816247 145.567706 
L 319.156435 148.39637 
L 319.496623 150.215685 
L 319.836811 150.003847 
L 320.176999 148.209454 
L 320.857375 143.735929 
L 321.197563 142.539668 
L 321.877939 141.642469 
L 322.218126 140.670508 
L 322.558314 140.097298 
L 322.898502 140.383903 
L 323.23869 141.019416 
L 323.578878 140.271752 
L 323.919066 143.063032 
L 324.259254 143.49917 
L 324.599442 143.63624 
L 324.93963 143.287332 
L 325.960194 140.795118 
L 326.300382 141.031878 
L 326.64057 141.75462 
L 327.661134 146.066149 
L 328.001322 146.477365 
L 328.34151 146.253065 
L 328.681698 145.293563 
L 329.021886 145.01942 
L 329.362074 145.492941 
L 329.702262 144.969576 
L 330.722826 140.969573 
L 331.063014 141.18141 
L 331.74339 145.854311 
L 332.423766 150.72659 
L 332.763954 151.536559 
L 333.104142 150.352758 
L 333.44433 151.835624 
L 334.124706 156.807591 
L 334.464894 158.66429 
L 334.805082 159.611331 
L 335.14527 160.035008 
L 335.485458 160.982049 
L 335.825646 161.443108 
L 336.165834 161.530336 
L 336.506022 161.193887 
L 336.84621 158.302919 
L 337.186397 150.514752 
L 337.526585 150.514752 
L 338.547149 158.140926 
L 338.887337 157.605099 
L 339.227525 157.468028 
L 339.567713 158.527219 
L 340.248089 162.265539 
L 340.588277 162.676754 
L 340.928465 162.714137 
L 341.268653 162.477377 
L 341.608841 161.193887 
L 341.949029 157.630021 
L 342.629405 146.415059 
L 342.969593 146.415059 
L 343.309781 149.20634 
L 343.990157 141.76708 
L 344.330345 141.019416 
L 344.670533 143.461786 
L 345.010721 147.087958 
L 345.691097 155.935316 
L 346.371473 159.225038 
L 347.051849 162.190772 
L 347.732225 164.25931 
L 348.072413 164.695448 
L 348.412601 164.633142 
L 349.092977 163.79825 
L 349.433165 163.823173 
L 350.113541 165.343423 
L 350.453729 165.505417 
L 351.474293 165.418189 
L 352.494856 164.520992 
L 353.175232 164.707908 
L 353.51542 164.334076 
L 353.855608 163.274885 
L 354.535984 160.433761 
L 355.21636 158.215692 
L 355.896736 155.760861 
L 356.577112 153.8917 
L 357.257488 153.53033 
L 357.937864 154.81382 
L 358.278052 153.904162 
L 358.958428 148.919735 
L 359.298616 144.720355 
L 359.978992 124.982023 
L 360.31918 106.115962 
L 360.659368 69.767023 
L 360.999556 57.567641 
L 361.339744 69.841794 
L 361.679932 95.212527 
L 362.02012 104.433718 
L 362.360308 117.443076 
L 362.700496 134.938416 
L 363.040684 144.844966 
L 363.380872 151.175187 
L 363.72106 154.46491 
L 364.061248 156.471142 
L 364.401436 157.555255 
L 365.081812 158.626906 
L 365.762188 159.24996 
L 366.782752 161.355881 
L 367.12294 161.405725 
L 367.463128 160.782672 
L 368.143503 158.302919 
L 368.823879 155.686094 
L 369.164067 155.200113 
L 369.504255 156.20946 
L 369.844443 157.592638 
L 370.184631 158.302919 
L 370.524819 157.866781 
L 370.865007 156.134693 
L 371.545383 151.287338 
L 371.885571 149.79201 
L 372.225759 149.318489 
L 372.565947 150.614439 
L 372.906135 153.006966 
L 373.926699 156.90728 
L 374.266887 157.567716 
L 374.947263 158.390147 
L 375.627639 159.835631 
L 375.967827 160.047469 
L 376.308015 159.411954 
L 376.648203 157.978931 
L 376.988391 157.517872 
L 377.328579 158.502296 
L 377.668767 159.075506 
L 378.008955 159.212577 
L 378.689331 160.446223 
L 379.029519 161.131582 
L 379.709895 163.449341 
L 380.050083 164.097316 
L 380.390271 163.885478 
L 380.730459 166.988284 
L 381.070647 166.651835 
L 381.410835 165.281118 
L 381.751023 165.218812 
L 382.431399 164.832519 
L 382.771587 164.944669 
L 383.111774 165.480495 
L 383.451962 165.380806 
L 384.472526 163.823173 
L 385.833278 160.570834 
L 386.513654 159.673636 
L 386.853842 159.225038 
L 387.19403 157.72971 
L 387.534218 157.181423 
L 388.214594 154.415066 
L 388.554782 155.387029 
L 388.89497 155.137807 
L 389.575346 154.253072 
L 390.255722 153.754629 
L 390.59591 153.76709 
L 390.936098 153.904162 
L 391.956662 154.838742 
L 392.637038 155.511639 
L 392.977226 155.611328 
L 393.317414 155.39949 
L 393.657602 154.888586 
L 393.99779 154.614443 
L 395.018354 154.539677 
L 395.69873 154.190766 
L 396.379106 154.103539 
L 396.719294 153.754629 
L 397.39967 152.196996 
L 398.080046 151.611324 
L 398.420233 149.106651 
L 398.760421 147.947771 
L 399.100609 150.228147 
L 399.440797 150.128458 
L 399.780985 150.265531 
L 401.822113 152.745282 
L 402.842677 155.698555 
L 403.182865 155.823166 
L 403.523053 155.200113 
L 403.863241 154.863664 
L 404.203429 154.913509 
L 404.543617 155.200113 
L 405.223993 156.358992 
L 405.564181 156.969585 
L 405.904369 157.293573 
L 406.244557 157.218806 
L 406.584745 156.957124 
L 406.924933 156.932201 
L 407.265121 157.131578 
L 408.966061 159.050583 
L 409.306249 159.212577 
L 409.986625 159.225038 
L 412.027753 160.221924 
L 413.728692 159.972702 
L 414.409068 160.097313 
L 415.76982 159.860552 
L 416.110008 159.848092 
L 416.790384 160.209463 
L 417.810948 160.932204 
L 419.1717 161.144043 
L 421.212828 162.253078 
L 422.233392 162.901053 
L 426.996024 164.707908 
L 428.016588 165.156507 
L 429.377339 166.228159 
L 430.057715 166.763985 
L 431.078279 167.324733 
L 432.439031 167.823176 
L 433.799783 168.197008 
L 436.861475 168.57084 
L 439.242791 168.57084 
L 439.923167 168.69545 
L 440.603543 168.770217 
L 441.624107 168.820061 
L 446.386738 169.069282 
L 447.067114 169.069282 
L 447.74749 169.193893 
L 543.6805 169.193893 
L 543.6805 169.193893 
" clip-path="url(#p30fb058943)" style="fill: none; stroke: #ffae49; stroke-width: 1.5; stroke-linecap: square"/>
   </g>
   <g id="line2d_22">
    <path d="M 54.15 169.193893 
L 198.389703 169.094205 
L 200.090642 169.069282 
L 203.492522 169.006977 
L 204.172898 168.944672 
L 204.853274 168.844983 
L 205.873838 168.69545 
L 207.574778 168.359002 
L 210.296282 168.072397 
L 210.63647 168.172086 
L 211.997222 168.097319 
L 212.677598 168.197008 
L 213.698162 168.172086 
L 214.378538 168.072397 
L 218.460793 167.698565 
L 218.800981 167.573954 
L 219.481357 167.499188 
L 220.842109 167.087973 
L 221.522485 167.150278 
L 222.202861 167.324733 
L 222.883237 167.262427 
L 226.285117 166.726602 
L 226.965493 167.06305 
L 228.666433 167.399499 
L 230.027185 167.200122 
L 230.367372 167.536571 
L 230.70756 168.10978 
L 231.047748 168.047475 
L 231.387936 167.848098 
L 231.728124 167.785792 
L 232.068312 168.022553 
L 232.748688 165.854327 
L 233.429064 165.879249 
L 234.10944 166.390153 
L 234.789816 166.639374 
L 235.81038 166.726602 
L 236.490756 166.614452 
L 238.191696 166.078626 
L 238.531884 166.078626 
L 239.21226 166.327847 
L 240.573012 166.35277 
L 241.253388 166.452458 
L 242.273952 166.452458 
L 243.634704 166.078626 
L 244.995456 166.165854 
L 245.675831 166.452458 
L 246.356207 166.464919 
L 246.696395 166.577069 
L 247.716959 166.452458 
L 248.057147 166.327847 
L 249.077711 166.402614 
L 249.758087 167.06305 
L 250.098275 167.200122 
L 250.778651 167.299811 
L 251.118839 167.324733 
L 251.799215 167.200122 
L 252.819779 167.075511 
L 255.881471 166.452458 
L 256.561847 166.439997 
L 257.582411 166.078626 
L 258.602975 166.577069 
L 259.283351 166.439997 
L 259.963727 166.327847 
L 261.324478 166.340308 
L 262.004854 166.452458 
L 262.68523 166.153392 
L 263.365606 165.742177 
L 264.045982 165.65495 
L 265.406734 166.078626 
L 266.427298 166.053704 
L 266.767486 165.954015 
L 267.107674 166.078626 
L 268.468426 165.991398 
L 269.148802 165.480495 
L 270.169366 164.558375 
L 271.18993 164.658064 
L 272.550682 164.95713 
L 273.231058 165.455573 
L 273.571246 165.355884 
L 273.911434 165.380806 
L 274.59181 165.580183 
L 275.612374 165.829405 
L 276.973125 165.330962 
L 277.313313 165.443111 
L 278.674065 165.256195 
L 279.354441 165.330962 
L 280.375005 165.168968 
L 281.735757 165.605105 
L 282.416133 165.704794 
L 283.776885 165.5428 
L 284.117073 165.318501 
L 284.797449 165.330962 
L 287.518953 166.489841 
L 288.199329 166.950901 
L 288.539517 166.913518 
L 289.219893 166.626913 
L 290.920833 167.324733 
L 291.601208 167.137817 
L 291.941396 166.963362 
L 292.96196 166.950901 
L 295.003088 165.978937 
L 296.704028 164.296693 
L 298.404968 163.511646 
L 299.085344 162.751521 
L 299.76572 161.517875 
L 300.786284 159.274883 
L 301.126472 158.763979 
L 301.46666 158.701674 
L 301.806848 159.573948 
L 302.487224 161.667407 
L 302.827412 162.265539 
L 303.847976 164.932208 
L 304.188164 165.368345 
L 305.208728 165.580183 
L 305.548916 165.505417 
L 306.229292 165.106663 
L 306.569479 164.95713 
L 307.249855 164.109777 
L 307.590043 164.02255 
L 308.610607 162.988281 
L 309.971359 163.287346 
L 310.651735 163.723484 
L 311.672299 165.343423 
L 312.012487 165.443111 
L 312.352675 165.243734 
L 313.033051 164.172083 
L 313.713427 164.458687 
L 314.053615 164.334076 
L 314.733991 163.611334 
L 315.074179 163.848094 
L 315.754555 164.907285 
L 316.094743 165.131585 
L 316.775119 165.168968 
L 317.795683 164.246849 
L 318.135871 164.134699 
L 318.476059 164.172083 
L 318.816247 164.084855 
L 319.156435 164.209466 
L 319.496623 164.010089 
L 320.176999 163.075509 
L 320.517187 162.851209 
L 320.857375 162.876131 
L 322.218126 164.446226 
L 322.558314 164.25931 
L 322.898502 163.536568 
L 323.578878 161.019432 
L 323.919066 160.309151 
L 324.259254 159.910397 
L 324.599442 160.358995 
L 325.960194 164.520992 
L 326.300382 164.695448 
L 326.64057 165.08174 
L 326.980758 165.293579 
L 327.320946 164.857441 
L 328.001322 163.10043 
L 329.021886 162.190772 
L 329.702262 161.405725 
L 330.382638 161.667407 
L 331.403202 159.860552 
L 331.74339 159.947781 
L 334.124706 161.81694 
L 335.485458 161.81694 
L 336.165834 161.505414 
L 336.506022 161.480491 
L 337.186397 161.605102 
L 338.206961 160.969588 
L 338.887337 160.969588 
L 339.227525 161.094198 
L 339.567713 161.094198 
L 339.907901 161.281115 
L 340.588277 162.253078 
L 340.928465 162.302922 
L 341.268653 162.215695 
L 341.608841 162.439994 
L 343.309781 165.692333 
L 343.990157 166.35277 
L 345.010721 166.577069 
L 346.031285 166.564608 
L 346.711661 166.452458 
L 347.051849 166.452458 
L 347.732225 166.577069 
L 348.072413 166.527224 
L 348.412601 166.278003 
L 349.433165 165.094201 
L 349.773353 164.95713 
L 350.453729 165.019435 
L 352.154669 165.368345 
L 353.51542 166.016321 
L 354.876172 166.888595 
L 355.896736 167.262427 
L 356.236924 167.299811 
L 356.9173 167.200122 
L 357.597676 167.125356 
L 358.61824 167.075511 
L 359.298616 167.299811 
L 359.978992 167.63626 
L 360.999556 167.823176 
L 362.700496 167.573954 
L 363.380872 167.623798 
L 364.401436 167.573954 
L 364.741624 167.573954 
L 365.762188 167.947786 
L 367.803315 167.960247 
L 368.143503 168.072397 
L 369.164067 167.885481 
L 369.844443 167.835637 
L 371.205195 168.172086 
L 372.906135 168.34654 
L 373.926699 168.57084 
L 374.266887 168.57084 
L 374.947263 168.69545 
L 375.627639 168.795139 
L 380.050083 169.069282 
L 381.070647 168.820061 
L 381.410835 168.757756 
L 382.431399 168.994516 
L 382.771587 169.15651 
L 383.79215 169.193893 
L 543.6805 169.193893 
L 543.6805 169.193893 
" clip-path="url(#p30fb058943)" style="fill: none; stroke: #024b7a; stroke-width: 1.5; stroke-linecap: square"/>
   </g>
   <g id="patch_3">
    <path d="M 54.15 170.44 
L 54.15 7.2 
" style="fill: none; stroke: #000000; stroke-width: 0.8; stroke-linejoin: miter; stroke-linecap: square"/>
   </g>
   <g id="patch_4">
    <path d="M 543.6805 170.44 
L 543.6805 7.2 
" style="fill: none; stroke: #000000; stroke-width: 0.8; stroke-linejoin: miter; stroke-linecap: square"/>
   </g>
   <g id="patch_5">
    <path d="M 54.15 170.44 
L 543.6805 170.44 
" style="fill: none; stroke: #000000; stroke-width: 0.8; stroke-linejoin: miter; stroke-linecap: square"/>
   </g>
   <g id="patch_6">
    <path d="M 54.15 7.2 
L 543.6805 7.2 
" style="fill: none; stroke: #000000; stroke-width: 0.8; stroke-linejoin: miter; stroke-linecap: square"/>
   </g>
   <g id="legend_1">
    <g id="patch_7">
     <path d="M 462.24925 44.55625 
L 536.6805 44.55625 
Q 538.6805 44.55625 538.6805 42.55625 
L 538.6805 14.2 
Q 538.6805 12.2 536.6805 12.2 
L 462.24925 12.2 
Q 460.24925 12.2 460.24925 14.2 
L 460.24925 42.55625 
Q 460.24925 44.55625 462.24925 44.55625 
z
" style="fill: #ffffff; opacity: 0.8; stroke: #cccccc; stroke-linejoin: miter"/>
    </g>
    <g id="line2d_23">
     <path d="M 464.24925 20.298438 
L 474.24925 20.298438 
L 484.24925 20.298438 
" style="fill: none; stroke: #ffae49; stroke-width: 1.5; stroke-linecap: square"/>
    </g>
    <g id="text_23">
     <!-- Summer -->
     <g transform="translate(492.24925 23.798438) scale(0.1 -0.1)">
      <defs>
       <path id="DejaVuSans-75" d="M 544 1381 
L 544 3500 
L 1119 3500 
L 1119 1403 
Q 1119 906 1312 657 
Q 1506 409 1894 409 
Q 2359 409 2629 706 
Q 2900 1003 2900 1516 
L 2900 3500 
L 3475 3500 
L 3475 0 
L 2900 0 
L 2900 538 
Q 2691 219 2414 64 
Q 2138 -91 1772 -91 
Q 1169 -91 856 284 
Q 544 659 544 1381 
z
M 1991 3584 
L 1991 3584 
z
" transform="scale(0.015625)"/>
      </defs>
      <use xlink:href="#DejaVuSans-53"/>
      <use xlink:href="#DejaVuSans-75" x="63.476562"/>
      <use xlink:href="#DejaVuSans-6d" x="126.855469"/>
      <use xlink:href="#DejaVuSans-6d" x="224.267578"/>
      <use xlink:href="#DejaVuSans-65" x="321.679688"/>
      <use xlink:href="#DejaVuSans-72" x="383.203125"/>
     </g>
    </g>
    <g id="line2d_24">
     <path d="M 464.24925 34.976562 
L 474.24925 34.976562 
L 484.24925 34.976562 
" style="fill: none; stroke: #024b7a; stroke-width: 1.5; stroke-linecap: square"/>
    </g>
    <g id="text_24">
     <!-- Winter -->
     <g transform="translate(492.24925 38.476562) scale(0.1 -0.1)">
      <defs>
       <path id="DejaVuSans-74" d="M 1172 4494 
L 1172 3500 
L 2356 3500 
L 2356 3053 
L 1172 3053 
L 1172 1153 
Q 1172 725 1289 603 
Q 1406 481 1766 481 
L 2356 481 
L 2356 0 
L 1766 0 
Q 1100 0 847 248 
Q 594 497 594 1153 
L 594 3053 
L 172 3053 
L 172 3500 
L 594 3500 
L 594 4494 
L 1172 4494 
z
" transform="scale(0.015625)"/>
      </defs>
      <use xlink:href="#DejaVuSans-57"/>
      <use xlink:href="#DejaVuSans-69" x="96.626953"/>
      <use xlink:href="#DejaVuSans-6e" x="124.410156"/>
      <use xlink:href="#DejaVuSans-74" x="187.789062"/>
      <use xlink:href="#DejaVuSans-65" x="226.998047"/>
      <use xlink:href="#DejaVuSans-72" x="288.521484"/>
     </g>
    </g>
   </g>
  </g>
 </g>
 <defs>
  <clipPath id="p30fb058943">
   <rect x="54.15" y="7.2" width="489.5305" height="163.24"/>
  </clipPath>
 </defs>
</svg>
