<?xml version="1.0" encoding="utf-8" standalone="no"?>
<!DOCTYPE svg PUBLIC "-//W3C//DTD SVG 1.1//EN"
  "http://www.w3.org/Graphics/SVG/1.1/DTD/svg11.dtd">
<svg xmlns:xlink="http://www.w3.org/1999/xlink" width="565.289875pt" height="207.99625pt" viewBox="0 0 565.289875 207.99625" xmlns="http://www.w3.org/2000/svg" version="1.1">
 <metadata>
  <rdf:RDF xmlns:dc="http://purl.org/dc/elements/1.1/" xmlns:cc="http://creativecommons.org/ns#" xmlns:rdf="http://www.w3.org/1999/02/22-rdf-syntax-ns#">
   <cc:Work>
    <dc:type rdf:resource="http://purl.org/dc/dcmitype/StillImage"/>
    <dc:date>2024-05-15T16:24:07.706425</dc:date>
    <dc:format>image/svg+xml</dc:format>
    <dc:creator>
     <cc:Agent>
      <dc:title>Matplotlib v3.8.2, https://matplotlib.org/</dc:title>
     </cc:Agent>
    </dc:creator>
   </cc:Work>
  </rdf:RDF>
 </metadata>
 <defs>
  <style type="text/css">*{stroke-linejoin: round; stroke-linecap: butt}</style>
 </defs>
 <g id="figure_1">
  <g id="patch_1">
   <path d="M 0 207.99625 
L 565.289875 207.99625 
L 565.289875 0 
L 0 0 
z
" style="fill: #ffffff"/>
  </g>
  <g id="axes_1">
   <g id="patch_2">
    <path d="M 54.15 170.44 
L 543.6805 170.44 
L 543.6805 7.2 
L 54.15 7.2 
z
" style="fill: #ffffff"/>
   </g>
   <g id="matplotlib.axis_1">
    <g id="xtick_1">
     <g id="line2d_1">
      <defs>
       <path id="me33b987a1c" d="M 0 0 
L 0 3.5 
" style="stroke: #000000; stroke-width: 0.8"/>
      </defs>
      <g>
       <use xlink:href="#me33b987a1c" x="54.15" y="170.44" style="stroke: #000000; stroke-width: 0.8"/>
      </g>
     </g>
     <g id="text_1">
      <!-- 00:00 -->
      <g transform="translate(39.740625 185.038437) scale(0.1 -0.1)">
       <defs>
        <path id="DejaVuSans-30" d="M 2034 4250 
Q 1547 4250 1301 3770 
Q 1056 3291 1056 2328 
Q 1056 1369 1301 889 
Q 1547 409 2034 409 
Q 2525 409 2770 889 
Q 3016 1369 3016 2328 
Q 3016 3291 2770 3770 
Q 2525 4250 2034 4250 
z
M 2034 4750 
Q 2819 4750 3233 4129 
Q 3647 3509 3647 2328 
Q 3647 1150 3233 529 
Q 2819 -91 2034 -91 
Q 1250 -91 836 529 
Q 422 1150 422 2328 
Q 422 3509 836 4129 
Q 1250 4750 2034 4750 
z
" transform="scale(0.015625)"/>
        <path id="DejaVuSans-3a" d="M 750 794 
L 1409 794 
L 1409 0 
L 750 0 
L 750 794 
z
M 750 3309 
L 1409 3309 
L 1409 2516 
L 750 2516 
L 750 3309 
z
" transform="scale(0.015625)"/>
       </defs>
       <use xlink:href="#DejaVuSans-30"/>
       <use xlink:href="#DejaVuSans-30" x="63.623047"/>
       <use xlink:href="#DejaVuSans-3a" x="127.246094"/>
       <use xlink:href="#DejaVuSans-30" x="160.9375"/>
       <use xlink:href="#DejaVuSans-30" x="224.560547"/>
      </g>
     </g>
    </g>
    <g id="xtick_2">
     <g id="line2d_2">
      <g>
       <use xlink:href="#me33b987a1c" x="94.944208" y="170.44" style="stroke: #000000; stroke-width: 0.8"/>
      </g>
     </g>
     <g id="text_2">
      <!-- 02:00 -->
      <g transform="translate(80.534833 185.038437) scale(0.1 -0.1)">
       <defs>
        <path id="DejaVuSans-32" d="M 1228 531 
L 3431 531 
L 3431 0 
L 469 0 
L 469 531 
Q 828 903 1448 1529 
Q 2069 2156 2228 2338 
Q 2531 2678 2651 2914 
Q 2772 3150 2772 3378 
Q 2772 3750 2511 3984 
Q 2250 4219 1831 4219 
Q 1534 4219 1204 4116 
Q 875 4013 500 3803 
L 500 4441 
Q 881 4594 1212 4672 
Q 1544 4750 1819 4750 
Q 2544 4750 2975 4387 
Q 3406 4025 3406 3419 
Q 3406 3131 3298 2873 
Q 3191 2616 2906 2266 
Q 2828 2175 2409 1742 
Q 1991 1309 1228 531 
z
" transform="scale(0.015625)"/>
       </defs>
       <use xlink:href="#DejaVuSans-30"/>
       <use xlink:href="#DejaVuSans-32" x="63.623047"/>
       <use xlink:href="#DejaVuSans-3a" x="127.246094"/>
       <use xlink:href="#DejaVuSans-30" x="160.9375"/>
       <use xlink:href="#DejaVuSans-30" x="224.560547"/>
      </g>
     </g>
    </g>
    <g id="xtick_3">
     <g id="line2d_3">
      <g>
       <use xlink:href="#me33b987a1c" x="135.738417" y="170.44" style="stroke: #000000; stroke-width: 0.8"/>
      </g>
     </g>
     <g id="text_3">
      <!-- 04:00 -->
      <g transform="translate(121.329042 185.038437) scale(0.1 -0.1)">
       <defs>
        <path id="DejaVuSans-34" d="M 2419 4116 
L 825 1625 
L 2419 1625 
L 2419 4116 
z
M 2253 4666 
L 3047 4666 
L 3047 1625 
L 3713 1625 
L 3713 1100 
L 3047 1100 
L 3047 0 
L 2419 0 
L 2419 1100 
L 313 1100 
L 313 1709 
L 2253 4666 
z
" transform="scale(0.015625)"/>
       </defs>
       <use xlink:href="#DejaVuSans-30"/>
       <use xlink:href="#DejaVuSans-34" x="63.623047"/>
       <use xlink:href="#DejaVuSans-3a" x="127.246094"/>
       <use xlink:href="#DejaVuSans-30" x="160.9375"/>
       <use xlink:href="#DejaVuSans-30" x="224.560547"/>
      </g>
     </g>
    </g>
    <g id="xtick_4">
     <g id="line2d_4">
      <g>
       <use xlink:href="#me33b987a1c" x="176.532625" y="170.44" style="stroke: #000000; stroke-width: 0.8"/>
      </g>
     </g>
     <g id="text_4">
      <!-- 06:00 -->
      <g transform="translate(162.12325 185.038437) scale(0.1 -0.1)">
       <defs>
        <path id="DejaVuSans-36" d="M 2113 2584 
Q 1688 2584 1439 2293 
Q 1191 2003 1191 1497 
Q 1191 994 1439 701 
Q 1688 409 2113 409 
Q 2538 409 2786 701 
Q 3034 994 3034 1497 
Q 3034 2003 2786 2293 
Q 2538 2584 2113 2584 
z
M 3366 4563 
L 3366 3988 
Q 3128 4100 2886 4159 
Q 2644 4219 2406 4219 
Q 1781 4219 1451 3797 
Q 1122 3375 1075 2522 
Q 1259 2794 1537 2939 
Q 1816 3084 2150 3084 
Q 2853 3084 3261 2657 
Q 3669 2231 3669 1497 
Q 3669 778 3244 343 
Q 2819 -91 2113 -91 
Q 1303 -91 875 529 
Q 447 1150 447 2328 
Q 447 3434 972 4092 
Q 1497 4750 2381 4750 
Q 2619 4750 2861 4703 
Q 3103 4656 3366 4563 
z
" transform="scale(0.015625)"/>
       </defs>
       <use xlink:href="#DejaVuSans-30"/>
       <use xlink:href="#DejaVuSans-36" x="63.623047"/>
       <use xlink:href="#DejaVuSans-3a" x="127.246094"/>
       <use xlink:href="#DejaVuSans-30" x="160.9375"/>
       <use xlink:href="#DejaVuSans-30" x="224.560547"/>
      </g>
     </g>
    </g>
    <g id="xtick_5">
     <g id="line2d_5">
      <g>
       <use xlink:href="#me33b987a1c" x="217.326833" y="170.44" style="stroke: #000000; stroke-width: 0.8"/>
      </g>
     </g>
     <g id="text_5">
      <!-- 08:00 -->
      <g transform="translate(202.917458 185.038437) scale(0.1 -0.1)">
       <defs>
        <path id="DejaVuSans-38" d="M 2034 2216 
Q 1584 2216 1326 1975 
Q 1069 1734 1069 1313 
Q 1069 891 1326 650 
Q 1584 409 2034 409 
Q 2484 409 2743 651 
Q 3003 894 3003 1313 
Q 3003 1734 2745 1975 
Q 2488 2216 2034 2216 
z
M 1403 2484 
Q 997 2584 770 2862 
Q 544 3141 544 3541 
Q 544 4100 942 4425 
Q 1341 4750 2034 4750 
Q 2731 4750 3128 4425 
Q 3525 4100 3525 3541 
Q 3525 3141 3298 2862 
Q 3072 2584 2669 2484 
Q 3125 2378 3379 2068 
Q 3634 1759 3634 1313 
Q 3634 634 3220 271 
Q 2806 -91 2034 -91 
Q 1263 -91 848 271 
Q 434 634 434 1313 
Q 434 1759 690 2068 
Q 947 2378 1403 2484 
z
M 1172 3481 
Q 1172 3119 1398 2916 
Q 1625 2713 2034 2713 
Q 2441 2713 2670 2916 
Q 2900 3119 2900 3481 
Q 2900 3844 2670 4047 
Q 2441 4250 2034 4250 
Q 1625 4250 1398 4047 
Q 1172 3844 1172 3481 
z
" transform="scale(0.015625)"/>
       </defs>
       <use xlink:href="#DejaVuSans-30"/>
       <use xlink:href="#DejaVuSans-38" x="63.623047"/>
       <use xlink:href="#DejaVuSans-3a" x="127.246094"/>
       <use xlink:href="#DejaVuSans-30" x="160.9375"/>
       <use xlink:href="#DejaVuSans-30" x="224.560547"/>
      </g>
     </g>
    </g>
    <g id="xtick_6">
     <g id="line2d_6">
      <g>
       <use xlink:href="#me33b987a1c" x="258.121042" y="170.44" style="stroke: #000000; stroke-width: 0.8"/>
      </g>
     </g>
     <g id="text_6">
      <!-- 10:00 -->
      <g transform="translate(243.711667 185.038437) scale(0.1 -0.1)">
       <defs>
        <path id="DejaVuSans-31" d="M 794 531 
L 1825 531 
L 1825 4091 
L 703 3866 
L 703 4441 
L 1819 4666 
L 2450 4666 
L 2450 531 
L 3481 531 
L 3481 0 
L 794 0 
L 794 531 
z
" transform="scale(0.015625)"/>
       </defs>
       <use xlink:href="#DejaVuSans-31"/>
       <use xlink:href="#DejaVuSans-30" x="63.623047"/>
       <use xlink:href="#DejaVuSans-3a" x="127.246094"/>
       <use xlink:href="#DejaVuSans-30" x="160.9375"/>
       <use xlink:href="#DejaVuSans-30" x="224.560547"/>
      </g>
     </g>
    </g>
    <g id="xtick_7">
     <g id="line2d_7">
      <g>
       <use xlink:href="#me33b987a1c" x="298.91525" y="170.44" style="stroke: #000000; stroke-width: 0.8"/>
      </g>
     </g>
     <g id="text_7">
      <!-- 12:00 -->
      <g transform="translate(284.505875 185.038437) scale(0.1 -0.1)">
       <use xlink:href="#DejaVuSans-31"/>
       <use xlink:href="#DejaVuSans-32" x="63.623047"/>
       <use xlink:href="#DejaVuSans-3a" x="127.246094"/>
       <use xlink:href="#DejaVuSans-30" x="160.9375"/>
       <use xlink:href="#DejaVuSans-30" x="224.560547"/>
      </g>
     </g>
    </g>
    <g id="xtick_8">
     <g id="line2d_8">
      <g>
       <use xlink:href="#me33b987a1c" x="339.709458" y="170.44" style="stroke: #000000; stroke-width: 0.8"/>
      </g>
     </g>
     <g id="text_8">
      <!-- 14:00 -->
      <g transform="translate(325.300083 185.038437) scale(0.1 -0.1)">
       <use xlink:href="#DejaVuSans-31"/>
       <use xlink:href="#DejaVuSans-34" x="63.623047"/>
       <use xlink:href="#DejaVuSans-3a" x="127.246094"/>
       <use xlink:href="#DejaVuSans-30" x="160.9375"/>
       <use xlink:href="#DejaVuSans-30" x="224.560547"/>
      </g>
     </g>
    </g>
    <g id="xtick_9">
     <g id="line2d_9">
      <g>
       <use xlink:href="#me33b987a1c" x="380.503667" y="170.44" style="stroke: #000000; stroke-width: 0.8"/>
      </g>
     </g>
     <g id="text_9">
      <!-- 16:00 -->
      <g transform="translate(366.094292 185.038437) scale(0.1 -0.1)">
       <use xlink:href="#DejaVuSans-31"/>
       <use xlink:href="#DejaVuSans-36" x="63.623047"/>
       <use xlink:href="#DejaVuSans-3a" x="127.246094"/>
       <use xlink:href="#DejaVuSans-30" x="160.9375"/>
       <use xlink:href="#DejaVuSans-30" x="224.560547"/>
      </g>
     </g>
    </g>
    <g id="xtick_10">
     <g id="line2d_10">
      <g>
       <use xlink:href="#me33b987a1c" x="421.297875" y="170.44" style="stroke: #000000; stroke-width: 0.8"/>
      </g>
     </g>
     <g id="text_10">
      <!-- 18:00 -->
      <g transform="translate(406.8885 185.038437) scale(0.1 -0.1)">
       <use xlink:href="#DejaVuSans-31"/>
       <use xlink:href="#DejaVuSans-38" x="63.623047"/>
       <use xlink:href="#DejaVuSans-3a" x="127.246094"/>
       <use xlink:href="#DejaVuSans-30" x="160.9375"/>
       <use xlink:href="#DejaVuSans-30" x="224.560547"/>
      </g>
     </g>
    </g>
    <g id="xtick_11">
     <g id="line2d_11">
      <g>
       <use xlink:href="#me33b987a1c" x="462.092083" y="170.44" style="stroke: #000000; stroke-width: 0.8"/>
      </g>
     </g>
     <g id="text_11">
      <!-- 20:00 -->
      <g transform="translate(447.682708 185.038437) scale(0.1 -0.1)">
       <use xlink:href="#DejaVuSans-32"/>
       <use xlink:href="#DejaVuSans-30" x="63.623047"/>
       <use xlink:href="#DejaVuSans-3a" x="127.246094"/>
       <use xlink:href="#DejaVuSans-30" x="160.9375"/>
       <use xlink:href="#DejaVuSans-30" x="224.560547"/>
      </g>
     </g>
    </g>
    <g id="xtick_12">
     <g id="line2d_12">
      <g>
       <use xlink:href="#me33b987a1c" x="502.886292" y="170.44" style="stroke: #000000; stroke-width: 0.8"/>
      </g>
     </g>
     <g id="text_12">
      <!-- 22:00 -->
      <g transform="translate(488.476917 185.038437) scale(0.1 -0.1)">
       <use xlink:href="#DejaVuSans-32"/>
       <use xlink:href="#DejaVuSans-32" x="63.623047"/>
       <use xlink:href="#DejaVuSans-3a" x="127.246094"/>
       <use xlink:href="#DejaVuSans-30" x="160.9375"/>
       <use xlink:href="#DejaVuSans-30" x="224.560547"/>
      </g>
     </g>
    </g>
    <g id="xtick_13">
     <g id="line2d_13">
      <g>
       <use xlink:href="#me33b987a1c" x="543.6805" y="170.44" style="stroke: #000000; stroke-width: 0.8"/>
      </g>
     </g>
     <g id="text_13">
      <!-- 00:00 -->
      <g transform="translate(529.271125 185.038437) scale(0.1 -0.1)">
       <use xlink:href="#DejaVuSans-30"/>
       <use xlink:href="#DejaVuSans-30" x="63.623047"/>
       <use xlink:href="#DejaVuSans-3a" x="127.246094"/>
       <use xlink:href="#DejaVuSans-30" x="160.9375"/>
       <use xlink:href="#DejaVuSans-30" x="224.560547"/>
      </g>
     </g>
    </g>
    <g id="text_14">
     <!-- Time of day -->
     <g transform="translate(269.486344 198.716563) scale(0.1 -0.1)">
      <defs>
       <path id="DejaVuSans-54" d="M -19 4666 
L 3928 4666 
L 3928 4134 
L 2272 4134 
L 2272 0 
L 1638 0 
L 1638 4134 
L -19 4134 
L -19 4666 
z
" transform="scale(0.015625)"/>
       <path id="DejaVuSans-69" d="M 603 3500 
L 1178 3500 
L 1178 0 
L 603 0 
L 603 3500 
z
M 603 4863 
L 1178 4863 
L 1178 4134 
L 603 4134 
L 603 4863 
z
" transform="scale(0.015625)"/>
       <path id="DejaVuSans-6d" d="M 3328 2828 
Q 3544 3216 3844 3400 
Q 4144 3584 4550 3584 
Q 5097 3584 5394 3201 
Q 5691 2819 5691 2113 
L 5691 0 
L 5113 0 
L 5113 2094 
Q 5113 2597 4934 2840 
Q 4756 3084 4391 3084 
Q 3944 3084 3684 2787 
Q 3425 2491 3425 1978 
L 3425 0 
L 2847 0 
L 2847 2094 
Q 2847 2600 2669 2842 
Q 2491 3084 2119 3084 
Q 1678 3084 1418 2786 
Q 1159 2488 1159 1978 
L 1159 0 
L 581 0 
L 581 3500 
L 1159 3500 
L 1159 2956 
Q 1356 3278 1631 3431 
Q 1906 3584 2284 3584 
Q 2666 3584 2933 3390 
Q 3200 3197 3328 2828 
z
" transform="scale(0.015625)"/>
       <path id="DejaVuSans-65" d="M 3597 1894 
L 3597 1613 
L 953 1613 
Q 991 1019 1311 708 
Q 1631 397 2203 397 
Q 2534 397 2845 478 
Q 3156 559 3463 722 
L 3463 178 
Q 3153 47 2828 -22 
Q 2503 -91 2169 -91 
Q 1331 -91 842 396 
Q 353 884 353 1716 
Q 353 2575 817 3079 
Q 1281 3584 2069 3584 
Q 2775 3584 3186 3129 
Q 3597 2675 3597 1894 
z
M 3022 2063 
Q 3016 2534 2758 2815 
Q 2500 3097 2075 3097 
Q 1594 3097 1305 2825 
Q 1016 2553 972 2059 
L 3022 2063 
z
" transform="scale(0.015625)"/>
       <path id="DejaVuSans-20" transform="scale(0.015625)"/>
       <path id="DejaVuSans-6f" d="M 1959 3097 
Q 1497 3097 1228 2736 
Q 959 2375 959 1747 
Q 959 1119 1226 758 
Q 1494 397 1959 397 
Q 2419 397 2687 759 
Q 2956 1122 2956 1747 
Q 2956 2369 2687 2733 
Q 2419 3097 1959 3097 
z
M 1959 3584 
Q 2709 3584 3137 3096 
Q 3566 2609 3566 1747 
Q 3566 888 3137 398 
Q 2709 -91 1959 -91 
Q 1206 -91 779 398 
Q 353 888 353 1747 
Q 353 2609 779 3096 
Q 1206 3584 1959 3584 
z
" transform="scale(0.015625)"/>
       <path id="DejaVuSans-66" d="M 2375 4863 
L 2375 4384 
L 1825 4384 
Q 1516 4384 1395 4259 
Q 1275 4134 1275 3809 
L 1275 3500 
L 2222 3500 
L 2222 3053 
L 1275 3053 
L 1275 0 
L 697 0 
L 697 3053 
L 147 3053 
L 147 3500 
L 697 3500 
L 697 3744 
Q 697 4328 969 4595 
Q 1241 4863 1831 4863 
L 2375 4863 
z
" transform="scale(0.015625)"/>
       <path id="DejaVuSans-64" d="M 2906 2969 
L 2906 4863 
L 3481 4863 
L 3481 0 
L 2906 0 
L 2906 525 
Q 2725 213 2448 61 
Q 2172 -91 1784 -91 
Q 1150 -91 751 415 
Q 353 922 353 1747 
Q 353 2572 751 3078 
Q 1150 3584 1784 3584 
Q 2172 3584 2448 3432 
Q 2725 3281 2906 2969 
z
M 947 1747 
Q 947 1113 1208 752 
Q 1469 391 1925 391 
Q 2381 391 2643 752 
Q 2906 1113 2906 1747 
Q 2906 2381 2643 2742 
Q 2381 3103 1925 3103 
Q 1469 3103 1208 2742 
Q 947 2381 947 1747 
z
" transform="scale(0.015625)"/>
       <path id="DejaVuSans-61" d="M 2194 1759 
Q 1497 1759 1228 1600 
Q 959 1441 959 1056 
Q 959 750 1161 570 
Q 1363 391 1709 391 
Q 2188 391 2477 730 
Q 2766 1069 2766 1631 
L 2766 1759 
L 2194 1759 
z
M 3341 1997 
L 3341 0 
L 2766 0 
L 2766 531 
Q 2569 213 2275 61 
Q 1981 -91 1556 -91 
Q 1019 -91 701 211 
Q 384 513 384 1019 
Q 384 1609 779 1909 
Q 1175 2209 1959 2209 
L 2766 2209 
L 2766 2266 
Q 2766 2663 2505 2880 
Q 2244 3097 1772 3097 
Q 1472 3097 1187 3025 
Q 903 2953 641 2809 
L 641 3341 
Q 956 3463 1253 3523 
Q 1550 3584 1831 3584 
Q 2591 3584 2966 3190 
Q 3341 2797 3341 1997 
z
" transform="scale(0.015625)"/>
       <path id="DejaVuSans-79" d="M 2059 -325 
Q 1816 -950 1584 -1140 
Q 1353 -1331 966 -1331 
L 506 -1331 
L 506 -850 
L 844 -850 
Q 1081 -850 1212 -737 
Q 1344 -625 1503 -206 
L 1606 56 
L 191 3500 
L 800 3500 
L 1894 763 
L 2988 3500 
L 3597 3500 
L 2059 -325 
z
" transform="scale(0.015625)"/>
      </defs>
      <use xlink:href="#DejaVuSans-54"/>
      <use xlink:href="#DejaVuSans-69" x="57.958984"/>
      <use xlink:href="#DejaVuSans-6d" x="85.742188"/>
      <use xlink:href="#DejaVuSans-65" x="183.154297"/>
      <use xlink:href="#DejaVuSans-20" x="244.677734"/>
      <use xlink:href="#DejaVuSans-6f" x="276.464844"/>
      <use xlink:href="#DejaVuSans-66" x="337.646484"/>
      <use xlink:href="#DejaVuSans-20" x="372.851562"/>
      <use xlink:href="#DejaVuSans-64" x="404.638672"/>
      <use xlink:href="#DejaVuSans-61" x="468.115234"/>
      <use xlink:href="#DejaVuSans-79" x="529.394531"/>
     </g>
    </g>
   </g>
   <g id="matplotlib.axis_2">
    <g id="ytick_1">
     <g id="line2d_14">
      <defs>
       <path id="m7323b9da56" d="M 0 0 
L -3.5 0 
" style="stroke: #000000; stroke-width: 0.8"/>
      </defs>
      <g>
       <use xlink:href="#m7323b9da56" x="54.15" y="169.193893" style="stroke: #000000; stroke-width: 0.8"/>
      </g>
     </g>
     <g id="text_15">
      <!-- 0 -->
      <g transform="translate(40.7875 172.993112) scale(0.1 -0.1)">
       <use xlink:href="#DejaVuSans-30"/>
      </g>
     </g>
    </g>
    <g id="ytick_2">
     <g id="line2d_15">
      <g>
       <use xlink:href="#m7323b9da56" x="54.15" y="144.271756" style="stroke: #000000; stroke-width: 0.8"/>
      </g>
     </g>
     <g id="text_16">
      <!-- 200 -->
      <g transform="translate(28.0625 148.070974) scale(0.1 -0.1)">
       <use xlink:href="#DejaVuSans-32"/>
       <use xlink:href="#DejaVuSans-30" x="63.623047"/>
       <use xlink:href="#DejaVuSans-30" x="127.246094"/>
      </g>
     </g>
    </g>
    <g id="ytick_3">
     <g id="line2d_16">
      <g>
       <use xlink:href="#m7323b9da56" x="54.15" y="119.349618" style="stroke: #000000; stroke-width: 0.8"/>
      </g>
     </g>
     <g id="text_17">
      <!-- 400 -->
      <g transform="translate(28.0625 123.148837) scale(0.1 -0.1)">
       <use xlink:href="#DejaVuSans-34"/>
       <use xlink:href="#DejaVuSans-30" x="63.623047"/>
       <use xlink:href="#DejaVuSans-30" x="127.246094"/>
      </g>
     </g>
    </g>
    <g id="ytick_4">
     <g id="line2d_17">
      <g>
       <use xlink:href="#m7323b9da56" x="54.15" y="94.427481" style="stroke: #000000; stroke-width: 0.8"/>
      </g>
     </g>
     <g id="text_18">
      <!-- 600 -->
      <g transform="translate(28.0625 98.2267) scale(0.1 -0.1)">
       <use xlink:href="#DejaVuSans-36"/>
       <use xlink:href="#DejaVuSans-30" x="63.623047"/>
       <use xlink:href="#DejaVuSans-30" x="127.246094"/>
      </g>
     </g>
    </g>
    <g id="ytick_5">
     <g id="line2d_18">
      <g>
       <use xlink:href="#m7323b9da56" x="54.15" y="69.505344" style="stroke: #000000; stroke-width: 0.8"/>
      </g>
     </g>
     <g id="text_19">
      <!-- 800 -->
      <g transform="translate(28.0625 73.304562) scale(0.1 -0.1)">
       <use xlink:href="#DejaVuSans-38"/>
       <use xlink:href="#DejaVuSans-30" x="63.623047"/>
       <use xlink:href="#DejaVuSans-30" x="127.246094"/>
      </g>
     </g>
    </g>
    <g id="ytick_6">
     <g id="line2d_19">
      <g>
       <use xlink:href="#m7323b9da56" x="54.15" y="44.583206" style="stroke: #000000; stroke-width: 0.8"/>
      </g>
     </g>
     <g id="text_20">
      <!-- 1000 -->
      <g transform="translate(21.7 48.382425) scale(0.1 -0.1)">
       <use xlink:href="#DejaVuSans-31"/>
       <use xlink:href="#DejaVuSans-30" x="63.623047"/>
       <use xlink:href="#DejaVuSans-30" x="127.246094"/>
       <use xlink:href="#DejaVuSans-30" x="190.869141"/>
      </g>
     </g>
    </g>
    <g id="ytick_7">
     <g id="line2d_20">
      <g>
       <use xlink:href="#m7323b9da56" x="54.15" y="19.661069" style="stroke: #000000; stroke-width: 0.8"/>
      </g>
     </g>
     <g id="text_21">
      <!-- 1200 -->
      <g transform="translate(21.7 23.460287) scale(0.1 -0.1)">
       <use xlink:href="#DejaVuSans-31"/>
       <use xlink:href="#DejaVuSans-32" x="63.623047"/>
       <use xlink:href="#DejaVuSans-30" x="127.246094"/>
       <use xlink:href="#DejaVuSans-30" x="190.869141"/>
      </g>
     </g>
    </g>
    <g id="text_22">
     <!-- Solar irradiance [W/m$^2$] -->
     <g transform="translate(15.620312 147.77) rotate(-90) scale(0.1 -0.1)">
      <defs>
       <path id="DejaVuSans-53" d="M 3425 4513 
L 3425 3897 
Q 3066 4069 2747 4153 
Q 2428 4238 2131 4238 
Q 1616 4238 1336 4038 
Q 1056 3838 1056 3469 
Q 1056 3159 1242 3001 
Q 1428 2844 1947 2747 
L 2328 2669 
Q 3034 2534 3370 2195 
Q 3706 1856 3706 1288 
Q 3706 609 3251 259 
Q 2797 -91 1919 -91 
Q 1588 -91 1214 -16 
Q 841 59 441 206 
L 441 856 
Q 825 641 1194 531 
Q 1563 422 1919 422 
Q 2459 422 2753 634 
Q 3047 847 3047 1241 
Q 3047 1584 2836 1778 
Q 2625 1972 2144 2069 
L 1759 2144 
Q 1053 2284 737 2584 
Q 422 2884 422 3419 
Q 422 4038 858 4394 
Q 1294 4750 2059 4750 
Q 2388 4750 2728 4690 
Q 3069 4631 3425 4513 
z
" transform="scale(0.015625)"/>
       <path id="DejaVuSans-6c" d="M 603 4863 
L 1178 4863 
L 1178 0 
L 603 0 
L 603 4863 
z
" transform="scale(0.015625)"/>
       <path id="DejaVuSans-72" d="M 2631 2963 
Q 2534 3019 2420 3045 
Q 2306 3072 2169 3072 
Q 1681 3072 1420 2755 
Q 1159 2438 1159 1844 
L 1159 0 
L 581 0 
L 581 3500 
L 1159 3500 
L 1159 2956 
Q 1341 3275 1631 3429 
Q 1922 3584 2338 3584 
Q 2397 3584 2469 3576 
Q 2541 3569 2628 3553 
L 2631 2963 
z
" transform="scale(0.015625)"/>
       <path id="DejaVuSans-6e" d="M 3513 2113 
L 3513 0 
L 2938 0 
L 2938 2094 
Q 2938 2591 2744 2837 
Q 2550 3084 2163 3084 
Q 1697 3084 1428 2787 
Q 1159 2491 1159 1978 
L 1159 0 
L 581 0 
L 581 3500 
L 1159 3500 
L 1159 2956 
Q 1366 3272 1645 3428 
Q 1925 3584 2291 3584 
Q 2894 3584 3203 3211 
Q 3513 2838 3513 2113 
z
" transform="scale(0.015625)"/>
       <path id="DejaVuSans-63" d="M 3122 3366 
L 3122 2828 
Q 2878 2963 2633 3030 
Q 2388 3097 2138 3097 
Q 1578 3097 1268 2742 
Q 959 2388 959 1747 
Q 959 1106 1268 751 
Q 1578 397 2138 397 
Q 2388 397 2633 464 
Q 2878 531 3122 666 
L 3122 134 
Q 2881 22 2623 -34 
Q 2366 -91 2075 -91 
Q 1284 -91 818 406 
Q 353 903 353 1747 
Q 353 2603 823 3093 
Q 1294 3584 2113 3584 
Q 2378 3584 2631 3529 
Q 2884 3475 3122 3366 
z
" transform="scale(0.015625)"/>
       <path id="DejaVuSans-5b" d="M 550 4863 
L 1875 4863 
L 1875 4416 
L 1125 4416 
L 1125 -397 
L 1875 -397 
L 1875 -844 
L 550 -844 
L 550 4863 
z
" transform="scale(0.015625)"/>
       <path id="DejaVuSans-57" d="M 213 4666 
L 850 4666 
L 1831 722 
L 2809 4666 
L 3519 4666 
L 4500 722 
L 5478 4666 
L 6119 4666 
L 4947 0 
L 4153 0 
L 3169 4050 
L 2175 0 
L 1381 0 
L 213 4666 
z
" transform="scale(0.015625)"/>
       <path id="DejaVuSans-2f" d="M 1625 4666 
L 2156 4666 
L 531 -594 
L 0 -594 
L 1625 4666 
z
" transform="scale(0.015625)"/>
       <path id="DejaVuSans-5d" d="M 1947 4863 
L 1947 -844 
L 622 -844 
L 622 -397 
L 1369 -397 
L 1369 4416 
L 622 4416 
L 622 4863 
L 1947 4863 
z
" transform="scale(0.015625)"/>
      </defs>
      <use xlink:href="#DejaVuSans-53" transform="translate(0 0.765625)"/>
      <use xlink:href="#DejaVuSans-6f" transform="translate(63.476562 0.765625)"/>
      <use xlink:href="#DejaVuSans-6c" transform="translate(124.658203 0.765625)"/>
      <use xlink:href="#DejaVuSans-61" transform="translate(152.441406 0.765625)"/>
      <use xlink:href="#DejaVuSans-72" transform="translate(213.720703 0.765625)"/>
      <use xlink:href="#DejaVuSans-20" transform="translate(254.833984 0.765625)"/>
      <use xlink:href="#DejaVuSans-69" transform="translate(286.621094 0.765625)"/>
      <use xlink:href="#DejaVuSans-72" transform="translate(314.404297 0.765625)"/>
      <use xlink:href="#DejaVuSans-72" transform="translate(355.517578 0.765625)"/>
      <use xlink:href="#DejaVuSans-61" transform="translate(396.630859 0.765625)"/>
      <use xlink:href="#DejaVuSans-64" transform="translate(457.910156 0.765625)"/>
      <use xlink:href="#DejaVuSans-69" transform="translate(521.386719 0.765625)"/>
      <use xlink:href="#DejaVuSans-61" transform="translate(549.169922 0.765625)"/>
      <use xlink:href="#DejaVuSans-6e" transform="translate(610.449219 0.765625)"/>
      <use xlink:href="#DejaVuSans-63" transform="translate(673.828125 0.765625)"/>
      <use xlink:href="#DejaVuSans-65" transform="translate(728.808594 0.765625)"/>
      <use xlink:href="#DejaVuSans-20" transform="translate(790.332031 0.765625)"/>
      <use xlink:href="#DejaVuSans-5b" transform="translate(822.119141 0.765625)"/>
      <use xlink:href="#DejaVuSans-57" transform="translate(861.132812 0.765625)"/>
      <use xlink:href="#DejaVuSans-2f" transform="translate(960.009766 0.765625)"/>
      <use xlink:href="#DejaVuSans-6d" transform="translate(993.701172 0.765625)"/>
      <use xlink:href="#DejaVuSans-32" transform="translate(1092.070312 39.046875) scale(0.7)"/>
      <use xlink:href="#DejaVuSans-5d" transform="translate(1139.34082 0.765625)"/>
     </g>
    </g>
   </g>
   <g id="line2d_21">
    <path d="M 54.15 169.193893 
L 123.888535 169.181432 
L 124.568911 169.069282 
L 125.589475 169.006977 
L 126.269851 168.944672 
L 126.610039 168.944672 
L 127.290415 168.820061 
L 129.671731 168.246852 
L 130.352107 168.010092 
L 131.032483 167.947786 
L 132.053047 167.848098 
L 133.413799 167.586415 
L 134.094175 167.449344 
L 134.434363 167.362116 
L 135.795115 166.626913 
L 136.475491 166.452458 
L 136.815679 166.452458 
L 137.496055 166.577069 
L 138.176431 166.527224 
L 140.897934 165.692333 
L 142.258686 164.645603 
L 142.939062 164.346537 
L 143.27925 164.334076 
L 144.640002 164.707908 
L 145.320378 164.770214 
L 146.000754 164.832519 
L 146.68113 164.483609 
L 147.701694 163.499185 
L 148.38207 162.851209 
L 148.722258 162.714137 
L 150.08301 163.499185 
L 150.763386 163.349652 
L 151.103574 162.564604 
L 151.443762 162.826287 
L 151.78395 165.256195 
L 152.124138 166.539686 
L 152.464326 165.256195 
L 153.144702 166.377692 
L 153.48489 166.066165 
L 154.165265 166.091087 
L 154.505453 166.153392 
L 154.845641 158.464913 
L 155.185829 154.365221 
L 155.526017 152.620672 
L 155.866205 158.601985 
L 156.206393 160.346534 
L 156.546581 159.873013 
L 157.226957 160.595756 
L 157.567145 155.561484 
L 157.907333 156.271765 
L 158.247521 158.975817 
L 158.587709 157.131578 
L 158.927897 156.234382 
L 159.268085 157.84186 
L 159.948461 154.851203 
L 160.288649 154.240611 
L 161.309213 158.589524 
L 161.649401 159.449338 
L 161.989589 159.623792 
L 162.329777 159.337188 
L 162.669965 159.47426 
L 163.350341 159.972702 
L 163.690529 159.511643 
L 164.030717 157.779554 
L 164.370905 158.215692 
L 164.711093 155.823166 
L 165.051281 147.711011 
L 165.391469 147.299796 
L 165.731657 154.963353 
L 166.071845 158.676751 
L 166.412033 158.390147 
L 167.092409 147.960233 
L 167.432597 150.340296 
L 167.772785 145.59263 
L 168.112973 154.788898 
L 168.453161 142.103531 
L 168.793349 137.044336 
L 169.133536 144.496055 
L 169.473724 133.368321 
L 169.813912 132.284206 
L 170.1541 132.358973 
L 170.494288 134.003836 
L 170.834476 147.23749 
L 171.174664 135.050565 
L 171.85504 153.29357 
L 172.195228 154.626904 
L 172.535416 153.019426 
L 172.875604 149.243721 
L 173.215792 154.290455 
L 173.55598 154.091078 
L 173.896168 154.427527 
L 174.576544 149.841853 
L 175.25692 153.094193 
L 175.597108 152.695439 
L 175.937296 152.533445 
L 176.277484 153.779552 
L 176.617672 154.552137 
L 176.95786 153.081731 
L 177.298048 150.240607 
L 177.638236 149.692321 
L 177.978424 147.586401 
L 178.318612 146.963347 
L 178.6588 145.455557 
L 178.998988 142.078607 
L 179.339176 127.735916 
L 180.019552 135.499164 
L 180.35974 134.950878 
L 180.699928 144.869887 
L 181.040116 146.52721 
L 181.380304 147.013191 
L 181.720492 146.253065 
L 182.06068 144.08484 
L 182.400868 133.592618 
L 182.741056 133.854302 
L 183.081244 143.000727 
L 183.421432 142.265523 
L 183.76162 144.059918 
L 184.441995 127.249935 
L 184.782183 136.109756 
L 185.122371 156.658058 
L 185.802747 113.318462 
L 186.142935 117.168931 
L 186.483123 129.343397 
L 186.823311 127.374546 
L 187.163499 111.77329 
L 187.503687 127.985137 
L 187.843875 123.586382 
L 188.184063 134.938416 
L 188.524251 123.411927 
L 188.864439 126.502271 
L 189.204627 138.315365 
L 189.544815 138.938418 
L 189.885003 134.601966 
L 190.225191 103.324687 
L 190.565379 96.757702 
L 190.905567 99.773282 
L 191.245755 135.723462 
L 191.926131 141.368326 
L 192.266319 142.203218 
L 192.606507 140.072376 
L 192.946695 145.492941 
L 193.286883 163.56149 
L 193.627071 164.907285 
L 193.967259 161.866785 
L 194.307447 155.586406 
L 194.647635 159.411954 
L 194.987823 165.08174 
L 195.328011 159.212577 
L 196.008387 155.387029 
L 196.348575 147.611323 
L 196.688763 146.464905 
L 197.028951 145.7297 
L 197.369139 144.234372 
L 197.709327 142.228141 
L 198.049515 141.193872 
L 198.389703 141.106645 
L 199.070079 142.103531 
L 199.410267 141.704775 
L 199.750454 141.081721 
L 200.090642 142.763966 
L 200.43083 139.274866 
L 200.771018 139.549011 
L 201.111206 140.433746 
L 201.451394 143.711008 
L 202.13177 143.449324 
L 202.471958 143.711008 
L 203.83271 149.368332 
L 204.172898 149.580172 
L 204.513086 149.418177 
L 204.853274 149.517866 
L 205.193462 149.891698 
L 205.53365 149.904158 
L 206.214026 149.231261 
L 206.554214 148.844968 
L 206.894402 148.707897 
L 207.574778 149.168956 
L 207.914966 149.144034 
L 208.255154 149.393256 
L 208.595342 150.265531 
L 209.275718 153.330952 
L 209.615906 154.302916 
L 209.956094 154.265532 
L 210.976658 151.67363 
L 211.316846 150.066153 
L 211.997222 144.147145 
L 213.017786 131.673615 
L 213.357974 130.35274 
L 213.698162 135.312248 
L 214.03835 135.175176 
L 214.378538 136.159599 
L 214.718726 137.816922 
L 215.058913 137.181408 
L 215.739289 133.443088 
L 216.079477 132.43374 
L 216.419665 132.246824 
L 216.759853 133.131561 
L 217.100041 133.418164 
L 217.440229 132.682962 
L 217.780417 137.592622 
L 218.120605 139.436861 
L 218.460793 138.041221 
L 219.141169 128.670496 
L 219.481357 128.969565 
L 220.501921 133.729691 
L 220.842109 129.081714 
L 221.182297 129.86676 
L 221.522485 105.854282 
L 221.862673 64.93213 
L 222.202861 84.172023 
L 222.543049 62.900977 
L 222.883237 82.078565 
L 223.223425 74.402542 
L 223.563613 125.318469 
L 223.903801 124.358969 
L 224.243989 127.748378 
L 224.584177 91.686046 
L 224.924365 67.461725 
L 225.264553 77.181359 
L 225.604741 98.676702 
L 225.944929 135.013183 
L 226.285117 140.034992 
L 226.625305 142.601973 
L 226.965493 138.290443 
L 227.305681 67.773252 
L 227.645869 66.58945 
L 227.986057 62.414992 
L 228.326245 60.259229 
L 228.666433 59.686023 
L 229.006621 57.206267 
L 229.346809 55.78571 
L 230.027185 47.935237 
L 230.367372 54.352687 
L 231.047748 115.536531 
L 231.387936 105.031847 
L 231.728124 57.006893 
L 232.068312 107.548985 
L 232.4085 118.302889 
L 232.748688 111.449302 
L 233.088876 119.735912 
L 233.429064 125.144015 
L 233.769252 128.595733 
L 234.10944 129.941527 
L 235.130004 129.306011 
L 236.150568 131.411931 
L 236.490756 131.087947 
L 236.830944 129.96645 
L 237.171132 127.175168 
L 237.51132 97.904122 
L 237.851508 82.003794 
L 238.191696 72.520924 
L 238.531884 117.667374 
L 238.872072 123.885447 
L 239.21226 122.651802 
L 239.552448 120.259275 
L 239.892636 81.156443 
L 240.232824 70.62684 
L 240.573012 90.190718 
L 240.9132 91.62374 
L 241.253388 124.620649 
L 241.593576 126.128439 
L 241.933764 126.35274 
L 242.273952 123.723454 
L 242.61414 112.782634 
L 242.954328 32.869802 
L 243.634704 116.147122 
L 243.974892 90.427481 
L 244.31508 116.246813 
L 244.655268 112.408802 
L 244.995456 116.446191 
L 245.335644 124.196973 
L 245.675831 127.735916 
L 246.016019 125.380775 
L 246.356207 124.371427 
L 246.696395 122.203202 
L 247.036583 122.97579 
L 247.376771 115.947748 
L 247.716959 121.904137 
L 248.057147 101.629977 
L 248.397335 51.648634 
L 248.737523 72.88229 
L 249.077711 121.667378 
L 249.417899 127.573924 
L 249.758087 128.620653 
L 250.098275 128.508504 
L 250.438463 128.022523 
L 250.778651 124.284202 
L 251.118839 97.181374 
L 251.459027 108.109733 
L 251.799215 106.838706 
L 252.479591 121.530305 
L 252.819779 120.221893 
L 253.159967 113.605065 
L 253.500155 130.178286 
L 253.840343 130.464893 
L 254.180531 129.081714 
L 254.860907 52.047389 
L 255.201095 78.452389 
L 255.541283 95.698511 
L 255.881471 49.293489 
L 256.221659 44.745198 
L 256.561847 67.224969 
L 256.902035 66.053626 
L 257.242223 114.402573 
L 257.582411 111.636218 
L 258.262787 95.748351 
L 258.602975 93.866733 
L 258.943163 117.330924 
L 259.283351 122.253046 
L 259.963727 121.455538 
L 260.303915 116.396344 
L 260.644103 117.306004 
L 260.98429 72.421237 
L 261.324478 75.025595 
L 261.664666 20.196901 
L 262.004854 36.894733 
L 262.68523 118.016282 
L 263.025418 125.891679 
L 263.365606 127.112863 
L 263.705794 127.648691 
L 264.045982 127.349626 
L 264.38617 125.742145 
L 265.406734 78.228092 
L 265.746922 32.084748 
L 266.08711 22.066061 
L 266.427298 73.891641 
L 266.767486 25.143939 
L 267.107674 20.757649 
L 267.447862 21.094092 
L 267.78805 24.795023 
L 268.128238 97.816893 
L 268.468426 122.664263 
L 269.148802 126.041214 
L 269.48899 126.427504 
L 270.169366 129.168939 
L 270.509554 129.355855 
L 270.849742 128.421275 
L 271.18993 126.215668 
L 271.530118 112.957092 
L 271.870306 75.499115 
L 272.210494 92.059878 
L 272.550682 78.601924 
L 272.89087 27.698458 
L 273.231058 29.368244 
L 273.571246 27.773221 
L 273.911434 28.595649 
L 274.251622 58.178229 
L 274.59181 34.215603 
L 274.931998 105.86674 
L 275.272186 119.02563 
L 275.612374 94.003802 
L 275.952562 109.891668 
L 276.292749 117.368309 
L 276.632937 128.969565 
L 276.973125 87.848038 
L 277.313313 122.527191 
L 277.653501 125.642458 
L 277.993689 126.913489 
L 278.333877 127.374546 
L 278.674065 127.324702 
L 279.014253 125.904141 
L 279.354441 59.025588 
L 279.694629 49.293489 
L 280.034817 30.477282 
L 280.715193 40.433664 
L 281.055381 43.237412 
L 281.395569 44.869809 
L 281.735757 44.670435 
L 283.096509 36.957038 
L 283.776885 77.629962 
L 284.117073 52.645519 
L 284.457261 78.738992 
L 284.797449 121.754603 
L 285.137637 125.181397 
L 285.477825 99.137763 
L 285.818013 16.795023 
L 286.158201 19.586305 
L 286.498389 97.168916 
L 286.838577 38.851115 
L 287.178765 95.960191 
L 287.518953 85.991336 
L 287.859141 28.009985 
L 288.199329 30.58942 
L 288.539517 31.274779 
L 288.879705 81.143985 
L 289.219893 43.399405 
L 289.560081 37.467939 
L 289.900269 38.664198 
L 290.240457 39.000641 
L 290.580645 38.614351 
L 290.920833 36.78258 
L 291.941396 25.978824 
L 292.281584 29.318397 
L 292.621772 125.617534 
L 292.96196 125.455542 
L 293.642336 131.349626 
L 293.982524 131.436855 
L 294.322712 131.063023 
L 294.6629 130.277977 
L 295.003088 124.795107 
L 295.343276 127.349626 
L 295.683464 124.458656 
L 296.023652 123.773298 
L 296.36384 94.85116 
L 296.704028 20.88226 
L 297.044216 51.100344 
L 297.384404 24.07229 
L 297.724592 28.657954 
L 298.06478 59.337114 
L 298.404968 40.159527 
L 298.745156 40.333985 
L 299.425532 38.888504 
L 299.76572 37.480397 
L 300.105908 72.358931 
L 300.446096 33.081634 
L 300.786284 30.639267 
L 301.126472 54.988198 
L 301.46666 39.137725 
L 301.806848 131.274863 
L 302.147036 136.04745 
L 302.487224 135.798229 
L 302.827412 134.041218 
L 303.1676 130.913489 
L 303.507788 114.02874 
L 303.847976 115.200084 
L 304.188164 43.536473 
L 304.528352 40.346443 
L 304.86854 42.763893 
L 305.208728 42.963267 
L 305.548916 42.302832 
L 305.889104 41.343328 
L 306.569479 37.256092 
L 306.909667 36.23429 
L 307.249855 36.869802 
L 307.590043 36.670427 
L 307.930231 36.682886 
L 308.610607 34.153298 
L 308.950795 32.097221 
L 309.290983 28.782565 
L 309.631171 28.383817 
L 309.971359 114.003821 
L 310.311547 124.670496 
L 310.651735 61.991321 
L 310.991923 36.246748 
L 311.332111 128.620653 
L 311.672299 129.256168 
L 312.012487 126.539656 
L 312.352675 127.000714 
L 312.692863 125.754607 
L 313.033051 122.676725 
L 313.713427 25.804382 
L 314.053615 30.763878 
L 314.393803 31.922763 
L 314.733991 31.424321 
L 315.074179 30.190672 
L 315.414367 30.128366 
L 315.754555 98.365176 
L 316.094743 128.670496 
L 316.434931 131.73592 
L 316.775119 130.016294 
L 317.455495 34.776351 
L 317.795683 36.795038 
L 318.476059 37.480397 
L 318.816247 43.997534 
L 319.156435 107.137771 
L 319.496623 129.480466 
L 319.836811 66.963282 
L 320.176999 34.178214 
L 320.857375 53.181344 
L 321.537751 129.692305 
L 321.877939 126.739031 
L 322.558314 138.315365 
L 323.23869 139.524088 
L 323.578878 123.225011 
L 323.919066 54.68913 
L 324.259254 48.383832 
L 324.599442 48.059847 
L 324.93963 82.290397 
L 325.279818 134.651809 
L 325.620006 98.46487 
L 325.960194 129.480466 
L 326.300382 44.844886 
L 326.64057 43.623702 
L 326.980758 43.735855 
L 327.320946 82.377626 
L 327.661134 137.44309 
L 328.001322 118.988248 
L 328.34151 62.46484 
L 328.681698 47.474176 
L 329.021886 48.122153 
L 329.362074 46.963267 
L 329.702262 53.75455 
L 330.04245 128.807569 
L 330.382638 105.692286 
L 330.722826 108.707866 
L 331.063014 137.455552 
L 331.403202 134.925954 
L 331.74339 65.991321 
L 332.083578 45.953924 
L 332.423766 50.30284 
L 332.763954 53.181344 
L 333.104142 54.265458 
L 333.44433 81.692267 
L 333.784518 56.520908 
L 334.124706 56.358916 
L 334.464894 56.89474 
L 334.805082 58.651756 
L 335.14527 59.78571 
L 335.485458 58.153313 
L 335.825646 58.091008 
L 336.506022 54.315298 
L 337.186397 47.935237 
L 337.526585 79.636191 
L 337.866773 87.386977 
L 338.206961 125.65492 
L 338.547149 128.383893 
L 338.887337 129.206324 
L 339.227525 125.717225 
L 339.907901 48.458595 
L 340.588277 55.524023 
L 340.928465 56.296611 
L 341.268653 57.53026 
L 341.608841 57.006893 
L 341.949029 68.682916 
L 342.629405 62.651756 
L 342.969593 79.000679 
L 343.990157 57.804397 
L 344.330345 58.078542 
L 344.670533 53.467947 
L 345.010721 72.271702 
L 345.350909 55.000656 
L 345.691097 58.439916 
L 346.031285 63.686023 
L 346.371473 58.900977 
L 346.711661 63.087893 
L 347.732225 67.748336 
L 348.072413 67.511573 
L 348.412601 69.667336 
L 348.752789 81.405664 
L 349.092977 70.07855 
L 349.433165 75.686031 
L 349.773353 70.552076 
L 350.113541 71.972634 
L 350.453729 74.103481 
L 350.793917 75.461733 
L 351.814481 77.206282 
L 352.154669 77.355817 
L 352.494856 77.318435 
L 352.835044 77.517809 
L 353.51542 78.290397 
L 353.855608 78.302855 
L 354.195796 78.115939 
L 355.556548 75.137748 
L 356.236924 73.505344 
L 356.577112 73.667344 
L 356.9173 74.103481 
L 357.257488 75.486656 
L 357.597676 75.486656 
L 357.937864 75.935252 
L 358.278052 77.019366 
L 358.61824 77.629962 
L 358.958428 77.767031 
L 359.638804 77.193824 
L 359.978992 77.567656 
L 360.31918 77.218748 
L 360.659368 77.505351 
L 360.999556 77.530275 
L 361.339744 78.36516 
L 362.02012 81.281053 
L 362.360308 82.439931 
L 363.380872 89.430595 
L 364.741624 91.175145 
L 365.081812 91.362061 
L 365.422 91.324672 
L 366.782752 92.907229 
L 367.12294 93.044305 
L 368.483691 94.68916 
L 368.823879 95.935267 
L 369.164067 124.533424 
L 369.844443 96.084802 
L 370.865007 97.181374 
L 371.545383 97.430595 
L 371.885571 97.767046 
L 372.225759 97.91658 
L 372.565947 97.941504 
L 373.246323 96.919695 
L 373.586511 96.820008 
L 373.926699 97.492901 
L 374.607075 99.885427 
L 375.627639 101.767053 
L 376.988391 102.527176 
L 378.008955 102.88855 
L 378.349143 102.714092 
L 379.029519 103.449298 
L 379.369707 103.237458 
L 379.709895 102.452412 
L 380.050083 103.935275 
L 380.390271 144.122223 
L 380.730459 135.050565 
L 381.070647 158.327842 
L 381.410835 159.324727 
L 381.751023 159.36211 
L 382.091211 159.549026 
L 382.431399 160.75775 
L 383.451962 159.573948 
L 383.79215 157.218806 
L 384.132338 148.620668 
L 384.472526 153.991389 
L 385.152902 158.77644 
L 385.833278 158.190769 
L 386.173466 157.517872 
L 386.513654 121.80445 
L 386.853842 156.732824 
L 387.19403 140.844962 
L 387.534218 113.144008 
L 387.874406 121.791989 
L 388.214594 114.502263 
L 388.554782 157.181423 
L 388.89497 157.555255 
L 389.235158 157.692326 
L 389.575346 158.041237 
L 389.915534 157.991392 
L 390.255722 157.418183 
L 390.59591 154.739053 
L 390.936098 152.94466 
L 391.276286 132.134676 
L 391.616474 125.480466 
L 391.956662 115.798214 
L 392.29685 116.3465 
L 392.977226 116.358962 
L 393.657602 115.835595 
L 393.99779 126.664267 
L 394.337978 131.000718 
L 394.678166 113.891672 
L 395.018354 113.144008 
L 395.69873 112.396344 
L 396.038918 112.421263 
L 396.379106 112.745252 
L 397.059482 113.941515 
L 398.080046 116.944634 
L 398.420233 117.318466 
L 398.760421 131.050561 
L 399.100609 153.243725 
L 399.440797 154.539677 
L 400.461361 156.994507 
L 401.141737 158.415069 
L 401.822113 159.611331 
L 402.502489 160.097313 
L 403.182865 160.844977 
L 403.863241 161.094198 
L 404.883805 160.99451 
L 406.244557 159.848092 
L 406.924933 160.197002 
L 407.945497 161.181426 
L 408.625873 161.193887 
L 409.306249 160.720366 
L 410.667001 159.47426 
L 412.027753 158.365224 
L 412.367941 158.165847 
L 412.708129 158.302919 
L 413.728692 159.436876 
L 414.06888 158.352763 
L 414.409068 154.539677 
L 414.749256 159.100427 
L 415.429632 159.100427 
L 416.110008 159.025661 
L 416.790384 159.274883 
L 417.130572 159.573948 
L 417.810948 159.82317 
L 418.151136 159.000739 
L 418.491324 155.137807 
L 418.831512 159.225038 
L 419.1717 157.318494 
L 419.852076 147.748393 
L 420.192264 146.203221 
L 420.87264 146.265527 
L 421.893204 147.150263 
L 422.233392 147.785777 
L 422.57358 150.938427 
L 422.913768 157.14404 
L 423.253956 159.162733 
L 423.594144 159.785786 
L 424.27452 160.159618 
L 424.614708 160.097313 
L 424.954896 159.686097 
L 425.295084 157.879242 
L 425.635272 153.916623 
L 425.97546 152.072385 
L 426.315648 152.59575 
L 426.655836 152.234378 
L 426.996024 151.573943 
L 427.336212 152.059924 
L 427.6764 153.866779 
L 428.016588 152.894815 
L 428.696964 153.642479 
L 429.377339 154.664287 
L 429.717527 155.449334 
L 430.057715 155.362107 
L 430.397903 156.944662 
L 430.738091 157.443105 
L 431.078279 160.682983 
L 431.758655 160.496067 
L 432.098843 159.586409 
L 432.439031 158.178308 
L 432.779219 161.34342 
L 433.119407 163.449341 
L 435.160535 164.25931 
L 436.181099 164.533453 
L 436.861475 164.944669 
L 437.201663 164.994513 
L 439.923167 167.038128 
L 440.943731 167.337194 
L 442.984859 167.947786 
L 443.665235 168.072397 
L 448.768054 168.944672 
L 449.108242 168.944672 
L 449.788618 169.069282 
L 450.468994 169.094205 
L 451.14937 169.193893 
L 543.6805 169.193893 
L 543.6805 169.193893 
" clip-path="url(#p902c78916a)" style="fill: none; stroke: #ffae49; stroke-width: 1.5; stroke-linecap: square"/>
   </g>
   <g id="line2d_22">
    <path d="M 54.15 169.193893 
L 197.028951 169.119127 
L 198.049515 169.069282 
L 200.090642 168.982055 
L 201.111206 168.944672 
L 201.791582 168.869905 
L 202.812146 168.820061 
L 203.152334 168.820061 
L 203.492522 168.69545 
L 204.172898 168.608223 
L 208.255154 168.072397 
L 210.296282 167.698565 
L 211.316846 167.549032 
L 213.698162 166.751524 
L 214.718726 166.215698 
L 215.739289 165.592644 
L 219.141169 163.835634 
L 220.501921 163.337191 
L 220.842109 162.689215 
L 221.182297 161.679869 
L 221.522485 161.630024 
L 222.202861 157.156501 
L 222.543049 157.256189 
L 222.883237 155.150269 
L 223.223425 150.689206 
L 223.563613 149.380794 
L 224.243989 148.720357 
L 224.584177 148.259298 
L 224.924365 148.022538 
L 225.264553 148.022538 
L 225.604741 148.321603 
L 226.625305 149.854315 
L 227.305681 150.8512 
L 227.645869 152.209456 
L 228.326245 158.838745 
L 228.666433 159.200116 
L 229.686997 157.879242 
L 230.027185 156.957124 
L 231.047748 152.37145 
L 231.387936 153.056809 
L 231.728124 155.486718 
L 232.068312 156.234382 
L 232.4085 155.885471 
L 232.748688 155.711017 
L 233.088876 156.284226 
L 233.769252 158.352763 
L 234.449628 159.686097 
L 234.789816 159.997624 
L 235.130004 160.097313 
L 235.470192 159.935319 
L 235.81038 159.511643 
L 237.51132 156.334071 
L 238.531884 156.857435 
L 239.21226 157.243728 
L 240.232824 158.676751 
L 240.9132 158.763979 
L 241.253388 158.626906 
L 241.933764 157.978931 
L 242.61414 157.281112 
L 242.954328 157.231267 
L 243.294516 157.355878 
L 243.634704 157.804476 
L 243.974892 158.066158 
L 244.31508 156.79513 
L 244.995456 144.720355 
L 245.335644 148.034998 
L 245.675831 155.287341 
L 246.016019 148.022538 
L 246.356207 145.530324 
L 246.696395 138.502281 
L 247.036583 137.792 
L 247.376771 136.520969 
L 247.716959 137.480473 
L 248.057147 135.573931 
L 248.397335 135.162714 
L 248.737523 135.200099 
L 249.077711 135.486702 
L 249.417899 141.717237 
L 249.758087 140.084836 
L 250.098275 135.087947 
L 250.438463 133.505393 
L 251.459027 133.168943 
L 252.479591 132.334053 
L 252.819779 131.798225 
L 253.159967 132.346511 
L 253.500155 137.592622 
L 254.180531 151.31226 
L 254.860907 156.832513 
L 255.201095 158.514758 
L 255.541283 159.449338 
L 255.881471 159.810708 
L 256.221659 159.723481 
L 256.561847 159.337188 
L 256.902035 158.514758 
L 257.242223 156.670519 
L 257.582411 153.816934 
L 257.922599 152.184534 
L 258.262787 151.723475 
L 258.602975 150.028769 
L 258.943163 151.461792 
L 259.283351 151.79824 
L 259.963727 141.567704 
L 260.303915 143.337176 
L 260.644103 132.558351 
L 260.98429 131.848069 
L 261.324478 136.334053 
L 261.664666 144.072378 
L 262.004854 147.511634 
L 262.345042 148.570824 
L 262.68523 149.131573 
L 263.365606 137.654927 
L 263.705794 151.200111 
L 264.045982 153.542791 
L 264.38617 154.93843 
L 264.726358 154.788898 
L 265.066546 155.100425 
L 266.08711 151.474254 
L 266.427298 149.804469 
L 266.767486 153.069271 
L 267.107674 154.253072 
L 267.447862 154.265532 
L 267.78805 151.162727 
L 268.128238 151.050576 
L 268.468426 151.399487 
L 268.808614 151.474254 
L 269.148802 152.122229 
L 269.829178 154.165844 
L 270.169366 154.739053 
L 270.509554 154.763975 
L 270.849742 154.315377 
L 271.18993 154.190766 
L 271.530118 152.969582 
L 271.870306 154.963353 
L 272.210494 154.564598 
L 273.231058 151.947775 
L 273.571246 151.985156 
L 273.911434 151.287338 
L 274.251622 151.100422 
L 274.931998 150.340296 
L 275.272186 150.128458 
L 275.612374 150.091074 
L 275.952562 150.240607 
L 276.292749 150.689206 
L 276.973125 151.910391 
L 277.313313 152.209456 
L 277.653501 152.172073 
L 277.993689 151.79824 
L 279.354441 149.33095 
L 280.034817 147.162723 
L 280.375005 144.732815 
L 280.715193 145.667395 
L 281.055381 145.879233 
L 281.395569 146.228143 
L 281.735757 146.053689 
L 282.075945 147.436866 
L 283.436697 150.115996 
L 283.776885 150.651823 
L 284.117073 150.975811 
L 284.457261 150.901044 
L 285.818013 149.031884 
L 286.158201 149.430637 
L 286.838577 150.664284 
L 287.859141 154.253072 
L 288.879705 157.679865 
L 289.560081 159.935319 
L 289.900269 160.508529 
L 290.240457 160.75775 
L 290.920833 160.670522 
L 291.261021 160.782672 
L 291.601208 160.695445 
L 291.941396 159.100427 
L 292.281584 133.879225 
L 292.621772 124.832489 
L 293.302148 124.595729 
L 293.642336 125.106634 
L 293.982524 125.231244 
L 294.322712 125.218782 
L 294.6629 125.480466 
L 295.343276 124.832489 
L 295.683464 124.74526 
L 297.044216 125.667382 
L 297.384404 125.380775 
L 297.724592 125.65492 
L 298.06478 125.629996 
L 298.404968 125.318469 
L 298.745156 125.168939 
L 299.085344 125.193859 
L 299.425532 125.729687 
L 300.105908 124.682954 
L 300.446096 124.645573 
L 300.786284 124.882332 
L 301.126472 125.767069 
L 301.46666 125.67984 
L 302.147036 124.770183 
L 302.487224 124.732802 
L 302.827412 124.919718 
L 303.1676 124.932176 
L 303.507788 125.243702 
L 303.847976 124.84495 
L 304.188164 124.732802 
L 305.548916 123.249931 
L 305.889104 124.27174 
L 306.909667 121.318466 
L 308.270419 117.019397 
L 308.610607 116.533416 
L 308.950795 115.125317 
L 309.631171 135.511626 
L 309.971359 130.016294 
L 310.311547 136.059912 
L 310.651735 125.866756 
L 310.991923 119.187626 
L 311.332111 119.972672 
L 311.672299 115.449305 
L 312.352675 114.527183 
L 312.692863 112.496031 
L 313.033051 111.661137 
L 313.373239 120.458653 
L 313.713427 122.97579 
L 314.393803 118.09105 
L 314.733991 125.505385 
L 315.074179 129.069252 
L 315.414367 131.387011 
L 315.754555 128.346511 
L 316.094743 132.047447 
L 316.434931 132.932183 
L 316.775119 136.944649 
L 317.455495 140.707889 
L 317.795683 142.277985 
L 318.135871 142.876116 
L 318.476059 142.776427 
L 318.816247 142.290447 
L 319.496623 139.785771 
L 319.836811 140.558357 
L 320.517187 143.985151 
L 320.857375 145.156492 
L 321.197563 145.816927 
L 321.877939 146.402599 
L 324.599442 148.533441 
L 326.300382 150.73905 
L 328.34151 154.240611 
L 330.04245 156.159615 
L 331.403202 158.240614 
L 332.423766 159.873013 
L 333.44433 161.144043 
L 334.124706 161.754635 
L 335.14527 162.315383 
L 337.186397 163.249963 
L 337.866773 163.549029 
L 338.887337 163.586412 
L 339.907901 163.225041 
L 341.949029 162.153389 
L 344.330345 161.031893 
L 345.350909 160.284229 
L 346.031285 160.047469 
L 346.711661 159.860552 
L 348.412601 158.913511 
L 349.092977 158.402608 
L 349.773353 157.654944 
L 351.134105 155.686094 
L 351.474293 154.00385 
L 351.814481 147.910387 
L 352.154669 149.031884 
L 352.494856 150.626901 
L 352.835044 142.938422 
L 353.51542 149.580172 
L 354.195796 142.302906 
L 354.876172 152.508523 
L 355.21636 146.988269 
L 355.556548 145.044342 
L 355.896736 147.436866 
L 356.236924 147.711011 
L 356.577112 146.365216 
L 357.257488 146.739048 
L 357.937864 147.424406 
L 358.61824 148.508519 
L 358.958428 150.228147 
L 359.298616 158.178308 
L 359.638804 160.6456 
L 359.978992 160.209463 
L 360.659368 152.408834 
L 360.999556 152.533445 
L 361.339744 153.393258 
L 362.02012 159.71102 
L 362.360308 159.000739 
L 362.700496 160.932204 
L 363.040684 161.966473 
L 363.380872 164.072394 
L 363.72106 164.271771 
L 364.061248 164.184543 
L 364.401436 163.823173 
L 365.422 165.168968 
L 367.12294 165.530339 
L 368.823879 165.929093 
L 369.504255 165.879249 
L 370.184631 163.897939 
L 370.865007 165.804482 
L 371.885571 165.704794 
L 372.565947 165.567722 
L 372.906135 165.30604 
L 373.246323 163.735945 
L 373.586511 163.225041 
L 373.926699 163.67364 
L 374.266887 164.820058 
L 374.947263 165.792021 
L 375.627639 166.12847 
L 376.988391 166.82629 
L 377.328579 166.838751 
L 378.008955 167.112895 
L 378.689331 167.474266 
L 381.070647 168.446229 
L 382.431399 168.69545 
L 382.771587 168.820061 
L 383.451962 168.882366 
L 385.49309 169.193893 
L 543.6805 169.193893 
L 543.6805 169.193893 
" clip-path="url(#p902c78916a)" style="fill: none; stroke: #024b7a; stroke-width: 1.5; stroke-linecap: square"/>
   </g>
   <g id="patch_3">
    <path d="M 54.15 170.44 
L 54.15 7.2 
" style="fill: none; stroke: #000000; stroke-width: 0.8; stroke-linejoin: miter; stroke-linecap: square"/>
   </g>
   <g id="patch_4">
    <path d="M 543.6805 170.44 
L 543.6805 7.2 
" style="fill: none; stroke: #000000; stroke-width: 0.8; stroke-linejoin: miter; stroke-linecap: square"/>
   </g>
   <g id="patch_5">
    <path d="M 54.15 170.44 
L 543.6805 170.44 
" style="fill: none; stroke: #000000; stroke-width: 0.8; stroke-linejoin: miter; stroke-linecap: square"/>
   </g>
   <g id="patch_6">
    <path d="M 54.15 7.2 
L 543.6805 7.2 
" style="fill: none; stroke: #000000; stroke-width: 0.8; stroke-linejoin: miter; stroke-linecap: square"/>
   </g>
   <g id="legend_1">
    <g id="patch_7">
     <path d="M 462.24925 44.55625 
L 536.6805 44.55625 
Q 538.6805 44.55625 538.6805 42.55625 
L 538.6805 14.2 
Q 538.6805 12.2 536.6805 12.2 
L 462.24925 12.2 
Q 460.24925 12.2 460.24925 14.2 
L 460.24925 42.55625 
Q 460.24925 44.55625 462.24925 44.55625 
z
" style="fill: #ffffff; opacity: 0.8; stroke: #cccccc; stroke-linejoin: miter"/>
    </g>
    <g id="line2d_23">
     <path d="M 464.24925 20.298438 
L 474.24925 20.298438 
L 484.24925 20.298438 
" style="fill: none; stroke: #ffae49; stroke-width: 1.5; stroke-linecap: square"/>
    </g>
    <g id="text_23">
     <!-- Summer -->
     <g transform="translate(492.24925 23.798438) scale(0.1 -0.1)">
      <defs>
       <path id="DejaVuSans-75" d="M 544 1381 
L 544 3500 
L 1119 3500 
L 1119 1403 
Q 1119 906 1312 657 
Q 1506 409 1894 409 
Q 2359 409 2629 706 
Q 2900 1003 2900 1516 
L 2900 3500 
L 3475 3500 
L 3475 0 
L 2900 0 
L 2900 538 
Q 2691 219 2414 64 
Q 2138 -91 1772 -91 
Q 1169 -91 856 284 
Q 544 659 544 1381 
z
M 1991 3584 
L 1991 3584 
z
" transform="scale(0.015625)"/>
      </defs>
      <use xlink:href="#DejaVuSans-53"/>
      <use xlink:href="#DejaVuSans-75" x="63.476562"/>
      <use xlink:href="#DejaVuSans-6d" x="126.855469"/>
      <use xlink:href="#DejaVuSans-6d" x="224.267578"/>
      <use xlink:href="#DejaVuSans-65" x="321.679688"/>
      <use xlink:href="#DejaVuSans-72" x="383.203125"/>
     </g>
    </g>
    <g id="line2d_24">
     <path d="M 464.24925 34.976562 
L 474.24925 34.976562 
L 484.24925 34.976562 
" style="fill: none; stroke: #024b7a; stroke-width: 1.5; stroke-linecap: square"/>
    </g>
    <g id="text_24">
     <!-- Winter -->
     <g transform="translate(492.24925 38.476562) scale(0.1 -0.1)">
      <defs>
       <path id="DejaVuSans-74" d="M 1172 4494 
L 1172 3500 
L 2356 3500 
L 2356 3053 
L 1172 3053 
L 1172 1153 
Q 1172 725 1289 603 
Q 1406 481 1766 481 
L 2356 481 
L 2356 0 
L 1766 0 
Q 1100 0 847 248 
Q 594 497 594 1153 
L 594 3053 
L 172 3053 
L 172 3500 
L 594 3500 
L 594 4494 
L 1172 4494 
z
" transform="scale(0.015625)"/>
      </defs>
      <use xlink:href="#DejaVuSans-57"/>
      <use xlink:href="#DejaVuSans-69" x="96.626953"/>
      <use xlink:href="#DejaVuSans-6e" x="124.410156"/>
      <use xlink:href="#DejaVuSans-74" x="187.789062"/>
      <use xlink:href="#DejaVuSans-65" x="226.998047"/>
      <use xlink:href="#DejaVuSans-72" x="288.521484"/>
     </g>
    </g>
   </g>
  </g>
 </g>
 <defs>
  <clipPath id="p902c78916a">
   <rect x="54.15" y="7.2" width="489.5305" height="163.24"/>
  </clipPath>
 </defs>
</svg>
