<?xml version="1.0" encoding="utf-8" standalone="no"?>
<!DOCTYPE svg PUBLIC "-//W3C//DTD SVG 1.1//EN"
  "http://www.w3.org/Graphics/SVG/1.1/DTD/svg11.dtd">
<svg xmlns:xlink="http://www.w3.org/1999/xlink" width="637.1455pt" height="351.99625pt" viewBox="0 0 637.1455 351.99625" xmlns="http://www.w3.org/2000/svg" version="1.1">
 <metadata>
  <rdf:RDF xmlns:dc="http://purl.org/dc/elements/1.1/" xmlns:cc="http://creativecommons.org/ns#" xmlns:rdf="http://www.w3.org/1999/02/22-rdf-syntax-ns#">
   <cc:Work>
    <dc:type rdf:resource="http://purl.org/dc/dcmitype/StillImage"/>
    <dc:date>2024-03-19T10:36:53.631127</dc:date>
    <dc:format>image/svg+xml</dc:format>
    <dc:creator>
     <cc:Agent>
      <dc:title>Matplotlib v3.8.2, https://matplotlib.org/</dc:title>
     </cc:Agent>
    </dc:creator>
   </cc:Work>
  </rdf:RDF>
 </metadata>
 <defs>
  <style type="text/css">*{stroke-linejoin: round; stroke-linecap: butt}</style>
 </defs>
 <g id="figure_1">
  <g id="patch_1">
   <path d="M 0 351.99625 
L 637.1455 351.99625 
L 637.1455 0 
L 0 0 
z
" style="fill: #ffffff"/>
  </g>
  <g id="axes_1">
   <g id="patch_2">
    <path d="M 54.15 314.44 
L 629.9455 314.44 
L 629.9455 7.2 
L 54.15 7.2 
z
" style="fill: #ffffff"/>
   </g>
   <g id="matplotlib.axis_1">
    <g id="xtick_1">
     <g id="line2d_1">
      <defs>
       <path id="m396efa7877" d="M 0 0 
L 0 3.5 
" style="stroke: #000000; stroke-width: 0.8"/>
      </defs>
      <g>
       <use xlink:href="#m396efa7877" x="54.15" y="314.44" style="stroke: #000000; stroke-width: 0.8"/>
      </g>
     </g>
     <g id="text_1">
      <!-- 0 -->
      <g transform="translate(50.96875 329.038437) scale(0.1 -0.1)">
       <defs>
        <path id="DejaVuSans-30" d="M 2034 4250 
Q 1547 4250 1301 3770 
Q 1056 3291 1056 2328 
Q 1056 1369 1301 889 
Q 1547 409 2034 409 
Q 2525 409 2770 889 
Q 3016 1369 3016 2328 
Q 3016 3291 2770 3770 
Q 2525 4250 2034 4250 
z
M 2034 4750 
Q 2819 4750 3233 4129 
Q 3647 3509 3647 2328 
Q 3647 1150 3233 529 
Q 2819 -91 2034 -91 
Q 1250 -91 836 529 
Q 422 1150 422 2328 
Q 422 3509 836 4129 
Q 1250 4750 2034 4750 
z
" transform="scale(0.015625)"/>
       </defs>
       <use xlink:href="#DejaVuSans-30"/>
      </g>
     </g>
    </g>
    <g id="xtick_2">
     <g id="line2d_2">
      <g>
       <use xlink:href="#m396efa7877" x="78.141479" y="314.44" style="stroke: #000000; stroke-width: 0.8"/>
      </g>
     </g>
     <g id="text_2">
      <!-- 1 -->
      <g transform="translate(74.960229 329.038437) scale(0.1 -0.1)">
       <defs>
        <path id="DejaVuSans-31" d="M 794 531 
L 1825 531 
L 1825 4091 
L 703 3866 
L 703 4441 
L 1819 4666 
L 2450 4666 
L 2450 531 
L 3481 531 
L 3481 0 
L 794 0 
L 794 531 
z
" transform="scale(0.015625)"/>
       </defs>
       <use xlink:href="#DejaVuSans-31"/>
      </g>
     </g>
    </g>
    <g id="xtick_3">
     <g id="line2d_3">
      <g>
       <use xlink:href="#m396efa7877" x="102.132958" y="314.44" style="stroke: #000000; stroke-width: 0.8"/>
      </g>
     </g>
     <g id="text_3">
      <!-- 2 -->
      <g transform="translate(98.951708 329.038437) scale(0.1 -0.1)">
       <defs>
        <path id="DejaVuSans-32" d="M 1228 531 
L 3431 531 
L 3431 0 
L 469 0 
L 469 531 
Q 828 903 1448 1529 
Q 2069 2156 2228 2338 
Q 2531 2678 2651 2914 
Q 2772 3150 2772 3378 
Q 2772 3750 2511 3984 
Q 2250 4219 1831 4219 
Q 1534 4219 1204 4116 
Q 875 4013 500 3803 
L 500 4441 
Q 881 4594 1212 4672 
Q 1544 4750 1819 4750 
Q 2544 4750 2975 4387 
Q 3406 4025 3406 3419 
Q 3406 3131 3298 2873 
Q 3191 2616 2906 2266 
Q 2828 2175 2409 1742 
Q 1991 1309 1228 531 
z
" transform="scale(0.015625)"/>
       </defs>
       <use xlink:href="#DejaVuSans-32"/>
      </g>
     </g>
    </g>
    <g id="xtick_4">
     <g id="line2d_4">
      <g>
       <use xlink:href="#m396efa7877" x="126.124438" y="314.44" style="stroke: #000000; stroke-width: 0.8"/>
      </g>
     </g>
     <g id="text_4">
      <!-- 3 -->
      <g transform="translate(122.943188 329.038437) scale(0.1 -0.1)">
       <defs>
        <path id="DejaVuSans-33" d="M 2597 2516 
Q 3050 2419 3304 2112 
Q 3559 1806 3559 1356 
Q 3559 666 3084 287 
Q 2609 -91 1734 -91 
Q 1441 -91 1130 -33 
Q 819 25 488 141 
L 488 750 
Q 750 597 1062 519 
Q 1375 441 1716 441 
Q 2309 441 2620 675 
Q 2931 909 2931 1356 
Q 2931 1769 2642 2001 
Q 2353 2234 1838 2234 
L 1294 2234 
L 1294 2753 
L 1863 2753 
Q 2328 2753 2575 2939 
Q 2822 3125 2822 3475 
Q 2822 3834 2567 4026 
Q 2313 4219 1838 4219 
Q 1578 4219 1281 4162 
Q 984 4106 628 3988 
L 628 4550 
Q 988 4650 1302 4700 
Q 1616 4750 1894 4750 
Q 2613 4750 3031 4423 
Q 3450 4097 3450 3541 
Q 3450 3153 3228 2886 
Q 3006 2619 2597 2516 
z
" transform="scale(0.015625)"/>
       </defs>
       <use xlink:href="#DejaVuSans-33"/>
      </g>
     </g>
    </g>
    <g id="xtick_5">
     <g id="line2d_5">
      <g>
       <use xlink:href="#m396efa7877" x="150.115917" y="314.44" style="stroke: #000000; stroke-width: 0.8"/>
      </g>
     </g>
     <g id="text_5">
      <!-- 4 -->
      <g transform="translate(146.934667 329.038437) scale(0.1 -0.1)">
       <defs>
        <path id="DejaVuSans-34" d="M 2419 4116 
L 825 1625 
L 2419 1625 
L 2419 4116 
z
M 2253 4666 
L 3047 4666 
L 3047 1625 
L 3713 1625 
L 3713 1100 
L 3047 1100 
L 3047 0 
L 2419 0 
L 2419 1100 
L 313 1100 
L 313 1709 
L 2253 4666 
z
" transform="scale(0.015625)"/>
       </defs>
       <use xlink:href="#DejaVuSans-34"/>
      </g>
     </g>
    </g>
    <g id="xtick_6">
     <g id="line2d_6">
      <g>
       <use xlink:href="#m396efa7877" x="174.107396" y="314.44" style="stroke: #000000; stroke-width: 0.8"/>
      </g>
     </g>
     <g id="text_6">
      <!-- 5 -->
      <g transform="translate(170.926146 329.038437) scale(0.1 -0.1)">
       <defs>
        <path id="DejaVuSans-35" d="M 691 4666 
L 3169 4666 
L 3169 4134 
L 1269 4134 
L 1269 2991 
Q 1406 3038 1543 3061 
Q 1681 3084 1819 3084 
Q 2600 3084 3056 2656 
Q 3513 2228 3513 1497 
Q 3513 744 3044 326 
Q 2575 -91 1722 -91 
Q 1428 -91 1123 -41 
Q 819 9 494 109 
L 494 744 
Q 775 591 1075 516 
Q 1375 441 1709 441 
Q 2250 441 2565 725 
Q 2881 1009 2881 1497 
Q 2881 1984 2565 2268 
Q 2250 2553 1709 2553 
Q 1456 2553 1204 2497 
Q 953 2441 691 2322 
L 691 4666 
z
" transform="scale(0.015625)"/>
       </defs>
       <use xlink:href="#DejaVuSans-35"/>
      </g>
     </g>
    </g>
    <g id="xtick_7">
     <g id="line2d_7">
      <g>
       <use xlink:href="#m396efa7877" x="198.098875" y="314.44" style="stroke: #000000; stroke-width: 0.8"/>
      </g>
     </g>
     <g id="text_7">
      <!-- 6 -->
      <g transform="translate(194.917625 329.038437) scale(0.1 -0.1)">
       <defs>
        <path id="DejaVuSans-36" d="M 2113 2584 
Q 1688 2584 1439 2293 
Q 1191 2003 1191 1497 
Q 1191 994 1439 701 
Q 1688 409 2113 409 
Q 2538 409 2786 701 
Q 3034 994 3034 1497 
Q 3034 2003 2786 2293 
Q 2538 2584 2113 2584 
z
M 3366 4563 
L 3366 3988 
Q 3128 4100 2886 4159 
Q 2644 4219 2406 4219 
Q 1781 4219 1451 3797 
Q 1122 3375 1075 2522 
Q 1259 2794 1537 2939 
Q 1816 3084 2150 3084 
Q 2853 3084 3261 2657 
Q 3669 2231 3669 1497 
Q 3669 778 3244 343 
Q 2819 -91 2113 -91 
Q 1303 -91 875 529 
Q 447 1150 447 2328 
Q 447 3434 972 4092 
Q 1497 4750 2381 4750 
Q 2619 4750 2861 4703 
Q 3103 4656 3366 4563 
z
" transform="scale(0.015625)"/>
       </defs>
       <use xlink:href="#DejaVuSans-36"/>
      </g>
     </g>
    </g>
    <g id="xtick_8">
     <g id="line2d_8">
      <g>
       <use xlink:href="#m396efa7877" x="222.090354" y="314.44" style="stroke: #000000; stroke-width: 0.8"/>
      </g>
     </g>
     <g id="text_8">
      <!-- 7 -->
      <g transform="translate(218.909104 329.038437) scale(0.1 -0.1)">
       <defs>
        <path id="DejaVuSans-37" d="M 525 4666 
L 3525 4666 
L 3525 4397 
L 1831 0 
L 1172 0 
L 2766 4134 
L 525 4134 
L 525 4666 
z
" transform="scale(0.015625)"/>
       </defs>
       <use xlink:href="#DejaVuSans-37"/>
      </g>
     </g>
    </g>
    <g id="xtick_9">
     <g id="line2d_9">
      <g>
       <use xlink:href="#m396efa7877" x="246.081833" y="314.44" style="stroke: #000000; stroke-width: 0.8"/>
      </g>
     </g>
     <g id="text_9">
      <!-- 8 -->
      <g transform="translate(242.900583 329.038437) scale(0.1 -0.1)">
       <defs>
        <path id="DejaVuSans-38" d="M 2034 2216 
Q 1584 2216 1326 1975 
Q 1069 1734 1069 1313 
Q 1069 891 1326 650 
Q 1584 409 2034 409 
Q 2484 409 2743 651 
Q 3003 894 3003 1313 
Q 3003 1734 2745 1975 
Q 2488 2216 2034 2216 
z
M 1403 2484 
Q 997 2584 770 2862 
Q 544 3141 544 3541 
Q 544 4100 942 4425 
Q 1341 4750 2034 4750 
Q 2731 4750 3128 4425 
Q 3525 4100 3525 3541 
Q 3525 3141 3298 2862 
Q 3072 2584 2669 2484 
Q 3125 2378 3379 2068 
Q 3634 1759 3634 1313 
Q 3634 634 3220 271 
Q 2806 -91 2034 -91 
Q 1263 -91 848 271 
Q 434 634 434 1313 
Q 434 1759 690 2068 
Q 947 2378 1403 2484 
z
M 1172 3481 
Q 1172 3119 1398 2916 
Q 1625 2713 2034 2713 
Q 2441 2713 2670 2916 
Q 2900 3119 2900 3481 
Q 2900 3844 2670 4047 
Q 2441 4250 2034 4250 
Q 1625 4250 1398 4047 
Q 1172 3844 1172 3481 
z
" transform="scale(0.015625)"/>
       </defs>
       <use xlink:href="#DejaVuSans-38"/>
      </g>
     </g>
    </g>
    <g id="xtick_10">
     <g id="line2d_10">
      <g>
       <use xlink:href="#m396efa7877" x="270.073313" y="314.44" style="stroke: #000000; stroke-width: 0.8"/>
      </g>
     </g>
     <g id="text_10">
      <!-- 9 -->
      <g transform="translate(266.892063 329.038437) scale(0.1 -0.1)">
       <defs>
        <path id="DejaVuSans-39" d="M 703 97 
L 703 672 
Q 941 559 1184 500 
Q 1428 441 1663 441 
Q 2288 441 2617 861 
Q 2947 1281 2994 2138 
Q 2813 1869 2534 1725 
Q 2256 1581 1919 1581 
Q 1219 1581 811 2004 
Q 403 2428 403 3163 
Q 403 3881 828 4315 
Q 1253 4750 1959 4750 
Q 2769 4750 3195 4129 
Q 3622 3509 3622 2328 
Q 3622 1225 3098 567 
Q 2575 -91 1691 -91 
Q 1453 -91 1209 -44 
Q 966 3 703 97 
z
M 1959 2075 
Q 2384 2075 2632 2365 
Q 2881 2656 2881 3163 
Q 2881 3666 2632 3958 
Q 2384 4250 1959 4250 
Q 1534 4250 1286 3958 
Q 1038 3666 1038 3163 
Q 1038 2656 1286 2365 
Q 1534 2075 1959 2075 
z
" transform="scale(0.015625)"/>
       </defs>
       <use xlink:href="#DejaVuSans-39"/>
      </g>
     </g>
    </g>
    <g id="xtick_11">
     <g id="line2d_11">
      <g>
       <use xlink:href="#m396efa7877" x="294.064792" y="314.44" style="stroke: #000000; stroke-width: 0.8"/>
      </g>
     </g>
     <g id="text_11">
      <!-- 10 -->
      <g transform="translate(287.702292 329.038437) scale(0.1 -0.1)">
       <use xlink:href="#DejaVuSans-31"/>
       <use xlink:href="#DejaVuSans-30" x="63.623047"/>
      </g>
     </g>
    </g>
    <g id="xtick_12">
     <g id="line2d_12">
      <g>
       <use xlink:href="#m396efa7877" x="318.056271" y="314.44" style="stroke: #000000; stroke-width: 0.8"/>
      </g>
     </g>
     <g id="text_12">
      <!-- 11 -->
      <g transform="translate(311.693771 329.038437) scale(0.1 -0.1)">
       <use xlink:href="#DejaVuSans-31"/>
       <use xlink:href="#DejaVuSans-31" x="63.623047"/>
      </g>
     </g>
    </g>
    <g id="xtick_13">
     <g id="line2d_13">
      <g>
       <use xlink:href="#m396efa7877" x="342.04775" y="314.44" style="stroke: #000000; stroke-width: 0.8"/>
      </g>
     </g>
     <g id="text_13">
      <!-- 12 -->
      <g transform="translate(335.68525 329.038437) scale(0.1 -0.1)">
       <use xlink:href="#DejaVuSans-31"/>
       <use xlink:href="#DejaVuSans-32" x="63.623047"/>
      </g>
     </g>
    </g>
    <g id="xtick_14">
     <g id="line2d_14">
      <g>
       <use xlink:href="#m396efa7877" x="366.039229" y="314.44" style="stroke: #000000; stroke-width: 0.8"/>
      </g>
     </g>
     <g id="text_14">
      <!-- 13 -->
      <g transform="translate(359.676729 329.038437) scale(0.1 -0.1)">
       <use xlink:href="#DejaVuSans-31"/>
       <use xlink:href="#DejaVuSans-33" x="63.623047"/>
      </g>
     </g>
    </g>
    <g id="xtick_15">
     <g id="line2d_15">
      <g>
       <use xlink:href="#m396efa7877" x="390.030708" y="314.44" style="stroke: #000000; stroke-width: 0.8"/>
      </g>
     </g>
     <g id="text_15">
      <!-- 14 -->
      <g transform="translate(383.668208 329.038437) scale(0.1 -0.1)">
       <use xlink:href="#DejaVuSans-31"/>
       <use xlink:href="#DejaVuSans-34" x="63.623047"/>
      </g>
     </g>
    </g>
    <g id="xtick_16">
     <g id="line2d_16">
      <g>
       <use xlink:href="#m396efa7877" x="414.022187" y="314.44" style="stroke: #000000; stroke-width: 0.8"/>
      </g>
     </g>
     <g id="text_16">
      <!-- 15 -->
      <g transform="translate(407.659687 329.038437) scale(0.1 -0.1)">
       <use xlink:href="#DejaVuSans-31"/>
       <use xlink:href="#DejaVuSans-35" x="63.623047"/>
      </g>
     </g>
    </g>
    <g id="xtick_17">
     <g id="line2d_17">
      <g>
       <use xlink:href="#m396efa7877" x="438.013667" y="314.44" style="stroke: #000000; stroke-width: 0.8"/>
      </g>
     </g>
     <g id="text_17">
      <!-- 16 -->
      <g transform="translate(431.651167 329.038437) scale(0.1 -0.1)">
       <use xlink:href="#DejaVuSans-31"/>
       <use xlink:href="#DejaVuSans-36" x="63.623047"/>
      </g>
     </g>
    </g>
    <g id="xtick_18">
     <g id="line2d_18">
      <g>
       <use xlink:href="#m396efa7877" x="462.005146" y="314.44" style="stroke: #000000; stroke-width: 0.8"/>
      </g>
     </g>
     <g id="text_18">
      <!-- 17 -->
      <g transform="translate(455.642646 329.038437) scale(0.1 -0.1)">
       <use xlink:href="#DejaVuSans-31"/>
       <use xlink:href="#DejaVuSans-37" x="63.623047"/>
      </g>
     </g>
    </g>
    <g id="xtick_19">
     <g id="line2d_19">
      <g>
       <use xlink:href="#m396efa7877" x="485.996625" y="314.44" style="stroke: #000000; stroke-width: 0.8"/>
      </g>
     </g>
     <g id="text_19">
      <!-- 18 -->
      <g transform="translate(479.634125 329.038437) scale(0.1 -0.1)">
       <use xlink:href="#DejaVuSans-31"/>
       <use xlink:href="#DejaVuSans-38" x="63.623047"/>
      </g>
     </g>
    </g>
    <g id="xtick_20">
     <g id="line2d_20">
      <g>
       <use xlink:href="#m396efa7877" x="509.988104" y="314.44" style="stroke: #000000; stroke-width: 0.8"/>
      </g>
     </g>
     <g id="text_20">
      <!-- 19 -->
      <g transform="translate(503.625604 329.038437) scale(0.1 -0.1)">
       <use xlink:href="#DejaVuSans-31"/>
       <use xlink:href="#DejaVuSans-39" x="63.623047"/>
      </g>
     </g>
    </g>
    <g id="xtick_21">
     <g id="line2d_21">
      <g>
       <use xlink:href="#m396efa7877" x="533.979583" y="314.44" style="stroke: #000000; stroke-width: 0.8"/>
      </g>
     </g>
     <g id="text_21">
      <!-- 20 -->
      <g transform="translate(527.617083 329.038437) scale(0.1 -0.1)">
       <use xlink:href="#DejaVuSans-32"/>
       <use xlink:href="#DejaVuSans-30" x="63.623047"/>
      </g>
     </g>
    </g>
    <g id="xtick_22">
     <g id="line2d_22">
      <g>
       <use xlink:href="#m396efa7877" x="557.971063" y="314.44" style="stroke: #000000; stroke-width: 0.8"/>
      </g>
     </g>
     <g id="text_22">
      <!-- 21 -->
      <g transform="translate(551.608563 329.038437) scale(0.1 -0.1)">
       <use xlink:href="#DejaVuSans-32"/>
       <use xlink:href="#DejaVuSans-31" x="63.623047"/>
      </g>
     </g>
    </g>
    <g id="xtick_23">
     <g id="line2d_23">
      <g>
       <use xlink:href="#m396efa7877" x="581.962542" y="314.44" style="stroke: #000000; stroke-width: 0.8"/>
      </g>
     </g>
     <g id="text_23">
      <!-- 22 -->
      <g transform="translate(575.600042 329.038437) scale(0.1 -0.1)">
       <use xlink:href="#DejaVuSans-32"/>
       <use xlink:href="#DejaVuSans-32" x="63.623047"/>
      </g>
     </g>
    </g>
    <g id="xtick_24">
     <g id="line2d_24">
      <g>
       <use xlink:href="#m396efa7877" x="605.954021" y="314.44" style="stroke: #000000; stroke-width: 0.8"/>
      </g>
     </g>
     <g id="text_24">
      <!-- 23 -->
      <g transform="translate(599.591521 329.038437) scale(0.1 -0.1)">
       <use xlink:href="#DejaVuSans-32"/>
       <use xlink:href="#DejaVuSans-33" x="63.623047"/>
      </g>
     </g>
    </g>
    <g id="text_25">
     <!-- Time of the day -->
     <g transform="translate(302.824313 342.716562) scale(0.1 -0.1)">
      <defs>
       <path id="DejaVuSans-54" d="M -19 4666 
L 3928 4666 
L 3928 4134 
L 2272 4134 
L 2272 0 
L 1638 0 
L 1638 4134 
L -19 4134 
L -19 4666 
z
" transform="scale(0.015625)"/>
       <path id="DejaVuSans-69" d="M 603 3500 
L 1178 3500 
L 1178 0 
L 603 0 
L 603 3500 
z
M 603 4863 
L 1178 4863 
L 1178 4134 
L 603 4134 
L 603 4863 
z
" transform="scale(0.015625)"/>
       <path id="DejaVuSans-6d" d="M 3328 2828 
Q 3544 3216 3844 3400 
Q 4144 3584 4550 3584 
Q 5097 3584 5394 3201 
Q 5691 2819 5691 2113 
L 5691 0 
L 5113 0 
L 5113 2094 
Q 5113 2597 4934 2840 
Q 4756 3084 4391 3084 
Q 3944 3084 3684 2787 
Q 3425 2491 3425 1978 
L 3425 0 
L 2847 0 
L 2847 2094 
Q 2847 2600 2669 2842 
Q 2491 3084 2119 3084 
Q 1678 3084 1418 2786 
Q 1159 2488 1159 1978 
L 1159 0 
L 581 0 
L 581 3500 
L 1159 3500 
L 1159 2956 
Q 1356 3278 1631 3431 
Q 1906 3584 2284 3584 
Q 2666 3584 2933 3390 
Q 3200 3197 3328 2828 
z
" transform="scale(0.015625)"/>
       <path id="DejaVuSans-65" d="M 3597 1894 
L 3597 1613 
L 953 1613 
Q 991 1019 1311 708 
Q 1631 397 2203 397 
Q 2534 397 2845 478 
Q 3156 559 3463 722 
L 3463 178 
Q 3153 47 2828 -22 
Q 2503 -91 2169 -91 
Q 1331 -91 842 396 
Q 353 884 353 1716 
Q 353 2575 817 3079 
Q 1281 3584 2069 3584 
Q 2775 3584 3186 3129 
Q 3597 2675 3597 1894 
z
M 3022 2063 
Q 3016 2534 2758 2815 
Q 2500 3097 2075 3097 
Q 1594 3097 1305 2825 
Q 1016 2553 972 2059 
L 3022 2063 
z
" transform="scale(0.015625)"/>
       <path id="DejaVuSans-20" transform="scale(0.015625)"/>
       <path id="DejaVuSans-6f" d="M 1959 3097 
Q 1497 3097 1228 2736 
Q 959 2375 959 1747 
Q 959 1119 1226 758 
Q 1494 397 1959 397 
Q 2419 397 2687 759 
Q 2956 1122 2956 1747 
Q 2956 2369 2687 2733 
Q 2419 3097 1959 3097 
z
M 1959 3584 
Q 2709 3584 3137 3096 
Q 3566 2609 3566 1747 
Q 3566 888 3137 398 
Q 2709 -91 1959 -91 
Q 1206 -91 779 398 
Q 353 888 353 1747 
Q 353 2609 779 3096 
Q 1206 3584 1959 3584 
z
" transform="scale(0.015625)"/>
       <path id="DejaVuSans-66" d="M 2375 4863 
L 2375 4384 
L 1825 4384 
Q 1516 4384 1395 4259 
Q 1275 4134 1275 3809 
L 1275 3500 
L 2222 3500 
L 2222 3053 
L 1275 3053 
L 1275 0 
L 697 0 
L 697 3053 
L 147 3053 
L 147 3500 
L 697 3500 
L 697 3744 
Q 697 4328 969 4595 
Q 1241 4863 1831 4863 
L 2375 4863 
z
" transform="scale(0.015625)"/>
       <path id="DejaVuSans-74" d="M 1172 4494 
L 1172 3500 
L 2356 3500 
L 2356 3053 
L 1172 3053 
L 1172 1153 
Q 1172 725 1289 603 
Q 1406 481 1766 481 
L 2356 481 
L 2356 0 
L 1766 0 
Q 1100 0 847 248 
Q 594 497 594 1153 
L 594 3053 
L 172 3053 
L 172 3500 
L 594 3500 
L 594 4494 
L 1172 4494 
z
" transform="scale(0.015625)"/>
       <path id="DejaVuSans-68" d="M 3513 2113 
L 3513 0 
L 2938 0 
L 2938 2094 
Q 2938 2591 2744 2837 
Q 2550 3084 2163 3084 
Q 1697 3084 1428 2787 
Q 1159 2491 1159 1978 
L 1159 0 
L 581 0 
L 581 4863 
L 1159 4863 
L 1159 2956 
Q 1366 3272 1645 3428 
Q 1925 3584 2291 3584 
Q 2894 3584 3203 3211 
Q 3513 2838 3513 2113 
z
" transform="scale(0.015625)"/>
       <path id="DejaVuSans-64" d="M 2906 2969 
L 2906 4863 
L 3481 4863 
L 3481 0 
L 2906 0 
L 2906 525 
Q 2725 213 2448 61 
Q 2172 -91 1784 -91 
Q 1150 -91 751 415 
Q 353 922 353 1747 
Q 353 2572 751 3078 
Q 1150 3584 1784 3584 
Q 2172 3584 2448 3432 
Q 2725 3281 2906 2969 
z
M 947 1747 
Q 947 1113 1208 752 
Q 1469 391 1925 391 
Q 2381 391 2643 752 
Q 2906 1113 2906 1747 
Q 2906 2381 2643 2742 
Q 2381 3103 1925 3103 
Q 1469 3103 1208 2742 
Q 947 2381 947 1747 
z
" transform="scale(0.015625)"/>
       <path id="DejaVuSans-61" d="M 2194 1759 
Q 1497 1759 1228 1600 
Q 959 1441 959 1056 
Q 959 750 1161 570 
Q 1363 391 1709 391 
Q 2188 391 2477 730 
Q 2766 1069 2766 1631 
L 2766 1759 
L 2194 1759 
z
M 3341 1997 
L 3341 0 
L 2766 0 
L 2766 531 
Q 2569 213 2275 61 
Q 1981 -91 1556 -91 
Q 1019 -91 701 211 
Q 384 513 384 1019 
Q 384 1609 779 1909 
Q 1175 2209 1959 2209 
L 2766 2209 
L 2766 2266 
Q 2766 2663 2505 2880 
Q 2244 3097 1772 3097 
Q 1472 3097 1187 3025 
Q 903 2953 641 2809 
L 641 3341 
Q 956 3463 1253 3523 
Q 1550 3584 1831 3584 
Q 2591 3584 2966 3190 
Q 3341 2797 3341 1997 
z
" transform="scale(0.015625)"/>
       <path id="DejaVuSans-79" d="M 2059 -325 
Q 1816 -950 1584 -1140 
Q 1353 -1331 966 -1331 
L 506 -1331 
L 506 -850 
L 844 -850 
Q 1081 -850 1212 -737 
Q 1344 -625 1503 -206 
L 1606 56 
L 191 3500 
L 800 3500 
L 1894 763 
L 2988 3500 
L 3597 3500 
L 2059 -325 
z
" transform="scale(0.015625)"/>
      </defs>
      <use xlink:href="#DejaVuSans-54"/>
      <use xlink:href="#DejaVuSans-69" x="57.958984"/>
      <use xlink:href="#DejaVuSans-6d" x="85.742188"/>
      <use xlink:href="#DejaVuSans-65" x="183.154297"/>
      <use xlink:href="#DejaVuSans-20" x="244.677734"/>
      <use xlink:href="#DejaVuSans-6f" x="276.464844"/>
      <use xlink:href="#DejaVuSans-66" x="337.646484"/>
      <use xlink:href="#DejaVuSans-20" x="372.851562"/>
      <use xlink:href="#DejaVuSans-74" x="404.638672"/>
      <use xlink:href="#DejaVuSans-68" x="443.847656"/>
      <use xlink:href="#DejaVuSans-65" x="507.226562"/>
      <use xlink:href="#DejaVuSans-20" x="568.75"/>
      <use xlink:href="#DejaVuSans-64" x="600.537109"/>
      <use xlink:href="#DejaVuSans-61" x="664.013672"/>
      <use xlink:href="#DejaVuSans-79" x="725.292969"/>
     </g>
    </g>
   </g>
   <g id="matplotlib.axis_2">
    <g id="ytick_1">
     <g id="line2d_25">
      <defs>
       <path id="m35f7bad39b" d="M 0 0 
L -3.5 0 
" style="stroke: #000000; stroke-width: 0.8"/>
      </defs>
      <g>
       <use xlink:href="#m35f7bad39b" x="54.15" y="312.094656" style="stroke: #000000; stroke-width: 0.8"/>
      </g>
     </g>
     <g id="text_26">
      <!-- 0 -->
      <g transform="translate(40.7875 315.893875) scale(0.1 -0.1)">
       <use xlink:href="#DejaVuSans-30"/>
      </g>
     </g>
    </g>
    <g id="ytick_2">
     <g id="line2d_26">
      <g>
       <use xlink:href="#m35f7bad39b" x="54.15" y="265.187786" style="stroke: #000000; stroke-width: 0.8"/>
      </g>
     </g>
     <g id="text_27">
      <!-- 200 -->
      <g transform="translate(28.0625 268.987005) scale(0.1 -0.1)">
       <use xlink:href="#DejaVuSans-32"/>
       <use xlink:href="#DejaVuSans-30" x="63.623047"/>
       <use xlink:href="#DejaVuSans-30" x="127.246094"/>
      </g>
     </g>
    </g>
    <g id="ytick_3">
     <g id="line2d_27">
      <g>
       <use xlink:href="#m35f7bad39b" x="54.15" y="218.280916" style="stroke: #000000; stroke-width: 0.8"/>
      </g>
     </g>
     <g id="text_28">
      <!-- 400 -->
      <g transform="translate(28.0625 222.080135) scale(0.1 -0.1)">
       <use xlink:href="#DejaVuSans-34"/>
       <use xlink:href="#DejaVuSans-30" x="63.623047"/>
       <use xlink:href="#DejaVuSans-30" x="127.246094"/>
      </g>
     </g>
    </g>
    <g id="ytick_4">
     <g id="line2d_28">
      <g>
       <use xlink:href="#m35f7bad39b" x="54.15" y="171.374046" style="stroke: #000000; stroke-width: 0.8"/>
      </g>
     </g>
     <g id="text_29">
      <!-- 600 -->
      <g transform="translate(28.0625 175.173265) scale(0.1 -0.1)">
       <use xlink:href="#DejaVuSans-36"/>
       <use xlink:href="#DejaVuSans-30" x="63.623047"/>
       <use xlink:href="#DejaVuSans-30" x="127.246094"/>
      </g>
     </g>
    </g>
    <g id="ytick_5">
     <g id="line2d_29">
      <g>
       <use xlink:href="#m35f7bad39b" x="54.15" y="124.467176" style="stroke: #000000; stroke-width: 0.8"/>
      </g>
     </g>
     <g id="text_30">
      <!-- 800 -->
      <g transform="translate(28.0625 128.266394) scale(0.1 -0.1)">
       <use xlink:href="#DejaVuSans-38"/>
       <use xlink:href="#DejaVuSans-30" x="63.623047"/>
       <use xlink:href="#DejaVuSans-30" x="127.246094"/>
      </g>
     </g>
    </g>
    <g id="ytick_6">
     <g id="line2d_30">
      <g>
       <use xlink:href="#m35f7bad39b" x="54.15" y="77.560305" style="stroke: #000000; stroke-width: 0.8"/>
      </g>
     </g>
     <g id="text_31">
      <!-- 1000 -->
      <g transform="translate(21.7 81.359524) scale(0.1 -0.1)">
       <use xlink:href="#DejaVuSans-31"/>
       <use xlink:href="#DejaVuSans-30" x="63.623047"/>
       <use xlink:href="#DejaVuSans-30" x="127.246094"/>
       <use xlink:href="#DejaVuSans-30" x="190.869141"/>
      </g>
     </g>
    </g>
    <g id="ytick_7">
     <g id="line2d_31">
      <g>
       <use xlink:href="#m35f7bad39b" x="54.15" y="30.653435" style="stroke: #000000; stroke-width: 0.8"/>
      </g>
     </g>
     <g id="text_32">
      <!-- 1200 -->
      <g transform="translate(21.7 34.452654) scale(0.1 -0.1)">
       <use xlink:href="#DejaVuSans-31"/>
       <use xlink:href="#DejaVuSans-32" x="63.623047"/>
       <use xlink:href="#DejaVuSans-30" x="127.246094"/>
       <use xlink:href="#DejaVuSans-30" x="190.869141"/>
      </g>
     </g>
    </g>
    <g id="text_33">
     <!-- Solar irradiance [W/m$^2$] -->
     <g transform="translate(15.620312 219.77) rotate(-90) scale(0.1 -0.1)">
      <defs>
       <path id="DejaVuSans-53" d="M 3425 4513 
L 3425 3897 
Q 3066 4069 2747 4153 
Q 2428 4238 2131 4238 
Q 1616 4238 1336 4038 
Q 1056 3838 1056 3469 
Q 1056 3159 1242 3001 
Q 1428 2844 1947 2747 
L 2328 2669 
Q 3034 2534 3370 2195 
Q 3706 1856 3706 1288 
Q 3706 609 3251 259 
Q 2797 -91 1919 -91 
Q 1588 -91 1214 -16 
Q 841 59 441 206 
L 441 856 
Q 825 641 1194 531 
Q 1563 422 1919 422 
Q 2459 422 2753 634 
Q 3047 847 3047 1241 
Q 3047 1584 2836 1778 
Q 2625 1972 2144 2069 
L 1759 2144 
Q 1053 2284 737 2584 
Q 422 2884 422 3419 
Q 422 4038 858 4394 
Q 1294 4750 2059 4750 
Q 2388 4750 2728 4690 
Q 3069 4631 3425 4513 
z
" transform="scale(0.015625)"/>
       <path id="DejaVuSans-6c" d="M 603 4863 
L 1178 4863 
L 1178 0 
L 603 0 
L 603 4863 
z
" transform="scale(0.015625)"/>
       <path id="DejaVuSans-72" d="M 2631 2963 
Q 2534 3019 2420 3045 
Q 2306 3072 2169 3072 
Q 1681 3072 1420 2755 
Q 1159 2438 1159 1844 
L 1159 0 
L 581 0 
L 581 3500 
L 1159 3500 
L 1159 2956 
Q 1341 3275 1631 3429 
Q 1922 3584 2338 3584 
Q 2397 3584 2469 3576 
Q 2541 3569 2628 3553 
L 2631 2963 
z
" transform="scale(0.015625)"/>
       <path id="DejaVuSans-6e" d="M 3513 2113 
L 3513 0 
L 2938 0 
L 2938 2094 
Q 2938 2591 2744 2837 
Q 2550 3084 2163 3084 
Q 1697 3084 1428 2787 
Q 1159 2491 1159 1978 
L 1159 0 
L 581 0 
L 581 3500 
L 1159 3500 
L 1159 2956 
Q 1366 3272 1645 3428 
Q 1925 3584 2291 3584 
Q 2894 3584 3203 3211 
Q 3513 2838 3513 2113 
z
" transform="scale(0.015625)"/>
       <path id="DejaVuSans-63" d="M 3122 3366 
L 3122 2828 
Q 2878 2963 2633 3030 
Q 2388 3097 2138 3097 
Q 1578 3097 1268 2742 
Q 959 2388 959 1747 
Q 959 1106 1268 751 
Q 1578 397 2138 397 
Q 2388 397 2633 464 
Q 2878 531 3122 666 
L 3122 134 
Q 2881 22 2623 -34 
Q 2366 -91 2075 -91 
Q 1284 -91 818 406 
Q 353 903 353 1747 
Q 353 2603 823 3093 
Q 1294 3584 2113 3584 
Q 2378 3584 2631 3529 
Q 2884 3475 3122 3366 
z
" transform="scale(0.015625)"/>
       <path id="DejaVuSans-5b" d="M 550 4863 
L 1875 4863 
L 1875 4416 
L 1125 4416 
L 1125 -397 
L 1875 -397 
L 1875 -844 
L 550 -844 
L 550 4863 
z
" transform="scale(0.015625)"/>
       <path id="DejaVuSans-57" d="M 213 4666 
L 850 4666 
L 1831 722 
L 2809 4666 
L 3519 4666 
L 4500 722 
L 5478 4666 
L 6119 4666 
L 4947 0 
L 4153 0 
L 3169 4050 
L 2175 0 
L 1381 0 
L 213 4666 
z
" transform="scale(0.015625)"/>
       <path id="DejaVuSans-2f" d="M 1625 4666 
L 2156 4666 
L 531 -594 
L 0 -594 
L 1625 4666 
z
" transform="scale(0.015625)"/>
       <path id="DejaVuSans-5d" d="M 1947 4863 
L 1947 -844 
L 622 -844 
L 622 -397 
L 1369 -397 
L 1369 4416 
L 622 4416 
L 622 4863 
L 1947 4863 
z
" transform="scale(0.015625)"/>
      </defs>
      <use xlink:href="#DejaVuSans-53" transform="translate(0 0.765625)"/>
      <use xlink:href="#DejaVuSans-6f" transform="translate(63.476562 0.765625)"/>
      <use xlink:href="#DejaVuSans-6c" transform="translate(124.658203 0.765625)"/>
      <use xlink:href="#DejaVuSans-61" transform="translate(152.441406 0.765625)"/>
      <use xlink:href="#DejaVuSans-72" transform="translate(213.720703 0.765625)"/>
      <use xlink:href="#DejaVuSans-20" transform="translate(254.833984 0.765625)"/>
      <use xlink:href="#DejaVuSans-69" transform="translate(286.621094 0.765625)"/>
      <use xlink:href="#DejaVuSans-72" transform="translate(314.404297 0.765625)"/>
      <use xlink:href="#DejaVuSans-72" transform="translate(355.517578 0.765625)"/>
      <use xlink:href="#DejaVuSans-61" transform="translate(396.630859 0.765625)"/>
      <use xlink:href="#DejaVuSans-64" transform="translate(457.910156 0.765625)"/>
      <use xlink:href="#DejaVuSans-69" transform="translate(521.386719 0.765625)"/>
      <use xlink:href="#DejaVuSans-61" transform="translate(549.169922 0.765625)"/>
      <use xlink:href="#DejaVuSans-6e" transform="translate(610.449219 0.765625)"/>
      <use xlink:href="#DejaVuSans-63" transform="translate(673.828125 0.765625)"/>
      <use xlink:href="#DejaVuSans-65" transform="translate(728.808594 0.765625)"/>
      <use xlink:href="#DejaVuSans-20" transform="translate(790.332031 0.765625)"/>
      <use xlink:href="#DejaVuSans-5b" transform="translate(822.119141 0.765625)"/>
      <use xlink:href="#DejaVuSans-57" transform="translate(861.132812 0.765625)"/>
      <use xlink:href="#DejaVuSans-2f" transform="translate(960.009766 0.765625)"/>
      <use xlink:href="#DejaVuSans-6d" transform="translate(993.701172 0.765625)"/>
      <use xlink:href="#DejaVuSans-32" transform="translate(1092.070312 39.046875) scale(0.7)"/>
      <use xlink:href="#DejaVuSans-5d" transform="translate(1139.34082 0.765625)"/>
     </g>
    </g>
   </g>
   <g id="line2d_32">
    <path d="M 54.15 312.094656 
L 136.577987 312.071203 
L 136.978123 311.860122 
L 138.17853 311.860122 
L 138.978802 311.625588 
L 139.779074 311.625588 
L 140.17921 311.414507 
L 140.579345 311.391053 
L 143.380296 310.312195 
L 144.180568 309.86658 
L 144.580704 309.749313 
L 145.781112 309.749313 
L 146.981519 309.280244 
L 147.381655 309.280244 
L 147.781791 309.069163 
L 148.181927 309.022256 
L 148.982198 308.647002 
L 150.182606 307.568144 
L 150.982878 307.028714 
L 151.783149 306.934901 
L 152.183285 307.145982 
L 152.983557 307.169435 
L 153.783829 306.887994 
L 154.183965 306.583099 
L 156.58478 305.504241 
L 158.185323 303.534153 
L 158.985595 302.97127 
L 159.385731 302.947817 
L 159.785867 303.135444 
L 160.586138 303.65142 
L 161.38641 303.65142 
L 162.186682 303.885954 
L 162.586818 303.885954 
L 163.387089 303.229258 
L 164.187361 302.08004 
L 165.387769 300.156858 
L 165.787904 299.89887 
L 167.388448 301.376436 
L 167.788584 301.329529 
L 168.18872 301.094995 
L 168.588855 299.617429 
L 168.988991 300.109952 
L 169.389127 304.683371 
L 169.789263 307.099075 
L 170.189399 304.683371 
L 170.589535 305.97331 
L 170.989671 306.79418 
L 171.389806 306.207844 
L 171.789942 306.160938 
L 172.590214 306.372018 
L 172.99035 291.901249 
L 173.390486 284.185069 
L 173.790622 280.901588 
L 174.190757 292.159237 
L 174.590893 295.442718 
L 174.991029 294.551486 
L 175.391165 295.395811 
L 175.791301 295.911786 
L 176.191437 286.436598 
L 176.591573 287.773445 
L 176.991708 292.86284 
L 177.391844 289.391731 
L 177.79198 287.703084 
L 178.192116 290.728577 
L 178.992388 285.099753 
L 179.392524 283.950534 
L 180.592931 292.135784 
L 180.993067 293.754071 
L 181.393203 294.082418 
L 181.793339 293.54299 
L 182.193475 293.800977 
L 182.993746 294.739115 
L 183.393882 293.871338 
L 183.794018 290.61131 
L 184.194154 291.432181 
L 184.59429 286.92912 
L 184.994426 271.660936 
L 185.394562 270.886972 
L 185.794697 285.310834 
L 186.194833 292.299957 
L 186.594969 291.760529 
L 187.395241 272.130004 
L 187.795377 276.609608 
L 188.195513 267.673852 
L 188.595648 284.982486 
L 188.995784 261.10689 
L 189.39592 251.584794 
L 189.796056 265.609949 
L 190.196192 244.666031 
L 190.596328 242.625579 
L 190.996464 242.766301 
L 191.396599 245.862157 
L 191.796735 270.769705 
L 192.196871 247.832244 
L 192.997143 282.168074 
L 193.397279 284.67759 
L 193.797415 281.652097 
L 194.19755 274.545705 
L 194.597686 284.044348 
L 194.997822 283.669094 
L 195.397958 284.302336 
L 196.19823 275.671471 
L 196.998501 281.792819 
L 197.398637 281.04231 
L 197.798773 280.737414 
L 198.198909 283.082758 
L 198.599045 284.53687 
L 198.999181 281.769364 
L 199.399317 276.42198 
L 199.799452 275.390031 
L 200.199588 271.426401 
L 200.599724 270.25373 
L 200.99986 267.415863 
L 201.399996 261.05998 
L 201.800132 234.065075 
L 202.600403 248.676569 
L 203.000539 247.64462 
L 203.400675 266.313552 
L 203.800811 269.432859 
L 204.200947 270.347542 
L 204.601083 268.916881 
L 205.001219 264.835985 
L 205.401354 245.08819 
L 205.80149 245.580713 
L 206.201626 262.795537 
L 206.601762 261.411782 
L 207.001898 264.789079 
L 207.402034 246.354681 
L 207.80217 233.150392 
L 208.202305 249.825786 
L 208.602441 288.500501 
L 209.402713 206.929455 
L 209.802849 214.176565 
L 210.202985 237.090574 
L 210.603121 233.384927 
L 211.003256 204.02123 
L 211.403392 234.534144 
L 211.803528 226.255084 
L 212.203664 247.621165 
L 212.6038 225.926737 
L 213.003936 231.743186 
L 213.404072 253.977044 
L 213.804207 255.149715 
L 214.204343 246.987919 
L 214.604479 188.119804 
L 215.004615 175.759841 
L 215.404751 181.435575 
L 215.804887 249.098728 
L 216.605158 259.723135 
L 217.005294 261.294515 
L 217.40543 257.283979 
L 217.805566 267.486224 
L 218.205702 301.493704 
L 218.605838 304.026674 
L 219.005974 298.304037 
L 219.406109 286.483506 
L 219.806245 293.68371 
L 220.206381 304.355023 
L 220.606517 293.308455 
L 221.406789 286.10825 
L 221.806925 271.473308 
L 222.20706 269.315592 
L 222.607196 267.931837 
L 223.007332 265.117425 
L 223.407468 261.341424 
L 223.807604 259.394789 
L 224.20774 259.230615 
L 225.008011 261.10689 
L 225.408147 260.356377 
L 225.808283 259.183705 
L 226.208419 262.349919 
L 226.608555 255.782957 
L 227.008691 256.298936 
L 227.408827 257.964128 
L 227.808962 264.132382 
L 228.609234 263.639858 
L 229.00937 264.132382 
L 229.809642 270.113008 
L 230.209778 273.161954 
L 230.609913 274.78024 
L 231.010049 275.178951 
L 231.410185 274.874056 
L 231.810321 275.061684 
L 232.210457 275.765287 
L 232.610593 275.788738 
L 233.010729 275.249308 
L 233.811 273.795196 
L 234.211136 273.537211 
L 234.611272 274.100092 
L 235.011408 274.404987 
L 235.411544 274.358081 
L 235.81168 274.82715 
L 236.211815 276.46889 
L 237.012087 282.238433 
L 237.412223 284.067802 
L 237.812359 283.997441 
L 239.012767 279.119125 
L 239.412902 276.093634 
L 239.813038 271.262225 
L 240.213174 264.953252 
L 241.413582 241.476362 
L 241.813718 238.990296 
L 242.213853 248.324768 
L 242.613989 248.066779 
L 243.014125 249.919599 
L 243.414261 253.038906 
L 243.814397 251.842783 
L 244.214533 247.691522 
L 244.614669 244.806753 
L 245.014804 242.907023 
L 245.41494 242.555221 
L 245.815076 244.220417 
L 246.215212 244.759843 
L 246.615348 243.376092 
L 247.015484 252.616744 
L 247.41562 256.087853 
L 247.815755 253.461069 
L 248.616027 235.824083 
L 249.016163 236.386971 
L 250.216571 245.346179 
L 250.616706 236.59805 
L 251.016842 238.075614 
L 251.416978 192.880849 
L 251.817114 115.859762 
L 252.21725 152.071872 
L 252.617386 112.036855 
L 253.017522 148.131697 
L 253.417657 133.684373 
L 253.817793 229.51511 
L 254.217929 227.7092 
L 254.618065 234.08853 
L 255.018201 166.21429 
L 255.418337 120.620806 
L 255.818473 138.914486 
L 256.218608 179.371661 
L 256.618744 247.761887 
L 257.01888 257.213618 
L 257.419016 262.045027 
L 257.819152 253.930137 
L 258.219288 121.207142 
L 258.619424 118.979066 
L 259.019559 111.122165 
L 259.419695 107.064724 
L 259.819831 105.985872 
L 260.219967 101.318632 
L 260.620103 98.644949 
L 261.420375 83.869285 
L 261.82051 95.947804 
L 262.620782 211.104163 
L 263.020918 191.332913 
L 263.421054 100.943383 
L 263.82119 196.07051 
L 264.221326 216.310829 
L 264.621461 203.41144 
L 265.021597 219.007974 
L 265.421733 229.186763 
L 265.821869 235.683368 
L 266.222005 238.216336 
L 267.422412 237.020209 
L 268.62282 240.983838 
L 269.022956 240.374055 
L 269.423092 238.263246 
L 269.823228 233.00967 
L 270.223363 177.91756 
L 270.623499 147.990968 
L 271.023635 130.14291 
L 271.423771 215.114702 
L 271.823907 226.817965 
L 272.224043 224.496076 
L 272.624179 219.993014 
L 273.024314 146.396137 
L 273.42445 126.577985 
L 273.824586 163.399878 
L 274.224722 166.097023 
L 274.624858 228.201716 
L 275.024994 231.039583 
L 275.42513 231.461749 
L 275.825265 226.513073 
L 276.225401 205.920953 
L 276.625537 55.514076 
L 277.425809 212.25338 
L 277.825945 163.845499 
L 278.226081 212.441012 
L 278.626216 205.21735 
L 279.026352 212.816269 
L 279.426488 227.404301 
L 279.826624 234.065075 
L 280.22676 229.632377 
L 280.626896 227.732648 
L 281.027032 223.651751 
L 281.427167 225.105867 
L 281.827303 211.878131 
L 282.227439 223.08887 
L 282.627575 184.930128 
L 283.027711 90.858406 
L 283.427847 130.823051 
L 283.827983 222.643256 
L 284.228118 233.760183 
L 284.628254 235.73027 
L 285.02839 235.519191 
L 285.428526 234.604508 
L 285.828662 227.568478 
L 286.228798 176.557249 
L 286.628934 197.125915 
L 287.029069 194.733669 
L 287.829341 222.385267 
L 288.229477 219.922656 
L 288.629613 207.468881 
L 289.029749 238.66195 
L 289.429885 239.201383 
L 289.830021 236.59805 
L 290.230156 173.907014 
L 290.630292 91.608919 
L 291.030428 141.306739 
L 291.430564 173.766299 
L 291.8307 86.425701 
L 292.230836 77.865197 
L 292.630972 120.1752 
L 293.031107 117.970571 
L 293.431243 208.969899 
L 293.831379 203.763241 
L 294.631651 173.860104 
L 295.031787 170.318641 
L 295.431923 214.481457 
L 295.832058 223.745564 
L 296.63233 222.244545 
L 297.032466 212.722449 
L 297.432602 214.434554 
L 297.832738 129.955285 
L 298.232874 134.857044 
L 298.633009 31.661944 
L 299.033145 63.089547 
L 299.833417 215.771396 
L 300.233553 230.593969 
L 300.633689 232.892403 
L 301.033825 233.900905 
L 301.43396 233.338024 
L 301.834096 230.312525 
L 303.034504 140.88458 
L 303.43464 54.036498 
L 303.834776 35.17996 
L 304.234911 132.722788 
L 304.635047 40.972947 
L 305.035183 32.717349 
L 305.435319 33.35058 
L 305.835455 40.316239 
L 306.235591 177.753383 
L 306.635727 224.519531 
L 307.435998 230.875414 
L 307.836134 231.602464 
L 308.636406 236.76222 
L 309.036542 237.114022 
L 309.436678 235.355014 
L 309.836813 231.20376 
L 310.236949 206.249307 
L 310.637085 135.748272 
L 311.037221 166.917893 
L 311.437357 141.588183 
L 311.837493 45.780901 
L 312.237629 48.923667 
L 312.637764 45.921616 
L 313.0379 47.469537 
L 313.438036 103.147997 
L 313.838172 58.047059 
L 314.238308 192.904296 
L 314.638444 217.671125 
L 315.03858 170.576623 
L 315.438715 200.47976 
L 315.838851 214.551821 
L 316.238987 236.386971 
L 316.639123 158.990635 
L 317.039259 224.261542 
L 317.439395 230.124901 
L 317.839531 232.517154 
L 318.239666 233.384927 
L 318.639802 233.291115 
L 319.039938 230.617424 
L 319.440074 104.742842 
L 319.84021 86.425701 
L 320.240346 51.011028 
L 321.040617 69.7503 
L 321.440753 75.027337 
L 321.840889 78.099731 
L 322.241025 77.724482 
L 323.841568 63.206815 
L 324.64184 139.758818 
L 325.041976 92.734681 
L 325.442112 141.846165 
L 325.842248 222.807426 
L 326.242384 229.257121 
L 326.642519 180.239441 
L 327.042655 25.259145 
L 327.442791 30.51272 
L 327.842927 176.533802 
L 328.243063 66.771725 
L 328.643199 174.258815 
L 329.043335 155.496067 
L 329.44347 46.367237 
L 329.843606 51.222086 
L 330.243742 52.512025 
L 330.643878 146.37269 
L 331.044014 75.332229 
L 331.44415 64.1684 
L 331.844286 66.419924 
L 332.244421 67.053155 
L 332.644557 66.326104 
L 333.044693 62.878461 
L 334.245101 42.544315 
L 334.645237 48.829847 
L 335.045372 230.077991 
L 335.445508 229.773099 
L 336.24578 240.866571 
L 336.645916 241.030748 
L 337.046052 240.327145 
L 337.446188 238.849581 
L 337.846323 228.53007 
L 338.246459 233.338024 
L 338.646595 227.896824 
L 339.046731 226.606885 
L 339.446867 172.171468 
L 339.847003 32.951883 
L 340.247139 89.826449 
L 340.647274 38.955957 
L 341.04741 47.586804 
L 341.447546 105.329178 
L 341.847682 69.234336 
L 342.247818 69.56269 
L 343.04809 66.842097 
L 343.448226 64.191847 
L 343.848361 129.838018 
L 344.248497 55.912773 
L 344.648633 51.315906 
L 345.048769 97.143924 
L 345.448905 67.311166 
L 345.849041 240.725856 
L 346.249177 249.708519 
L 346.649312 249.23945 
L 347.049448 245.932515 
L 347.449584 240.045701 
L 347.84972 208.266296 
L 348.249856 210.470925 
L 348.649992 75.590211 
L 349.050128 69.586137 
L 349.450263 74.13611 
L 349.850399 74.511359 
L 350.250535 73.26833 
L 350.650671 71.462412 
L 351.450943 63.769674 
L 351.851079 61.846504 
L 352.251214 63.042623 
L 352.65135 62.667374 
L 353.051486 62.690822 
L 353.851758 57.929792 
L 354.251894 54.059975 
L 354.65203 47.821338 
L 355.052165 47.07084 
L 355.452301 208.219394 
L 355.852437 228.295536 
L 356.252573 110.324757 
L 356.652709 61.869952 
L 357.052845 235.73027 
L 357.452981 236.926397 
L 357.853116 231.813551 
L 358.253252 232.681324 
L 358.653388 230.33598 
L 359.053524 224.542986 
L 359.853796 42.21599 
L 360.253932 51.55044 
L 360.654067 53.731621 
L 361.054203 52.793484 
L 361.454339 50.471588 
L 361.854475 50.354321 
L 362.254611 178.785326 
L 362.654747 235.824083 
L 363.054883 241.593629 
L 363.455018 238.357058 
L 363.855154 132.746235 
L 364.25529 59.102463 
L 364.655426 62.901908 
L 365.055562 63.675883 
L 365.455698 64.191847 
L 365.855834 76.457991 
L 366.255969 195.29655 
L 366.656105 237.348556 
L 367.056241 119.682669 
L 367.456377 57.976687 
L 368.256649 93.743176 
L 369.05692 237.747267 
L 369.457056 232.1888 
L 369.857192 245.017832 
L 370.257328 253.977044 
L 371.0576 256.252026 
L 371.457736 225.574936 
L 371.857871 96.581035 
L 372.258007 84.713603 
L 372.658143 84.103819 
L 373.058279 148.530394 
L 373.458415 247.081731 
L 373.858551 178.972965 
L 374.258687 237.348556 
L 374.658822 78.052822 
L 375.058958 75.754388 
L 375.459094 75.965475 
L 375.85923 148.694571 
L 376.259366 252.335303 
L 376.659502 217.600768 
L 377.059638 111.215985 
L 377.459773 83.001505 
L 377.859909 84.221087 
L 378.260045 82.039906 
L 378.660181 94.822028 
L 379.060317 236.082072 
L 379.460453 192.57595 
L 379.860589 198.251684 
L 380.260724 252.358758 
L 380.66086 247.59771 
L 381.060996 117.853304 
L 381.461132 80.140183 
L 381.861268 88.325438 
L 382.261404 93.743176 
L 382.66154 95.783627 
L 383.061675 147.404632 
L 383.461811 100.028693 
L 383.861947 99.723802 
L 384.262083 100.732296 
L 384.662219 104.039239 
L 385.062355 106.173496 
L 385.462491 103.101102 
L 385.862626 102.983835 
L 386.662898 95.877432 
L 387.46317 83.869285 
L 387.863306 143.534815 
L 388.263442 158.122855 
L 388.663577 230.148356 
L 389.063713 235.284656 
L 389.463849 236.832585 
L 389.863985 230.265623 
L 390.664257 84.854318 
L 391.064393 92.734681 
L 391.464528 98.152419 
L 391.864664 99.606534 
L 392.2648 101.92843 
L 392.664936 100.943383 
L 393.065072 122.919255 
L 393.865344 111.567786 
L 394.265479 142.338696 
L 395.065751 114.968534 
L 395.465887 102.444394 
L 395.866023 102.960373 
L 396.266159 94.282602 
L 396.666295 129.673841 
L 397.066431 97.167371 
L 397.466566 103.640528 
L 397.866702 113.514419 
L 398.266838 104.508308 
L 398.666974 112.388656 
L 399.867382 121.160247 
L 400.267517 120.714626 
L 400.667653 124.772067 
L 401.067789 146.865206 
L 401.467925 125.546028 
L 401.868061 136.100074 
L 402.268197 126.43727 
L 402.668333 129.110953 
L 403.068468 133.121499 
L 403.468604 135.677915 
L 404.669012 138.961396 
L 405.069148 139.24284 
L 405.469284 139.172482 
L 405.869419 139.547731 
L 406.669691 141.001847 
L 407.069827 141.025295 
L 407.469963 140.673494 
L 408.67037 136.874048 
L 409.470642 133.356033 
L 409.870778 131.995723 
L 410.270914 132.300629 
L 410.67105 133.121499 
L 411.071186 135.724824 
L 411.471321 135.724824 
L 411.871457 136.569142 
L 412.271593 138.609594 
L 412.671729 139.758818 
L 413.071865 140.0168 
L 413.472001 139.571194 
L 413.872137 138.937948 
L 414.272272 139.641551 
L 414.672408 138.984858 
L 415.072544 139.524284 
L 415.47268 139.571194 
L 415.872816 141.142562 
L 416.673088 146.630672 
L 417.073223 148.811838 
L 418.273631 161.969224 
L 418.673767 162.83699 
L 419.073903 164.056571 
L 419.474039 164.783636 
L 420.27431 165.604506 
L 420.674446 165.534135 
L 422.27499 168.512724 
L 422.675125 168.77072 
L 424.275669 171.866562 
L 424.675805 174.211906 
L 425.075941 228.037546 
L 425.876212 174.49335 
L 426.276348 175.290772 
L 426.676484 175.759841 
L 427.07662 176.557249 
L 427.876892 177.026318 
L 428.277027 177.659564 
L 428.677163 177.941008 
L 429.077299 177.987917 
L 429.877571 176.064733 
L 430.277707 175.877108 
L 430.677843 177.143585 
L 431.478114 181.646648 
L 432.278386 184.13272 
L 432.678522 185.188125 
L 433.078658 185.586822 
L 433.478794 186.19662 
L 433.878929 186.243529 
L 435.079337 187.252024 
L 435.479473 187.298934 
L 435.879609 186.97058 
L 436.279745 187.533468 
L 436.67988 188.354339 
L 437.080016 187.955627 
L 437.480152 186.478064 
L 437.880288 189.269014 
L 438.280424 264.906346 
L 438.68056 247.832244 
L 439.080696 291.643262 
L 439.480831 293.519537 
L 439.880967 293.589896 
L 440.281103 293.941697 
L 440.681239 296.216682 
L 441.881647 293.988605 
L 442.281782 289.555906 
L 442.681918 273.373034 
L 443.082054 283.481466 
L 443.882326 292.487585 
L 444.682598 291.385273 
L 445.082733 290.118789 
L 445.482869 222.901246 
L 445.883005 288.641221 
L 446.283141 258.738092 
L 446.683277 206.601108 
L 447.083413 222.877791 
L 447.483549 209.157531 
L 447.883685 289.485545 
L 448.28382 290.189148 
L 448.683956 290.447135 
L 449.084092 291.103832 
L 449.484228 291.010018 
L 449.884364 289.93116 
L 450.2845 284.888672 
L 450.684636 281.511379 
L 451.084771 242.344142 
L 451.484907 229.820009 
L 451.885043 211.596687 
L 452.285179 212.628637 
L 453.085451 212.652092 
L 453.885722 211.667044 
L 454.285858 232.048085 
L 454.685994 240.209878 
L 455.08613 208.008314 
L 455.486266 206.601108 
L 456.286538 205.193902 
L 456.686673 205.240805 
L 457.086809 205.850595 
L 457.887081 208.102127 
L 458.687353 212.534824 
L 459.087489 213.754406 
L 459.487624 214.458009 
L 459.88776 240.30369 
L 460.287896 282.07426 
L 460.688032 284.513417 
L 461.88844 289.133743 
L 462.688711 291.807435 
L 463.488983 294.058965 
L 464.289255 294.973649 
L 465.089526 296.380855 
L 465.889798 296.849924 
L 466.69007 296.849924 
L 467.090206 296.662295 
L 467.490342 296.099414 
L 468.290613 294.715661 
L 468.690749 294.50458 
L 469.090885 294.739115 
L 469.491021 295.161277 
L 470.291293 296.545028 
L 470.691428 297.014097 
L 471.091564 297.084458 
L 471.4917 297.037552 
L 471.891836 296.709203 
L 475.493059 291.713621 
L 475.893195 291.338366 
L 476.29333 291.596354 
L 477.493738 293.730616 
L 477.893874 291.690168 
L 478.29401 284.513417 
L 478.694146 293.097374 
L 479.494417 293.097374 
L 479.894553 292.956654 
L 480.294689 292.956654 
L 481.094961 293.425722 
L 481.495097 293.988605 
L 482.295368 294.457674 
L 482.695504 292.909746 
L 483.09564 285.639181 
L 483.495776 293.331908 
L 483.895912 289.743532 
L 484.696183 271.731293 
L 485.096319 268.823069 
L 485.896591 268.940336 
L 487.096999 270.605531 
L 487.497134 271.801654 
L 487.89727 277.735374 
L 488.297406 289.415185 
L 488.697542 293.214641 
L 489.097678 294.387313 
L 489.497814 294.856382 
L 489.89795 295.090916 
L 490.298085 294.973649 
L 490.698221 294.199685 
L 491.098357 290.798937 
L 491.498493 283.340745 
L 491.898629 279.869638 
L 492.298765 280.854682 
L 492.698901 280.17453 
L 493.099036 278.931501 
L 493.499172 279.846183 
L 493.899308 283.246931 
L 494.299444 281.417563 
L 495.099716 282.824769 
L 495.899987 284.747952 
L 496.300123 286.225517 
L 496.700259 286.061344 
L 497.100395 289.039929 
L 497.500531 289.978066 
L 497.900667 296.07596 
L 498.700938 295.724158 
L 499.101074 294.012058 
L 499.50121 291.361819 
L 499.901346 297.318992 
L 500.301482 301.282623 
L 500.701618 301.564064 
L 501.101754 302.033132 
L 502.702297 302.807097 
L 503.902705 303.323071 
L 504.702976 304.097035 
L 505.103112 304.190849 
L 505.503248 304.683371 
L 505.903384 305.433881 
L 507.103792 306.606553 
L 507.904063 307.638504 
L 508.704335 308.2952 
L 511.505286 309.514779 
L 511.905422 309.749313 
L 512.305558 309.79622 
L 513.105829 310.101115 
L 514.306237 310.452916 
L 514.706373 310.452916 
L 515.106509 310.68745 
L 515.90678 310.921985 
L 518.307596 311.625588 
L 519.107867 311.625588 
L 519.508003 311.836669 
L 520.708411 311.907029 
L 521.108547 312.094656 
L 629.9455 312.094656 
L 629.9455 312.094656 
" clip-path="url(#pf4c5967c29)" style="fill: none; stroke: #ffae49; stroke-width: 1.5; stroke-linecap: square"/>
   </g>
   <g id="line2d_33">
    <path d="M 54.15 312.094656 
L 222.20706 312.094656 
L 223.007332 311.860122 
L 225.808283 311.860122 
L 226.608555 311.625588 
L 227.808962 311.625588 
L 228.609234 311.391053 
L 229.809642 311.391053 
L 230.209778 311.156519 
L 230.609913 311.156519 
L 231.810321 310.781264 
L 233.410864 310.452916 
L 234.211136 310.452916 
L 235.011408 310.218382 
L 240.61331 308.553188 
L 241.813718 307.802678 
L 243.414261 306.489286 
L 244.614669 305.316614 
L 248.215891 302.291121 
L 249.416299 301.540611 
L 250.216571 301.071542 
L 250.616706 299.851963 
L 251.016842 297.952235 
L 251.416978 297.858421 
L 252.21725 289.438639 
L 252.617386 289.626265 
L 253.017522 285.662636 
L 253.417657 277.266305 
L 253.817793 274.803695 
L 254.618065 273.560662 
L 255.018201 272.692885 
L 255.418337 272.247272 
L 255.818473 272.247272 
L 256.218608 272.810153 
L 257.419016 275.694926 
L 258.219288 277.571201 
L 258.619424 280.127624 
L 259.419695 292.604852 
L 259.819831 293.285002 
L 261.020239 290.798937 
L 261.420375 289.063384 
L 262.620782 280.432519 
L 263.020918 281.722458 
L 263.421054 286.295878 
L 263.82119 287.703084 
L 264.221326 287.046387 
L 264.621461 286.71804 
L 265.021597 287.796898 
L 265.821869 291.690168 
L 266.222005 293.167735 
L 266.622141 294.199685 
L 267.022277 294.786021 
L 267.422412 294.973649 
L 267.822548 294.668753 
L 268.222684 293.871338 
L 269.022956 291.080379 
L 269.823228 288.383234 
L 270.223363 287.890712 
L 270.623499 288.1487 
L 271.423771 288.875756 
L 271.823907 289.157196 
L 272.224043 289.602812 
L 273.42445 292.299957 
L 274.224722 292.464132 
L 274.624858 292.206143 
L 275.024994 291.713621 
L 276.225401 289.673173 
L 276.625537 289.579359 
L 277.025673 289.813893 
L 277.425809 290.658216 
L 277.825945 291.150738 
L 278.226081 288.758489 
L 279.026352 266.032111 
L 279.426488 272.270723 
L 279.826624 285.920623 
L 280.22676 272.247272 
L 280.626896 267.556585 
L 281.027032 254.328845 
L 281.427167 252.992 
L 281.827303 250.599747 
L 282.227439 252.405664 
L 282.627575 248.817291 
L 283.027711 248.043324 
L 283.427847 248.113688 
L 283.827983 248.653115 
L 284.228118 260.379832 
L 284.628254 257.307431 
L 285.02839 247.902602 
L 285.428526 244.92402 
L 286.228798 244.619121 
L 287.429205 243.493359 
L 288.229477 241.710896 
L 288.629613 242.742846 
L 289.029749 252.616744 
L 289.830021 278.438977 
L 290.630292 288.82885 
L 291.030428 291.995063 
L 291.430564 293.754071 
L 291.8307 294.434219 
L 292.230836 294.270046 
L 292.630972 293.54299 
L 293.031107 291.995063 
L 293.431243 288.523954 
L 293.831379 283.153117 
L 294.231515 280.080718 
L 294.631651 279.212941 
L 295.031787 276.023273 
L 295.431923 278.720418 
L 295.832058 279.35366 
L 296.63233 260.098392 
L 297.032466 263.428779 
L 297.432602 243.141557 
L 297.832738 241.804709 
L 298.232874 250.247945 
L 298.633009 264.81253 
L 299.033145 271.285679 
L 299.433281 273.279221 
L 299.833417 274.334626 
L 300.633689 252.734011 
L 301.033825 278.227898 
L 301.43396 282.637142 
L 301.834096 285.263926 
L 302.234232 284.982486 
L 302.634368 285.568822 
L 303.834776 278.743872 
L 304.234911 275.60111 
L 304.635047 281.745913 
L 305.035183 283.973987 
L 305.435319 283.997441 
L 305.835455 278.157537 
L 306.235591 277.946454 
L 306.635727 278.60315 
L 307.035862 278.743872 
L 307.435998 279.96345 
L 308.23627 283.809814 
L 308.636406 284.888672 
L 309.036542 284.935578 
L 309.436678 284.091255 
L 309.836813 283.85672 
L 310.236949 281.558285 
L 310.637085 285.310834 
L 311.037221 284.560323 
L 312.237629 279.635104 
L 312.637764 279.705461 
L 313.0379 278.392071 
L 313.438036 278.040269 
L 314.238308 276.609608 
L 314.638444 276.210901 
L 315.03858 276.14054 
L 315.438715 276.42198 
L 315.838851 277.266305 
L 316.639123 279.564743 
L 317.039259 280.127624 
L 317.439395 280.057263 
L 317.839531 279.35366 
L 319.440074 274.709882 
L 320.240346 270.628982 
L 320.640482 266.055563 
L 321.040617 267.81457 
L 321.440753 268.213278 
L 321.840889 268.869975 
L 322.241025 268.541628 
L 322.641161 271.144957 
L 323.841568 274.944417 
L 324.64184 277.195944 
L 325.041976 277.805735 
L 325.442112 277.665013 
L 325.842248 276.773782 
L 326.642519 274.639521 
L 327.042655 274.146998 
L 327.442791 274.897507 
L 328.243063 277.219399 
L 329.44347 283.973987 
L 330.243742 288.28942 
L 331.44415 294.668753 
L 331.844286 295.747613 
L 332.244421 296.216682 
L 332.644557 296.052507 
L 333.044693 296.052507 
L 333.444829 296.263588 
L 333.844965 296.099414 
L 334.245101 293.097374 
L 334.645237 245.627623 
L 335.045372 228.600427 
L 335.445508 228.272081 
L 335.845644 228.154814 
L 336.24578 229.116406 
L 336.645916 229.35094 
L 337.046052 229.327485 
L 337.446188 229.820009 
L 338.246459 228.600427 
L 338.646595 228.436251 
L 339.847003 229.773099 
L 340.247139 230.17181 
L 340.647274 229.632377 
L 341.04741 230.148356 
L 341.447546 230.101446 
L 341.847682 229.51511 
L 342.247818 229.233673 
L 342.647954 229.280576 
L 343.04809 230.289078 
L 343.848361 228.318983 
L 344.248497 228.248626 
L 344.648633 228.69424 
L 345.048769 230.359435 
L 345.448905 230.195258 
L 345.849041 229.186763 
L 346.249177 228.48316 
L 346.649312 228.412803 
L 347.049448 228.764604 
L 347.449584 228.788052 
L 347.84972 229.374388 
L 348.249856 228.623882 
L 348.649992 228.412803 
L 350.250535 225.621838 
L 350.650671 227.545023 
L 351.450943 223.839383 
L 353.051486 216.123197 
L 353.451622 213.895121 
L 353.851758 212.980438 
L 354.251894 210.330203 
L 355.052165 248.700024 
L 355.452301 238.357058 
L 355.852437 249.731974 
L 356.252573 230.54706 
L 356.652709 217.976024 
L 357.052845 219.453588 
L 357.452981 210.939994 
L 358.253252 209.204434 
L 358.653388 205.381527 
L 359.053524 203.810144 
L 359.45366 220.36827 
L 359.853796 225.105867 
L 360.654067 215.912118 
L 361.054203 229.866912 
L 361.454339 236.574595 
L 361.854475 240.936936 
L 362.254611 235.214299 
L 362.654747 242.179965 
L 363.054883 243.84516 
L 363.455018 251.397169 
L 364.25529 258.480102 
L 364.655426 261.435237 
L 365.055562 262.561002 
L 365.455698 262.373374 
L 365.855834 261.458692 
L 366.255969 259.394789 
L 366.656105 256.74455 
L 367.056241 258.198662 
L 367.856513 264.648357 
L 368.256649 266.852982 
L 368.656785 268.096011 
L 369.457056 269.198325 
L 370.657464 270.441354 
L 371.857871 271.918921 
L 372.658143 273.20886 
L 374.258687 276.445435 
L 375.058958 278.485883 
L 376.259366 282.285341 
L 377.059638 283.950534 
L 379.060317 287.562364 
L 380.260724 290.447135 
L 382.261404 295.419264 
L 383.461811 297.57698 
L 384.262083 298.491664 
L 385.462491 299.406348 
L 386.662898 300.109952 
L 388.263442 301.470251 
L 389.063713 301.540611 
L 389.463849 301.540611 
L 390.664257 300.860461 
L 392.664936 299.078 
L 395.065751 297.600434 
L 395.866023 296.732656 
L 397.066431 295.32545 
L 397.866702 294.879835 
L 398.666974 294.528033 
L 400.667653 292.745573 
L 401.467925 291.783982 
L 402.268197 290.376776 
L 403.468604 287.60927 
L 403.86874 286.671132 
L 404.268876 283.504919 
L 404.669012 272.036189 
L 405.069148 274.146998 
L 405.469284 277.149038 
L 405.869419 262.678269 
L 406.669691 275.178951 
L 407.469963 261.482143 
L 408.270235 280.690508 
L 408.67037 270.300636 
L 409.070506 266.641899 
L 409.470642 271.144957 
L 409.870778 271.660936 
L 410.270914 269.127964 
L 411.071186 269.831567 
L 411.871457 271.121506 
L 412.671729 273.161954 
L 413.071865 276.398529 
L 413.472001 291.361819 
L 413.872137 296.0056 
L 414.272272 295.18473 
L 415.072544 280.50288 
L 415.47268 280.737414 
L 415.872816 282.3557 
L 416.673088 294.246593 
L 417.073223 292.909746 
L 417.473359 296.545028 
L 417.873495 298.491664 
L 418.273631 302.455295 
L 418.673767 302.83055 
L 419.073903 302.666375 
L 419.474039 301.986226 
L 420.27431 303.768687 
L 420.674446 304.519197 
L 421.074582 304.613011 
L 421.474718 304.824092 
L 421.874854 304.824092 
L 423.875533 305.762229 
L 424.275669 305.949856 
L 425.476076 305.856043 
L 426.276348 302.126947 
L 427.07662 305.715322 
L 427.476756 305.691869 
L 427.876892 305.527695 
L 428.277027 305.527695 
L 429.077299 305.269707 
L 429.477435 304.777185 
L 429.877571 301.822052 
L 430.277707 300.860461 
L 430.677843 301.704785 
L 431.077978 303.862501 
L 431.87825 305.691869 
L 432.678522 306.325111 
L 433.878929 307.497783 
L 435.479473 308.177933 
L 435.879609 308.623548 
L 437.480152 309.655499 
L 439.080696 310.68745 
L 439.880967 310.921985 
L 440.281103 311.133066 
L 440.681239 311.156519 
L 441.081375 311.391053 
L 441.481511 311.391053 
L 443.082054 311.860122 
L 443.48219 311.860122 
L 443.882326 312.094656 
L 629.9455 312.094656 
L 629.9455 312.094656 
" clip-path="url(#pf4c5967c29)" style="fill: none; stroke: #024b7a; stroke-width: 1.5; stroke-linecap: square"/>
   </g>
   <g id="patch_3">
    <path d="M 54.15 314.44 
L 54.15 7.2 
" style="fill: none; stroke: #000000; stroke-width: 0.8; stroke-linejoin: miter; stroke-linecap: square"/>
   </g>
   <g id="patch_4">
    <path d="M 629.9455 314.44 
L 629.9455 7.2 
" style="fill: none; stroke: #000000; stroke-width: 0.8; stroke-linejoin: miter; stroke-linecap: square"/>
   </g>
   <g id="patch_5">
    <path d="M 54.15 314.44 
L 629.9455 314.44 
" style="fill: none; stroke: #000000; stroke-width: 0.8; stroke-linejoin: miter; stroke-linecap: square"/>
   </g>
   <g id="patch_6">
    <path d="M 54.15 7.2 
L 629.9455 7.2 
" style="fill: none; stroke: #000000; stroke-width: 0.8; stroke-linejoin: miter; stroke-linecap: square"/>
   </g>
   <g id="legend_1">
    <g id="patch_7">
     <path d="M 548.51425 44.55625 
L 622.9455 44.55625 
Q 624.9455 44.55625 624.9455 42.55625 
L 624.9455 14.2 
Q 624.9455 12.2 622.9455 12.2 
L 548.51425 12.2 
Q 546.51425 12.2 546.51425 14.2 
L 546.51425 42.55625 
Q 546.51425 44.55625 548.51425 44.55625 
z
" style="fill: #ffffff; opacity: 0.8; stroke: #cccccc; stroke-linejoin: miter"/>
    </g>
    <g id="line2d_34">
     <path d="M 550.51425 20.298437 
L 560.51425 20.298437 
L 570.51425 20.298437 
" style="fill: none; stroke: #ffae49; stroke-width: 1.5; stroke-linecap: square"/>
    </g>
    <g id="text_34">
     <!-- Summer -->
     <g transform="translate(578.51425 23.798437) scale(0.1 -0.1)">
      <defs>
       <path id="DejaVuSans-75" d="M 544 1381 
L 544 3500 
L 1119 3500 
L 1119 1403 
Q 1119 906 1312 657 
Q 1506 409 1894 409 
Q 2359 409 2629 706 
Q 2900 1003 2900 1516 
L 2900 3500 
L 3475 3500 
L 3475 0 
L 2900 0 
L 2900 538 
Q 2691 219 2414 64 
Q 2138 -91 1772 -91 
Q 1169 -91 856 284 
Q 544 659 544 1381 
z
M 1991 3584 
L 1991 3584 
z
" transform="scale(0.015625)"/>
      </defs>
      <use xlink:href="#DejaVuSans-53"/>
      <use xlink:href="#DejaVuSans-75" x="63.476562"/>
      <use xlink:href="#DejaVuSans-6d" x="126.855469"/>
      <use xlink:href="#DejaVuSans-6d" x="224.267578"/>
      <use xlink:href="#DejaVuSans-65" x="321.679688"/>
      <use xlink:href="#DejaVuSans-72" x="383.203125"/>
     </g>
    </g>
    <g id="line2d_35">
     <path d="M 550.51425 34.976562 
L 560.51425 34.976562 
L 570.51425 34.976562 
" style="fill: none; stroke: #024b7a; stroke-width: 1.5; stroke-linecap: square"/>
    </g>
    <g id="text_35">
     <!-- Winter -->
     <g transform="translate(578.51425 38.476562) scale(0.1 -0.1)">
      <use xlink:href="#DejaVuSans-57"/>
      <use xlink:href="#DejaVuSans-69" x="96.626953"/>
      <use xlink:href="#DejaVuSans-6e" x="124.410156"/>
      <use xlink:href="#DejaVuSans-74" x="187.789062"/>
      <use xlink:href="#DejaVuSans-65" x="226.998047"/>
      <use xlink:href="#DejaVuSans-72" x="288.521484"/>
     </g>
    </g>
   </g>
  </g>
 </g>
 <defs>
  <clipPath id="pf4c5967c29">
   <rect x="54.15" y="7.2" width="575.7955" height="307.24"/>
  </clipPath>
 </defs>
</svg>
