<?xml version="1.0" encoding="utf-8" standalone="no"?>
<!DOCTYPE svg PUBLIC "-//W3C//DTD SVG 1.1//EN"
  "http://www.w3.org/Graphics/SVG/1.1/DTD/svg11.dtd">
<svg xmlns:xlink="http://www.w3.org/1999/xlink" width="565.289875pt" height="207.99625pt" viewBox="0 0 565.289875 207.99625" xmlns="http://www.w3.org/2000/svg" version="1.1">
 <metadata>
  <rdf:RDF xmlns:dc="http://purl.org/dc/elements/1.1/" xmlns:cc="http://creativecommons.org/ns#" xmlns:rdf="http://www.w3.org/1999/02/22-rdf-syntax-ns#">
   <cc:Work>
    <dc:type rdf:resource="http://purl.org/dc/dcmitype/StillImage"/>
    <dc:date>2024-05-15T16:23:53.457527</dc:date>
    <dc:format>image/svg+xml</dc:format>
    <dc:creator>
     <cc:Agent>
      <dc:title>Matplotlib v3.8.2, https://matplotlib.org/</dc:title>
     </cc:Agent>
    </dc:creator>
   </cc:Work>
  </rdf:RDF>
 </metadata>
 <defs>
  <style type="text/css">*{stroke-linejoin: round; stroke-linecap: butt}</style>
 </defs>
 <g id="figure_1">
  <g id="patch_1">
   <path d="M 0 207.99625 
L 565.289875 207.99625 
L 565.289875 0 
L 0 0 
z
" style="fill: #ffffff"/>
  </g>
  <g id="axes_1">
   <g id="patch_2">
    <path d="M 54.15 170.44 
L 543.6805 170.44 
L 543.6805 7.2 
L 54.15 7.2 
z
" style="fill: #ffffff"/>
   </g>
   <g id="matplotlib.axis_1">
    <g id="xtick_1">
     <g id="line2d_1">
      <defs>
       <path id="m1fd7feda87" d="M 0 0 
L 0 3.5 
" style="stroke: #000000; stroke-width: 0.8"/>
      </defs>
      <g>
       <use xlink:href="#m1fd7feda87" x="54.15" y="170.44" style="stroke: #000000; stroke-width: 0.8"/>
      </g>
     </g>
     <g id="text_1">
      <!-- 00:00 -->
      <g transform="translate(39.740625 185.038437) scale(0.1 -0.1)">
       <defs>
        <path id="DejaVuSans-30" d="M 2034 4250 
Q 1547 4250 1301 3770 
Q 1056 3291 1056 2328 
Q 1056 1369 1301 889 
Q 1547 409 2034 409 
Q 2525 409 2770 889 
Q 3016 1369 3016 2328 
Q 3016 3291 2770 3770 
Q 2525 4250 2034 4250 
z
M 2034 4750 
Q 2819 4750 3233 4129 
Q 3647 3509 3647 2328 
Q 3647 1150 3233 529 
Q 2819 -91 2034 -91 
Q 1250 -91 836 529 
Q 422 1150 422 2328 
Q 422 3509 836 4129 
Q 1250 4750 2034 4750 
z
" transform="scale(0.015625)"/>
        <path id="DejaVuSans-3a" d="M 750 794 
L 1409 794 
L 1409 0 
L 750 0 
L 750 794 
z
M 750 3309 
L 1409 3309 
L 1409 2516 
L 750 2516 
L 750 3309 
z
" transform="scale(0.015625)"/>
       </defs>
       <use xlink:href="#DejaVuSans-30"/>
       <use xlink:href="#DejaVuSans-30" x="63.623047"/>
       <use xlink:href="#DejaVuSans-3a" x="127.246094"/>
       <use xlink:href="#DejaVuSans-30" x="160.9375"/>
       <use xlink:href="#DejaVuSans-30" x="224.560547"/>
      </g>
     </g>
    </g>
    <g id="xtick_2">
     <g id="line2d_2">
      <g>
       <use xlink:href="#m1fd7feda87" x="94.944208" y="170.44" style="stroke: #000000; stroke-width: 0.8"/>
      </g>
     </g>
     <g id="text_2">
      <!-- 02:00 -->
      <g transform="translate(80.534833 185.038437) scale(0.1 -0.1)">
       <defs>
        <path id="DejaVuSans-32" d="M 1228 531 
L 3431 531 
L 3431 0 
L 469 0 
L 469 531 
Q 828 903 1448 1529 
Q 2069 2156 2228 2338 
Q 2531 2678 2651 2914 
Q 2772 3150 2772 3378 
Q 2772 3750 2511 3984 
Q 2250 4219 1831 4219 
Q 1534 4219 1204 4116 
Q 875 4013 500 3803 
L 500 4441 
Q 881 4594 1212 4672 
Q 1544 4750 1819 4750 
Q 2544 4750 2975 4387 
Q 3406 4025 3406 3419 
Q 3406 3131 3298 2873 
Q 3191 2616 2906 2266 
Q 2828 2175 2409 1742 
Q 1991 1309 1228 531 
z
" transform="scale(0.015625)"/>
       </defs>
       <use xlink:href="#DejaVuSans-30"/>
       <use xlink:href="#DejaVuSans-32" x="63.623047"/>
       <use xlink:href="#DejaVuSans-3a" x="127.246094"/>
       <use xlink:href="#DejaVuSans-30" x="160.9375"/>
       <use xlink:href="#DejaVuSans-30" x="224.560547"/>
      </g>
     </g>
    </g>
    <g id="xtick_3">
     <g id="line2d_3">
      <g>
       <use xlink:href="#m1fd7feda87" x="135.738417" y="170.44" style="stroke: #000000; stroke-width: 0.8"/>
      </g>
     </g>
     <g id="text_3">
      <!-- 04:00 -->
      <g transform="translate(121.329042 185.038437) scale(0.1 -0.1)">
       <defs>
        <path id="DejaVuSans-34" d="M 2419 4116 
L 825 1625 
L 2419 1625 
L 2419 4116 
z
M 2253 4666 
L 3047 4666 
L 3047 1625 
L 3713 1625 
L 3713 1100 
L 3047 1100 
L 3047 0 
L 2419 0 
L 2419 1100 
L 313 1100 
L 313 1709 
L 2253 4666 
z
" transform="scale(0.015625)"/>
       </defs>
       <use xlink:href="#DejaVuSans-30"/>
       <use xlink:href="#DejaVuSans-34" x="63.623047"/>
       <use xlink:href="#DejaVuSans-3a" x="127.246094"/>
       <use xlink:href="#DejaVuSans-30" x="160.9375"/>
       <use xlink:href="#DejaVuSans-30" x="224.560547"/>
      </g>
     </g>
    </g>
    <g id="xtick_4">
     <g id="line2d_4">
      <g>
       <use xlink:href="#m1fd7feda87" x="176.532625" y="170.44" style="stroke: #000000; stroke-width: 0.8"/>
      </g>
     </g>
     <g id="text_4">
      <!-- 06:00 -->
      <g transform="translate(162.12325 185.038437) scale(0.1 -0.1)">
       <defs>
        <path id="DejaVuSans-36" d="M 2113 2584 
Q 1688 2584 1439 2293 
Q 1191 2003 1191 1497 
Q 1191 994 1439 701 
Q 1688 409 2113 409 
Q 2538 409 2786 701 
Q 3034 994 3034 1497 
Q 3034 2003 2786 2293 
Q 2538 2584 2113 2584 
z
M 3366 4563 
L 3366 3988 
Q 3128 4100 2886 4159 
Q 2644 4219 2406 4219 
Q 1781 4219 1451 3797 
Q 1122 3375 1075 2522 
Q 1259 2794 1537 2939 
Q 1816 3084 2150 3084 
Q 2853 3084 3261 2657 
Q 3669 2231 3669 1497 
Q 3669 778 3244 343 
Q 2819 -91 2113 -91 
Q 1303 -91 875 529 
Q 447 1150 447 2328 
Q 447 3434 972 4092 
Q 1497 4750 2381 4750 
Q 2619 4750 2861 4703 
Q 3103 4656 3366 4563 
z
" transform="scale(0.015625)"/>
       </defs>
       <use xlink:href="#DejaVuSans-30"/>
       <use xlink:href="#DejaVuSans-36" x="63.623047"/>
       <use xlink:href="#DejaVuSans-3a" x="127.246094"/>
       <use xlink:href="#DejaVuSans-30" x="160.9375"/>
       <use xlink:href="#DejaVuSans-30" x="224.560547"/>
      </g>
     </g>
    </g>
    <g id="xtick_5">
     <g id="line2d_5">
      <g>
       <use xlink:href="#m1fd7feda87" x="217.326833" y="170.44" style="stroke: #000000; stroke-width: 0.8"/>
      </g>
     </g>
     <g id="text_5">
      <!-- 08:00 -->
      <g transform="translate(202.917458 185.038437) scale(0.1 -0.1)">
       <defs>
        <path id="DejaVuSans-38" d="M 2034 2216 
Q 1584 2216 1326 1975 
Q 1069 1734 1069 1313 
Q 1069 891 1326 650 
Q 1584 409 2034 409 
Q 2484 409 2743 651 
Q 3003 894 3003 1313 
Q 3003 1734 2745 1975 
Q 2488 2216 2034 2216 
z
M 1403 2484 
Q 997 2584 770 2862 
Q 544 3141 544 3541 
Q 544 4100 942 4425 
Q 1341 4750 2034 4750 
Q 2731 4750 3128 4425 
Q 3525 4100 3525 3541 
Q 3525 3141 3298 2862 
Q 3072 2584 2669 2484 
Q 3125 2378 3379 2068 
Q 3634 1759 3634 1313 
Q 3634 634 3220 271 
Q 2806 -91 2034 -91 
Q 1263 -91 848 271 
Q 434 634 434 1313 
Q 434 1759 690 2068 
Q 947 2378 1403 2484 
z
M 1172 3481 
Q 1172 3119 1398 2916 
Q 1625 2713 2034 2713 
Q 2441 2713 2670 2916 
Q 2900 3119 2900 3481 
Q 2900 3844 2670 4047 
Q 2441 4250 2034 4250 
Q 1625 4250 1398 4047 
Q 1172 3844 1172 3481 
z
" transform="scale(0.015625)"/>
       </defs>
       <use xlink:href="#DejaVuSans-30"/>
       <use xlink:href="#DejaVuSans-38" x="63.623047"/>
       <use xlink:href="#DejaVuSans-3a" x="127.246094"/>
       <use xlink:href="#DejaVuSans-30" x="160.9375"/>
       <use xlink:href="#DejaVuSans-30" x="224.560547"/>
      </g>
     </g>
    </g>
    <g id="xtick_6">
     <g id="line2d_6">
      <g>
       <use xlink:href="#m1fd7feda87" x="258.121042" y="170.44" style="stroke: #000000; stroke-width: 0.8"/>
      </g>
     </g>
     <g id="text_6">
      <!-- 10:00 -->
      <g transform="translate(243.711667 185.038437) scale(0.1 -0.1)">
       <defs>
        <path id="DejaVuSans-31" d="M 794 531 
L 1825 531 
L 1825 4091 
L 703 3866 
L 703 4441 
L 1819 4666 
L 2450 4666 
L 2450 531 
L 3481 531 
L 3481 0 
L 794 0 
L 794 531 
z
" transform="scale(0.015625)"/>
       </defs>
       <use xlink:href="#DejaVuSans-31"/>
       <use xlink:href="#DejaVuSans-30" x="63.623047"/>
       <use xlink:href="#DejaVuSans-3a" x="127.246094"/>
       <use xlink:href="#DejaVuSans-30" x="160.9375"/>
       <use xlink:href="#DejaVuSans-30" x="224.560547"/>
      </g>
     </g>
    </g>
    <g id="xtick_7">
     <g id="line2d_7">
      <g>
       <use xlink:href="#m1fd7feda87" x="298.91525" y="170.44" style="stroke: #000000; stroke-width: 0.8"/>
      </g>
     </g>
     <g id="text_7">
      <!-- 12:00 -->
      <g transform="translate(284.505875 185.038437) scale(0.1 -0.1)">
       <use xlink:href="#DejaVuSans-31"/>
       <use xlink:href="#DejaVuSans-32" x="63.623047"/>
       <use xlink:href="#DejaVuSans-3a" x="127.246094"/>
       <use xlink:href="#DejaVuSans-30" x="160.9375"/>
       <use xlink:href="#DejaVuSans-30" x="224.560547"/>
      </g>
     </g>
    </g>
    <g id="xtick_8">
     <g id="line2d_8">
      <g>
       <use xlink:href="#m1fd7feda87" x="339.709458" y="170.44" style="stroke: #000000; stroke-width: 0.8"/>
      </g>
     </g>
     <g id="text_8">
      <!-- 14:00 -->
      <g transform="translate(325.300083 185.038437) scale(0.1 -0.1)">
       <use xlink:href="#DejaVuSans-31"/>
       <use xlink:href="#DejaVuSans-34" x="63.623047"/>
       <use xlink:href="#DejaVuSans-3a" x="127.246094"/>
       <use xlink:href="#DejaVuSans-30" x="160.9375"/>
       <use xlink:href="#DejaVuSans-30" x="224.560547"/>
      </g>
     </g>
    </g>
    <g id="xtick_9">
     <g id="line2d_9">
      <g>
       <use xlink:href="#m1fd7feda87" x="380.503667" y="170.44" style="stroke: #000000; stroke-width: 0.8"/>
      </g>
     </g>
     <g id="text_9">
      <!-- 16:00 -->
      <g transform="translate(366.094292 185.038437) scale(0.1 -0.1)">
       <use xlink:href="#DejaVuSans-31"/>
       <use xlink:href="#DejaVuSans-36" x="63.623047"/>
       <use xlink:href="#DejaVuSans-3a" x="127.246094"/>
       <use xlink:href="#DejaVuSans-30" x="160.9375"/>
       <use xlink:href="#DejaVuSans-30" x="224.560547"/>
      </g>
     </g>
    </g>
    <g id="xtick_10">
     <g id="line2d_10">
      <g>
       <use xlink:href="#m1fd7feda87" x="421.297875" y="170.44" style="stroke: #000000; stroke-width: 0.8"/>
      </g>
     </g>
     <g id="text_10">
      <!-- 18:00 -->
      <g transform="translate(406.8885 185.038437) scale(0.1 -0.1)">
       <use xlink:href="#DejaVuSans-31"/>
       <use xlink:href="#DejaVuSans-38" x="63.623047"/>
       <use xlink:href="#DejaVuSans-3a" x="127.246094"/>
       <use xlink:href="#DejaVuSans-30" x="160.9375"/>
       <use xlink:href="#DejaVuSans-30" x="224.560547"/>
      </g>
     </g>
    </g>
    <g id="xtick_11">
     <g id="line2d_11">
      <g>
       <use xlink:href="#m1fd7feda87" x="462.092083" y="170.44" style="stroke: #000000; stroke-width: 0.8"/>
      </g>
     </g>
     <g id="text_11">
      <!-- 20:00 -->
      <g transform="translate(447.682708 185.038437) scale(0.1 -0.1)">
       <use xlink:href="#DejaVuSans-32"/>
       <use xlink:href="#DejaVuSans-30" x="63.623047"/>
       <use xlink:href="#DejaVuSans-3a" x="127.246094"/>
       <use xlink:href="#DejaVuSans-30" x="160.9375"/>
       <use xlink:href="#DejaVuSans-30" x="224.560547"/>
      </g>
     </g>
    </g>
    <g id="xtick_12">
     <g id="line2d_12">
      <g>
       <use xlink:href="#m1fd7feda87" x="502.886292" y="170.44" style="stroke: #000000; stroke-width: 0.8"/>
      </g>
     </g>
     <g id="text_12">
      <!-- 22:00 -->
      <g transform="translate(488.476917 185.038437) scale(0.1 -0.1)">
       <use xlink:href="#DejaVuSans-32"/>
       <use xlink:href="#DejaVuSans-32" x="63.623047"/>
       <use xlink:href="#DejaVuSans-3a" x="127.246094"/>
       <use xlink:href="#DejaVuSans-30" x="160.9375"/>
       <use xlink:href="#DejaVuSans-30" x="224.560547"/>
      </g>
     </g>
    </g>
    <g id="xtick_13">
     <g id="line2d_13">
      <g>
       <use xlink:href="#m1fd7feda87" x="543.6805" y="170.44" style="stroke: #000000; stroke-width: 0.8"/>
      </g>
     </g>
     <g id="text_13">
      <!-- 00:00 -->
      <g transform="translate(529.271125 185.038437) scale(0.1 -0.1)">
       <use xlink:href="#DejaVuSans-30"/>
       <use xlink:href="#DejaVuSans-30" x="63.623047"/>
       <use xlink:href="#DejaVuSans-3a" x="127.246094"/>
       <use xlink:href="#DejaVuSans-30" x="160.9375"/>
       <use xlink:href="#DejaVuSans-30" x="224.560547"/>
      </g>
     </g>
    </g>
    <g id="text_14">
     <!-- Time of day -->
     <g transform="translate(269.486344 198.716563) scale(0.1 -0.1)">
      <defs>
       <path id="DejaVuSans-54" d="M -19 4666 
L 3928 4666 
L 3928 4134 
L 2272 4134 
L 2272 0 
L 1638 0 
L 1638 4134 
L -19 4134 
L -19 4666 
z
" transform="scale(0.015625)"/>
       <path id="DejaVuSans-69" d="M 603 3500 
L 1178 3500 
L 1178 0 
L 603 0 
L 603 3500 
z
M 603 4863 
L 1178 4863 
L 1178 4134 
L 603 4134 
L 603 4863 
z
" transform="scale(0.015625)"/>
       <path id="DejaVuSans-6d" d="M 3328 2828 
Q 3544 3216 3844 3400 
Q 4144 3584 4550 3584 
Q 5097 3584 5394 3201 
Q 5691 2819 5691 2113 
L 5691 0 
L 5113 0 
L 5113 2094 
Q 5113 2597 4934 2840 
Q 4756 3084 4391 3084 
Q 3944 3084 3684 2787 
Q 3425 2491 3425 1978 
L 3425 0 
L 2847 0 
L 2847 2094 
Q 2847 2600 2669 2842 
Q 2491 3084 2119 3084 
Q 1678 3084 1418 2786 
Q 1159 2488 1159 1978 
L 1159 0 
L 581 0 
L 581 3500 
L 1159 3500 
L 1159 2956 
Q 1356 3278 1631 3431 
Q 1906 3584 2284 3584 
Q 2666 3584 2933 3390 
Q 3200 3197 3328 2828 
z
" transform="scale(0.015625)"/>
       <path id="DejaVuSans-65" d="M 3597 1894 
L 3597 1613 
L 953 1613 
Q 991 1019 1311 708 
Q 1631 397 2203 397 
Q 2534 397 2845 478 
Q 3156 559 3463 722 
L 3463 178 
Q 3153 47 2828 -22 
Q 2503 -91 2169 -91 
Q 1331 -91 842 396 
Q 353 884 353 1716 
Q 353 2575 817 3079 
Q 1281 3584 2069 3584 
Q 2775 3584 3186 3129 
Q 3597 2675 3597 1894 
z
M 3022 2063 
Q 3016 2534 2758 2815 
Q 2500 3097 2075 3097 
Q 1594 3097 1305 2825 
Q 1016 2553 972 2059 
L 3022 2063 
z
" transform="scale(0.015625)"/>
       <path id="DejaVuSans-20" transform="scale(0.015625)"/>
       <path id="DejaVuSans-6f" d="M 1959 3097 
Q 1497 3097 1228 2736 
Q 959 2375 959 1747 
Q 959 1119 1226 758 
Q 1494 397 1959 397 
Q 2419 397 2687 759 
Q 2956 1122 2956 1747 
Q 2956 2369 2687 2733 
Q 2419 3097 1959 3097 
z
M 1959 3584 
Q 2709 3584 3137 3096 
Q 3566 2609 3566 1747 
Q 3566 888 3137 398 
Q 2709 -91 1959 -91 
Q 1206 -91 779 398 
Q 353 888 353 1747 
Q 353 2609 779 3096 
Q 1206 3584 1959 3584 
z
" transform="scale(0.015625)"/>
       <path id="DejaVuSans-66" d="M 2375 4863 
L 2375 4384 
L 1825 4384 
Q 1516 4384 1395 4259 
Q 1275 4134 1275 3809 
L 1275 3500 
L 2222 3500 
L 2222 3053 
L 1275 3053 
L 1275 0 
L 697 0 
L 697 3053 
L 147 3053 
L 147 3500 
L 697 3500 
L 697 3744 
Q 697 4328 969 4595 
Q 1241 4863 1831 4863 
L 2375 4863 
z
" transform="scale(0.015625)"/>
       <path id="DejaVuSans-64" d="M 2906 2969 
L 2906 4863 
L 3481 4863 
L 3481 0 
L 2906 0 
L 2906 525 
Q 2725 213 2448 61 
Q 2172 -91 1784 -91 
Q 1150 -91 751 415 
Q 353 922 353 1747 
Q 353 2572 751 3078 
Q 1150 3584 1784 3584 
Q 2172 3584 2448 3432 
Q 2725 3281 2906 2969 
z
M 947 1747 
Q 947 1113 1208 752 
Q 1469 391 1925 391 
Q 2381 391 2643 752 
Q 2906 1113 2906 1747 
Q 2906 2381 2643 2742 
Q 2381 3103 1925 3103 
Q 1469 3103 1208 2742 
Q 947 2381 947 1747 
z
" transform="scale(0.015625)"/>
       <path id="DejaVuSans-61" d="M 2194 1759 
Q 1497 1759 1228 1600 
Q 959 1441 959 1056 
Q 959 750 1161 570 
Q 1363 391 1709 391 
Q 2188 391 2477 730 
Q 2766 1069 2766 1631 
L 2766 1759 
L 2194 1759 
z
M 3341 1997 
L 3341 0 
L 2766 0 
L 2766 531 
Q 2569 213 2275 61 
Q 1981 -91 1556 -91 
Q 1019 -91 701 211 
Q 384 513 384 1019 
Q 384 1609 779 1909 
Q 1175 2209 1959 2209 
L 2766 2209 
L 2766 2266 
Q 2766 2663 2505 2880 
Q 2244 3097 1772 3097 
Q 1472 3097 1187 3025 
Q 903 2953 641 2809 
L 641 3341 
Q 956 3463 1253 3523 
Q 1550 3584 1831 3584 
Q 2591 3584 2966 3190 
Q 3341 2797 3341 1997 
z
" transform="scale(0.015625)"/>
       <path id="DejaVuSans-79" d="M 2059 -325 
Q 1816 -950 1584 -1140 
Q 1353 -1331 966 -1331 
L 506 -1331 
L 506 -850 
L 844 -850 
Q 1081 -850 1212 -737 
Q 1344 -625 1503 -206 
L 1606 56 
L 191 3500 
L 800 3500 
L 1894 763 
L 2988 3500 
L 3597 3500 
L 2059 -325 
z
" transform="scale(0.015625)"/>
      </defs>
      <use xlink:href="#DejaVuSans-54"/>
      <use xlink:href="#DejaVuSans-69" x="57.958984"/>
      <use xlink:href="#DejaVuSans-6d" x="85.742188"/>
      <use xlink:href="#DejaVuSans-65" x="183.154297"/>
      <use xlink:href="#DejaVuSans-20" x="244.677734"/>
      <use xlink:href="#DejaVuSans-6f" x="276.464844"/>
      <use xlink:href="#DejaVuSans-66" x="337.646484"/>
      <use xlink:href="#DejaVuSans-20" x="372.851562"/>
      <use xlink:href="#DejaVuSans-64" x="404.638672"/>
      <use xlink:href="#DejaVuSans-61" x="468.115234"/>
      <use xlink:href="#DejaVuSans-79" x="529.394531"/>
     </g>
    </g>
   </g>
   <g id="matplotlib.axis_2">
    <g id="ytick_1">
     <g id="line2d_14">
      <defs>
       <path id="m5fe84b01db" d="M 0 0 
L -3.5 0 
" style="stroke: #000000; stroke-width: 0.8"/>
      </defs>
      <g>
       <use xlink:href="#m5fe84b01db" x="54.15" y="169.193893" style="stroke: #000000; stroke-width: 0.8"/>
      </g>
     </g>
     <g id="text_15">
      <!-- 0 -->
      <g transform="translate(40.7875 172.993112) scale(0.1 -0.1)">
       <use xlink:href="#DejaVuSans-30"/>
      </g>
     </g>
    </g>
    <g id="ytick_2">
     <g id="line2d_15">
      <g>
       <use xlink:href="#m5fe84b01db" x="54.15" y="144.271756" style="stroke: #000000; stroke-width: 0.8"/>
      </g>
     </g>
     <g id="text_16">
      <!-- 200 -->
      <g transform="translate(28.0625 148.070974) scale(0.1 -0.1)">
       <use xlink:href="#DejaVuSans-32"/>
       <use xlink:href="#DejaVuSans-30" x="63.623047"/>
       <use xlink:href="#DejaVuSans-30" x="127.246094"/>
      </g>
     </g>
    </g>
    <g id="ytick_3">
     <g id="line2d_16">
      <g>
       <use xlink:href="#m5fe84b01db" x="54.15" y="119.349618" style="stroke: #000000; stroke-width: 0.8"/>
      </g>
     </g>
     <g id="text_17">
      <!-- 400 -->
      <g transform="translate(28.0625 123.148837) scale(0.1 -0.1)">
       <use xlink:href="#DejaVuSans-34"/>
       <use xlink:href="#DejaVuSans-30" x="63.623047"/>
       <use xlink:href="#DejaVuSans-30" x="127.246094"/>
      </g>
     </g>
    </g>
    <g id="ytick_4">
     <g id="line2d_17">
      <g>
       <use xlink:href="#m5fe84b01db" x="54.15" y="94.427481" style="stroke: #000000; stroke-width: 0.8"/>
      </g>
     </g>
     <g id="text_18">
      <!-- 600 -->
      <g transform="translate(28.0625 98.2267) scale(0.1 -0.1)">
       <use xlink:href="#DejaVuSans-36"/>
       <use xlink:href="#DejaVuSans-30" x="63.623047"/>
       <use xlink:href="#DejaVuSans-30" x="127.246094"/>
      </g>
     </g>
    </g>
    <g id="ytick_5">
     <g id="line2d_18">
      <g>
       <use xlink:href="#m5fe84b01db" x="54.15" y="69.505344" style="stroke: #000000; stroke-width: 0.8"/>
      </g>
     </g>
     <g id="text_19">
      <!-- 800 -->
      <g transform="translate(28.0625 73.304562) scale(0.1 -0.1)">
       <use xlink:href="#DejaVuSans-38"/>
       <use xlink:href="#DejaVuSans-30" x="63.623047"/>
       <use xlink:href="#DejaVuSans-30" x="127.246094"/>
      </g>
     </g>
    </g>
    <g id="ytick_6">
     <g id="line2d_19">
      <g>
       <use xlink:href="#m5fe84b01db" x="54.15" y="44.583206" style="stroke: #000000; stroke-width: 0.8"/>
      </g>
     </g>
     <g id="text_20">
      <!-- 1000 -->
      <g transform="translate(21.7 48.382425) scale(0.1 -0.1)">
       <use xlink:href="#DejaVuSans-31"/>
       <use xlink:href="#DejaVuSans-30" x="63.623047"/>
       <use xlink:href="#DejaVuSans-30" x="127.246094"/>
       <use xlink:href="#DejaVuSans-30" x="190.869141"/>
      </g>
     </g>
    </g>
    <g id="ytick_7">
     <g id="line2d_20">
      <g>
       <use xlink:href="#m5fe84b01db" x="54.15" y="19.661069" style="stroke: #000000; stroke-width: 0.8"/>
      </g>
     </g>
     <g id="text_21">
      <!-- 1200 -->
      <g transform="translate(21.7 23.460287) scale(0.1 -0.1)">
       <use xlink:href="#DejaVuSans-31"/>
       <use xlink:href="#DejaVuSans-32" x="63.623047"/>
       <use xlink:href="#DejaVuSans-30" x="127.246094"/>
       <use xlink:href="#DejaVuSans-30" x="190.869141"/>
      </g>
     </g>
    </g>
    <g id="text_22">
     <!-- Solar irradiance [W/m$^2$] -->
     <g transform="translate(15.620312 147.77) rotate(-90) scale(0.1 -0.1)">
      <defs>
       <path id="DejaVuSans-53" d="M 3425 4513 
L 3425 3897 
Q 3066 4069 2747 4153 
Q 2428 4238 2131 4238 
Q 1616 4238 1336 4038 
Q 1056 3838 1056 3469 
Q 1056 3159 1242 3001 
Q 1428 2844 1947 2747 
L 2328 2669 
Q 3034 2534 3370 2195 
Q 3706 1856 3706 1288 
Q 3706 609 3251 259 
Q 2797 -91 1919 -91 
Q 1588 -91 1214 -16 
Q 841 59 441 206 
L 441 856 
Q 825 641 1194 531 
Q 1563 422 1919 422 
Q 2459 422 2753 634 
Q 3047 847 3047 1241 
Q 3047 1584 2836 1778 
Q 2625 1972 2144 2069 
L 1759 2144 
Q 1053 2284 737 2584 
Q 422 2884 422 3419 
Q 422 4038 858 4394 
Q 1294 4750 2059 4750 
Q 2388 4750 2728 4690 
Q 3069 4631 3425 4513 
z
" transform="scale(0.015625)"/>
       <path id="DejaVuSans-6c" d="M 603 4863 
L 1178 4863 
L 1178 0 
L 603 0 
L 603 4863 
z
" transform="scale(0.015625)"/>
       <path id="DejaVuSans-72" d="M 2631 2963 
Q 2534 3019 2420 3045 
Q 2306 3072 2169 3072 
Q 1681 3072 1420 2755 
Q 1159 2438 1159 1844 
L 1159 0 
L 581 0 
L 581 3500 
L 1159 3500 
L 1159 2956 
Q 1341 3275 1631 3429 
Q 1922 3584 2338 3584 
Q 2397 3584 2469 3576 
Q 2541 3569 2628 3553 
L 2631 2963 
z
" transform="scale(0.015625)"/>
       <path id="DejaVuSans-6e" d="M 3513 2113 
L 3513 0 
L 2938 0 
L 2938 2094 
Q 2938 2591 2744 2837 
Q 2550 3084 2163 3084 
Q 1697 3084 1428 2787 
Q 1159 2491 1159 1978 
L 1159 0 
L 581 0 
L 581 3500 
L 1159 3500 
L 1159 2956 
Q 1366 3272 1645 3428 
Q 1925 3584 2291 3584 
Q 2894 3584 3203 3211 
Q 3513 2838 3513 2113 
z
" transform="scale(0.015625)"/>
       <path id="DejaVuSans-63" d="M 3122 3366 
L 3122 2828 
Q 2878 2963 2633 3030 
Q 2388 3097 2138 3097 
Q 1578 3097 1268 2742 
Q 959 2388 959 1747 
Q 959 1106 1268 751 
Q 1578 397 2138 397 
Q 2388 397 2633 464 
Q 2878 531 3122 666 
L 3122 134 
Q 2881 22 2623 -34 
Q 2366 -91 2075 -91 
Q 1284 -91 818 406 
Q 353 903 353 1747 
Q 353 2603 823 3093 
Q 1294 3584 2113 3584 
Q 2378 3584 2631 3529 
Q 2884 3475 3122 3366 
z
" transform="scale(0.015625)"/>
       <path id="DejaVuSans-5b" d="M 550 4863 
L 1875 4863 
L 1875 4416 
L 1125 4416 
L 1125 -397 
L 1875 -397 
L 1875 -844 
L 550 -844 
L 550 4863 
z
" transform="scale(0.015625)"/>
       <path id="DejaVuSans-57" d="M 213 4666 
L 850 4666 
L 1831 722 
L 2809 4666 
L 3519 4666 
L 4500 722 
L 5478 4666 
L 6119 4666 
L 4947 0 
L 4153 0 
L 3169 4050 
L 2175 0 
L 1381 0 
L 213 4666 
z
" transform="scale(0.015625)"/>
       <path id="DejaVuSans-2f" d="M 1625 4666 
L 2156 4666 
L 531 -594 
L 0 -594 
L 1625 4666 
z
" transform="scale(0.015625)"/>
       <path id="DejaVuSans-5d" d="M 1947 4863 
L 1947 -844 
L 622 -844 
L 622 -397 
L 1369 -397 
L 1369 4416 
L 622 4416 
L 622 4863 
L 1947 4863 
z
" transform="scale(0.015625)"/>
      </defs>
      <use xlink:href="#DejaVuSans-53" transform="translate(0 0.765625)"/>
      <use xlink:href="#DejaVuSans-6f" transform="translate(63.476562 0.765625)"/>
      <use xlink:href="#DejaVuSans-6c" transform="translate(124.658203 0.765625)"/>
      <use xlink:href="#DejaVuSans-61" transform="translate(152.441406 0.765625)"/>
      <use xlink:href="#DejaVuSans-72" transform="translate(213.720703 0.765625)"/>
      <use xlink:href="#DejaVuSans-20" transform="translate(254.833984 0.765625)"/>
      <use xlink:href="#DejaVuSans-69" transform="translate(286.621094 0.765625)"/>
      <use xlink:href="#DejaVuSans-72" transform="translate(314.404297 0.765625)"/>
      <use xlink:href="#DejaVuSans-72" transform="translate(355.517578 0.765625)"/>
      <use xlink:href="#DejaVuSans-61" transform="translate(396.630859 0.765625)"/>
      <use xlink:href="#DejaVuSans-64" transform="translate(457.910156 0.765625)"/>
      <use xlink:href="#DejaVuSans-69" transform="translate(521.386719 0.765625)"/>
      <use xlink:href="#DejaVuSans-61" transform="translate(549.169922 0.765625)"/>
      <use xlink:href="#DejaVuSans-6e" transform="translate(610.449219 0.765625)"/>
      <use xlink:href="#DejaVuSans-63" transform="translate(673.828125 0.765625)"/>
      <use xlink:href="#DejaVuSans-65" transform="translate(728.808594 0.765625)"/>
      <use xlink:href="#DejaVuSans-20" transform="translate(790.332031 0.765625)"/>
      <use xlink:href="#DejaVuSans-5b" transform="translate(822.119141 0.765625)"/>
      <use xlink:href="#DejaVuSans-57" transform="translate(861.132812 0.765625)"/>
      <use xlink:href="#DejaVuSans-2f" transform="translate(960.009766 0.765625)"/>
      <use xlink:href="#DejaVuSans-6d" transform="translate(993.701172 0.765625)"/>
      <use xlink:href="#DejaVuSans-32" transform="translate(1092.070312 39.046875) scale(0.7)"/>
      <use xlink:href="#DejaVuSans-5d" transform="translate(1139.34082 0.765625)"/>
     </g>
    </g>
   </g>
   <g id="line2d_21">
    <path d="M 54.15 169.193893 
L 121.167032 169.193893 
L 121.50722 169.069282 
L 122.867972 168.994516 
L 123.888535 168.944672 
L 124.568911 168.857444 
L 125.929663 168.633145 
L 128.991355 167.648721 
L 130.352107 166.776446 
L 131.032483 166.527224 
L 131.712859 165.941554 
L 132.733423 165.854327 
L 133.073611 165.978937 
L 133.753987 165.767099 
L 134.774551 164.595759 
L 135.795115 164.097316 
L 136.475491 164.533453 
L 137.155867 163.873017 
L 137.496055 164.14716 
L 137.836243 163.200119 
L 138.176431 162.851209 
L 139.537182 161.978934 
L 144.299814 158.016315 
L 157.567145 145.904156 
L 157.907333 146.327832 
L 158.247521 147.499172 
L 158.927897 152.184534 
L 159.948461 160.147157 
L 160.288649 162.028779 
L 160.628837 163.10043 
L 160.969025 163.549029 
L 161.309213 163.711023 
L 161.649401 163.598873 
L 161.989589 163.125353 
L 162.329777 161.954012 
L 162.669965 159.82317 
L 163.350341 153.18142 
L 164.370905 142.863655 
L 164.711093 140.645584 
L 165.051281 139.387017 
L 165.731657 138.15337 
L 169.133536 133.879225 
L 170.494288 132.09729 
L 173.215792 129.667382 
L 176.617672 126.091057 
L 178.6588 123.93529 
L 180.019552 122.452424 
L 180.35974 159.785786 
L 180.699928 164.932208 
L 181.040116 164.770214 
L 181.380304 126.327817 
L 181.720492 120.757718 
L 185.122371 117.156469 
L 190.225191 112.209427 
L 191.585943 110.751481 
L 201.451394 100.496023 
L 201.791582 118.365195 
L 202.13177 164.471148 
L 202.812146 164.421304 
L 203.152334 164.346537 
L 203.492522 138.36521 
L 203.83271 97.91658 
L 206.894402 94.938382 
L 207.574778 94.091031 
L 208.595342 93.131527 
L 208.93553 92.795084 
L 209.615906 92.421252 
L 210.296282 91.723427 
L 210.63647 91.436824 
L 210.976658 91.299756 
L 211.997222 90.203176 
L 213.357974 89.119069 
L 214.03835 88.246794 
L 214.718726 87.748351 
L 215.399101 87.187603 
L 215.739289 86.95084 
L 216.079477 86.502244 
L 216.419665 86.253023 
L 216.759853 85.816885 
L 217.100041 85.580122 
L 217.440229 85.168908 
L 217.780417 84.520931 
L 218.120605 84.259252 
L 219.141169 83.823114 
L 219.481357 83.648656 
L 219.821545 83.324672 
L 220.161733 83.287282 
L 220.501921 83.013145 
L 221.182297 82.066099 
L 221.522485 81.829344 
L 222.543049 80.645542 
L 224.584177 78.664229 
L 225.264553 78.003794 
L 228.326245 75.349588 
L 230.027185 74.053634 
L 230.367372 73.804412 
L 231.387936 72.745221 
L 238.191696 67.374504 
L 238.531884 67.062977 
L 238.872072 67.112817 
L 240.573012 66.140855 
L 241.933764 64.732756 
L 242.61414 64.533374 
L 242.954328 64.221847 
L 243.294516 64.221847 
L 243.634704 63.885405 
L 243.974892 63.73587 
L 245.675831 62.489763 
L 246.016019 62.477298 
L 246.696395 61.929015 
L 247.036583 62.091008 
L 247.376771 62.04116 
L 248.397335 61.006893 
L 248.737523 60.819977 
L 249.077711 60.907206 
L 250.098275 60.533374 
L 250.778651 60.022473 
L 251.118839 59.972626 
L 251.799215 59.524031 
L 252.139403 59.561412 
L 253.500155 58.46484 
L 253.840343 58.30284 
L 254.180531 58.751443 
L 254.520719 58.502221 
L 255.201095 57.667328 
L 255.881471 57.692252 
L 256.221659 57.929008 
L 257.242223 57.044275 
L 258.602975 56.932122 
L 259.623539 56.196924 
L 260.644103 55.922779 
L 261.324478 55.349573 
L 261.664666 55.349573 
L 262.004854 54.888511 
L 263.025418 54.42745 
L 264.38617 53.966389 
L 264.726358 53.455489 
L 265.406734 53.605023 
L 265.746922 53.443023 
L 266.08711 53.530252 
L 266.767486 52.981969 
L 267.107674 53.231191 
L 267.447862 53.031809 
L 267.78805 53.231191 
L 268.128238 53.168885 
L 268.468426 52.645519 
L 268.808614 52.720282 
L 269.48899 52.271687 
L 269.829178 52.421221 
L 270.169366 52.446137 
L 270.849742 52.246763 
L 271.18993 52.421221 
L 271.530118 52.296611 
L 271.870306 52.022466 
L 273.231058 52.109695 
L 274.59181 51.798168 
L 274.931998 52.022466 
L 275.272186 51.872931 
L 275.612374 51.885389 
L 275.952562 51.28726 
L 276.632937 51.274802 
L 276.973125 51.162649 
L 277.313313 51.299725 
L 277.653501 51.175114 
L 277.993689 51.374489 
L 278.333877 51.150191 
L 278.674065 50.726511 
L 279.014253 50.676672 
L 279.354441 50.464832 
L 280.034817 50.614366 
L 280.715193 50.464832 
L 281.055381 50.714053 
L 281.735757 50.414985 
L 282.075945 50.527137 
L 282.416133 50.327756 
L 283.096509 50.340221 
L 283.436697 50.439908 
L 283.776885 50.876046 
L 284.457261 50.527137 
L 284.797449 50.913427 
L 285.137637 51.000656 
L 286.498389 49.692244 
L 286.838577 49.966389 
L 287.178765 49.717168 
L 287.518953 49.87916 
L 287.859141 50.42745 
L 288.199329 50.489756 
L 289.219893 51.324641 
L 289.560081 50.900969 
L 289.900269 51.07542 
L 290.240457 51.038038 
L 290.580645 50.738977 
L 290.920833 50.925893 
L 291.941396 50.340221 
L 292.281584 50.514672 
L 292.621772 50.240534 
L 293.302148 50.714053 
L 293.982524 51.062962 
L 294.6629 50.950809 
L 295.683464 51.175114 
L 296.023652 51.436794 
L 296.36384 51.262336 
L 296.704028 51.461718 
L 297.044216 51.175114 
L 298.404968 51.611252 
L 298.745156 51.548947 
L 299.085344 51.362031 
L 299.425532 51.511557 
L 299.76572 51.386947 
L 301.126472 52.296611 
L 301.806848 52.271687 
L 302.487224 52.533366 
L 303.1676 52.184458 
L 303.507788 52.209382 
L 304.86854 53.006886 
L 305.208728 52.882275 
L 305.889104 53.256107 
L 306.909667 53.729634 
L 307.249855 54.028695 
L 307.590043 54.153305 
L 307.930231 54.464832 
L 308.270419 54.452374 
L 308.610607 54.564519 
L 309.290983 54.203153 
L 309.631171 54.477298 
L 309.971359 54.539603 
L 310.651735 54.863588 
L 313.033051 55.798168 
L 313.373239 55.548947 
L 313.713427 55.57387 
L 314.053615 56.022466 
L 316.434931 57.31842 
L 316.775119 57.243649 
L 317.115307 57.443031 
L 317.455495 57.430565 
L 318.135871 58.053618 
L 318.476059 58.153313 
L 319.496623 59.025588 
L 321.197563 59.287267 
L 322.218126 59.835557 
L 322.898502 60.570756 
L 323.23869 60.832443 
L 323.919066 60.745214 
L 324.259254 61.094122 
L 324.599442 61.05674 
L 324.93963 61.281038 
L 325.620006 61.218733 
L 326.300382 61.966397 
L 327.661134 62.277924 
L 329.702262 63.661099 
L 330.04245 63.723405 
L 331.063014 64.371382 
L 332.423766 64.994435 
L 333.104142 65.430573 
L 333.44433 65.916557 
L 334.124706 66.377618 
L 334.805082 66.726527 
L 335.14527 66.788832 
L 335.485458 66.988206 
L 335.825646 67.362038 
L 336.84621 67.810641 
L 337.866773 68.433695 
L 338.206961 68.28416 
L 339.227525 69.505344 
L 340.588277 70.489771 
L 341.268653 71.212511 
L 341.608841 71.200046 
L 341.949029 71.324656 
L 342.629405 72.346466 
L 342.969593 72.545847 
L 343.309781 72.471076 
L 343.649969 72.757679 
L 344.330345 73.467962 
L 344.670533 73.605038 
L 346.031285 75.100366 
L 346.371473 75.050519 
L 347.051849 75.499115 
L 347.732225 76.072328 
L 348.072413 76.246779 
L 348.412601 76.558305 
L 349.433165 76.894756 
L 349.773353 77.143977 
L 350.113541 77.816878 
L 351.134105 78.938374 
L 352.494856 80.346473 
L 353.175232 80.819992 
L 353.51542 80.969527 
L 354.195796 81.692267 
L 354.535984 81.692267 
L 355.21636 82.078565 
L 355.556548 82.265481 
L 356.236924 82.963298 
L 356.9173 83.499122 
L 358.61824 84.857382 
L 359.298616 85.54274 
L 359.978992 86.502244 
L 360.659368 86.701618 
L 361.339744 87.524046 
L 362.360308 88.458626 
L 363.040684 88.757695 
L 364.741624 90.68916 
L 365.762188 91.648664 
L 366.442564 92.583244 
L 367.12294 93.131527 
L 367.803315 94.115954 
L 368.483691 94.352718 
L 368.823879 94.751466 
L 369.504255 95.23745 
L 370.184631 95.985115 
L 370.524819 96.072344 
L 370.865007 119.785756 
L 371.205195 163.947783 
L 371.885571 163.947783 
L 372.565947 98.265489 
L 373.586511 99.337145 
L 374.607075 100.558328 
L 375.287451 101.305992 
L 376.648203 102.564557 
L 379.029519 105.156458 
L 380.050083 106.115962 
L 381.070647 107.137771 
L 383.451962 109.816901 
L 385.49309 111.686061 
L 386.173466 112.483569 
L 386.513654 112.757714 
L 387.534218 113.891672 
L 388.89497 115.249927 
L 391.956662 118.352733 
L 393.317414 119.810679 
L 395.358542 122.253046 
L 396.379106 123.349622 
L 399.100609 126.153363 
L 401.141737 128.33405 
L 402.162301 129.330935 
L 403.863241 131.125328 
L 404.203429 136.545893 
L 404.543617 156.57083 
L 404.883805 167.262427 
L 405.223993 142.240601 
L 405.564181 132.6705 
L 408.966061 136.371439 
L 410.667001 137.841844 
L 414.06888 141.679853 
L 415.089444 142.726584 
L 415.429632 142.776427 
L 415.76982 143.387019 
L 418.491324 146.215683 
L 420.532452 148.39637 
L 423.934332 151.748397 
L 427.336212 154.838742 
L 437.541851 163.337191 
L 439.242791 164.383921 
L 442.304483 165.841866 
L 445.025986 167.125356 
L 448.087678 168.246852 
L 450.468994 169.019438 
L 452.169934 169.193893 
L 543.6805 169.193893 
L 543.6805 169.193893 
" clip-path="url(#p64f2477789)" style="fill: none; stroke: #ffae49; stroke-width: 1.5; stroke-linecap: square"/>
   </g>
   <g id="line2d_22">
    <path d="M 54.15 169.193893 
L 203.152334 169.106666 
L 205.53365 168.745295 
L 206.894402 168.396385 
L 210.976658 167.249966 
L 212.677598 166.701679 
L 217.440229 165.89171 
L 218.800981 165.380806 
L 219.821545 164.982052 
L 220.842109 164.832519 
L 222.543049 164.770214 
L 223.563613 164.284232 
L 224.924365 163.748406 
L 225.604741 163.474262 
L 226.285117 163.337191 
L 227.645869 163.050586 
L 227.986057 164.047472 
L 228.326245 163.823173 
L 228.666433 163.424418 
L 230.367372 162.62691 
L 230.70756 162.539682 
L 231.047748 162.614449 
L 232.068312 161.92909 
L 232.4085 162.066162 
L 233.769252 161.592641 
L 235.470192 161.667407 
L 235.81038 161.393264 
L 236.150568 159.59887 
L 236.490756 159.337188 
L 239.552448 159.47426 
L 240.9132 158.975817 
L 241.593576 159.050583 
L 242.273952 159.100427 
L 242.61414 159.075506 
L 243.974892 158.601985 
L 244.655268 158.589524 
L 245.335644 158.477374 
L 247.036583 158.352763 
L 250.438463 156.982046 
L 251.459027 157.181423 
L 252.819779 155.711017 
L 253.159967 155.387029 
L 253.500155 155.511639 
L 254.180531 156.284226 
L 254.520719 156.832513 
L 254.860907 157.792015 
L 255.201095 157.792015 
L 255.881471 153.916623 
L 256.561847 156.284226 
L 256.902035 157.243728 
L 257.582411 159.985163 
L 258.602975 161.717252 
L 258.943163 162.153389 
L 259.283351 161.804479 
L 259.963727 160.782672 
L 260.303915 160.358995 
L 260.98429 160.458684 
L 261.324478 159.82317 
L 261.664666 157.156501 
L 262.004854 150.190763 
L 262.345042 148.882351 
L 262.68523 142.92596 
L 263.025418 139.586393 
L 263.365606 137.480473 
L 263.705794 137.106641 
L 264.045982 136.184523 
L 264.38617 137.704773 
L 264.726358 140.346519 
L 265.066546 146.651821 
L 265.746922 137.206328 
L 266.08711 135.387015 
L 266.427298 135.748385 
L 266.767486 134.826267 
L 267.107674 134.626889 
L 267.447862 134.913492 
L 267.78805 136.172061 
L 268.128238 136.271748 
L 268.468426 136.682966 
L 268.808614 138.751502 
L 269.148802 137.953994 
L 269.48899 134.228134 
L 269.829178 134.452435 
L 270.169366 134.813805 
L 270.509554 136.969569 
L 270.849742 137.492935 
L 271.18993 137.306019 
L 271.530118 136.271748 
L 271.870306 137.480473 
L 272.210494 133.729691 
L 272.550682 132.994489 
L 273.231058 133.418164 
L 273.571246 133.306015 
L 273.911434 133.418164 
L 274.251622 133.044332 
L 275.272186 133.168943 
L 275.612374 132.932183 
L 275.952562 133.144023 
L 276.292749 132.43374 
L 276.632937 132.583275 
L 277.313313 132.346511 
L 277.993689 132.421279 
L 278.674065 132.184519 
L 279.014253 132.184519 
L 279.694629 132.471122 
L 280.034817 132.558351 
L 280.375005 132.43374 
L 281.055381 132.383897 
L 281.395569 132.844954 
L 281.735757 132.720344 
L 282.075945 132.084832 
L 282.416133 132.134676 
L 282.756321 132.30913 
L 283.436697 132.172057 
L 284.457261 132.184519 
L 284.797449 132.334053 
L 285.477825 132.059908 
L 286.158201 132.209443 
L 286.838577 131.922836 
L 287.178765 131.598847 
L 288.199329 131.561466 
L 289.560081 131.960221 
L 290.580645 131.549004 
L 290.920833 131.598847 
L 291.261021 131.960221 
L 291.941396 131.673615 
L 292.281584 131.798225 
L 292.621772 132.346511 
L 293.302148 131.910374 
L 293.642336 131.94776 
L 294.322712 131.561466 
L 295.343276 131.648695 
L 296.023652 131.760844 
L 297.384404 131.910374 
L 297.724592 131.698538 
L 298.06478 131.711 
L 298.404968 132.09729 
L 298.745156 132.284206 
L 299.085344 133.019412 
L 299.425532 132.844954 
L 299.76572 131.474237 
L 300.105908 131.387011 
L 300.786284 132.122214 
L 302.487224 131.536542 
L 302.827412 131.711 
L 303.1676 136.184523 
L 303.507788 132.159595 
L 304.188164 131.536542 
L 304.528352 131.636233 
L 304.86854 132.558351 
L 305.208728 131.723458 
L 305.548916 131.598847 
L 305.889104 131.798225 
L 306.229292 138.078605 
L 306.569479 131.536542 
L 306.909667 131.050561 
L 307.249855 131.262401 
L 307.590043 131.063023 
L 307.930231 131.536542 
L 308.950795 131.810687 
L 309.290983 131.723458 
L 309.631171 131.985141 
L 310.651735 131.798225 
L 310.991923 132.196981 
L 311.332111 133.256172 
L 311.672299 132.969565 
L 312.012487 133.131561 
L 312.692863 133.829382 
L 313.373239 133.206328 
L 313.713427 140.633124 
L 314.053615 139.997609 
L 314.393803 132.358973 
L 314.733991 132.682962 
L 315.074179 133.492931 
L 315.414367 133.879225 
L 316.775119 134.003836 
L 318.476059 134.788882 
L 319.156435 135.249943 
L 319.836811 135.573931 
L 320.176999 136.184523 
L 320.517187 136.471126 
L 321.197563 136.034989 
L 321.537751 136.097294 
L 321.877939 136.396359 
L 322.218126 136.059912 
L 324.259254 137.55524 
L 324.599442 137.505395 
L 325.279818 137.841844 
L 325.960194 138.36521 
L 326.64057 138.589508 
L 327.320946 139.025645 
L 328.681698 139.673622 
L 330.722826 140.882345 
L 332.083578 141.792004 
L 332.763954 142.091069 
L 333.44433 142.527206 
L 333.784518 142.975805 
L 334.464894 143.187643 
L 334.805082 143.374559 
L 335.485458 143.997613 
L 338.887337 145.866773 
L 342.969593 148.770202 
L 343.990157 149.306027 
L 345.010721 150.178302 
L 346.371473 151.000733 
L 347.392037 151.698553 
L 349.092977 153.131576 
L 350.453729 154.028773 
L 353.855608 155.972699 
L 354.195796 156.358992 
L 354.535984 157.978931 
L 354.876172 157.642483 
L 355.21636 157.081735 
L 355.896736 157.3808 
L 357.257488 158.31538 
L 357.597676 158.601985 
L 357.937864 159.212577 
L 358.278052 160.059929 
L 358.61824 161.879246 
L 358.958428 162.527221 
L 359.298616 162.278 
L 359.638804 160.969588 
L 359.978992 161.156504 
L 360.31918 161.69233 
L 360.659368 160.919743 
L 361.339744 161.144043 
L 362.360308 161.667407 
L 364.401436 163.038125 
L 365.081812 163.349652 
L 366.102376 163.860556 
L 367.463128 164.533453 
L 368.143503 165.044357 
L 369.844443 166.539686 
L 370.524819 166.901057 
L 371.545383 167.125356 
L 372.225759 167.723487 
L 372.565947 168.022553 
L 374.947263 168.8076 
L 377.668767 169.193893 
L 543.6805 169.193893 
L 543.6805 169.193893 
" clip-path="url(#p64f2477789)" style="fill: none; stroke: #024b7a; stroke-width: 1.5; stroke-linecap: square"/>
   </g>
   <g id="patch_3">
    <path d="M 54.15 170.44 
L 54.15 7.2 
" style="fill: none; stroke: #000000; stroke-width: 0.8; stroke-linejoin: miter; stroke-linecap: square"/>
   </g>
   <g id="patch_4">
    <path d="M 543.6805 170.44 
L 543.6805 7.2 
" style="fill: none; stroke: #000000; stroke-width: 0.8; stroke-linejoin: miter; stroke-linecap: square"/>
   </g>
   <g id="patch_5">
    <path d="M 54.15 170.44 
L 543.6805 170.44 
" style="fill: none; stroke: #000000; stroke-width: 0.8; stroke-linejoin: miter; stroke-linecap: square"/>
   </g>
   <g id="patch_6">
    <path d="M 54.15 7.2 
L 543.6805 7.2 
" style="fill: none; stroke: #000000; stroke-width: 0.8; stroke-linejoin: miter; stroke-linecap: square"/>
   </g>
   <g id="legend_1">
    <g id="patch_7">
     <path d="M 462.24925 44.55625 
L 536.6805 44.55625 
Q 538.6805 44.55625 538.6805 42.55625 
L 538.6805 14.2 
Q 538.6805 12.2 536.6805 12.2 
L 462.24925 12.2 
Q 460.24925 12.2 460.24925 14.2 
L 460.24925 42.55625 
Q 460.24925 44.55625 462.24925 44.55625 
z
" style="fill: #ffffff; opacity: 0.8; stroke: #cccccc; stroke-linejoin: miter"/>
    </g>
    <g id="line2d_23">
     <path d="M 464.24925 20.298438 
L 474.24925 20.298438 
L 484.24925 20.298438 
" style="fill: none; stroke: #ffae49; stroke-width: 1.5; stroke-linecap: square"/>
    </g>
    <g id="text_23">
     <!-- Summer -->
     <g transform="translate(492.24925 23.798438) scale(0.1 -0.1)">
      <defs>
       <path id="DejaVuSans-75" d="M 544 1381 
L 544 3500 
L 1119 3500 
L 1119 1403 
Q 1119 906 1312 657 
Q 1506 409 1894 409 
Q 2359 409 2629 706 
Q 2900 1003 2900 1516 
L 2900 3500 
L 3475 3500 
L 3475 0 
L 2900 0 
L 2900 538 
Q 2691 219 2414 64 
Q 2138 -91 1772 -91 
Q 1169 -91 856 284 
Q 544 659 544 1381 
z
M 1991 3584 
L 1991 3584 
z
" transform="scale(0.015625)"/>
      </defs>
      <use xlink:href="#DejaVuSans-53"/>
      <use xlink:href="#DejaVuSans-75" x="63.476562"/>
      <use xlink:href="#DejaVuSans-6d" x="126.855469"/>
      <use xlink:href="#DejaVuSans-6d" x="224.267578"/>
      <use xlink:href="#DejaVuSans-65" x="321.679688"/>
      <use xlink:href="#DejaVuSans-72" x="383.203125"/>
     </g>
    </g>
    <g id="line2d_24">
     <path d="M 464.24925 34.976562 
L 474.24925 34.976562 
L 484.24925 34.976562 
" style="fill: none; stroke: #024b7a; stroke-width: 1.5; stroke-linecap: square"/>
    </g>
    <g id="text_24">
     <!-- Winter -->
     <g transform="translate(492.24925 38.476562) scale(0.1 -0.1)">
      <defs>
       <path id="DejaVuSans-74" d="M 1172 4494 
L 1172 3500 
L 2356 3500 
L 2356 3053 
L 1172 3053 
L 1172 1153 
Q 1172 725 1289 603 
Q 1406 481 1766 481 
L 2356 481 
L 2356 0 
L 1766 0 
Q 1100 0 847 248 
Q 594 497 594 1153 
L 594 3053 
L 172 3053 
L 172 3500 
L 594 3500 
L 594 4494 
L 1172 4494 
z
" transform="scale(0.015625)"/>
      </defs>
      <use xlink:href="#DejaVuSans-57"/>
      <use xlink:href="#DejaVuSans-69" x="96.626953"/>
      <use xlink:href="#DejaVuSans-6e" x="124.410156"/>
      <use xlink:href="#DejaVuSans-74" x="187.789062"/>
      <use xlink:href="#DejaVuSans-65" x="226.998047"/>
      <use xlink:href="#DejaVuSans-72" x="288.521484"/>
     </g>
    </g>
   </g>
  </g>
 </g>
 <defs>
  <clipPath id="p64f2477789">
   <rect x="54.15" y="7.2" width="489.5305" height="163.24"/>
  </clipPath>
 </defs>
</svg>
