<?xml version="1.0" encoding="utf-8" standalone="no"?>
<!DOCTYPE svg PUBLIC "-//W3C//DTD SVG 1.1//EN"
  "http://www.w3.org/Graphics/SVG/1.1/DTD/svg11.dtd">
<svg xmlns:xlink="http://www.w3.org/1999/xlink" width="563.55pt" height="321.95625pt" viewBox="0 0 563.55 321.95625" xmlns="http://www.w3.org/2000/svg" version="1.1">
 <metadata>
  <rdf:RDF xmlns:dc="http://purl.org/dc/elements/1.1/" xmlns:cc="http://creativecommons.org/ns#" xmlns:rdf="http://www.w3.org/1999/02/22-rdf-syntax-ns#">
   <cc:Work>
    <dc:type rdf:resource="http://purl.org/dc/dcmitype/StillImage"/>
    <dc:date>2024-03-04T11:35:25.789677</dc:date>
    <dc:format>image/svg+xml</dc:format>
    <dc:creator>
     <cc:Agent>
      <dc:title>Matplotlib v3.8.2, https://matplotlib.org/</dc:title>
     </cc:Agent>
    </dc:creator>
   </cc:Work>
  </rdf:RDF>
 </metadata>
 <defs>
  <style type="text/css">*{stroke-linejoin: round; stroke-linecap: butt}</style>
 </defs>
 <g id="figure_1">
  <g id="patch_1">
   <path d="M 0 321.95625 
L 563.55 321.95625 
L 563.55 0 
L 0 0 
z
" style="fill: #ffffff"/>
  </g>
  <g id="axes_1">
   <g id="patch_2">
    <path d="M 54.15 284.4 
L 556.35 284.4 
L 556.35 7.2 
L 54.15 7.2 
z
" style="fill: #ffffff"/>
   </g>
   <g id="matplotlib.axis_1">
    <g id="xtick_1">
     <g id="line2d_1">
      <defs>
       <path id="mbdf9c07844" d="M 0 0 
L 0 3.5 
" style="stroke: #000000; stroke-width: 0.8"/>
      </defs>
      <g>
       <use xlink:href="#mbdf9c07844" x="54.15" y="284.4" style="stroke: #000000; stroke-width: 0.8"/>
      </g>
     </g>
     <g id="text_1">
      <!-- 0 -->
      <g transform="translate(50.96875 298.998438) scale(0.1 -0.1)">
       <defs>
        <path id="DejaVuSans-30" d="M 2034 4250 
Q 1547 4250 1301 3770 
Q 1056 3291 1056 2328 
Q 1056 1369 1301 889 
Q 1547 409 2034 409 
Q 2525 409 2770 889 
Q 3016 1369 3016 2328 
Q 3016 3291 2770 3770 
Q 2525 4250 2034 4250 
z
M 2034 4750 
Q 2819 4750 3233 4129 
Q 3647 3509 3647 2328 
Q 3647 1150 3233 529 
Q 2819 -91 2034 -91 
Q 1250 -91 836 529 
Q 422 1150 422 2328 
Q 422 3509 836 4129 
Q 1250 4750 2034 4750 
z
" transform="scale(0.015625)"/>
       </defs>
       <use xlink:href="#DejaVuSans-30"/>
      </g>
     </g>
    </g>
    <g id="xtick_2">
     <g id="line2d_2">
      <g>
       <use xlink:href="#mbdf9c07844" x="75.075" y="284.4" style="stroke: #000000; stroke-width: 0.8"/>
      </g>
     </g>
     <g id="text_2">
      <!-- 1 -->
      <g transform="translate(71.89375 298.998438) scale(0.1 -0.1)">
       <defs>
        <path id="DejaVuSans-31" d="M 794 531 
L 1825 531 
L 1825 4091 
L 703 3866 
L 703 4441 
L 1819 4666 
L 2450 4666 
L 2450 531 
L 3481 531 
L 3481 0 
L 794 0 
L 794 531 
z
" transform="scale(0.015625)"/>
       </defs>
       <use xlink:href="#DejaVuSans-31"/>
      </g>
     </g>
    </g>
    <g id="xtick_3">
     <g id="line2d_3">
      <g>
       <use xlink:href="#mbdf9c07844" x="96" y="284.4" style="stroke: #000000; stroke-width: 0.8"/>
      </g>
     </g>
     <g id="text_3">
      <!-- 2 -->
      <g transform="translate(92.81875 298.998438) scale(0.1 -0.1)">
       <defs>
        <path id="DejaVuSans-32" d="M 1228 531 
L 3431 531 
L 3431 0 
L 469 0 
L 469 531 
Q 828 903 1448 1529 
Q 2069 2156 2228 2338 
Q 2531 2678 2651 2914 
Q 2772 3150 2772 3378 
Q 2772 3750 2511 3984 
Q 2250 4219 1831 4219 
Q 1534 4219 1204 4116 
Q 875 4013 500 3803 
L 500 4441 
Q 881 4594 1212 4672 
Q 1544 4750 1819 4750 
Q 2544 4750 2975 4387 
Q 3406 4025 3406 3419 
Q 3406 3131 3298 2873 
Q 3191 2616 2906 2266 
Q 2828 2175 2409 1742 
Q 1991 1309 1228 531 
z
" transform="scale(0.015625)"/>
       </defs>
       <use xlink:href="#DejaVuSans-32"/>
      </g>
     </g>
    </g>
    <g id="xtick_4">
     <g id="line2d_4">
      <g>
       <use xlink:href="#mbdf9c07844" x="116.925" y="284.4" style="stroke: #000000; stroke-width: 0.8"/>
      </g>
     </g>
     <g id="text_4">
      <!-- 3 -->
      <g transform="translate(113.74375 298.998438) scale(0.1 -0.1)">
       <defs>
        <path id="DejaVuSans-33" d="M 2597 2516 
Q 3050 2419 3304 2112 
Q 3559 1806 3559 1356 
Q 3559 666 3084 287 
Q 2609 -91 1734 -91 
Q 1441 -91 1130 -33 
Q 819 25 488 141 
L 488 750 
Q 750 597 1062 519 
Q 1375 441 1716 441 
Q 2309 441 2620 675 
Q 2931 909 2931 1356 
Q 2931 1769 2642 2001 
Q 2353 2234 1838 2234 
L 1294 2234 
L 1294 2753 
L 1863 2753 
Q 2328 2753 2575 2939 
Q 2822 3125 2822 3475 
Q 2822 3834 2567 4026 
Q 2313 4219 1838 4219 
Q 1578 4219 1281 4162 
Q 984 4106 628 3988 
L 628 4550 
Q 988 4650 1302 4700 
Q 1616 4750 1894 4750 
Q 2613 4750 3031 4423 
Q 3450 4097 3450 3541 
Q 3450 3153 3228 2886 
Q 3006 2619 2597 2516 
z
" transform="scale(0.015625)"/>
       </defs>
       <use xlink:href="#DejaVuSans-33"/>
      </g>
     </g>
    </g>
    <g id="xtick_5">
     <g id="line2d_5">
      <g>
       <use xlink:href="#mbdf9c07844" x="137.85" y="284.4" style="stroke: #000000; stroke-width: 0.8"/>
      </g>
     </g>
     <g id="text_5">
      <!-- 4 -->
      <g transform="translate(134.66875 298.998438) scale(0.1 -0.1)">
       <defs>
        <path id="DejaVuSans-34" d="M 2419 4116 
L 825 1625 
L 2419 1625 
L 2419 4116 
z
M 2253 4666 
L 3047 4666 
L 3047 1625 
L 3713 1625 
L 3713 1100 
L 3047 1100 
L 3047 0 
L 2419 0 
L 2419 1100 
L 313 1100 
L 313 1709 
L 2253 4666 
z
" transform="scale(0.015625)"/>
       </defs>
       <use xlink:href="#DejaVuSans-34"/>
      </g>
     </g>
    </g>
    <g id="xtick_6">
     <g id="line2d_6">
      <g>
       <use xlink:href="#mbdf9c07844" x="158.775" y="284.4" style="stroke: #000000; stroke-width: 0.8"/>
      </g>
     </g>
     <g id="text_6">
      <!-- 5 -->
      <g transform="translate(155.59375 298.998438) scale(0.1 -0.1)">
       <defs>
        <path id="DejaVuSans-35" d="M 691 4666 
L 3169 4666 
L 3169 4134 
L 1269 4134 
L 1269 2991 
Q 1406 3038 1543 3061 
Q 1681 3084 1819 3084 
Q 2600 3084 3056 2656 
Q 3513 2228 3513 1497 
Q 3513 744 3044 326 
Q 2575 -91 1722 -91 
Q 1428 -91 1123 -41 
Q 819 9 494 109 
L 494 744 
Q 775 591 1075 516 
Q 1375 441 1709 441 
Q 2250 441 2565 725 
Q 2881 1009 2881 1497 
Q 2881 1984 2565 2268 
Q 2250 2553 1709 2553 
Q 1456 2553 1204 2497 
Q 953 2441 691 2322 
L 691 4666 
z
" transform="scale(0.015625)"/>
       </defs>
       <use xlink:href="#DejaVuSans-35"/>
      </g>
     </g>
    </g>
    <g id="xtick_7">
     <g id="line2d_7">
      <g>
       <use xlink:href="#mbdf9c07844" x="179.7" y="284.4" style="stroke: #000000; stroke-width: 0.8"/>
      </g>
     </g>
     <g id="text_7">
      <!-- 6 -->
      <g transform="translate(176.51875 298.998438) scale(0.1 -0.1)">
       <defs>
        <path id="DejaVuSans-36" d="M 2113 2584 
Q 1688 2584 1439 2293 
Q 1191 2003 1191 1497 
Q 1191 994 1439 701 
Q 1688 409 2113 409 
Q 2538 409 2786 701 
Q 3034 994 3034 1497 
Q 3034 2003 2786 2293 
Q 2538 2584 2113 2584 
z
M 3366 4563 
L 3366 3988 
Q 3128 4100 2886 4159 
Q 2644 4219 2406 4219 
Q 1781 4219 1451 3797 
Q 1122 3375 1075 2522 
Q 1259 2794 1537 2939 
Q 1816 3084 2150 3084 
Q 2853 3084 3261 2657 
Q 3669 2231 3669 1497 
Q 3669 778 3244 343 
Q 2819 -91 2113 -91 
Q 1303 -91 875 529 
Q 447 1150 447 2328 
Q 447 3434 972 4092 
Q 1497 4750 2381 4750 
Q 2619 4750 2861 4703 
Q 3103 4656 3366 4563 
z
" transform="scale(0.015625)"/>
       </defs>
       <use xlink:href="#DejaVuSans-36"/>
      </g>
     </g>
    </g>
    <g id="xtick_8">
     <g id="line2d_8">
      <g>
       <use xlink:href="#mbdf9c07844" x="200.625" y="284.4" style="stroke: #000000; stroke-width: 0.8"/>
      </g>
     </g>
     <g id="text_8">
      <!-- 7 -->
      <g transform="translate(197.44375 298.998438) scale(0.1 -0.1)">
       <defs>
        <path id="DejaVuSans-37" d="M 525 4666 
L 3525 4666 
L 3525 4397 
L 1831 0 
L 1172 0 
L 2766 4134 
L 525 4134 
L 525 4666 
z
" transform="scale(0.015625)"/>
       </defs>
       <use xlink:href="#DejaVuSans-37"/>
      </g>
     </g>
    </g>
    <g id="xtick_9">
     <g id="line2d_9">
      <g>
       <use xlink:href="#mbdf9c07844" x="221.55" y="284.4" style="stroke: #000000; stroke-width: 0.8"/>
      </g>
     </g>
     <g id="text_9">
      <!-- 8 -->
      <g transform="translate(218.36875 298.998438) scale(0.1 -0.1)">
       <defs>
        <path id="DejaVuSans-38" d="M 2034 2216 
Q 1584 2216 1326 1975 
Q 1069 1734 1069 1313 
Q 1069 891 1326 650 
Q 1584 409 2034 409 
Q 2484 409 2743 651 
Q 3003 894 3003 1313 
Q 3003 1734 2745 1975 
Q 2488 2216 2034 2216 
z
M 1403 2484 
Q 997 2584 770 2862 
Q 544 3141 544 3541 
Q 544 4100 942 4425 
Q 1341 4750 2034 4750 
Q 2731 4750 3128 4425 
Q 3525 4100 3525 3541 
Q 3525 3141 3298 2862 
Q 3072 2584 2669 2484 
Q 3125 2378 3379 2068 
Q 3634 1759 3634 1313 
Q 3634 634 3220 271 
Q 2806 -91 2034 -91 
Q 1263 -91 848 271 
Q 434 634 434 1313 
Q 434 1759 690 2068 
Q 947 2378 1403 2484 
z
M 1172 3481 
Q 1172 3119 1398 2916 
Q 1625 2713 2034 2713 
Q 2441 2713 2670 2916 
Q 2900 3119 2900 3481 
Q 2900 3844 2670 4047 
Q 2441 4250 2034 4250 
Q 1625 4250 1398 4047 
Q 1172 3844 1172 3481 
z
" transform="scale(0.015625)"/>
       </defs>
       <use xlink:href="#DejaVuSans-38"/>
      </g>
     </g>
    </g>
    <g id="xtick_10">
     <g id="line2d_10">
      <g>
       <use xlink:href="#mbdf9c07844" x="242.475" y="284.4" style="stroke: #000000; stroke-width: 0.8"/>
      </g>
     </g>
     <g id="text_10">
      <!-- 9 -->
      <g transform="translate(239.29375 298.998438) scale(0.1 -0.1)">
       <defs>
        <path id="DejaVuSans-39" d="M 703 97 
L 703 672 
Q 941 559 1184 500 
Q 1428 441 1663 441 
Q 2288 441 2617 861 
Q 2947 1281 2994 2138 
Q 2813 1869 2534 1725 
Q 2256 1581 1919 1581 
Q 1219 1581 811 2004 
Q 403 2428 403 3163 
Q 403 3881 828 4315 
Q 1253 4750 1959 4750 
Q 2769 4750 3195 4129 
Q 3622 3509 3622 2328 
Q 3622 1225 3098 567 
Q 2575 -91 1691 -91 
Q 1453 -91 1209 -44 
Q 966 3 703 97 
z
M 1959 2075 
Q 2384 2075 2632 2365 
Q 2881 2656 2881 3163 
Q 2881 3666 2632 3958 
Q 2384 4250 1959 4250 
Q 1534 4250 1286 3958 
Q 1038 3666 1038 3163 
Q 1038 2656 1286 2365 
Q 1534 2075 1959 2075 
z
" transform="scale(0.015625)"/>
       </defs>
       <use xlink:href="#DejaVuSans-39"/>
      </g>
     </g>
    </g>
    <g id="xtick_11">
     <g id="line2d_11">
      <g>
       <use xlink:href="#mbdf9c07844" x="263.4" y="284.4" style="stroke: #000000; stroke-width: 0.8"/>
      </g>
     </g>
     <g id="text_11">
      <!-- 10 -->
      <g transform="translate(257.0375 298.998438) scale(0.1 -0.1)">
       <use xlink:href="#DejaVuSans-31"/>
       <use xlink:href="#DejaVuSans-30" x="63.623047"/>
      </g>
     </g>
    </g>
    <g id="xtick_12">
     <g id="line2d_12">
      <g>
       <use xlink:href="#mbdf9c07844" x="284.325" y="284.4" style="stroke: #000000; stroke-width: 0.8"/>
      </g>
     </g>
     <g id="text_12">
      <!-- 11 -->
      <g transform="translate(277.9625 298.998438) scale(0.1 -0.1)">
       <use xlink:href="#DejaVuSans-31"/>
       <use xlink:href="#DejaVuSans-31" x="63.623047"/>
      </g>
     </g>
    </g>
    <g id="xtick_13">
     <g id="line2d_13">
      <g>
       <use xlink:href="#mbdf9c07844" x="305.25" y="284.4" style="stroke: #000000; stroke-width: 0.8"/>
      </g>
     </g>
     <g id="text_13">
      <!-- 12 -->
      <g transform="translate(298.8875 298.998438) scale(0.1 -0.1)">
       <use xlink:href="#DejaVuSans-31"/>
       <use xlink:href="#DejaVuSans-32" x="63.623047"/>
      </g>
     </g>
    </g>
    <g id="xtick_14">
     <g id="line2d_14">
      <g>
       <use xlink:href="#mbdf9c07844" x="326.175" y="284.4" style="stroke: #000000; stroke-width: 0.8"/>
      </g>
     </g>
     <g id="text_14">
      <!-- 13 -->
      <g transform="translate(319.8125 298.998438) scale(0.1 -0.1)">
       <use xlink:href="#DejaVuSans-31"/>
       <use xlink:href="#DejaVuSans-33" x="63.623047"/>
      </g>
     </g>
    </g>
    <g id="xtick_15">
     <g id="line2d_15">
      <g>
       <use xlink:href="#mbdf9c07844" x="347.1" y="284.4" style="stroke: #000000; stroke-width: 0.8"/>
      </g>
     </g>
     <g id="text_15">
      <!-- 14 -->
      <g transform="translate(340.7375 298.998438) scale(0.1 -0.1)">
       <use xlink:href="#DejaVuSans-31"/>
       <use xlink:href="#DejaVuSans-34" x="63.623047"/>
      </g>
     </g>
    </g>
    <g id="xtick_16">
     <g id="line2d_16">
      <g>
       <use xlink:href="#mbdf9c07844" x="368.025" y="284.4" style="stroke: #000000; stroke-width: 0.8"/>
      </g>
     </g>
     <g id="text_16">
      <!-- 15 -->
      <g transform="translate(361.6625 298.998438) scale(0.1 -0.1)">
       <use xlink:href="#DejaVuSans-31"/>
       <use xlink:href="#DejaVuSans-35" x="63.623047"/>
      </g>
     </g>
    </g>
    <g id="xtick_17">
     <g id="line2d_17">
      <g>
       <use xlink:href="#mbdf9c07844" x="388.95" y="284.4" style="stroke: #000000; stroke-width: 0.8"/>
      </g>
     </g>
     <g id="text_17">
      <!-- 16 -->
      <g transform="translate(382.5875 298.998438) scale(0.1 -0.1)">
       <use xlink:href="#DejaVuSans-31"/>
       <use xlink:href="#DejaVuSans-36" x="63.623047"/>
      </g>
     </g>
    </g>
    <g id="xtick_18">
     <g id="line2d_18">
      <g>
       <use xlink:href="#mbdf9c07844" x="409.875" y="284.4" style="stroke: #000000; stroke-width: 0.8"/>
      </g>
     </g>
     <g id="text_18">
      <!-- 17 -->
      <g transform="translate(403.5125 298.998438) scale(0.1 -0.1)">
       <use xlink:href="#DejaVuSans-31"/>
       <use xlink:href="#DejaVuSans-37" x="63.623047"/>
      </g>
     </g>
    </g>
    <g id="xtick_19">
     <g id="line2d_19">
      <g>
       <use xlink:href="#mbdf9c07844" x="430.8" y="284.4" style="stroke: #000000; stroke-width: 0.8"/>
      </g>
     </g>
     <g id="text_19">
      <!-- 18 -->
      <g transform="translate(424.4375 298.998438) scale(0.1 -0.1)">
       <use xlink:href="#DejaVuSans-31"/>
       <use xlink:href="#DejaVuSans-38" x="63.623047"/>
      </g>
     </g>
    </g>
    <g id="xtick_20">
     <g id="line2d_20">
      <g>
       <use xlink:href="#mbdf9c07844" x="451.725" y="284.4" style="stroke: #000000; stroke-width: 0.8"/>
      </g>
     </g>
     <g id="text_20">
      <!-- 19 -->
      <g transform="translate(445.3625 298.998438) scale(0.1 -0.1)">
       <use xlink:href="#DejaVuSans-31"/>
       <use xlink:href="#DejaVuSans-39" x="63.623047"/>
      </g>
     </g>
    </g>
    <g id="xtick_21">
     <g id="line2d_21">
      <g>
       <use xlink:href="#mbdf9c07844" x="472.65" y="284.4" style="stroke: #000000; stroke-width: 0.8"/>
      </g>
     </g>
     <g id="text_21">
      <!-- 20 -->
      <g transform="translate(466.2875 298.998438) scale(0.1 -0.1)">
       <use xlink:href="#DejaVuSans-32"/>
       <use xlink:href="#DejaVuSans-30" x="63.623047"/>
      </g>
     </g>
    </g>
    <g id="xtick_22">
     <g id="line2d_22">
      <g>
       <use xlink:href="#mbdf9c07844" x="493.575" y="284.4" style="stroke: #000000; stroke-width: 0.8"/>
      </g>
     </g>
     <g id="text_22">
      <!-- 21 -->
      <g transform="translate(487.2125 298.998438) scale(0.1 -0.1)">
       <use xlink:href="#DejaVuSans-32"/>
       <use xlink:href="#DejaVuSans-31" x="63.623047"/>
      </g>
     </g>
    </g>
    <g id="xtick_23">
     <g id="line2d_23">
      <g>
       <use xlink:href="#mbdf9c07844" x="514.5" y="284.4" style="stroke: #000000; stroke-width: 0.8"/>
      </g>
     </g>
     <g id="text_23">
      <!-- 22 -->
      <g transform="translate(508.1375 298.998438) scale(0.1 -0.1)">
       <use xlink:href="#DejaVuSans-32"/>
       <use xlink:href="#DejaVuSans-32" x="63.623047"/>
      </g>
     </g>
    </g>
    <g id="xtick_24">
     <g id="line2d_24">
      <g>
       <use xlink:href="#mbdf9c07844" x="535.425" y="284.4" style="stroke: #000000; stroke-width: 0.8"/>
      </g>
     </g>
     <g id="text_24">
      <!-- 23 -->
      <g transform="translate(529.0625 298.998438) scale(0.1 -0.1)">
       <use xlink:href="#DejaVuSans-32"/>
       <use xlink:href="#DejaVuSans-33" x="63.623047"/>
      </g>
     </g>
    </g>
    <g id="text_25">
     <!-- Time of the day -->
     <g transform="translate(266.026563 312.676562) scale(0.1 -0.1)">
      <defs>
       <path id="DejaVuSans-54" d="M -19 4666 
L 3928 4666 
L 3928 4134 
L 2272 4134 
L 2272 0 
L 1638 0 
L 1638 4134 
L -19 4134 
L -19 4666 
z
" transform="scale(0.015625)"/>
       <path id="DejaVuSans-69" d="M 603 3500 
L 1178 3500 
L 1178 0 
L 603 0 
L 603 3500 
z
M 603 4863 
L 1178 4863 
L 1178 4134 
L 603 4134 
L 603 4863 
z
" transform="scale(0.015625)"/>
       <path id="DejaVuSans-6d" d="M 3328 2828 
Q 3544 3216 3844 3400 
Q 4144 3584 4550 3584 
Q 5097 3584 5394 3201 
Q 5691 2819 5691 2113 
L 5691 0 
L 5113 0 
L 5113 2094 
Q 5113 2597 4934 2840 
Q 4756 3084 4391 3084 
Q 3944 3084 3684 2787 
Q 3425 2491 3425 1978 
L 3425 0 
L 2847 0 
L 2847 2094 
Q 2847 2600 2669 2842 
Q 2491 3084 2119 3084 
Q 1678 3084 1418 2786 
Q 1159 2488 1159 1978 
L 1159 0 
L 581 0 
L 581 3500 
L 1159 3500 
L 1159 2956 
Q 1356 3278 1631 3431 
Q 1906 3584 2284 3584 
Q 2666 3584 2933 3390 
Q 3200 3197 3328 2828 
z
" transform="scale(0.015625)"/>
       <path id="DejaVuSans-65" d="M 3597 1894 
L 3597 1613 
L 953 1613 
Q 991 1019 1311 708 
Q 1631 397 2203 397 
Q 2534 397 2845 478 
Q 3156 559 3463 722 
L 3463 178 
Q 3153 47 2828 -22 
Q 2503 -91 2169 -91 
Q 1331 -91 842 396 
Q 353 884 353 1716 
Q 353 2575 817 3079 
Q 1281 3584 2069 3584 
Q 2775 3584 3186 3129 
Q 3597 2675 3597 1894 
z
M 3022 2063 
Q 3016 2534 2758 2815 
Q 2500 3097 2075 3097 
Q 1594 3097 1305 2825 
Q 1016 2553 972 2059 
L 3022 2063 
z
" transform="scale(0.015625)"/>
       <path id="DejaVuSans-20" transform="scale(0.015625)"/>
       <path id="DejaVuSans-6f" d="M 1959 3097 
Q 1497 3097 1228 2736 
Q 959 2375 959 1747 
Q 959 1119 1226 758 
Q 1494 397 1959 397 
Q 2419 397 2687 759 
Q 2956 1122 2956 1747 
Q 2956 2369 2687 2733 
Q 2419 3097 1959 3097 
z
M 1959 3584 
Q 2709 3584 3137 3096 
Q 3566 2609 3566 1747 
Q 3566 888 3137 398 
Q 2709 -91 1959 -91 
Q 1206 -91 779 398 
Q 353 888 353 1747 
Q 353 2609 779 3096 
Q 1206 3584 1959 3584 
z
" transform="scale(0.015625)"/>
       <path id="DejaVuSans-66" d="M 2375 4863 
L 2375 4384 
L 1825 4384 
Q 1516 4384 1395 4259 
Q 1275 4134 1275 3809 
L 1275 3500 
L 2222 3500 
L 2222 3053 
L 1275 3053 
L 1275 0 
L 697 0 
L 697 3053 
L 147 3053 
L 147 3500 
L 697 3500 
L 697 3744 
Q 697 4328 969 4595 
Q 1241 4863 1831 4863 
L 2375 4863 
z
" transform="scale(0.015625)"/>
       <path id="DejaVuSans-74" d="M 1172 4494 
L 1172 3500 
L 2356 3500 
L 2356 3053 
L 1172 3053 
L 1172 1153 
Q 1172 725 1289 603 
Q 1406 481 1766 481 
L 2356 481 
L 2356 0 
L 1766 0 
Q 1100 0 847 248 
Q 594 497 594 1153 
L 594 3053 
L 172 3053 
L 172 3500 
L 594 3500 
L 594 4494 
L 1172 4494 
z
" transform="scale(0.015625)"/>
       <path id="DejaVuSans-68" d="M 3513 2113 
L 3513 0 
L 2938 0 
L 2938 2094 
Q 2938 2591 2744 2837 
Q 2550 3084 2163 3084 
Q 1697 3084 1428 2787 
Q 1159 2491 1159 1978 
L 1159 0 
L 581 0 
L 581 4863 
L 1159 4863 
L 1159 2956 
Q 1366 3272 1645 3428 
Q 1925 3584 2291 3584 
Q 2894 3584 3203 3211 
Q 3513 2838 3513 2113 
z
" transform="scale(0.015625)"/>
       <path id="DejaVuSans-64" d="M 2906 2969 
L 2906 4863 
L 3481 4863 
L 3481 0 
L 2906 0 
L 2906 525 
Q 2725 213 2448 61 
Q 2172 -91 1784 -91 
Q 1150 -91 751 415 
Q 353 922 353 1747 
Q 353 2572 751 3078 
Q 1150 3584 1784 3584 
Q 2172 3584 2448 3432 
Q 2725 3281 2906 2969 
z
M 947 1747 
Q 947 1113 1208 752 
Q 1469 391 1925 391 
Q 2381 391 2643 752 
Q 2906 1113 2906 1747 
Q 2906 2381 2643 2742 
Q 2381 3103 1925 3103 
Q 1469 3103 1208 2742 
Q 947 2381 947 1747 
z
" transform="scale(0.015625)"/>
       <path id="DejaVuSans-61" d="M 2194 1759 
Q 1497 1759 1228 1600 
Q 959 1441 959 1056 
Q 959 750 1161 570 
Q 1363 391 1709 391 
Q 2188 391 2477 730 
Q 2766 1069 2766 1631 
L 2766 1759 
L 2194 1759 
z
M 3341 1997 
L 3341 0 
L 2766 0 
L 2766 531 
Q 2569 213 2275 61 
Q 1981 -91 1556 -91 
Q 1019 -91 701 211 
Q 384 513 384 1019 
Q 384 1609 779 1909 
Q 1175 2209 1959 2209 
L 2766 2209 
L 2766 2266 
Q 2766 2663 2505 2880 
Q 2244 3097 1772 3097 
Q 1472 3097 1187 3025 
Q 903 2953 641 2809 
L 641 3341 
Q 956 3463 1253 3523 
Q 1550 3584 1831 3584 
Q 2591 3584 2966 3190 
Q 3341 2797 3341 1997 
z
" transform="scale(0.015625)"/>
       <path id="DejaVuSans-79" d="M 2059 -325 
Q 1816 -950 1584 -1140 
Q 1353 -1331 966 -1331 
L 506 -1331 
L 506 -850 
L 844 -850 
Q 1081 -850 1212 -737 
Q 1344 -625 1503 -206 
L 1606 56 
L 191 3500 
L 800 3500 
L 1894 763 
L 2988 3500 
L 3597 3500 
L 2059 -325 
z
" transform="scale(0.015625)"/>
      </defs>
      <use xlink:href="#DejaVuSans-54"/>
      <use xlink:href="#DejaVuSans-69" x="57.958984"/>
      <use xlink:href="#DejaVuSans-6d" x="85.742188"/>
      <use xlink:href="#DejaVuSans-65" x="183.154297"/>
      <use xlink:href="#DejaVuSans-20" x="244.677734"/>
      <use xlink:href="#DejaVuSans-6f" x="276.464844"/>
      <use xlink:href="#DejaVuSans-66" x="337.646484"/>
      <use xlink:href="#DejaVuSans-20" x="372.851562"/>
      <use xlink:href="#DejaVuSans-74" x="404.638672"/>
      <use xlink:href="#DejaVuSans-68" x="443.847656"/>
      <use xlink:href="#DejaVuSans-65" x="507.226562"/>
      <use xlink:href="#DejaVuSans-20" x="568.75"/>
      <use xlink:href="#DejaVuSans-64" x="600.537109"/>
      <use xlink:href="#DejaVuSans-61" x="664.013672"/>
      <use xlink:href="#DejaVuSans-79" x="725.292969"/>
     </g>
    </g>
   </g>
   <g id="matplotlib.axis_2">
    <g id="ytick_1">
     <g id="line2d_25">
      <defs>
       <path id="m3f02412ead" d="M 0 0 
L -3.5 0 
" style="stroke: #000000; stroke-width: 0.8"/>
      </defs>
      <g>
       <use xlink:href="#m3f02412ead" x="54.15" y="282.283969" style="stroke: #000000; stroke-width: 0.8"/>
      </g>
     </g>
     <g id="text_26">
      <!-- 0 -->
      <g transform="translate(40.7875 286.083188) scale(0.1 -0.1)">
       <use xlink:href="#DejaVuSans-30"/>
      </g>
     </g>
    </g>
    <g id="ytick_2">
     <g id="line2d_26">
      <g>
       <use xlink:href="#m3f02412ead" x="54.15" y="239.963359" style="stroke: #000000; stroke-width: 0.8"/>
      </g>
     </g>
     <g id="text_27">
      <!-- 200 -->
      <g transform="translate(28.0625 243.762578) scale(0.1 -0.1)">
       <use xlink:href="#DejaVuSans-32"/>
       <use xlink:href="#DejaVuSans-30" x="63.623047"/>
       <use xlink:href="#DejaVuSans-30" x="127.246094"/>
      </g>
     </g>
    </g>
    <g id="ytick_3">
     <g id="line2d_27">
      <g>
       <use xlink:href="#m3f02412ead" x="54.15" y="197.642748" style="stroke: #000000; stroke-width: 0.8"/>
      </g>
     </g>
     <g id="text_28">
      <!-- 400 -->
      <g transform="translate(28.0625 201.441967) scale(0.1 -0.1)">
       <use xlink:href="#DejaVuSans-34"/>
       <use xlink:href="#DejaVuSans-30" x="63.623047"/>
       <use xlink:href="#DejaVuSans-30" x="127.246094"/>
      </g>
     </g>
    </g>
    <g id="ytick_4">
     <g id="line2d_28">
      <g>
       <use xlink:href="#m3f02412ead" x="54.15" y="155.322137" style="stroke: #000000; stroke-width: 0.8"/>
      </g>
     </g>
     <g id="text_29">
      <!-- 600 -->
      <g transform="translate(28.0625 159.121356) scale(0.1 -0.1)">
       <use xlink:href="#DejaVuSans-36"/>
       <use xlink:href="#DejaVuSans-30" x="63.623047"/>
       <use xlink:href="#DejaVuSans-30" x="127.246094"/>
      </g>
     </g>
    </g>
    <g id="ytick_5">
     <g id="line2d_29">
      <g>
       <use xlink:href="#m3f02412ead" x="54.15" y="113.001527" style="stroke: #000000; stroke-width: 0.8"/>
      </g>
     </g>
     <g id="text_30">
      <!-- 800 -->
      <g transform="translate(28.0625 116.800745) scale(0.1 -0.1)">
       <use xlink:href="#DejaVuSans-38"/>
       <use xlink:href="#DejaVuSans-30" x="63.623047"/>
       <use xlink:href="#DejaVuSans-30" x="127.246094"/>
      </g>
     </g>
    </g>
    <g id="ytick_6">
     <g id="line2d_30">
      <g>
       <use xlink:href="#m3f02412ead" x="54.15" y="70.680916" style="stroke: #000000; stroke-width: 0.8"/>
      </g>
     </g>
     <g id="text_31">
      <!-- 1000 -->
      <g transform="translate(21.7 74.480135) scale(0.1 -0.1)">
       <use xlink:href="#DejaVuSans-31"/>
       <use xlink:href="#DejaVuSans-30" x="63.623047"/>
       <use xlink:href="#DejaVuSans-30" x="127.246094"/>
       <use xlink:href="#DejaVuSans-30" x="190.869141"/>
      </g>
     </g>
    </g>
    <g id="ytick_7">
     <g id="line2d_31">
      <g>
       <use xlink:href="#m3f02412ead" x="54.15" y="28.360305" style="stroke: #000000; stroke-width: 0.8"/>
      </g>
     </g>
     <g id="text_32">
      <!-- 1200 -->
      <g transform="translate(21.7 32.159524) scale(0.1 -0.1)">
       <use xlink:href="#DejaVuSans-31"/>
       <use xlink:href="#DejaVuSans-32" x="63.623047"/>
       <use xlink:href="#DejaVuSans-30" x="127.246094"/>
       <use xlink:href="#DejaVuSans-30" x="190.869141"/>
      </g>
     </g>
    </g>
    <g id="text_33">
     <!-- Solar irradiance [W/m$^2$] -->
     <g transform="translate(15.620312 204.75) rotate(-90) scale(0.1 -0.1)">
      <defs>
       <path id="DejaVuSans-53" d="M 3425 4513 
L 3425 3897 
Q 3066 4069 2747 4153 
Q 2428 4238 2131 4238 
Q 1616 4238 1336 4038 
Q 1056 3838 1056 3469 
Q 1056 3159 1242 3001 
Q 1428 2844 1947 2747 
L 2328 2669 
Q 3034 2534 3370 2195 
Q 3706 1856 3706 1288 
Q 3706 609 3251 259 
Q 2797 -91 1919 -91 
Q 1588 -91 1214 -16 
Q 841 59 441 206 
L 441 856 
Q 825 641 1194 531 
Q 1563 422 1919 422 
Q 2459 422 2753 634 
Q 3047 847 3047 1241 
Q 3047 1584 2836 1778 
Q 2625 1972 2144 2069 
L 1759 2144 
Q 1053 2284 737 2584 
Q 422 2884 422 3419 
Q 422 4038 858 4394 
Q 1294 4750 2059 4750 
Q 2388 4750 2728 4690 
Q 3069 4631 3425 4513 
z
" transform="scale(0.015625)"/>
       <path id="DejaVuSans-6c" d="M 603 4863 
L 1178 4863 
L 1178 0 
L 603 0 
L 603 4863 
z
" transform="scale(0.015625)"/>
       <path id="DejaVuSans-72" d="M 2631 2963 
Q 2534 3019 2420 3045 
Q 2306 3072 2169 3072 
Q 1681 3072 1420 2755 
Q 1159 2438 1159 1844 
L 1159 0 
L 581 0 
L 581 3500 
L 1159 3500 
L 1159 2956 
Q 1341 3275 1631 3429 
Q 1922 3584 2338 3584 
Q 2397 3584 2469 3576 
Q 2541 3569 2628 3553 
L 2631 2963 
z
" transform="scale(0.015625)"/>
       <path id="DejaVuSans-6e" d="M 3513 2113 
L 3513 0 
L 2938 0 
L 2938 2094 
Q 2938 2591 2744 2837 
Q 2550 3084 2163 3084 
Q 1697 3084 1428 2787 
Q 1159 2491 1159 1978 
L 1159 0 
L 581 0 
L 581 3500 
L 1159 3500 
L 1159 2956 
Q 1366 3272 1645 3428 
Q 1925 3584 2291 3584 
Q 2894 3584 3203 3211 
Q 3513 2838 3513 2113 
z
" transform="scale(0.015625)"/>
       <path id="DejaVuSans-63" d="M 3122 3366 
L 3122 2828 
Q 2878 2963 2633 3030 
Q 2388 3097 2138 3097 
Q 1578 3097 1268 2742 
Q 959 2388 959 1747 
Q 959 1106 1268 751 
Q 1578 397 2138 397 
Q 2388 397 2633 464 
Q 2878 531 3122 666 
L 3122 134 
Q 2881 22 2623 -34 
Q 2366 -91 2075 -91 
Q 1284 -91 818 406 
Q 353 903 353 1747 
Q 353 2603 823 3093 
Q 1294 3584 2113 3584 
Q 2378 3584 2631 3529 
Q 2884 3475 3122 3366 
z
" transform="scale(0.015625)"/>
       <path id="DejaVuSans-5b" d="M 550 4863 
L 1875 4863 
L 1875 4416 
L 1125 4416 
L 1125 -397 
L 1875 -397 
L 1875 -844 
L 550 -844 
L 550 4863 
z
" transform="scale(0.015625)"/>
       <path id="DejaVuSans-57" d="M 213 4666 
L 850 4666 
L 1831 722 
L 2809 4666 
L 3519 4666 
L 4500 722 
L 5478 4666 
L 6119 4666 
L 4947 0 
L 4153 0 
L 3169 4050 
L 2175 0 
L 1381 0 
L 213 4666 
z
" transform="scale(0.015625)"/>
       <path id="DejaVuSans-2f" d="M 1625 4666 
L 2156 4666 
L 531 -594 
L 0 -594 
L 1625 4666 
z
" transform="scale(0.015625)"/>
       <path id="DejaVuSans-5d" d="M 1947 4863 
L 1947 -844 
L 622 -844 
L 622 -397 
L 1369 -397 
L 1369 4416 
L 622 4416 
L 622 4863 
L 1947 4863 
z
" transform="scale(0.015625)"/>
      </defs>
      <use xlink:href="#DejaVuSans-53" transform="translate(0 0.765625)"/>
      <use xlink:href="#DejaVuSans-6f" transform="translate(63.476562 0.765625)"/>
      <use xlink:href="#DejaVuSans-6c" transform="translate(124.658203 0.765625)"/>
      <use xlink:href="#DejaVuSans-61" transform="translate(152.441406 0.765625)"/>
      <use xlink:href="#DejaVuSans-72" transform="translate(213.720703 0.765625)"/>
      <use xlink:href="#DejaVuSans-20" transform="translate(254.833984 0.765625)"/>
      <use xlink:href="#DejaVuSans-69" transform="translate(286.621094 0.765625)"/>
      <use xlink:href="#DejaVuSans-72" transform="translate(314.404297 0.765625)"/>
      <use xlink:href="#DejaVuSans-72" transform="translate(355.517578 0.765625)"/>
      <use xlink:href="#DejaVuSans-61" transform="translate(396.630859 0.765625)"/>
      <use xlink:href="#DejaVuSans-64" transform="translate(457.910156 0.765625)"/>
      <use xlink:href="#DejaVuSans-69" transform="translate(521.386719 0.765625)"/>
      <use xlink:href="#DejaVuSans-61" transform="translate(549.169922 0.765625)"/>
      <use xlink:href="#DejaVuSans-6e" transform="translate(610.449219 0.765625)"/>
      <use xlink:href="#DejaVuSans-63" transform="translate(673.828125 0.765625)"/>
      <use xlink:href="#DejaVuSans-65" transform="translate(728.808594 0.765625)"/>
      <use xlink:href="#DejaVuSans-20" transform="translate(790.332031 0.765625)"/>
      <use xlink:href="#DejaVuSans-5b" transform="translate(822.119141 0.765625)"/>
      <use xlink:href="#DejaVuSans-57" transform="translate(861.132812 0.765625)"/>
      <use xlink:href="#DejaVuSans-2f" transform="translate(960.009766 0.765625)"/>
      <use xlink:href="#DejaVuSans-6d" transform="translate(993.701172 0.765625)"/>
      <use xlink:href="#DejaVuSans-32" transform="translate(1092.070312 39.046875) scale(0.7)"/>
      <use xlink:href="#DejaVuSans-5d" transform="translate(1139.34082 0.765625)"/>
     </g>
    </g>
   </g>
   <g id="line2d_32">
    <path d="M 54.15 282.283969 
L 126.391418 282.262809 
L 126.74041 282.072366 
L 128.136379 282.072366 
L 128.834364 281.860763 
L 129.532349 281.818443 
L 129.881341 281.64916 
L 130.230334 281.628 
L 130.928318 281.352916 
L 131.975295 280.802748 
L 133.720257 279.638931 
L 135.465219 278.200031 
L 135.814211 278.073069 
L 136.163204 278.263511 
L 136.861188 278.030748 
L 137.559173 277.755664 
L 137.908165 277.628702 
L 138.257158 277.628702 
L 138.60615 277.43826 
L 139.304135 277.417099 
L 140.00212 276.993893 
L 140.351112 276.951572 
L 141.398089 276.274443 
L 141.747081 276.147481 
L 142.794058 276.147481 
L 143.143051 276.337924 
L 145.237005 276.359084 
L 146.632974 276.359084 
L 147.330959 276.697649 
L 148.377936 277.649863 
L 148.726928 277.840305 
L 149.075921 277.628702 
L 149.424913 277.268977 
L 150.122898 276.126321 
L 151.169875 273.756367 
L 152.565844 270.413038 
L 153.263829 255.3469 
L 153.612821 259.854046 
L 153.961814 262.816489 
L 154.310806 263.557099 
L 154.659798 269.058779 
L 155.008791 268.614413 
L 155.357783 256.70116 
L 155.706776 260.679298 
L 156.055768 269.270382 
L 156.40476 272.846474 
L 156.753753 273.502443 
L 157.102745 273.841007 
L 157.451737 272.719511 
L 157.80073 267.00623 
L 158.149722 272.529069 
L 158.847707 271.428733 
L 159.196699 259.494321 
L 159.545691 256.553038 
L 159.894684 249.527816 
L 160.243676 264.551633 
L 160.941661 248.279359 
L 161.290653 250.670475 
L 162.33763 265.525008 
L 162.686623 268.297008 
L 163.035615 268.804855 
L 163.384607 268.593253 
L 165.129569 265.67313 
L 165.478562 265.482687 
L 165.827554 263.197375 
L 166.176546 265.059481 
L 166.525539 266.286779 
L 166.874531 259.367358 
L 167.223523 239.116947 
L 167.572516 235.28693 
L 167.921508 233.467146 
L 168.2705 232.49377 
L 168.619493 243.581772 
L 168.968485 250.945556 
L 169.317477 235.837099 
L 169.66647 253.802197 
L 170.015462 254.225403 
L 170.364454 232.959296 
L 170.713447 227.309499 
L 171.062439 227.034411 
L 171.411432 226.484242 
L 171.760424 250.226107 
L 172.109416 261.652672 
L 172.458409 262.245161 
L 172.807401 254.775573 
L 173.156393 262.731847 
L 173.505386 258.436306 
L 173.854378 232.007083 
L 174.20337 224.198931 
L 174.552363 221.828975 
L 175.59934 220.770959 
L 175.948332 219.988032 
L 176.646317 217.829678 
L 177.344302 216.687023 
L 178.042286 215.01536 
L 178.740271 212.17988 
L 179.089263 213.936183 
L 179.438256 213.978506 
L 179.787248 207.672732 
L 180.485233 203.588795 
L 181.881202 193.770415 
L 182.230195 191.802503 
L 182.579187 191.760186 
L 182.928179 193.262562 
L 183.626164 227.097896 
L 183.975156 184.607999 
L 184.324149 222.400305 
L 184.673141 189.940398 
L 185.022133 187.422323 
L 185.371126 188.120611 
L 185.720118 196.711696 
L 186.06911 193.389525 
L 186.418103 187.591603 
L 186.767095 187.718566 
L 187.116088 188.67078 
L 187.46508 190.13084 
L 187.814072 189.072824 
L 188.163065 189.58067 
L 188.512057 190.850289 
L 188.861049 190.934929 
L 189.210042 234.694444 
L 189.559034 255.685466 
L 189.908026 254.690933 
L 190.257019 231.499237 
L 190.606011 187.316522 
L 190.955003 185.517896 
L 191.303996 188.268735 
L 191.652988 194.447541 
L 192.001981 185.750654 
L 192.350973 185.517896 
L 192.699965 201.663206 
L 193.048958 227.944308 
L 193.39795 231.583877 
L 193.746942 232.40913 
L 194.095935 237.508762 
L 194.444927 237.508762 
L 194.793919 233.721069 
L 195.142912 235.752459 
L 195.491904 244.703266 
L 195.840896 248.321679 
L 196.189889 245.062994 
L 196.887874 228.325191 
L 197.236866 224.452858 
L 197.585858 224.283571 
L 197.934851 230.652824 
L 198.632835 238.566777 
L 198.981828 240.492366 
L 199.33082 239.095785 
L 199.679812 235.794779 
L 200.377797 233.91151 
L 200.726789 229.129283 
L 201.075782 225.891756 
L 201.773767 229.721772 
L 202.122759 230.610504 
L 202.471751 230.398901 
L 202.820744 228.642595 
L 203.169736 226.2938 
L 203.518728 225.29927 
L 203.867721 226.568888 
L 204.565705 233.08626 
L 205.26369 239.540153 
L 205.612682 241.106014 
L 206.310667 239.624793 
L 206.659659 240.830933 
L 207.008652 241.169496 
L 207.357644 239.180428 
L 207.706637 238.228214 
L 208.055629 236.683511 
L 208.404621 233.403664 
L 209.102606 221.236489 
L 209.451598 214.676794 
L 209.800591 210.592858 
L 210.149583 213.449499 
L 211.545552 234.990687 
L 211.894545 238.566777 
L 212.243537 237.254839 
L 213.290514 219.268583 
L 213.639507 216.581221 
L 213.988499 224.17777 
L 214.337491 224.050807 
L 214.686484 226.568888 
L 215.733461 253.400153 
L 216.082453 259.452 
L 216.431445 262.626045 
L 217.12943 265.69429 
L 217.478423 266.45606 
L 217.827415 266.054016 
L 218.176407 265.461527 
L 218.5254 264.572795 
L 219.223384 260.996703 
L 219.921369 254.923694 
L 220.270361 253.781039 
L 220.619354 253.781039 
L 220.968346 255.092977 
L 221.317338 258.05542 
L 222.015323 266.540702 
L 222.364315 269.333862 
L 222.713308 270.751603 
L 223.0623 270.709282 
L 223.411293 269.291542 
L 224.109277 263.345496 
L 225.505247 248.321679 
L 225.854239 247.305984 
L 226.552224 254.712091 
L 226.901216 255.748946 
L 227.250208 254.944856 
L 228.297186 248.935327 
L 228.646178 247.665709 
L 228.99517 245.718961 
L 229.344163 241.994749 
L 230.39114 222.400305 
L 230.740132 223.140916 
L 231.089124 229.489008 
L 231.438117 230.166137 
L 231.787109 231.520398 
L 232.136101 233.530627 
L 232.485094 232.303329 
L 232.834086 232.53609 
L 233.183079 233.78455 
L 233.532071 236.387268 
L 233.881063 237.297159 
L 234.230056 235.477375 
L 234.579048 236.112184 
L 234.92804 235.646658 
L 235.277033 234.482841 
L 235.626025 239.159267 
L 235.975017 240.852091 
L 236.32401 239.624793 
L 236.673002 237.551085 
L 237.370987 228.452154 
L 237.719979 228.346352 
L 238.417964 238.609101 
L 238.766956 238.863024 
L 239.115949 239.645954 
L 239.464941 241.508062 
L 239.813933 239.582473 
L 240.162926 235.540856 
L 240.511918 228.452154 
L 241.209903 207.990136 
L 241.558895 205.93759 
L 241.907887 210.487056 
L 242.25688 211.396947 
L 242.605872 207.143724 
L 243.303857 159.808125 
L 243.652849 174.662655 
L 244.001842 159.99856 
L 244.699826 214.824919 
L 245.048819 206.847481 
L 245.397811 209.619482 
L 246.095796 230.864427 
L 246.79378 239.28623 
L 247.142773 238.418656 
L 247.491765 235.138809 
L 248.18975 225.743631 
L 248.538742 224.029651 
L 248.887735 223.902688 
L 249.585719 228.028948 
L 249.934712 228.219389 
L 250.283704 227.66922 
L 250.632696 229.764092 
L 251.330681 238.418656 
L 251.679673 239.222748 
L 252.377658 233.361344 
L 253.075643 230.081497 
L 253.424635 230.927909 
L 254.820605 247.665709 
L 255.169597 249.887541 
L 255.867582 251.241802 
L 256.914559 255.621985 
L 257.263551 254.881374 
L 257.612543 253.061586 
L 257.961536 251.89777 
L 258.310528 252.342137 
L 259.008513 255.32574 
L 259.357505 255.897069 
L 259.706498 255.241099 
L 260.05549 253.421314 
L 260.404482 250.331908 
L 261.102467 241.063694 
L 262.149444 226.314962 
L 262.847429 220.263113 
L 263.196421 218.908855 
L 263.545413 218.972333 
L 263.894406 219.670627 
L 264.243398 219.903392 
L 264.592391 218.803053 
L 264.941383 216.771663 
L 265.639368 210.762137 
L 265.98836 206.741679 
L 266.337352 200.435911 
L 267.035337 177.879024 
L 267.384329 164.463392 
L 267.733322 129.993249 
L 268.082314 113.170807 
L 268.431306 159.765802 
L 268.780299 186.681713 
L 269.129291 189.411391 
L 269.827276 185.433249 
L 270.176268 186.893316 
L 270.525261 190.21548 
L 270.874253 182.026445 
L 271.223245 168.589651 
L 271.92123 182.005284 
L 272.270222 186.216183 
L 273.666192 218.337524 
L 274.015184 222.167541 
L 274.364177 222.71771 
L 275.062161 218.654929 
L 275.760146 208.984673 
L 277.156115 199.356734 
L 278.203092 190.278964 
L 278.552085 197.938991 
L 278.901077 199.166293 
L 279.599062 206.657039 
L 280.646039 218.951178 
L 281.344024 224.325894 
L 282.042008 227.478779 
L 283.437978 236.366107 
L 283.78697 242.269831 
L 284.135962 245.824763 
L 284.484955 247.030899 
L 284.833947 247.221344 
L 285.18294 247.665709 
L 285.531932 248.787205 
L 285.880924 252.067053 
L 287.276894 271.23829 
L 287.625886 272.719511 
L 287.974878 271.471054 
L 288.323871 266.4349 
L 289.71984 231.562718 
L 290.766817 223.373681 
L 291.11581 221.934776 
L 291.464802 222.421467 
L 291.813794 224.26241 
L 292.511779 233.615267 
L 293.209764 243.243206 
L 293.558756 244.914869 
L 293.907748 243.391328 
L 294.605733 236.57771 
L 294.954726 234.503999 
L 295.303718 233.932672 
L 295.65271 235.646658 
L 296.001703 238.03777 
L 296.350695 239.116947 
L 296.699687 241.44458 
L 297.746664 253.738719 
L 298.095657 267.154351 
L 298.444649 260.7851 
L 298.793641 259.515481 
L 299.142634 259.705924 
L 299.491626 257.674534 
L 299.840618 253.23087 
L 300.538603 236.831633 
L 300.887596 228.663757 
L 301.236588 225.256947 
L 301.58558 228.113588 
L 302.283565 240.767451 
L 302.632557 242.82 
L 303.330542 242.164029 
L 304.377519 245.359237 
L 304.726511 245.676641 
L 305.424496 247.708032 
L 306.122481 250.226107 
L 306.471473 251.199482 
L 306.820466 250.670475 
L 307.867443 239.751756 
L 308.565427 237.95313 
L 309.263412 233.615267 
L 309.612404 232.811175 
L 309.961397 233.340183 
L 310.659382 236.852795 
L 311.008374 237.381802 
L 311.357366 236.429588 
L 311.706359 234.588643 
L 312.055351 231.901281 
L 313.102328 216.517743 
L 313.45132 216.242655 
L 314.149305 232.874656 
L 314.498297 237.847328 
L 314.84729 236.471908 
L 315.196282 230.229618 
L 315.545274 226.2938 
L 315.894267 229.065802 
L 316.243259 233.022778 
L 316.592252 233.509466 
L 316.941244 231.562718 
L 317.290236 228.621434 
L 318.337213 215.734809 
L 318.686206 213.703419 
L 319.035198 213.915022 
L 319.38419 217.216031 
L 320.082175 226.2938 
L 320.431167 228.748397 
L 321.478145 240.915573 
L 321.827137 243.560611 
L 322.176129 244.555144 
L 322.525122 244.470504 
L 322.874114 244.618626 
L 323.223106 246.459572 
L 323.572099 250.141467 
L 323.921091 252.278656 
L 324.270083 250.52235 
L 324.968068 244.533986 
L 325.31706 240.746289 
L 325.666053 239.41319 
L 326.015045 242.164029 
L 326.364038 246.967421 
L 326.71303 250.056824 
L 327.062022 249.697099 
L 327.411015 246.650017 
L 328.108999 239.053465 
L 328.457992 237.022078 
L 329.155976 235.498533 
L 329.504969 233.848032 
L 329.853961 232.874656 
L 330.202953 233.361344 
L 330.551946 234.440518 
L 330.900938 233.170899 
L 331.249931 237.91081 
L 331.598923 238.65142 
L 331.947915 238.884182 
L 332.296908 238.291696 
L 332.994892 234.821404 
L 333.343885 234.059635 
L 333.692877 234.461679 
L 334.041869 235.688978 
L 335.088846 243.010441 
L 335.437839 243.708732 
L 335.786831 243.327846 
L 336.135823 241.698503 
L 336.484816 241.232977 
L 336.833808 242.037069 
L 337.182801 241.148337 
L 338.229778 234.355878 
L 338.57877 234.715602 
L 338.927762 238.122413 
L 339.974739 250.924398 
L 340.323732 252.299817 
L 340.672724 250.289588 
L 341.021716 252.807663 
L 341.719701 261.250626 
L 342.068694 264.403511 
L 342.417686 266.011694 
L 342.766678 266.731145 
L 343.115671 268.339328 
L 343.464663 269.122259 
L 343.813655 269.270382 
L 344.162648 268.699054 
L 344.51164 263.789862 
L 344.860632 250.564673 
L 345.209625 250.564673 
L 346.256602 263.514779 
L 346.605594 262.604885 
L 346.954587 262.372122 
L 347.303579 264.170748 
L 348.001564 270.51884 
L 348.350556 271.21713 
L 348.699548 271.280611 
L 349.048541 270.878565 
L 349.397533 268.699054 
L 349.746525 262.647205 
L 350.44451 243.602931 
L 350.793502 243.602931 
L 351.142495 248.342841 
L 351.840479 235.710136 
L 352.189472 234.440518 
L 352.538464 238.587939 
L 352.887457 244.745589 
L 353.585441 259.769404 
L 354.283426 265.355725 
L 354.981411 270.391878 
L 355.679395 273.904489 
L 356.028388 274.6451 
L 356.37738 274.539298 
L 356.726372 273.946809 
L 357.075365 273.121557 
L 357.424357 273.163878 
L 358.122342 275.745435 
L 358.471334 276.020519 
L 359.169319 275.851237 
L 359.518311 275.872397 
L 360.216296 274.602779 
L 360.565288 274.348855 
L 361.263273 274.66626 
L 361.612265 274.03145 
L 361.961258 272.232824 
L 362.659243 267.408274 
L 363.357227 263.641741 
L 364.055212 259.47316 
L 364.753197 256.299114 
L 365.451181 255.685466 
L 366.149166 257.864977 
L 366.498158 256.320275 
L 367.196143 247.856153 
L 367.545136 240.725131 
L 368.24312 207.207209 
L 368.592113 175.170501 
L 368.941105 113.445888 
L 369.290097 92.729957 
L 369.63909 113.572858 
L 369.988082 156.655234 
L 370.337074 172.31386 
L 370.686067 194.405224 
L 371.035059 224.114291 
L 371.384051 240.936734 
L 371.733044 251.686167 
L 372.082036 257.272489 
L 372.431028 260.679298 
L 372.780021 262.520244 
L 373.478006 264.34003 
L 374.17599 265.398045 
L 375.222967 268.974137 
L 375.57196 269.058779 
L 375.920952 268.000763 
L 376.269944 266.202137 
L 377.316921 259.346198 
L 377.665914 258.520946 
L 378.014906 260.234932 
L 378.363899 262.583726 
L 378.712891 263.789862 
L 379.061883 263.049252 
L 379.410876 260.107969 
L 380.10886 251.876611 
L 380.457853 249.337375 
L 380.806845 248.533282 
L 381.155837 250.733953 
L 381.50483 254.796734 
L 382.551807 261.419909 
L 382.900799 262.541404 
L 383.598784 263.937985 
L 384.296769 266.39258 
L 384.645761 266.752305 
L 384.994753 265.67313 
L 385.343746 263.239695 
L 385.692738 262.456764 
L 386.04173 264.128427 
L 386.390723 265.101802 
L 386.739715 265.334565 
L 387.4377 267.429436 
L 387.786692 268.593253 
L 388.484677 272.529069 
L 388.833669 273.629404 
L 389.182662 273.26968 
L 389.531654 278.538595 
L 389.880646 277.967267 
L 390.229639 275.639634 
L 390.578631 275.533832 
L 391.276616 274.877863 
L 391.625608 275.068306 
L 391.9746 275.978199 
L 392.323593 275.808916 
L 393.37057 273.163878 
L 394.766539 267.641039 
L 395.464524 266.117496 
L 395.813516 265.355725 
L 396.162509 262.816489 
L 396.511501 261.885435 
L 397.209486 257.187848 
L 397.558478 258.83835 
L 397.90747 258.415144 
L 398.605455 256.912763 
L 398.954448 256.383755 
L 399.30344 256.066351 
L 399.652432 256.087511 
L 400.001425 256.320275 
L 400.699409 257.314809 
L 401.746386 259.049954 
L 402.095379 259.219237 
L 402.444371 258.859512 
L 402.793363 257.991938 
L 403.142356 257.526412 
L 403.840341 257.526412 
L 404.189333 257.399451 
L 404.887318 256.806962 
L 405.585302 256.65884 
L 405.934295 256.066351 
L 406.632279 253.421314 
L 406.981272 252.786505 
L 407.330264 252.426777 
L 407.679256 248.173558 
L 408.028249 246.205649 
L 408.377241 250.077985 
L 408.726233 249.908702 
L 409.075226 250.141467 
L 410.471195 252.701862 
L 410.820188 253.252031 
L 411.16918 254.352366 
L 412.216157 259.367358 
L 412.565149 259.578961 
L 412.914142 258.520946 
L 413.263134 257.949618 
L 413.612126 258.03426 
L 413.961119 258.520946 
L 414.659104 260.488855 
L 415.008096 261.52571 
L 415.357088 262.075878 
L 415.706081 261.948916 
L 416.055073 261.50455 
L 416.404065 261.462229 
L 416.753058 261.800793 
L 417.10205 262.499084 
L 417.800035 264.107267 
L 418.498019 265.059481 
L 418.847012 265.334565 
L 419.544997 265.355725 
L 420.242981 266.117496 
L 420.940966 266.773465 
L 421.638951 267.04855 
L 423.383912 266.625344 
L 424.081897 266.836947 
L 424.779882 266.625344 
L 425.128874 266.625344 
L 425.477867 266.4349 
L 425.826859 266.41374 
L 426.524844 267.02739 
L 427.222828 267.937282 
L 427.571821 268.254686 
L 428.96779 268.614413 
L 431.061744 270.497679 
L 431.759729 271.344091 
L 434.90066 273.523603 
L 435.598645 273.756367 
L 437.692599 275.131786 
L 438.390584 275.830076 
L 440.83353 278.813679 
L 441.880507 279.57545 
L 443.276477 280.294901 
L 446.417408 281.225954 
L 449.558339 281.225954 
L 449.907331 281.416397 
L 450.954309 281.564519 
L 451.652293 281.64916 
L 452.350278 281.691481 
L 452.69927 281.860763 
L 454.444232 281.860763 
L 455.142217 282.072366 
L 457.585163 282.072366 
L 457.934156 282.262809 
L 460.02811 282.283969 
L 556.35 282.283969 
L 556.35 282.283969 
" clip-path="url(#p29dd485142)" style="fill: none; stroke: #ffae49; stroke-width: 1.5; stroke-linecap: square"/>
   </g>
   <g id="patch_3">
    <path d="M 54.15 284.4 
L 54.15 7.2 
" style="fill: none; stroke: #000000; stroke-width: 0.8; stroke-linejoin: miter; stroke-linecap: square"/>
   </g>
   <g id="patch_4">
    <path d="M 556.35 284.4 
L 556.35 7.2 
" style="fill: none; stroke: #000000; stroke-width: 0.8; stroke-linejoin: miter; stroke-linecap: square"/>
   </g>
   <g id="patch_5">
    <path d="M 54.15 284.4 
L 556.35 284.4 
" style="fill: none; stroke: #000000; stroke-width: 0.8; stroke-linejoin: miter; stroke-linecap: square"/>
   </g>
   <g id="patch_6">
    <path d="M 54.15 7.2 
L 556.35 7.2 
" style="fill: none; stroke: #000000; stroke-width: 0.8; stroke-linejoin: miter; stroke-linecap: square"/>
   </g>
   <g id="legend_1">
    <g id="patch_7">
     <path d="M 474.91875 29.878125 
L 549.35 29.878125 
Q 551.35 29.878125 551.35 27.878125 
L 551.35 14.2 
Q 551.35 12.2 549.35 12.2 
L 474.91875 12.2 
Q 472.91875 12.2 472.91875 14.2 
L 472.91875 27.878125 
Q 472.91875 29.878125 474.91875 29.878125 
z
" style="fill: #ffffff; opacity: 0.8; stroke: #cccccc; stroke-linejoin: miter"/>
    </g>
    <g id="line2d_33">
     <path d="M 476.91875 20.298437 
L 486.91875 20.298437 
L 496.91875 20.298437 
" style="fill: none; stroke: #ffae49; stroke-width: 1.5; stroke-linecap: square"/>
    </g>
    <g id="text_34">
     <!-- Summer -->
     <g transform="translate(504.91875 23.798437) scale(0.1 -0.1)">
      <defs>
       <path id="DejaVuSans-75" d="M 544 1381 
L 544 3500 
L 1119 3500 
L 1119 1403 
Q 1119 906 1312 657 
Q 1506 409 1894 409 
Q 2359 409 2629 706 
Q 2900 1003 2900 1516 
L 2900 3500 
L 3475 3500 
L 3475 0 
L 2900 0 
L 2900 538 
Q 2691 219 2414 64 
Q 2138 -91 1772 -91 
Q 1169 -91 856 284 
Q 544 659 544 1381 
z
M 1991 3584 
L 1991 3584 
z
" transform="scale(0.015625)"/>
      </defs>
      <use xlink:href="#DejaVuSans-53"/>
      <use xlink:href="#DejaVuSans-75" x="63.476562"/>
      <use xlink:href="#DejaVuSans-6d" x="126.855469"/>
      <use xlink:href="#DejaVuSans-6d" x="224.267578"/>
      <use xlink:href="#DejaVuSans-65" x="321.679688"/>
      <use xlink:href="#DejaVuSans-72" x="383.203125"/>
     </g>
    </g>
   </g>
  </g>
 </g>
 <defs>
  <clipPath id="p29dd485142">
   <rect x="54.15" y="7.2" width="502.2" height="277.2"/>
  </clipPath>
 </defs>
</svg>
